M48
; DRILL file {KiCad (5.1.4)-1} date 07/03/2020 15:09:53
; FORMAT={-:-/ absolute / inch / decimal}
; #@! TF.CreationDate,2020-03-07T15:09:53+01:00
; #@! TF.GenerationSoftware,Kicad,Pcbnew,(5.1.4)-1
; #@! TF.FileFunction,Plated,1,2,PTH
FMAT,2
INCH
T1C0.0157
T2C0.0315
T3C0.0394
T4C0.0512
T5C0.0591
%
G90
G05
T1
X6.31Y-4.6898
T2
X4.79Y-3.7
X4.79Y-4.1
X4.535Y-3.8031
X4.535Y-4.0
X5.0Y-4.3
X5.0Y-4.7
X7.2Y-4.58
X7.6Y-4.58
X5.75Y-4.4
X5.75Y-4.5378
X5.09Y-3.8
X5.09Y-3.9969
X9.42Y-4.025
X9.5578Y-4.025
X10.11Y-4.405
X10.11Y-4.6019
X9.035Y-4.5
X9.1728Y-4.5
X3.8854Y-3.75
X4.2854Y-3.75
X8.13Y-4.25
X8.13Y-4.35
X8.13Y-4.45
X8.13Y-4.55
X8.43Y-4.25
X8.43Y-4.35
X8.43Y-4.45
X8.43Y-4.55
X5.35Y-4.3
X5.35Y-4.7
X9.85Y-3.66
X10.25Y-3.66
X7.15Y-3.65
X7.15Y-4.05
X8.695Y-3.66
X9.095Y-3.66
X5.4Y-3.75
X5.4Y-3.85
X5.4Y-3.95
X5.4Y-4.05
X5.7Y-3.75
X5.7Y-3.85
X5.7Y-3.95
X5.7Y-4.05
X6.5Y-4.3531
X6.5Y-4.55
X9.8Y-4.405
X9.8Y-4.6019
X6.35Y-3.885
X6.35Y-4.0228
X8.955Y-3.98
X9.055Y-3.98
X9.155Y-3.98
X3.2904Y-4.05
X3.6904Y-4.05
X7.81Y-4.2031
X7.81Y-4.4
X7.45Y-3.65
X7.45Y-4.05
X4.2Y-4.3
X4.6Y-4.3
X9.295Y-3.66
X9.695Y-3.66
X6.15Y-4.25
X6.15Y-4.65
X9.48Y-4.3
X9.48Y-4.7
X6.0Y-3.8031
X6.0Y-4.0
X7.25Y-4.3
X7.4469Y-4.3
X8.725Y-4.3
X8.725Y-4.7
X3.885Y-4.05
X4.285Y-4.05
T3
X4.25Y-4.6
X4.5453Y-4.6
X7.8Y-3.7
X7.8Y-3.9953
X4.705Y-4.6
X8.64Y-3.91
X8.64Y-4.0675
X3.3951Y-3.75
X3.6904Y-3.75
X10.35Y-4.05
X10.4878Y-4.05
X4.09Y-4.6
X9.87Y-4.05
X10.0078Y-4.05
X6.85Y-4.3
X6.85Y-4.5953
T4
X4.4449Y-5.0591
X4.6417Y-5.0591
X4.8386Y-5.0591
X5.5472Y-5.0591
X5.7441Y-5.0591
X5.9409Y-5.0591
X8.8543Y-5.06
X9.0512Y-5.06
X9.248Y-5.06
X7.752Y-5.06
X7.9488Y-5.06
X8.1457Y-5.06
X6.65Y-5.0591
X6.8469Y-5.0591
X7.0437Y-5.0591
X8.19Y-3.66
X8.3869Y-3.66
X9.9567Y-5.06
X10.1535Y-5.06
X10.3504Y-5.06
X10.52Y-4.465
X10.52Y-4.6619
T5
X3.1417Y-4.5157
X3.1417Y-4.7638
X3.1417Y-5.0118
X3.7795Y-4.5157
X3.7795Y-4.7638
X3.7795Y-5.0118
T0
M30
