G04 #@! TF.GenerationSoftware,KiCad,Pcbnew,(5.1.4)-1*
G04 #@! TF.CreationDate,2020-03-07T15:09:51+01:00*
G04 #@! TF.ProjectId,Lead-12-5010,4c656164-2d31-4322-9d35-3031302e6b69,rev?*
G04 #@! TF.SameCoordinates,Original*
G04 #@! TF.FileFunction,Other,Fab,Top*
%FSLAX46Y46*%
G04 Gerber Fmt 4.6, Leading zero omitted, Abs format (unit mm)*
G04 Created by KiCad (PCBNEW (5.1.4)-1) date 2020-03-07 15:09:51*
%MOMM*%
%LPD*%
G04 APERTURE LIST*
%ADD10C,0.100000*%
%ADD11C,0.150000*%
G04 APERTURE END LIST*
D10*
X214026000Y-88664000D02*
X212026000Y-88664000D01*
X214026000Y-89664000D02*
X214026000Y-88664000D01*
X212026000Y-89664000D02*
X214026000Y-89664000D01*
X212026000Y-88664000D02*
X212026000Y-89664000D01*
X213981000Y-91826000D02*
X211889000Y-93919000D01*
X214164000Y-92009000D02*
X212072000Y-94102000D01*
X209026000Y-88664000D02*
X207026000Y-88664000D01*
X209026000Y-89664000D02*
X209026000Y-88664000D01*
X207026000Y-89664000D02*
X209026000Y-89664000D01*
X207026000Y-88664000D02*
X207026000Y-89664000D01*
X208981000Y-91826000D02*
X206888000Y-93919000D01*
X209164000Y-92009000D02*
X207071000Y-94102000D01*
X205526000Y-90664000D02*
X215526000Y-90664000D01*
X205526000Y-94964000D02*
X215526000Y-94964000D01*
X205526000Y-96464000D02*
X215526000Y-96464000D01*
X205526000Y-96464000D02*
X205526000Y-88664000D01*
X206026000Y-96964000D02*
X205526000Y-96464000D01*
X215526000Y-96964000D02*
X206026000Y-96964000D01*
X215526000Y-88664000D02*
X215526000Y-96964000D01*
X205526000Y-88664000D02*
X215526000Y-88664000D01*
X214526000Y-92964000D02*
G75*
G03X214526000Y-92964000I-1500000J0D01*
G01*
X209526000Y-92964000D02*
G75*
G03X209526000Y-92964000I-1500000J0D01*
G01*
X93735000Y-102870000D02*
X91805000Y-102870000D01*
X83575000Y-102870000D02*
X85505000Y-102870000D01*
X91805000Y-101620000D02*
X85505000Y-101620000D01*
X91805000Y-104120000D02*
X91805000Y-101620000D01*
X85505000Y-104120000D02*
X91805000Y-104120000D01*
X85505000Y-101620000D02*
X85505000Y-104120000D01*
X106918000Y-96500000D02*
X106918000Y-94000000D01*
X106918000Y-94000000D02*
X100618000Y-94000000D01*
X100618000Y-94000000D02*
X100618000Y-96500000D01*
X100618000Y-96500000D02*
X106918000Y-96500000D01*
X108848000Y-95250000D02*
X106918000Y-95250000D01*
X98688000Y-95250000D02*
X100618000Y-95250000D01*
X100609000Y-101620000D02*
X100609000Y-104120000D01*
X100609000Y-104120000D02*
X106909000Y-104120000D01*
X106909000Y-104120000D02*
X106909000Y-101620000D01*
X106909000Y-101620000D02*
X100609000Y-101620000D01*
X98679000Y-102870000D02*
X100609000Y-102870000D01*
X108839000Y-102870000D02*
X106909000Y-102870000D01*
X187980000Y-100940000D02*
X190480000Y-100940000D01*
X190480000Y-100940000D02*
X190480000Y-94640000D01*
X190480000Y-94640000D02*
X187980000Y-94640000D01*
X187980000Y-94640000D02*
X187980000Y-100940000D01*
X189230000Y-102870000D02*
X189230000Y-100940000D01*
X189230000Y-92710000D02*
X189230000Y-94640000D01*
X209900000Y-122524000D02*
X193900000Y-122524000D01*
X193900000Y-122524000D02*
X193900000Y-130024000D01*
X193900000Y-130024000D02*
X209900000Y-130024000D01*
X209900000Y-130024000D02*
X209900000Y-122524000D01*
X205400000Y-130024000D02*
X198400000Y-130024000D01*
X198400000Y-130024000D02*
X198400000Y-135024000D01*
X198400000Y-135024000D02*
X205400000Y-135024000D01*
X205400000Y-135024000D02*
X205400000Y-130024000D01*
X203900000Y-135024000D02*
X199900000Y-135024000D01*
X199900000Y-135024000D02*
X199900000Y-145024000D01*
X199900000Y-145024000D02*
X203900000Y-145024000D01*
X203900000Y-145024000D02*
X203900000Y-135024000D01*
X125900000Y-122500000D02*
X109900000Y-122500000D01*
X109900000Y-122500000D02*
X109900000Y-130000000D01*
X109900000Y-130000000D02*
X125900000Y-130000000D01*
X125900000Y-130000000D02*
X125900000Y-122500000D01*
X121400000Y-130000000D02*
X114400000Y-130000000D01*
X114400000Y-130000000D02*
X114400000Y-135000000D01*
X114400000Y-135000000D02*
X121400000Y-135000000D01*
X121400000Y-135000000D02*
X121400000Y-130000000D01*
X119900000Y-135000000D02*
X115900000Y-135000000D01*
X115900000Y-135000000D02*
X115900000Y-145000000D01*
X115900000Y-145000000D02*
X119900000Y-145000000D01*
X119900000Y-145000000D02*
X119900000Y-135000000D01*
X259900000Y-145024000D02*
X259900000Y-135024000D01*
X255900000Y-145024000D02*
X259900000Y-145024000D01*
X255900000Y-135024000D02*
X255900000Y-145024000D01*
X259900000Y-135024000D02*
X255900000Y-135024000D01*
X261400000Y-135024000D02*
X261400000Y-130024000D01*
X254400000Y-135024000D02*
X261400000Y-135024000D01*
X254400000Y-130024000D02*
X254400000Y-135024000D01*
X261400000Y-130024000D02*
X254400000Y-130024000D01*
X265900000Y-130024000D02*
X265900000Y-122524000D01*
X249900000Y-130024000D02*
X265900000Y-130024000D01*
X249900000Y-122524000D02*
X249900000Y-130024000D01*
X265900000Y-122524000D02*
X249900000Y-122524000D01*
X181910000Y-122500000D02*
X165910000Y-122500000D01*
X165910000Y-122500000D02*
X165910000Y-130000000D01*
X165910000Y-130000000D02*
X181910000Y-130000000D01*
X181910000Y-130000000D02*
X181910000Y-122500000D01*
X177410000Y-130000000D02*
X170410000Y-130000000D01*
X170410000Y-130000000D02*
X170410000Y-135000000D01*
X170410000Y-135000000D02*
X177410000Y-135000000D01*
X177410000Y-135000000D02*
X177410000Y-130000000D01*
X175910000Y-135000000D02*
X171910000Y-135000000D01*
X171910000Y-135000000D02*
X171910000Y-145000000D01*
X171910000Y-145000000D02*
X175910000Y-145000000D01*
X175910000Y-145000000D02*
X175910000Y-135000000D01*
X147900000Y-145000000D02*
X147900000Y-135000000D01*
X143900000Y-145000000D02*
X147900000Y-145000000D01*
X143900000Y-135000000D02*
X143900000Y-145000000D01*
X147900000Y-135000000D02*
X143900000Y-135000000D01*
X149400000Y-135000000D02*
X149400000Y-130000000D01*
X142400000Y-135000000D02*
X149400000Y-135000000D01*
X142400000Y-130000000D02*
X142400000Y-135000000D01*
X149400000Y-130000000D02*
X142400000Y-130000000D01*
X153900000Y-130000000D02*
X153900000Y-122500000D01*
X137900000Y-130000000D02*
X153900000Y-130000000D01*
X137900000Y-122500000D02*
X137900000Y-130000000D01*
X153900000Y-122500000D02*
X137900000Y-122500000D01*
X200620000Y-102880000D02*
X200620000Y-92580000D01*
X195620000Y-102880000D02*
X200620000Y-102880000D01*
X195620000Y-92580000D02*
X195620000Y-102880000D01*
X200620000Y-92580000D02*
X195620000Y-92580000D01*
X176490000Y-118120000D02*
X176490000Y-107820000D01*
X171490000Y-118120000D02*
X176490000Y-118120000D01*
X171490000Y-107820000D02*
X171490000Y-118120000D01*
X176490000Y-107820000D02*
X171490000Y-107820000D01*
X84835000Y-97750000D02*
X95135000Y-97750000D01*
X84835000Y-92750000D02*
X84835000Y-97750000D01*
X95135000Y-92750000D02*
X84835000Y-92750000D01*
X95135000Y-97750000D02*
X95135000Y-92750000D01*
X165290000Y-100429000D02*
G75*
G03X165290000Y-100429000I-4000000J0D01*
G01*
X163037500Y-97002241D02*
X163037500Y-97802241D01*
X163437500Y-97402241D02*
X162637500Y-97402241D01*
X106550000Y-114340000D02*
X106550000Y-119340000D01*
X106550000Y-119340000D02*
X116850000Y-119340000D01*
X116850000Y-119340000D02*
X116850000Y-114340000D01*
X116850000Y-114340000D02*
X106550000Y-114340000D01*
X150050000Y-113510000D02*
G75*
G03X150050000Y-113510000I-4000000J0D01*
G01*
X147797500Y-110083241D02*
X147797500Y-110883241D01*
X148197500Y-110483241D02*
X147397500Y-110483241D01*
X151150000Y-96600000D02*
X151150000Y-101600000D01*
X153650000Y-96600000D02*
X151150000Y-96600000D01*
X153650000Y-101600000D02*
X153650000Y-96600000D01*
X151150000Y-101600000D02*
X153650000Y-101600000D01*
X163850000Y-115570000D02*
X166350000Y-115570000D01*
X166350000Y-115570000D02*
X166350000Y-110570000D01*
X166350000Y-110570000D02*
X163850000Y-110570000D01*
X163850000Y-110570000D02*
X163850000Y-115570000D01*
X237900000Y-122524000D02*
X221900000Y-122524000D01*
X221900000Y-122524000D02*
X221900000Y-130024000D01*
X221900000Y-130024000D02*
X237900000Y-130024000D01*
X237900000Y-130024000D02*
X237900000Y-122524000D01*
X233400000Y-130024000D02*
X226400000Y-130024000D01*
X226400000Y-130024000D02*
X226400000Y-135024000D01*
X226400000Y-135024000D02*
X233400000Y-135024000D01*
X233400000Y-135024000D02*
X233400000Y-130024000D01*
X231900000Y-135024000D02*
X227900000Y-135024000D01*
X227900000Y-135024000D02*
X227900000Y-145024000D01*
X227900000Y-145024000D02*
X231900000Y-145024000D01*
X231900000Y-145024000D02*
X231900000Y-135024000D01*
X122916000Y-95910000D02*
X120416000Y-95910000D01*
X120416000Y-95910000D02*
X120416000Y-102210000D01*
X120416000Y-102210000D02*
X122916000Y-102210000D01*
X122916000Y-102210000D02*
X122916000Y-95910000D01*
X121666000Y-93980000D02*
X121666000Y-95910000D01*
X121666000Y-104140000D02*
X121666000Y-102210000D01*
X106680000Y-109220000D02*
X108610000Y-109220000D01*
X116840000Y-109220000D02*
X114910000Y-109220000D01*
X108610000Y-110470000D02*
X114910000Y-110470000D01*
X108610000Y-107970000D02*
X108610000Y-110470000D01*
X114910000Y-107970000D02*
X108610000Y-107970000D01*
X114910000Y-110470000D02*
X114910000Y-107970000D01*
X137140000Y-111150000D02*
X134640000Y-111150000D01*
X134640000Y-111150000D02*
X134640000Y-117450000D01*
X134640000Y-117450000D02*
X137140000Y-117450000D01*
X137140000Y-117450000D02*
X137140000Y-111150000D01*
X135890000Y-109220000D02*
X135890000Y-111150000D01*
X135890000Y-119380000D02*
X135890000Y-117450000D01*
X125750000Y-117450000D02*
X128250000Y-117450000D01*
X128250000Y-117450000D02*
X128250000Y-111150000D01*
X128250000Y-111150000D02*
X125750000Y-111150000D01*
X125750000Y-111150000D02*
X125750000Y-117450000D01*
X127000000Y-119380000D02*
X127000000Y-117450000D01*
X127000000Y-109220000D02*
X127000000Y-111150000D01*
X156210000Y-118110000D02*
X156210000Y-116180000D01*
X156210000Y-107950000D02*
X156210000Y-109880000D01*
X157460000Y-116180000D02*
X157460000Y-109880000D01*
X154960000Y-116180000D02*
X157460000Y-116180000D01*
X154960000Y-109880000D02*
X154960000Y-116180000D01*
X157460000Y-109880000D02*
X154960000Y-109880000D01*
X181610000Y-92710000D02*
X181610000Y-94640000D01*
X181610000Y-102870000D02*
X181610000Y-100940000D01*
X180360000Y-94640000D02*
X180360000Y-100940000D01*
X182860000Y-94640000D02*
X180360000Y-94640000D01*
X182860000Y-100940000D02*
X182860000Y-94640000D01*
X180360000Y-100940000D02*
X182860000Y-100940000D01*
X182880000Y-116332000D02*
X184810000Y-116332000D01*
X193040000Y-116332000D02*
X191110000Y-116332000D01*
X184810000Y-117582000D02*
X191110000Y-117582000D01*
X184810000Y-115082000D02*
X184810000Y-117582000D01*
X191110000Y-115082000D02*
X184810000Y-115082000D01*
X191110000Y-117582000D02*
X191110000Y-115082000D01*
X240792000Y-119380000D02*
X240792000Y-117450000D01*
X240792000Y-109220000D02*
X240792000Y-111150000D01*
X242042000Y-117450000D02*
X242042000Y-111150000D01*
X239542000Y-117450000D02*
X242042000Y-117450000D01*
X239542000Y-111150000D02*
X239542000Y-117450000D01*
X242042000Y-111150000D02*
X239542000Y-111150000D01*
X138795000Y-93980000D02*
X144145000Y-93980000D01*
X144145000Y-93980000D02*
X144145000Y-104140000D01*
X144145000Y-104140000D02*
X137795000Y-104140000D01*
X137795000Y-104140000D02*
X137795000Y-94980000D01*
X137795000Y-94980000D02*
X138795000Y-93980000D01*
X135890000Y-93920000D02*
X135890000Y-104200000D01*
X135890000Y-104200000D02*
X146050000Y-104200000D01*
X146050000Y-104200000D02*
X146050000Y-93920000D01*
X146050000Y-93920000D02*
X135890000Y-93920000D01*
X245018000Y-102235000D02*
G75*
G03X245018000Y-102235000I-4000000J0D01*
G01*
X237591241Y-100487500D02*
X238391241Y-100487500D01*
X237991241Y-100087500D02*
X237991241Y-100887500D01*
X269640000Y-102870000D02*
G75*
G03X269640000Y-102870000I-5000000J0D01*
G01*
X260351139Y-100682500D02*
X261351139Y-100682500D01*
X260851139Y-100182500D02*
X260851139Y-101182500D01*
X227597000Y-99942000D02*
G75*
G03X227597000Y-99942000I-1095000J0D01*
G01*
X234762000Y-103502000D02*
X234762000Y-98672000D01*
X234762000Y-98672000D02*
X225232000Y-98672000D01*
X225232000Y-98672000D02*
X225232000Y-103502000D01*
X225232000Y-103502000D02*
X234762000Y-103502000D01*
X226502000Y-98857000D02*
X226501000Y-101026000D01*
X226502000Y-98857000D02*
X226501000Y-101026000D01*
X235239000Y-114300000D02*
G75*
G03X235239000Y-114300000I-4000000J0D01*
G01*
X227812241Y-112552500D02*
X228612241Y-112552500D01*
X228212241Y-112152500D02*
X228212241Y-112952500D01*
X222865000Y-111150000D02*
X220365000Y-111150000D01*
X220365000Y-111150000D02*
X220365000Y-117450000D01*
X220365000Y-117450000D02*
X222865000Y-117450000D01*
X222865000Y-117450000D02*
X222865000Y-111150000D01*
X221615000Y-109220000D02*
X221615000Y-111150000D01*
X221615000Y-119380000D02*
X221615000Y-117450000D01*
X197124000Y-111760000D02*
X199624000Y-111760000D01*
X199624000Y-111760000D02*
X199624000Y-106760000D01*
X199624000Y-106760000D02*
X197124000Y-106760000D01*
X197124000Y-106760000D02*
X197124000Y-111760000D01*
X208137000Y-106680000D02*
X213487000Y-106680000D01*
X213487000Y-106680000D02*
X213487000Y-116840000D01*
X213487000Y-116840000D02*
X207137000Y-116840000D01*
X207137000Y-116840000D02*
X207137000Y-107680000D01*
X207137000Y-107680000D02*
X208137000Y-106680000D01*
X205232000Y-106620000D02*
X205232000Y-116900000D01*
X205232000Y-116900000D02*
X215392000Y-116900000D01*
X215392000Y-116900000D02*
X215392000Y-106620000D01*
X215392000Y-106620000D02*
X205232000Y-106620000D01*
X113939000Y-101600000D02*
X116439000Y-101600000D01*
X116439000Y-101600000D02*
X116439000Y-96600000D01*
X116439000Y-96600000D02*
X113939000Y-96600000D01*
X113939000Y-96600000D02*
X113939000Y-101600000D01*
X236093000Y-92964000D02*
X238023000Y-92964000D01*
X246253000Y-92964000D02*
X244323000Y-92964000D01*
X238023000Y-94214000D02*
X244323000Y-94214000D01*
X238023000Y-91714000D02*
X238023000Y-94214000D01*
X244323000Y-91714000D02*
X238023000Y-91714000D01*
X244323000Y-94214000D02*
X244323000Y-91714000D01*
X258420000Y-94214000D02*
X258420000Y-91714000D01*
X258420000Y-91714000D02*
X252120000Y-91714000D01*
X252120000Y-91714000D02*
X252120000Y-94214000D01*
X252120000Y-94214000D02*
X258420000Y-94214000D01*
X260350000Y-92964000D02*
X258420000Y-92964000D01*
X250190000Y-92964000D02*
X252120000Y-92964000D01*
X102616000Y-116205000D02*
X103251000Y-115570000D01*
X102616000Y-118110000D02*
X102616000Y-116205000D01*
X105156000Y-118110000D02*
X102616000Y-118110000D01*
X105156000Y-115570000D02*
X105156000Y-118110000D01*
X103251000Y-115570000D02*
X105156000Y-115570000D01*
X118872000Y-115570000D02*
X120777000Y-115570000D01*
X120777000Y-115570000D02*
X120777000Y-118110000D01*
X120777000Y-118110000D02*
X118237000Y-118110000D01*
X118237000Y-118110000D02*
X118237000Y-116205000D01*
X118237000Y-116205000D02*
X118872000Y-115570000D01*
X257448000Y-102870000D02*
G75*
G03X257448000Y-102870000I-5000000J0D01*
G01*
X248159139Y-100682500D02*
X249159139Y-100682500D01*
X248659139Y-100182500D02*
X248659139Y-101182500D01*
X222456000Y-101314000D02*
G75*
G03X222456000Y-101314000I-3000000J0D01*
G01*
X222783000Y-91714000D02*
X222783000Y-94214000D01*
X222783000Y-94214000D02*
X229083000Y-94214000D01*
X229083000Y-94214000D02*
X229083000Y-91714000D01*
X229083000Y-91714000D02*
X222783000Y-91714000D01*
X220853000Y-92964000D02*
X222783000Y-92964000D01*
X231013000Y-92964000D02*
X229083000Y-92964000D01*
X130786000Y-95420000D02*
X127786000Y-95420000D01*
X127786000Y-95420000D02*
X127786000Y-102620000D01*
X127786000Y-102620000D02*
X130786000Y-102620000D01*
X130786000Y-102620000D02*
X130786000Y-95420000D01*
X183050000Y-107720000D02*
X183050000Y-110720000D01*
X183050000Y-110720000D02*
X190250000Y-110720000D01*
X190250000Y-110720000D02*
X190250000Y-107720000D01*
X190250000Y-107720000D02*
X183050000Y-107720000D01*
X250420000Y-117987000D02*
X250420000Y-110787000D01*
X247420000Y-117987000D02*
X250420000Y-117987000D01*
X247420000Y-110787000D02*
X247420000Y-117987000D01*
X250420000Y-110787000D02*
X247420000Y-110787000D01*
X258294000Y-117987000D02*
X258294000Y-110787000D01*
X255294000Y-117987000D02*
X258294000Y-117987000D01*
X255294000Y-110787000D02*
X255294000Y-117987000D01*
X258294000Y-110787000D02*
X255294000Y-110787000D01*
X268708000Y-113411000D02*
G75*
G03X268708000Y-113411000I-1500000J0D01*
G01*
X268708000Y-118411000D02*
G75*
G03X268708000Y-118411000I-1500000J0D01*
G01*
X271508000Y-110911000D02*
X271508000Y-120911000D01*
X271508000Y-120911000D02*
X263208000Y-120911000D01*
X263208000Y-120911000D02*
X263208000Y-111411000D01*
X263208000Y-111411000D02*
X263708000Y-110911000D01*
X263708000Y-110911000D02*
X271508000Y-110911000D01*
X263708000Y-110911000D02*
X263708000Y-120911000D01*
X265208000Y-110911000D02*
X265208000Y-120911000D01*
X269508000Y-110911000D02*
X269508000Y-120911000D01*
X268163000Y-114549000D02*
X266070000Y-112456000D01*
X268346000Y-114366000D02*
X266253000Y-112273000D01*
X271508000Y-112411000D02*
X270508000Y-112411000D01*
X270508000Y-112411000D02*
X270508000Y-114411000D01*
X270508000Y-114411000D02*
X271508000Y-114411000D01*
X271508000Y-114411000D02*
X271508000Y-112411000D01*
X268163000Y-119549000D02*
X266070000Y-117457000D01*
X268346000Y-119366000D02*
X266253000Y-117274000D01*
X271508000Y-117411000D02*
X270508000Y-117411000D01*
X270508000Y-117411000D02*
X270508000Y-119411000D01*
X270508000Y-119411000D02*
X271508000Y-119411000D01*
X271508000Y-119411000D02*
X271508000Y-117411000D01*
D11*
X209335523Y-97476380D02*
X209668857Y-98476380D01*
X210002190Y-97476380D01*
X210764095Y-98428761D02*
X210668857Y-98476380D01*
X210478380Y-98476380D01*
X210383142Y-98428761D01*
X210335523Y-98381142D01*
X210287904Y-98285904D01*
X210287904Y-98000190D01*
X210335523Y-97904952D01*
X210383142Y-97857333D01*
X210478380Y-97809714D01*
X210668857Y-97809714D01*
X210764095Y-97857333D01*
X211621238Y-98428761D02*
X211526000Y-98476380D01*
X211335523Y-98476380D01*
X211240285Y-98428761D01*
X211192666Y-98381142D01*
X211145047Y-98285904D01*
X211145047Y-98000190D01*
X211192666Y-97904952D01*
X211240285Y-97857333D01*
X211335523Y-97809714D01*
X211526000Y-97809714D01*
X211621238Y-97857333D01*
X208859333Y-95166380D02*
X209192666Y-96166380D01*
X209526000Y-95166380D01*
X210287904Y-96118761D02*
X210192666Y-96166380D01*
X210002190Y-96166380D01*
X209906952Y-96118761D01*
X209859333Y-96071142D01*
X209811714Y-95975904D01*
X209811714Y-95690190D01*
X209859333Y-95594952D01*
X209906952Y-95547333D01*
X210002190Y-95499714D01*
X210192666Y-95499714D01*
X210287904Y-95547333D01*
X211145047Y-96118761D02*
X211049809Y-96166380D01*
X210859333Y-96166380D01*
X210764095Y-96118761D01*
X210716476Y-96071142D01*
X210668857Y-95975904D01*
X210668857Y-95690190D01*
X210716476Y-95594952D01*
X210764095Y-95547333D01*
X210859333Y-95499714D01*
X211049809Y-95499714D01*
X211145047Y-95547333D01*
X212097428Y-96166380D02*
X211526000Y-96166380D01*
X211811714Y-96166380D02*
X211811714Y-95166380D01*
X211716476Y-95309238D01*
X211621238Y-95404476D01*
X211526000Y-95452095D01*
X183301285Y-131652380D02*
X183301285Y-130652380D01*
X183634619Y-131366666D01*
X183967952Y-130652380D01*
X183967952Y-131652380D01*
X184587000Y-131652380D02*
X184491761Y-131604761D01*
X184444142Y-131557142D01*
X184396523Y-131461904D01*
X184396523Y-131176190D01*
X184444142Y-131080952D01*
X184491761Y-131033333D01*
X184587000Y-130985714D01*
X184729857Y-130985714D01*
X184825095Y-131033333D01*
X184872714Y-131080952D01*
X184920333Y-131176190D01*
X184920333Y-131461904D01*
X184872714Y-131557142D01*
X184825095Y-131604761D01*
X184729857Y-131652380D01*
X184587000Y-131652380D01*
X185777476Y-130985714D02*
X185777476Y-131652380D01*
X185348904Y-130985714D02*
X185348904Y-131509523D01*
X185396523Y-131604761D01*
X185491761Y-131652380D01*
X185634619Y-131652380D01*
X185729857Y-131604761D01*
X185777476Y-131557142D01*
X186253666Y-130985714D02*
X186253666Y-131652380D01*
X186253666Y-131080952D02*
X186301285Y-131033333D01*
X186396523Y-130985714D01*
X186539380Y-130985714D01*
X186634619Y-131033333D01*
X186682238Y-131128571D01*
X186682238Y-131652380D01*
X187015571Y-130985714D02*
X187396523Y-130985714D01*
X187158428Y-130652380D02*
X187158428Y-131509523D01*
X187206047Y-131604761D01*
X187301285Y-131652380D01*
X187396523Y-131652380D01*
X187729857Y-131652380D02*
X187729857Y-130985714D01*
X187729857Y-130652380D02*
X187682238Y-130700000D01*
X187729857Y-130747619D01*
X187777476Y-130700000D01*
X187729857Y-130652380D01*
X187729857Y-130747619D01*
X188206047Y-130985714D02*
X188206047Y-131652380D01*
X188206047Y-131080952D02*
X188253666Y-131033333D01*
X188348904Y-130985714D01*
X188491761Y-130985714D01*
X188587000Y-131033333D01*
X188634619Y-131128571D01*
X188634619Y-131652380D01*
X189539380Y-130985714D02*
X189539380Y-131795238D01*
X189491761Y-131890476D01*
X189444142Y-131938095D01*
X189348904Y-131985714D01*
X189206047Y-131985714D01*
X189110809Y-131938095D01*
X189539380Y-131604761D02*
X189444142Y-131652380D01*
X189253666Y-131652380D01*
X189158428Y-131604761D01*
X189110809Y-131557142D01*
X189063190Y-131461904D01*
X189063190Y-131176190D01*
X189110809Y-131080952D01*
X189158428Y-131033333D01*
X189253666Y-130985714D01*
X189444142Y-130985714D01*
X189539380Y-131033333D01*
X190015571Y-131652380D02*
X190015571Y-130652380D01*
X190015571Y-131128571D02*
X190587000Y-131128571D01*
X190587000Y-131652380D02*
X190587000Y-130652380D01*
X191206047Y-131652380D02*
X191110809Y-131604761D01*
X191063190Y-131557142D01*
X191015571Y-131461904D01*
X191015571Y-131176190D01*
X191063190Y-131080952D01*
X191110809Y-131033333D01*
X191206047Y-130985714D01*
X191348904Y-130985714D01*
X191444142Y-131033333D01*
X191491761Y-131080952D01*
X191539380Y-131176190D01*
X191539380Y-131461904D01*
X191491761Y-131557142D01*
X191444142Y-131604761D01*
X191348904Y-131652380D01*
X191206047Y-131652380D01*
X192110809Y-131652380D02*
X192015571Y-131604761D01*
X191967952Y-131509523D01*
X191967952Y-130652380D01*
X192872714Y-131604761D02*
X192777476Y-131652380D01*
X192587000Y-131652380D01*
X192491761Y-131604761D01*
X192444142Y-131509523D01*
X192444142Y-131128571D01*
X192491761Y-131033333D01*
X192587000Y-130985714D01*
X192777476Y-130985714D01*
X192872714Y-131033333D01*
X192920333Y-131128571D01*
X192920333Y-131223809D01*
X192444142Y-131319047D01*
X187625095Y-127452380D02*
X187625095Y-126452380D01*
X187625095Y-126928571D02*
X188196523Y-126928571D01*
X188196523Y-127452380D02*
X188196523Y-126452380D01*
X189101285Y-126785714D02*
X189101285Y-127452380D01*
X188863190Y-126404761D02*
X188625095Y-127119047D01*
X189244142Y-127119047D01*
X99100285Y-131652380D02*
X99100285Y-130652380D01*
X99433619Y-131366666D01*
X99766952Y-130652380D01*
X99766952Y-131652380D01*
X100386000Y-131652380D02*
X100290761Y-131604761D01*
X100243142Y-131557142D01*
X100195523Y-131461904D01*
X100195523Y-131176190D01*
X100243142Y-131080952D01*
X100290761Y-131033333D01*
X100386000Y-130985714D01*
X100528857Y-130985714D01*
X100624095Y-131033333D01*
X100671714Y-131080952D01*
X100719333Y-131176190D01*
X100719333Y-131461904D01*
X100671714Y-131557142D01*
X100624095Y-131604761D01*
X100528857Y-131652380D01*
X100386000Y-131652380D01*
X101576476Y-130985714D02*
X101576476Y-131652380D01*
X101147904Y-130985714D02*
X101147904Y-131509523D01*
X101195523Y-131604761D01*
X101290761Y-131652380D01*
X101433619Y-131652380D01*
X101528857Y-131604761D01*
X101576476Y-131557142D01*
X102052666Y-130985714D02*
X102052666Y-131652380D01*
X102052666Y-131080952D02*
X102100285Y-131033333D01*
X102195523Y-130985714D01*
X102338380Y-130985714D01*
X102433619Y-131033333D01*
X102481238Y-131128571D01*
X102481238Y-131652380D01*
X102814571Y-130985714D02*
X103195523Y-130985714D01*
X102957428Y-130652380D02*
X102957428Y-131509523D01*
X103005047Y-131604761D01*
X103100285Y-131652380D01*
X103195523Y-131652380D01*
X103528857Y-131652380D02*
X103528857Y-130985714D01*
X103528857Y-130652380D02*
X103481238Y-130700000D01*
X103528857Y-130747619D01*
X103576476Y-130700000D01*
X103528857Y-130652380D01*
X103528857Y-130747619D01*
X104005047Y-130985714D02*
X104005047Y-131652380D01*
X104005047Y-131080952D02*
X104052666Y-131033333D01*
X104147904Y-130985714D01*
X104290761Y-130985714D01*
X104386000Y-131033333D01*
X104433619Y-131128571D01*
X104433619Y-131652380D01*
X105338380Y-130985714D02*
X105338380Y-131795238D01*
X105290761Y-131890476D01*
X105243142Y-131938095D01*
X105147904Y-131985714D01*
X105005047Y-131985714D01*
X104909809Y-131938095D01*
X105338380Y-131604761D02*
X105243142Y-131652380D01*
X105052666Y-131652380D01*
X104957428Y-131604761D01*
X104909809Y-131557142D01*
X104862190Y-131461904D01*
X104862190Y-131176190D01*
X104909809Y-131080952D01*
X104957428Y-131033333D01*
X105052666Y-130985714D01*
X105243142Y-130985714D01*
X105338380Y-131033333D01*
X105814571Y-131652380D02*
X105814571Y-130652380D01*
X105814571Y-131128571D02*
X106386000Y-131128571D01*
X106386000Y-131652380D02*
X106386000Y-130652380D01*
X107005047Y-131652380D02*
X106909809Y-131604761D01*
X106862190Y-131557142D01*
X106814571Y-131461904D01*
X106814571Y-131176190D01*
X106862190Y-131080952D01*
X106909809Y-131033333D01*
X107005047Y-130985714D01*
X107147904Y-130985714D01*
X107243142Y-131033333D01*
X107290761Y-131080952D01*
X107338380Y-131176190D01*
X107338380Y-131461904D01*
X107290761Y-131557142D01*
X107243142Y-131604761D01*
X107147904Y-131652380D01*
X107005047Y-131652380D01*
X107909809Y-131652380D02*
X107814571Y-131604761D01*
X107766952Y-131509523D01*
X107766952Y-130652380D01*
X108671714Y-131604761D02*
X108576476Y-131652380D01*
X108386000Y-131652380D01*
X108290761Y-131604761D01*
X108243142Y-131509523D01*
X108243142Y-131128571D01*
X108290761Y-131033333D01*
X108386000Y-130985714D01*
X108576476Y-130985714D01*
X108671714Y-131033333D01*
X108719333Y-131128571D01*
X108719333Y-131223809D01*
X108243142Y-131319047D01*
X103424095Y-127452380D02*
X103424095Y-126452380D01*
X103424095Y-126928571D02*
X103995523Y-126928571D01*
X103995523Y-127452380D02*
X103995523Y-126452380D01*
X104424095Y-126547619D02*
X104471714Y-126500000D01*
X104566952Y-126452380D01*
X104805047Y-126452380D01*
X104900285Y-126500000D01*
X104947904Y-126547619D01*
X104995523Y-126642857D01*
X104995523Y-126738095D01*
X104947904Y-126880952D01*
X104376476Y-127452380D01*
X104995523Y-127452380D01*
X239054285Y-131652380D02*
X239054285Y-130652380D01*
X239387619Y-131366666D01*
X239720952Y-130652380D01*
X239720952Y-131652380D01*
X240340000Y-131652380D02*
X240244761Y-131604761D01*
X240197142Y-131557142D01*
X240149523Y-131461904D01*
X240149523Y-131176190D01*
X240197142Y-131080952D01*
X240244761Y-131033333D01*
X240340000Y-130985714D01*
X240482857Y-130985714D01*
X240578095Y-131033333D01*
X240625714Y-131080952D01*
X240673333Y-131176190D01*
X240673333Y-131461904D01*
X240625714Y-131557142D01*
X240578095Y-131604761D01*
X240482857Y-131652380D01*
X240340000Y-131652380D01*
X241530476Y-130985714D02*
X241530476Y-131652380D01*
X241101904Y-130985714D02*
X241101904Y-131509523D01*
X241149523Y-131604761D01*
X241244761Y-131652380D01*
X241387619Y-131652380D01*
X241482857Y-131604761D01*
X241530476Y-131557142D01*
X242006666Y-130985714D02*
X242006666Y-131652380D01*
X242006666Y-131080952D02*
X242054285Y-131033333D01*
X242149523Y-130985714D01*
X242292380Y-130985714D01*
X242387619Y-131033333D01*
X242435238Y-131128571D01*
X242435238Y-131652380D01*
X242768571Y-130985714D02*
X243149523Y-130985714D01*
X242911428Y-130652380D02*
X242911428Y-131509523D01*
X242959047Y-131604761D01*
X243054285Y-131652380D01*
X243149523Y-131652380D01*
X243482857Y-131652380D02*
X243482857Y-130985714D01*
X243482857Y-130652380D02*
X243435238Y-130700000D01*
X243482857Y-130747619D01*
X243530476Y-130700000D01*
X243482857Y-130652380D01*
X243482857Y-130747619D01*
X243959047Y-130985714D02*
X243959047Y-131652380D01*
X243959047Y-131080952D02*
X244006666Y-131033333D01*
X244101904Y-130985714D01*
X244244761Y-130985714D01*
X244340000Y-131033333D01*
X244387619Y-131128571D01*
X244387619Y-131652380D01*
X245292380Y-130985714D02*
X245292380Y-131795238D01*
X245244761Y-131890476D01*
X245197142Y-131938095D01*
X245101904Y-131985714D01*
X244959047Y-131985714D01*
X244863809Y-131938095D01*
X245292380Y-131604761D02*
X245197142Y-131652380D01*
X245006666Y-131652380D01*
X244911428Y-131604761D01*
X244863809Y-131557142D01*
X244816190Y-131461904D01*
X244816190Y-131176190D01*
X244863809Y-131080952D01*
X244911428Y-131033333D01*
X245006666Y-130985714D01*
X245197142Y-130985714D01*
X245292380Y-131033333D01*
X245768571Y-131652380D02*
X245768571Y-130652380D01*
X245768571Y-131128571D02*
X246340000Y-131128571D01*
X246340000Y-131652380D02*
X246340000Y-130652380D01*
X246959047Y-131652380D02*
X246863809Y-131604761D01*
X246816190Y-131557142D01*
X246768571Y-131461904D01*
X246768571Y-131176190D01*
X246816190Y-131080952D01*
X246863809Y-131033333D01*
X246959047Y-130985714D01*
X247101904Y-130985714D01*
X247197142Y-131033333D01*
X247244761Y-131080952D01*
X247292380Y-131176190D01*
X247292380Y-131461904D01*
X247244761Y-131557142D01*
X247197142Y-131604761D01*
X247101904Y-131652380D01*
X246959047Y-131652380D01*
X247863809Y-131652380D02*
X247768571Y-131604761D01*
X247720952Y-131509523D01*
X247720952Y-130652380D01*
X248625714Y-131604761D02*
X248530476Y-131652380D01*
X248340000Y-131652380D01*
X248244761Y-131604761D01*
X248197142Y-131509523D01*
X248197142Y-131128571D01*
X248244761Y-131033333D01*
X248340000Y-130985714D01*
X248530476Y-130985714D01*
X248625714Y-131033333D01*
X248673333Y-131128571D01*
X248673333Y-131223809D01*
X248197142Y-131319047D01*
X243078095Y-127452380D02*
X243078095Y-126452380D01*
X243078095Y-126928571D02*
X243649523Y-126928571D01*
X243649523Y-127452380D02*
X243649523Y-126452380D01*
X244030476Y-126452380D02*
X244649523Y-126452380D01*
X244316190Y-126833333D01*
X244459047Y-126833333D01*
X244554285Y-126880952D01*
X244601904Y-126928571D01*
X244649523Y-127023809D01*
X244649523Y-127261904D01*
X244601904Y-127357142D01*
X244554285Y-127404761D01*
X244459047Y-127452380D01*
X244173333Y-127452380D01*
X244078095Y-127404761D01*
X244030476Y-127357142D01*
X170474285Y-97743380D02*
X170474285Y-96743380D01*
X170807619Y-97457666D01*
X171140952Y-96743380D01*
X171140952Y-97743380D01*
X171760000Y-97743380D02*
X171664761Y-97695761D01*
X171617142Y-97648142D01*
X171569523Y-97552904D01*
X171569523Y-97267190D01*
X171617142Y-97171952D01*
X171664761Y-97124333D01*
X171760000Y-97076714D01*
X171902857Y-97076714D01*
X171998095Y-97124333D01*
X172045714Y-97171952D01*
X172093333Y-97267190D01*
X172093333Y-97552904D01*
X172045714Y-97648142D01*
X171998095Y-97695761D01*
X171902857Y-97743380D01*
X171760000Y-97743380D01*
X172950476Y-97076714D02*
X172950476Y-97743380D01*
X172521904Y-97076714D02*
X172521904Y-97600523D01*
X172569523Y-97695761D01*
X172664761Y-97743380D01*
X172807619Y-97743380D01*
X172902857Y-97695761D01*
X172950476Y-97648142D01*
X173426666Y-97076714D02*
X173426666Y-97743380D01*
X173426666Y-97171952D02*
X173474285Y-97124333D01*
X173569523Y-97076714D01*
X173712380Y-97076714D01*
X173807619Y-97124333D01*
X173855238Y-97219571D01*
X173855238Y-97743380D01*
X174188571Y-97076714D02*
X174569523Y-97076714D01*
X174331428Y-96743380D02*
X174331428Y-97600523D01*
X174379047Y-97695761D01*
X174474285Y-97743380D01*
X174569523Y-97743380D01*
X174902857Y-97743380D02*
X174902857Y-97076714D01*
X174902857Y-96743380D02*
X174855238Y-96791000D01*
X174902857Y-96838619D01*
X174950476Y-96791000D01*
X174902857Y-96743380D01*
X174902857Y-96838619D01*
X175379047Y-97076714D02*
X175379047Y-97743380D01*
X175379047Y-97171952D02*
X175426666Y-97124333D01*
X175521904Y-97076714D01*
X175664761Y-97076714D01*
X175760000Y-97124333D01*
X175807619Y-97219571D01*
X175807619Y-97743380D01*
X176712380Y-97076714D02*
X176712380Y-97886238D01*
X176664761Y-97981476D01*
X176617142Y-98029095D01*
X176521904Y-98076714D01*
X176379047Y-98076714D01*
X176283809Y-98029095D01*
X176712380Y-97695761D02*
X176617142Y-97743380D01*
X176426666Y-97743380D01*
X176331428Y-97695761D01*
X176283809Y-97648142D01*
X176236190Y-97552904D01*
X176236190Y-97267190D01*
X176283809Y-97171952D01*
X176331428Y-97124333D01*
X176426666Y-97076714D01*
X176617142Y-97076714D01*
X176712380Y-97124333D01*
X177188571Y-97743380D02*
X177188571Y-96743380D01*
X177188571Y-97219571D02*
X177760000Y-97219571D01*
X177760000Y-97743380D02*
X177760000Y-96743380D01*
X178379047Y-97743380D02*
X178283809Y-97695761D01*
X178236190Y-97648142D01*
X178188571Y-97552904D01*
X178188571Y-97267190D01*
X178236190Y-97171952D01*
X178283809Y-97124333D01*
X178379047Y-97076714D01*
X178521904Y-97076714D01*
X178617142Y-97124333D01*
X178664761Y-97171952D01*
X178712380Y-97267190D01*
X178712380Y-97552904D01*
X178664761Y-97648142D01*
X178617142Y-97695761D01*
X178521904Y-97743380D01*
X178379047Y-97743380D01*
X179283809Y-97743380D02*
X179188571Y-97695761D01*
X179140952Y-97600523D01*
X179140952Y-96743380D01*
X180045714Y-97695761D02*
X179950476Y-97743380D01*
X179760000Y-97743380D01*
X179664761Y-97695761D01*
X179617142Y-97600523D01*
X179617142Y-97219571D01*
X179664761Y-97124333D01*
X179760000Y-97076714D01*
X179950476Y-97076714D01*
X180045714Y-97124333D01*
X180093333Y-97219571D01*
X180093333Y-97314809D01*
X179617142Y-97410047D01*
X174798095Y-93543380D02*
X174798095Y-92543380D01*
X174798095Y-93019571D02*
X175369523Y-93019571D01*
X175369523Y-93543380D02*
X175369523Y-92543380D01*
X176369523Y-93543380D02*
X175798095Y-93543380D01*
X176083809Y-93543380D02*
X176083809Y-92543380D01*
X175988571Y-92686238D01*
X175893333Y-92781476D01*
X175798095Y-92829095D01*
X88440714Y-105692380D02*
X87869285Y-105692380D01*
X88155000Y-105692380D02*
X88155000Y-104692380D01*
X88059761Y-104835238D01*
X87964523Y-104930476D01*
X87869285Y-104978095D01*
X88869285Y-105692380D02*
X88869285Y-104692380D01*
X89440714Y-105692380D02*
X89012142Y-105120952D01*
X89440714Y-104692380D02*
X88869285Y-105263809D01*
X88488333Y-103322380D02*
X88155000Y-102846190D01*
X87916904Y-103322380D02*
X87916904Y-102322380D01*
X88297857Y-102322380D01*
X88393095Y-102370000D01*
X88440714Y-102417619D01*
X88488333Y-102512857D01*
X88488333Y-102655714D01*
X88440714Y-102750952D01*
X88393095Y-102798571D01*
X88297857Y-102846190D01*
X87916904Y-102846190D01*
X89345476Y-102655714D02*
X89345476Y-103322380D01*
X89107380Y-102274761D02*
X88869285Y-102989047D01*
X89488333Y-102989047D01*
X103077523Y-93332380D02*
X102506095Y-93332380D01*
X102791809Y-93332380D02*
X102791809Y-92332380D01*
X102696571Y-92475238D01*
X102601333Y-92570476D01*
X102506095Y-92618095D01*
X103696571Y-92332380D02*
X103791809Y-92332380D01*
X103887047Y-92380000D01*
X103934666Y-92427619D01*
X103982285Y-92522857D01*
X104029904Y-92713333D01*
X104029904Y-92951428D01*
X103982285Y-93141904D01*
X103934666Y-93237142D01*
X103887047Y-93284761D01*
X103791809Y-93332380D01*
X103696571Y-93332380D01*
X103601333Y-93284761D01*
X103553714Y-93237142D01*
X103506095Y-93141904D01*
X103458476Y-92951428D01*
X103458476Y-92713333D01*
X103506095Y-92522857D01*
X103553714Y-92427619D01*
X103601333Y-92380000D01*
X103696571Y-92332380D01*
X104458476Y-93332380D02*
X104458476Y-92332380D01*
X105029904Y-93332380D02*
X104601333Y-92760952D01*
X105029904Y-92332380D02*
X104458476Y-92903809D01*
X103601333Y-95702380D02*
X103268000Y-95226190D01*
X103029904Y-95702380D02*
X103029904Y-94702380D01*
X103410857Y-94702380D01*
X103506095Y-94750000D01*
X103553714Y-94797619D01*
X103601333Y-94892857D01*
X103601333Y-95035714D01*
X103553714Y-95130952D01*
X103506095Y-95178571D01*
X103410857Y-95226190D01*
X103029904Y-95226190D01*
X104506095Y-94702380D02*
X104029904Y-94702380D01*
X103982285Y-95178571D01*
X104029904Y-95130952D01*
X104125142Y-95083333D01*
X104363238Y-95083333D01*
X104458476Y-95130952D01*
X104506095Y-95178571D01*
X104553714Y-95273809D01*
X104553714Y-95511904D01*
X104506095Y-95607142D01*
X104458476Y-95654761D01*
X104363238Y-95702380D01*
X104125142Y-95702380D01*
X104029904Y-95654761D01*
X103982285Y-95607142D01*
X102020904Y-104787619D02*
X102068523Y-104740000D01*
X102163761Y-104692380D01*
X102401857Y-104692380D01*
X102497095Y-104740000D01*
X102544714Y-104787619D01*
X102592333Y-104882857D01*
X102592333Y-104978095D01*
X102544714Y-105120952D01*
X101973285Y-105692380D01*
X102592333Y-105692380D01*
X102973285Y-104787619D02*
X103020904Y-104740000D01*
X103116142Y-104692380D01*
X103354238Y-104692380D01*
X103449476Y-104740000D01*
X103497095Y-104787619D01*
X103544714Y-104882857D01*
X103544714Y-104978095D01*
X103497095Y-105120952D01*
X102925666Y-105692380D01*
X103544714Y-105692380D01*
X104163761Y-104692380D02*
X104259000Y-104692380D01*
X104354238Y-104740000D01*
X104401857Y-104787619D01*
X104449476Y-104882857D01*
X104497095Y-105073333D01*
X104497095Y-105311428D01*
X104449476Y-105501904D01*
X104401857Y-105597142D01*
X104354238Y-105644761D01*
X104259000Y-105692380D01*
X104163761Y-105692380D01*
X104068523Y-105644761D01*
X104020904Y-105597142D01*
X103973285Y-105501904D01*
X103925666Y-105311428D01*
X103925666Y-105073333D01*
X103973285Y-104882857D01*
X104020904Y-104787619D01*
X104068523Y-104740000D01*
X104163761Y-104692380D01*
X104925666Y-105692380D02*
X104925666Y-104692380D01*
X105497095Y-105692380D02*
X105068523Y-105120952D01*
X105497095Y-104692380D02*
X104925666Y-105263809D01*
X103592333Y-103322380D02*
X103259000Y-102846190D01*
X103020904Y-103322380D02*
X103020904Y-102322380D01*
X103401857Y-102322380D01*
X103497095Y-102370000D01*
X103544714Y-102417619D01*
X103592333Y-102512857D01*
X103592333Y-102655714D01*
X103544714Y-102750952D01*
X103497095Y-102798571D01*
X103401857Y-102846190D01*
X103020904Y-102846190D01*
X104449476Y-102322380D02*
X104259000Y-102322380D01*
X104163761Y-102370000D01*
X104116142Y-102417619D01*
X104020904Y-102560476D01*
X103973285Y-102750952D01*
X103973285Y-103131904D01*
X104020904Y-103227142D01*
X104068523Y-103274761D01*
X104163761Y-103322380D01*
X104354238Y-103322380D01*
X104449476Y-103274761D01*
X104497095Y-103227142D01*
X104544714Y-103131904D01*
X104544714Y-102893809D01*
X104497095Y-102798571D01*
X104449476Y-102750952D01*
X104354238Y-102703333D01*
X104163761Y-102703333D01*
X104068523Y-102750952D01*
X104020904Y-102798571D01*
X103973285Y-102893809D01*
X191052380Y-98480476D02*
X191052380Y-98670952D01*
X191100000Y-98766190D01*
X191147619Y-98813809D01*
X191290476Y-98909047D01*
X191480952Y-98956666D01*
X191861904Y-98956666D01*
X191957142Y-98909047D01*
X192004761Y-98861428D01*
X192052380Y-98766190D01*
X192052380Y-98575714D01*
X192004761Y-98480476D01*
X191957142Y-98432857D01*
X191861904Y-98385238D01*
X191623809Y-98385238D01*
X191528571Y-98432857D01*
X191480952Y-98480476D01*
X191433333Y-98575714D01*
X191433333Y-98766190D01*
X191480952Y-98861428D01*
X191528571Y-98909047D01*
X191623809Y-98956666D01*
X191480952Y-97813809D02*
X191433333Y-97909047D01*
X191385714Y-97956666D01*
X191290476Y-98004285D01*
X191242857Y-98004285D01*
X191147619Y-97956666D01*
X191100000Y-97909047D01*
X191052380Y-97813809D01*
X191052380Y-97623333D01*
X191100000Y-97528095D01*
X191147619Y-97480476D01*
X191242857Y-97432857D01*
X191290476Y-97432857D01*
X191385714Y-97480476D01*
X191433333Y-97528095D01*
X191480952Y-97623333D01*
X191480952Y-97813809D01*
X191528571Y-97909047D01*
X191576190Y-97956666D01*
X191671428Y-98004285D01*
X191861904Y-98004285D01*
X191957142Y-97956666D01*
X192004761Y-97909047D01*
X192052380Y-97813809D01*
X192052380Y-97623333D01*
X192004761Y-97528095D01*
X191957142Y-97480476D01*
X191861904Y-97432857D01*
X191671428Y-97432857D01*
X191576190Y-97480476D01*
X191528571Y-97528095D01*
X191480952Y-97623333D01*
X192052380Y-97004285D02*
X191052380Y-97004285D01*
X191671428Y-96909047D02*
X192052380Y-96623333D01*
X191385714Y-96623333D02*
X191766666Y-97004285D01*
X189682380Y-98432857D02*
X189206190Y-98766190D01*
X189682380Y-99004285D02*
X188682380Y-99004285D01*
X188682380Y-98623333D01*
X188730000Y-98528095D01*
X188777619Y-98480476D01*
X188872857Y-98432857D01*
X189015714Y-98432857D01*
X189110952Y-98480476D01*
X189158571Y-98528095D01*
X189206190Y-98623333D01*
X189206190Y-99004285D01*
X189682380Y-97480476D02*
X189682380Y-98051904D01*
X189682380Y-97766190D02*
X188682380Y-97766190D01*
X188825238Y-97861428D01*
X188920476Y-97956666D01*
X188968095Y-98051904D01*
X188682380Y-97147142D02*
X188682380Y-96528095D01*
X189063333Y-96861428D01*
X189063333Y-96718571D01*
X189110952Y-96623333D01*
X189158571Y-96575714D01*
X189253809Y-96528095D01*
X189491904Y-96528095D01*
X189587142Y-96575714D01*
X189634761Y-96623333D01*
X189682380Y-96718571D01*
X189682380Y-97004285D01*
X189634761Y-97099523D01*
X189587142Y-97147142D01*
X192816666Y-129809714D02*
X192816666Y-129333523D01*
X193102380Y-129904952D02*
X192102380Y-129571619D01*
X193102380Y-129238285D01*
X193102380Y-128381142D02*
X193102380Y-128952571D01*
X193102380Y-128666857D02*
X192102380Y-128666857D01*
X192245238Y-128762095D01*
X192340476Y-128857333D01*
X192388095Y-128952571D01*
X193102380Y-127952571D02*
X192102380Y-127952571D01*
X192816666Y-127619238D01*
X192102380Y-127285904D01*
X193102380Y-127285904D01*
X201828571Y-128059714D02*
X201876190Y-127916857D01*
X201923809Y-127869238D01*
X202019047Y-127821619D01*
X202161904Y-127821619D01*
X202257142Y-127869238D01*
X202304761Y-127916857D01*
X202352380Y-128012095D01*
X202352380Y-128393047D01*
X201352380Y-128393047D01*
X201352380Y-128059714D01*
X201400000Y-127964476D01*
X201447619Y-127916857D01*
X201542857Y-127869238D01*
X201638095Y-127869238D01*
X201733333Y-127916857D01*
X201780952Y-127964476D01*
X201828571Y-128059714D01*
X201828571Y-128393047D01*
X202066666Y-127440666D02*
X202066666Y-126964476D01*
X202352380Y-127535904D02*
X201352380Y-127202571D01*
X202352380Y-126869238D01*
X202304761Y-126583523D02*
X202352380Y-126440666D01*
X202352380Y-126202571D01*
X202304761Y-126107333D01*
X202257142Y-126059714D01*
X202161904Y-126012095D01*
X202066666Y-126012095D01*
X201971428Y-126059714D01*
X201923809Y-126107333D01*
X201876190Y-126202571D01*
X201828571Y-126393047D01*
X201780952Y-126488285D01*
X201733333Y-126535904D01*
X201638095Y-126583523D01*
X201542857Y-126583523D01*
X201447619Y-126535904D01*
X201400000Y-126488285D01*
X201352380Y-126393047D01*
X201352380Y-126154952D01*
X201400000Y-126012095D01*
X202304761Y-125631142D02*
X202352380Y-125488285D01*
X202352380Y-125250190D01*
X202304761Y-125154952D01*
X202257142Y-125107333D01*
X202161904Y-125059714D01*
X202066666Y-125059714D01*
X201971428Y-125107333D01*
X201923809Y-125154952D01*
X201876190Y-125250190D01*
X201828571Y-125440666D01*
X201780952Y-125535904D01*
X201733333Y-125583523D01*
X201638095Y-125631142D01*
X201542857Y-125631142D01*
X201447619Y-125583523D01*
X201400000Y-125535904D01*
X201352380Y-125440666D01*
X201352380Y-125202571D01*
X201400000Y-125059714D01*
X202352380Y-124107333D02*
X202352380Y-124678761D01*
X202352380Y-124393047D02*
X201352380Y-124393047D01*
X201495238Y-124488285D01*
X201590476Y-124583523D01*
X201638095Y-124678761D01*
X108578571Y-129880952D02*
X108626190Y-129738095D01*
X108673809Y-129690476D01*
X108769047Y-129642857D01*
X108911904Y-129642857D01*
X109007142Y-129690476D01*
X109054761Y-129738095D01*
X109102380Y-129833333D01*
X109102380Y-130214285D01*
X108102380Y-130214285D01*
X108102380Y-129880952D01*
X108150000Y-129785714D01*
X108197619Y-129738095D01*
X108292857Y-129690476D01*
X108388095Y-129690476D01*
X108483333Y-129738095D01*
X108530952Y-129785714D01*
X108578571Y-129880952D01*
X108578571Y-130214285D01*
X108197619Y-129261904D02*
X108150000Y-129214285D01*
X108102380Y-129119047D01*
X108102380Y-128880952D01*
X108150000Y-128785714D01*
X108197619Y-128738095D01*
X108292857Y-128690476D01*
X108388095Y-128690476D01*
X108530952Y-128738095D01*
X109102380Y-129309523D01*
X109102380Y-128690476D01*
X108197619Y-128309523D02*
X108150000Y-128261904D01*
X108102380Y-128166666D01*
X108102380Y-127928571D01*
X108150000Y-127833333D01*
X108197619Y-127785714D01*
X108292857Y-127738095D01*
X108388095Y-127738095D01*
X108530952Y-127785714D01*
X109102380Y-128357142D01*
X109102380Y-127738095D01*
X109102380Y-127309523D02*
X108102380Y-127309523D01*
X109102380Y-126738095D02*
X108530952Y-127166666D01*
X108102380Y-126738095D02*
X108673809Y-127309523D01*
X117400000Y-127654761D02*
X117352380Y-127750000D01*
X117352380Y-127892857D01*
X117400000Y-128035714D01*
X117495238Y-128130952D01*
X117590476Y-128178571D01*
X117780952Y-128226190D01*
X117923809Y-128226190D01*
X118114285Y-128178571D01*
X118209523Y-128130952D01*
X118304761Y-128035714D01*
X118352380Y-127892857D01*
X118352380Y-127797619D01*
X118304761Y-127654761D01*
X118257142Y-127607142D01*
X117923809Y-127607142D01*
X117923809Y-127797619D01*
X118066666Y-127226190D02*
X118066666Y-126750000D01*
X118352380Y-127321428D02*
X117352380Y-126988095D01*
X118352380Y-126654761D01*
X118352380Y-126321428D02*
X117352380Y-126321428D01*
X118352380Y-125845238D02*
X117352380Y-125845238D01*
X118352380Y-125273809D01*
X117352380Y-125273809D01*
X118352380Y-124273809D02*
X118352380Y-124845238D01*
X118352380Y-124559523D02*
X117352380Y-124559523D01*
X117495238Y-124654761D01*
X117590476Y-124750000D01*
X117638095Y-124845238D01*
X248816666Y-130690666D02*
X248816666Y-130214476D01*
X249102380Y-130785904D02*
X248102380Y-130452571D01*
X249102380Y-130119238D01*
X249102380Y-129262095D02*
X249102380Y-129833523D01*
X249102380Y-129547809D02*
X248102380Y-129547809D01*
X248245238Y-129643047D01*
X248340476Y-129738285D01*
X248388095Y-129833523D01*
X248102380Y-128643047D02*
X248102380Y-128547809D01*
X248150000Y-128452571D01*
X248197619Y-128404952D01*
X248292857Y-128357333D01*
X248483333Y-128309714D01*
X248721428Y-128309714D01*
X248911904Y-128357333D01*
X249007142Y-128404952D01*
X249054761Y-128452571D01*
X249102380Y-128547809D01*
X249102380Y-128643047D01*
X249054761Y-128738285D01*
X249007142Y-128785904D01*
X248911904Y-128833523D01*
X248721428Y-128881142D01*
X248483333Y-128881142D01*
X248292857Y-128833523D01*
X248197619Y-128785904D01*
X248150000Y-128738285D01*
X248102380Y-128643047D01*
X248102380Y-127690666D02*
X248102380Y-127595428D01*
X248150000Y-127500190D01*
X248197619Y-127452571D01*
X248292857Y-127404952D01*
X248483333Y-127357333D01*
X248721428Y-127357333D01*
X248911904Y-127404952D01*
X249007142Y-127452571D01*
X249054761Y-127500190D01*
X249102380Y-127595428D01*
X249102380Y-127690666D01*
X249054761Y-127785904D01*
X249007142Y-127833523D01*
X248911904Y-127881142D01*
X248721428Y-127928761D01*
X248483333Y-127928761D01*
X248292857Y-127881142D01*
X248197619Y-127833523D01*
X248150000Y-127785904D01*
X248102380Y-127690666D01*
X249102380Y-126928761D02*
X248102380Y-126928761D01*
X249102380Y-126357333D02*
X248530952Y-126785904D01*
X248102380Y-126357333D02*
X248673809Y-126928761D01*
X258352380Y-128178761D02*
X258352380Y-128654952D01*
X257352380Y-128654952D01*
X257828571Y-127845428D02*
X257828571Y-127512095D01*
X258352380Y-127369238D02*
X258352380Y-127845428D01*
X257352380Y-127845428D01*
X257352380Y-127369238D01*
X257352380Y-127083523D02*
X258352380Y-126750190D01*
X257352380Y-126416857D01*
X257828571Y-126083523D02*
X257828571Y-125750190D01*
X258352380Y-125607333D02*
X258352380Y-126083523D01*
X257352380Y-126083523D01*
X257352380Y-125607333D01*
X258352380Y-124702571D02*
X258352380Y-125178761D01*
X257352380Y-125178761D01*
X258352380Y-123845428D02*
X258352380Y-124416857D01*
X258352380Y-124131142D02*
X257352380Y-124131142D01*
X257495238Y-124226380D01*
X257590476Y-124321619D01*
X257638095Y-124416857D01*
X164588571Y-129650952D02*
X164636190Y-129508095D01*
X164683809Y-129460476D01*
X164779047Y-129412857D01*
X164921904Y-129412857D01*
X165017142Y-129460476D01*
X165064761Y-129508095D01*
X165112380Y-129603333D01*
X165112380Y-129984285D01*
X164112380Y-129984285D01*
X164112380Y-129650952D01*
X164160000Y-129555714D01*
X164207619Y-129508095D01*
X164302857Y-129460476D01*
X164398095Y-129460476D01*
X164493333Y-129508095D01*
X164540952Y-129555714D01*
X164588571Y-129650952D01*
X164588571Y-129984285D01*
X164207619Y-129031904D02*
X164160000Y-128984285D01*
X164112380Y-128889047D01*
X164112380Y-128650952D01*
X164160000Y-128555714D01*
X164207619Y-128508095D01*
X164302857Y-128460476D01*
X164398095Y-128460476D01*
X164540952Y-128508095D01*
X165112380Y-129079523D01*
X165112380Y-128460476D01*
X164207619Y-128079523D02*
X164160000Y-128031904D01*
X164112380Y-127936666D01*
X164112380Y-127698571D01*
X164160000Y-127603333D01*
X164207619Y-127555714D01*
X164302857Y-127508095D01*
X164398095Y-127508095D01*
X164540952Y-127555714D01*
X165112380Y-128127142D01*
X165112380Y-127508095D01*
X165112380Y-127079523D02*
X164112380Y-127079523D01*
X165112380Y-126508095D02*
X164540952Y-126936666D01*
X164112380Y-126508095D02*
X164683809Y-127079523D01*
X174362380Y-127797619D02*
X173362380Y-127797619D01*
X174076666Y-127464285D01*
X173362380Y-127130952D01*
X174362380Y-127130952D01*
X174362380Y-126654761D02*
X173362380Y-126654761D01*
X174362380Y-126178571D02*
X173362380Y-126178571D01*
X173362380Y-125940476D01*
X173410000Y-125797619D01*
X173505238Y-125702380D01*
X173600476Y-125654761D01*
X173790952Y-125607142D01*
X173933809Y-125607142D01*
X174124285Y-125654761D01*
X174219523Y-125702380D01*
X174314761Y-125797619D01*
X174362380Y-125940476D01*
X174362380Y-126178571D01*
X174362380Y-124654761D02*
X174362380Y-125226190D01*
X174362380Y-124940476D02*
X173362380Y-124940476D01*
X173505238Y-125035714D01*
X173600476Y-125130952D01*
X173648095Y-125226190D01*
X136580571Y-129619142D02*
X136628190Y-129476285D01*
X136675809Y-129428666D01*
X136771047Y-129381047D01*
X136913904Y-129381047D01*
X137009142Y-129428666D01*
X137056761Y-129476285D01*
X137104380Y-129571523D01*
X137104380Y-129952476D01*
X136104380Y-129952476D01*
X136104380Y-129619142D01*
X136152000Y-129523904D01*
X136199619Y-129476285D01*
X136294857Y-129428666D01*
X136390095Y-129428666D01*
X136485333Y-129476285D01*
X136532952Y-129523904D01*
X136580571Y-129619142D01*
X136580571Y-129952476D01*
X136199619Y-129000095D02*
X136152000Y-128952476D01*
X136104380Y-128857238D01*
X136104380Y-128619142D01*
X136152000Y-128523904D01*
X136199619Y-128476285D01*
X136294857Y-128428666D01*
X136390095Y-128428666D01*
X136532952Y-128476285D01*
X137104380Y-129047714D01*
X137104380Y-128428666D01*
X136199619Y-128047714D02*
X136152000Y-128000095D01*
X136104380Y-127904857D01*
X136104380Y-127666761D01*
X136152000Y-127571523D01*
X136199619Y-127523904D01*
X136294857Y-127476285D01*
X136390095Y-127476285D01*
X136532952Y-127523904D01*
X137104380Y-128095333D01*
X137104380Y-127476285D01*
X136104380Y-126857238D02*
X136104380Y-126762000D01*
X136152000Y-126666761D01*
X136199619Y-126619142D01*
X136294857Y-126571523D01*
X136485333Y-126523904D01*
X136723428Y-126523904D01*
X136913904Y-126571523D01*
X137009142Y-126619142D01*
X137056761Y-126666761D01*
X137104380Y-126762000D01*
X137104380Y-126857238D01*
X137056761Y-126952476D01*
X137009142Y-127000095D01*
X136913904Y-127047714D01*
X136723428Y-127095333D01*
X136485333Y-127095333D01*
X136294857Y-127047714D01*
X136199619Y-127000095D01*
X136152000Y-126952476D01*
X136104380Y-126857238D01*
X137104380Y-126095333D02*
X136104380Y-126095333D01*
X137104380Y-125523904D02*
X136532952Y-125952476D01*
X136104380Y-125523904D02*
X136675809Y-126095333D01*
X145352380Y-129321428D02*
X145352380Y-128750000D01*
X146352380Y-129035714D02*
X145352380Y-129035714D01*
X146352380Y-127845238D02*
X145876190Y-128178571D01*
X146352380Y-128416666D02*
X145352380Y-128416666D01*
X145352380Y-128035714D01*
X145400000Y-127940476D01*
X145447619Y-127892857D01*
X145542857Y-127845238D01*
X145685714Y-127845238D01*
X145780952Y-127892857D01*
X145828571Y-127940476D01*
X145876190Y-128035714D01*
X145876190Y-128416666D01*
X145828571Y-127416666D02*
X145828571Y-127083333D01*
X146352380Y-126940476D02*
X146352380Y-127416666D01*
X145352380Y-127416666D01*
X145352380Y-126940476D01*
X145828571Y-126178571D02*
X145876190Y-126035714D01*
X145923809Y-125988095D01*
X146019047Y-125940476D01*
X146161904Y-125940476D01*
X146257142Y-125988095D01*
X146304761Y-126035714D01*
X146352380Y-126130952D01*
X146352380Y-126511904D01*
X145352380Y-126511904D01*
X145352380Y-126178571D01*
X145400000Y-126083333D01*
X145447619Y-126035714D01*
X145542857Y-125988095D01*
X145638095Y-125988095D01*
X145733333Y-126035714D01*
X145780952Y-126083333D01*
X145828571Y-126178571D01*
X145828571Y-126511904D01*
X146352380Y-125035714D02*
X146352380Y-125511904D01*
X145352380Y-125511904D01*
X145828571Y-124702380D02*
X145828571Y-124369047D01*
X146352380Y-124226190D02*
X146352380Y-124702380D01*
X145352380Y-124702380D01*
X145352380Y-124226190D01*
X146352380Y-123273809D02*
X146352380Y-123845238D01*
X146352380Y-123559523D02*
X145352380Y-123559523D01*
X145495238Y-123654761D01*
X145590476Y-123750000D01*
X145638095Y-123845238D01*
X85009523Y-112212380D02*
X85009523Y-111212380D01*
X85485714Y-112212380D02*
X85485714Y-111212380D01*
X86057142Y-112212380D01*
X86057142Y-111212380D01*
X86295238Y-112307619D02*
X87057142Y-112307619D01*
X87295238Y-112212380D02*
X87295238Y-111212380D01*
X87295238Y-111688571D02*
X87866666Y-111688571D01*
X87866666Y-112212380D02*
X87866666Y-111212380D01*
X88342857Y-112212380D02*
X88342857Y-111212380D01*
X89342857Y-111260000D02*
X89247619Y-111212380D01*
X89104761Y-111212380D01*
X88961904Y-111260000D01*
X88866666Y-111355238D01*
X88819047Y-111450476D01*
X88771428Y-111640952D01*
X88771428Y-111783809D01*
X88819047Y-111974285D01*
X88866666Y-112069523D01*
X88961904Y-112164761D01*
X89104761Y-112212380D01*
X89200000Y-112212380D01*
X89342857Y-112164761D01*
X89390476Y-112117142D01*
X89390476Y-111783809D01*
X89200000Y-111783809D01*
X89819047Y-112212380D02*
X89819047Y-111212380D01*
X89819047Y-111688571D02*
X90390476Y-111688571D01*
X90390476Y-112212380D02*
X90390476Y-111212380D01*
X194155714Y-98468095D02*
X194822380Y-98468095D01*
X193774761Y-98706190D02*
X194489047Y-98944285D01*
X194489047Y-98325238D01*
X193822380Y-98039523D02*
X193822380Y-97372857D01*
X194822380Y-97801428D01*
X194155714Y-96991904D02*
X194822380Y-96991904D01*
X194250952Y-96991904D02*
X194203333Y-96944285D01*
X194155714Y-96849047D01*
X194155714Y-96706190D01*
X194203333Y-96610952D01*
X194298571Y-96563333D01*
X194822380Y-96563333D01*
X198477142Y-98372857D02*
X198524761Y-98420476D01*
X198572380Y-98563333D01*
X198572380Y-98658571D01*
X198524761Y-98801428D01*
X198429523Y-98896666D01*
X198334285Y-98944285D01*
X198143809Y-98991904D01*
X198000952Y-98991904D01*
X197810476Y-98944285D01*
X197715238Y-98896666D01*
X197620000Y-98801428D01*
X197572380Y-98658571D01*
X197572380Y-98563333D01*
X197620000Y-98420476D01*
X197667619Y-98372857D01*
X198572380Y-97420476D02*
X198572380Y-97991904D01*
X198572380Y-97706190D02*
X197572380Y-97706190D01*
X197715238Y-97801428D01*
X197810476Y-97896666D01*
X197858095Y-97991904D01*
X197667619Y-97039523D02*
X197620000Y-96991904D01*
X197572380Y-96896666D01*
X197572380Y-96658571D01*
X197620000Y-96563333D01*
X197667619Y-96515714D01*
X197762857Y-96468095D01*
X197858095Y-96468095D01*
X198000952Y-96515714D01*
X198572380Y-97087142D01*
X198572380Y-96468095D01*
X177585714Y-113641095D02*
X178252380Y-113641095D01*
X177204761Y-113879190D02*
X177919047Y-114117285D01*
X177919047Y-113498238D01*
X177252380Y-113212523D02*
X177252380Y-112545857D01*
X178252380Y-112974428D01*
X177585714Y-112164904D02*
X178252380Y-112164904D01*
X177680952Y-112164904D02*
X177633333Y-112117285D01*
X177585714Y-112022047D01*
X177585714Y-111879190D01*
X177633333Y-111783952D01*
X177728571Y-111736333D01*
X178252380Y-111736333D01*
X174347142Y-113612857D02*
X174394761Y-113660476D01*
X174442380Y-113803333D01*
X174442380Y-113898571D01*
X174394761Y-114041428D01*
X174299523Y-114136666D01*
X174204285Y-114184285D01*
X174013809Y-114231904D01*
X173870952Y-114231904D01*
X173680476Y-114184285D01*
X173585238Y-114136666D01*
X173490000Y-114041428D01*
X173442380Y-113898571D01*
X173442380Y-113803333D01*
X173490000Y-113660476D01*
X173537619Y-113612857D01*
X174442380Y-112660476D02*
X174442380Y-113231904D01*
X174442380Y-112946190D02*
X173442380Y-112946190D01*
X173585238Y-113041428D01*
X173680476Y-113136666D01*
X173728095Y-113231904D01*
X173442380Y-112041428D02*
X173442380Y-111946190D01*
X173490000Y-111850952D01*
X173537619Y-111803333D01*
X173632857Y-111755714D01*
X173823333Y-111708095D01*
X174061428Y-111708095D01*
X174251904Y-111755714D01*
X174347142Y-111803333D01*
X174394761Y-111850952D01*
X174442380Y-111946190D01*
X174442380Y-112041428D01*
X174394761Y-112136666D01*
X174347142Y-112184285D01*
X174251904Y-112231904D01*
X174061428Y-112279523D01*
X173823333Y-112279523D01*
X173632857Y-112231904D01*
X173537619Y-112184285D01*
X173490000Y-112136666D01*
X173442380Y-112041428D01*
X88865952Y-91952380D02*
X88294523Y-91952380D01*
X88580238Y-91952380D02*
X88580238Y-90952380D01*
X88485000Y-91095238D01*
X88389761Y-91190476D01*
X88294523Y-91238095D01*
X89485000Y-90952380D02*
X89580238Y-90952380D01*
X89675476Y-91000000D01*
X89723095Y-91047619D01*
X89770714Y-91142857D01*
X89818333Y-91333333D01*
X89818333Y-91571428D01*
X89770714Y-91761904D01*
X89723095Y-91857142D01*
X89675476Y-91904761D01*
X89580238Y-91952380D01*
X89485000Y-91952380D01*
X89389761Y-91904761D01*
X89342142Y-91857142D01*
X89294523Y-91761904D01*
X89246904Y-91571428D01*
X89246904Y-91333333D01*
X89294523Y-91142857D01*
X89342142Y-91047619D01*
X89389761Y-91000000D01*
X89485000Y-90952380D01*
X90437380Y-90952380D02*
X90532619Y-90952380D01*
X90627857Y-91000000D01*
X90675476Y-91047619D01*
X90723095Y-91142857D01*
X90770714Y-91333333D01*
X90770714Y-91571428D01*
X90723095Y-91761904D01*
X90675476Y-91857142D01*
X90627857Y-91904761D01*
X90532619Y-91952380D01*
X90437380Y-91952380D01*
X90342142Y-91904761D01*
X90294523Y-91857142D01*
X90246904Y-91761904D01*
X90199285Y-91571428D01*
X90199285Y-91333333D01*
X90246904Y-91142857D01*
X90294523Y-91047619D01*
X90342142Y-91000000D01*
X90437380Y-90952380D01*
X91199285Y-91285714D02*
X91199285Y-91952380D01*
X91199285Y-91380952D02*
X91246904Y-91333333D01*
X91342142Y-91285714D01*
X91485000Y-91285714D01*
X91580238Y-91333333D01*
X91627857Y-91428571D01*
X91627857Y-91952380D01*
X89818333Y-95607142D02*
X89770714Y-95654761D01*
X89627857Y-95702380D01*
X89532619Y-95702380D01*
X89389761Y-95654761D01*
X89294523Y-95559523D01*
X89246904Y-95464285D01*
X89199285Y-95273809D01*
X89199285Y-95130952D01*
X89246904Y-94940476D01*
X89294523Y-94845238D01*
X89389761Y-94750000D01*
X89532619Y-94702380D01*
X89627857Y-94702380D01*
X89770714Y-94750000D01*
X89818333Y-94797619D01*
X90151666Y-94702380D02*
X90770714Y-94702380D01*
X90437380Y-95083333D01*
X90580238Y-95083333D01*
X90675476Y-95130952D01*
X90723095Y-95178571D01*
X90770714Y-95273809D01*
X90770714Y-95511904D01*
X90723095Y-95607142D01*
X90675476Y-95654761D01*
X90580238Y-95702380D01*
X90294523Y-95702380D01*
X90199285Y-95654761D01*
X90151666Y-95607142D01*
X155587619Y-101643285D02*
X155540000Y-101595666D01*
X155492380Y-101500428D01*
X155492380Y-101262333D01*
X155540000Y-101167095D01*
X155587619Y-101119476D01*
X155682857Y-101071857D01*
X155778095Y-101071857D01*
X155920952Y-101119476D01*
X156492380Y-101690904D01*
X156492380Y-101071857D01*
X155825714Y-100214714D02*
X156492380Y-100214714D01*
X155825714Y-100643285D02*
X156349523Y-100643285D01*
X156444761Y-100595666D01*
X156492380Y-100500428D01*
X156492380Y-100357571D01*
X156444761Y-100262333D01*
X156397142Y-100214714D01*
X155587619Y-99786142D02*
X155540000Y-99738523D01*
X155492380Y-99643285D01*
X155492380Y-99405190D01*
X155540000Y-99309952D01*
X155587619Y-99262333D01*
X155682857Y-99214714D01*
X155778095Y-99214714D01*
X155920952Y-99262333D01*
X156492380Y-99833761D01*
X156492380Y-99214714D01*
X161647142Y-100595666D02*
X161694761Y-100643285D01*
X161742380Y-100786142D01*
X161742380Y-100881380D01*
X161694761Y-101024238D01*
X161599523Y-101119476D01*
X161504285Y-101167095D01*
X161313809Y-101214714D01*
X161170952Y-101214714D01*
X160980476Y-101167095D01*
X160885238Y-101119476D01*
X160790000Y-101024238D01*
X160742380Y-100881380D01*
X160742380Y-100786142D01*
X160790000Y-100643285D01*
X160837619Y-100595666D01*
X160742380Y-99738523D02*
X160742380Y-99929000D01*
X160790000Y-100024238D01*
X160837619Y-100071857D01*
X160980476Y-100167095D01*
X161170952Y-100214714D01*
X161551904Y-100214714D01*
X161647142Y-100167095D01*
X161694761Y-100119476D01*
X161742380Y-100024238D01*
X161742380Y-99833761D01*
X161694761Y-99738523D01*
X161647142Y-99690904D01*
X161551904Y-99643285D01*
X161313809Y-99643285D01*
X161218571Y-99690904D01*
X161170952Y-99738523D01*
X161123333Y-99833761D01*
X161123333Y-100024238D01*
X161170952Y-100119476D01*
X161218571Y-100167095D01*
X161313809Y-100214714D01*
X110961904Y-120375714D02*
X110961904Y-121042380D01*
X110723809Y-119994761D02*
X110485714Y-120709047D01*
X111104761Y-120709047D01*
X111390476Y-120042380D02*
X112057142Y-120042380D01*
X111628571Y-121042380D01*
X112438095Y-120375714D02*
X112438095Y-121042380D01*
X112438095Y-120470952D02*
X112485714Y-120423333D01*
X112580952Y-120375714D01*
X112723809Y-120375714D01*
X112819047Y-120423333D01*
X112866666Y-120518571D01*
X112866666Y-121042380D01*
X111533333Y-117197142D02*
X111485714Y-117244761D01*
X111342857Y-117292380D01*
X111247619Y-117292380D01*
X111104761Y-117244761D01*
X111009523Y-117149523D01*
X110961904Y-117054285D01*
X110914285Y-116863809D01*
X110914285Y-116720952D01*
X110961904Y-116530476D01*
X111009523Y-116435238D01*
X111104761Y-116340000D01*
X111247619Y-116292380D01*
X111342857Y-116292380D01*
X111485714Y-116340000D01*
X111533333Y-116387619D01*
X111866666Y-116292380D02*
X112533333Y-116292380D01*
X112104761Y-117292380D01*
X140347619Y-114724285D02*
X140300000Y-114676666D01*
X140252380Y-114581428D01*
X140252380Y-114343333D01*
X140300000Y-114248095D01*
X140347619Y-114200476D01*
X140442857Y-114152857D01*
X140538095Y-114152857D01*
X140680952Y-114200476D01*
X141252380Y-114771904D01*
X141252380Y-114152857D01*
X140585714Y-113295714D02*
X141252380Y-113295714D01*
X140585714Y-113724285D02*
X141109523Y-113724285D01*
X141204761Y-113676666D01*
X141252380Y-113581428D01*
X141252380Y-113438571D01*
X141204761Y-113343333D01*
X141157142Y-113295714D01*
X140347619Y-112867142D02*
X140300000Y-112819523D01*
X140252380Y-112724285D01*
X140252380Y-112486190D01*
X140300000Y-112390952D01*
X140347619Y-112343333D01*
X140442857Y-112295714D01*
X140538095Y-112295714D01*
X140680952Y-112343333D01*
X141252380Y-112914761D01*
X141252380Y-112295714D01*
X146407142Y-113676666D02*
X146454761Y-113724285D01*
X146502380Y-113867142D01*
X146502380Y-113962380D01*
X146454761Y-114105238D01*
X146359523Y-114200476D01*
X146264285Y-114248095D01*
X146073809Y-114295714D01*
X145930952Y-114295714D01*
X145740476Y-114248095D01*
X145645238Y-114200476D01*
X145550000Y-114105238D01*
X145502380Y-113962380D01*
X145502380Y-113867142D01*
X145550000Y-113724285D01*
X145597619Y-113676666D01*
X145930952Y-113105238D02*
X145883333Y-113200476D01*
X145835714Y-113248095D01*
X145740476Y-113295714D01*
X145692857Y-113295714D01*
X145597619Y-113248095D01*
X145550000Y-113200476D01*
X145502380Y-113105238D01*
X145502380Y-112914761D01*
X145550000Y-112819523D01*
X145597619Y-112771904D01*
X145692857Y-112724285D01*
X145740476Y-112724285D01*
X145835714Y-112771904D01*
X145883333Y-112819523D01*
X145930952Y-112914761D01*
X145930952Y-113105238D01*
X145978571Y-113200476D01*
X146026190Y-113248095D01*
X146121428Y-113295714D01*
X146311904Y-113295714D01*
X146407142Y-113248095D01*
X146454761Y-113200476D01*
X146502380Y-113105238D01*
X146502380Y-112914761D01*
X146454761Y-112819523D01*
X146407142Y-112771904D01*
X146311904Y-112724285D01*
X146121428Y-112724285D01*
X146026190Y-112771904D01*
X145978571Y-112819523D01*
X145930952Y-112914761D01*
X155352380Y-100219047D02*
X155352380Y-100790476D01*
X155352380Y-100504761D02*
X154352380Y-100504761D01*
X154495238Y-100600000D01*
X154590476Y-100695238D01*
X154638095Y-100790476D01*
X154352380Y-99600000D02*
X154352380Y-99504761D01*
X154400000Y-99409523D01*
X154447619Y-99361904D01*
X154542857Y-99314285D01*
X154733333Y-99266666D01*
X154971428Y-99266666D01*
X155161904Y-99314285D01*
X155257142Y-99361904D01*
X155304761Y-99409523D01*
X155352380Y-99504761D01*
X155352380Y-99600000D01*
X155304761Y-99695238D01*
X155257142Y-99742857D01*
X155161904Y-99790476D01*
X154971428Y-99838095D01*
X154733333Y-99838095D01*
X154542857Y-99790476D01*
X154447619Y-99742857D01*
X154400000Y-99695238D01*
X154352380Y-99600000D01*
X154352380Y-98647619D02*
X154352380Y-98552380D01*
X154400000Y-98457142D01*
X154447619Y-98409523D01*
X154542857Y-98361904D01*
X154733333Y-98314285D01*
X154971428Y-98314285D01*
X155161904Y-98361904D01*
X155257142Y-98409523D01*
X155304761Y-98457142D01*
X155352380Y-98552380D01*
X155352380Y-98647619D01*
X155304761Y-98742857D01*
X155257142Y-98790476D01*
X155161904Y-98838095D01*
X154971428Y-98885714D01*
X154733333Y-98885714D01*
X154542857Y-98838095D01*
X154447619Y-98790476D01*
X154400000Y-98742857D01*
X154352380Y-98647619D01*
X154685714Y-97885714D02*
X155685714Y-97885714D01*
X154733333Y-97885714D02*
X154685714Y-97790476D01*
X154685714Y-97600000D01*
X154733333Y-97504761D01*
X154780952Y-97457142D01*
X154876190Y-97409523D01*
X155161904Y-97409523D01*
X155257142Y-97457142D01*
X155304761Y-97504761D01*
X155352380Y-97600000D01*
X155352380Y-97790476D01*
X155304761Y-97885714D01*
X152757142Y-99266666D02*
X152804761Y-99314285D01*
X152852380Y-99457142D01*
X152852380Y-99552380D01*
X152804761Y-99695238D01*
X152709523Y-99790476D01*
X152614285Y-99838095D01*
X152423809Y-99885714D01*
X152280952Y-99885714D01*
X152090476Y-99838095D01*
X151995238Y-99790476D01*
X151900000Y-99695238D01*
X151852380Y-99552380D01*
X151852380Y-99457142D01*
X151900000Y-99314285D01*
X151947619Y-99266666D01*
X152852380Y-98790476D02*
X152852380Y-98600000D01*
X152804761Y-98504761D01*
X152757142Y-98457142D01*
X152614285Y-98361904D01*
X152423809Y-98314285D01*
X152042857Y-98314285D01*
X151947619Y-98361904D01*
X151900000Y-98409523D01*
X151852380Y-98504761D01*
X151852380Y-98695238D01*
X151900000Y-98790476D01*
X151947619Y-98838095D01*
X152042857Y-98885714D01*
X152280952Y-98885714D01*
X152376190Y-98838095D01*
X152423809Y-98790476D01*
X152471428Y-98695238D01*
X152471428Y-98504761D01*
X152423809Y-98409523D01*
X152376190Y-98361904D01*
X152280952Y-98314285D01*
X167147619Y-114760476D02*
X167100000Y-114712857D01*
X167052380Y-114617619D01*
X167052380Y-114379523D01*
X167100000Y-114284285D01*
X167147619Y-114236666D01*
X167242857Y-114189047D01*
X167338095Y-114189047D01*
X167480952Y-114236666D01*
X168052380Y-114808095D01*
X168052380Y-114189047D01*
X167147619Y-113808095D02*
X167100000Y-113760476D01*
X167052380Y-113665238D01*
X167052380Y-113427142D01*
X167100000Y-113331904D01*
X167147619Y-113284285D01*
X167242857Y-113236666D01*
X167338095Y-113236666D01*
X167480952Y-113284285D01*
X168052380Y-113855714D01*
X168052380Y-113236666D01*
X167052380Y-112617619D02*
X167052380Y-112522380D01*
X167100000Y-112427142D01*
X167147619Y-112379523D01*
X167242857Y-112331904D01*
X167433333Y-112284285D01*
X167671428Y-112284285D01*
X167861904Y-112331904D01*
X167957142Y-112379523D01*
X168004761Y-112427142D01*
X168052380Y-112522380D01*
X168052380Y-112617619D01*
X168004761Y-112712857D01*
X167957142Y-112760476D01*
X167861904Y-112808095D01*
X167671428Y-112855714D01*
X167433333Y-112855714D01*
X167242857Y-112808095D01*
X167147619Y-112760476D01*
X167100000Y-112712857D01*
X167052380Y-112617619D01*
X167385714Y-111855714D02*
X168385714Y-111855714D01*
X167433333Y-111855714D02*
X167385714Y-111760476D01*
X167385714Y-111570000D01*
X167433333Y-111474761D01*
X167480952Y-111427142D01*
X167576190Y-111379523D01*
X167861904Y-111379523D01*
X167957142Y-111427142D01*
X168004761Y-111474761D01*
X168052380Y-111570000D01*
X168052380Y-111760476D01*
X168004761Y-111855714D01*
X165457142Y-113712857D02*
X165504761Y-113760476D01*
X165552380Y-113903333D01*
X165552380Y-113998571D01*
X165504761Y-114141428D01*
X165409523Y-114236666D01*
X165314285Y-114284285D01*
X165123809Y-114331904D01*
X164980952Y-114331904D01*
X164790476Y-114284285D01*
X164695238Y-114236666D01*
X164600000Y-114141428D01*
X164552380Y-113998571D01*
X164552380Y-113903333D01*
X164600000Y-113760476D01*
X164647619Y-113712857D01*
X165552380Y-112760476D02*
X165552380Y-113331904D01*
X165552380Y-113046190D02*
X164552380Y-113046190D01*
X164695238Y-113141428D01*
X164790476Y-113236666D01*
X164838095Y-113331904D01*
X165552380Y-111808095D02*
X165552380Y-112379523D01*
X165552380Y-112093809D02*
X164552380Y-112093809D01*
X164695238Y-112189047D01*
X164790476Y-112284285D01*
X164838095Y-112379523D01*
X220578571Y-129904952D02*
X220626190Y-129762095D01*
X220673809Y-129714476D01*
X220769047Y-129666857D01*
X220911904Y-129666857D01*
X221007142Y-129714476D01*
X221054761Y-129762095D01*
X221102380Y-129857333D01*
X221102380Y-130238285D01*
X220102380Y-130238285D01*
X220102380Y-129904952D01*
X220150000Y-129809714D01*
X220197619Y-129762095D01*
X220292857Y-129714476D01*
X220388095Y-129714476D01*
X220483333Y-129762095D01*
X220530952Y-129809714D01*
X220578571Y-129904952D01*
X220578571Y-130238285D01*
X220197619Y-129285904D02*
X220150000Y-129238285D01*
X220102380Y-129143047D01*
X220102380Y-128904952D01*
X220150000Y-128809714D01*
X220197619Y-128762095D01*
X220292857Y-128714476D01*
X220388095Y-128714476D01*
X220530952Y-128762095D01*
X221102380Y-129333523D01*
X221102380Y-128714476D01*
X220197619Y-128333523D02*
X220150000Y-128285904D01*
X220102380Y-128190666D01*
X220102380Y-127952571D01*
X220150000Y-127857333D01*
X220197619Y-127809714D01*
X220292857Y-127762095D01*
X220388095Y-127762095D01*
X220530952Y-127809714D01*
X221102380Y-128381142D01*
X221102380Y-127762095D01*
X221102380Y-127333523D02*
X220102380Y-127333523D01*
X221102380Y-126762095D02*
X220530952Y-127190666D01*
X220102380Y-126762095D02*
X220673809Y-127333523D01*
X230352380Y-130369238D02*
X229352380Y-130369238D01*
X229352380Y-129988285D01*
X229400000Y-129893047D01*
X229447619Y-129845428D01*
X229542857Y-129797809D01*
X229685714Y-129797809D01*
X229780952Y-129845428D01*
X229828571Y-129893047D01*
X229876190Y-129988285D01*
X229876190Y-130369238D01*
X230352380Y-128797809D02*
X229876190Y-129131142D01*
X230352380Y-129369238D02*
X229352380Y-129369238D01*
X229352380Y-128988285D01*
X229400000Y-128893047D01*
X229447619Y-128845428D01*
X229542857Y-128797809D01*
X229685714Y-128797809D01*
X229780952Y-128845428D01*
X229828571Y-128893047D01*
X229876190Y-128988285D01*
X229876190Y-129369238D01*
X229828571Y-128369238D02*
X229828571Y-128035904D01*
X230352380Y-127893047D02*
X230352380Y-128369238D01*
X229352380Y-128369238D01*
X229352380Y-127893047D01*
X230304761Y-127512095D02*
X230352380Y-127369238D01*
X230352380Y-127131142D01*
X230304761Y-127035904D01*
X230257142Y-126988285D01*
X230161904Y-126940666D01*
X230066666Y-126940666D01*
X229971428Y-126988285D01*
X229923809Y-127035904D01*
X229876190Y-127131142D01*
X229828571Y-127321619D01*
X229780952Y-127416857D01*
X229733333Y-127464476D01*
X229638095Y-127512095D01*
X229542857Y-127512095D01*
X229447619Y-127464476D01*
X229400000Y-127416857D01*
X229352380Y-127321619D01*
X229352380Y-127083523D01*
X229400000Y-126940666D01*
X229828571Y-126512095D02*
X229828571Y-126178761D01*
X230352380Y-126035904D02*
X230352380Y-126512095D01*
X229352380Y-126512095D01*
X229352380Y-126035904D01*
X230352380Y-125607333D02*
X229352380Y-125607333D01*
X230352380Y-125035904D01*
X229352380Y-125035904D01*
X230257142Y-123988285D02*
X230304761Y-124035904D01*
X230352380Y-124178761D01*
X230352380Y-124274000D01*
X230304761Y-124416857D01*
X230209523Y-124512095D01*
X230114285Y-124559714D01*
X229923809Y-124607333D01*
X229780952Y-124607333D01*
X229590476Y-124559714D01*
X229495238Y-124512095D01*
X229400000Y-124416857D01*
X229352380Y-124274000D01*
X229352380Y-124178761D01*
X229400000Y-124035904D01*
X229447619Y-123988285D01*
X229828571Y-123559714D02*
X229828571Y-123226380D01*
X230352380Y-123083523D02*
X230352380Y-123559714D01*
X229352380Y-123559714D01*
X229352380Y-123083523D01*
X230352380Y-122131142D02*
X230352380Y-122702571D01*
X230352380Y-122416857D02*
X229352380Y-122416857D01*
X229495238Y-122512095D01*
X229590476Y-122607333D01*
X229638095Y-122702571D01*
X118843619Y-100321904D02*
X118796000Y-100274285D01*
X118748380Y-100179047D01*
X118748380Y-99940952D01*
X118796000Y-99845714D01*
X118843619Y-99798095D01*
X118938857Y-99750476D01*
X119034095Y-99750476D01*
X119176952Y-99798095D01*
X119748380Y-100369523D01*
X119748380Y-99750476D01*
X118843619Y-99369523D02*
X118796000Y-99321904D01*
X118748380Y-99226666D01*
X118748380Y-98988571D01*
X118796000Y-98893333D01*
X118843619Y-98845714D01*
X118938857Y-98798095D01*
X119034095Y-98798095D01*
X119176952Y-98845714D01*
X119748380Y-99417142D01*
X119748380Y-98798095D01*
X119748380Y-98369523D02*
X118748380Y-98369523D01*
X119748380Y-97798095D02*
X119176952Y-98226666D01*
X118748380Y-97798095D02*
X119319809Y-98369523D01*
X122118380Y-99226666D02*
X121642190Y-99560000D01*
X122118380Y-99798095D02*
X121118380Y-99798095D01*
X121118380Y-99417142D01*
X121166000Y-99321904D01*
X121213619Y-99274285D01*
X121308857Y-99226666D01*
X121451714Y-99226666D01*
X121546952Y-99274285D01*
X121594571Y-99321904D01*
X121642190Y-99417142D01*
X121642190Y-99798095D01*
X121118380Y-98893333D02*
X121118380Y-98226666D01*
X122118380Y-98655238D01*
X110593333Y-107302380D02*
X110021904Y-107302380D01*
X110307619Y-107302380D02*
X110307619Y-106302380D01*
X110212380Y-106445238D01*
X110117142Y-106540476D01*
X110021904Y-106588095D01*
X111212380Y-106302380D02*
X111307619Y-106302380D01*
X111402857Y-106350000D01*
X111450476Y-106397619D01*
X111498095Y-106492857D01*
X111545714Y-106683333D01*
X111545714Y-106921428D01*
X111498095Y-107111904D01*
X111450476Y-107207142D01*
X111402857Y-107254761D01*
X111307619Y-107302380D01*
X111212380Y-107302380D01*
X111117142Y-107254761D01*
X111069523Y-107207142D01*
X111021904Y-107111904D01*
X110974285Y-106921428D01*
X110974285Y-106683333D01*
X111021904Y-106492857D01*
X111069523Y-106397619D01*
X111117142Y-106350000D01*
X111212380Y-106302380D01*
X112164761Y-106302380D02*
X112260000Y-106302380D01*
X112355238Y-106350000D01*
X112402857Y-106397619D01*
X112450476Y-106492857D01*
X112498095Y-106683333D01*
X112498095Y-106921428D01*
X112450476Y-107111904D01*
X112402857Y-107207142D01*
X112355238Y-107254761D01*
X112260000Y-107302380D01*
X112164761Y-107302380D01*
X112069523Y-107254761D01*
X112021904Y-107207142D01*
X111974285Y-107111904D01*
X111926666Y-106921428D01*
X111926666Y-106683333D01*
X111974285Y-106492857D01*
X112021904Y-106397619D01*
X112069523Y-106350000D01*
X112164761Y-106302380D01*
X113498095Y-107302380D02*
X113164761Y-106826190D01*
X112926666Y-107302380D02*
X112926666Y-106302380D01*
X113307619Y-106302380D01*
X113402857Y-106350000D01*
X113450476Y-106397619D01*
X113498095Y-106492857D01*
X113498095Y-106635714D01*
X113450476Y-106730952D01*
X113402857Y-106778571D01*
X113307619Y-106826190D01*
X112926666Y-106826190D01*
X111593333Y-109672380D02*
X111260000Y-109196190D01*
X111021904Y-109672380D02*
X111021904Y-108672380D01*
X111402857Y-108672380D01*
X111498095Y-108720000D01*
X111545714Y-108767619D01*
X111593333Y-108862857D01*
X111593333Y-109005714D01*
X111545714Y-109100952D01*
X111498095Y-109148571D01*
X111402857Y-109196190D01*
X111021904Y-109196190D01*
X112164761Y-109100952D02*
X112069523Y-109053333D01*
X112021904Y-109005714D01*
X111974285Y-108910476D01*
X111974285Y-108862857D01*
X112021904Y-108767619D01*
X112069523Y-108720000D01*
X112164761Y-108672380D01*
X112355238Y-108672380D01*
X112450476Y-108720000D01*
X112498095Y-108767619D01*
X112545714Y-108862857D01*
X112545714Y-108910476D01*
X112498095Y-109005714D01*
X112450476Y-109053333D01*
X112355238Y-109100952D01*
X112164761Y-109100952D01*
X112069523Y-109148571D01*
X112021904Y-109196190D01*
X111974285Y-109291428D01*
X111974285Y-109481904D01*
X112021904Y-109577142D01*
X112069523Y-109624761D01*
X112164761Y-109672380D01*
X112355238Y-109672380D01*
X112450476Y-109624761D01*
X112498095Y-109577142D01*
X112545714Y-109481904D01*
X112545714Y-109291428D01*
X112498095Y-109196190D01*
X112450476Y-109148571D01*
X112355238Y-109100952D01*
X133972380Y-115466666D02*
X133972380Y-116038095D01*
X133972380Y-115752380D02*
X132972380Y-115752380D01*
X133115238Y-115847619D01*
X133210476Y-115942857D01*
X133258095Y-116038095D01*
X132972380Y-114847619D02*
X132972380Y-114752380D01*
X133020000Y-114657142D01*
X133067619Y-114609523D01*
X133162857Y-114561904D01*
X133353333Y-114514285D01*
X133591428Y-114514285D01*
X133781904Y-114561904D01*
X133877142Y-114609523D01*
X133924761Y-114657142D01*
X133972380Y-114752380D01*
X133972380Y-114847619D01*
X133924761Y-114942857D01*
X133877142Y-114990476D01*
X133781904Y-115038095D01*
X133591428Y-115085714D01*
X133353333Y-115085714D01*
X133162857Y-115038095D01*
X133067619Y-114990476D01*
X133020000Y-114942857D01*
X132972380Y-114847619D01*
X132972380Y-113895238D02*
X132972380Y-113800000D01*
X133020000Y-113704761D01*
X133067619Y-113657142D01*
X133162857Y-113609523D01*
X133353333Y-113561904D01*
X133591428Y-113561904D01*
X133781904Y-113609523D01*
X133877142Y-113657142D01*
X133924761Y-113704761D01*
X133972380Y-113800000D01*
X133972380Y-113895238D01*
X133924761Y-113990476D01*
X133877142Y-114038095D01*
X133781904Y-114085714D01*
X133591428Y-114133333D01*
X133353333Y-114133333D01*
X133162857Y-114085714D01*
X133067619Y-114038095D01*
X133020000Y-113990476D01*
X132972380Y-113895238D01*
X133972380Y-112561904D02*
X133496190Y-112895238D01*
X133972380Y-113133333D02*
X132972380Y-113133333D01*
X132972380Y-112752380D01*
X133020000Y-112657142D01*
X133067619Y-112609523D01*
X133162857Y-112561904D01*
X133305714Y-112561904D01*
X133400952Y-112609523D01*
X133448571Y-112657142D01*
X133496190Y-112752380D01*
X133496190Y-113133333D01*
X136342380Y-114466666D02*
X135866190Y-114800000D01*
X136342380Y-115038095D02*
X135342380Y-115038095D01*
X135342380Y-114657142D01*
X135390000Y-114561904D01*
X135437619Y-114514285D01*
X135532857Y-114466666D01*
X135675714Y-114466666D01*
X135770952Y-114514285D01*
X135818571Y-114561904D01*
X135866190Y-114657142D01*
X135866190Y-115038095D01*
X136342380Y-113990476D02*
X136342380Y-113800000D01*
X136294761Y-113704761D01*
X136247142Y-113657142D01*
X136104285Y-113561904D01*
X135913809Y-113514285D01*
X135532857Y-113514285D01*
X135437619Y-113561904D01*
X135390000Y-113609523D01*
X135342380Y-113704761D01*
X135342380Y-113895238D01*
X135390000Y-113990476D01*
X135437619Y-114038095D01*
X135532857Y-114085714D01*
X135770952Y-114085714D01*
X135866190Y-114038095D01*
X135913809Y-113990476D01*
X135961428Y-113895238D01*
X135961428Y-113704761D01*
X135913809Y-113609523D01*
X135866190Y-113561904D01*
X135770952Y-113514285D01*
X129822380Y-114990476D02*
X129822380Y-115561904D01*
X129822380Y-115276190D02*
X128822380Y-115276190D01*
X128965238Y-115371428D01*
X129060476Y-115466666D01*
X129108095Y-115561904D01*
X128822380Y-114371428D02*
X128822380Y-114276190D01*
X128870000Y-114180952D01*
X128917619Y-114133333D01*
X129012857Y-114085714D01*
X129203333Y-114038095D01*
X129441428Y-114038095D01*
X129631904Y-114085714D01*
X129727142Y-114133333D01*
X129774761Y-114180952D01*
X129822380Y-114276190D01*
X129822380Y-114371428D01*
X129774761Y-114466666D01*
X129727142Y-114514285D01*
X129631904Y-114561904D01*
X129441428Y-114609523D01*
X129203333Y-114609523D01*
X129012857Y-114561904D01*
X128917619Y-114514285D01*
X128870000Y-114466666D01*
X128822380Y-114371428D01*
X129822380Y-113609523D02*
X128822380Y-113609523D01*
X129822380Y-113038095D02*
X129250952Y-113466666D01*
X128822380Y-113038095D02*
X129393809Y-113609523D01*
X127452380Y-114942857D02*
X126976190Y-115276190D01*
X127452380Y-115514285D02*
X126452380Y-115514285D01*
X126452380Y-115133333D01*
X126500000Y-115038095D01*
X126547619Y-114990476D01*
X126642857Y-114942857D01*
X126785714Y-114942857D01*
X126880952Y-114990476D01*
X126928571Y-115038095D01*
X126976190Y-115133333D01*
X126976190Y-115514285D01*
X127452380Y-113990476D02*
X127452380Y-114561904D01*
X127452380Y-114276190D02*
X126452380Y-114276190D01*
X126595238Y-114371428D01*
X126690476Y-114466666D01*
X126738095Y-114561904D01*
X126452380Y-113371428D02*
X126452380Y-113276190D01*
X126500000Y-113180952D01*
X126547619Y-113133333D01*
X126642857Y-113085714D01*
X126833333Y-113038095D01*
X127071428Y-113038095D01*
X127261904Y-113085714D01*
X127357142Y-113133333D01*
X127404761Y-113180952D01*
X127452380Y-113276190D01*
X127452380Y-113371428D01*
X127404761Y-113466666D01*
X127357142Y-113514285D01*
X127261904Y-113561904D01*
X127071428Y-113609523D01*
X126833333Y-113609523D01*
X126642857Y-113561904D01*
X126547619Y-113514285D01*
X126500000Y-113466666D01*
X126452380Y-113371428D01*
X153625714Y-114291904D02*
X154292380Y-114291904D01*
X153244761Y-114530000D02*
X153959047Y-114768095D01*
X153959047Y-114149047D01*
X153292380Y-113863333D02*
X153292380Y-113196666D01*
X154292380Y-113625238D01*
X153292380Y-112625238D02*
X153292380Y-112530000D01*
X153340000Y-112434761D01*
X153387619Y-112387142D01*
X153482857Y-112339523D01*
X153673333Y-112291904D01*
X153911428Y-112291904D01*
X154101904Y-112339523D01*
X154197142Y-112387142D01*
X154244761Y-112434761D01*
X154292380Y-112530000D01*
X154292380Y-112625238D01*
X154244761Y-112720476D01*
X154197142Y-112768095D01*
X154101904Y-112815714D01*
X153911428Y-112863333D01*
X153673333Y-112863333D01*
X153482857Y-112815714D01*
X153387619Y-112768095D01*
X153340000Y-112720476D01*
X153292380Y-112625238D01*
X154292380Y-111291904D02*
X153816190Y-111625238D01*
X154292380Y-111863333D02*
X153292380Y-111863333D01*
X153292380Y-111482380D01*
X153340000Y-111387142D01*
X153387619Y-111339523D01*
X153482857Y-111291904D01*
X153625714Y-111291904D01*
X153720952Y-111339523D01*
X153768571Y-111387142D01*
X153816190Y-111482380D01*
X153816190Y-111863333D01*
X156662380Y-113672857D02*
X156186190Y-114006190D01*
X156662380Y-114244285D02*
X155662380Y-114244285D01*
X155662380Y-113863333D01*
X155710000Y-113768095D01*
X155757619Y-113720476D01*
X155852857Y-113672857D01*
X155995714Y-113672857D01*
X156090952Y-113720476D01*
X156138571Y-113768095D01*
X156186190Y-113863333D01*
X156186190Y-114244285D01*
X156662380Y-112720476D02*
X156662380Y-113291904D01*
X156662380Y-113006190D02*
X155662380Y-113006190D01*
X155805238Y-113101428D01*
X155900476Y-113196666D01*
X155948095Y-113291904D01*
X156662380Y-111768095D02*
X156662380Y-112339523D01*
X156662380Y-112053809D02*
X155662380Y-112053809D01*
X155805238Y-112149047D01*
X155900476Y-112244285D01*
X155948095Y-112339523D01*
X184432380Y-98480476D02*
X184432380Y-99051904D01*
X184432380Y-98766190D02*
X183432380Y-98766190D01*
X183575238Y-98861428D01*
X183670476Y-98956666D01*
X183718095Y-99051904D01*
X183432380Y-97861428D02*
X183432380Y-97766190D01*
X183480000Y-97670952D01*
X183527619Y-97623333D01*
X183622857Y-97575714D01*
X183813333Y-97528095D01*
X184051428Y-97528095D01*
X184241904Y-97575714D01*
X184337142Y-97623333D01*
X184384761Y-97670952D01*
X184432380Y-97766190D01*
X184432380Y-97861428D01*
X184384761Y-97956666D01*
X184337142Y-98004285D01*
X184241904Y-98051904D01*
X184051428Y-98099523D01*
X183813333Y-98099523D01*
X183622857Y-98051904D01*
X183527619Y-98004285D01*
X183480000Y-97956666D01*
X183432380Y-97861428D01*
X184432380Y-97099523D02*
X183432380Y-97099523D01*
X184432380Y-96528095D02*
X183860952Y-96956666D01*
X183432380Y-96528095D02*
X184003809Y-97099523D01*
X182062380Y-98432857D02*
X181586190Y-98766190D01*
X182062380Y-99004285D02*
X181062380Y-99004285D01*
X181062380Y-98623333D01*
X181110000Y-98528095D01*
X181157619Y-98480476D01*
X181252857Y-98432857D01*
X181395714Y-98432857D01*
X181490952Y-98480476D01*
X181538571Y-98528095D01*
X181586190Y-98623333D01*
X181586190Y-99004285D01*
X182062380Y-97480476D02*
X182062380Y-98051904D01*
X182062380Y-97766190D02*
X181062380Y-97766190D01*
X181205238Y-97861428D01*
X181300476Y-97956666D01*
X181348095Y-98051904D01*
X181157619Y-97099523D02*
X181110000Y-97051904D01*
X181062380Y-96956666D01*
X181062380Y-96718571D01*
X181110000Y-96623333D01*
X181157619Y-96575714D01*
X181252857Y-96528095D01*
X181348095Y-96528095D01*
X181490952Y-96575714D01*
X182062380Y-97147142D01*
X182062380Y-96528095D01*
X187174285Y-113747714D02*
X187174285Y-114414380D01*
X186936190Y-113366761D02*
X186698095Y-114081047D01*
X187317142Y-114081047D01*
X187698095Y-114414380D02*
X187698095Y-113414380D01*
X188269523Y-114414380D02*
X187840952Y-113842952D01*
X188269523Y-113414380D02*
X187698095Y-113985809D01*
X188602857Y-113414380D02*
X189269523Y-113414380D01*
X188840952Y-114414380D01*
X187317142Y-116784380D02*
X186983809Y-116308190D01*
X186745714Y-116784380D02*
X186745714Y-115784380D01*
X187126666Y-115784380D01*
X187221904Y-115832000D01*
X187269523Y-115879619D01*
X187317142Y-115974857D01*
X187317142Y-116117714D01*
X187269523Y-116212952D01*
X187221904Y-116260571D01*
X187126666Y-116308190D01*
X186745714Y-116308190D01*
X188269523Y-116784380D02*
X187698095Y-116784380D01*
X187983809Y-116784380D02*
X187983809Y-115784380D01*
X187888571Y-115927238D01*
X187793333Y-116022476D01*
X187698095Y-116070095D01*
X189126666Y-116117714D02*
X189126666Y-116784380D01*
X188888571Y-115736761D02*
X188650476Y-116451047D01*
X189269523Y-116451047D01*
X238874380Y-114990476D02*
X238874380Y-115561904D01*
X238874380Y-115276190D02*
X237874380Y-115276190D01*
X238017238Y-115371428D01*
X238112476Y-115466666D01*
X238160095Y-115561904D01*
X237874380Y-114371428D02*
X237874380Y-114276190D01*
X237922000Y-114180952D01*
X237969619Y-114133333D01*
X238064857Y-114085714D01*
X238255333Y-114038095D01*
X238493428Y-114038095D01*
X238683904Y-114085714D01*
X238779142Y-114133333D01*
X238826761Y-114180952D01*
X238874380Y-114276190D01*
X238874380Y-114371428D01*
X238826761Y-114466666D01*
X238779142Y-114514285D01*
X238683904Y-114561904D01*
X238493428Y-114609523D01*
X238255333Y-114609523D01*
X238064857Y-114561904D01*
X237969619Y-114514285D01*
X237922000Y-114466666D01*
X237874380Y-114371428D01*
X238874380Y-113609523D02*
X237874380Y-113609523D01*
X238874380Y-113038095D02*
X238302952Y-113466666D01*
X237874380Y-113038095D02*
X238445809Y-113609523D01*
X241244380Y-114942857D02*
X240768190Y-115276190D01*
X241244380Y-115514285D02*
X240244380Y-115514285D01*
X240244380Y-115133333D01*
X240292000Y-115038095D01*
X240339619Y-114990476D01*
X240434857Y-114942857D01*
X240577714Y-114942857D01*
X240672952Y-114990476D01*
X240720571Y-115038095D01*
X240768190Y-115133333D01*
X240768190Y-115514285D01*
X241244380Y-113990476D02*
X241244380Y-114561904D01*
X241244380Y-114276190D02*
X240244380Y-114276190D01*
X240387238Y-114371428D01*
X240482476Y-114466666D01*
X240530095Y-114561904D01*
X240244380Y-113133333D02*
X240244380Y-113323809D01*
X240292000Y-113419047D01*
X240339619Y-113466666D01*
X240482476Y-113561904D01*
X240672952Y-113609523D01*
X241053904Y-113609523D01*
X241149142Y-113561904D01*
X241196761Y-113514285D01*
X241244380Y-113419047D01*
X241244380Y-113228571D01*
X241196761Y-113133333D01*
X241149142Y-113085714D01*
X241053904Y-113038095D01*
X240815809Y-113038095D01*
X240720571Y-113085714D01*
X240672952Y-113133333D01*
X240625333Y-113228571D01*
X240625333Y-113419047D01*
X240672952Y-113514285D01*
X240720571Y-113561904D01*
X240815809Y-113609523D01*
X138850952Y-104652380D02*
X139422380Y-104652380D01*
X139136666Y-105652380D02*
X139136666Y-104652380D01*
X140231904Y-105652380D02*
X139755714Y-105652380D01*
X139755714Y-104652380D01*
X140755714Y-104652380D02*
X140850952Y-104652380D01*
X140946190Y-104700000D01*
X140993809Y-104747619D01*
X141041428Y-104842857D01*
X141089047Y-105033333D01*
X141089047Y-105271428D01*
X141041428Y-105461904D01*
X140993809Y-105557142D01*
X140946190Y-105604761D01*
X140850952Y-105652380D01*
X140755714Y-105652380D01*
X140660476Y-105604761D01*
X140612857Y-105557142D01*
X140565238Y-105461904D01*
X140517619Y-105271428D01*
X140517619Y-105033333D01*
X140565238Y-104842857D01*
X140612857Y-104747619D01*
X140660476Y-104700000D01*
X140755714Y-104652380D01*
X141660476Y-105080952D02*
X141565238Y-105033333D01*
X141517619Y-104985714D01*
X141470000Y-104890476D01*
X141470000Y-104842857D01*
X141517619Y-104747619D01*
X141565238Y-104700000D01*
X141660476Y-104652380D01*
X141850952Y-104652380D01*
X141946190Y-104700000D01*
X141993809Y-104747619D01*
X142041428Y-104842857D01*
X142041428Y-104890476D01*
X141993809Y-104985714D01*
X141946190Y-105033333D01*
X141850952Y-105080952D01*
X141660476Y-105080952D01*
X141565238Y-105128571D01*
X141517619Y-105176190D01*
X141470000Y-105271428D01*
X141470000Y-105461904D01*
X141517619Y-105557142D01*
X141565238Y-105604761D01*
X141660476Y-105652380D01*
X141850952Y-105652380D01*
X141946190Y-105604761D01*
X141993809Y-105557142D01*
X142041428Y-105461904D01*
X142041428Y-105271428D01*
X141993809Y-105176190D01*
X141946190Y-105128571D01*
X141850952Y-105080952D01*
X142422380Y-104747619D02*
X142470000Y-104700000D01*
X142565238Y-104652380D01*
X142803333Y-104652380D01*
X142898571Y-104700000D01*
X142946190Y-104747619D01*
X142993809Y-104842857D01*
X142993809Y-104938095D01*
X142946190Y-105080952D01*
X142374761Y-105652380D01*
X142993809Y-105652380D01*
X140208095Y-98512380D02*
X140208095Y-99321904D01*
X140255714Y-99417142D01*
X140303333Y-99464761D01*
X140398571Y-99512380D01*
X140589047Y-99512380D01*
X140684285Y-99464761D01*
X140731904Y-99417142D01*
X140779523Y-99321904D01*
X140779523Y-98512380D01*
X141779523Y-99512380D02*
X141208095Y-99512380D01*
X141493809Y-99512380D02*
X141493809Y-98512380D01*
X141398571Y-98655238D01*
X141303333Y-98750476D01*
X141208095Y-98798095D01*
X73827285Y-97743380D02*
X73827285Y-96743380D01*
X74160619Y-97457666D01*
X74493952Y-96743380D01*
X74493952Y-97743380D01*
X75113000Y-97743380D02*
X75017761Y-97695761D01*
X74970142Y-97648142D01*
X74922523Y-97552904D01*
X74922523Y-97267190D01*
X74970142Y-97171952D01*
X75017761Y-97124333D01*
X75113000Y-97076714D01*
X75255857Y-97076714D01*
X75351095Y-97124333D01*
X75398714Y-97171952D01*
X75446333Y-97267190D01*
X75446333Y-97552904D01*
X75398714Y-97648142D01*
X75351095Y-97695761D01*
X75255857Y-97743380D01*
X75113000Y-97743380D01*
X76303476Y-97076714D02*
X76303476Y-97743380D01*
X75874904Y-97076714D02*
X75874904Y-97600523D01*
X75922523Y-97695761D01*
X76017761Y-97743380D01*
X76160619Y-97743380D01*
X76255857Y-97695761D01*
X76303476Y-97648142D01*
X76779666Y-97076714D02*
X76779666Y-97743380D01*
X76779666Y-97171952D02*
X76827285Y-97124333D01*
X76922523Y-97076714D01*
X77065380Y-97076714D01*
X77160619Y-97124333D01*
X77208238Y-97219571D01*
X77208238Y-97743380D01*
X77541571Y-97076714D02*
X77922523Y-97076714D01*
X77684428Y-96743380D02*
X77684428Y-97600523D01*
X77732047Y-97695761D01*
X77827285Y-97743380D01*
X77922523Y-97743380D01*
X78255857Y-97743380D02*
X78255857Y-97076714D01*
X78255857Y-96743380D02*
X78208238Y-96791000D01*
X78255857Y-96838619D01*
X78303476Y-96791000D01*
X78255857Y-96743380D01*
X78255857Y-96838619D01*
X78732047Y-97076714D02*
X78732047Y-97743380D01*
X78732047Y-97171952D02*
X78779666Y-97124333D01*
X78874904Y-97076714D01*
X79017761Y-97076714D01*
X79113000Y-97124333D01*
X79160619Y-97219571D01*
X79160619Y-97743380D01*
X80065380Y-97076714D02*
X80065380Y-97886238D01*
X80017761Y-97981476D01*
X79970142Y-98029095D01*
X79874904Y-98076714D01*
X79732047Y-98076714D01*
X79636809Y-98029095D01*
X80065380Y-97695761D02*
X79970142Y-97743380D01*
X79779666Y-97743380D01*
X79684428Y-97695761D01*
X79636809Y-97648142D01*
X79589190Y-97552904D01*
X79589190Y-97267190D01*
X79636809Y-97171952D01*
X79684428Y-97124333D01*
X79779666Y-97076714D01*
X79970142Y-97076714D01*
X80065380Y-97124333D01*
X80541571Y-97743380D02*
X80541571Y-96743380D01*
X80541571Y-97219571D02*
X81113000Y-97219571D01*
X81113000Y-97743380D02*
X81113000Y-96743380D01*
X81732047Y-97743380D02*
X81636809Y-97695761D01*
X81589190Y-97648142D01*
X81541571Y-97552904D01*
X81541571Y-97267190D01*
X81589190Y-97171952D01*
X81636809Y-97124333D01*
X81732047Y-97076714D01*
X81874904Y-97076714D01*
X81970142Y-97124333D01*
X82017761Y-97171952D01*
X82065380Y-97267190D01*
X82065380Y-97552904D01*
X82017761Y-97648142D01*
X81970142Y-97695761D01*
X81874904Y-97743380D01*
X81732047Y-97743380D01*
X82636809Y-97743380D02*
X82541571Y-97695761D01*
X82493952Y-97600523D01*
X82493952Y-96743380D01*
X83398714Y-97695761D02*
X83303476Y-97743380D01*
X83113000Y-97743380D01*
X83017761Y-97695761D01*
X82970142Y-97600523D01*
X82970142Y-97219571D01*
X83017761Y-97124333D01*
X83113000Y-97076714D01*
X83303476Y-97076714D01*
X83398714Y-97124333D01*
X83446333Y-97219571D01*
X83446333Y-97314809D01*
X82970142Y-97410047D01*
X78151095Y-93543380D02*
X78151095Y-92543380D01*
X78151095Y-93019571D02*
X78722523Y-93019571D01*
X78722523Y-93543380D02*
X78722523Y-92543380D01*
X79674904Y-92543380D02*
X79198714Y-92543380D01*
X79151095Y-93019571D01*
X79198714Y-92971952D01*
X79293952Y-92924333D01*
X79532047Y-92924333D01*
X79627285Y-92971952D01*
X79674904Y-93019571D01*
X79722523Y-93114809D01*
X79722523Y-93352904D01*
X79674904Y-93448142D01*
X79627285Y-93495761D01*
X79532047Y-93543380D01*
X79293952Y-93543380D01*
X79198714Y-93495761D01*
X79151095Y-93448142D01*
X261406285Y-97743380D02*
X261406285Y-96743380D01*
X261739619Y-97457666D01*
X262072952Y-96743380D01*
X262072952Y-97743380D01*
X262692000Y-97743380D02*
X262596761Y-97695761D01*
X262549142Y-97648142D01*
X262501523Y-97552904D01*
X262501523Y-97267190D01*
X262549142Y-97171952D01*
X262596761Y-97124333D01*
X262692000Y-97076714D01*
X262834857Y-97076714D01*
X262930095Y-97124333D01*
X262977714Y-97171952D01*
X263025333Y-97267190D01*
X263025333Y-97552904D01*
X262977714Y-97648142D01*
X262930095Y-97695761D01*
X262834857Y-97743380D01*
X262692000Y-97743380D01*
X263882476Y-97076714D02*
X263882476Y-97743380D01*
X263453904Y-97076714D02*
X263453904Y-97600523D01*
X263501523Y-97695761D01*
X263596761Y-97743380D01*
X263739619Y-97743380D01*
X263834857Y-97695761D01*
X263882476Y-97648142D01*
X264358666Y-97076714D02*
X264358666Y-97743380D01*
X264358666Y-97171952D02*
X264406285Y-97124333D01*
X264501523Y-97076714D01*
X264644380Y-97076714D01*
X264739619Y-97124333D01*
X264787238Y-97219571D01*
X264787238Y-97743380D01*
X265120571Y-97076714D02*
X265501523Y-97076714D01*
X265263428Y-96743380D02*
X265263428Y-97600523D01*
X265311047Y-97695761D01*
X265406285Y-97743380D01*
X265501523Y-97743380D01*
X265834857Y-97743380D02*
X265834857Y-97076714D01*
X265834857Y-96743380D02*
X265787238Y-96791000D01*
X265834857Y-96838619D01*
X265882476Y-96791000D01*
X265834857Y-96743380D01*
X265834857Y-96838619D01*
X266311047Y-97076714D02*
X266311047Y-97743380D01*
X266311047Y-97171952D02*
X266358666Y-97124333D01*
X266453904Y-97076714D01*
X266596761Y-97076714D01*
X266692000Y-97124333D01*
X266739619Y-97219571D01*
X266739619Y-97743380D01*
X267644380Y-97076714D02*
X267644380Y-97886238D01*
X267596761Y-97981476D01*
X267549142Y-98029095D01*
X267453904Y-98076714D01*
X267311047Y-98076714D01*
X267215809Y-98029095D01*
X267644380Y-97695761D02*
X267549142Y-97743380D01*
X267358666Y-97743380D01*
X267263428Y-97695761D01*
X267215809Y-97648142D01*
X267168190Y-97552904D01*
X267168190Y-97267190D01*
X267215809Y-97171952D01*
X267263428Y-97124333D01*
X267358666Y-97076714D01*
X267549142Y-97076714D01*
X267644380Y-97124333D01*
X268120571Y-97743380D02*
X268120571Y-96743380D01*
X268120571Y-97219571D02*
X268692000Y-97219571D01*
X268692000Y-97743380D02*
X268692000Y-96743380D01*
X269311047Y-97743380D02*
X269215809Y-97695761D01*
X269168190Y-97648142D01*
X269120571Y-97552904D01*
X269120571Y-97267190D01*
X269168190Y-97171952D01*
X269215809Y-97124333D01*
X269311047Y-97076714D01*
X269453904Y-97076714D01*
X269549142Y-97124333D01*
X269596761Y-97171952D01*
X269644380Y-97267190D01*
X269644380Y-97552904D01*
X269596761Y-97648142D01*
X269549142Y-97695761D01*
X269453904Y-97743380D01*
X269311047Y-97743380D01*
X270215809Y-97743380D02*
X270120571Y-97695761D01*
X270072952Y-97600523D01*
X270072952Y-96743380D01*
X270977714Y-97695761D02*
X270882476Y-97743380D01*
X270692000Y-97743380D01*
X270596761Y-97695761D01*
X270549142Y-97600523D01*
X270549142Y-97219571D01*
X270596761Y-97124333D01*
X270692000Y-97076714D01*
X270882476Y-97076714D01*
X270977714Y-97124333D01*
X271025333Y-97219571D01*
X271025333Y-97314809D01*
X270549142Y-97410047D01*
X265730095Y-93543380D02*
X265730095Y-92543380D01*
X265730095Y-93019571D02*
X266301523Y-93019571D01*
X266301523Y-93543380D02*
X266301523Y-92543380D01*
X267206285Y-92543380D02*
X267015809Y-92543380D01*
X266920571Y-92591000D01*
X266872952Y-92638619D01*
X266777714Y-92781476D01*
X266730095Y-92971952D01*
X266730095Y-93352904D01*
X266777714Y-93448142D01*
X266825333Y-93495761D01*
X266920571Y-93543380D01*
X267111047Y-93543380D01*
X267206285Y-93495761D01*
X267253904Y-93448142D01*
X267301523Y-93352904D01*
X267301523Y-93114809D01*
X267253904Y-93019571D01*
X267206285Y-92971952D01*
X267111047Y-92924333D01*
X266920571Y-92924333D01*
X266825333Y-92971952D01*
X266777714Y-93019571D01*
X266730095Y-93114809D01*
X237898952Y-107032619D02*
X237946571Y-106985000D01*
X238041809Y-106937380D01*
X238279904Y-106937380D01*
X238375142Y-106985000D01*
X238422761Y-107032619D01*
X238470380Y-107127857D01*
X238470380Y-107223095D01*
X238422761Y-107365952D01*
X237851333Y-107937380D01*
X238470380Y-107937380D01*
X239327523Y-107270714D02*
X239327523Y-107937380D01*
X238898952Y-107270714D02*
X238898952Y-107794523D01*
X238946571Y-107889761D01*
X239041809Y-107937380D01*
X239184666Y-107937380D01*
X239279904Y-107889761D01*
X239327523Y-107842142D01*
X239756095Y-107032619D02*
X239803714Y-106985000D01*
X239898952Y-106937380D01*
X240137047Y-106937380D01*
X240232285Y-106985000D01*
X240279904Y-107032619D01*
X240327523Y-107127857D01*
X240327523Y-107223095D01*
X240279904Y-107365952D01*
X239708476Y-107937380D01*
X240327523Y-107937380D01*
X241470380Y-106889761D02*
X240613238Y-108175476D01*
X241756095Y-107032619D02*
X241803714Y-106985000D01*
X241898952Y-106937380D01*
X242137047Y-106937380D01*
X242232285Y-106985000D01*
X242279904Y-107032619D01*
X242327523Y-107127857D01*
X242327523Y-107223095D01*
X242279904Y-107365952D01*
X241708476Y-107937380D01*
X242327523Y-107937380D01*
X243232285Y-106937380D02*
X242756095Y-106937380D01*
X242708476Y-107413571D01*
X242756095Y-107365952D01*
X242851333Y-107318333D01*
X243089428Y-107318333D01*
X243184666Y-107365952D01*
X243232285Y-107413571D01*
X243279904Y-107508809D01*
X243279904Y-107746904D01*
X243232285Y-107842142D01*
X243184666Y-107889761D01*
X243089428Y-107937380D01*
X242851333Y-107937380D01*
X242756095Y-107889761D01*
X242708476Y-107842142D01*
X243565619Y-106937380D02*
X243898952Y-107937380D01*
X244232285Y-106937380D01*
X240375142Y-102592142D02*
X240327523Y-102639761D01*
X240184666Y-102687380D01*
X240089428Y-102687380D01*
X239946571Y-102639761D01*
X239851333Y-102544523D01*
X239803714Y-102449285D01*
X239756095Y-102258809D01*
X239756095Y-102115952D01*
X239803714Y-101925476D01*
X239851333Y-101830238D01*
X239946571Y-101735000D01*
X240089428Y-101687380D01*
X240184666Y-101687380D01*
X240327523Y-101735000D01*
X240375142Y-101782619D01*
X241327523Y-102687380D02*
X240756095Y-102687380D01*
X241041809Y-102687380D02*
X241041809Y-101687380D01*
X240946571Y-101830238D01*
X240851333Y-101925476D01*
X240756095Y-101973095D01*
X242184666Y-101687380D02*
X241994190Y-101687380D01*
X241898952Y-101735000D01*
X241851333Y-101782619D01*
X241756095Y-101925476D01*
X241708476Y-102115952D01*
X241708476Y-102496904D01*
X241756095Y-102592142D01*
X241803714Y-102639761D01*
X241898952Y-102687380D01*
X242089428Y-102687380D01*
X242184666Y-102639761D01*
X242232285Y-102592142D01*
X242279904Y-102496904D01*
X242279904Y-102258809D01*
X242232285Y-102163571D01*
X242184666Y-102115952D01*
X242089428Y-102068333D01*
X241898952Y-102068333D01*
X241803714Y-102115952D01*
X241756095Y-102163571D01*
X241708476Y-102258809D01*
X261616190Y-109572380D02*
X261044761Y-109572380D01*
X261330476Y-109572380D02*
X261330476Y-108572380D01*
X261235238Y-108715238D01*
X261140000Y-108810476D01*
X261044761Y-108858095D01*
X262235238Y-108572380D02*
X262330476Y-108572380D01*
X262425714Y-108620000D01*
X262473333Y-108667619D01*
X262520952Y-108762857D01*
X262568571Y-108953333D01*
X262568571Y-109191428D01*
X262520952Y-109381904D01*
X262473333Y-109477142D01*
X262425714Y-109524761D01*
X262330476Y-109572380D01*
X262235238Y-109572380D01*
X262140000Y-109524761D01*
X262092380Y-109477142D01*
X262044761Y-109381904D01*
X261997142Y-109191428D01*
X261997142Y-108953333D01*
X262044761Y-108762857D01*
X262092380Y-108667619D01*
X262140000Y-108620000D01*
X262235238Y-108572380D01*
X263187619Y-108572380D02*
X263282857Y-108572380D01*
X263378095Y-108620000D01*
X263425714Y-108667619D01*
X263473333Y-108762857D01*
X263520952Y-108953333D01*
X263520952Y-109191428D01*
X263473333Y-109381904D01*
X263425714Y-109477142D01*
X263378095Y-109524761D01*
X263282857Y-109572380D01*
X263187619Y-109572380D01*
X263092380Y-109524761D01*
X263044761Y-109477142D01*
X262997142Y-109381904D01*
X262949523Y-109191428D01*
X262949523Y-108953333D01*
X262997142Y-108762857D01*
X263044761Y-108667619D01*
X263092380Y-108620000D01*
X263187619Y-108572380D01*
X264378095Y-108905714D02*
X264378095Y-109572380D01*
X263949523Y-108905714D02*
X263949523Y-109429523D01*
X263997142Y-109524761D01*
X264092380Y-109572380D01*
X264235238Y-109572380D01*
X264330476Y-109524761D01*
X264378095Y-109477142D01*
X265568571Y-108524761D02*
X264711428Y-109810476D01*
X265854285Y-108667619D02*
X265901904Y-108620000D01*
X265997142Y-108572380D01*
X266235238Y-108572380D01*
X266330476Y-108620000D01*
X266378095Y-108667619D01*
X266425714Y-108762857D01*
X266425714Y-108858095D01*
X266378095Y-109000952D01*
X265806666Y-109572380D01*
X266425714Y-109572380D01*
X267330476Y-108572380D02*
X266854285Y-108572380D01*
X266806666Y-109048571D01*
X266854285Y-109000952D01*
X266949523Y-108953333D01*
X267187619Y-108953333D01*
X267282857Y-109000952D01*
X267330476Y-109048571D01*
X267378095Y-109143809D01*
X267378095Y-109381904D01*
X267330476Y-109477142D01*
X267282857Y-109524761D01*
X267187619Y-109572380D01*
X266949523Y-109572380D01*
X266854285Y-109524761D01*
X266806666Y-109477142D01*
X267663809Y-108572380D02*
X267997142Y-109572380D01*
X268330476Y-108572380D01*
X264473333Y-103227142D02*
X264425714Y-103274761D01*
X264282857Y-103322380D01*
X264187619Y-103322380D01*
X264044761Y-103274761D01*
X263949523Y-103179523D01*
X263901904Y-103084285D01*
X263854285Y-102893809D01*
X263854285Y-102750952D01*
X263901904Y-102560476D01*
X263949523Y-102465238D01*
X264044761Y-102370000D01*
X264187619Y-102322380D01*
X264282857Y-102322380D01*
X264425714Y-102370000D01*
X264473333Y-102417619D01*
X264854285Y-102417619D02*
X264901904Y-102370000D01*
X264997142Y-102322380D01*
X265235238Y-102322380D01*
X265330476Y-102370000D01*
X265378095Y-102417619D01*
X265425714Y-102512857D01*
X265425714Y-102608095D01*
X265378095Y-102750952D01*
X264806666Y-103322380D01*
X265425714Y-103322380D01*
X228735095Y-96969619D02*
X228782714Y-96922000D01*
X228877952Y-96874380D01*
X229116047Y-96874380D01*
X229211285Y-96922000D01*
X229258904Y-96969619D01*
X229306523Y-97064857D01*
X229306523Y-97160095D01*
X229258904Y-97302952D01*
X228687476Y-97874380D01*
X229306523Y-97874380D01*
X230211285Y-96874380D02*
X229735095Y-96874380D01*
X229687476Y-97350571D01*
X229735095Y-97302952D01*
X229830333Y-97255333D01*
X230068428Y-97255333D01*
X230163666Y-97302952D01*
X230211285Y-97350571D01*
X230258904Y-97445809D01*
X230258904Y-97683904D01*
X230211285Y-97779142D01*
X230163666Y-97826761D01*
X230068428Y-97874380D01*
X229830333Y-97874380D01*
X229735095Y-97826761D01*
X229687476Y-97779142D01*
X230687476Y-97874380D02*
X230687476Y-96874380D01*
X231258904Y-97874380D02*
X230830333Y-97302952D01*
X231258904Y-96874380D02*
X230687476Y-97445809D01*
X228322476Y-101015571D02*
X228465333Y-101063190D01*
X228512952Y-101110809D01*
X228560571Y-101206047D01*
X228560571Y-101348904D01*
X228512952Y-101444142D01*
X228465333Y-101491761D01*
X228370095Y-101539380D01*
X227989142Y-101539380D01*
X227989142Y-100539380D01*
X228322476Y-100539380D01*
X228417714Y-100587000D01*
X228465333Y-100634619D01*
X228512952Y-100729857D01*
X228512952Y-100825095D01*
X228465333Y-100920333D01*
X228417714Y-100967952D01*
X228322476Y-101015571D01*
X227989142Y-101015571D01*
X229179619Y-100539380D02*
X229370095Y-100539380D01*
X229465333Y-100587000D01*
X229560571Y-100682238D01*
X229608190Y-100872714D01*
X229608190Y-101206047D01*
X229560571Y-101396523D01*
X229465333Y-101491761D01*
X229370095Y-101539380D01*
X229179619Y-101539380D01*
X229084380Y-101491761D01*
X228989142Y-101396523D01*
X228941523Y-101206047D01*
X228941523Y-100872714D01*
X228989142Y-100682238D01*
X229084380Y-100587000D01*
X229179619Y-100539380D01*
X230227238Y-100539380D02*
X230417714Y-100539380D01*
X230512952Y-100587000D01*
X230608190Y-100682238D01*
X230655809Y-100872714D01*
X230655809Y-101206047D01*
X230608190Y-101396523D01*
X230512952Y-101491761D01*
X230417714Y-101539380D01*
X230227238Y-101539380D01*
X230132000Y-101491761D01*
X230036761Y-101396523D01*
X229989142Y-101206047D01*
X229989142Y-100872714D01*
X230036761Y-100682238D01*
X230132000Y-100587000D01*
X230227238Y-100539380D01*
X231036761Y-101491761D02*
X231179619Y-101539380D01*
X231417714Y-101539380D01*
X231512952Y-101491761D01*
X231560571Y-101444142D01*
X231608190Y-101348904D01*
X231608190Y-101253666D01*
X231560571Y-101158428D01*
X231512952Y-101110809D01*
X231417714Y-101063190D01*
X231227238Y-101015571D01*
X231132000Y-100967952D01*
X231084380Y-100920333D01*
X231036761Y-100825095D01*
X231036761Y-100729857D01*
X231084380Y-100634619D01*
X231132000Y-100587000D01*
X231227238Y-100539380D01*
X231465333Y-100539380D01*
X231608190Y-100587000D01*
X231893904Y-100539380D02*
X232465333Y-100539380D01*
X232179619Y-101539380D02*
X232179619Y-100539380D01*
X233322476Y-101539380D02*
X232751047Y-101539380D01*
X233036761Y-101539380D02*
X233036761Y-100539380D01*
X232941523Y-100682238D01*
X232846285Y-100777476D01*
X232751047Y-100825095D01*
X230500904Y-119335714D02*
X230500904Y-120002380D01*
X230262809Y-118954761D02*
X230024714Y-119669047D01*
X230643761Y-119669047D01*
X230929476Y-119002380D02*
X231596142Y-119002380D01*
X231167571Y-120002380D01*
X232405666Y-119335714D02*
X232405666Y-120002380D01*
X231977095Y-119335714D02*
X231977095Y-119859523D01*
X232024714Y-119954761D01*
X232119952Y-120002380D01*
X232262809Y-120002380D01*
X232358047Y-119954761D01*
X232405666Y-119907142D01*
X230596142Y-114657142D02*
X230548523Y-114704761D01*
X230405666Y-114752380D01*
X230310428Y-114752380D01*
X230167571Y-114704761D01*
X230072333Y-114609523D01*
X230024714Y-114514285D01*
X229977095Y-114323809D01*
X229977095Y-114180952D01*
X230024714Y-113990476D01*
X230072333Y-113895238D01*
X230167571Y-113800000D01*
X230310428Y-113752380D01*
X230405666Y-113752380D01*
X230548523Y-113800000D01*
X230596142Y-113847619D01*
X231548523Y-114752380D02*
X230977095Y-114752380D01*
X231262809Y-114752380D02*
X231262809Y-113752380D01*
X231167571Y-113895238D01*
X231072333Y-113990476D01*
X230977095Y-114038095D01*
X232405666Y-114085714D02*
X232405666Y-114752380D01*
X232167571Y-113704761D02*
X231929476Y-114419047D01*
X232548523Y-114419047D01*
X219697380Y-114514285D02*
X219697380Y-115085714D01*
X219697380Y-114800000D02*
X218697380Y-114800000D01*
X218840238Y-114895238D01*
X218935476Y-114990476D01*
X218983095Y-115085714D01*
X219697380Y-114085714D02*
X218697380Y-114085714D01*
X219697380Y-113514285D02*
X219125952Y-113942857D01*
X218697380Y-113514285D02*
X219268809Y-114085714D01*
X222067380Y-114942857D02*
X221591190Y-115276190D01*
X222067380Y-115514285D02*
X221067380Y-115514285D01*
X221067380Y-115133333D01*
X221115000Y-115038095D01*
X221162619Y-114990476D01*
X221257857Y-114942857D01*
X221400714Y-114942857D01*
X221495952Y-114990476D01*
X221543571Y-115038095D01*
X221591190Y-115133333D01*
X221591190Y-115514285D01*
X222067380Y-113990476D02*
X222067380Y-114561904D01*
X222067380Y-114276190D02*
X221067380Y-114276190D01*
X221210238Y-114371428D01*
X221305476Y-114466666D01*
X221353095Y-114561904D01*
X221067380Y-113085714D02*
X221067380Y-113561904D01*
X221543571Y-113609523D01*
X221495952Y-113561904D01*
X221448333Y-113466666D01*
X221448333Y-113228571D01*
X221495952Y-113133333D01*
X221543571Y-113085714D01*
X221638809Y-113038095D01*
X221876904Y-113038095D01*
X221972142Y-113085714D01*
X222019761Y-113133333D01*
X222067380Y-113228571D01*
X222067380Y-113466666D01*
X222019761Y-113561904D01*
X221972142Y-113609523D01*
X200421619Y-110950476D02*
X200374000Y-110902857D01*
X200326380Y-110807619D01*
X200326380Y-110569523D01*
X200374000Y-110474285D01*
X200421619Y-110426666D01*
X200516857Y-110379047D01*
X200612095Y-110379047D01*
X200754952Y-110426666D01*
X201326380Y-110998095D01*
X201326380Y-110379047D01*
X200421619Y-109998095D02*
X200374000Y-109950476D01*
X200326380Y-109855238D01*
X200326380Y-109617142D01*
X200374000Y-109521904D01*
X200421619Y-109474285D01*
X200516857Y-109426666D01*
X200612095Y-109426666D01*
X200754952Y-109474285D01*
X201326380Y-110045714D01*
X201326380Y-109426666D01*
X200326380Y-108807619D02*
X200326380Y-108712380D01*
X200374000Y-108617142D01*
X200421619Y-108569523D01*
X200516857Y-108521904D01*
X200707333Y-108474285D01*
X200945428Y-108474285D01*
X201135904Y-108521904D01*
X201231142Y-108569523D01*
X201278761Y-108617142D01*
X201326380Y-108712380D01*
X201326380Y-108807619D01*
X201278761Y-108902857D01*
X201231142Y-108950476D01*
X201135904Y-108998095D01*
X200945428Y-109045714D01*
X200707333Y-109045714D01*
X200516857Y-108998095D01*
X200421619Y-108950476D01*
X200374000Y-108902857D01*
X200326380Y-108807619D01*
X200659714Y-108045714D02*
X201659714Y-108045714D01*
X200707333Y-108045714D02*
X200659714Y-107950476D01*
X200659714Y-107760000D01*
X200707333Y-107664761D01*
X200754952Y-107617142D01*
X200850190Y-107569523D01*
X201135904Y-107569523D01*
X201231142Y-107617142D01*
X201278761Y-107664761D01*
X201326380Y-107760000D01*
X201326380Y-107950476D01*
X201278761Y-108045714D01*
X198731142Y-109902857D02*
X198778761Y-109950476D01*
X198826380Y-110093333D01*
X198826380Y-110188571D01*
X198778761Y-110331428D01*
X198683523Y-110426666D01*
X198588285Y-110474285D01*
X198397809Y-110521904D01*
X198254952Y-110521904D01*
X198064476Y-110474285D01*
X197969238Y-110426666D01*
X197874000Y-110331428D01*
X197826380Y-110188571D01*
X197826380Y-110093333D01*
X197874000Y-109950476D01*
X197921619Y-109902857D01*
X198826380Y-108950476D02*
X198826380Y-109521904D01*
X198826380Y-109236190D02*
X197826380Y-109236190D01*
X197969238Y-109331428D01*
X198064476Y-109426666D01*
X198112095Y-109521904D01*
X197826380Y-108045714D02*
X197826380Y-108521904D01*
X198302571Y-108569523D01*
X198254952Y-108521904D01*
X198207333Y-108426666D01*
X198207333Y-108188571D01*
X198254952Y-108093333D01*
X198302571Y-108045714D01*
X198397809Y-107998095D01*
X198635904Y-107998095D01*
X198731142Y-108045714D01*
X198778761Y-108093333D01*
X198826380Y-108188571D01*
X198826380Y-108426666D01*
X198778761Y-108521904D01*
X198731142Y-108569523D01*
X208192952Y-117352380D02*
X208764380Y-117352380D01*
X208478666Y-118352380D02*
X208478666Y-117352380D01*
X209573904Y-118352380D02*
X209097714Y-118352380D01*
X209097714Y-117352380D01*
X210097714Y-117352380D02*
X210192952Y-117352380D01*
X210288190Y-117400000D01*
X210335809Y-117447619D01*
X210383428Y-117542857D01*
X210431047Y-117733333D01*
X210431047Y-117971428D01*
X210383428Y-118161904D01*
X210335809Y-118257142D01*
X210288190Y-118304761D01*
X210192952Y-118352380D01*
X210097714Y-118352380D01*
X210002476Y-118304761D01*
X209954857Y-118257142D01*
X209907238Y-118161904D01*
X209859619Y-117971428D01*
X209859619Y-117733333D01*
X209907238Y-117542857D01*
X209954857Y-117447619D01*
X210002476Y-117400000D01*
X210097714Y-117352380D01*
X211002476Y-117780952D02*
X210907238Y-117733333D01*
X210859619Y-117685714D01*
X210812000Y-117590476D01*
X210812000Y-117542857D01*
X210859619Y-117447619D01*
X210907238Y-117400000D01*
X211002476Y-117352380D01*
X211192952Y-117352380D01*
X211288190Y-117400000D01*
X211335809Y-117447619D01*
X211383428Y-117542857D01*
X211383428Y-117590476D01*
X211335809Y-117685714D01*
X211288190Y-117733333D01*
X211192952Y-117780952D01*
X211002476Y-117780952D01*
X210907238Y-117828571D01*
X210859619Y-117876190D01*
X210812000Y-117971428D01*
X210812000Y-118161904D01*
X210859619Y-118257142D01*
X210907238Y-118304761D01*
X211002476Y-118352380D01*
X211192952Y-118352380D01*
X211288190Y-118304761D01*
X211335809Y-118257142D01*
X211383428Y-118161904D01*
X211383428Y-117971428D01*
X211335809Y-117876190D01*
X211288190Y-117828571D01*
X211192952Y-117780952D01*
X211764380Y-117447619D02*
X211812000Y-117400000D01*
X211907238Y-117352380D01*
X212145333Y-117352380D01*
X212240571Y-117400000D01*
X212288190Y-117447619D01*
X212335809Y-117542857D01*
X212335809Y-117638095D01*
X212288190Y-117780952D01*
X211716761Y-118352380D01*
X212335809Y-118352380D01*
X209550095Y-111212380D02*
X209550095Y-112021904D01*
X209597714Y-112117142D01*
X209645333Y-112164761D01*
X209740571Y-112212380D01*
X209931047Y-112212380D01*
X210026285Y-112164761D01*
X210073904Y-112117142D01*
X210121523Y-112021904D01*
X210121523Y-111212380D01*
X210550095Y-111307619D02*
X210597714Y-111260000D01*
X210692952Y-111212380D01*
X210931047Y-111212380D01*
X211026285Y-111260000D01*
X211073904Y-111307619D01*
X211121523Y-111402857D01*
X211121523Y-111498095D01*
X211073904Y-111640952D01*
X210502476Y-112212380D01*
X211121523Y-112212380D01*
X117236619Y-100790476D02*
X117189000Y-100742857D01*
X117141380Y-100647619D01*
X117141380Y-100409523D01*
X117189000Y-100314285D01*
X117236619Y-100266666D01*
X117331857Y-100219047D01*
X117427095Y-100219047D01*
X117569952Y-100266666D01*
X118141380Y-100838095D01*
X118141380Y-100219047D01*
X117236619Y-99838095D02*
X117189000Y-99790476D01*
X117141380Y-99695238D01*
X117141380Y-99457142D01*
X117189000Y-99361904D01*
X117236619Y-99314285D01*
X117331857Y-99266666D01*
X117427095Y-99266666D01*
X117569952Y-99314285D01*
X118141380Y-99885714D01*
X118141380Y-99266666D01*
X117141380Y-98647619D02*
X117141380Y-98552380D01*
X117189000Y-98457142D01*
X117236619Y-98409523D01*
X117331857Y-98361904D01*
X117522333Y-98314285D01*
X117760428Y-98314285D01*
X117950904Y-98361904D01*
X118046142Y-98409523D01*
X118093761Y-98457142D01*
X118141380Y-98552380D01*
X118141380Y-98647619D01*
X118093761Y-98742857D01*
X118046142Y-98790476D01*
X117950904Y-98838095D01*
X117760428Y-98885714D01*
X117522333Y-98885714D01*
X117331857Y-98838095D01*
X117236619Y-98790476D01*
X117189000Y-98742857D01*
X117141380Y-98647619D01*
X117474714Y-97885714D02*
X118474714Y-97885714D01*
X117522333Y-97885714D02*
X117474714Y-97790476D01*
X117474714Y-97600000D01*
X117522333Y-97504761D01*
X117569952Y-97457142D01*
X117665190Y-97409523D01*
X117950904Y-97409523D01*
X118046142Y-97457142D01*
X118093761Y-97504761D01*
X118141380Y-97600000D01*
X118141380Y-97790476D01*
X118093761Y-97885714D01*
X115546142Y-99266666D02*
X115593761Y-99314285D01*
X115641380Y-99457142D01*
X115641380Y-99552380D01*
X115593761Y-99695238D01*
X115498523Y-99790476D01*
X115403285Y-99838095D01*
X115212809Y-99885714D01*
X115069952Y-99885714D01*
X114879476Y-99838095D01*
X114784238Y-99790476D01*
X114689000Y-99695238D01*
X114641380Y-99552380D01*
X114641380Y-99457142D01*
X114689000Y-99314285D01*
X114736619Y-99266666D01*
X114974714Y-98409523D02*
X115641380Y-98409523D01*
X114593761Y-98647619D02*
X115308047Y-98885714D01*
X115308047Y-98266666D01*
X239911095Y-90141619D02*
X239958714Y-90094000D01*
X240053952Y-90046380D01*
X240292047Y-90046380D01*
X240387285Y-90094000D01*
X240434904Y-90141619D01*
X240482523Y-90236857D01*
X240482523Y-90332095D01*
X240434904Y-90474952D01*
X239863476Y-91046380D01*
X240482523Y-91046380D01*
X240863476Y-90141619D02*
X240911095Y-90094000D01*
X241006333Y-90046380D01*
X241244428Y-90046380D01*
X241339666Y-90094000D01*
X241387285Y-90141619D01*
X241434904Y-90236857D01*
X241434904Y-90332095D01*
X241387285Y-90474952D01*
X240815857Y-91046380D01*
X241434904Y-91046380D01*
X241863476Y-91046380D02*
X241863476Y-90046380D01*
X242434904Y-91046380D02*
X242006333Y-90474952D01*
X242434904Y-90046380D02*
X241863476Y-90617809D01*
X241006333Y-93416380D02*
X240673000Y-92940190D01*
X240434904Y-93416380D02*
X240434904Y-92416380D01*
X240815857Y-92416380D01*
X240911095Y-92464000D01*
X240958714Y-92511619D01*
X241006333Y-92606857D01*
X241006333Y-92749714D01*
X240958714Y-92844952D01*
X240911095Y-92892571D01*
X240815857Y-92940190D01*
X240434904Y-92940190D01*
X241387285Y-92511619D02*
X241434904Y-92464000D01*
X241530142Y-92416380D01*
X241768238Y-92416380D01*
X241863476Y-92464000D01*
X241911095Y-92511619D01*
X241958714Y-92606857D01*
X241958714Y-92702095D01*
X241911095Y-92844952D01*
X241339666Y-93416380D01*
X241958714Y-93416380D01*
X254008095Y-90141619D02*
X254055714Y-90094000D01*
X254150952Y-90046380D01*
X254389047Y-90046380D01*
X254484285Y-90094000D01*
X254531904Y-90141619D01*
X254579523Y-90236857D01*
X254579523Y-90332095D01*
X254531904Y-90474952D01*
X253960476Y-91046380D01*
X254579523Y-91046380D01*
X254960476Y-90141619D02*
X255008095Y-90094000D01*
X255103333Y-90046380D01*
X255341428Y-90046380D01*
X255436666Y-90094000D01*
X255484285Y-90141619D01*
X255531904Y-90236857D01*
X255531904Y-90332095D01*
X255484285Y-90474952D01*
X254912857Y-91046380D01*
X255531904Y-91046380D01*
X255960476Y-91046380D02*
X255960476Y-90046380D01*
X256531904Y-91046380D02*
X256103333Y-90474952D01*
X256531904Y-90046380D02*
X255960476Y-90617809D01*
X255103333Y-93416380D02*
X254770000Y-92940190D01*
X254531904Y-93416380D02*
X254531904Y-92416380D01*
X254912857Y-92416380D01*
X255008095Y-92464000D01*
X255055714Y-92511619D01*
X255103333Y-92606857D01*
X255103333Y-92749714D01*
X255055714Y-92844952D01*
X255008095Y-92892571D01*
X254912857Y-92940190D01*
X254531904Y-92940190D01*
X255436666Y-92416380D02*
X256055714Y-92416380D01*
X255722380Y-92797333D01*
X255865238Y-92797333D01*
X255960476Y-92844952D01*
X256008095Y-92892571D01*
X256055714Y-92987809D01*
X256055714Y-93225904D01*
X256008095Y-93321142D01*
X255960476Y-93368761D01*
X255865238Y-93416380D01*
X255579523Y-93416380D01*
X255484285Y-93368761D01*
X255436666Y-93321142D01*
X103124095Y-118670000D02*
X103028857Y-118622380D01*
X102886000Y-118622380D01*
X102743142Y-118670000D01*
X102647904Y-118765238D01*
X102600285Y-118860476D01*
X102552666Y-119050952D01*
X102552666Y-119193809D01*
X102600285Y-119384285D01*
X102647904Y-119479523D01*
X102743142Y-119574761D01*
X102886000Y-119622380D01*
X102981238Y-119622380D01*
X103124095Y-119574761D01*
X103171714Y-119527142D01*
X103171714Y-119193809D01*
X102981238Y-119193809D01*
X103600285Y-119622380D02*
X103600285Y-118622380D01*
X104171714Y-119622380D01*
X104171714Y-118622380D01*
X104647904Y-119622380D02*
X104647904Y-118622380D01*
X104886000Y-118622380D01*
X105028857Y-118670000D01*
X105124095Y-118765238D01*
X105171714Y-118860476D01*
X105219333Y-119050952D01*
X105219333Y-119193809D01*
X105171714Y-119384285D01*
X105124095Y-119479523D01*
X105028857Y-119574761D01*
X104886000Y-119622380D01*
X104647904Y-119622380D01*
X103386000Y-118078095D02*
X103338380Y-118173333D01*
X103338380Y-118316190D01*
X103386000Y-118459047D01*
X103481238Y-118554285D01*
X103576476Y-118601904D01*
X103766952Y-118649523D01*
X103909809Y-118649523D01*
X104100285Y-118601904D01*
X104195523Y-118554285D01*
X104290761Y-118459047D01*
X104338380Y-118316190D01*
X104338380Y-118220952D01*
X104290761Y-118078095D01*
X104243142Y-118030476D01*
X103909809Y-118030476D01*
X103909809Y-118220952D01*
X104338380Y-117601904D02*
X103338380Y-117601904D01*
X104338380Y-117030476D01*
X103338380Y-117030476D01*
X104338380Y-116554285D02*
X103338380Y-116554285D01*
X103338380Y-116316190D01*
X103386000Y-116173333D01*
X103481238Y-116078095D01*
X103576476Y-116030476D01*
X103766952Y-115982857D01*
X103909809Y-115982857D01*
X104100285Y-116030476D01*
X104195523Y-116078095D01*
X104290761Y-116173333D01*
X104338380Y-116316190D01*
X104338380Y-116554285D01*
X104338380Y-115030476D02*
X104338380Y-115601904D01*
X104338380Y-115316190D02*
X103338380Y-115316190D01*
X103481238Y-115411428D01*
X103576476Y-115506666D01*
X103624095Y-115601904D01*
X118745095Y-118670000D02*
X118649857Y-118622380D01*
X118507000Y-118622380D01*
X118364142Y-118670000D01*
X118268904Y-118765238D01*
X118221285Y-118860476D01*
X118173666Y-119050952D01*
X118173666Y-119193809D01*
X118221285Y-119384285D01*
X118268904Y-119479523D01*
X118364142Y-119574761D01*
X118507000Y-119622380D01*
X118602238Y-119622380D01*
X118745095Y-119574761D01*
X118792714Y-119527142D01*
X118792714Y-119193809D01*
X118602238Y-119193809D01*
X119221285Y-119622380D02*
X119221285Y-118622380D01*
X119792714Y-119622380D01*
X119792714Y-118622380D01*
X120268904Y-119622380D02*
X120268904Y-118622380D01*
X120507000Y-118622380D01*
X120649857Y-118670000D01*
X120745095Y-118765238D01*
X120792714Y-118860476D01*
X120840333Y-119050952D01*
X120840333Y-119193809D01*
X120792714Y-119384285D01*
X120745095Y-119479523D01*
X120649857Y-119574761D01*
X120507000Y-119622380D01*
X120268904Y-119622380D01*
X119007000Y-118078095D02*
X118959380Y-118173333D01*
X118959380Y-118316190D01*
X119007000Y-118459047D01*
X119102238Y-118554285D01*
X119197476Y-118601904D01*
X119387952Y-118649523D01*
X119530809Y-118649523D01*
X119721285Y-118601904D01*
X119816523Y-118554285D01*
X119911761Y-118459047D01*
X119959380Y-118316190D01*
X119959380Y-118220952D01*
X119911761Y-118078095D01*
X119864142Y-118030476D01*
X119530809Y-118030476D01*
X119530809Y-118220952D01*
X119959380Y-117601904D02*
X118959380Y-117601904D01*
X119959380Y-117030476D01*
X118959380Y-117030476D01*
X119959380Y-116554285D02*
X118959380Y-116554285D01*
X118959380Y-116316190D01*
X119007000Y-116173333D01*
X119102238Y-116078095D01*
X119197476Y-116030476D01*
X119387952Y-115982857D01*
X119530809Y-115982857D01*
X119721285Y-116030476D01*
X119816523Y-116078095D01*
X119911761Y-116173333D01*
X119959380Y-116316190D01*
X119959380Y-116554285D01*
X119054619Y-115601904D02*
X119007000Y-115554285D01*
X118959380Y-115459047D01*
X118959380Y-115220952D01*
X119007000Y-115125714D01*
X119054619Y-115078095D01*
X119149857Y-115030476D01*
X119245095Y-115030476D01*
X119387952Y-115078095D01*
X119959380Y-115649523D01*
X119959380Y-115030476D01*
X249424190Y-109572380D02*
X248852761Y-109572380D01*
X249138476Y-109572380D02*
X249138476Y-108572380D01*
X249043238Y-108715238D01*
X248948000Y-108810476D01*
X248852761Y-108858095D01*
X250043238Y-108572380D02*
X250138476Y-108572380D01*
X250233714Y-108620000D01*
X250281333Y-108667619D01*
X250328952Y-108762857D01*
X250376571Y-108953333D01*
X250376571Y-109191428D01*
X250328952Y-109381904D01*
X250281333Y-109477142D01*
X250233714Y-109524761D01*
X250138476Y-109572380D01*
X250043238Y-109572380D01*
X249948000Y-109524761D01*
X249900380Y-109477142D01*
X249852761Y-109381904D01*
X249805142Y-109191428D01*
X249805142Y-108953333D01*
X249852761Y-108762857D01*
X249900380Y-108667619D01*
X249948000Y-108620000D01*
X250043238Y-108572380D01*
X250995619Y-108572380D02*
X251090857Y-108572380D01*
X251186095Y-108620000D01*
X251233714Y-108667619D01*
X251281333Y-108762857D01*
X251328952Y-108953333D01*
X251328952Y-109191428D01*
X251281333Y-109381904D01*
X251233714Y-109477142D01*
X251186095Y-109524761D01*
X251090857Y-109572380D01*
X250995619Y-109572380D01*
X250900380Y-109524761D01*
X250852761Y-109477142D01*
X250805142Y-109381904D01*
X250757523Y-109191428D01*
X250757523Y-108953333D01*
X250805142Y-108762857D01*
X250852761Y-108667619D01*
X250900380Y-108620000D01*
X250995619Y-108572380D01*
X252186095Y-108905714D02*
X252186095Y-109572380D01*
X251757523Y-108905714D02*
X251757523Y-109429523D01*
X251805142Y-109524761D01*
X251900380Y-109572380D01*
X252043238Y-109572380D01*
X252138476Y-109524761D01*
X252186095Y-109477142D01*
X253376571Y-108524761D02*
X252519428Y-109810476D01*
X253614666Y-108572380D02*
X254233714Y-108572380D01*
X253900380Y-108953333D01*
X254043238Y-108953333D01*
X254138476Y-109000952D01*
X254186095Y-109048571D01*
X254233714Y-109143809D01*
X254233714Y-109381904D01*
X254186095Y-109477142D01*
X254138476Y-109524761D01*
X254043238Y-109572380D01*
X253757523Y-109572380D01*
X253662285Y-109524761D01*
X253614666Y-109477142D01*
X255138476Y-108572380D02*
X254662285Y-108572380D01*
X254614666Y-109048571D01*
X254662285Y-109000952D01*
X254757523Y-108953333D01*
X254995619Y-108953333D01*
X255090857Y-109000952D01*
X255138476Y-109048571D01*
X255186095Y-109143809D01*
X255186095Y-109381904D01*
X255138476Y-109477142D01*
X255090857Y-109524761D01*
X254995619Y-109572380D01*
X254757523Y-109572380D01*
X254662285Y-109524761D01*
X254614666Y-109477142D01*
X255471809Y-108572380D02*
X255805142Y-109572380D01*
X256138476Y-108572380D01*
X252281333Y-103227142D02*
X252233714Y-103274761D01*
X252090857Y-103322380D01*
X251995619Y-103322380D01*
X251852761Y-103274761D01*
X251757523Y-103179523D01*
X251709904Y-103084285D01*
X251662285Y-102893809D01*
X251662285Y-102750952D01*
X251709904Y-102560476D01*
X251757523Y-102465238D01*
X251852761Y-102370000D01*
X251995619Y-102322380D01*
X252090857Y-102322380D01*
X252233714Y-102370000D01*
X252281333Y-102417619D01*
X253233714Y-103322380D02*
X252662285Y-103322380D01*
X252948000Y-103322380D02*
X252948000Y-102322380D01*
X252852761Y-102465238D01*
X252757523Y-102560476D01*
X252662285Y-102608095D01*
X214658380Y-101742571D02*
X214658380Y-102218761D01*
X215134571Y-102266380D01*
X215086952Y-102218761D01*
X215039333Y-102123523D01*
X215039333Y-101885428D01*
X215086952Y-101790190D01*
X215134571Y-101742571D01*
X215229809Y-101694952D01*
X215467904Y-101694952D01*
X215563142Y-101742571D01*
X215610761Y-101790190D01*
X215658380Y-101885428D01*
X215658380Y-102123523D01*
X215610761Y-102218761D01*
X215563142Y-102266380D01*
X215658380Y-101266380D02*
X214991714Y-101266380D01*
X215086952Y-101266380D02*
X215039333Y-101218761D01*
X214991714Y-101123523D01*
X214991714Y-100980666D01*
X215039333Y-100885428D01*
X215134571Y-100837809D01*
X215658380Y-100837809D01*
X215134571Y-100837809D02*
X215039333Y-100790190D01*
X214991714Y-100694952D01*
X214991714Y-100552095D01*
X215039333Y-100456857D01*
X215134571Y-100409238D01*
X215658380Y-100409238D01*
X219908380Y-101480666D02*
X219908380Y-101956857D01*
X218908380Y-101956857D01*
X219908380Y-100623523D02*
X219908380Y-101194952D01*
X219908380Y-100909238D02*
X218908380Y-100909238D01*
X219051238Y-101004476D01*
X219146476Y-101099714D01*
X219194095Y-101194952D01*
X225242523Y-95786380D02*
X224671095Y-95786380D01*
X224956809Y-95786380D02*
X224956809Y-94786380D01*
X224861571Y-94929238D01*
X224766333Y-95024476D01*
X224671095Y-95072095D01*
X225861571Y-94786380D02*
X225956809Y-94786380D01*
X226052047Y-94834000D01*
X226099666Y-94881619D01*
X226147285Y-94976857D01*
X226194904Y-95167333D01*
X226194904Y-95405428D01*
X226147285Y-95595904D01*
X226099666Y-95691142D01*
X226052047Y-95738761D01*
X225956809Y-95786380D01*
X225861571Y-95786380D01*
X225766333Y-95738761D01*
X225718714Y-95691142D01*
X225671095Y-95595904D01*
X225623476Y-95405428D01*
X225623476Y-95167333D01*
X225671095Y-94976857D01*
X225718714Y-94881619D01*
X225766333Y-94834000D01*
X225861571Y-94786380D01*
X227194904Y-95786380D02*
X226861571Y-95310190D01*
X226623476Y-95786380D02*
X226623476Y-94786380D01*
X227004428Y-94786380D01*
X227099666Y-94834000D01*
X227147285Y-94881619D01*
X227194904Y-94976857D01*
X227194904Y-95119714D01*
X227147285Y-95214952D01*
X227099666Y-95262571D01*
X227004428Y-95310190D01*
X226623476Y-95310190D01*
X225766333Y-93416380D02*
X225433000Y-92940190D01*
X225194904Y-93416380D02*
X225194904Y-92416380D01*
X225575857Y-92416380D01*
X225671095Y-92464000D01*
X225718714Y-92511619D01*
X225766333Y-92606857D01*
X225766333Y-92749714D01*
X225718714Y-92844952D01*
X225671095Y-92892571D01*
X225575857Y-92940190D01*
X225194904Y-92940190D01*
X226718714Y-93416380D02*
X226147285Y-93416380D01*
X226433000Y-93416380D02*
X226433000Y-92416380D01*
X226337761Y-92559238D01*
X226242523Y-92654476D01*
X226147285Y-92702095D01*
X126083619Y-100234285D02*
X126036000Y-100186666D01*
X125988380Y-100091428D01*
X125988380Y-99853333D01*
X126036000Y-99758095D01*
X126083619Y-99710476D01*
X126178857Y-99662857D01*
X126274095Y-99662857D01*
X126416952Y-99710476D01*
X126988380Y-100281904D01*
X126988380Y-99662857D01*
X126321714Y-99234285D02*
X126988380Y-99234285D01*
X126416952Y-99234285D02*
X126369333Y-99186666D01*
X126321714Y-99091428D01*
X126321714Y-98948571D01*
X126369333Y-98853333D01*
X126464571Y-98805714D01*
X126988380Y-98805714D01*
X126083619Y-98377142D02*
X126036000Y-98329523D01*
X125988380Y-98234285D01*
X125988380Y-97996190D01*
X126036000Y-97900952D01*
X126083619Y-97853333D01*
X126178857Y-97805714D01*
X126274095Y-97805714D01*
X126416952Y-97853333D01*
X126988380Y-98424761D01*
X126988380Y-97805714D01*
X129643142Y-99186666D02*
X129690761Y-99234285D01*
X129738380Y-99377142D01*
X129738380Y-99472380D01*
X129690761Y-99615238D01*
X129595523Y-99710476D01*
X129500285Y-99758095D01*
X129309809Y-99805714D01*
X129166952Y-99805714D01*
X128976476Y-99758095D01*
X128881238Y-99710476D01*
X128786000Y-99615238D01*
X128738380Y-99472380D01*
X128738380Y-99377142D01*
X128786000Y-99234285D01*
X128833619Y-99186666D01*
X128738380Y-98281904D02*
X128738380Y-98758095D01*
X129214571Y-98805714D01*
X129166952Y-98758095D01*
X129119333Y-98662857D01*
X129119333Y-98424761D01*
X129166952Y-98329523D01*
X129214571Y-98281904D01*
X129309809Y-98234285D01*
X129547904Y-98234285D01*
X129643142Y-98281904D01*
X129690761Y-98329523D01*
X129738380Y-98424761D01*
X129738380Y-98662857D01*
X129690761Y-98758095D01*
X129643142Y-98805714D01*
X185911904Y-111755714D02*
X185911904Y-112422380D01*
X185673809Y-111374761D02*
X185435714Y-112089047D01*
X186054761Y-112089047D01*
X186435714Y-111755714D02*
X186435714Y-112422380D01*
X186435714Y-111850952D02*
X186483333Y-111803333D01*
X186578571Y-111755714D01*
X186721428Y-111755714D01*
X186816666Y-111803333D01*
X186864285Y-111898571D01*
X186864285Y-112422380D01*
X187245238Y-111422380D02*
X187911904Y-111422380D01*
X187483333Y-112422380D01*
X186007142Y-109577142D02*
X185959523Y-109624761D01*
X185816666Y-109672380D01*
X185721428Y-109672380D01*
X185578571Y-109624761D01*
X185483333Y-109529523D01*
X185435714Y-109434285D01*
X185388095Y-109243809D01*
X185388095Y-109100952D01*
X185435714Y-108910476D01*
X185483333Y-108815238D01*
X185578571Y-108720000D01*
X185721428Y-108672380D01*
X185816666Y-108672380D01*
X185959523Y-108720000D01*
X186007142Y-108767619D01*
X186959523Y-109672380D02*
X186388095Y-109672380D01*
X186673809Y-109672380D02*
X186673809Y-108672380D01*
X186578571Y-108815238D01*
X186483333Y-108910476D01*
X186388095Y-108958095D01*
X187292857Y-108672380D02*
X187911904Y-108672380D01*
X187578571Y-109053333D01*
X187721428Y-109053333D01*
X187816666Y-109100952D01*
X187864285Y-109148571D01*
X187911904Y-109243809D01*
X187911904Y-109481904D01*
X187864285Y-109577142D01*
X187816666Y-109624761D01*
X187721428Y-109672380D01*
X187435714Y-109672380D01*
X187340476Y-109624761D01*
X187292857Y-109577142D01*
X245717619Y-115601285D02*
X245670000Y-115553666D01*
X245622380Y-115458428D01*
X245622380Y-115220333D01*
X245670000Y-115125095D01*
X245717619Y-115077476D01*
X245812857Y-115029857D01*
X245908095Y-115029857D01*
X246050952Y-115077476D01*
X246622380Y-115648904D01*
X246622380Y-115029857D01*
X245717619Y-114648904D02*
X245670000Y-114601285D01*
X245622380Y-114506047D01*
X245622380Y-114267952D01*
X245670000Y-114172714D01*
X245717619Y-114125095D01*
X245812857Y-114077476D01*
X245908095Y-114077476D01*
X246050952Y-114125095D01*
X246622380Y-114696523D01*
X246622380Y-114077476D01*
X245955714Y-113648904D02*
X246622380Y-113648904D01*
X246050952Y-113648904D02*
X246003333Y-113601285D01*
X245955714Y-113506047D01*
X245955714Y-113363190D01*
X246003333Y-113267952D01*
X246098571Y-113220333D01*
X246622380Y-113220333D01*
X249277142Y-115029857D02*
X249324761Y-115077476D01*
X249372380Y-115220333D01*
X249372380Y-115315571D01*
X249324761Y-115458428D01*
X249229523Y-115553666D01*
X249134285Y-115601285D01*
X248943809Y-115648904D01*
X248800952Y-115648904D01*
X248610476Y-115601285D01*
X248515238Y-115553666D01*
X248420000Y-115458428D01*
X248372380Y-115315571D01*
X248372380Y-115220333D01*
X248420000Y-115077476D01*
X248467619Y-115029857D01*
X249372380Y-114077476D02*
X249372380Y-114648904D01*
X249372380Y-114363190D02*
X248372380Y-114363190D01*
X248515238Y-114458428D01*
X248610476Y-114553666D01*
X248658095Y-114648904D01*
X248372380Y-113744142D02*
X248372380Y-113077476D01*
X249372380Y-113506047D01*
X253591619Y-115601285D02*
X253544000Y-115553666D01*
X253496380Y-115458428D01*
X253496380Y-115220333D01*
X253544000Y-115125095D01*
X253591619Y-115077476D01*
X253686857Y-115029857D01*
X253782095Y-115029857D01*
X253924952Y-115077476D01*
X254496380Y-115648904D01*
X254496380Y-115029857D01*
X253829714Y-114601285D02*
X254496380Y-114601285D01*
X253924952Y-114601285D02*
X253877333Y-114553666D01*
X253829714Y-114458428D01*
X253829714Y-114315571D01*
X253877333Y-114220333D01*
X253972571Y-114172714D01*
X254496380Y-114172714D01*
X253591619Y-113744142D02*
X253544000Y-113696523D01*
X253496380Y-113601285D01*
X253496380Y-113363190D01*
X253544000Y-113267952D01*
X253591619Y-113220333D01*
X253686857Y-113172714D01*
X253782095Y-113172714D01*
X253924952Y-113220333D01*
X254496380Y-113791761D01*
X254496380Y-113172714D01*
X257151142Y-115029857D02*
X257198761Y-115077476D01*
X257246380Y-115220333D01*
X257246380Y-115315571D01*
X257198761Y-115458428D01*
X257103523Y-115553666D01*
X257008285Y-115601285D01*
X256817809Y-115648904D01*
X256674952Y-115648904D01*
X256484476Y-115601285D01*
X256389238Y-115553666D01*
X256294000Y-115458428D01*
X256246380Y-115315571D01*
X256246380Y-115220333D01*
X256294000Y-115077476D01*
X256341619Y-115029857D01*
X257246380Y-114077476D02*
X257246380Y-114648904D01*
X257246380Y-114363190D02*
X256246380Y-114363190D01*
X256389238Y-114458428D01*
X256484476Y-114553666D01*
X256532095Y-114648904D01*
X256674952Y-113506047D02*
X256627333Y-113601285D01*
X256579714Y-113648904D01*
X256484476Y-113696523D01*
X256436857Y-113696523D01*
X256341619Y-113648904D01*
X256294000Y-113601285D01*
X256246380Y-113506047D01*
X256246380Y-113315571D01*
X256294000Y-113220333D01*
X256341619Y-113172714D01*
X256436857Y-113125095D01*
X256484476Y-113125095D01*
X256579714Y-113172714D01*
X256627333Y-113220333D01*
X256674952Y-113315571D01*
X256674952Y-113506047D01*
X256722571Y-113601285D01*
X256770190Y-113648904D01*
X256865428Y-113696523D01*
X257055904Y-113696523D01*
X257151142Y-113648904D01*
X257198761Y-113601285D01*
X257246380Y-113506047D01*
X257246380Y-113315571D01*
X257198761Y-113220333D01*
X257151142Y-113172714D01*
X257055904Y-113125095D01*
X256865428Y-113125095D01*
X256770190Y-113172714D01*
X256722571Y-113220333D01*
X256674952Y-113315571D01*
X261600380Y-116911000D02*
X261600380Y-116720523D01*
X261648000Y-116625285D01*
X261743238Y-116530047D01*
X261933714Y-116482428D01*
X262267047Y-116482428D01*
X262457523Y-116530047D01*
X262552761Y-116625285D01*
X262600380Y-116720523D01*
X262600380Y-116911000D01*
X262552761Y-117006238D01*
X262457523Y-117101476D01*
X262267047Y-117149095D01*
X261933714Y-117149095D01*
X261743238Y-117101476D01*
X261648000Y-117006238D01*
X261600380Y-116911000D01*
X261600380Y-116053857D02*
X262409904Y-116053857D01*
X262505142Y-116006238D01*
X262552761Y-115958619D01*
X262600380Y-115863380D01*
X262600380Y-115672904D01*
X262552761Y-115577666D01*
X262505142Y-115530047D01*
X262409904Y-115482428D01*
X261600380Y-115482428D01*
X261600380Y-115149095D02*
X261600380Y-114577666D01*
X262600380Y-114863380D02*
X261600380Y-114863380D01*
X263910380Y-117387190D02*
X263910380Y-117196714D01*
X263958000Y-117101476D01*
X264053238Y-117006238D01*
X264243714Y-116958619D01*
X264577047Y-116958619D01*
X264767523Y-117006238D01*
X264862761Y-117101476D01*
X264910380Y-117196714D01*
X264910380Y-117387190D01*
X264862761Y-117482428D01*
X264767523Y-117577666D01*
X264577047Y-117625285D01*
X264243714Y-117625285D01*
X264053238Y-117577666D01*
X263958000Y-117482428D01*
X263910380Y-117387190D01*
X263910380Y-116530047D02*
X264719904Y-116530047D01*
X264815142Y-116482428D01*
X264862761Y-116434809D01*
X264910380Y-116339571D01*
X264910380Y-116149095D01*
X264862761Y-116053857D01*
X264815142Y-116006238D01*
X264719904Y-115958619D01*
X263910380Y-115958619D01*
X263910380Y-115625285D02*
X263910380Y-115053857D01*
X264910380Y-115339571D02*
X263910380Y-115339571D01*
X264910380Y-114196714D02*
X264910380Y-114768142D01*
X264910380Y-114482428D02*
X263910380Y-114482428D01*
X264053238Y-114577666D01*
X264148476Y-114672904D01*
X264196095Y-114768142D01*
M02*
