G04 #@! TF.GenerationSoftware,KiCad,Pcbnew,(5.1.4)-1*
G04 #@! TF.CreationDate,2020-03-07T15:09:51+01:00*
G04 #@! TF.ProjectId,Lead-12-5010,4c656164-2d31-4322-9d35-3031302e6b69,rev?*
G04 #@! TF.SameCoordinates,Original*
G04 #@! TF.FileFunction,Legend,Top*
G04 #@! TF.FilePolarity,Positive*
%FSLAX46Y46*%
G04 Gerber Fmt 4.6, Leading zero omitted, Abs format (unit mm)*
G04 Created by KiCad (PCBNEW (5.1.4)-1) date 2020-03-07 15:09:51*
%MOMM*%
%LPD*%
G04 APERTURE LIST*
%ADD10C,0.400000*%
%ADD11C,0.300000*%
%ADD12C,0.200000*%
%ADD13C,0.120000*%
%ADD14C,0.010000*%
%ADD15C,0.150000*%
G04 APERTURE END LIST*
D10*
X205010285Y-100957142D02*
X205724571Y-102957142D01*
X206438857Y-100957142D01*
X208153142Y-99957142D02*
X208438857Y-99957142D01*
X208724571Y-100100000D01*
X208867428Y-100242857D01*
X209010285Y-100528571D01*
X209153142Y-101100000D01*
X209153142Y-101814285D01*
X209010285Y-102385714D01*
X208867428Y-102671428D01*
X208724571Y-102814285D01*
X208438857Y-102957142D01*
X208153142Y-102957142D01*
X207867428Y-102814285D01*
X207724571Y-102671428D01*
X207581714Y-102385714D01*
X207438857Y-101814285D01*
X207438857Y-101100000D01*
X207581714Y-100528571D01*
X207724571Y-100242857D01*
X207867428Y-100100000D01*
X208153142Y-99957142D01*
X210438857Y-102671428D02*
X210581714Y-102814285D01*
X210438857Y-102957142D01*
X210296000Y-102814285D01*
X210438857Y-102671428D01*
X210438857Y-102957142D01*
X213438857Y-102957142D02*
X211724571Y-102957142D01*
X212581714Y-102957142D02*
X212581714Y-99957142D01*
X212296000Y-100385714D01*
X212010285Y-100671428D01*
X211724571Y-100814285D01*
D11*
X131256952Y-92217761D02*
X131256952Y-90217761D01*
X131923619Y-91646333D01*
X132590285Y-90217761D01*
X132590285Y-92217761D01*
X134399809Y-92217761D02*
X134399809Y-91170142D01*
X134304571Y-90979666D01*
X134114095Y-90884428D01*
X133733142Y-90884428D01*
X133542666Y-90979666D01*
X134399809Y-92122523D02*
X134209333Y-92217761D01*
X133733142Y-92217761D01*
X133542666Y-92122523D01*
X133447428Y-91932047D01*
X133447428Y-91741571D01*
X133542666Y-91551095D01*
X133733142Y-91455857D01*
X134209333Y-91455857D01*
X134399809Y-91360619D01*
X135256952Y-92122523D02*
X135447428Y-92217761D01*
X135828380Y-92217761D01*
X136018857Y-92122523D01*
X136114095Y-91932047D01*
X136114095Y-91836809D01*
X136018857Y-91646333D01*
X135828380Y-91551095D01*
X135542666Y-91551095D01*
X135352190Y-91455857D01*
X135256952Y-91265380D01*
X135256952Y-91170142D01*
X135352190Y-90979666D01*
X135542666Y-90884428D01*
X135828380Y-90884428D01*
X136018857Y-90979666D01*
X136685523Y-90884428D02*
X137447428Y-90884428D01*
X136971238Y-90217761D02*
X136971238Y-91932047D01*
X137066476Y-92122523D01*
X137256952Y-92217761D01*
X137447428Y-92217761D01*
X138876000Y-92122523D02*
X138685523Y-92217761D01*
X138304571Y-92217761D01*
X138114095Y-92122523D01*
X138018857Y-91932047D01*
X138018857Y-91170142D01*
X138114095Y-90979666D01*
X138304571Y-90884428D01*
X138685523Y-90884428D01*
X138876000Y-90979666D01*
X138971238Y-91170142D01*
X138971238Y-91360619D01*
X138018857Y-91551095D01*
X139828380Y-92217761D02*
X139828380Y-90884428D01*
X139828380Y-91265380D02*
X139923619Y-91074904D01*
X140018857Y-90979666D01*
X140209333Y-90884428D01*
X140399809Y-90884428D01*
X143542666Y-92217761D02*
X142590285Y-92217761D01*
X142590285Y-90217761D01*
X144971238Y-92122523D02*
X144780761Y-92217761D01*
X144399809Y-92217761D01*
X144209333Y-92122523D01*
X144114095Y-91932047D01*
X144114095Y-91170142D01*
X144209333Y-90979666D01*
X144399809Y-90884428D01*
X144780761Y-90884428D01*
X144971238Y-90979666D01*
X145066476Y-91170142D01*
X145066476Y-91360619D01*
X144114095Y-91551095D01*
X146780761Y-92217761D02*
X146780761Y-91170142D01*
X146685523Y-90979666D01*
X146495047Y-90884428D01*
X146114095Y-90884428D01*
X145923619Y-90979666D01*
X146780761Y-92122523D02*
X146590285Y-92217761D01*
X146114095Y-92217761D01*
X145923619Y-92122523D01*
X145828380Y-91932047D01*
X145828380Y-91741571D01*
X145923619Y-91551095D01*
X146114095Y-91455857D01*
X146590285Y-91455857D01*
X146780761Y-91360619D01*
X148590285Y-92217761D02*
X148590285Y-90217761D01*
X148590285Y-92122523D02*
X148399809Y-92217761D01*
X148018857Y-92217761D01*
X147828380Y-92122523D01*
X147733142Y-92027285D01*
X147637904Y-91836809D01*
X147637904Y-91265380D01*
X147733142Y-91074904D01*
X147828380Y-90979666D01*
X148018857Y-90884428D01*
X148399809Y-90884428D01*
X148590285Y-90979666D01*
X152018857Y-90217761D02*
X151066476Y-90217761D01*
X150971238Y-91170142D01*
X151066476Y-91074904D01*
X151256952Y-90979666D01*
X151733142Y-90979666D01*
X151923619Y-91074904D01*
X152018857Y-91170142D01*
X152114095Y-91360619D01*
X152114095Y-91836809D01*
X152018857Y-92027285D01*
X151923619Y-92122523D01*
X151733142Y-92217761D01*
X151256952Y-92217761D01*
X151066476Y-92122523D01*
X150971238Y-92027285D01*
X153352190Y-90217761D02*
X153542666Y-90217761D01*
X153733142Y-90313000D01*
X153828380Y-90408238D01*
X153923619Y-90598714D01*
X154018857Y-90979666D01*
X154018857Y-91455857D01*
X153923619Y-91836809D01*
X153828380Y-92027285D01*
X153733142Y-92122523D01*
X153542666Y-92217761D01*
X153352190Y-92217761D01*
X153161714Y-92122523D01*
X153066476Y-92027285D01*
X152971238Y-91836809D01*
X152876000Y-91455857D01*
X152876000Y-90979666D01*
X152971238Y-90598714D01*
X153066476Y-90408238D01*
X153161714Y-90313000D01*
X153352190Y-90217761D01*
X155923619Y-92217761D02*
X154780761Y-92217761D01*
X155352190Y-92217761D02*
X155352190Y-90217761D01*
X155161714Y-90503476D01*
X154971238Y-90693952D01*
X154780761Y-90789190D01*
X157161714Y-90217761D02*
X157352190Y-90217761D01*
X157542666Y-90313000D01*
X157637904Y-90408238D01*
X157733142Y-90598714D01*
X157828380Y-90979666D01*
X157828380Y-91455857D01*
X157733142Y-91836809D01*
X157637904Y-92027285D01*
X157542666Y-92122523D01*
X157352190Y-92217761D01*
X157161714Y-92217761D01*
X156971238Y-92122523D01*
X156876000Y-92027285D01*
X156780761Y-91836809D01*
X156685523Y-91455857D01*
X156685523Y-90979666D01*
X156780761Y-90598714D01*
X156876000Y-90408238D01*
X156971238Y-90313000D01*
X157161714Y-90217761D01*
X160209333Y-92217761D02*
X160209333Y-90217761D01*
X160971238Y-90217761D01*
X161161714Y-90313000D01*
X161256952Y-90408238D01*
X161352190Y-90598714D01*
X161352190Y-90884428D01*
X161256952Y-91074904D01*
X161161714Y-91170142D01*
X160971238Y-91265380D01*
X160209333Y-91265380D01*
X162209333Y-92217761D02*
X162209333Y-90884428D01*
X162209333Y-91265380D02*
X162304571Y-91074904D01*
X162399809Y-90979666D01*
X162590285Y-90884428D01*
X162780761Y-90884428D01*
X164209333Y-92122523D02*
X164018857Y-92217761D01*
X163637904Y-92217761D01*
X163447428Y-92122523D01*
X163352190Y-91932047D01*
X163352190Y-91170142D01*
X163447428Y-90979666D01*
X163637904Y-90884428D01*
X164018857Y-90884428D01*
X164209333Y-90979666D01*
X164304571Y-91170142D01*
X164304571Y-91360619D01*
X163352190Y-91551095D01*
X166018857Y-92217761D02*
X166018857Y-91170142D01*
X165923619Y-90979666D01*
X165733142Y-90884428D01*
X165352190Y-90884428D01*
X165161714Y-90979666D01*
X166018857Y-92122523D02*
X165828380Y-92217761D01*
X165352190Y-92217761D01*
X165161714Y-92122523D01*
X165066476Y-91932047D01*
X165066476Y-91741571D01*
X165161714Y-91551095D01*
X165352190Y-91455857D01*
X165828380Y-91455857D01*
X166018857Y-91360619D01*
X166971238Y-92217761D02*
X166971238Y-90884428D01*
X166971238Y-91074904D02*
X167066476Y-90979666D01*
X167256952Y-90884428D01*
X167542666Y-90884428D01*
X167733142Y-90979666D01*
X167828380Y-91170142D01*
X167828380Y-92217761D01*
X167828380Y-91170142D02*
X167923619Y-90979666D01*
X168114095Y-90884428D01*
X168399809Y-90884428D01*
X168590285Y-90979666D01*
X168685523Y-91170142D01*
X168685523Y-92217761D01*
X169637904Y-90884428D02*
X169637904Y-92884428D01*
X169637904Y-90979666D02*
X169828380Y-90884428D01*
X170209333Y-90884428D01*
X170399809Y-90979666D01*
X170495047Y-91074904D01*
X170590285Y-91265380D01*
X170590285Y-91836809D01*
X170495047Y-92027285D01*
X170399809Y-92122523D01*
X170209333Y-92217761D01*
X169828380Y-92217761D01*
X169637904Y-92122523D01*
X216547000Y-94106857D02*
X216475571Y-94249714D01*
X216475571Y-94464000D01*
X216547000Y-94678285D01*
X216689857Y-94821142D01*
X216832714Y-94892571D01*
X217118428Y-94964000D01*
X217332714Y-94964000D01*
X217618428Y-94892571D01*
X217761285Y-94821142D01*
X217904142Y-94678285D01*
X217975571Y-94464000D01*
X217975571Y-94321142D01*
X217904142Y-94106857D01*
X217832714Y-94035428D01*
X217332714Y-94035428D01*
X217332714Y-94321142D01*
X217975571Y-93392571D02*
X216475571Y-93392571D01*
X217975571Y-92535428D01*
X216475571Y-92535428D01*
X217975571Y-91821142D02*
X216475571Y-91821142D01*
X216475571Y-91464000D01*
X216547000Y-91249714D01*
X216689857Y-91106857D01*
X216832714Y-91035428D01*
X217118428Y-90964000D01*
X217332714Y-90964000D01*
X217618428Y-91035428D01*
X217761285Y-91106857D01*
X217904142Y-91249714D01*
X217975571Y-91464000D01*
X217975571Y-91821142D01*
X184612428Y-120919761D02*
X184612428Y-118919761D01*
X184612428Y-120824523D02*
X184421952Y-120919761D01*
X184041000Y-120919761D01*
X183850523Y-120824523D01*
X183755285Y-120729285D01*
X183660047Y-120538809D01*
X183660047Y-119967380D01*
X183755285Y-119776904D01*
X183850523Y-119681666D01*
X184041000Y-119586428D01*
X184421952Y-119586428D01*
X184612428Y-119681666D01*
X186421952Y-120919761D02*
X186421952Y-119872142D01*
X186326714Y-119681666D01*
X186136238Y-119586428D01*
X185755285Y-119586428D01*
X185564809Y-119681666D01*
X186421952Y-120824523D02*
X186231476Y-120919761D01*
X185755285Y-120919761D01*
X185564809Y-120824523D01*
X185469571Y-120634047D01*
X185469571Y-120443571D01*
X185564809Y-120253095D01*
X185755285Y-120157857D01*
X186231476Y-120157857D01*
X186421952Y-120062619D01*
X187183857Y-119586428D02*
X188231476Y-119586428D01*
X187183857Y-120919761D01*
X188231476Y-120919761D01*
X188802904Y-119586428D02*
X189850523Y-119586428D01*
X188802904Y-120919761D01*
X189850523Y-120919761D01*
X190612428Y-120919761D02*
X190612428Y-119586428D01*
X190612428Y-119776904D02*
X190707666Y-119681666D01*
X190898142Y-119586428D01*
X191183857Y-119586428D01*
X191374333Y-119681666D01*
X191469571Y-119872142D01*
X191469571Y-120919761D01*
X191469571Y-119872142D02*
X191564809Y-119681666D01*
X191755285Y-119586428D01*
X192041000Y-119586428D01*
X192231476Y-119681666D01*
X192326714Y-119872142D01*
X192326714Y-120919761D01*
X194136238Y-120919761D02*
X194136238Y-119872142D01*
X194041000Y-119681666D01*
X193850523Y-119586428D01*
X193469571Y-119586428D01*
X193279095Y-119681666D01*
X194136238Y-120824523D02*
X193945761Y-120919761D01*
X193469571Y-120919761D01*
X193279095Y-120824523D01*
X193183857Y-120634047D01*
X193183857Y-120443571D01*
X193279095Y-120253095D01*
X193469571Y-120157857D01*
X193945761Y-120157857D01*
X194136238Y-120062619D01*
X194802904Y-119586428D02*
X195564809Y-119586428D01*
X195088619Y-118919761D02*
X195088619Y-120634047D01*
X195183857Y-120824523D01*
X195374333Y-120919761D01*
X195564809Y-120919761D01*
X197088619Y-120919761D02*
X197088619Y-119872142D01*
X196993380Y-119681666D01*
X196802904Y-119586428D01*
X196421952Y-119586428D01*
X196231476Y-119681666D01*
X197088619Y-120824523D02*
X196898142Y-120919761D01*
X196421952Y-120919761D01*
X196231476Y-120824523D01*
X196136238Y-120634047D01*
X196136238Y-120443571D01*
X196231476Y-120253095D01*
X196421952Y-120157857D01*
X196898142Y-120157857D01*
X197088619Y-120062619D01*
X197850523Y-119586428D02*
X198898142Y-119586428D01*
X197850523Y-120919761D01*
X198898142Y-120919761D01*
X199469571Y-119586428D02*
X200517190Y-119586428D01*
X199469571Y-120919761D01*
X200517190Y-120919761D01*
X202517190Y-119967380D02*
X202421952Y-119872142D01*
X202231476Y-119776904D01*
X202041000Y-119776904D01*
X201850523Y-119872142D01*
X201755285Y-119967380D01*
X201660047Y-120157857D01*
X201660047Y-120348333D01*
X201755285Y-120538809D01*
X201850523Y-120634047D01*
X202041000Y-120729285D01*
X202231476Y-120729285D01*
X202421952Y-120634047D01*
X202517190Y-120538809D01*
X202517190Y-119776904D02*
X202517190Y-120538809D01*
X202612428Y-120634047D01*
X202707666Y-120634047D01*
X202898142Y-120538809D01*
X202993380Y-120348333D01*
X202993380Y-119872142D01*
X202802904Y-119586428D01*
X202517190Y-119395952D01*
X202136238Y-119300714D01*
X201755285Y-119395952D01*
X201469571Y-119586428D01*
X201279095Y-119872142D01*
X201183857Y-120253095D01*
X201279095Y-120634047D01*
X201469571Y-120919761D01*
X201755285Y-121110238D01*
X202136238Y-121205476D01*
X202517190Y-121110238D01*
X202802904Y-120919761D01*
X204707666Y-119586428D02*
X204707666Y-121205476D01*
X204612428Y-121395952D01*
X204517190Y-121491190D01*
X204326714Y-121586428D01*
X204041000Y-121586428D01*
X203850523Y-121491190D01*
X204707666Y-120824523D02*
X204517190Y-120919761D01*
X204136238Y-120919761D01*
X203945761Y-120824523D01*
X203850523Y-120729285D01*
X203755285Y-120538809D01*
X203755285Y-119967380D01*
X203850523Y-119776904D01*
X203945761Y-119681666D01*
X204136238Y-119586428D01*
X204517190Y-119586428D01*
X204707666Y-119681666D01*
X205660047Y-120919761D02*
X205660047Y-119586428D01*
X205660047Y-119776904D02*
X205755285Y-119681666D01*
X205945761Y-119586428D01*
X206231476Y-119586428D01*
X206421952Y-119681666D01*
X206517190Y-119872142D01*
X206517190Y-120919761D01*
X206517190Y-119872142D02*
X206612428Y-119681666D01*
X206802904Y-119586428D01*
X207088619Y-119586428D01*
X207279095Y-119681666D01*
X207374333Y-119872142D01*
X207374333Y-120919761D01*
X209183857Y-120919761D02*
X209183857Y-119872142D01*
X209088619Y-119681666D01*
X208898142Y-119586428D01*
X208517190Y-119586428D01*
X208326714Y-119681666D01*
X209183857Y-120824523D02*
X208993380Y-120919761D01*
X208517190Y-120919761D01*
X208326714Y-120824523D01*
X208231476Y-120634047D01*
X208231476Y-120443571D01*
X208326714Y-120253095D01*
X208517190Y-120157857D01*
X208993380Y-120157857D01*
X209183857Y-120062619D01*
X210136238Y-120919761D02*
X210136238Y-119586428D01*
X210136238Y-118919761D02*
X210041000Y-119015000D01*
X210136238Y-119110238D01*
X210231476Y-119015000D01*
X210136238Y-118919761D01*
X210136238Y-119110238D01*
X211374333Y-120919761D02*
X211183857Y-120824523D01*
X211088619Y-120634047D01*
X211088619Y-118919761D01*
X212136238Y-120729285D02*
X212231476Y-120824523D01*
X212136238Y-120919761D01*
X212041000Y-120824523D01*
X212136238Y-120729285D01*
X212136238Y-120919761D01*
X213945761Y-120824523D02*
X213755285Y-120919761D01*
X213374333Y-120919761D01*
X213183857Y-120824523D01*
X213088619Y-120729285D01*
X212993380Y-120538809D01*
X212993380Y-119967380D01*
X213088619Y-119776904D01*
X213183857Y-119681666D01*
X213374333Y-119586428D01*
X213755285Y-119586428D01*
X213945761Y-119681666D01*
X215088619Y-120919761D02*
X214898142Y-120824523D01*
X214802904Y-120729285D01*
X214707666Y-120538809D01*
X214707666Y-119967380D01*
X214802904Y-119776904D01*
X214898142Y-119681666D01*
X215088619Y-119586428D01*
X215374333Y-119586428D01*
X215564809Y-119681666D01*
X215660047Y-119776904D01*
X215755285Y-119967380D01*
X215755285Y-120538809D01*
X215660047Y-120729285D01*
X215564809Y-120824523D01*
X215374333Y-120919761D01*
X215088619Y-120919761D01*
X216612428Y-120919761D02*
X216612428Y-119586428D01*
X216612428Y-119776904D02*
X216707666Y-119681666D01*
X216898142Y-119586428D01*
X217183857Y-119586428D01*
X217374333Y-119681666D01*
X217469571Y-119872142D01*
X217469571Y-120919761D01*
X217469571Y-119872142D02*
X217564809Y-119681666D01*
X217755285Y-119586428D01*
X218041000Y-119586428D01*
X218231476Y-119681666D01*
X218326714Y-119872142D01*
X218326714Y-120919761D01*
D12*
X165874857Y-108238857D02*
X165874857Y-107038857D01*
X165874857Y-108181714D02*
X165760571Y-108238857D01*
X165532000Y-108238857D01*
X165417714Y-108181714D01*
X165360571Y-108124571D01*
X165303428Y-108010285D01*
X165303428Y-107667428D01*
X165360571Y-107553142D01*
X165417714Y-107496000D01*
X165532000Y-107438857D01*
X165760571Y-107438857D01*
X165874857Y-107496000D01*
X166960571Y-108238857D02*
X166960571Y-107610285D01*
X166903428Y-107496000D01*
X166789142Y-107438857D01*
X166560571Y-107438857D01*
X166446285Y-107496000D01*
X166960571Y-108181714D02*
X166846285Y-108238857D01*
X166560571Y-108238857D01*
X166446285Y-108181714D01*
X166389142Y-108067428D01*
X166389142Y-107953142D01*
X166446285Y-107838857D01*
X166560571Y-107781714D01*
X166846285Y-107781714D01*
X166960571Y-107724571D01*
X167417714Y-107438857D02*
X168046285Y-107438857D01*
X167417714Y-108238857D01*
X168046285Y-108238857D01*
X168389142Y-107438857D02*
X169017714Y-107438857D01*
X168389142Y-108238857D01*
X169017714Y-108238857D01*
D13*
X205226000Y-97264000D02*
X205726000Y-97264000D01*
X205226000Y-96524000D02*
X205226000Y-97264000D01*
X214026000Y-88664000D02*
X214026000Y-89664000D01*
X212026000Y-88664000D02*
X212026000Y-89664000D01*
X212026000Y-89664000D02*
X214026000Y-89664000D01*
X212026000Y-88664000D02*
X214026000Y-88664000D01*
X211799000Y-93987000D02*
X211752000Y-94033000D01*
X214096000Y-91689000D02*
X214061000Y-91725000D01*
X211992000Y-94203000D02*
X211957000Y-94238000D01*
X214301000Y-91895000D02*
X214254000Y-91941000D01*
X209026000Y-88664000D02*
X209026000Y-89664000D01*
X207026000Y-88664000D02*
X207026000Y-89664000D01*
X207026000Y-89664000D02*
X209026000Y-89664000D01*
X207026000Y-88664000D02*
X209026000Y-88664000D01*
X215586000Y-88604000D02*
X215586000Y-97024000D01*
X205466000Y-88604000D02*
X205466000Y-97024000D01*
X205466000Y-97024000D02*
X215586000Y-97024000D01*
X205466000Y-88604000D02*
X215586000Y-88604000D01*
X205466000Y-90663000D02*
X215586000Y-90663000D01*
X205466000Y-94964000D02*
X215586000Y-94964000D01*
X205466000Y-96464000D02*
X215586000Y-96464000D01*
X214706000Y-92964000D02*
G75*
G03X214706000Y-92964000I-1680000J0D01*
G01*
X208054805Y-94644253D02*
G75*
G02X207342000Y-94499000I-28805J1680253D01*
G01*
X206490574Y-93647042D02*
G75*
G02X206491000Y-92280000I1535426J683042D01*
G01*
X207342958Y-91428574D02*
G75*
G02X208710000Y-91429000I683042J-1535426D01*
G01*
X209561426Y-92280958D02*
G75*
G02X209561000Y-93648000I-1535426J-683042D01*
G01*
X208709318Y-94498756D02*
G75*
G02X208026000Y-94644000I-683318J1534756D01*
G01*
X92695000Y-102870000D02*
X91925000Y-102870000D01*
X84615000Y-102870000D02*
X85385000Y-102870000D01*
X91925000Y-101500000D02*
X85385000Y-101500000D01*
X91925000Y-104240000D02*
X91925000Y-101500000D01*
X85385000Y-104240000D02*
X91925000Y-104240000D01*
X85385000Y-101500000D02*
X85385000Y-104240000D01*
X107038000Y-96620000D02*
X107038000Y-93880000D01*
X107038000Y-93880000D02*
X100498000Y-93880000D01*
X100498000Y-93880000D02*
X100498000Y-96620000D01*
X100498000Y-96620000D02*
X107038000Y-96620000D01*
X107808000Y-95250000D02*
X107038000Y-95250000D01*
X99728000Y-95250000D02*
X100498000Y-95250000D01*
X100489000Y-101500000D02*
X100489000Y-104240000D01*
X100489000Y-104240000D02*
X107029000Y-104240000D01*
X107029000Y-104240000D02*
X107029000Y-101500000D01*
X107029000Y-101500000D02*
X100489000Y-101500000D01*
X99719000Y-102870000D02*
X100489000Y-102870000D01*
X107799000Y-102870000D02*
X107029000Y-102870000D01*
X187860000Y-101060000D02*
X190600000Y-101060000D01*
X190600000Y-101060000D02*
X190600000Y-94520000D01*
X190600000Y-94520000D02*
X187860000Y-94520000D01*
X187860000Y-94520000D02*
X187860000Y-101060000D01*
X189230000Y-101830000D02*
X189230000Y-101060000D01*
X189230000Y-93750000D02*
X189230000Y-94520000D01*
X210020000Y-122404000D02*
X210020000Y-130144000D01*
X193780000Y-122404000D02*
X193780000Y-130144000D01*
X210020000Y-122404000D02*
X193780000Y-122404000D01*
X210020000Y-130144000D02*
X193780000Y-130144000D01*
X205520000Y-130144000D02*
X205520000Y-135144000D01*
X198280000Y-130144000D02*
X198280000Y-135144000D01*
X205520000Y-130144000D02*
X198280000Y-130144000D01*
X205520000Y-135144000D02*
X198280000Y-135144000D01*
X204020000Y-135144000D02*
X204020000Y-145144000D01*
X199780000Y-135144000D02*
X199780000Y-145144000D01*
X204020000Y-135144000D02*
X199780000Y-135144000D01*
X204020000Y-145144000D02*
X199780000Y-145144000D01*
X126020000Y-122380000D02*
X126020000Y-130120000D01*
X109780000Y-122380000D02*
X109780000Y-130120000D01*
X126020000Y-122380000D02*
X109780000Y-122380000D01*
X126020000Y-130120000D02*
X109780000Y-130120000D01*
X121520000Y-130120000D02*
X121520000Y-135120000D01*
X114280000Y-130120000D02*
X114280000Y-135120000D01*
X121520000Y-130120000D02*
X114280000Y-130120000D01*
X121520000Y-135120000D02*
X114280000Y-135120000D01*
X120020000Y-135120000D02*
X120020000Y-145120000D01*
X115780000Y-135120000D02*
X115780000Y-145120000D01*
X120020000Y-135120000D02*
X115780000Y-135120000D01*
X120020000Y-145120000D02*
X115780000Y-145120000D01*
X260020000Y-145144000D02*
X255780000Y-145144000D01*
X260020000Y-135144000D02*
X255780000Y-135144000D01*
X255780000Y-135144000D02*
X255780000Y-145144000D01*
X260020000Y-135144000D02*
X260020000Y-145144000D01*
X261520000Y-135144000D02*
X254280000Y-135144000D01*
X261520000Y-130144000D02*
X254280000Y-130144000D01*
X254280000Y-130144000D02*
X254280000Y-135144000D01*
X261520000Y-130144000D02*
X261520000Y-135144000D01*
X266020000Y-130144000D02*
X249780000Y-130144000D01*
X266020000Y-122404000D02*
X249780000Y-122404000D01*
X249780000Y-122404000D02*
X249780000Y-130144000D01*
X266020000Y-122404000D02*
X266020000Y-130144000D01*
X182030000Y-122380000D02*
X182030000Y-130120000D01*
X165790000Y-122380000D02*
X165790000Y-130120000D01*
X182030000Y-122380000D02*
X165790000Y-122380000D01*
X182030000Y-130120000D02*
X165790000Y-130120000D01*
X177530000Y-130120000D02*
X177530000Y-135120000D01*
X170290000Y-130120000D02*
X170290000Y-135120000D01*
X177530000Y-130120000D02*
X170290000Y-130120000D01*
X177530000Y-135120000D02*
X170290000Y-135120000D01*
X176030000Y-135120000D02*
X176030000Y-145120000D01*
X171790000Y-135120000D02*
X171790000Y-145120000D01*
X176030000Y-135120000D02*
X171790000Y-135120000D01*
X176030000Y-145120000D02*
X171790000Y-145120000D01*
X148020000Y-145120000D02*
X143780000Y-145120000D01*
X148020000Y-135120000D02*
X143780000Y-135120000D01*
X143780000Y-135120000D02*
X143780000Y-145120000D01*
X148020000Y-135120000D02*
X148020000Y-145120000D01*
X149520000Y-135120000D02*
X142280000Y-135120000D01*
X149520000Y-130120000D02*
X142280000Y-130120000D01*
X142280000Y-130120000D02*
X142280000Y-135120000D01*
X149520000Y-130120000D02*
X149520000Y-135120000D01*
X154020000Y-130120000D02*
X137780000Y-130120000D01*
X154020000Y-122380000D02*
X137780000Y-122380000D01*
X137780000Y-122380000D02*
X137780000Y-130120000D01*
X154020000Y-122380000D02*
X154020000Y-130120000D01*
X77900000Y-110500000D02*
X97900000Y-110500000D01*
X97900000Y-110500000D02*
X97900000Y-131500000D01*
X97900000Y-131500000D02*
X77900000Y-131500000D01*
X77900000Y-131500000D02*
X77900000Y-110500000D01*
X77900000Y-131500000D02*
X77900000Y-132800000D01*
X77900000Y-132800000D02*
X97900000Y-132800000D01*
X97900000Y-132800000D02*
X97900000Y-131500000D01*
X82900000Y-131500000D02*
X82900000Y-132800000D01*
X92900000Y-132800000D02*
X92900000Y-131500000D01*
X87900000Y-130400000D02*
X87900000Y-132800000D01*
X87900000Y-130400000D02*
X87900000Y-106800000D01*
X92400000Y-110500000D02*
X92400000Y-107500000D01*
X83400000Y-110500000D02*
X83400000Y-107500000D01*
X83400000Y-107500002D02*
G75*
G02X92399999Y-107500001I4500000J-13399998D01*
G01*
X200740000Y-103000000D02*
X195500000Y-103000000D01*
X200740000Y-92460000D02*
X195500000Y-92460000D01*
X195500000Y-92460000D02*
X195500000Y-103000000D01*
X200740000Y-92460000D02*
X200740000Y-103000000D01*
X176610000Y-118240000D02*
X171370000Y-118240000D01*
X176610000Y-107700000D02*
X171370000Y-107700000D01*
X171370000Y-107700000D02*
X171370000Y-118240000D01*
X176610000Y-107700000D02*
X176610000Y-118240000D01*
X84715000Y-97870000D02*
X84715000Y-92630000D01*
X95255000Y-97870000D02*
X95255000Y-92630000D01*
X95255000Y-92630000D02*
X84715000Y-92630000D01*
X95255000Y-97870000D02*
X84715000Y-97870000D01*
X165410000Y-100429000D02*
G75*
G03X165410000Y-100429000I-4120000J0D01*
G01*
X165370000Y-100429000D02*
X157210000Y-100429000D01*
X165370000Y-100469000D02*
X157210000Y-100469000D01*
X165370000Y-100509000D02*
X157210000Y-100509000D01*
X165369000Y-100549000D02*
X157211000Y-100549000D01*
X165367000Y-100589000D02*
X157213000Y-100589000D01*
X165366000Y-100629000D02*
X157214000Y-100629000D01*
X165364000Y-100669000D02*
X157216000Y-100669000D01*
X165361000Y-100709000D02*
X157219000Y-100709000D01*
X165358000Y-100749000D02*
X157222000Y-100749000D01*
X165355000Y-100789000D02*
X157225000Y-100789000D01*
X165351000Y-100829000D02*
X157229000Y-100829000D01*
X165347000Y-100869000D02*
X157233000Y-100869000D01*
X165342000Y-100909000D02*
X157238000Y-100909000D01*
X165338000Y-100949000D02*
X157242000Y-100949000D01*
X165332000Y-100989000D02*
X157248000Y-100989000D01*
X165327000Y-101029000D02*
X157253000Y-101029000D01*
X165320000Y-101069000D02*
X157260000Y-101069000D01*
X165314000Y-101109000D02*
X157266000Y-101109000D01*
X165307000Y-101150000D02*
X162330000Y-101150000D01*
X160250000Y-101150000D02*
X157273000Y-101150000D01*
X165300000Y-101190000D02*
X162330000Y-101190000D01*
X160250000Y-101190000D02*
X157280000Y-101190000D01*
X165292000Y-101230000D02*
X162330000Y-101230000D01*
X160250000Y-101230000D02*
X157288000Y-101230000D01*
X165284000Y-101270000D02*
X162330000Y-101270000D01*
X160250000Y-101270000D02*
X157296000Y-101270000D01*
X165275000Y-101310000D02*
X162330000Y-101310000D01*
X160250000Y-101310000D02*
X157305000Y-101310000D01*
X165266000Y-101350000D02*
X162330000Y-101350000D01*
X160250000Y-101350000D02*
X157314000Y-101350000D01*
X165257000Y-101390000D02*
X162330000Y-101390000D01*
X160250000Y-101390000D02*
X157323000Y-101390000D01*
X165247000Y-101430000D02*
X162330000Y-101430000D01*
X160250000Y-101430000D02*
X157333000Y-101430000D01*
X165237000Y-101470000D02*
X162330000Y-101470000D01*
X160250000Y-101470000D02*
X157343000Y-101470000D01*
X165226000Y-101510000D02*
X162330000Y-101510000D01*
X160250000Y-101510000D02*
X157354000Y-101510000D01*
X165215000Y-101550000D02*
X162330000Y-101550000D01*
X160250000Y-101550000D02*
X157365000Y-101550000D01*
X165204000Y-101590000D02*
X162330000Y-101590000D01*
X160250000Y-101590000D02*
X157376000Y-101590000D01*
X165192000Y-101630000D02*
X162330000Y-101630000D01*
X160250000Y-101630000D02*
X157388000Y-101630000D01*
X165179000Y-101670000D02*
X162330000Y-101670000D01*
X160250000Y-101670000D02*
X157401000Y-101670000D01*
X165167000Y-101710000D02*
X162330000Y-101710000D01*
X160250000Y-101710000D02*
X157413000Y-101710000D01*
X165153000Y-101750000D02*
X162330000Y-101750000D01*
X160250000Y-101750000D02*
X157427000Y-101750000D01*
X165140000Y-101790000D02*
X162330000Y-101790000D01*
X160250000Y-101790000D02*
X157440000Y-101790000D01*
X165125000Y-101830000D02*
X162330000Y-101830000D01*
X160250000Y-101830000D02*
X157455000Y-101830000D01*
X165111000Y-101870000D02*
X162330000Y-101870000D01*
X160250000Y-101870000D02*
X157469000Y-101870000D01*
X165095000Y-101910000D02*
X162330000Y-101910000D01*
X160250000Y-101910000D02*
X157485000Y-101910000D01*
X165080000Y-101950000D02*
X162330000Y-101950000D01*
X160250000Y-101950000D02*
X157500000Y-101950000D01*
X165064000Y-101990000D02*
X162330000Y-101990000D01*
X160250000Y-101990000D02*
X157516000Y-101990000D01*
X165047000Y-102030000D02*
X162330000Y-102030000D01*
X160250000Y-102030000D02*
X157533000Y-102030000D01*
X165030000Y-102070000D02*
X162330000Y-102070000D01*
X160250000Y-102070000D02*
X157550000Y-102070000D01*
X165012000Y-102110000D02*
X162330000Y-102110000D01*
X160250000Y-102110000D02*
X157568000Y-102110000D01*
X164994000Y-102150000D02*
X162330000Y-102150000D01*
X160250000Y-102150000D02*
X157586000Y-102150000D01*
X164976000Y-102190000D02*
X162330000Y-102190000D01*
X160250000Y-102190000D02*
X157604000Y-102190000D01*
X164956000Y-102230000D02*
X162330000Y-102230000D01*
X160250000Y-102230000D02*
X157624000Y-102230000D01*
X164937000Y-102270000D02*
X162330000Y-102270000D01*
X160250000Y-102270000D02*
X157643000Y-102270000D01*
X164917000Y-102310000D02*
X162330000Y-102310000D01*
X160250000Y-102310000D02*
X157663000Y-102310000D01*
X164896000Y-102350000D02*
X162330000Y-102350000D01*
X160250000Y-102350000D02*
X157684000Y-102350000D01*
X164874000Y-102390000D02*
X162330000Y-102390000D01*
X160250000Y-102390000D02*
X157706000Y-102390000D01*
X164852000Y-102430000D02*
X162330000Y-102430000D01*
X160250000Y-102430000D02*
X157728000Y-102430000D01*
X164830000Y-102470000D02*
X162330000Y-102470000D01*
X160250000Y-102470000D02*
X157750000Y-102470000D01*
X164807000Y-102510000D02*
X162330000Y-102510000D01*
X160250000Y-102510000D02*
X157773000Y-102510000D01*
X164783000Y-102550000D02*
X162330000Y-102550000D01*
X160250000Y-102550000D02*
X157797000Y-102550000D01*
X164759000Y-102590000D02*
X162330000Y-102590000D01*
X160250000Y-102590000D02*
X157821000Y-102590000D01*
X164734000Y-102630000D02*
X162330000Y-102630000D01*
X160250000Y-102630000D02*
X157846000Y-102630000D01*
X164708000Y-102670000D02*
X162330000Y-102670000D01*
X160250000Y-102670000D02*
X157872000Y-102670000D01*
X164682000Y-102710000D02*
X162330000Y-102710000D01*
X160250000Y-102710000D02*
X157898000Y-102710000D01*
X164655000Y-102750000D02*
X162330000Y-102750000D01*
X160250000Y-102750000D02*
X157925000Y-102750000D01*
X164628000Y-102790000D02*
X162330000Y-102790000D01*
X160250000Y-102790000D02*
X157952000Y-102790000D01*
X164599000Y-102830000D02*
X162330000Y-102830000D01*
X160250000Y-102830000D02*
X157981000Y-102830000D01*
X164570000Y-102870000D02*
X162330000Y-102870000D01*
X160250000Y-102870000D02*
X158010000Y-102870000D01*
X164540000Y-102910000D02*
X162330000Y-102910000D01*
X160250000Y-102910000D02*
X158040000Y-102910000D01*
X164510000Y-102950000D02*
X162330000Y-102950000D01*
X160250000Y-102950000D02*
X158070000Y-102950000D01*
X164479000Y-102990000D02*
X162330000Y-102990000D01*
X160250000Y-102990000D02*
X158101000Y-102990000D01*
X164446000Y-103030000D02*
X162330000Y-103030000D01*
X160250000Y-103030000D02*
X158134000Y-103030000D01*
X164414000Y-103070000D02*
X162330000Y-103070000D01*
X160250000Y-103070000D02*
X158166000Y-103070000D01*
X164380000Y-103110000D02*
X162330000Y-103110000D01*
X160250000Y-103110000D02*
X158200000Y-103110000D01*
X164345000Y-103150000D02*
X162330000Y-103150000D01*
X160250000Y-103150000D02*
X158235000Y-103150000D01*
X164309000Y-103190000D02*
X162330000Y-103190000D01*
X160250000Y-103190000D02*
X158271000Y-103190000D01*
X164273000Y-103230000D02*
X158307000Y-103230000D01*
X164235000Y-103270000D02*
X158345000Y-103270000D01*
X164197000Y-103310000D02*
X158383000Y-103310000D01*
X164157000Y-103350000D02*
X158423000Y-103350000D01*
X164116000Y-103390000D02*
X158464000Y-103390000D01*
X164074000Y-103430000D02*
X158506000Y-103430000D01*
X164031000Y-103470000D02*
X158549000Y-103470000D01*
X163987000Y-103510000D02*
X158593000Y-103510000D01*
X163941000Y-103550000D02*
X158639000Y-103550000D01*
X163894000Y-103590000D02*
X158686000Y-103590000D01*
X163846000Y-103630000D02*
X158734000Y-103630000D01*
X163795000Y-103670000D02*
X158785000Y-103670000D01*
X163744000Y-103710000D02*
X158836000Y-103710000D01*
X163690000Y-103750000D02*
X158890000Y-103750000D01*
X163635000Y-103790000D02*
X158945000Y-103790000D01*
X163577000Y-103830000D02*
X159003000Y-103830000D01*
X163518000Y-103870000D02*
X159062000Y-103870000D01*
X163456000Y-103910000D02*
X159124000Y-103910000D01*
X163392000Y-103950000D02*
X159188000Y-103950000D01*
X163324000Y-103990000D02*
X159256000Y-103990000D01*
X163254000Y-104030000D02*
X159326000Y-104030000D01*
X163180000Y-104070000D02*
X159400000Y-104070000D01*
X163103000Y-104110000D02*
X159477000Y-104110000D01*
X163021000Y-104150000D02*
X159559000Y-104150000D01*
X162935000Y-104190000D02*
X159645000Y-104190000D01*
X162842000Y-104230000D02*
X159738000Y-104230000D01*
X162743000Y-104270000D02*
X159837000Y-104270000D01*
X162636000Y-104310000D02*
X159944000Y-104310000D01*
X162519000Y-104350000D02*
X160061000Y-104350000D01*
X162388000Y-104390000D02*
X160192000Y-104390000D01*
X162238000Y-104430000D02*
X160342000Y-104430000D01*
X162058000Y-104470000D02*
X160522000Y-104470000D01*
X161823000Y-104510000D02*
X160757000Y-104510000D01*
X163605000Y-96019302D02*
X163605000Y-96819302D01*
X164005000Y-96419302D02*
X163205000Y-96419302D01*
X106430000Y-114220000D02*
X116970000Y-114220000D01*
X106430000Y-119460000D02*
X116970000Y-119460000D01*
X106430000Y-114220000D02*
X106430000Y-119460000D01*
X116970000Y-114220000D02*
X116970000Y-119460000D01*
X150170000Y-113510000D02*
G75*
G03X150170000Y-113510000I-4120000J0D01*
G01*
X150130000Y-113510000D02*
X141970000Y-113510000D01*
X150130000Y-113550000D02*
X141970000Y-113550000D01*
X150130000Y-113590000D02*
X141970000Y-113590000D01*
X150129000Y-113630000D02*
X141971000Y-113630000D01*
X150127000Y-113670000D02*
X141973000Y-113670000D01*
X150126000Y-113710000D02*
X141974000Y-113710000D01*
X150124000Y-113750000D02*
X141976000Y-113750000D01*
X150121000Y-113790000D02*
X141979000Y-113790000D01*
X150118000Y-113830000D02*
X141982000Y-113830000D01*
X150115000Y-113870000D02*
X141985000Y-113870000D01*
X150111000Y-113910000D02*
X141989000Y-113910000D01*
X150107000Y-113950000D02*
X141993000Y-113950000D01*
X150102000Y-113990000D02*
X141998000Y-113990000D01*
X150098000Y-114030000D02*
X142002000Y-114030000D01*
X150092000Y-114070000D02*
X142008000Y-114070000D01*
X150087000Y-114110000D02*
X142013000Y-114110000D01*
X150080000Y-114150000D02*
X142020000Y-114150000D01*
X150074000Y-114190000D02*
X142026000Y-114190000D01*
X150067000Y-114231000D02*
X147090000Y-114231000D01*
X145010000Y-114231000D02*
X142033000Y-114231000D01*
X150060000Y-114271000D02*
X147090000Y-114271000D01*
X145010000Y-114271000D02*
X142040000Y-114271000D01*
X150052000Y-114311000D02*
X147090000Y-114311000D01*
X145010000Y-114311000D02*
X142048000Y-114311000D01*
X150044000Y-114351000D02*
X147090000Y-114351000D01*
X145010000Y-114351000D02*
X142056000Y-114351000D01*
X150035000Y-114391000D02*
X147090000Y-114391000D01*
X145010000Y-114391000D02*
X142065000Y-114391000D01*
X150026000Y-114431000D02*
X147090000Y-114431000D01*
X145010000Y-114431000D02*
X142074000Y-114431000D01*
X150017000Y-114471000D02*
X147090000Y-114471000D01*
X145010000Y-114471000D02*
X142083000Y-114471000D01*
X150007000Y-114511000D02*
X147090000Y-114511000D01*
X145010000Y-114511000D02*
X142093000Y-114511000D01*
X149997000Y-114551000D02*
X147090000Y-114551000D01*
X145010000Y-114551000D02*
X142103000Y-114551000D01*
X149986000Y-114591000D02*
X147090000Y-114591000D01*
X145010000Y-114591000D02*
X142114000Y-114591000D01*
X149975000Y-114631000D02*
X147090000Y-114631000D01*
X145010000Y-114631000D02*
X142125000Y-114631000D01*
X149964000Y-114671000D02*
X147090000Y-114671000D01*
X145010000Y-114671000D02*
X142136000Y-114671000D01*
X149952000Y-114711000D02*
X147090000Y-114711000D01*
X145010000Y-114711000D02*
X142148000Y-114711000D01*
X149939000Y-114751000D02*
X147090000Y-114751000D01*
X145010000Y-114751000D02*
X142161000Y-114751000D01*
X149927000Y-114791000D02*
X147090000Y-114791000D01*
X145010000Y-114791000D02*
X142173000Y-114791000D01*
X149913000Y-114831000D02*
X147090000Y-114831000D01*
X145010000Y-114831000D02*
X142187000Y-114831000D01*
X149900000Y-114871000D02*
X147090000Y-114871000D01*
X145010000Y-114871000D02*
X142200000Y-114871000D01*
X149885000Y-114911000D02*
X147090000Y-114911000D01*
X145010000Y-114911000D02*
X142215000Y-114911000D01*
X149871000Y-114951000D02*
X147090000Y-114951000D01*
X145010000Y-114951000D02*
X142229000Y-114951000D01*
X149855000Y-114991000D02*
X147090000Y-114991000D01*
X145010000Y-114991000D02*
X142245000Y-114991000D01*
X149840000Y-115031000D02*
X147090000Y-115031000D01*
X145010000Y-115031000D02*
X142260000Y-115031000D01*
X149824000Y-115071000D02*
X147090000Y-115071000D01*
X145010000Y-115071000D02*
X142276000Y-115071000D01*
X149807000Y-115111000D02*
X147090000Y-115111000D01*
X145010000Y-115111000D02*
X142293000Y-115111000D01*
X149790000Y-115151000D02*
X147090000Y-115151000D01*
X145010000Y-115151000D02*
X142310000Y-115151000D01*
X149772000Y-115191000D02*
X147090000Y-115191000D01*
X145010000Y-115191000D02*
X142328000Y-115191000D01*
X149754000Y-115231000D02*
X147090000Y-115231000D01*
X145010000Y-115231000D02*
X142346000Y-115231000D01*
X149736000Y-115271000D02*
X147090000Y-115271000D01*
X145010000Y-115271000D02*
X142364000Y-115271000D01*
X149716000Y-115311000D02*
X147090000Y-115311000D01*
X145010000Y-115311000D02*
X142384000Y-115311000D01*
X149697000Y-115351000D02*
X147090000Y-115351000D01*
X145010000Y-115351000D02*
X142403000Y-115351000D01*
X149677000Y-115391000D02*
X147090000Y-115391000D01*
X145010000Y-115391000D02*
X142423000Y-115391000D01*
X149656000Y-115431000D02*
X147090000Y-115431000D01*
X145010000Y-115431000D02*
X142444000Y-115431000D01*
X149634000Y-115471000D02*
X147090000Y-115471000D01*
X145010000Y-115471000D02*
X142466000Y-115471000D01*
X149612000Y-115511000D02*
X147090000Y-115511000D01*
X145010000Y-115511000D02*
X142488000Y-115511000D01*
X149590000Y-115551000D02*
X147090000Y-115551000D01*
X145010000Y-115551000D02*
X142510000Y-115551000D01*
X149567000Y-115591000D02*
X147090000Y-115591000D01*
X145010000Y-115591000D02*
X142533000Y-115591000D01*
X149543000Y-115631000D02*
X147090000Y-115631000D01*
X145010000Y-115631000D02*
X142557000Y-115631000D01*
X149519000Y-115671000D02*
X147090000Y-115671000D01*
X145010000Y-115671000D02*
X142581000Y-115671000D01*
X149494000Y-115711000D02*
X147090000Y-115711000D01*
X145010000Y-115711000D02*
X142606000Y-115711000D01*
X149468000Y-115751000D02*
X147090000Y-115751000D01*
X145010000Y-115751000D02*
X142632000Y-115751000D01*
X149442000Y-115791000D02*
X147090000Y-115791000D01*
X145010000Y-115791000D02*
X142658000Y-115791000D01*
X149415000Y-115831000D02*
X147090000Y-115831000D01*
X145010000Y-115831000D02*
X142685000Y-115831000D01*
X149388000Y-115871000D02*
X147090000Y-115871000D01*
X145010000Y-115871000D02*
X142712000Y-115871000D01*
X149359000Y-115911000D02*
X147090000Y-115911000D01*
X145010000Y-115911000D02*
X142741000Y-115911000D01*
X149330000Y-115951000D02*
X147090000Y-115951000D01*
X145010000Y-115951000D02*
X142770000Y-115951000D01*
X149300000Y-115991000D02*
X147090000Y-115991000D01*
X145010000Y-115991000D02*
X142800000Y-115991000D01*
X149270000Y-116031000D02*
X147090000Y-116031000D01*
X145010000Y-116031000D02*
X142830000Y-116031000D01*
X149239000Y-116071000D02*
X147090000Y-116071000D01*
X145010000Y-116071000D02*
X142861000Y-116071000D01*
X149206000Y-116111000D02*
X147090000Y-116111000D01*
X145010000Y-116111000D02*
X142894000Y-116111000D01*
X149174000Y-116151000D02*
X147090000Y-116151000D01*
X145010000Y-116151000D02*
X142926000Y-116151000D01*
X149140000Y-116191000D02*
X147090000Y-116191000D01*
X145010000Y-116191000D02*
X142960000Y-116191000D01*
X149105000Y-116231000D02*
X147090000Y-116231000D01*
X145010000Y-116231000D02*
X142995000Y-116231000D01*
X149069000Y-116271000D02*
X147090000Y-116271000D01*
X145010000Y-116271000D02*
X143031000Y-116271000D01*
X149033000Y-116311000D02*
X143067000Y-116311000D01*
X148995000Y-116351000D02*
X143105000Y-116351000D01*
X148957000Y-116391000D02*
X143143000Y-116391000D01*
X148917000Y-116431000D02*
X143183000Y-116431000D01*
X148876000Y-116471000D02*
X143224000Y-116471000D01*
X148834000Y-116511000D02*
X143266000Y-116511000D01*
X148791000Y-116551000D02*
X143309000Y-116551000D01*
X148747000Y-116591000D02*
X143353000Y-116591000D01*
X148701000Y-116631000D02*
X143399000Y-116631000D01*
X148654000Y-116671000D02*
X143446000Y-116671000D01*
X148606000Y-116711000D02*
X143494000Y-116711000D01*
X148555000Y-116751000D02*
X143545000Y-116751000D01*
X148504000Y-116791000D02*
X143596000Y-116791000D01*
X148450000Y-116831000D02*
X143650000Y-116831000D01*
X148395000Y-116871000D02*
X143705000Y-116871000D01*
X148337000Y-116911000D02*
X143763000Y-116911000D01*
X148278000Y-116951000D02*
X143822000Y-116951000D01*
X148216000Y-116991000D02*
X143884000Y-116991000D01*
X148152000Y-117031000D02*
X143948000Y-117031000D01*
X148084000Y-117071000D02*
X144016000Y-117071000D01*
X148014000Y-117111000D02*
X144086000Y-117111000D01*
X147940000Y-117151000D02*
X144160000Y-117151000D01*
X147863000Y-117191000D02*
X144237000Y-117191000D01*
X147781000Y-117231000D02*
X144319000Y-117231000D01*
X147695000Y-117271000D02*
X144405000Y-117271000D01*
X147602000Y-117311000D02*
X144498000Y-117311000D01*
X147503000Y-117351000D02*
X144597000Y-117351000D01*
X147396000Y-117391000D02*
X144704000Y-117391000D01*
X147279000Y-117431000D02*
X144821000Y-117431000D01*
X147148000Y-117471000D02*
X144952000Y-117471000D01*
X146998000Y-117511000D02*
X145102000Y-117511000D01*
X146818000Y-117551000D02*
X145282000Y-117551000D01*
X146583000Y-117591000D02*
X145517000Y-117591000D01*
X148365000Y-109100302D02*
X148365000Y-109900302D01*
X148765000Y-109500302D02*
X147965000Y-109500302D01*
X153455000Y-96480000D02*
X153770000Y-96480000D01*
X151030000Y-96480000D02*
X151345000Y-96480000D01*
X153455000Y-101720000D02*
X153770000Y-101720000D01*
X151030000Y-101720000D02*
X151345000Y-101720000D01*
X153770000Y-101720000D02*
X153770000Y-96480000D01*
X151030000Y-101720000D02*
X151030000Y-96480000D01*
X163730000Y-115690000D02*
X163730000Y-110450000D01*
X166470000Y-115690000D02*
X166470000Y-110450000D01*
X163730000Y-115690000D02*
X164045000Y-115690000D01*
X166155000Y-115690000D02*
X166470000Y-115690000D01*
X163730000Y-110450000D02*
X164045000Y-110450000D01*
X166155000Y-110450000D02*
X166470000Y-110450000D01*
X238020000Y-122404000D02*
X238020000Y-130144000D01*
X221780000Y-122404000D02*
X221780000Y-130144000D01*
X238020000Y-122404000D02*
X221780000Y-122404000D01*
X238020000Y-130144000D02*
X221780000Y-130144000D01*
X233520000Y-130144000D02*
X233520000Y-135144000D01*
X226280000Y-130144000D02*
X226280000Y-135144000D01*
X233520000Y-130144000D02*
X226280000Y-130144000D01*
X233520000Y-135144000D02*
X226280000Y-135144000D01*
X232020000Y-135144000D02*
X232020000Y-145144000D01*
X227780000Y-135144000D02*
X227780000Y-145144000D01*
X232020000Y-135144000D02*
X227780000Y-135144000D01*
X232020000Y-145144000D02*
X227780000Y-145144000D01*
X123036000Y-95790000D02*
X120296000Y-95790000D01*
X120296000Y-95790000D02*
X120296000Y-102330000D01*
X120296000Y-102330000D02*
X123036000Y-102330000D01*
X123036000Y-102330000D02*
X123036000Y-95790000D01*
X121666000Y-95020000D02*
X121666000Y-95790000D01*
X121666000Y-103100000D02*
X121666000Y-102330000D01*
X107720000Y-109220000D02*
X108490000Y-109220000D01*
X115800000Y-109220000D02*
X115030000Y-109220000D01*
X108490000Y-110590000D02*
X115030000Y-110590000D01*
X108490000Y-107850000D02*
X108490000Y-110590000D01*
X115030000Y-107850000D02*
X108490000Y-107850000D01*
X115030000Y-110590000D02*
X115030000Y-107850000D01*
X137260000Y-111030000D02*
X134520000Y-111030000D01*
X134520000Y-111030000D02*
X134520000Y-117570000D01*
X134520000Y-117570000D02*
X137260000Y-117570000D01*
X137260000Y-117570000D02*
X137260000Y-111030000D01*
X135890000Y-110260000D02*
X135890000Y-111030000D01*
X135890000Y-118340000D02*
X135890000Y-117570000D01*
X125630000Y-117570000D02*
X128370000Y-117570000D01*
X128370000Y-117570000D02*
X128370000Y-111030000D01*
X128370000Y-111030000D02*
X125630000Y-111030000D01*
X125630000Y-111030000D02*
X125630000Y-117570000D01*
X127000000Y-118340000D02*
X127000000Y-117570000D01*
X127000000Y-110260000D02*
X127000000Y-111030000D01*
X156210000Y-117070000D02*
X156210000Y-116300000D01*
X156210000Y-108990000D02*
X156210000Y-109760000D01*
X157580000Y-116300000D02*
X157580000Y-109760000D01*
X154840000Y-116300000D02*
X157580000Y-116300000D01*
X154840000Y-109760000D02*
X154840000Y-116300000D01*
X157580000Y-109760000D02*
X154840000Y-109760000D01*
X181610000Y-93750000D02*
X181610000Y-94520000D01*
X181610000Y-101830000D02*
X181610000Y-101060000D01*
X180240000Y-94520000D02*
X180240000Y-101060000D01*
X182980000Y-94520000D02*
X180240000Y-94520000D01*
X182980000Y-101060000D02*
X182980000Y-94520000D01*
X180240000Y-101060000D02*
X182980000Y-101060000D01*
X183920000Y-116332000D02*
X184690000Y-116332000D01*
X192000000Y-116332000D02*
X191230000Y-116332000D01*
X184690000Y-117702000D02*
X191230000Y-117702000D01*
X184690000Y-114962000D02*
X184690000Y-117702000D01*
X191230000Y-114962000D02*
X184690000Y-114962000D01*
X191230000Y-117702000D02*
X191230000Y-114962000D01*
X240792000Y-118340000D02*
X240792000Y-117570000D01*
X240792000Y-110260000D02*
X240792000Y-111030000D01*
X242162000Y-117570000D02*
X242162000Y-111030000D01*
X239422000Y-117570000D02*
X242162000Y-117570000D01*
X239422000Y-111030000D02*
X239422000Y-117570000D01*
X242162000Y-111030000D02*
X239422000Y-111030000D01*
X141970000Y-93920000D02*
G75*
G02X139970000Y-93920000I-1000000J0D01*
G01*
X139970000Y-93920000D02*
X138320000Y-93920000D01*
X138320000Y-93920000D02*
X138320000Y-104200000D01*
X138320000Y-104200000D02*
X143620000Y-104200000D01*
X143620000Y-104200000D02*
X143620000Y-93920000D01*
X143620000Y-93920000D02*
X141970000Y-93920000D01*
X135830000Y-93860000D02*
X135830000Y-104260000D01*
X135830000Y-104260000D02*
X146110000Y-104260000D01*
X146110000Y-104260000D02*
X146110000Y-93860000D01*
X146110000Y-93860000D02*
X135830000Y-93860000D01*
X245138000Y-102235000D02*
G75*
G03X245138000Y-102235000I-4120000J0D01*
G01*
X241018000Y-98155000D02*
X241018000Y-106315000D01*
X241058000Y-98155000D02*
X241058000Y-106315000D01*
X241098000Y-98155000D02*
X241098000Y-106315000D01*
X241138000Y-98156000D02*
X241138000Y-106314000D01*
X241178000Y-98158000D02*
X241178000Y-106312000D01*
X241218000Y-98159000D02*
X241218000Y-106311000D01*
X241258000Y-98161000D02*
X241258000Y-106309000D01*
X241298000Y-98164000D02*
X241298000Y-106306000D01*
X241338000Y-98167000D02*
X241338000Y-106303000D01*
X241378000Y-98170000D02*
X241378000Y-106300000D01*
X241418000Y-98174000D02*
X241418000Y-106296000D01*
X241458000Y-98178000D02*
X241458000Y-106292000D01*
X241498000Y-98183000D02*
X241498000Y-106287000D01*
X241538000Y-98187000D02*
X241538000Y-106283000D01*
X241578000Y-98193000D02*
X241578000Y-106277000D01*
X241618000Y-98198000D02*
X241618000Y-106272000D01*
X241658000Y-98205000D02*
X241658000Y-106265000D01*
X241698000Y-98211000D02*
X241698000Y-106259000D01*
X241739000Y-98218000D02*
X241739000Y-101195000D01*
X241739000Y-103275000D02*
X241739000Y-106252000D01*
X241779000Y-98225000D02*
X241779000Y-101195000D01*
X241779000Y-103275000D02*
X241779000Y-106245000D01*
X241819000Y-98233000D02*
X241819000Y-101195000D01*
X241819000Y-103275000D02*
X241819000Y-106237000D01*
X241859000Y-98241000D02*
X241859000Y-101195000D01*
X241859000Y-103275000D02*
X241859000Y-106229000D01*
X241899000Y-98250000D02*
X241899000Y-101195000D01*
X241899000Y-103275000D02*
X241899000Y-106220000D01*
X241939000Y-98259000D02*
X241939000Y-101195000D01*
X241939000Y-103275000D02*
X241939000Y-106211000D01*
X241979000Y-98268000D02*
X241979000Y-101195000D01*
X241979000Y-103275000D02*
X241979000Y-106202000D01*
X242019000Y-98278000D02*
X242019000Y-101195000D01*
X242019000Y-103275000D02*
X242019000Y-106192000D01*
X242059000Y-98288000D02*
X242059000Y-101195000D01*
X242059000Y-103275000D02*
X242059000Y-106182000D01*
X242099000Y-98299000D02*
X242099000Y-101195000D01*
X242099000Y-103275000D02*
X242099000Y-106171000D01*
X242139000Y-98310000D02*
X242139000Y-101195000D01*
X242139000Y-103275000D02*
X242139000Y-106160000D01*
X242179000Y-98321000D02*
X242179000Y-101195000D01*
X242179000Y-103275000D02*
X242179000Y-106149000D01*
X242219000Y-98333000D02*
X242219000Y-101195000D01*
X242219000Y-103275000D02*
X242219000Y-106137000D01*
X242259000Y-98346000D02*
X242259000Y-101195000D01*
X242259000Y-103275000D02*
X242259000Y-106124000D01*
X242299000Y-98358000D02*
X242299000Y-101195000D01*
X242299000Y-103275000D02*
X242299000Y-106112000D01*
X242339000Y-98372000D02*
X242339000Y-101195000D01*
X242339000Y-103275000D02*
X242339000Y-106098000D01*
X242379000Y-98385000D02*
X242379000Y-101195000D01*
X242379000Y-103275000D02*
X242379000Y-106085000D01*
X242419000Y-98400000D02*
X242419000Y-101195000D01*
X242419000Y-103275000D02*
X242419000Y-106070000D01*
X242459000Y-98414000D02*
X242459000Y-101195000D01*
X242459000Y-103275000D02*
X242459000Y-106056000D01*
X242499000Y-98430000D02*
X242499000Y-101195000D01*
X242499000Y-103275000D02*
X242499000Y-106040000D01*
X242539000Y-98445000D02*
X242539000Y-101195000D01*
X242539000Y-103275000D02*
X242539000Y-106025000D01*
X242579000Y-98461000D02*
X242579000Y-101195000D01*
X242579000Y-103275000D02*
X242579000Y-106009000D01*
X242619000Y-98478000D02*
X242619000Y-101195000D01*
X242619000Y-103275000D02*
X242619000Y-105992000D01*
X242659000Y-98495000D02*
X242659000Y-101195000D01*
X242659000Y-103275000D02*
X242659000Y-105975000D01*
X242699000Y-98513000D02*
X242699000Y-101195000D01*
X242699000Y-103275000D02*
X242699000Y-105957000D01*
X242739000Y-98531000D02*
X242739000Y-101195000D01*
X242739000Y-103275000D02*
X242739000Y-105939000D01*
X242779000Y-98549000D02*
X242779000Y-101195000D01*
X242779000Y-103275000D02*
X242779000Y-105921000D01*
X242819000Y-98569000D02*
X242819000Y-101195000D01*
X242819000Y-103275000D02*
X242819000Y-105901000D01*
X242859000Y-98588000D02*
X242859000Y-101195000D01*
X242859000Y-103275000D02*
X242859000Y-105882000D01*
X242899000Y-98608000D02*
X242899000Y-101195000D01*
X242899000Y-103275000D02*
X242899000Y-105862000D01*
X242939000Y-98629000D02*
X242939000Y-101195000D01*
X242939000Y-103275000D02*
X242939000Y-105841000D01*
X242979000Y-98651000D02*
X242979000Y-101195000D01*
X242979000Y-103275000D02*
X242979000Y-105819000D01*
X243019000Y-98673000D02*
X243019000Y-101195000D01*
X243019000Y-103275000D02*
X243019000Y-105797000D01*
X243059000Y-98695000D02*
X243059000Y-101195000D01*
X243059000Y-103275000D02*
X243059000Y-105775000D01*
X243099000Y-98718000D02*
X243099000Y-101195000D01*
X243099000Y-103275000D02*
X243099000Y-105752000D01*
X243139000Y-98742000D02*
X243139000Y-101195000D01*
X243139000Y-103275000D02*
X243139000Y-105728000D01*
X243179000Y-98766000D02*
X243179000Y-101195000D01*
X243179000Y-103275000D02*
X243179000Y-105704000D01*
X243219000Y-98791000D02*
X243219000Y-101195000D01*
X243219000Y-103275000D02*
X243219000Y-105679000D01*
X243259000Y-98817000D02*
X243259000Y-101195000D01*
X243259000Y-103275000D02*
X243259000Y-105653000D01*
X243299000Y-98843000D02*
X243299000Y-101195000D01*
X243299000Y-103275000D02*
X243299000Y-105627000D01*
X243339000Y-98870000D02*
X243339000Y-101195000D01*
X243339000Y-103275000D02*
X243339000Y-105600000D01*
X243379000Y-98897000D02*
X243379000Y-101195000D01*
X243379000Y-103275000D02*
X243379000Y-105573000D01*
X243419000Y-98926000D02*
X243419000Y-101195000D01*
X243419000Y-103275000D02*
X243419000Y-105544000D01*
X243459000Y-98955000D02*
X243459000Y-101195000D01*
X243459000Y-103275000D02*
X243459000Y-105515000D01*
X243499000Y-98985000D02*
X243499000Y-101195000D01*
X243499000Y-103275000D02*
X243499000Y-105485000D01*
X243539000Y-99015000D02*
X243539000Y-101195000D01*
X243539000Y-103275000D02*
X243539000Y-105455000D01*
X243579000Y-99046000D02*
X243579000Y-101195000D01*
X243579000Y-103275000D02*
X243579000Y-105424000D01*
X243619000Y-99079000D02*
X243619000Y-101195000D01*
X243619000Y-103275000D02*
X243619000Y-105391000D01*
X243659000Y-99111000D02*
X243659000Y-101195000D01*
X243659000Y-103275000D02*
X243659000Y-105359000D01*
X243699000Y-99145000D02*
X243699000Y-101195000D01*
X243699000Y-103275000D02*
X243699000Y-105325000D01*
X243739000Y-99180000D02*
X243739000Y-101195000D01*
X243739000Y-103275000D02*
X243739000Y-105290000D01*
X243779000Y-99216000D02*
X243779000Y-101195000D01*
X243779000Y-103275000D02*
X243779000Y-105254000D01*
X243819000Y-99252000D02*
X243819000Y-105218000D01*
X243859000Y-99290000D02*
X243859000Y-105180000D01*
X243899000Y-99328000D02*
X243899000Y-105142000D01*
X243939000Y-99368000D02*
X243939000Y-105102000D01*
X243979000Y-99409000D02*
X243979000Y-105061000D01*
X244019000Y-99451000D02*
X244019000Y-105019000D01*
X244059000Y-99494000D02*
X244059000Y-104976000D01*
X244099000Y-99538000D02*
X244099000Y-104932000D01*
X244139000Y-99584000D02*
X244139000Y-104886000D01*
X244179000Y-99631000D02*
X244179000Y-104839000D01*
X244219000Y-99679000D02*
X244219000Y-104791000D01*
X244259000Y-99730000D02*
X244259000Y-104740000D01*
X244299000Y-99781000D02*
X244299000Y-104689000D01*
X244339000Y-99835000D02*
X244339000Y-104635000D01*
X244379000Y-99890000D02*
X244379000Y-104580000D01*
X244419000Y-99948000D02*
X244419000Y-104522000D01*
X244459000Y-100007000D02*
X244459000Y-104463000D01*
X244499000Y-100069000D02*
X244499000Y-104401000D01*
X244539000Y-100133000D02*
X244539000Y-104337000D01*
X244579000Y-100201000D02*
X244579000Y-104269000D01*
X244619000Y-100271000D02*
X244619000Y-104199000D01*
X244659000Y-100345000D02*
X244659000Y-104125000D01*
X244699000Y-100422000D02*
X244699000Y-104048000D01*
X244739000Y-100504000D02*
X244739000Y-103966000D01*
X244779000Y-100590000D02*
X244779000Y-103880000D01*
X244819000Y-100683000D02*
X244819000Y-103787000D01*
X244859000Y-100782000D02*
X244859000Y-103688000D01*
X244899000Y-100889000D02*
X244899000Y-103581000D01*
X244939000Y-101006000D02*
X244939000Y-103464000D01*
X244979000Y-101137000D02*
X244979000Y-103333000D01*
X245019000Y-101287000D02*
X245019000Y-103183000D01*
X245059000Y-101467000D02*
X245059000Y-103003000D01*
X245099000Y-101702000D02*
X245099000Y-102768000D01*
X236608302Y-99920000D02*
X237408302Y-99920000D01*
X237008302Y-99520000D02*
X237008302Y-100320000D01*
X269760000Y-102870000D02*
G75*
G03X269760000Y-102870000I-5120000J0D01*
G01*
X264640000Y-97790000D02*
X264640000Y-107950000D01*
X264680000Y-97790000D02*
X264680000Y-107950000D01*
X264720000Y-97790000D02*
X264720000Y-107950000D01*
X264760000Y-97791000D02*
X264760000Y-107949000D01*
X264800000Y-97792000D02*
X264800000Y-107948000D01*
X264840000Y-97793000D02*
X264840000Y-107947000D01*
X264880000Y-97795000D02*
X264880000Y-107945000D01*
X264920000Y-97797000D02*
X264920000Y-107943000D01*
X264960000Y-97800000D02*
X264960000Y-107940000D01*
X265000000Y-97802000D02*
X265000000Y-107938000D01*
X265040000Y-97805000D02*
X265040000Y-107935000D01*
X265080000Y-97808000D02*
X265080000Y-107932000D01*
X265120000Y-97812000D02*
X265120000Y-107928000D01*
X265160000Y-97816000D02*
X265160000Y-101629000D01*
X265160000Y-104111000D02*
X265160000Y-107924000D01*
X265200000Y-97820000D02*
X265200000Y-101629000D01*
X265200000Y-104111000D02*
X265200000Y-107920000D01*
X265240000Y-97825000D02*
X265240000Y-101629000D01*
X265240000Y-104111000D02*
X265240000Y-107915000D01*
X265280000Y-97830000D02*
X265280000Y-101629000D01*
X265280000Y-104111000D02*
X265280000Y-107910000D01*
X265320000Y-97835000D02*
X265320000Y-101629000D01*
X265320000Y-104111000D02*
X265320000Y-107905000D01*
X265361000Y-97840000D02*
X265361000Y-101629000D01*
X265361000Y-104111000D02*
X265361000Y-107900000D01*
X265401000Y-97846000D02*
X265401000Y-101629000D01*
X265401000Y-104111000D02*
X265401000Y-107894000D01*
X265441000Y-97852000D02*
X265441000Y-101629000D01*
X265441000Y-104111000D02*
X265441000Y-107888000D01*
X265481000Y-97859000D02*
X265481000Y-101629000D01*
X265481000Y-104111000D02*
X265481000Y-107881000D01*
X265521000Y-97866000D02*
X265521000Y-101629000D01*
X265521000Y-104111000D02*
X265521000Y-107874000D01*
X265561000Y-97873000D02*
X265561000Y-101629000D01*
X265561000Y-104111000D02*
X265561000Y-107867000D01*
X265601000Y-97880000D02*
X265601000Y-101629000D01*
X265601000Y-104111000D02*
X265601000Y-107860000D01*
X265641000Y-97888000D02*
X265641000Y-101629000D01*
X265641000Y-104111000D02*
X265641000Y-107852000D01*
X265681000Y-97896000D02*
X265681000Y-101629000D01*
X265681000Y-104111000D02*
X265681000Y-107844000D01*
X265721000Y-97905000D02*
X265721000Y-101629000D01*
X265721000Y-104111000D02*
X265721000Y-107835000D01*
X265761000Y-97914000D02*
X265761000Y-101629000D01*
X265761000Y-104111000D02*
X265761000Y-107826000D01*
X265801000Y-97923000D02*
X265801000Y-101629000D01*
X265801000Y-104111000D02*
X265801000Y-107817000D01*
X265841000Y-97932000D02*
X265841000Y-101629000D01*
X265841000Y-104111000D02*
X265841000Y-107808000D01*
X265881000Y-97942000D02*
X265881000Y-101629000D01*
X265881000Y-104111000D02*
X265881000Y-107798000D01*
X265921000Y-97952000D02*
X265921000Y-101629000D01*
X265921000Y-104111000D02*
X265921000Y-107788000D01*
X265961000Y-97963000D02*
X265961000Y-101629000D01*
X265961000Y-104111000D02*
X265961000Y-107777000D01*
X266001000Y-97973000D02*
X266001000Y-101629000D01*
X266001000Y-104111000D02*
X266001000Y-107767000D01*
X266041000Y-97985000D02*
X266041000Y-101629000D01*
X266041000Y-104111000D02*
X266041000Y-107755000D01*
X266081000Y-97996000D02*
X266081000Y-101629000D01*
X266081000Y-104111000D02*
X266081000Y-107744000D01*
X266121000Y-98008000D02*
X266121000Y-101629000D01*
X266121000Y-104111000D02*
X266121000Y-107732000D01*
X266161000Y-98020000D02*
X266161000Y-101629000D01*
X266161000Y-104111000D02*
X266161000Y-107720000D01*
X266201000Y-98033000D02*
X266201000Y-101629000D01*
X266201000Y-104111000D02*
X266201000Y-107707000D01*
X266241000Y-98046000D02*
X266241000Y-101629000D01*
X266241000Y-104111000D02*
X266241000Y-107694000D01*
X266281000Y-98059000D02*
X266281000Y-101629000D01*
X266281000Y-104111000D02*
X266281000Y-107681000D01*
X266321000Y-98073000D02*
X266321000Y-101629000D01*
X266321000Y-104111000D02*
X266321000Y-107667000D01*
X266361000Y-98087000D02*
X266361000Y-101629000D01*
X266361000Y-104111000D02*
X266361000Y-107653000D01*
X266401000Y-98102000D02*
X266401000Y-101629000D01*
X266401000Y-104111000D02*
X266401000Y-107638000D01*
X266441000Y-98116000D02*
X266441000Y-101629000D01*
X266441000Y-104111000D02*
X266441000Y-107624000D01*
X266481000Y-98132000D02*
X266481000Y-101629000D01*
X266481000Y-104111000D02*
X266481000Y-107608000D01*
X266521000Y-98147000D02*
X266521000Y-101629000D01*
X266521000Y-104111000D02*
X266521000Y-107593000D01*
X266561000Y-98163000D02*
X266561000Y-101629000D01*
X266561000Y-104111000D02*
X266561000Y-107577000D01*
X266601000Y-98180000D02*
X266601000Y-101629000D01*
X266601000Y-104111000D02*
X266601000Y-107560000D01*
X266641000Y-98196000D02*
X266641000Y-101629000D01*
X266641000Y-104111000D02*
X266641000Y-107544000D01*
X266681000Y-98213000D02*
X266681000Y-101629000D01*
X266681000Y-104111000D02*
X266681000Y-107527000D01*
X266721000Y-98231000D02*
X266721000Y-101629000D01*
X266721000Y-104111000D02*
X266721000Y-107509000D01*
X266761000Y-98249000D02*
X266761000Y-101629000D01*
X266761000Y-104111000D02*
X266761000Y-107491000D01*
X266801000Y-98267000D02*
X266801000Y-101629000D01*
X266801000Y-104111000D02*
X266801000Y-107473000D01*
X266841000Y-98286000D02*
X266841000Y-101629000D01*
X266841000Y-104111000D02*
X266841000Y-107454000D01*
X266881000Y-98306000D02*
X266881000Y-101629000D01*
X266881000Y-104111000D02*
X266881000Y-107434000D01*
X266921000Y-98325000D02*
X266921000Y-101629000D01*
X266921000Y-104111000D02*
X266921000Y-107415000D01*
X266961000Y-98345000D02*
X266961000Y-101629000D01*
X266961000Y-104111000D02*
X266961000Y-107395000D01*
X267001000Y-98366000D02*
X267001000Y-101629000D01*
X267001000Y-104111000D02*
X267001000Y-107374000D01*
X267041000Y-98387000D02*
X267041000Y-101629000D01*
X267041000Y-104111000D02*
X267041000Y-107353000D01*
X267081000Y-98408000D02*
X267081000Y-101629000D01*
X267081000Y-104111000D02*
X267081000Y-107332000D01*
X267121000Y-98430000D02*
X267121000Y-101629000D01*
X267121000Y-104111000D02*
X267121000Y-107310000D01*
X267161000Y-98453000D02*
X267161000Y-101629000D01*
X267161000Y-104111000D02*
X267161000Y-107287000D01*
X267201000Y-98475000D02*
X267201000Y-101629000D01*
X267201000Y-104111000D02*
X267201000Y-107265000D01*
X267241000Y-98499000D02*
X267241000Y-101629000D01*
X267241000Y-104111000D02*
X267241000Y-107241000D01*
X267281000Y-98523000D02*
X267281000Y-101629000D01*
X267281000Y-104111000D02*
X267281000Y-107217000D01*
X267321000Y-98547000D02*
X267321000Y-101629000D01*
X267321000Y-104111000D02*
X267321000Y-107193000D01*
X267361000Y-98572000D02*
X267361000Y-101629000D01*
X267361000Y-104111000D02*
X267361000Y-107168000D01*
X267401000Y-98597000D02*
X267401000Y-101629000D01*
X267401000Y-104111000D02*
X267401000Y-107143000D01*
X267441000Y-98623000D02*
X267441000Y-101629000D01*
X267441000Y-104111000D02*
X267441000Y-107117000D01*
X267481000Y-98649000D02*
X267481000Y-101629000D01*
X267481000Y-104111000D02*
X267481000Y-107091000D01*
X267521000Y-98676000D02*
X267521000Y-101629000D01*
X267521000Y-104111000D02*
X267521000Y-107064000D01*
X267561000Y-98704000D02*
X267561000Y-101629000D01*
X267561000Y-104111000D02*
X267561000Y-107036000D01*
X267601000Y-98732000D02*
X267601000Y-101629000D01*
X267601000Y-104111000D02*
X267601000Y-107008000D01*
X267641000Y-98760000D02*
X267641000Y-106980000D01*
X267681000Y-98790000D02*
X267681000Y-106950000D01*
X267721000Y-98820000D02*
X267721000Y-106920000D01*
X267761000Y-98850000D02*
X267761000Y-106890000D01*
X267801000Y-98881000D02*
X267801000Y-106859000D01*
X267841000Y-98913000D02*
X267841000Y-106827000D01*
X267881000Y-98945000D02*
X267881000Y-106795000D01*
X267921000Y-98978000D02*
X267921000Y-106762000D01*
X267961000Y-99012000D02*
X267961000Y-106728000D01*
X268001000Y-99046000D02*
X268001000Y-106694000D01*
X268041000Y-99081000D02*
X268041000Y-106659000D01*
X268081000Y-99117000D02*
X268081000Y-106623000D01*
X268121000Y-99154000D02*
X268121000Y-106586000D01*
X268161000Y-99191000D02*
X268161000Y-106549000D01*
X268201000Y-99230000D02*
X268201000Y-106510000D01*
X268241000Y-99269000D02*
X268241000Y-106471000D01*
X268281000Y-99309000D02*
X268281000Y-106431000D01*
X268321000Y-99350000D02*
X268321000Y-106390000D01*
X268361000Y-99392000D02*
X268361000Y-106348000D01*
X268401000Y-99434000D02*
X268401000Y-106306000D01*
X268441000Y-99478000D02*
X268441000Y-106262000D01*
X268481000Y-99523000D02*
X268481000Y-106217000D01*
X268521000Y-99569000D02*
X268521000Y-106171000D01*
X268561000Y-99616000D02*
X268561000Y-106124000D01*
X268601000Y-99664000D02*
X268601000Y-106076000D01*
X268641000Y-99714000D02*
X268641000Y-106026000D01*
X268681000Y-99764000D02*
X268681000Y-105976000D01*
X268721000Y-99816000D02*
X268721000Y-105924000D01*
X268761000Y-99870000D02*
X268761000Y-105870000D01*
X268801000Y-99925000D02*
X268801000Y-105815000D01*
X268841000Y-99981000D02*
X268841000Y-105759000D01*
X268881000Y-100040000D02*
X268881000Y-105700000D01*
X268921000Y-100100000D02*
X268921000Y-105640000D01*
X268961000Y-100161000D02*
X268961000Y-105579000D01*
X269001000Y-100225000D02*
X269001000Y-105515000D01*
X269041000Y-100291000D02*
X269041000Y-105449000D01*
X269081000Y-100360000D02*
X269081000Y-105380000D01*
X269121000Y-100431000D02*
X269121000Y-105309000D01*
X269161000Y-100505000D02*
X269161000Y-105235000D01*
X269201000Y-100581000D02*
X269201000Y-105159000D01*
X269241000Y-100661000D02*
X269241000Y-105079000D01*
X269281000Y-100745000D02*
X269281000Y-104995000D01*
X269321000Y-100833000D02*
X269321000Y-104907000D01*
X269361000Y-100926000D02*
X269361000Y-104814000D01*
X269401000Y-101024000D02*
X269401000Y-104716000D01*
X269441000Y-101128000D02*
X269441000Y-104612000D01*
X269481000Y-101240000D02*
X269481000Y-104500000D01*
X269521000Y-101360000D02*
X269521000Y-104380000D01*
X269561000Y-101492000D02*
X269561000Y-104248000D01*
X269601000Y-101640000D02*
X269601000Y-104100000D01*
X269641000Y-101808000D02*
X269641000Y-103932000D01*
X269681000Y-102008000D02*
X269681000Y-103732000D01*
X269721000Y-102271000D02*
X269721000Y-103469000D01*
X259160354Y-99995000D02*
X260160354Y-99995000D01*
X259660354Y-99495000D02*
X259660354Y-100495000D01*
X234882000Y-103622000D02*
X225112000Y-103622000D01*
X234882000Y-98552000D02*
X225112000Y-98552000D01*
X234882000Y-103622000D02*
X234882000Y-98552000D01*
X225112000Y-103622000D02*
X225112000Y-98552000D01*
X235359000Y-114300000D02*
G75*
G03X235359000Y-114300000I-4120000J0D01*
G01*
X231239000Y-110220000D02*
X231239000Y-118380000D01*
X231279000Y-110220000D02*
X231279000Y-118380000D01*
X231319000Y-110220000D02*
X231319000Y-118380000D01*
X231359000Y-110221000D02*
X231359000Y-118379000D01*
X231399000Y-110223000D02*
X231399000Y-118377000D01*
X231439000Y-110224000D02*
X231439000Y-118376000D01*
X231479000Y-110226000D02*
X231479000Y-118374000D01*
X231519000Y-110229000D02*
X231519000Y-118371000D01*
X231559000Y-110232000D02*
X231559000Y-118368000D01*
X231599000Y-110235000D02*
X231599000Y-118365000D01*
X231639000Y-110239000D02*
X231639000Y-118361000D01*
X231679000Y-110243000D02*
X231679000Y-118357000D01*
X231719000Y-110248000D02*
X231719000Y-118352000D01*
X231759000Y-110252000D02*
X231759000Y-118348000D01*
X231799000Y-110258000D02*
X231799000Y-118342000D01*
X231839000Y-110263000D02*
X231839000Y-118337000D01*
X231879000Y-110270000D02*
X231879000Y-118330000D01*
X231919000Y-110276000D02*
X231919000Y-118324000D01*
X231960000Y-110283000D02*
X231960000Y-113260000D01*
X231960000Y-115340000D02*
X231960000Y-118317000D01*
X232000000Y-110290000D02*
X232000000Y-113260000D01*
X232000000Y-115340000D02*
X232000000Y-118310000D01*
X232040000Y-110298000D02*
X232040000Y-113260000D01*
X232040000Y-115340000D02*
X232040000Y-118302000D01*
X232080000Y-110306000D02*
X232080000Y-113260000D01*
X232080000Y-115340000D02*
X232080000Y-118294000D01*
X232120000Y-110315000D02*
X232120000Y-113260000D01*
X232120000Y-115340000D02*
X232120000Y-118285000D01*
X232160000Y-110324000D02*
X232160000Y-113260000D01*
X232160000Y-115340000D02*
X232160000Y-118276000D01*
X232200000Y-110333000D02*
X232200000Y-113260000D01*
X232200000Y-115340000D02*
X232200000Y-118267000D01*
X232240000Y-110343000D02*
X232240000Y-113260000D01*
X232240000Y-115340000D02*
X232240000Y-118257000D01*
X232280000Y-110353000D02*
X232280000Y-113260000D01*
X232280000Y-115340000D02*
X232280000Y-118247000D01*
X232320000Y-110364000D02*
X232320000Y-113260000D01*
X232320000Y-115340000D02*
X232320000Y-118236000D01*
X232360000Y-110375000D02*
X232360000Y-113260000D01*
X232360000Y-115340000D02*
X232360000Y-118225000D01*
X232400000Y-110386000D02*
X232400000Y-113260000D01*
X232400000Y-115340000D02*
X232400000Y-118214000D01*
X232440000Y-110398000D02*
X232440000Y-113260000D01*
X232440000Y-115340000D02*
X232440000Y-118202000D01*
X232480000Y-110411000D02*
X232480000Y-113260000D01*
X232480000Y-115340000D02*
X232480000Y-118189000D01*
X232520000Y-110423000D02*
X232520000Y-113260000D01*
X232520000Y-115340000D02*
X232520000Y-118177000D01*
X232560000Y-110437000D02*
X232560000Y-113260000D01*
X232560000Y-115340000D02*
X232560000Y-118163000D01*
X232600000Y-110450000D02*
X232600000Y-113260000D01*
X232600000Y-115340000D02*
X232600000Y-118150000D01*
X232640000Y-110465000D02*
X232640000Y-113260000D01*
X232640000Y-115340000D02*
X232640000Y-118135000D01*
X232680000Y-110479000D02*
X232680000Y-113260000D01*
X232680000Y-115340000D02*
X232680000Y-118121000D01*
X232720000Y-110495000D02*
X232720000Y-113260000D01*
X232720000Y-115340000D02*
X232720000Y-118105000D01*
X232760000Y-110510000D02*
X232760000Y-113260000D01*
X232760000Y-115340000D02*
X232760000Y-118090000D01*
X232800000Y-110526000D02*
X232800000Y-113260000D01*
X232800000Y-115340000D02*
X232800000Y-118074000D01*
X232840000Y-110543000D02*
X232840000Y-113260000D01*
X232840000Y-115340000D02*
X232840000Y-118057000D01*
X232880000Y-110560000D02*
X232880000Y-113260000D01*
X232880000Y-115340000D02*
X232880000Y-118040000D01*
X232920000Y-110578000D02*
X232920000Y-113260000D01*
X232920000Y-115340000D02*
X232920000Y-118022000D01*
X232960000Y-110596000D02*
X232960000Y-113260000D01*
X232960000Y-115340000D02*
X232960000Y-118004000D01*
X233000000Y-110614000D02*
X233000000Y-113260000D01*
X233000000Y-115340000D02*
X233000000Y-117986000D01*
X233040000Y-110634000D02*
X233040000Y-113260000D01*
X233040000Y-115340000D02*
X233040000Y-117966000D01*
X233080000Y-110653000D02*
X233080000Y-113260000D01*
X233080000Y-115340000D02*
X233080000Y-117947000D01*
X233120000Y-110673000D02*
X233120000Y-113260000D01*
X233120000Y-115340000D02*
X233120000Y-117927000D01*
X233160000Y-110694000D02*
X233160000Y-113260000D01*
X233160000Y-115340000D02*
X233160000Y-117906000D01*
X233200000Y-110716000D02*
X233200000Y-113260000D01*
X233200000Y-115340000D02*
X233200000Y-117884000D01*
X233240000Y-110738000D02*
X233240000Y-113260000D01*
X233240000Y-115340000D02*
X233240000Y-117862000D01*
X233280000Y-110760000D02*
X233280000Y-113260000D01*
X233280000Y-115340000D02*
X233280000Y-117840000D01*
X233320000Y-110783000D02*
X233320000Y-113260000D01*
X233320000Y-115340000D02*
X233320000Y-117817000D01*
X233360000Y-110807000D02*
X233360000Y-113260000D01*
X233360000Y-115340000D02*
X233360000Y-117793000D01*
X233400000Y-110831000D02*
X233400000Y-113260000D01*
X233400000Y-115340000D02*
X233400000Y-117769000D01*
X233440000Y-110856000D02*
X233440000Y-113260000D01*
X233440000Y-115340000D02*
X233440000Y-117744000D01*
X233480000Y-110882000D02*
X233480000Y-113260000D01*
X233480000Y-115340000D02*
X233480000Y-117718000D01*
X233520000Y-110908000D02*
X233520000Y-113260000D01*
X233520000Y-115340000D02*
X233520000Y-117692000D01*
X233560000Y-110935000D02*
X233560000Y-113260000D01*
X233560000Y-115340000D02*
X233560000Y-117665000D01*
X233600000Y-110962000D02*
X233600000Y-113260000D01*
X233600000Y-115340000D02*
X233600000Y-117638000D01*
X233640000Y-110991000D02*
X233640000Y-113260000D01*
X233640000Y-115340000D02*
X233640000Y-117609000D01*
X233680000Y-111020000D02*
X233680000Y-113260000D01*
X233680000Y-115340000D02*
X233680000Y-117580000D01*
X233720000Y-111050000D02*
X233720000Y-113260000D01*
X233720000Y-115340000D02*
X233720000Y-117550000D01*
X233760000Y-111080000D02*
X233760000Y-113260000D01*
X233760000Y-115340000D02*
X233760000Y-117520000D01*
X233800000Y-111111000D02*
X233800000Y-113260000D01*
X233800000Y-115340000D02*
X233800000Y-117489000D01*
X233840000Y-111144000D02*
X233840000Y-113260000D01*
X233840000Y-115340000D02*
X233840000Y-117456000D01*
X233880000Y-111176000D02*
X233880000Y-113260000D01*
X233880000Y-115340000D02*
X233880000Y-117424000D01*
X233920000Y-111210000D02*
X233920000Y-113260000D01*
X233920000Y-115340000D02*
X233920000Y-117390000D01*
X233960000Y-111245000D02*
X233960000Y-113260000D01*
X233960000Y-115340000D02*
X233960000Y-117355000D01*
X234000000Y-111281000D02*
X234000000Y-113260000D01*
X234000000Y-115340000D02*
X234000000Y-117319000D01*
X234040000Y-111317000D02*
X234040000Y-117283000D01*
X234080000Y-111355000D02*
X234080000Y-117245000D01*
X234120000Y-111393000D02*
X234120000Y-117207000D01*
X234160000Y-111433000D02*
X234160000Y-117167000D01*
X234200000Y-111474000D02*
X234200000Y-117126000D01*
X234240000Y-111516000D02*
X234240000Y-117084000D01*
X234280000Y-111559000D02*
X234280000Y-117041000D01*
X234320000Y-111603000D02*
X234320000Y-116997000D01*
X234360000Y-111649000D02*
X234360000Y-116951000D01*
X234400000Y-111696000D02*
X234400000Y-116904000D01*
X234440000Y-111744000D02*
X234440000Y-116856000D01*
X234480000Y-111795000D02*
X234480000Y-116805000D01*
X234520000Y-111846000D02*
X234520000Y-116754000D01*
X234560000Y-111900000D02*
X234560000Y-116700000D01*
X234600000Y-111955000D02*
X234600000Y-116645000D01*
X234640000Y-112013000D02*
X234640000Y-116587000D01*
X234680000Y-112072000D02*
X234680000Y-116528000D01*
X234720000Y-112134000D02*
X234720000Y-116466000D01*
X234760000Y-112198000D02*
X234760000Y-116402000D01*
X234800000Y-112266000D02*
X234800000Y-116334000D01*
X234840000Y-112336000D02*
X234840000Y-116264000D01*
X234880000Y-112410000D02*
X234880000Y-116190000D01*
X234920000Y-112487000D02*
X234920000Y-116113000D01*
X234960000Y-112569000D02*
X234960000Y-116031000D01*
X235000000Y-112655000D02*
X235000000Y-115945000D01*
X235040000Y-112748000D02*
X235040000Y-115852000D01*
X235080000Y-112847000D02*
X235080000Y-115753000D01*
X235120000Y-112954000D02*
X235120000Y-115646000D01*
X235160000Y-113071000D02*
X235160000Y-115529000D01*
X235200000Y-113202000D02*
X235200000Y-115398000D01*
X235240000Y-113352000D02*
X235240000Y-115248000D01*
X235280000Y-113532000D02*
X235280000Y-115068000D01*
X235320000Y-113767000D02*
X235320000Y-114833000D01*
X226829302Y-111985000D02*
X227629302Y-111985000D01*
X227229302Y-111585000D02*
X227229302Y-112385000D01*
X222985000Y-111030000D02*
X220245000Y-111030000D01*
X220245000Y-111030000D02*
X220245000Y-117570000D01*
X220245000Y-117570000D02*
X222985000Y-117570000D01*
X222985000Y-117570000D02*
X222985000Y-111030000D01*
X221615000Y-110260000D02*
X221615000Y-111030000D01*
X221615000Y-118340000D02*
X221615000Y-117570000D01*
X197004000Y-111880000D02*
X197004000Y-106640000D01*
X199744000Y-111880000D02*
X199744000Y-106640000D01*
X197004000Y-111880000D02*
X197319000Y-111880000D01*
X199429000Y-111880000D02*
X199744000Y-111880000D01*
X197004000Y-106640000D02*
X197319000Y-106640000D01*
X199429000Y-106640000D02*
X199744000Y-106640000D01*
X211312000Y-106620000D02*
G75*
G02X209312000Y-106620000I-1000000J0D01*
G01*
X209312000Y-106620000D02*
X207662000Y-106620000D01*
X207662000Y-106620000D02*
X207662000Y-116900000D01*
X207662000Y-116900000D02*
X212962000Y-116900000D01*
X212962000Y-116900000D02*
X212962000Y-106620000D01*
X212962000Y-106620000D02*
X211312000Y-106620000D01*
X205172000Y-106560000D02*
X205172000Y-116960000D01*
X205172000Y-116960000D02*
X215452000Y-116960000D01*
X215452000Y-116960000D02*
X215452000Y-106560000D01*
X215452000Y-106560000D02*
X205172000Y-106560000D01*
X113819000Y-101720000D02*
X113819000Y-96480000D01*
X116559000Y-101720000D02*
X116559000Y-96480000D01*
X113819000Y-101720000D02*
X114134000Y-101720000D01*
X116244000Y-101720000D02*
X116559000Y-101720000D01*
X113819000Y-96480000D02*
X114134000Y-96480000D01*
X116244000Y-96480000D02*
X116559000Y-96480000D01*
X237133000Y-92964000D02*
X237903000Y-92964000D01*
X245213000Y-92964000D02*
X244443000Y-92964000D01*
X237903000Y-94334000D02*
X244443000Y-94334000D01*
X237903000Y-91594000D02*
X237903000Y-94334000D01*
X244443000Y-91594000D02*
X237903000Y-91594000D01*
X244443000Y-94334000D02*
X244443000Y-91594000D01*
X258540000Y-94334000D02*
X258540000Y-91594000D01*
X258540000Y-91594000D02*
X252000000Y-91594000D01*
X252000000Y-91594000D02*
X252000000Y-94334000D01*
X252000000Y-94334000D02*
X258540000Y-94334000D01*
X259310000Y-92964000D02*
X258540000Y-92964000D01*
X251230000Y-92964000D02*
X252000000Y-92964000D01*
X102556000Y-115510000D02*
X103886000Y-115510000D01*
X102556000Y-116840000D02*
X102556000Y-115510000D01*
X102556000Y-118110000D02*
X105216000Y-118110000D01*
X105216000Y-118110000D02*
X105216000Y-118170000D01*
X102556000Y-118110000D02*
X102556000Y-118170000D01*
X102556000Y-118170000D02*
X105216000Y-118170000D01*
X118177000Y-118170000D02*
X120837000Y-118170000D01*
X118177000Y-118110000D02*
X118177000Y-118170000D01*
X120837000Y-118110000D02*
X120837000Y-118170000D01*
X118177000Y-118110000D02*
X120837000Y-118110000D01*
X118177000Y-116840000D02*
X118177000Y-115510000D01*
X118177000Y-115510000D02*
X119507000Y-115510000D01*
D14*
G36*
X179045633Y-106360597D02*
G01*
X179170850Y-106537185D01*
X179168572Y-106807000D01*
X179106698Y-107008530D01*
X178996383Y-107095390D01*
X178812995Y-107119825D01*
X178583056Y-107118904D01*
X178420996Y-107094358D01*
X178413833Y-107091603D01*
X178314070Y-106987215D01*
X178333970Y-106891666D01*
X178773666Y-106891666D01*
X178780379Y-106969685D01*
X178811003Y-106976333D01*
X178897221Y-106914872D01*
X178900666Y-106891666D01*
X178871779Y-106809201D01*
X178863330Y-106807000D01*
X178791044Y-106866328D01*
X178773666Y-106891666D01*
X178333970Y-106891666D01*
X178339133Y-106866878D01*
X178471961Y-106807060D01*
X178477333Y-106807000D01*
X178601280Y-106767084D01*
X178644919Y-106618567D01*
X178646666Y-106553000D01*
X178676022Y-106363470D01*
X178778299Y-106299867D01*
X178799817Y-106299000D01*
X179045633Y-106360597D01*
X179045633Y-106360597D01*
G37*
X179045633Y-106360597D02*
X179170850Y-106537185D01*
X179168572Y-106807000D01*
X179106698Y-107008530D01*
X178996383Y-107095390D01*
X178812995Y-107119825D01*
X178583056Y-107118904D01*
X178420996Y-107094358D01*
X178413833Y-107091603D01*
X178314070Y-106987215D01*
X178333970Y-106891666D01*
X178773666Y-106891666D01*
X178780379Y-106969685D01*
X178811003Y-106976333D01*
X178897221Y-106914872D01*
X178900666Y-106891666D01*
X178871779Y-106809201D01*
X178863330Y-106807000D01*
X178791044Y-106866328D01*
X178773666Y-106891666D01*
X178333970Y-106891666D01*
X178339133Y-106866878D01*
X178471961Y-106807060D01*
X178477333Y-106807000D01*
X178601280Y-106767084D01*
X178644919Y-106618567D01*
X178646666Y-106553000D01*
X178676022Y-106363470D01*
X178778299Y-106299867D01*
X178799817Y-106299000D01*
X179045633Y-106360597D01*
G36*
X169774087Y-96499801D02*
G01*
X170055032Y-96556374D01*
X170171500Y-96600271D01*
X170437981Y-96823336D01*
X170587965Y-97129722D01*
X170619348Y-97477896D01*
X170530027Y-97826328D01*
X170317898Y-98133486D01*
X170252189Y-98193365D01*
X170104476Y-98337012D01*
X170020603Y-98489477D01*
X170000279Y-98683185D01*
X170043213Y-98950563D01*
X170149114Y-99324037D01*
X170239519Y-99602786D01*
X170423405Y-100111361D01*
X170588684Y-100465203D01*
X170743282Y-100676818D01*
X170895125Y-100758714D01*
X170970007Y-100755481D01*
X171780923Y-100608272D01*
X172463208Y-100549578D01*
X173032282Y-100578898D01*
X173446211Y-100675250D01*
X173839674Y-100808834D01*
X174085667Y-100527084D01*
X174267991Y-100285469D01*
X174459168Y-99980374D01*
X174633965Y-99659055D01*
X174767147Y-99368767D01*
X174833482Y-99156767D01*
X174836666Y-99120670D01*
X174772783Y-98971713D01*
X174615098Y-98802880D01*
X174574882Y-98771299D01*
X174288110Y-98457527D01*
X174117666Y-98040401D01*
X174081195Y-97717077D01*
X174286206Y-97717077D01*
X174296772Y-97935287D01*
X174326268Y-98036733D01*
X174496462Y-98354368D01*
X174752655Y-98606713D01*
X175044626Y-98746971D01*
X175099199Y-98756982D01*
X175207232Y-98736396D01*
X175397355Y-98677455D01*
X175402628Y-98675622D01*
X175628759Y-98519539D01*
X175814648Y-98254886D01*
X175923381Y-97942394D01*
X175937333Y-97795898D01*
X175862361Y-97572140D01*
X175669446Y-97352742D01*
X175406587Y-97175778D01*
X175121786Y-97079320D01*
X175024220Y-97071629D01*
X174752219Y-97092068D01*
X174577739Y-97177241D01*
X174437092Y-97367165D01*
X174377958Y-97477684D01*
X174286206Y-97717077D01*
X174081195Y-97717077D01*
X174074666Y-97659206D01*
X174146001Y-97301621D01*
X174342650Y-97032839D01*
X174638579Y-96865719D01*
X175007755Y-96813118D01*
X175424144Y-96887897D01*
X175544837Y-96933073D01*
X175891248Y-97158461D01*
X176110244Y-97476066D01*
X176195077Y-97859305D01*
X176138997Y-98281594D01*
X175979389Y-98644777D01*
X175825270Y-98866973D01*
X175674562Y-99020606D01*
X175615196Y-99054753D01*
X175522586Y-99129318D01*
X175448674Y-99305811D01*
X175382182Y-99614090D01*
X175365191Y-99716537D01*
X175293736Y-100137062D01*
X175207044Y-100608649D01*
X175138017Y-100959244D01*
X175081258Y-101265085D01*
X175048979Y-101501056D01*
X175046898Y-101623460D01*
X175050231Y-101630119D01*
X175142707Y-101619323D01*
X175334141Y-101546339D01*
X175480068Y-101477871D01*
X175966361Y-101325150D01*
X176469184Y-101330874D01*
X176953266Y-101492271D01*
X177146801Y-101608792D01*
X177510192Y-101947417D01*
X177730664Y-102364722D01*
X177815507Y-102875861D01*
X177816714Y-103001147D01*
X177804660Y-103240409D01*
X177767767Y-103464737D01*
X177693914Y-103711518D01*
X177570981Y-104018138D01*
X177386847Y-104421984D01*
X177289660Y-104626833D01*
X177138033Y-104944333D01*
X177350387Y-104944333D01*
X177630533Y-104994995D01*
X177920459Y-105122538D01*
X178144697Y-105290292D01*
X178195841Y-105355107D01*
X178250819Y-105531112D01*
X178193256Y-105713559D01*
X178001234Y-105932456D01*
X177732580Y-106016005D01*
X177425011Y-105953748D01*
X177388592Y-105936639D01*
X177211175Y-105855712D01*
X177137502Y-105858125D01*
X177122671Y-105946116D01*
X177122666Y-105949889D01*
X177056303Y-106152621D01*
X176852956Y-106267482D01*
X176556117Y-106299000D01*
X176281967Y-106271862D01*
X176123422Y-106179579D01*
X176090963Y-106135984D01*
X176006906Y-106031608D01*
X175904993Y-106026183D01*
X175740713Y-106101443D01*
X175502886Y-106181339D01*
X175289446Y-106191147D01*
X175117359Y-106187852D01*
X175041315Y-106225687D01*
X174942903Y-106255989D01*
X174712650Y-106280192D01*
X174388021Y-106295346D01*
X174110188Y-106299000D01*
X173713569Y-106297051D01*
X173452766Y-106286571D01*
X173294267Y-106260605D01*
X173204560Y-106212200D01*
X173150135Y-106134402D01*
X173131876Y-106096000D01*
X173077408Y-105996440D01*
X173000569Y-105939473D01*
X172993045Y-105938264D01*
X173319722Y-105938264D01*
X173360305Y-105955813D01*
X173458014Y-105960333D01*
X173623623Y-105886371D01*
X173673802Y-105791000D01*
X173990000Y-105791000D01*
X174022168Y-105928630D01*
X174066740Y-105960333D01*
X174110291Y-105892906D01*
X174104173Y-105836695D01*
X174436737Y-105836695D01*
X174508905Y-105970610D01*
X174621398Y-106044125D01*
X174634058Y-106045000D01*
X174740870Y-106002115D01*
X174752000Y-105970700D01*
X174698334Y-105865117D01*
X174583259Y-105761217D01*
X174475657Y-105715465D01*
X174451627Y-105724483D01*
X174436737Y-105836695D01*
X174104173Y-105836695D01*
X174099198Y-105791000D01*
X174050047Y-105654218D01*
X174022458Y-105621666D01*
X173996040Y-105692916D01*
X173990000Y-105791000D01*
X173673802Y-105791000D01*
X173677903Y-105783206D01*
X173702237Y-105664292D01*
X173659099Y-105665290D01*
X173539611Y-105761137D01*
X173394133Y-105880938D01*
X173319722Y-105938264D01*
X172993045Y-105938264D01*
X172862449Y-105917281D01*
X172624134Y-105922042D01*
X172350525Y-105938979D01*
X172028529Y-105968687D01*
X171779279Y-106007173D01*
X171644694Y-106047433D01*
X171632940Y-106058823D01*
X171473844Y-106264761D01*
X171235627Y-106351847D01*
X171118697Y-106342950D01*
X170916164Y-106315583D01*
X170614527Y-106293894D01*
X170324838Y-106283699D01*
X169949760Y-106258850D01*
X169719414Y-106189845D01*
X169611736Y-106061748D01*
X169607466Y-105939662D01*
X169975037Y-105939662D01*
X170026484Y-105940949D01*
X170146611Y-105837352D01*
X170160597Y-105806875D01*
X170152728Y-105716306D01*
X170075466Y-105721549D01*
X169990573Y-105811303D01*
X169977334Y-105840408D01*
X169975037Y-105939662D01*
X169607466Y-105939662D01*
X169604665Y-105859620D01*
X169614599Y-105802835D01*
X169629641Y-105641362D01*
X169563397Y-105548632D01*
X169376187Y-105475287D01*
X169343258Y-105465310D01*
X169016580Y-105293383D01*
X168649945Y-104963713D01*
X168266869Y-104505051D01*
X168089405Y-104269440D01*
X167985887Y-104614953D01*
X167882368Y-104960467D01*
X168233043Y-105260631D01*
X168437892Y-105451176D01*
X168530294Y-105592267D01*
X168536781Y-105731196D01*
X168525358Y-105781731D01*
X168475560Y-106017833D01*
X168455666Y-106172000D01*
X168413878Y-106285175D01*
X168279501Y-106344274D01*
X168087734Y-106367210D01*
X167820904Y-106362923D01*
X167602097Y-106320062D01*
X167563706Y-106303481D01*
X167397466Y-106260266D01*
X167343808Y-106298771D01*
X167225391Y-106358701D01*
X167005889Y-106385689D01*
X166745827Y-106382073D01*
X166505727Y-106350191D01*
X166346113Y-106292383D01*
X166316881Y-106259092D01*
X166264258Y-106191044D01*
X166157630Y-106201891D01*
X165951913Y-106296323D01*
X165950048Y-106297274D01*
X165745238Y-106395387D01*
X165623346Y-106414173D01*
X165516697Y-106351736D01*
X165441017Y-106283018D01*
X165310018Y-106113201D01*
X165286609Y-105906739D01*
X165293673Y-105851905D01*
X165607949Y-105851905D01*
X165668754Y-105987323D01*
X165678523Y-105993925D01*
X165794309Y-105980070D01*
X165974233Y-105882770D01*
X166165375Y-105740942D01*
X166314820Y-105593502D01*
X166370000Y-105485406D01*
X166433288Y-105387607D01*
X166518166Y-105385267D01*
X166635443Y-105482126D01*
X166649517Y-105624308D01*
X166656124Y-105963822D01*
X166742100Y-106155391D01*
X166902159Y-106198663D01*
X167010158Y-106163439D01*
X167071226Y-106068742D01*
X167102818Y-105872469D01*
X167115058Y-105685166D01*
X167139574Y-105423571D01*
X167176944Y-105246854D01*
X167209389Y-105198333D01*
X167277956Y-105270066D01*
X167371893Y-105451495D01*
X167415812Y-105558331D01*
X167584634Y-105880938D01*
X167782276Y-106055377D01*
X167996510Y-106072502D01*
X168065283Y-106043956D01*
X168210327Y-105897060D01*
X168196825Y-105701632D01*
X168026211Y-105464636D01*
X167926657Y-105370528D01*
X167620647Y-105101848D01*
X167757323Y-104354788D01*
X167820880Y-103962945D01*
X167868702Y-103583456D01*
X167892669Y-103283582D01*
X167894000Y-103222694D01*
X167913772Y-102963293D01*
X167964231Y-102807527D01*
X168032091Y-102778018D01*
X168096794Y-102877410D01*
X168127404Y-103038806D01*
X168145705Y-103292905D01*
X168148000Y-103419655D01*
X168165639Y-103680608D01*
X168237073Y-103894820D01*
X168390075Y-104131986D01*
X168476503Y-104244049D01*
X168751628Y-104542063D01*
X169073373Y-104814707D01*
X169400290Y-105033150D01*
X169690928Y-105168561D01*
X169848745Y-105198510D01*
X169957267Y-105189643D01*
X170015717Y-105137573D01*
X170035961Y-105004462D01*
X170029861Y-104752468D01*
X170024197Y-104638880D01*
X170021793Y-104325855D01*
X170046154Y-104091316D01*
X170084551Y-103989915D01*
X170174763Y-103977828D01*
X170255599Y-104109204D01*
X170319674Y-104358185D01*
X170359602Y-104698913D01*
X170369251Y-104986666D01*
X170378564Y-105294406D01*
X170401982Y-105536900D01*
X170434490Y-105662777D01*
X170435387Y-105664000D01*
X170510217Y-105813205D01*
X170544116Y-105918000D01*
X170571936Y-105963804D01*
X170576671Y-105927536D01*
X171055770Y-105927536D01*
X171069000Y-105960333D01*
X171145082Y-106041103D01*
X171158663Y-106045000D01*
X171195029Y-105979494D01*
X171196000Y-105960333D01*
X171130912Y-105878920D01*
X171106336Y-105875666D01*
X171055770Y-105927536D01*
X170576671Y-105927536D01*
X170586057Y-105855658D01*
X170586849Y-105791000D01*
X170592190Y-105649888D01*
X170885555Y-105649888D01*
X170897177Y-105700223D01*
X170942000Y-105706333D01*
X171011690Y-105675355D01*
X170998444Y-105649888D01*
X170897964Y-105639755D01*
X170885555Y-105649888D01*
X170592190Y-105649888D01*
X170595935Y-105550959D01*
X170621081Y-105229420D01*
X170657363Y-104868047D01*
X170699853Y-104508502D01*
X170743625Y-104192449D01*
X170783752Y-103961552D01*
X170815308Y-103857473D01*
X170815498Y-103857278D01*
X170897307Y-103849286D01*
X170962193Y-103982196D01*
X171002835Y-104227851D01*
X171011912Y-104558092D01*
X171010353Y-104606771D01*
X171012350Y-104967639D01*
X171057673Y-105212863D01*
X171137203Y-105368771D01*
X171207755Y-105458836D01*
X171290360Y-105518134D01*
X171418231Y-105552441D01*
X171624583Y-105567534D01*
X171942629Y-105569189D01*
X172266623Y-105565199D01*
X172660951Y-105553335D01*
X172993576Y-105531743D01*
X173227649Y-105503582D01*
X173324311Y-105474555D01*
X173352038Y-105352069D01*
X173344978Y-105098367D01*
X173304102Y-104747748D01*
X173303624Y-104744530D01*
X173264124Y-104429057D01*
X173247009Y-104181777D01*
X173254994Y-104047143D01*
X173260421Y-104037022D01*
X173346286Y-104042665D01*
X173448611Y-104171981D01*
X173543964Y-104384075D01*
X173608916Y-104638053D01*
X173610474Y-104648000D01*
X173651768Y-104911194D01*
X173687479Y-105126944D01*
X173692600Y-105156000D01*
X173720595Y-105315662D01*
X173729522Y-105370366D01*
X173807542Y-105410397D01*
X173947666Y-105432918D01*
X174056796Y-105434292D01*
X174120093Y-105392363D01*
X174127027Y-105364580D01*
X174625375Y-105364580D01*
X174645292Y-105433064D01*
X174720613Y-105492201D01*
X174846567Y-105554168D01*
X174932865Y-105480793D01*
X174965011Y-105421981D01*
X175013009Y-105274518D01*
X174994099Y-105214009D01*
X174878336Y-105229080D01*
X174749702Y-105284229D01*
X174625375Y-105364580D01*
X174127027Y-105364580D01*
X174150167Y-105271878D01*
X174159625Y-105037590D01*
X174160629Y-104837551D01*
X174178137Y-104410628D01*
X174229619Y-104144727D01*
X174316747Y-104034647D01*
X174412199Y-104054632D01*
X174470598Y-104167054D01*
X174478543Y-104412797D01*
X174462119Y-104610656D01*
X174409573Y-105103352D01*
X174467180Y-105071333D01*
X175175333Y-105071333D01*
X175217666Y-105113666D01*
X175260000Y-105071333D01*
X175217666Y-105029000D01*
X175175333Y-105071333D01*
X174467180Y-105071333D01*
X174586496Y-105005015D01*
X175353251Y-105005015D01*
X175438088Y-104987250D01*
X175454151Y-104981223D01*
X175557829Y-104914150D01*
X175558573Y-104876018D01*
X175469008Y-104885515D01*
X175406755Y-104933827D01*
X175353251Y-105005015D01*
X174586496Y-105005015D01*
X174961786Y-104796423D01*
X175514000Y-104489495D01*
X175514000Y-104044577D01*
X175526221Y-103786198D01*
X175557553Y-103605482D01*
X175583743Y-103556556D01*
X175643858Y-103601448D01*
X175710993Y-103777546D01*
X175776364Y-104047463D01*
X175831185Y-104373811D01*
X175866672Y-104719203D01*
X175870037Y-104775000D01*
X175879524Y-105042697D01*
X175856315Y-105190288D01*
X175778233Y-105266671D01*
X175623104Y-105320746D01*
X175622456Y-105320937D01*
X175390200Y-105432614D01*
X175294778Y-105575773D01*
X175349209Y-105724437D01*
X175398574Y-105767599D01*
X175531328Y-105850073D01*
X175637313Y-105850865D01*
X175759115Y-105751746D01*
X175937333Y-105537000D01*
X176105302Y-105343302D01*
X176239580Y-105220735D01*
X176286030Y-105198333D01*
X176324527Y-105275141D01*
X176324880Y-105481964D01*
X176309444Y-105628429D01*
X176252390Y-106058525D01*
X176497028Y-106030596D01*
X176644727Y-106001511D01*
X176715693Y-105926801D01*
X176736612Y-105758511D01*
X176736346Y-105600500D01*
X176747562Y-105366088D01*
X176755449Y-105332960D01*
X177005265Y-105332960D01*
X177015388Y-105375009D01*
X177127393Y-105546267D01*
X177240222Y-105619001D01*
X177470538Y-105669586D01*
X177707922Y-105668661D01*
X177888425Y-105621216D01*
X177946397Y-105563898D01*
X177905633Y-105444343D01*
X177708363Y-105340916D01*
X177367125Y-105259861D01*
X177321165Y-105252553D01*
X177102227Y-105226172D01*
X177010083Y-105247706D01*
X177005265Y-105332960D01*
X176755449Y-105332960D01*
X176782072Y-105221140D01*
X176806901Y-105198333D01*
X176855092Y-105136797D01*
X176847217Y-105092500D01*
X176862301Y-104972867D01*
X176929409Y-104747109D01*
X177030332Y-104463181D01*
X177146859Y-104169041D01*
X177260781Y-103912644D01*
X177353891Y-103741946D01*
X177366651Y-103724505D01*
X177428827Y-103560331D01*
X177470246Y-103289082D01*
X177487516Y-102972124D01*
X177477241Y-102670823D01*
X177437147Y-102449789D01*
X177309572Y-102163623D01*
X177134916Y-101970683D01*
X176878950Y-101851148D01*
X176507443Y-101785199D01*
X176255070Y-101765376D01*
X175883501Y-101749929D01*
X175644345Y-101758933D01*
X175501955Y-101796140D01*
X175430897Y-101852115D01*
X175286670Y-101960750D01*
X175207299Y-101981000D01*
X175125204Y-102049429D01*
X175091317Y-102264154D01*
X175089839Y-102340833D01*
X175047879Y-102643337D01*
X174940028Y-102993563D01*
X174791551Y-103329086D01*
X174627711Y-103587478D01*
X174554885Y-103662638D01*
X174386749Y-103735899D01*
X174287310Y-103728757D01*
X174230670Y-103675213D01*
X174257656Y-103565814D01*
X174379074Y-103368214D01*
X174434399Y-103288505D01*
X174572749Y-103078750D01*
X174654937Y-102898152D01*
X174695434Y-102689820D01*
X174708711Y-102396861D01*
X174709666Y-102206387D01*
X174716139Y-101874444D01*
X174733332Y-101606157D01*
X174757904Y-101447988D01*
X174765480Y-101430021D01*
X174813892Y-101296690D01*
X174864534Y-101071957D01*
X174875817Y-101006688D01*
X174933070Y-100712921D01*
X175012975Y-100371528D01*
X175046079Y-100245333D01*
X175143407Y-99845809D01*
X175204336Y-99504034D01*
X175225296Y-99250585D01*
X175202713Y-99116034D01*
X175179613Y-99102333D01*
X175111387Y-99176362D01*
X175025082Y-99366324D01*
X174970550Y-99528896D01*
X174882225Y-99787759D01*
X174770984Y-100012849D01*
X174608796Y-100247837D01*
X174367627Y-100536390D01*
X174211729Y-100711011D01*
X174032091Y-100899501D01*
X173897812Y-100984481D01*
X173742932Y-100990044D01*
X173552442Y-100951825D01*
X173030582Y-100882464D01*
X172391974Y-100877710D01*
X171676153Y-100936989D01*
X171343048Y-100983822D01*
X170988411Y-101038078D01*
X170763151Y-101062268D01*
X170629509Y-101053505D01*
X170549724Y-101008903D01*
X170486036Y-100925577D01*
X170481023Y-100917941D01*
X170392937Y-100737041D01*
X170290793Y-100461161D01*
X170221503Y-100236009D01*
X170125784Y-99918010D01*
X170026999Y-99627335D01*
X169970456Y-99483333D01*
X169883610Y-99230299D01*
X169810623Y-98927316D01*
X169799587Y-98865169D01*
X169741156Y-98636676D01*
X169667490Y-98534243D01*
X169642659Y-98533584D01*
X169594971Y-98630616D01*
X169570932Y-98854521D01*
X169568258Y-99164837D01*
X169584665Y-99521102D01*
X169617872Y-99882854D01*
X169665595Y-100209628D01*
X169725550Y-100460965D01*
X169755785Y-100538410D01*
X169823984Y-100705246D01*
X169906628Y-100938732D01*
X169915163Y-100964675D01*
X169967034Y-101186449D01*
X169928679Y-101354834D01*
X169825774Y-101512152D01*
X169670011Y-101861106D01*
X169639058Y-102305188D01*
X169734120Y-102822628D01*
X169794352Y-103118417D01*
X169763343Y-103277591D01*
X169757471Y-103284062D01*
X169672974Y-103326988D01*
X169591994Y-103262136D01*
X169501974Y-103070389D01*
X169390355Y-102732625D01*
X169386150Y-102718741D01*
X169194242Y-102271099D01*
X168922506Y-101888754D01*
X168598116Y-101593924D01*
X168248246Y-101408826D01*
X167900072Y-101355677D01*
X167750007Y-101381065D01*
X167388661Y-101515268D01*
X167171499Y-101675778D01*
X167085386Y-101832743D01*
X166980207Y-102053714D01*
X166889152Y-102180699D01*
X166835675Y-102264470D01*
X166799273Y-102391111D01*
X166777866Y-102587901D01*
X166769376Y-102882117D01*
X166771723Y-103301036D01*
X166777831Y-103641326D01*
X166784183Y-104104017D01*
X166783885Y-104514435D01*
X166777414Y-104839172D01*
X166765246Y-105044816D01*
X166757146Y-105092627D01*
X166658885Y-105201055D01*
X166435023Y-105249760D01*
X166363310Y-105253811D01*
X165994762Y-105336032D01*
X165812495Y-105459070D01*
X165660107Y-105658878D01*
X165607949Y-105851905D01*
X165293673Y-105851905D01*
X165299155Y-105809362D01*
X165437139Y-105447908D01*
X165717186Y-105176396D01*
X166108629Y-105005825D01*
X166497000Y-104895934D01*
X166468385Y-103713633D01*
X166461156Y-103162243D01*
X166471278Y-102748659D01*
X166500687Y-102442058D01*
X166551316Y-102211619D01*
X166565338Y-102168533D01*
X166790540Y-101667942D01*
X167069345Y-101324350D01*
X167409946Y-101131623D01*
X167820536Y-101083628D01*
X167991243Y-101101233D01*
X168308190Y-101164885D01*
X168555753Y-101263804D01*
X168794960Y-101430515D01*
X169058166Y-101669849D01*
X169265627Y-101856299D01*
X169380109Y-101922269D01*
X169417814Y-101876709D01*
X169418000Y-101868649D01*
X169462860Y-101689593D01*
X169550149Y-101519357D01*
X169629576Y-101351477D01*
X169631732Y-101162050D01*
X169587786Y-100966684D01*
X169508043Y-100645378D01*
X169450799Y-100340057D01*
X169408802Y-99997908D01*
X169374800Y-99566118D01*
X169358251Y-99295260D01*
X169334452Y-98926232D01*
X169305472Y-98685062D01*
X169257863Y-98530475D01*
X169178176Y-98421196D01*
X169052963Y-98315953D01*
X169034566Y-98301883D01*
X168815252Y-98067889D01*
X168636993Y-97758649D01*
X168526676Y-97434977D01*
X168522530Y-97360733D01*
X168757104Y-97360733D01*
X168862604Y-97640620D01*
X169009204Y-97850688D01*
X169178686Y-98050505D01*
X169315350Y-98144226D01*
X169486481Y-98162334D01*
X169662029Y-98146430D01*
X170013138Y-98056301D01*
X170197825Y-97916011D01*
X170302752Y-97699238D01*
X170347091Y-97429964D01*
X170322075Y-97189605D01*
X170284536Y-97110711D01*
X170173362Y-97006986D01*
X169991850Y-96877401D01*
X169988081Y-96874996D01*
X169807256Y-96784621D01*
X169624792Y-96772531D01*
X169395414Y-96821328D01*
X169020286Y-96959676D01*
X168808591Y-97136615D01*
X168757104Y-97360733D01*
X168522530Y-97360733D01*
X168511188Y-97157688D01*
X168516856Y-97130906D01*
X168609216Y-96930623D01*
X168765029Y-96716955D01*
X168776914Y-96703901D01*
X168928608Y-96568774D01*
X169100765Y-96500762D01*
X169357722Y-96478571D01*
X169460495Y-96477666D01*
X169774087Y-96499801D01*
X169774087Y-96499801D01*
G37*
X169774087Y-96499801D02*
X170055032Y-96556374D01*
X170171500Y-96600271D01*
X170437981Y-96823336D01*
X170587965Y-97129722D01*
X170619348Y-97477896D01*
X170530027Y-97826328D01*
X170317898Y-98133486D01*
X170252189Y-98193365D01*
X170104476Y-98337012D01*
X170020603Y-98489477D01*
X170000279Y-98683185D01*
X170043213Y-98950563D01*
X170149114Y-99324037D01*
X170239519Y-99602786D01*
X170423405Y-100111361D01*
X170588684Y-100465203D01*
X170743282Y-100676818D01*
X170895125Y-100758714D01*
X170970007Y-100755481D01*
X171780923Y-100608272D01*
X172463208Y-100549578D01*
X173032282Y-100578898D01*
X173446211Y-100675250D01*
X173839674Y-100808834D01*
X174085667Y-100527084D01*
X174267991Y-100285469D01*
X174459168Y-99980374D01*
X174633965Y-99659055D01*
X174767147Y-99368767D01*
X174833482Y-99156767D01*
X174836666Y-99120670D01*
X174772783Y-98971713D01*
X174615098Y-98802880D01*
X174574882Y-98771299D01*
X174288110Y-98457527D01*
X174117666Y-98040401D01*
X174081195Y-97717077D01*
X174286206Y-97717077D01*
X174296772Y-97935287D01*
X174326268Y-98036733D01*
X174496462Y-98354368D01*
X174752655Y-98606713D01*
X175044626Y-98746971D01*
X175099199Y-98756982D01*
X175207232Y-98736396D01*
X175397355Y-98677455D01*
X175402628Y-98675622D01*
X175628759Y-98519539D01*
X175814648Y-98254886D01*
X175923381Y-97942394D01*
X175937333Y-97795898D01*
X175862361Y-97572140D01*
X175669446Y-97352742D01*
X175406587Y-97175778D01*
X175121786Y-97079320D01*
X175024220Y-97071629D01*
X174752219Y-97092068D01*
X174577739Y-97177241D01*
X174437092Y-97367165D01*
X174377958Y-97477684D01*
X174286206Y-97717077D01*
X174081195Y-97717077D01*
X174074666Y-97659206D01*
X174146001Y-97301621D01*
X174342650Y-97032839D01*
X174638579Y-96865719D01*
X175007755Y-96813118D01*
X175424144Y-96887897D01*
X175544837Y-96933073D01*
X175891248Y-97158461D01*
X176110244Y-97476066D01*
X176195077Y-97859305D01*
X176138997Y-98281594D01*
X175979389Y-98644777D01*
X175825270Y-98866973D01*
X175674562Y-99020606D01*
X175615196Y-99054753D01*
X175522586Y-99129318D01*
X175448674Y-99305811D01*
X175382182Y-99614090D01*
X175365191Y-99716537D01*
X175293736Y-100137062D01*
X175207044Y-100608649D01*
X175138017Y-100959244D01*
X175081258Y-101265085D01*
X175048979Y-101501056D01*
X175046898Y-101623460D01*
X175050231Y-101630119D01*
X175142707Y-101619323D01*
X175334141Y-101546339D01*
X175480068Y-101477871D01*
X175966361Y-101325150D01*
X176469184Y-101330874D01*
X176953266Y-101492271D01*
X177146801Y-101608792D01*
X177510192Y-101947417D01*
X177730664Y-102364722D01*
X177815507Y-102875861D01*
X177816714Y-103001147D01*
X177804660Y-103240409D01*
X177767767Y-103464737D01*
X177693914Y-103711518D01*
X177570981Y-104018138D01*
X177386847Y-104421984D01*
X177289660Y-104626833D01*
X177138033Y-104944333D01*
X177350387Y-104944333D01*
X177630533Y-104994995D01*
X177920459Y-105122538D01*
X178144697Y-105290292D01*
X178195841Y-105355107D01*
X178250819Y-105531112D01*
X178193256Y-105713559D01*
X178001234Y-105932456D01*
X177732580Y-106016005D01*
X177425011Y-105953748D01*
X177388592Y-105936639D01*
X177211175Y-105855712D01*
X177137502Y-105858125D01*
X177122671Y-105946116D01*
X177122666Y-105949889D01*
X177056303Y-106152621D01*
X176852956Y-106267482D01*
X176556117Y-106299000D01*
X176281967Y-106271862D01*
X176123422Y-106179579D01*
X176090963Y-106135984D01*
X176006906Y-106031608D01*
X175904993Y-106026183D01*
X175740713Y-106101443D01*
X175502886Y-106181339D01*
X175289446Y-106191147D01*
X175117359Y-106187852D01*
X175041315Y-106225687D01*
X174942903Y-106255989D01*
X174712650Y-106280192D01*
X174388021Y-106295346D01*
X174110188Y-106299000D01*
X173713569Y-106297051D01*
X173452766Y-106286571D01*
X173294267Y-106260605D01*
X173204560Y-106212200D01*
X173150135Y-106134402D01*
X173131876Y-106096000D01*
X173077408Y-105996440D01*
X173000569Y-105939473D01*
X172993045Y-105938264D01*
X173319722Y-105938264D01*
X173360305Y-105955813D01*
X173458014Y-105960333D01*
X173623623Y-105886371D01*
X173673802Y-105791000D01*
X173990000Y-105791000D01*
X174022168Y-105928630D01*
X174066740Y-105960333D01*
X174110291Y-105892906D01*
X174104173Y-105836695D01*
X174436737Y-105836695D01*
X174508905Y-105970610D01*
X174621398Y-106044125D01*
X174634058Y-106045000D01*
X174740870Y-106002115D01*
X174752000Y-105970700D01*
X174698334Y-105865117D01*
X174583259Y-105761217D01*
X174475657Y-105715465D01*
X174451627Y-105724483D01*
X174436737Y-105836695D01*
X174104173Y-105836695D01*
X174099198Y-105791000D01*
X174050047Y-105654218D01*
X174022458Y-105621666D01*
X173996040Y-105692916D01*
X173990000Y-105791000D01*
X173673802Y-105791000D01*
X173677903Y-105783206D01*
X173702237Y-105664292D01*
X173659099Y-105665290D01*
X173539611Y-105761137D01*
X173394133Y-105880938D01*
X173319722Y-105938264D01*
X172993045Y-105938264D01*
X172862449Y-105917281D01*
X172624134Y-105922042D01*
X172350525Y-105938979D01*
X172028529Y-105968687D01*
X171779279Y-106007173D01*
X171644694Y-106047433D01*
X171632940Y-106058823D01*
X171473844Y-106264761D01*
X171235627Y-106351847D01*
X171118697Y-106342950D01*
X170916164Y-106315583D01*
X170614527Y-106293894D01*
X170324838Y-106283699D01*
X169949760Y-106258850D01*
X169719414Y-106189845D01*
X169611736Y-106061748D01*
X169607466Y-105939662D01*
X169975037Y-105939662D01*
X170026484Y-105940949D01*
X170146611Y-105837352D01*
X170160597Y-105806875D01*
X170152728Y-105716306D01*
X170075466Y-105721549D01*
X169990573Y-105811303D01*
X169977334Y-105840408D01*
X169975037Y-105939662D01*
X169607466Y-105939662D01*
X169604665Y-105859620D01*
X169614599Y-105802835D01*
X169629641Y-105641362D01*
X169563397Y-105548632D01*
X169376187Y-105475287D01*
X169343258Y-105465310D01*
X169016580Y-105293383D01*
X168649945Y-104963713D01*
X168266869Y-104505051D01*
X168089405Y-104269440D01*
X167985887Y-104614953D01*
X167882368Y-104960467D01*
X168233043Y-105260631D01*
X168437892Y-105451176D01*
X168530294Y-105592267D01*
X168536781Y-105731196D01*
X168525358Y-105781731D01*
X168475560Y-106017833D01*
X168455666Y-106172000D01*
X168413878Y-106285175D01*
X168279501Y-106344274D01*
X168087734Y-106367210D01*
X167820904Y-106362923D01*
X167602097Y-106320062D01*
X167563706Y-106303481D01*
X167397466Y-106260266D01*
X167343808Y-106298771D01*
X167225391Y-106358701D01*
X167005889Y-106385689D01*
X166745827Y-106382073D01*
X166505727Y-106350191D01*
X166346113Y-106292383D01*
X166316881Y-106259092D01*
X166264258Y-106191044D01*
X166157630Y-106201891D01*
X165951913Y-106296323D01*
X165950048Y-106297274D01*
X165745238Y-106395387D01*
X165623346Y-106414173D01*
X165516697Y-106351736D01*
X165441017Y-106283018D01*
X165310018Y-106113201D01*
X165286609Y-105906739D01*
X165293673Y-105851905D01*
X165607949Y-105851905D01*
X165668754Y-105987323D01*
X165678523Y-105993925D01*
X165794309Y-105980070D01*
X165974233Y-105882770D01*
X166165375Y-105740942D01*
X166314820Y-105593502D01*
X166370000Y-105485406D01*
X166433288Y-105387607D01*
X166518166Y-105385267D01*
X166635443Y-105482126D01*
X166649517Y-105624308D01*
X166656124Y-105963822D01*
X166742100Y-106155391D01*
X166902159Y-106198663D01*
X167010158Y-106163439D01*
X167071226Y-106068742D01*
X167102818Y-105872469D01*
X167115058Y-105685166D01*
X167139574Y-105423571D01*
X167176944Y-105246854D01*
X167209389Y-105198333D01*
X167277956Y-105270066D01*
X167371893Y-105451495D01*
X167415812Y-105558331D01*
X167584634Y-105880938D01*
X167782276Y-106055377D01*
X167996510Y-106072502D01*
X168065283Y-106043956D01*
X168210327Y-105897060D01*
X168196825Y-105701632D01*
X168026211Y-105464636D01*
X167926657Y-105370528D01*
X167620647Y-105101848D01*
X167757323Y-104354788D01*
X167820880Y-103962945D01*
X167868702Y-103583456D01*
X167892669Y-103283582D01*
X167894000Y-103222694D01*
X167913772Y-102963293D01*
X167964231Y-102807527D01*
X168032091Y-102778018D01*
X168096794Y-102877410D01*
X168127404Y-103038806D01*
X168145705Y-103292905D01*
X168148000Y-103419655D01*
X168165639Y-103680608D01*
X168237073Y-103894820D01*
X168390075Y-104131986D01*
X168476503Y-104244049D01*
X168751628Y-104542063D01*
X169073373Y-104814707D01*
X169400290Y-105033150D01*
X169690928Y-105168561D01*
X169848745Y-105198510D01*
X169957267Y-105189643D01*
X170015717Y-105137573D01*
X170035961Y-105004462D01*
X170029861Y-104752468D01*
X170024197Y-104638880D01*
X170021793Y-104325855D01*
X170046154Y-104091316D01*
X170084551Y-103989915D01*
X170174763Y-103977828D01*
X170255599Y-104109204D01*
X170319674Y-104358185D01*
X170359602Y-104698913D01*
X170369251Y-104986666D01*
X170378564Y-105294406D01*
X170401982Y-105536900D01*
X170434490Y-105662777D01*
X170435387Y-105664000D01*
X170510217Y-105813205D01*
X170544116Y-105918000D01*
X170571936Y-105963804D01*
X170576671Y-105927536D01*
X171055770Y-105927536D01*
X171069000Y-105960333D01*
X171145082Y-106041103D01*
X171158663Y-106045000D01*
X171195029Y-105979494D01*
X171196000Y-105960333D01*
X171130912Y-105878920D01*
X171106336Y-105875666D01*
X171055770Y-105927536D01*
X170576671Y-105927536D01*
X170586057Y-105855658D01*
X170586849Y-105791000D01*
X170592190Y-105649888D01*
X170885555Y-105649888D01*
X170897177Y-105700223D01*
X170942000Y-105706333D01*
X171011690Y-105675355D01*
X170998444Y-105649888D01*
X170897964Y-105639755D01*
X170885555Y-105649888D01*
X170592190Y-105649888D01*
X170595935Y-105550959D01*
X170621081Y-105229420D01*
X170657363Y-104868047D01*
X170699853Y-104508502D01*
X170743625Y-104192449D01*
X170783752Y-103961552D01*
X170815308Y-103857473D01*
X170815498Y-103857278D01*
X170897307Y-103849286D01*
X170962193Y-103982196D01*
X171002835Y-104227851D01*
X171011912Y-104558092D01*
X171010353Y-104606771D01*
X171012350Y-104967639D01*
X171057673Y-105212863D01*
X171137203Y-105368771D01*
X171207755Y-105458836D01*
X171290360Y-105518134D01*
X171418231Y-105552441D01*
X171624583Y-105567534D01*
X171942629Y-105569189D01*
X172266623Y-105565199D01*
X172660951Y-105553335D01*
X172993576Y-105531743D01*
X173227649Y-105503582D01*
X173324311Y-105474555D01*
X173352038Y-105352069D01*
X173344978Y-105098367D01*
X173304102Y-104747748D01*
X173303624Y-104744530D01*
X173264124Y-104429057D01*
X173247009Y-104181777D01*
X173254994Y-104047143D01*
X173260421Y-104037022D01*
X173346286Y-104042665D01*
X173448611Y-104171981D01*
X173543964Y-104384075D01*
X173608916Y-104638053D01*
X173610474Y-104648000D01*
X173651768Y-104911194D01*
X173687479Y-105126944D01*
X173692600Y-105156000D01*
X173720595Y-105315662D01*
X173729522Y-105370366D01*
X173807542Y-105410397D01*
X173947666Y-105432918D01*
X174056796Y-105434292D01*
X174120093Y-105392363D01*
X174127027Y-105364580D01*
X174625375Y-105364580D01*
X174645292Y-105433064D01*
X174720613Y-105492201D01*
X174846567Y-105554168D01*
X174932865Y-105480793D01*
X174965011Y-105421981D01*
X175013009Y-105274518D01*
X174994099Y-105214009D01*
X174878336Y-105229080D01*
X174749702Y-105284229D01*
X174625375Y-105364580D01*
X174127027Y-105364580D01*
X174150167Y-105271878D01*
X174159625Y-105037590D01*
X174160629Y-104837551D01*
X174178137Y-104410628D01*
X174229619Y-104144727D01*
X174316747Y-104034647D01*
X174412199Y-104054632D01*
X174470598Y-104167054D01*
X174478543Y-104412797D01*
X174462119Y-104610656D01*
X174409573Y-105103352D01*
X174467180Y-105071333D01*
X175175333Y-105071333D01*
X175217666Y-105113666D01*
X175260000Y-105071333D01*
X175217666Y-105029000D01*
X175175333Y-105071333D01*
X174467180Y-105071333D01*
X174586496Y-105005015D01*
X175353251Y-105005015D01*
X175438088Y-104987250D01*
X175454151Y-104981223D01*
X175557829Y-104914150D01*
X175558573Y-104876018D01*
X175469008Y-104885515D01*
X175406755Y-104933827D01*
X175353251Y-105005015D01*
X174586496Y-105005015D01*
X174961786Y-104796423D01*
X175514000Y-104489495D01*
X175514000Y-104044577D01*
X175526221Y-103786198D01*
X175557553Y-103605482D01*
X175583743Y-103556556D01*
X175643858Y-103601448D01*
X175710993Y-103777546D01*
X175776364Y-104047463D01*
X175831185Y-104373811D01*
X175866672Y-104719203D01*
X175870037Y-104775000D01*
X175879524Y-105042697D01*
X175856315Y-105190288D01*
X175778233Y-105266671D01*
X175623104Y-105320746D01*
X175622456Y-105320937D01*
X175390200Y-105432614D01*
X175294778Y-105575773D01*
X175349209Y-105724437D01*
X175398574Y-105767599D01*
X175531328Y-105850073D01*
X175637313Y-105850865D01*
X175759115Y-105751746D01*
X175937333Y-105537000D01*
X176105302Y-105343302D01*
X176239580Y-105220735D01*
X176286030Y-105198333D01*
X176324527Y-105275141D01*
X176324880Y-105481964D01*
X176309444Y-105628429D01*
X176252390Y-106058525D01*
X176497028Y-106030596D01*
X176644727Y-106001511D01*
X176715693Y-105926801D01*
X176736612Y-105758511D01*
X176736346Y-105600500D01*
X176747562Y-105366088D01*
X176755449Y-105332960D01*
X177005265Y-105332960D01*
X177015388Y-105375009D01*
X177127393Y-105546267D01*
X177240222Y-105619001D01*
X177470538Y-105669586D01*
X177707922Y-105668661D01*
X177888425Y-105621216D01*
X177946397Y-105563898D01*
X177905633Y-105444343D01*
X177708363Y-105340916D01*
X177367125Y-105259861D01*
X177321165Y-105252553D01*
X177102227Y-105226172D01*
X177010083Y-105247706D01*
X177005265Y-105332960D01*
X176755449Y-105332960D01*
X176782072Y-105221140D01*
X176806901Y-105198333D01*
X176855092Y-105136797D01*
X176847217Y-105092500D01*
X176862301Y-104972867D01*
X176929409Y-104747109D01*
X177030332Y-104463181D01*
X177146859Y-104169041D01*
X177260781Y-103912644D01*
X177353891Y-103741946D01*
X177366651Y-103724505D01*
X177428827Y-103560331D01*
X177470246Y-103289082D01*
X177487516Y-102972124D01*
X177477241Y-102670823D01*
X177437147Y-102449789D01*
X177309572Y-102163623D01*
X177134916Y-101970683D01*
X176878950Y-101851148D01*
X176507443Y-101785199D01*
X176255070Y-101765376D01*
X175883501Y-101749929D01*
X175644345Y-101758933D01*
X175501955Y-101796140D01*
X175430897Y-101852115D01*
X175286670Y-101960750D01*
X175207299Y-101981000D01*
X175125204Y-102049429D01*
X175091317Y-102264154D01*
X175089839Y-102340833D01*
X175047879Y-102643337D01*
X174940028Y-102993563D01*
X174791551Y-103329086D01*
X174627711Y-103587478D01*
X174554885Y-103662638D01*
X174386749Y-103735899D01*
X174287310Y-103728757D01*
X174230670Y-103675213D01*
X174257656Y-103565814D01*
X174379074Y-103368214D01*
X174434399Y-103288505D01*
X174572749Y-103078750D01*
X174654937Y-102898152D01*
X174695434Y-102689820D01*
X174708711Y-102396861D01*
X174709666Y-102206387D01*
X174716139Y-101874444D01*
X174733332Y-101606157D01*
X174757904Y-101447988D01*
X174765480Y-101430021D01*
X174813892Y-101296690D01*
X174864534Y-101071957D01*
X174875817Y-101006688D01*
X174933070Y-100712921D01*
X175012975Y-100371528D01*
X175046079Y-100245333D01*
X175143407Y-99845809D01*
X175204336Y-99504034D01*
X175225296Y-99250585D01*
X175202713Y-99116034D01*
X175179613Y-99102333D01*
X175111387Y-99176362D01*
X175025082Y-99366324D01*
X174970550Y-99528896D01*
X174882225Y-99787759D01*
X174770984Y-100012849D01*
X174608796Y-100247837D01*
X174367627Y-100536390D01*
X174211729Y-100711011D01*
X174032091Y-100899501D01*
X173897812Y-100984481D01*
X173742932Y-100990044D01*
X173552442Y-100951825D01*
X173030582Y-100882464D01*
X172391974Y-100877710D01*
X171676153Y-100936989D01*
X171343048Y-100983822D01*
X170988411Y-101038078D01*
X170763151Y-101062268D01*
X170629509Y-101053505D01*
X170549724Y-101008903D01*
X170486036Y-100925577D01*
X170481023Y-100917941D01*
X170392937Y-100737041D01*
X170290793Y-100461161D01*
X170221503Y-100236009D01*
X170125784Y-99918010D01*
X170026999Y-99627335D01*
X169970456Y-99483333D01*
X169883610Y-99230299D01*
X169810623Y-98927316D01*
X169799587Y-98865169D01*
X169741156Y-98636676D01*
X169667490Y-98534243D01*
X169642659Y-98533584D01*
X169594971Y-98630616D01*
X169570932Y-98854521D01*
X169568258Y-99164837D01*
X169584665Y-99521102D01*
X169617872Y-99882854D01*
X169665595Y-100209628D01*
X169725550Y-100460965D01*
X169755785Y-100538410D01*
X169823984Y-100705246D01*
X169906628Y-100938732D01*
X169915163Y-100964675D01*
X169967034Y-101186449D01*
X169928679Y-101354834D01*
X169825774Y-101512152D01*
X169670011Y-101861106D01*
X169639058Y-102305188D01*
X169734120Y-102822628D01*
X169794352Y-103118417D01*
X169763343Y-103277591D01*
X169757471Y-103284062D01*
X169672974Y-103326988D01*
X169591994Y-103262136D01*
X169501974Y-103070389D01*
X169390355Y-102732625D01*
X169386150Y-102718741D01*
X169194242Y-102271099D01*
X168922506Y-101888754D01*
X168598116Y-101593924D01*
X168248246Y-101408826D01*
X167900072Y-101355677D01*
X167750007Y-101381065D01*
X167388661Y-101515268D01*
X167171499Y-101675778D01*
X167085386Y-101832743D01*
X166980207Y-102053714D01*
X166889152Y-102180699D01*
X166835675Y-102264470D01*
X166799273Y-102391111D01*
X166777866Y-102587901D01*
X166769376Y-102882117D01*
X166771723Y-103301036D01*
X166777831Y-103641326D01*
X166784183Y-104104017D01*
X166783885Y-104514435D01*
X166777414Y-104839172D01*
X166765246Y-105044816D01*
X166757146Y-105092627D01*
X166658885Y-105201055D01*
X166435023Y-105249760D01*
X166363310Y-105253811D01*
X165994762Y-105336032D01*
X165812495Y-105459070D01*
X165660107Y-105658878D01*
X165607949Y-105851905D01*
X165293673Y-105851905D01*
X165299155Y-105809362D01*
X165437139Y-105447908D01*
X165717186Y-105176396D01*
X166108629Y-105005825D01*
X166497000Y-104895934D01*
X166468385Y-103713633D01*
X166461156Y-103162243D01*
X166471278Y-102748659D01*
X166500687Y-102442058D01*
X166551316Y-102211619D01*
X166565338Y-102168533D01*
X166790540Y-101667942D01*
X167069345Y-101324350D01*
X167409946Y-101131623D01*
X167820536Y-101083628D01*
X167991243Y-101101233D01*
X168308190Y-101164885D01*
X168555753Y-101263804D01*
X168794960Y-101430515D01*
X169058166Y-101669849D01*
X169265627Y-101856299D01*
X169380109Y-101922269D01*
X169417814Y-101876709D01*
X169418000Y-101868649D01*
X169462860Y-101689593D01*
X169550149Y-101519357D01*
X169629576Y-101351477D01*
X169631732Y-101162050D01*
X169587786Y-100966684D01*
X169508043Y-100645378D01*
X169450799Y-100340057D01*
X169408802Y-99997908D01*
X169374800Y-99566118D01*
X169358251Y-99295260D01*
X169334452Y-98926232D01*
X169305472Y-98685062D01*
X169257863Y-98530475D01*
X169178176Y-98421196D01*
X169052963Y-98315953D01*
X169034566Y-98301883D01*
X168815252Y-98067889D01*
X168636993Y-97758649D01*
X168526676Y-97434977D01*
X168522530Y-97360733D01*
X168757104Y-97360733D01*
X168862604Y-97640620D01*
X169009204Y-97850688D01*
X169178686Y-98050505D01*
X169315350Y-98144226D01*
X169486481Y-98162334D01*
X169662029Y-98146430D01*
X170013138Y-98056301D01*
X170197825Y-97916011D01*
X170302752Y-97699238D01*
X170347091Y-97429964D01*
X170322075Y-97189605D01*
X170284536Y-97110711D01*
X170173362Y-97006986D01*
X169991850Y-96877401D01*
X169988081Y-96874996D01*
X169807256Y-96784621D01*
X169624792Y-96772531D01*
X169395414Y-96821328D01*
X169020286Y-96959676D01*
X168808591Y-97136615D01*
X168757104Y-97360733D01*
X168522530Y-97360733D01*
X168511188Y-97157688D01*
X168516856Y-97130906D01*
X168609216Y-96930623D01*
X168765029Y-96716955D01*
X168776914Y-96703901D01*
X168928608Y-96568774D01*
X169100765Y-96500762D01*
X169357722Y-96478571D01*
X169460495Y-96477666D01*
X169774087Y-96499801D01*
G36*
X171873333Y-101531323D02*
G01*
X172306959Y-101555275D01*
X172775677Y-101615698D01*
X173238366Y-101703551D01*
X173653905Y-101809791D01*
X173981174Y-101925375D01*
X174174921Y-102037440D01*
X174308182Y-102262024D01*
X174294104Y-102539897D01*
X174219833Y-102708117D01*
X174036647Y-102978092D01*
X173821219Y-103231176D01*
X173612612Y-103426577D01*
X173449888Y-103523505D01*
X173436188Y-103526447D01*
X173241012Y-103581385D01*
X173163594Y-103618839D01*
X172984057Y-103674470D01*
X172687556Y-103711290D01*
X172325475Y-103728749D01*
X171949196Y-103726295D01*
X171610101Y-103703380D01*
X171359572Y-103659451D01*
X171301833Y-103638787D01*
X171119605Y-103535298D01*
X171028916Y-103444006D01*
X171026666Y-103432703D01*
X170955425Y-103352044D01*
X170783031Y-103267356D01*
X170773519Y-103263984D01*
X170478265Y-103106232D01*
X170243045Y-102880543D01*
X170110321Y-102632895D01*
X170095333Y-102529615D01*
X170096241Y-102523663D01*
X170354572Y-102523663D01*
X170384524Y-102635073D01*
X170465966Y-102658333D01*
X170618070Y-102717938D01*
X170676561Y-102771550D01*
X170802199Y-102840824D01*
X171045248Y-102917410D01*
X171355345Y-102985715D01*
X171385428Y-102991028D01*
X171712857Y-103052415D01*
X171991873Y-103113262D01*
X172164595Y-103160892D01*
X172169666Y-103162800D01*
X172382054Y-103185884D01*
X172535011Y-103154989D01*
X172777023Y-103097508D01*
X172962935Y-103081666D01*
X173190163Y-103034192D01*
X173454132Y-102912766D01*
X173707085Y-102748881D01*
X173901263Y-102574031D01*
X173988908Y-102419709D01*
X173990000Y-102404382D01*
X173906572Y-102252739D01*
X173659997Y-102117352D01*
X173255839Y-101999961D01*
X172699660Y-101902306D01*
X172199068Y-101844307D01*
X171601056Y-101819359D01*
X171133443Y-101876263D01*
X170776372Y-102018790D01*
X170607384Y-102146549D01*
X170431905Y-102349798D01*
X170354572Y-102523663D01*
X170096241Y-102523663D01*
X170136372Y-102260679D01*
X170277577Y-102043748D01*
X170546079Y-101844691D01*
X170712206Y-101753631D01*
X170964489Y-101636673D01*
X171197746Y-101568499D01*
X171473741Y-101537285D01*
X171854239Y-101531205D01*
X171873333Y-101531323D01*
X171873333Y-101531323D01*
G37*
X171873333Y-101531323D02*
X172306959Y-101555275D01*
X172775677Y-101615698D01*
X173238366Y-101703551D01*
X173653905Y-101809791D01*
X173981174Y-101925375D01*
X174174921Y-102037440D01*
X174308182Y-102262024D01*
X174294104Y-102539897D01*
X174219833Y-102708117D01*
X174036647Y-102978092D01*
X173821219Y-103231176D01*
X173612612Y-103426577D01*
X173449888Y-103523505D01*
X173436188Y-103526447D01*
X173241012Y-103581385D01*
X173163594Y-103618839D01*
X172984057Y-103674470D01*
X172687556Y-103711290D01*
X172325475Y-103728749D01*
X171949196Y-103726295D01*
X171610101Y-103703380D01*
X171359572Y-103659451D01*
X171301833Y-103638787D01*
X171119605Y-103535298D01*
X171028916Y-103444006D01*
X171026666Y-103432703D01*
X170955425Y-103352044D01*
X170783031Y-103267356D01*
X170773519Y-103263984D01*
X170478265Y-103106232D01*
X170243045Y-102880543D01*
X170110321Y-102632895D01*
X170095333Y-102529615D01*
X170096241Y-102523663D01*
X170354572Y-102523663D01*
X170384524Y-102635073D01*
X170465966Y-102658333D01*
X170618070Y-102717938D01*
X170676561Y-102771550D01*
X170802199Y-102840824D01*
X171045248Y-102917410D01*
X171355345Y-102985715D01*
X171385428Y-102991028D01*
X171712857Y-103052415D01*
X171991873Y-103113262D01*
X172164595Y-103160892D01*
X172169666Y-103162800D01*
X172382054Y-103185884D01*
X172535011Y-103154989D01*
X172777023Y-103097508D01*
X172962935Y-103081666D01*
X173190163Y-103034192D01*
X173454132Y-102912766D01*
X173707085Y-102748881D01*
X173901263Y-102574031D01*
X173988908Y-102419709D01*
X173990000Y-102404382D01*
X173906572Y-102252739D01*
X173659997Y-102117352D01*
X173255839Y-101999961D01*
X172699660Y-101902306D01*
X172199068Y-101844307D01*
X171601056Y-101819359D01*
X171133443Y-101876263D01*
X170776372Y-102018790D01*
X170607384Y-102146549D01*
X170431905Y-102349798D01*
X170354572Y-102523663D01*
X170096241Y-102523663D01*
X170136372Y-102260679D01*
X170277577Y-102043748D01*
X170546079Y-101844691D01*
X170712206Y-101753631D01*
X170964489Y-101636673D01*
X171197746Y-101568499D01*
X171473741Y-101537285D01*
X171854239Y-101531205D01*
X171873333Y-101531323D01*
G36*
X175142963Y-97559649D02*
G01*
X175261196Y-97707271D01*
X175294434Y-97861044D01*
X175289677Y-97877116D01*
X175176085Y-97981673D01*
X175010737Y-97989727D01*
X174880671Y-97901783D01*
X174867284Y-97874666D01*
X174851008Y-97698514D01*
X174909099Y-97546311D01*
X174997295Y-97493666D01*
X175142963Y-97559649D01*
X175142963Y-97559649D01*
G37*
X175142963Y-97559649D02*
X175261196Y-97707271D01*
X175294434Y-97861044D01*
X175289677Y-97877116D01*
X175176085Y-97981673D01*
X175010737Y-97989727D01*
X174880671Y-97901783D01*
X174867284Y-97874666D01*
X174851008Y-97698514D01*
X174909099Y-97546311D01*
X174997295Y-97493666D01*
X175142963Y-97559649D01*
G36*
X169697678Y-97232078D02*
G01*
X169792524Y-97393818D01*
X169799000Y-97460560D01*
X169733963Y-97596624D01*
X169582534Y-97647294D01*
X169410236Y-97601982D01*
X169333197Y-97535836D01*
X169267428Y-97410541D01*
X169332587Y-97289949D01*
X169363361Y-97258019D01*
X169535072Y-97177722D01*
X169697678Y-97232078D01*
X169697678Y-97232078D01*
G37*
X169697678Y-97232078D02*
X169792524Y-97393818D01*
X169799000Y-97460560D01*
X169733963Y-97596624D01*
X169582534Y-97647294D01*
X169410236Y-97601982D01*
X169333197Y-97535836D01*
X169267428Y-97410541D01*
X169332587Y-97289949D01*
X169363361Y-97258019D01*
X169535072Y-97177722D01*
X169697678Y-97232078D01*
G36*
X170926105Y-102180472D02*
G01*
X171179489Y-102237655D01*
X171562498Y-102342236D01*
X171679441Y-102375534D01*
X171991848Y-102455979D01*
X172218698Y-102481868D01*
X172433776Y-102455944D01*
X172610774Y-102410173D01*
X172884997Y-102339733D01*
X173114715Y-102294000D01*
X173185666Y-102285872D01*
X173350360Y-102310705D01*
X173372562Y-102393594D01*
X173258229Y-102511129D01*
X173106068Y-102598642D01*
X172732493Y-102720132D01*
X172277013Y-102784571D01*
X171816307Y-102786701D01*
X171427052Y-102721265D01*
X171407666Y-102715083D01*
X171018426Y-102567403D01*
X170783991Y-102429948D01*
X170690866Y-102294274D01*
X170688000Y-102264744D01*
X170705932Y-102196874D01*
X170776777Y-102167831D01*
X170926105Y-102180472D01*
X170926105Y-102180472D01*
G37*
X170926105Y-102180472D02*
X171179489Y-102237655D01*
X171562498Y-102342236D01*
X171679441Y-102375534D01*
X171991848Y-102455979D01*
X172218698Y-102481868D01*
X172433776Y-102455944D01*
X172610774Y-102410173D01*
X172884997Y-102339733D01*
X173114715Y-102294000D01*
X173185666Y-102285872D01*
X173350360Y-102310705D01*
X173372562Y-102393594D01*
X173258229Y-102511129D01*
X173106068Y-102598642D01*
X172732493Y-102720132D01*
X172277013Y-102784571D01*
X171816307Y-102786701D01*
X171427052Y-102721265D01*
X171407666Y-102715083D01*
X171018426Y-102567403D01*
X170783991Y-102429948D01*
X170690866Y-102294274D01*
X170688000Y-102264744D01*
X170705932Y-102196874D01*
X170776777Y-102167831D01*
X170926105Y-102180472D01*
D13*
X257568000Y-102870000D02*
G75*
G03X257568000Y-102870000I-5120000J0D01*
G01*
X252448000Y-97790000D02*
X252448000Y-107950000D01*
X252488000Y-97790000D02*
X252488000Y-107950000D01*
X252528000Y-97790000D02*
X252528000Y-107950000D01*
X252568000Y-97791000D02*
X252568000Y-107949000D01*
X252608000Y-97792000D02*
X252608000Y-107948000D01*
X252648000Y-97793000D02*
X252648000Y-107947000D01*
X252688000Y-97795000D02*
X252688000Y-107945000D01*
X252728000Y-97797000D02*
X252728000Y-107943000D01*
X252768000Y-97800000D02*
X252768000Y-107940000D01*
X252808000Y-97802000D02*
X252808000Y-107938000D01*
X252848000Y-97805000D02*
X252848000Y-107935000D01*
X252888000Y-97808000D02*
X252888000Y-107932000D01*
X252928000Y-97812000D02*
X252928000Y-107928000D01*
X252968000Y-97816000D02*
X252968000Y-101629000D01*
X252968000Y-104111000D02*
X252968000Y-107924000D01*
X253008000Y-97820000D02*
X253008000Y-101629000D01*
X253008000Y-104111000D02*
X253008000Y-107920000D01*
X253048000Y-97825000D02*
X253048000Y-101629000D01*
X253048000Y-104111000D02*
X253048000Y-107915000D01*
X253088000Y-97830000D02*
X253088000Y-101629000D01*
X253088000Y-104111000D02*
X253088000Y-107910000D01*
X253128000Y-97835000D02*
X253128000Y-101629000D01*
X253128000Y-104111000D02*
X253128000Y-107905000D01*
X253169000Y-97840000D02*
X253169000Y-101629000D01*
X253169000Y-104111000D02*
X253169000Y-107900000D01*
X253209000Y-97846000D02*
X253209000Y-101629000D01*
X253209000Y-104111000D02*
X253209000Y-107894000D01*
X253249000Y-97852000D02*
X253249000Y-101629000D01*
X253249000Y-104111000D02*
X253249000Y-107888000D01*
X253289000Y-97859000D02*
X253289000Y-101629000D01*
X253289000Y-104111000D02*
X253289000Y-107881000D01*
X253329000Y-97866000D02*
X253329000Y-101629000D01*
X253329000Y-104111000D02*
X253329000Y-107874000D01*
X253369000Y-97873000D02*
X253369000Y-101629000D01*
X253369000Y-104111000D02*
X253369000Y-107867000D01*
X253409000Y-97880000D02*
X253409000Y-101629000D01*
X253409000Y-104111000D02*
X253409000Y-107860000D01*
X253449000Y-97888000D02*
X253449000Y-101629000D01*
X253449000Y-104111000D02*
X253449000Y-107852000D01*
X253489000Y-97896000D02*
X253489000Y-101629000D01*
X253489000Y-104111000D02*
X253489000Y-107844000D01*
X253529000Y-97905000D02*
X253529000Y-101629000D01*
X253529000Y-104111000D02*
X253529000Y-107835000D01*
X253569000Y-97914000D02*
X253569000Y-101629000D01*
X253569000Y-104111000D02*
X253569000Y-107826000D01*
X253609000Y-97923000D02*
X253609000Y-101629000D01*
X253609000Y-104111000D02*
X253609000Y-107817000D01*
X253649000Y-97932000D02*
X253649000Y-101629000D01*
X253649000Y-104111000D02*
X253649000Y-107808000D01*
X253689000Y-97942000D02*
X253689000Y-101629000D01*
X253689000Y-104111000D02*
X253689000Y-107798000D01*
X253729000Y-97952000D02*
X253729000Y-101629000D01*
X253729000Y-104111000D02*
X253729000Y-107788000D01*
X253769000Y-97963000D02*
X253769000Y-101629000D01*
X253769000Y-104111000D02*
X253769000Y-107777000D01*
X253809000Y-97973000D02*
X253809000Y-101629000D01*
X253809000Y-104111000D02*
X253809000Y-107767000D01*
X253849000Y-97985000D02*
X253849000Y-101629000D01*
X253849000Y-104111000D02*
X253849000Y-107755000D01*
X253889000Y-97996000D02*
X253889000Y-101629000D01*
X253889000Y-104111000D02*
X253889000Y-107744000D01*
X253929000Y-98008000D02*
X253929000Y-101629000D01*
X253929000Y-104111000D02*
X253929000Y-107732000D01*
X253969000Y-98020000D02*
X253969000Y-101629000D01*
X253969000Y-104111000D02*
X253969000Y-107720000D01*
X254009000Y-98033000D02*
X254009000Y-101629000D01*
X254009000Y-104111000D02*
X254009000Y-107707000D01*
X254049000Y-98046000D02*
X254049000Y-101629000D01*
X254049000Y-104111000D02*
X254049000Y-107694000D01*
X254089000Y-98059000D02*
X254089000Y-101629000D01*
X254089000Y-104111000D02*
X254089000Y-107681000D01*
X254129000Y-98073000D02*
X254129000Y-101629000D01*
X254129000Y-104111000D02*
X254129000Y-107667000D01*
X254169000Y-98087000D02*
X254169000Y-101629000D01*
X254169000Y-104111000D02*
X254169000Y-107653000D01*
X254209000Y-98102000D02*
X254209000Y-101629000D01*
X254209000Y-104111000D02*
X254209000Y-107638000D01*
X254249000Y-98116000D02*
X254249000Y-101629000D01*
X254249000Y-104111000D02*
X254249000Y-107624000D01*
X254289000Y-98132000D02*
X254289000Y-101629000D01*
X254289000Y-104111000D02*
X254289000Y-107608000D01*
X254329000Y-98147000D02*
X254329000Y-101629000D01*
X254329000Y-104111000D02*
X254329000Y-107593000D01*
X254369000Y-98163000D02*
X254369000Y-101629000D01*
X254369000Y-104111000D02*
X254369000Y-107577000D01*
X254409000Y-98180000D02*
X254409000Y-101629000D01*
X254409000Y-104111000D02*
X254409000Y-107560000D01*
X254449000Y-98196000D02*
X254449000Y-101629000D01*
X254449000Y-104111000D02*
X254449000Y-107544000D01*
X254489000Y-98213000D02*
X254489000Y-101629000D01*
X254489000Y-104111000D02*
X254489000Y-107527000D01*
X254529000Y-98231000D02*
X254529000Y-101629000D01*
X254529000Y-104111000D02*
X254529000Y-107509000D01*
X254569000Y-98249000D02*
X254569000Y-101629000D01*
X254569000Y-104111000D02*
X254569000Y-107491000D01*
X254609000Y-98267000D02*
X254609000Y-101629000D01*
X254609000Y-104111000D02*
X254609000Y-107473000D01*
X254649000Y-98286000D02*
X254649000Y-101629000D01*
X254649000Y-104111000D02*
X254649000Y-107454000D01*
X254689000Y-98306000D02*
X254689000Y-101629000D01*
X254689000Y-104111000D02*
X254689000Y-107434000D01*
X254729000Y-98325000D02*
X254729000Y-101629000D01*
X254729000Y-104111000D02*
X254729000Y-107415000D01*
X254769000Y-98345000D02*
X254769000Y-101629000D01*
X254769000Y-104111000D02*
X254769000Y-107395000D01*
X254809000Y-98366000D02*
X254809000Y-101629000D01*
X254809000Y-104111000D02*
X254809000Y-107374000D01*
X254849000Y-98387000D02*
X254849000Y-101629000D01*
X254849000Y-104111000D02*
X254849000Y-107353000D01*
X254889000Y-98408000D02*
X254889000Y-101629000D01*
X254889000Y-104111000D02*
X254889000Y-107332000D01*
X254929000Y-98430000D02*
X254929000Y-101629000D01*
X254929000Y-104111000D02*
X254929000Y-107310000D01*
X254969000Y-98453000D02*
X254969000Y-101629000D01*
X254969000Y-104111000D02*
X254969000Y-107287000D01*
X255009000Y-98475000D02*
X255009000Y-101629000D01*
X255009000Y-104111000D02*
X255009000Y-107265000D01*
X255049000Y-98499000D02*
X255049000Y-101629000D01*
X255049000Y-104111000D02*
X255049000Y-107241000D01*
X255089000Y-98523000D02*
X255089000Y-101629000D01*
X255089000Y-104111000D02*
X255089000Y-107217000D01*
X255129000Y-98547000D02*
X255129000Y-101629000D01*
X255129000Y-104111000D02*
X255129000Y-107193000D01*
X255169000Y-98572000D02*
X255169000Y-101629000D01*
X255169000Y-104111000D02*
X255169000Y-107168000D01*
X255209000Y-98597000D02*
X255209000Y-101629000D01*
X255209000Y-104111000D02*
X255209000Y-107143000D01*
X255249000Y-98623000D02*
X255249000Y-101629000D01*
X255249000Y-104111000D02*
X255249000Y-107117000D01*
X255289000Y-98649000D02*
X255289000Y-101629000D01*
X255289000Y-104111000D02*
X255289000Y-107091000D01*
X255329000Y-98676000D02*
X255329000Y-101629000D01*
X255329000Y-104111000D02*
X255329000Y-107064000D01*
X255369000Y-98704000D02*
X255369000Y-101629000D01*
X255369000Y-104111000D02*
X255369000Y-107036000D01*
X255409000Y-98732000D02*
X255409000Y-101629000D01*
X255409000Y-104111000D02*
X255409000Y-107008000D01*
X255449000Y-98760000D02*
X255449000Y-106980000D01*
X255489000Y-98790000D02*
X255489000Y-106950000D01*
X255529000Y-98820000D02*
X255529000Y-106920000D01*
X255569000Y-98850000D02*
X255569000Y-106890000D01*
X255609000Y-98881000D02*
X255609000Y-106859000D01*
X255649000Y-98913000D02*
X255649000Y-106827000D01*
X255689000Y-98945000D02*
X255689000Y-106795000D01*
X255729000Y-98978000D02*
X255729000Y-106762000D01*
X255769000Y-99012000D02*
X255769000Y-106728000D01*
X255809000Y-99046000D02*
X255809000Y-106694000D01*
X255849000Y-99081000D02*
X255849000Y-106659000D01*
X255889000Y-99117000D02*
X255889000Y-106623000D01*
X255929000Y-99154000D02*
X255929000Y-106586000D01*
X255969000Y-99191000D02*
X255969000Y-106549000D01*
X256009000Y-99230000D02*
X256009000Y-106510000D01*
X256049000Y-99269000D02*
X256049000Y-106471000D01*
X256089000Y-99309000D02*
X256089000Y-106431000D01*
X256129000Y-99350000D02*
X256129000Y-106390000D01*
X256169000Y-99392000D02*
X256169000Y-106348000D01*
X256209000Y-99434000D02*
X256209000Y-106306000D01*
X256249000Y-99478000D02*
X256249000Y-106262000D01*
X256289000Y-99523000D02*
X256289000Y-106217000D01*
X256329000Y-99569000D02*
X256329000Y-106171000D01*
X256369000Y-99616000D02*
X256369000Y-106124000D01*
X256409000Y-99664000D02*
X256409000Y-106076000D01*
X256449000Y-99714000D02*
X256449000Y-106026000D01*
X256489000Y-99764000D02*
X256489000Y-105976000D01*
X256529000Y-99816000D02*
X256529000Y-105924000D01*
X256569000Y-99870000D02*
X256569000Y-105870000D01*
X256609000Y-99925000D02*
X256609000Y-105815000D01*
X256649000Y-99981000D02*
X256649000Y-105759000D01*
X256689000Y-100040000D02*
X256689000Y-105700000D01*
X256729000Y-100100000D02*
X256729000Y-105640000D01*
X256769000Y-100161000D02*
X256769000Y-105579000D01*
X256809000Y-100225000D02*
X256809000Y-105515000D01*
X256849000Y-100291000D02*
X256849000Y-105449000D01*
X256889000Y-100360000D02*
X256889000Y-105380000D01*
X256929000Y-100431000D02*
X256929000Y-105309000D01*
X256969000Y-100505000D02*
X256969000Y-105235000D01*
X257009000Y-100581000D02*
X257009000Y-105159000D01*
X257049000Y-100661000D02*
X257049000Y-105079000D01*
X257089000Y-100745000D02*
X257089000Y-104995000D01*
X257129000Y-100833000D02*
X257129000Y-104907000D01*
X257169000Y-100926000D02*
X257169000Y-104814000D01*
X257209000Y-101024000D02*
X257209000Y-104716000D01*
X257249000Y-101128000D02*
X257249000Y-104612000D01*
X257289000Y-101240000D02*
X257289000Y-104500000D01*
X257329000Y-101360000D02*
X257329000Y-104380000D01*
X257369000Y-101492000D02*
X257369000Y-104248000D01*
X257409000Y-101640000D02*
X257409000Y-104100000D01*
X257449000Y-101808000D02*
X257449000Y-103932000D01*
X257489000Y-102008000D02*
X257489000Y-103732000D01*
X257529000Y-102271000D02*
X257529000Y-103469000D01*
X246968354Y-99995000D02*
X247968354Y-99995000D01*
X247468354Y-99495000D02*
X247468354Y-100495000D01*
X220716000Y-104168260D02*
G75*
G03X220716000Y-98459740I-1260000J2854260D01*
G01*
X218196000Y-104168260D02*
G75*
G02X218196000Y-98459740I1260000J2854260D01*
G01*
X222663000Y-91594000D02*
X222663000Y-94334000D01*
X222663000Y-94334000D02*
X229203000Y-94334000D01*
X229203000Y-94334000D02*
X229203000Y-91594000D01*
X229203000Y-91594000D02*
X222663000Y-91594000D01*
X221893000Y-92964000D02*
X222663000Y-92964000D01*
X229973000Y-92964000D02*
X229203000Y-92964000D01*
X130906000Y-95300000D02*
X130906000Y-102740000D01*
X127666000Y-95300000D02*
X127666000Y-102740000D01*
X130906000Y-95300000D02*
X127666000Y-95300000D01*
X130906000Y-102740000D02*
X127666000Y-102740000D01*
X182930000Y-107600000D02*
X190370000Y-107600000D01*
X182930000Y-110840000D02*
X190370000Y-110840000D01*
X182930000Y-107600000D02*
X182930000Y-110840000D01*
X190370000Y-107600000D02*
X190370000Y-110840000D01*
X250540000Y-118107000D02*
X247300000Y-118107000D01*
X250540000Y-110667000D02*
X247300000Y-110667000D01*
X247300000Y-110667000D02*
X247300000Y-118107000D01*
X250540000Y-110667000D02*
X250540000Y-118107000D01*
X258414000Y-118107000D02*
X255174000Y-118107000D01*
X258414000Y-110667000D02*
X255174000Y-110667000D01*
X255174000Y-110667000D02*
X255174000Y-118107000D01*
X258414000Y-110667000D02*
X258414000Y-118107000D01*
X265673244Y-114094318D02*
G75*
G02X265528000Y-113411000I1534756J683318D01*
G01*
X267891042Y-114946426D02*
G75*
G02X266524000Y-114946000I-683042J1535426D01*
G01*
X268743426Y-112727958D02*
G75*
G02X268743000Y-114095000I-1535426J-683042D01*
G01*
X266524958Y-111875574D02*
G75*
G02X267892000Y-111876000I683042J-1535426D01*
G01*
X265527747Y-113439805D02*
G75*
G02X265673000Y-112727000I1680253J28805D01*
G01*
X268888000Y-118411000D02*
G75*
G03X268888000Y-118411000I-1680000J0D01*
G01*
X263708000Y-110851000D02*
X263708000Y-120971000D01*
X265208000Y-110851000D02*
X265208000Y-120971000D01*
X269509000Y-110851000D02*
X269509000Y-120971000D01*
X271568000Y-110851000D02*
X271568000Y-120971000D01*
X263148000Y-110851000D02*
X263148000Y-120971000D01*
X271568000Y-110851000D02*
X263148000Y-110851000D01*
X271568000Y-120971000D02*
X263148000Y-120971000D01*
X271508000Y-112411000D02*
X271508000Y-114411000D01*
X270508000Y-112411000D02*
X270508000Y-114411000D01*
X271508000Y-112411000D02*
X270508000Y-112411000D01*
X271508000Y-114411000D02*
X270508000Y-114411000D01*
X268277000Y-119686000D02*
X268231000Y-119639000D01*
X265969000Y-117377000D02*
X265934000Y-117342000D01*
X268483000Y-119481000D02*
X268447000Y-119446000D01*
X266185000Y-117184000D02*
X266139000Y-117137000D01*
X271508000Y-117411000D02*
X271508000Y-119411000D01*
X270508000Y-117411000D02*
X270508000Y-119411000D01*
X271508000Y-117411000D02*
X270508000Y-117411000D01*
X271508000Y-119411000D02*
X270508000Y-119411000D01*
X263648000Y-110611000D02*
X262908000Y-110611000D01*
X262908000Y-110611000D02*
X262908000Y-111111000D01*
D11*
X203140571Y-95337000D02*
X204640571Y-94837000D01*
X203140571Y-94337000D01*
X204569142Y-93194142D02*
X204640571Y-93337000D01*
X204640571Y-93622714D01*
X204569142Y-93765571D01*
X204497714Y-93837000D01*
X204354857Y-93908428D01*
X203926285Y-93908428D01*
X203783428Y-93837000D01*
X203712000Y-93765571D01*
X203640571Y-93622714D01*
X203640571Y-93337000D01*
X203712000Y-93194142D01*
X204569142Y-91908428D02*
X204640571Y-92051285D01*
X204640571Y-92337000D01*
X204569142Y-92479857D01*
X204497714Y-92551285D01*
X204354857Y-92622714D01*
X203926285Y-92622714D01*
X203783428Y-92551285D01*
X203712000Y-92479857D01*
X203640571Y-92337000D01*
X203640571Y-92051285D01*
X203712000Y-91908428D01*
X204640571Y-90479857D02*
X204640571Y-91337000D01*
X204640571Y-90908428D02*
X203140571Y-90908428D01*
X203354857Y-91051285D01*
X203497714Y-91194142D01*
X203569142Y-91337000D01*
D15*
X187325095Y-127533379D02*
X187325095Y-126533379D01*
X187325095Y-127009570D02*
X187896523Y-127009570D01*
X187896523Y-127533379D02*
X187896523Y-126533379D01*
X188801285Y-126866713D02*
X188801285Y-127533379D01*
X188563190Y-126485760D02*
X188325095Y-127200046D01*
X188944142Y-127200046D01*
X103124095Y-127452380D02*
X103124095Y-126452380D01*
X103124095Y-126928571D02*
X103695523Y-126928571D01*
X103695523Y-127452380D02*
X103695523Y-126452380D01*
X104124095Y-126547619D02*
X104171714Y-126500000D01*
X104266952Y-126452380D01*
X104505047Y-126452380D01*
X104600285Y-126500000D01*
X104647904Y-126547619D01*
X104695523Y-126642857D01*
X104695523Y-126738095D01*
X104647904Y-126880952D01*
X104076476Y-127452380D01*
X104695523Y-127452380D01*
X243332095Y-127452380D02*
X243332095Y-126452380D01*
X243332095Y-126928571D02*
X243903523Y-126928571D01*
X243903523Y-127452380D02*
X243903523Y-126452380D01*
X244284476Y-126452380D02*
X244903523Y-126452380D01*
X244570190Y-126833333D01*
X244713047Y-126833333D01*
X244808285Y-126880952D01*
X244855904Y-126928571D01*
X244903523Y-127023809D01*
X244903523Y-127261904D01*
X244855904Y-127357142D01*
X244808285Y-127404761D01*
X244713047Y-127452380D01*
X244427333Y-127452380D01*
X244332095Y-127404761D01*
X244284476Y-127357142D01*
X174498095Y-93543380D02*
X174498095Y-92543380D01*
X174498095Y-93019571D02*
X175069523Y-93019571D01*
X175069523Y-93543380D02*
X175069523Y-92543380D01*
X176069523Y-93543380D02*
X175498095Y-93543380D01*
X175783809Y-93543380D02*
X175783809Y-92543380D01*
X175688571Y-92686238D01*
X175593333Y-92781476D01*
X175498095Y-92829095D01*
X88488333Y-100952380D02*
X88155000Y-100476190D01*
X87916904Y-100952380D02*
X87916904Y-99952380D01*
X88297857Y-99952380D01*
X88393095Y-100000000D01*
X88440714Y-100047619D01*
X88488333Y-100142857D01*
X88488333Y-100285714D01*
X88440714Y-100380952D01*
X88393095Y-100428571D01*
X88297857Y-100476190D01*
X87916904Y-100476190D01*
X89345476Y-100285714D02*
X89345476Y-100952380D01*
X89107380Y-99904761D02*
X88869285Y-100619047D01*
X89488333Y-100619047D01*
X103592333Y-93289380D02*
X103259000Y-92813190D01*
X103020904Y-93289380D02*
X103020904Y-92289380D01*
X103401857Y-92289380D01*
X103497095Y-92337000D01*
X103544714Y-92384619D01*
X103592333Y-92479857D01*
X103592333Y-92622714D01*
X103544714Y-92717952D01*
X103497095Y-92765571D01*
X103401857Y-92813190D01*
X103020904Y-92813190D01*
X104497095Y-92289380D02*
X104020904Y-92289380D01*
X103973285Y-92765571D01*
X104020904Y-92717952D01*
X104116142Y-92670333D01*
X104354238Y-92670333D01*
X104449476Y-92717952D01*
X104497095Y-92765571D01*
X104544714Y-92860809D01*
X104544714Y-93098904D01*
X104497095Y-93194142D01*
X104449476Y-93241761D01*
X104354238Y-93289380D01*
X104116142Y-93289380D01*
X104020904Y-93241761D01*
X103973285Y-93194142D01*
X103592333Y-100909380D02*
X103259000Y-100433190D01*
X103020904Y-100909380D02*
X103020904Y-99909380D01*
X103401857Y-99909380D01*
X103497095Y-99957000D01*
X103544714Y-100004619D01*
X103592333Y-100099857D01*
X103592333Y-100242714D01*
X103544714Y-100337952D01*
X103497095Y-100385571D01*
X103401857Y-100433190D01*
X103020904Y-100433190D01*
X104449476Y-99909380D02*
X104259000Y-99909380D01*
X104163761Y-99957000D01*
X104116142Y-100004619D01*
X104020904Y-100147476D01*
X103973285Y-100337952D01*
X103973285Y-100718904D01*
X104020904Y-100814142D01*
X104068523Y-100861761D01*
X104163761Y-100909380D01*
X104354238Y-100909380D01*
X104449476Y-100861761D01*
X104497095Y-100814142D01*
X104544714Y-100718904D01*
X104544714Y-100480809D01*
X104497095Y-100385571D01*
X104449476Y-100337952D01*
X104354238Y-100290333D01*
X104163761Y-100290333D01*
X104068523Y-100337952D01*
X104020904Y-100385571D01*
X103973285Y-100480809D01*
X187312380Y-98432857D02*
X186836190Y-98766190D01*
X187312380Y-99004285D02*
X186312380Y-99004285D01*
X186312380Y-98623333D01*
X186360000Y-98528095D01*
X186407619Y-98480476D01*
X186502857Y-98432857D01*
X186645714Y-98432857D01*
X186740952Y-98480476D01*
X186788571Y-98528095D01*
X186836190Y-98623333D01*
X186836190Y-99004285D01*
X187312380Y-97480476D02*
X187312380Y-98051904D01*
X187312380Y-97766190D02*
X186312380Y-97766190D01*
X186455238Y-97861428D01*
X186550476Y-97956666D01*
X186598095Y-98051904D01*
X186312380Y-97147142D02*
X186312380Y-96528095D01*
X186693333Y-96861428D01*
X186693333Y-96718571D01*
X186740952Y-96623333D01*
X186788571Y-96575714D01*
X186883809Y-96528095D01*
X187121904Y-96528095D01*
X187217142Y-96575714D01*
X187264761Y-96623333D01*
X187312380Y-96718571D01*
X187312380Y-97004285D01*
X187264761Y-97099523D01*
X187217142Y-97147142D01*
X211078571Y-129547714D02*
X211126190Y-129404857D01*
X211173809Y-129357238D01*
X211269047Y-129309619D01*
X211411904Y-129309619D01*
X211507142Y-129357238D01*
X211554761Y-129404857D01*
X211602380Y-129500095D01*
X211602380Y-129881047D01*
X210602380Y-129881047D01*
X210602380Y-129547714D01*
X210650000Y-129452476D01*
X210697619Y-129404857D01*
X210792857Y-129357238D01*
X210888095Y-129357238D01*
X210983333Y-129404857D01*
X211030952Y-129452476D01*
X211078571Y-129547714D01*
X211078571Y-129881047D01*
X211316666Y-128928666D02*
X211316666Y-128452476D01*
X211602380Y-129023904D02*
X210602380Y-128690571D01*
X211602380Y-128357238D01*
X211554761Y-128071523D02*
X211602380Y-127928666D01*
X211602380Y-127690571D01*
X211554761Y-127595333D01*
X211507142Y-127547714D01*
X211411904Y-127500095D01*
X211316666Y-127500095D01*
X211221428Y-127547714D01*
X211173809Y-127595333D01*
X211126190Y-127690571D01*
X211078571Y-127881047D01*
X211030952Y-127976285D01*
X210983333Y-128023904D01*
X210888095Y-128071523D01*
X210792857Y-128071523D01*
X210697619Y-128023904D01*
X210650000Y-127976285D01*
X210602380Y-127881047D01*
X210602380Y-127642952D01*
X210650000Y-127500095D01*
X211554761Y-127119142D02*
X211602380Y-126976285D01*
X211602380Y-126738190D01*
X211554761Y-126642952D01*
X211507142Y-126595333D01*
X211411904Y-126547714D01*
X211316666Y-126547714D01*
X211221428Y-126595333D01*
X211173809Y-126642952D01*
X211126190Y-126738190D01*
X211078571Y-126928666D01*
X211030952Y-127023904D01*
X210983333Y-127071523D01*
X210888095Y-127119142D01*
X210792857Y-127119142D01*
X210697619Y-127071523D01*
X210650000Y-127023904D01*
X210602380Y-126928666D01*
X210602380Y-126690571D01*
X210650000Y-126547714D01*
X211602380Y-125595333D02*
X211602380Y-126166761D01*
X211602380Y-125881047D02*
X210602380Y-125881047D01*
X210745238Y-125976285D01*
X210840476Y-126071523D01*
X210888095Y-126166761D01*
X126650000Y-129420761D02*
X126602380Y-129516000D01*
X126602380Y-129658857D01*
X126650000Y-129801714D01*
X126745238Y-129896952D01*
X126840476Y-129944571D01*
X127030952Y-129992190D01*
X127173809Y-129992190D01*
X127364285Y-129944571D01*
X127459523Y-129896952D01*
X127554761Y-129801714D01*
X127602380Y-129658857D01*
X127602380Y-129563619D01*
X127554761Y-129420761D01*
X127507142Y-129373142D01*
X127173809Y-129373142D01*
X127173809Y-129563619D01*
X127316666Y-128992190D02*
X127316666Y-128516000D01*
X127602380Y-129087428D02*
X126602380Y-128754095D01*
X127602380Y-128420761D01*
X127602380Y-128087428D02*
X126602380Y-128087428D01*
X127602380Y-127611238D02*
X126602380Y-127611238D01*
X127602380Y-127039809D01*
X126602380Y-127039809D01*
X127602380Y-126039809D02*
X127602380Y-126611238D01*
X127602380Y-126325523D02*
X126602380Y-126325523D01*
X126745238Y-126420761D01*
X126840476Y-126516000D01*
X126888095Y-126611238D01*
X267602380Y-129436761D02*
X267602380Y-129912952D01*
X266602380Y-129912952D01*
X267078571Y-129103428D02*
X267078571Y-128770095D01*
X267602380Y-128627238D02*
X267602380Y-129103428D01*
X266602380Y-129103428D01*
X266602380Y-128627238D01*
X266602380Y-128341523D02*
X267602380Y-128008190D01*
X266602380Y-127674857D01*
X267078571Y-127341523D02*
X267078571Y-127008190D01*
X267602380Y-126865333D02*
X267602380Y-127341523D01*
X266602380Y-127341523D01*
X266602380Y-126865333D01*
X267602380Y-125960571D02*
X267602380Y-126436761D01*
X266602380Y-126436761D01*
X267602380Y-125103428D02*
X267602380Y-125674857D01*
X267602380Y-125389142D02*
X266602380Y-125389142D01*
X266745238Y-125484380D01*
X266840476Y-125579619D01*
X266888095Y-125674857D01*
X183612380Y-129817619D02*
X182612380Y-129817619D01*
X183326666Y-129484285D01*
X182612380Y-129150952D01*
X183612380Y-129150952D01*
X183612380Y-128674761D02*
X182612380Y-128674761D01*
X183612380Y-128198571D02*
X182612380Y-128198571D01*
X182612380Y-127960476D01*
X182660000Y-127817619D01*
X182755238Y-127722380D01*
X182850476Y-127674761D01*
X183040952Y-127627142D01*
X183183809Y-127627142D01*
X183374285Y-127674761D01*
X183469523Y-127722380D01*
X183564761Y-127817619D01*
X183612380Y-127960476D01*
X183612380Y-128198571D01*
X183612380Y-126674761D02*
X183612380Y-127246190D01*
X183612380Y-126960476D02*
X182612380Y-126960476D01*
X182755238Y-127055714D01*
X182850476Y-127150952D01*
X182898095Y-127246190D01*
X154646380Y-130071428D02*
X154646380Y-129500000D01*
X155646380Y-129785714D02*
X154646380Y-129785714D01*
X155646380Y-128595238D02*
X155170190Y-128928571D01*
X155646380Y-129166666D02*
X154646380Y-129166666D01*
X154646380Y-128785714D01*
X154694000Y-128690476D01*
X154741619Y-128642857D01*
X154836857Y-128595238D01*
X154979714Y-128595238D01*
X155074952Y-128642857D01*
X155122571Y-128690476D01*
X155170190Y-128785714D01*
X155170190Y-129166666D01*
X155122571Y-128166666D02*
X155122571Y-127833333D01*
X155646380Y-127690476D02*
X155646380Y-128166666D01*
X154646380Y-128166666D01*
X154646380Y-127690476D01*
X155122571Y-126928571D02*
X155170190Y-126785714D01*
X155217809Y-126738095D01*
X155313047Y-126690476D01*
X155455904Y-126690476D01*
X155551142Y-126738095D01*
X155598761Y-126785714D01*
X155646380Y-126880952D01*
X155646380Y-127261904D01*
X154646380Y-127261904D01*
X154646380Y-126928571D01*
X154694000Y-126833333D01*
X154741619Y-126785714D01*
X154836857Y-126738095D01*
X154932095Y-126738095D01*
X155027333Y-126785714D01*
X155074952Y-126833333D01*
X155122571Y-126928571D01*
X155122571Y-127261904D01*
X155646380Y-125785714D02*
X155646380Y-126261904D01*
X154646380Y-126261904D01*
X155122571Y-125452380D02*
X155122571Y-125119047D01*
X155646380Y-124976190D02*
X155646380Y-125452380D01*
X154646380Y-125452380D01*
X154646380Y-124976190D01*
X155646380Y-124023809D02*
X155646380Y-124595238D01*
X155646380Y-124309523D02*
X154646380Y-124309523D01*
X154789238Y-124404761D01*
X154884476Y-124500000D01*
X154932095Y-124595238D01*
X99794380Y-121657619D02*
X98794380Y-121657619D01*
X99794380Y-121181428D02*
X98794380Y-121181428D01*
X99794380Y-120610000D01*
X98794380Y-120610000D01*
X99889619Y-120371904D02*
X99889619Y-119610000D01*
X99794380Y-119371904D02*
X98794380Y-119371904D01*
X99270571Y-119371904D02*
X99270571Y-118800476D01*
X99794380Y-118800476D02*
X98794380Y-118800476D01*
X99794380Y-118324285D02*
X98794380Y-118324285D01*
X98842000Y-117324285D02*
X98794380Y-117419523D01*
X98794380Y-117562380D01*
X98842000Y-117705238D01*
X98937238Y-117800476D01*
X99032476Y-117848095D01*
X99222952Y-117895714D01*
X99365809Y-117895714D01*
X99556285Y-117848095D01*
X99651523Y-117800476D01*
X99746761Y-117705238D01*
X99794380Y-117562380D01*
X99794380Y-117467142D01*
X99746761Y-117324285D01*
X99699142Y-117276666D01*
X99365809Y-117276666D01*
X99365809Y-117467142D01*
X99794380Y-116848095D02*
X98794380Y-116848095D01*
X99270571Y-116848095D02*
X99270571Y-116276666D01*
X99794380Y-116276666D02*
X98794380Y-116276666D01*
X99889619Y-116038571D02*
X99889619Y-115276666D01*
X99794380Y-114514761D02*
X99794380Y-115086190D01*
X99794380Y-114800476D02*
X98794380Y-114800476D01*
X98937238Y-114895714D01*
X99032476Y-114990952D01*
X99080095Y-115086190D01*
X194794142Y-98372857D02*
X194841761Y-98420476D01*
X194889380Y-98563333D01*
X194889380Y-98658571D01*
X194841761Y-98801428D01*
X194746523Y-98896666D01*
X194651285Y-98944285D01*
X194460809Y-98991904D01*
X194317952Y-98991904D01*
X194127476Y-98944285D01*
X194032238Y-98896666D01*
X193937000Y-98801428D01*
X193889380Y-98658571D01*
X193889380Y-98563333D01*
X193937000Y-98420476D01*
X193984619Y-98372857D01*
X194889380Y-97420476D02*
X194889380Y-97991904D01*
X194889380Y-97706190D02*
X193889380Y-97706190D01*
X194032238Y-97801428D01*
X194127476Y-97896666D01*
X194175095Y-97991904D01*
X193984619Y-97039523D02*
X193937000Y-96991904D01*
X193889380Y-96896666D01*
X193889380Y-96658571D01*
X193937000Y-96563333D01*
X193984619Y-96515714D01*
X194079857Y-96468095D01*
X194175095Y-96468095D01*
X194317952Y-96515714D01*
X194889380Y-97087142D01*
X194889380Y-96468095D01*
X170537142Y-113612857D02*
X170584761Y-113660476D01*
X170632380Y-113803333D01*
X170632380Y-113898571D01*
X170584761Y-114041428D01*
X170489523Y-114136666D01*
X170394285Y-114184285D01*
X170203809Y-114231904D01*
X170060952Y-114231904D01*
X169870476Y-114184285D01*
X169775238Y-114136666D01*
X169680000Y-114041428D01*
X169632380Y-113898571D01*
X169632380Y-113803333D01*
X169680000Y-113660476D01*
X169727619Y-113612857D01*
X170632380Y-112660476D02*
X170632380Y-113231904D01*
X170632380Y-112946190D02*
X169632380Y-112946190D01*
X169775238Y-113041428D01*
X169870476Y-113136666D01*
X169918095Y-113231904D01*
X169632380Y-112041428D02*
X169632380Y-111946190D01*
X169680000Y-111850952D01*
X169727619Y-111803333D01*
X169822857Y-111755714D01*
X170013333Y-111708095D01*
X170251428Y-111708095D01*
X170441904Y-111755714D01*
X170537142Y-111803333D01*
X170584761Y-111850952D01*
X170632380Y-111946190D01*
X170632380Y-112041428D01*
X170584761Y-112136666D01*
X170537142Y-112184285D01*
X170441904Y-112231904D01*
X170251428Y-112279523D01*
X170013333Y-112279523D01*
X169822857Y-112231904D01*
X169727619Y-112184285D01*
X169680000Y-112136666D01*
X169632380Y-112041428D01*
X89631333Y-91924142D02*
X89583714Y-91971761D01*
X89440857Y-92019380D01*
X89345619Y-92019380D01*
X89202761Y-91971761D01*
X89107523Y-91876523D01*
X89059904Y-91781285D01*
X89012285Y-91590809D01*
X89012285Y-91447952D01*
X89059904Y-91257476D01*
X89107523Y-91162238D01*
X89202761Y-91067000D01*
X89345619Y-91019380D01*
X89440857Y-91019380D01*
X89583714Y-91067000D01*
X89631333Y-91114619D01*
X89964666Y-91019380D02*
X90583714Y-91019380D01*
X90250380Y-91400333D01*
X90393238Y-91400333D01*
X90488476Y-91447952D01*
X90536095Y-91495571D01*
X90583714Y-91590809D01*
X90583714Y-91828904D01*
X90536095Y-91924142D01*
X90488476Y-91971761D01*
X90393238Y-92019380D01*
X90107523Y-92019380D01*
X90012285Y-91971761D01*
X89964666Y-91924142D01*
X161123333Y-95607142D02*
X161075714Y-95654761D01*
X160932857Y-95702380D01*
X160837619Y-95702380D01*
X160694761Y-95654761D01*
X160599523Y-95559523D01*
X160551904Y-95464285D01*
X160504285Y-95273809D01*
X160504285Y-95130952D01*
X160551904Y-94940476D01*
X160599523Y-94845238D01*
X160694761Y-94750000D01*
X160837619Y-94702380D01*
X160932857Y-94702380D01*
X161075714Y-94750000D01*
X161123333Y-94797619D01*
X161980476Y-94702380D02*
X161790000Y-94702380D01*
X161694761Y-94750000D01*
X161647142Y-94797619D01*
X161551904Y-94940476D01*
X161504285Y-95130952D01*
X161504285Y-95511904D01*
X161551904Y-95607142D01*
X161599523Y-95654761D01*
X161694761Y-95702380D01*
X161885238Y-95702380D01*
X161980476Y-95654761D01*
X162028095Y-95607142D01*
X162075714Y-95511904D01*
X162075714Y-95273809D01*
X162028095Y-95178571D01*
X161980476Y-95130952D01*
X161885238Y-95083333D01*
X161694761Y-95083333D01*
X161599523Y-95130952D01*
X161551904Y-95178571D01*
X161504285Y-95273809D01*
X111466333Y-113641142D02*
X111418714Y-113688761D01*
X111275857Y-113736380D01*
X111180619Y-113736380D01*
X111037761Y-113688761D01*
X110942523Y-113593523D01*
X110894904Y-113498285D01*
X110847285Y-113307809D01*
X110847285Y-113164952D01*
X110894904Y-112974476D01*
X110942523Y-112879238D01*
X111037761Y-112784000D01*
X111180619Y-112736380D01*
X111275857Y-112736380D01*
X111418714Y-112784000D01*
X111466333Y-112831619D01*
X111799666Y-112736380D02*
X112466333Y-112736380D01*
X112037761Y-113736380D01*
X145883333Y-108688142D02*
X145835714Y-108735761D01*
X145692857Y-108783380D01*
X145597619Y-108783380D01*
X145454761Y-108735761D01*
X145359523Y-108640523D01*
X145311904Y-108545285D01*
X145264285Y-108354809D01*
X145264285Y-108211952D01*
X145311904Y-108021476D01*
X145359523Y-107926238D01*
X145454761Y-107831000D01*
X145597619Y-107783380D01*
X145692857Y-107783380D01*
X145835714Y-107831000D01*
X145883333Y-107878619D01*
X146454761Y-108211952D02*
X146359523Y-108164333D01*
X146311904Y-108116714D01*
X146264285Y-108021476D01*
X146264285Y-107973857D01*
X146311904Y-107878619D01*
X146359523Y-107831000D01*
X146454761Y-107783380D01*
X146645238Y-107783380D01*
X146740476Y-107831000D01*
X146788095Y-107878619D01*
X146835714Y-107973857D01*
X146835714Y-108021476D01*
X146788095Y-108116714D01*
X146740476Y-108164333D01*
X146645238Y-108211952D01*
X146454761Y-108211952D01*
X146359523Y-108259571D01*
X146311904Y-108307190D01*
X146264285Y-108402428D01*
X146264285Y-108592904D01*
X146311904Y-108688142D01*
X146359523Y-108735761D01*
X146454761Y-108783380D01*
X146645238Y-108783380D01*
X146740476Y-108735761D01*
X146788095Y-108688142D01*
X146835714Y-108592904D01*
X146835714Y-108402428D01*
X146788095Y-108307190D01*
X146740476Y-108259571D01*
X146645238Y-108211952D01*
X150257142Y-99266666D02*
X150304761Y-99314285D01*
X150352380Y-99457142D01*
X150352380Y-99552380D01*
X150304761Y-99695238D01*
X150209523Y-99790476D01*
X150114285Y-99838095D01*
X149923809Y-99885714D01*
X149780952Y-99885714D01*
X149590476Y-99838095D01*
X149495238Y-99790476D01*
X149400000Y-99695238D01*
X149352380Y-99552380D01*
X149352380Y-99457142D01*
X149400000Y-99314285D01*
X149447619Y-99266666D01*
X150352380Y-98790476D02*
X150352380Y-98600000D01*
X150304761Y-98504761D01*
X150257142Y-98457142D01*
X150114285Y-98361904D01*
X149923809Y-98314285D01*
X149542857Y-98314285D01*
X149447619Y-98361904D01*
X149400000Y-98409523D01*
X149352380Y-98504761D01*
X149352380Y-98695238D01*
X149400000Y-98790476D01*
X149447619Y-98838095D01*
X149542857Y-98885714D01*
X149780952Y-98885714D01*
X149876190Y-98838095D01*
X149923809Y-98790476D01*
X149971428Y-98695238D01*
X149971428Y-98504761D01*
X149923809Y-98409523D01*
X149876190Y-98361904D01*
X149780952Y-98314285D01*
X162957142Y-113712857D02*
X163004761Y-113760476D01*
X163052380Y-113903333D01*
X163052380Y-113998571D01*
X163004761Y-114141428D01*
X162909523Y-114236666D01*
X162814285Y-114284285D01*
X162623809Y-114331904D01*
X162480952Y-114331904D01*
X162290476Y-114284285D01*
X162195238Y-114236666D01*
X162100000Y-114141428D01*
X162052380Y-113998571D01*
X162052380Y-113903333D01*
X162100000Y-113760476D01*
X162147619Y-113712857D01*
X163052380Y-112760476D02*
X163052380Y-113331904D01*
X163052380Y-113046190D02*
X162052380Y-113046190D01*
X162195238Y-113141428D01*
X162290476Y-113236666D01*
X162338095Y-113331904D01*
X163052380Y-111808095D02*
X163052380Y-112379523D01*
X163052380Y-112093809D02*
X162052380Y-112093809D01*
X162195238Y-112189047D01*
X162290476Y-112284285D01*
X162338095Y-112379523D01*
X239602380Y-129825238D02*
X238602380Y-129825238D01*
X238602380Y-129444285D01*
X238650000Y-129349047D01*
X238697619Y-129301428D01*
X238792857Y-129253809D01*
X238935714Y-129253809D01*
X239030952Y-129301428D01*
X239078571Y-129349047D01*
X239126190Y-129444285D01*
X239126190Y-129825238D01*
X239602380Y-128253809D02*
X239126190Y-128587142D01*
X239602380Y-128825238D02*
X238602380Y-128825238D01*
X238602380Y-128444285D01*
X238650000Y-128349047D01*
X238697619Y-128301428D01*
X238792857Y-128253809D01*
X238935714Y-128253809D01*
X239030952Y-128301428D01*
X239078571Y-128349047D01*
X239126190Y-128444285D01*
X239126190Y-128825238D01*
X239078571Y-127825238D02*
X239078571Y-127491904D01*
X239602380Y-127349047D02*
X239602380Y-127825238D01*
X238602380Y-127825238D01*
X238602380Y-127349047D01*
X239554761Y-126968095D02*
X239602380Y-126825238D01*
X239602380Y-126587142D01*
X239554761Y-126491904D01*
X239507142Y-126444285D01*
X239411904Y-126396666D01*
X239316666Y-126396666D01*
X239221428Y-126444285D01*
X239173809Y-126491904D01*
X239126190Y-126587142D01*
X239078571Y-126777619D01*
X239030952Y-126872857D01*
X238983333Y-126920476D01*
X238888095Y-126968095D01*
X238792857Y-126968095D01*
X238697619Y-126920476D01*
X238650000Y-126872857D01*
X238602380Y-126777619D01*
X238602380Y-126539523D01*
X238650000Y-126396666D01*
X239078571Y-125968095D02*
X239078571Y-125634761D01*
X239602380Y-125491904D02*
X239602380Y-125968095D01*
X238602380Y-125968095D01*
X238602380Y-125491904D01*
X239602380Y-125063333D02*
X238602380Y-125063333D01*
X239602380Y-124491904D01*
X238602380Y-124491904D01*
X239507142Y-123444285D02*
X239554761Y-123491904D01*
X239602380Y-123634761D01*
X239602380Y-123730000D01*
X239554761Y-123872857D01*
X239459523Y-123968095D01*
X239364285Y-124015714D01*
X239173809Y-124063333D01*
X239030952Y-124063333D01*
X238840476Y-124015714D01*
X238745238Y-123968095D01*
X238650000Y-123872857D01*
X238602380Y-123730000D01*
X238602380Y-123634761D01*
X238650000Y-123491904D01*
X238697619Y-123444285D01*
X239078571Y-123015714D02*
X239078571Y-122682380D01*
X239602380Y-122539523D02*
X239602380Y-123015714D01*
X238602380Y-123015714D01*
X238602380Y-122539523D01*
X239602380Y-121587142D02*
X239602380Y-122158571D01*
X239602380Y-121872857D02*
X238602380Y-121872857D01*
X238745238Y-121968095D01*
X238840476Y-122063333D01*
X238888095Y-122158571D01*
X124488380Y-99226666D02*
X124012190Y-99560000D01*
X124488380Y-99798095D02*
X123488380Y-99798095D01*
X123488380Y-99417142D01*
X123536000Y-99321904D01*
X123583619Y-99274285D01*
X123678857Y-99226666D01*
X123821714Y-99226666D01*
X123916952Y-99274285D01*
X123964571Y-99321904D01*
X124012190Y-99417142D01*
X124012190Y-99798095D01*
X123488380Y-98893333D02*
X123488380Y-98226666D01*
X124488380Y-98655238D01*
X111466333Y-107386380D02*
X111133000Y-106910190D01*
X110894904Y-107386380D02*
X110894904Y-106386380D01*
X111275857Y-106386380D01*
X111371095Y-106434000D01*
X111418714Y-106481619D01*
X111466333Y-106576857D01*
X111466333Y-106719714D01*
X111418714Y-106814952D01*
X111371095Y-106862571D01*
X111275857Y-106910190D01*
X110894904Y-106910190D01*
X112037761Y-106814952D02*
X111942523Y-106767333D01*
X111894904Y-106719714D01*
X111847285Y-106624476D01*
X111847285Y-106576857D01*
X111894904Y-106481619D01*
X111942523Y-106434000D01*
X112037761Y-106386380D01*
X112228238Y-106386380D01*
X112323476Y-106434000D01*
X112371095Y-106481619D01*
X112418714Y-106576857D01*
X112418714Y-106624476D01*
X112371095Y-106719714D01*
X112323476Y-106767333D01*
X112228238Y-106814952D01*
X112037761Y-106814952D01*
X111942523Y-106862571D01*
X111894904Y-106910190D01*
X111847285Y-107005428D01*
X111847285Y-107195904D01*
X111894904Y-107291142D01*
X111942523Y-107338761D01*
X112037761Y-107386380D01*
X112228238Y-107386380D01*
X112323476Y-107338761D01*
X112371095Y-107291142D01*
X112418714Y-107195904D01*
X112418714Y-107005428D01*
X112371095Y-106910190D01*
X112323476Y-106862571D01*
X112228238Y-106814952D01*
X138712380Y-114466666D02*
X138236190Y-114800000D01*
X138712380Y-115038095D02*
X137712380Y-115038095D01*
X137712380Y-114657142D01*
X137760000Y-114561904D01*
X137807619Y-114514285D01*
X137902857Y-114466666D01*
X138045714Y-114466666D01*
X138140952Y-114514285D01*
X138188571Y-114561904D01*
X138236190Y-114657142D01*
X138236190Y-115038095D01*
X138712380Y-113990476D02*
X138712380Y-113800000D01*
X138664761Y-113704761D01*
X138617142Y-113657142D01*
X138474285Y-113561904D01*
X138283809Y-113514285D01*
X137902857Y-113514285D01*
X137807619Y-113561904D01*
X137760000Y-113609523D01*
X137712380Y-113704761D01*
X137712380Y-113895238D01*
X137760000Y-113990476D01*
X137807619Y-114038095D01*
X137902857Y-114085714D01*
X138140952Y-114085714D01*
X138236190Y-114038095D01*
X138283809Y-113990476D01*
X138331428Y-113895238D01*
X138331428Y-113704761D01*
X138283809Y-113609523D01*
X138236190Y-113561904D01*
X138140952Y-113514285D01*
X125082380Y-114942857D02*
X124606190Y-115276190D01*
X125082380Y-115514285D02*
X124082380Y-115514285D01*
X124082380Y-115133333D01*
X124130000Y-115038095D01*
X124177619Y-114990476D01*
X124272857Y-114942857D01*
X124415714Y-114942857D01*
X124510952Y-114990476D01*
X124558571Y-115038095D01*
X124606190Y-115133333D01*
X124606190Y-115514285D01*
X125082380Y-113990476D02*
X125082380Y-114561904D01*
X125082380Y-114276190D02*
X124082380Y-114276190D01*
X124225238Y-114371428D01*
X124320476Y-114466666D01*
X124368095Y-114561904D01*
X124082380Y-113371428D02*
X124082380Y-113276190D01*
X124130000Y-113180952D01*
X124177619Y-113133333D01*
X124272857Y-113085714D01*
X124463333Y-113038095D01*
X124701428Y-113038095D01*
X124891904Y-113085714D01*
X124987142Y-113133333D01*
X125034761Y-113180952D01*
X125082380Y-113276190D01*
X125082380Y-113371428D01*
X125034761Y-113466666D01*
X124987142Y-113514285D01*
X124891904Y-113561904D01*
X124701428Y-113609523D01*
X124463333Y-113609523D01*
X124272857Y-113561904D01*
X124177619Y-113514285D01*
X124130000Y-113466666D01*
X124082380Y-113371428D01*
X159032380Y-113672857D02*
X158556190Y-114006190D01*
X159032380Y-114244285D02*
X158032380Y-114244285D01*
X158032380Y-113863333D01*
X158080000Y-113768095D01*
X158127619Y-113720476D01*
X158222857Y-113672857D01*
X158365714Y-113672857D01*
X158460952Y-113720476D01*
X158508571Y-113768095D01*
X158556190Y-113863333D01*
X158556190Y-114244285D01*
X159032380Y-112720476D02*
X159032380Y-113291904D01*
X159032380Y-113006190D02*
X158032380Y-113006190D01*
X158175238Y-113101428D01*
X158270476Y-113196666D01*
X158318095Y-113291904D01*
X159032380Y-111768095D02*
X159032380Y-112339523D01*
X159032380Y-112053809D02*
X158032380Y-112053809D01*
X158175238Y-112149047D01*
X158270476Y-112244285D01*
X158318095Y-112339523D01*
X179692380Y-98432857D02*
X179216190Y-98766190D01*
X179692380Y-99004285D02*
X178692380Y-99004285D01*
X178692380Y-98623333D01*
X178740000Y-98528095D01*
X178787619Y-98480476D01*
X178882857Y-98432857D01*
X179025714Y-98432857D01*
X179120952Y-98480476D01*
X179168571Y-98528095D01*
X179216190Y-98623333D01*
X179216190Y-99004285D01*
X179692380Y-97480476D02*
X179692380Y-98051904D01*
X179692380Y-97766190D02*
X178692380Y-97766190D01*
X178835238Y-97861428D01*
X178930476Y-97956666D01*
X178978095Y-98051904D01*
X178787619Y-97099523D02*
X178740000Y-97051904D01*
X178692380Y-96956666D01*
X178692380Y-96718571D01*
X178740000Y-96623333D01*
X178787619Y-96575714D01*
X178882857Y-96528095D01*
X178978095Y-96528095D01*
X179120952Y-96575714D01*
X179692380Y-97147142D01*
X179692380Y-96528095D01*
X187317142Y-114498380D02*
X186983809Y-114022190D01*
X186745714Y-114498380D02*
X186745714Y-113498380D01*
X187126666Y-113498380D01*
X187221904Y-113546000D01*
X187269523Y-113593619D01*
X187317142Y-113688857D01*
X187317142Y-113831714D01*
X187269523Y-113926952D01*
X187221904Y-113974571D01*
X187126666Y-114022190D01*
X186745714Y-114022190D01*
X188269523Y-114498380D02*
X187698095Y-114498380D01*
X187983809Y-114498380D02*
X187983809Y-113498380D01*
X187888571Y-113641238D01*
X187793333Y-113736476D01*
X187698095Y-113784095D01*
X189126666Y-113831714D02*
X189126666Y-114498380D01*
X188888571Y-113450761D02*
X188650476Y-114165047D01*
X189269523Y-114165047D01*
X238915380Y-114942857D02*
X238439190Y-115276190D01*
X238915380Y-115514285D02*
X237915380Y-115514285D01*
X237915380Y-115133333D01*
X237963000Y-115038095D01*
X238010619Y-114990476D01*
X238105857Y-114942857D01*
X238248714Y-114942857D01*
X238343952Y-114990476D01*
X238391571Y-115038095D01*
X238439190Y-115133333D01*
X238439190Y-115514285D01*
X238915380Y-113990476D02*
X238915380Y-114561904D01*
X238915380Y-114276190D02*
X237915380Y-114276190D01*
X238058238Y-114371428D01*
X238153476Y-114466666D01*
X238201095Y-114561904D01*
X237915380Y-113133333D02*
X237915380Y-113323809D01*
X237963000Y-113419047D01*
X238010619Y-113466666D01*
X238153476Y-113561904D01*
X238343952Y-113609523D01*
X238724904Y-113609523D01*
X238820142Y-113561904D01*
X238867761Y-113514285D01*
X238915380Y-113419047D01*
X238915380Y-113228571D01*
X238867761Y-113133333D01*
X238820142Y-113085714D01*
X238724904Y-113038095D01*
X238486809Y-113038095D01*
X238391571Y-113085714D01*
X238343952Y-113133333D01*
X238296333Y-113228571D01*
X238296333Y-113419047D01*
X238343952Y-113514285D01*
X238391571Y-113561904D01*
X238486809Y-113609523D01*
X140208095Y-92372380D02*
X140208095Y-93181904D01*
X140255714Y-93277142D01*
X140303333Y-93324761D01*
X140398571Y-93372380D01*
X140589047Y-93372380D01*
X140684285Y-93324761D01*
X140731904Y-93277142D01*
X140779523Y-93181904D01*
X140779523Y-92372380D01*
X141779523Y-93372380D02*
X141208095Y-93372380D01*
X141493809Y-93372380D02*
X141493809Y-92372380D01*
X141398571Y-92515238D01*
X141303333Y-92610476D01*
X141208095Y-92658095D01*
X77678094Y-93421379D02*
X77678094Y-92421379D01*
X77678094Y-92897570D02*
X78249522Y-92897570D01*
X78249522Y-93421379D02*
X78249522Y-92421379D01*
X79201903Y-92421379D02*
X78725713Y-92421379D01*
X78678094Y-92897570D01*
X78725713Y-92849951D01*
X78820951Y-92802332D01*
X79059046Y-92802332D01*
X79154284Y-92849951D01*
X79201903Y-92897570D01*
X79249522Y-92992808D01*
X79249522Y-93230903D01*
X79201903Y-93326141D01*
X79154284Y-93373760D01*
X79059046Y-93421379D01*
X78820951Y-93421379D01*
X78725713Y-93373760D01*
X78678094Y-93326141D01*
X265435094Y-93624379D02*
X265435094Y-92624379D01*
X265435094Y-93100570D02*
X266006522Y-93100570D01*
X266006522Y-93624379D02*
X266006522Y-92624379D01*
X266911284Y-92624379D02*
X266720808Y-92624379D01*
X266625570Y-92671999D01*
X266577951Y-92719618D01*
X266482713Y-92862475D01*
X266435094Y-93052951D01*
X266435094Y-93433903D01*
X266482713Y-93529141D01*
X266530332Y-93576760D01*
X266625570Y-93624379D01*
X266816046Y-93624379D01*
X266911284Y-93576760D01*
X266958903Y-93529141D01*
X267006522Y-93433903D01*
X267006522Y-93195808D01*
X266958903Y-93100570D01*
X266911284Y-93052951D01*
X266816046Y-93005332D01*
X266625570Y-93005332D01*
X266530332Y-93052951D01*
X266482713Y-93100570D01*
X266435094Y-93195808D01*
X240403142Y-97512142D02*
X240355523Y-97559761D01*
X240212666Y-97607380D01*
X240117428Y-97607380D01*
X239974571Y-97559761D01*
X239879333Y-97464523D01*
X239831714Y-97369285D01*
X239784095Y-97178809D01*
X239784095Y-97035952D01*
X239831714Y-96845476D01*
X239879333Y-96750238D01*
X239974571Y-96655000D01*
X240117428Y-96607380D01*
X240212666Y-96607380D01*
X240355523Y-96655000D01*
X240403142Y-96702619D01*
X241355523Y-97607380D02*
X240784095Y-97607380D01*
X241069809Y-97607380D02*
X241069809Y-96607380D01*
X240974571Y-96750238D01*
X240879333Y-96845476D01*
X240784095Y-96893095D01*
X242212666Y-96607380D02*
X242022190Y-96607380D01*
X241926952Y-96655000D01*
X241879333Y-96702619D01*
X241784095Y-96845476D01*
X241736476Y-97035952D01*
X241736476Y-97416904D01*
X241784095Y-97512142D01*
X241831714Y-97559761D01*
X241926952Y-97607380D01*
X242117428Y-97607380D01*
X242212666Y-97559761D01*
X242260285Y-97512142D01*
X242307904Y-97416904D01*
X242307904Y-97178809D01*
X242260285Y-97083571D01*
X242212666Y-97035952D01*
X242117428Y-96988333D01*
X241926952Y-96988333D01*
X241831714Y-97035952D01*
X241784095Y-97083571D01*
X241736476Y-97178809D01*
X262342333Y-97385142D02*
X262294714Y-97432761D01*
X262151857Y-97480380D01*
X262056619Y-97480380D01*
X261913761Y-97432761D01*
X261818523Y-97337523D01*
X261770904Y-97242285D01*
X261723285Y-97051809D01*
X261723285Y-96908952D01*
X261770904Y-96718476D01*
X261818523Y-96623238D01*
X261913761Y-96528000D01*
X262056619Y-96480380D01*
X262151857Y-96480380D01*
X262294714Y-96528000D01*
X262342333Y-96575619D01*
X262723285Y-96575619D02*
X262770904Y-96528000D01*
X262866142Y-96480380D01*
X263104238Y-96480380D01*
X263199476Y-96528000D01*
X263247095Y-96575619D01*
X263294714Y-96670857D01*
X263294714Y-96766095D01*
X263247095Y-96908952D01*
X262675666Y-97480380D01*
X263294714Y-97480380D01*
X227687476Y-104703571D02*
X227830333Y-104751190D01*
X227877952Y-104798809D01*
X227925571Y-104894047D01*
X227925571Y-105036904D01*
X227877952Y-105132142D01*
X227830333Y-105179761D01*
X227735095Y-105227380D01*
X227354142Y-105227380D01*
X227354142Y-104227380D01*
X227687476Y-104227380D01*
X227782714Y-104275000D01*
X227830333Y-104322619D01*
X227877952Y-104417857D01*
X227877952Y-104513095D01*
X227830333Y-104608333D01*
X227782714Y-104655952D01*
X227687476Y-104703571D01*
X227354142Y-104703571D01*
X228544619Y-104227380D02*
X228735095Y-104227380D01*
X228830333Y-104275000D01*
X228925571Y-104370238D01*
X228973190Y-104560714D01*
X228973190Y-104894047D01*
X228925571Y-105084523D01*
X228830333Y-105179761D01*
X228735095Y-105227380D01*
X228544619Y-105227380D01*
X228449380Y-105179761D01*
X228354142Y-105084523D01*
X228306523Y-104894047D01*
X228306523Y-104560714D01*
X228354142Y-104370238D01*
X228449380Y-104275000D01*
X228544619Y-104227380D01*
X229592238Y-104227380D02*
X229782714Y-104227380D01*
X229877952Y-104275000D01*
X229973190Y-104370238D01*
X230020809Y-104560714D01*
X230020809Y-104894047D01*
X229973190Y-105084523D01*
X229877952Y-105179761D01*
X229782714Y-105227380D01*
X229592238Y-105227380D01*
X229497000Y-105179761D01*
X229401761Y-105084523D01*
X229354142Y-104894047D01*
X229354142Y-104560714D01*
X229401761Y-104370238D01*
X229497000Y-104275000D01*
X229592238Y-104227380D01*
X230401761Y-105179761D02*
X230544619Y-105227380D01*
X230782714Y-105227380D01*
X230877952Y-105179761D01*
X230925571Y-105132142D01*
X230973190Y-105036904D01*
X230973190Y-104941666D01*
X230925571Y-104846428D01*
X230877952Y-104798809D01*
X230782714Y-104751190D01*
X230592238Y-104703571D01*
X230497000Y-104655952D01*
X230449380Y-104608333D01*
X230401761Y-104513095D01*
X230401761Y-104417857D01*
X230449380Y-104322619D01*
X230497000Y-104275000D01*
X230592238Y-104227380D01*
X230830333Y-104227380D01*
X230973190Y-104275000D01*
X231258904Y-104227380D02*
X231830333Y-104227380D01*
X231544619Y-105227380D02*
X231544619Y-104227380D01*
X232687476Y-105227380D02*
X232116047Y-105227380D01*
X232401761Y-105227380D02*
X232401761Y-104227380D01*
X232306523Y-104370238D01*
X232211285Y-104465476D01*
X232116047Y-104513095D01*
X230497142Y-109577142D02*
X230449523Y-109624761D01*
X230306666Y-109672380D01*
X230211428Y-109672380D01*
X230068571Y-109624761D01*
X229973333Y-109529523D01*
X229925714Y-109434285D01*
X229878095Y-109243809D01*
X229878095Y-109100952D01*
X229925714Y-108910476D01*
X229973333Y-108815238D01*
X230068571Y-108720000D01*
X230211428Y-108672380D01*
X230306666Y-108672380D01*
X230449523Y-108720000D01*
X230497142Y-108767619D01*
X231449523Y-109672380D02*
X230878095Y-109672380D01*
X231163809Y-109672380D02*
X231163809Y-108672380D01*
X231068571Y-108815238D01*
X230973333Y-108910476D01*
X230878095Y-108958095D01*
X232306666Y-109005714D02*
X232306666Y-109672380D01*
X232068571Y-108624761D02*
X231830476Y-109339047D01*
X232449523Y-109339047D01*
X219781380Y-114942857D02*
X219305190Y-115276190D01*
X219781380Y-115514285D02*
X218781380Y-115514285D01*
X218781380Y-115133333D01*
X218829000Y-115038095D01*
X218876619Y-114990476D01*
X218971857Y-114942857D01*
X219114714Y-114942857D01*
X219209952Y-114990476D01*
X219257571Y-115038095D01*
X219305190Y-115133333D01*
X219305190Y-115514285D01*
X219781380Y-113990476D02*
X219781380Y-114561904D01*
X219781380Y-114276190D02*
X218781380Y-114276190D01*
X218924238Y-114371428D01*
X219019476Y-114466666D01*
X219067095Y-114561904D01*
X218781380Y-113085714D02*
X218781380Y-113561904D01*
X219257571Y-113609523D01*
X219209952Y-113561904D01*
X219162333Y-113466666D01*
X219162333Y-113228571D01*
X219209952Y-113133333D01*
X219257571Y-113085714D01*
X219352809Y-113038095D01*
X219590904Y-113038095D01*
X219686142Y-113085714D01*
X219733761Y-113133333D01*
X219781380Y-113228571D01*
X219781380Y-113466666D01*
X219733761Y-113561904D01*
X219686142Y-113609523D01*
X196231142Y-109902857D02*
X196278761Y-109950476D01*
X196326380Y-110093333D01*
X196326380Y-110188571D01*
X196278761Y-110331428D01*
X196183523Y-110426666D01*
X196088285Y-110474285D01*
X195897809Y-110521904D01*
X195754952Y-110521904D01*
X195564476Y-110474285D01*
X195469238Y-110426666D01*
X195374000Y-110331428D01*
X195326380Y-110188571D01*
X195326380Y-110093333D01*
X195374000Y-109950476D01*
X195421619Y-109902857D01*
X196326380Y-108950476D02*
X196326380Y-109521904D01*
X196326380Y-109236190D02*
X195326380Y-109236190D01*
X195469238Y-109331428D01*
X195564476Y-109426666D01*
X195612095Y-109521904D01*
X195326380Y-108045714D02*
X195326380Y-108521904D01*
X195802571Y-108569523D01*
X195754952Y-108521904D01*
X195707333Y-108426666D01*
X195707333Y-108188571D01*
X195754952Y-108093333D01*
X195802571Y-108045714D01*
X195897809Y-107998095D01*
X196135904Y-107998095D01*
X196231142Y-108045714D01*
X196278761Y-108093333D01*
X196326380Y-108188571D01*
X196326380Y-108426666D01*
X196278761Y-108521904D01*
X196231142Y-108569523D01*
X209550095Y-105072380D02*
X209550095Y-105881904D01*
X209597714Y-105977142D01*
X209645333Y-106024761D01*
X209740571Y-106072380D01*
X209931047Y-106072380D01*
X210026285Y-106024761D01*
X210073904Y-105977142D01*
X210121523Y-105881904D01*
X210121523Y-105072380D01*
X210550095Y-105167619D02*
X210597714Y-105120000D01*
X210692952Y-105072380D01*
X210931047Y-105072380D01*
X211026285Y-105120000D01*
X211073904Y-105167619D01*
X211121523Y-105262857D01*
X211121523Y-105358095D01*
X211073904Y-105500952D01*
X210502476Y-106072380D01*
X211121523Y-106072380D01*
X113046142Y-99266666D02*
X113093761Y-99314285D01*
X113141380Y-99457142D01*
X113141380Y-99552380D01*
X113093761Y-99695238D01*
X112998523Y-99790476D01*
X112903285Y-99838095D01*
X112712809Y-99885714D01*
X112569952Y-99885714D01*
X112379476Y-99838095D01*
X112284238Y-99790476D01*
X112189000Y-99695238D01*
X112141380Y-99552380D01*
X112141380Y-99457142D01*
X112189000Y-99314285D01*
X112236619Y-99266666D01*
X112474714Y-98409523D02*
X113141380Y-98409523D01*
X112093761Y-98647619D02*
X112808047Y-98885714D01*
X112808047Y-98266666D01*
X241006333Y-91087380D02*
X240673000Y-90611190D01*
X240434904Y-91087380D02*
X240434904Y-90087380D01*
X240815857Y-90087380D01*
X240911095Y-90135000D01*
X240958714Y-90182619D01*
X241006333Y-90277857D01*
X241006333Y-90420714D01*
X240958714Y-90515952D01*
X240911095Y-90563571D01*
X240815857Y-90611190D01*
X240434904Y-90611190D01*
X241387285Y-90182619D02*
X241434904Y-90135000D01*
X241530142Y-90087380D01*
X241768238Y-90087380D01*
X241863476Y-90135000D01*
X241911095Y-90182619D01*
X241958714Y-90277857D01*
X241958714Y-90373095D01*
X241911095Y-90515952D01*
X241339666Y-91087380D01*
X241958714Y-91087380D01*
X255103333Y-91087380D02*
X254770000Y-90611190D01*
X254531904Y-91087380D02*
X254531904Y-90087380D01*
X254912857Y-90087380D01*
X255008095Y-90135000D01*
X255055714Y-90182619D01*
X255103333Y-90277857D01*
X255103333Y-90420714D01*
X255055714Y-90515952D01*
X255008095Y-90563571D01*
X254912857Y-90611190D01*
X254531904Y-90611190D01*
X255436666Y-90087380D02*
X256055714Y-90087380D01*
X255722380Y-90468333D01*
X255865238Y-90468333D01*
X255960476Y-90515952D01*
X256008095Y-90563571D01*
X256055714Y-90658809D01*
X256055714Y-90896904D01*
X256008095Y-90992142D01*
X255960476Y-91039761D01*
X255865238Y-91087380D01*
X255579523Y-91087380D01*
X255484285Y-91039761D01*
X255436666Y-90992142D01*
X102647904Y-114010000D02*
X102552666Y-113962380D01*
X102409809Y-113962380D01*
X102266952Y-114010000D01*
X102171714Y-114105238D01*
X102124095Y-114200476D01*
X102076476Y-114390952D01*
X102076476Y-114533809D01*
X102124095Y-114724285D01*
X102171714Y-114819523D01*
X102266952Y-114914761D01*
X102409809Y-114962380D01*
X102505047Y-114962380D01*
X102647904Y-114914761D01*
X102695523Y-114867142D01*
X102695523Y-114533809D01*
X102505047Y-114533809D01*
X103124095Y-114962380D02*
X103124095Y-113962380D01*
X103695523Y-114962380D01*
X103695523Y-113962380D01*
X104171714Y-114962380D02*
X104171714Y-113962380D01*
X104409809Y-113962380D01*
X104552666Y-114010000D01*
X104647904Y-114105238D01*
X104695523Y-114200476D01*
X104743142Y-114390952D01*
X104743142Y-114533809D01*
X104695523Y-114724285D01*
X104647904Y-114819523D01*
X104552666Y-114914761D01*
X104409809Y-114962380D01*
X104171714Y-114962380D01*
X105695523Y-114962380D02*
X105124095Y-114962380D01*
X105409809Y-114962380D02*
X105409809Y-113962380D01*
X105314571Y-114105238D01*
X105219333Y-114200476D01*
X105124095Y-114248095D01*
X118268904Y-114010000D02*
X118173666Y-113962380D01*
X118030809Y-113962380D01*
X117887952Y-114010000D01*
X117792714Y-114105238D01*
X117745095Y-114200476D01*
X117697476Y-114390952D01*
X117697476Y-114533809D01*
X117745095Y-114724285D01*
X117792714Y-114819523D01*
X117887952Y-114914761D01*
X118030809Y-114962380D01*
X118126047Y-114962380D01*
X118268904Y-114914761D01*
X118316523Y-114867142D01*
X118316523Y-114533809D01*
X118126047Y-114533809D01*
X118745095Y-114962380D02*
X118745095Y-113962380D01*
X119316523Y-114962380D01*
X119316523Y-113962380D01*
X119792714Y-114962380D02*
X119792714Y-113962380D01*
X120030809Y-113962380D01*
X120173666Y-114010000D01*
X120268904Y-114105238D01*
X120316523Y-114200476D01*
X120364142Y-114390952D01*
X120364142Y-114533809D01*
X120316523Y-114724285D01*
X120268904Y-114819523D01*
X120173666Y-114914761D01*
X120030809Y-114962380D01*
X119792714Y-114962380D01*
X120745095Y-114057619D02*
X120792714Y-114010000D01*
X120887952Y-113962380D01*
X121126047Y-113962380D01*
X121221285Y-114010000D01*
X121268904Y-114057619D01*
X121316523Y-114152857D01*
X121316523Y-114248095D01*
X121268904Y-114390952D01*
X120697476Y-114962380D01*
X121316523Y-114962380D01*
X252281333Y-96977142D02*
X252233714Y-97024761D01*
X252090857Y-97072380D01*
X251995619Y-97072380D01*
X251852761Y-97024761D01*
X251757523Y-96929523D01*
X251709904Y-96834285D01*
X251662285Y-96643809D01*
X251662285Y-96500952D01*
X251709904Y-96310476D01*
X251757523Y-96215238D01*
X251852761Y-96120000D01*
X251995619Y-96072380D01*
X252090857Y-96072380D01*
X252233714Y-96120000D01*
X252281333Y-96167619D01*
X253233714Y-97072380D02*
X252662285Y-97072380D01*
X252948000Y-97072380D02*
X252948000Y-96072380D01*
X252852761Y-96215238D01*
X252757523Y-96310476D01*
X252662285Y-96358095D01*
X219289333Y-97480380D02*
X218813142Y-97480380D01*
X218813142Y-96480380D01*
X220146476Y-97480380D02*
X219575047Y-97480380D01*
X219860761Y-97480380D02*
X219860761Y-96480380D01*
X219765523Y-96623238D01*
X219670285Y-96718476D01*
X219575047Y-96766095D01*
X225766333Y-91046380D02*
X225433000Y-90570190D01*
X225194904Y-91046380D02*
X225194904Y-90046380D01*
X225575857Y-90046380D01*
X225671095Y-90094000D01*
X225718714Y-90141619D01*
X225766333Y-90236857D01*
X225766333Y-90379714D01*
X225718714Y-90474952D01*
X225671095Y-90522571D01*
X225575857Y-90570190D01*
X225194904Y-90570190D01*
X226718714Y-91046380D02*
X226147285Y-91046380D01*
X226433000Y-91046380D02*
X226433000Y-90046380D01*
X226337761Y-90189238D01*
X226242523Y-90284476D01*
X226147285Y-90332095D01*
X132393142Y-99186666D02*
X132440761Y-99234285D01*
X132488380Y-99377142D01*
X132488380Y-99472380D01*
X132440761Y-99615238D01*
X132345523Y-99710476D01*
X132250285Y-99758095D01*
X132059809Y-99805714D01*
X131916952Y-99805714D01*
X131726476Y-99758095D01*
X131631238Y-99710476D01*
X131536000Y-99615238D01*
X131488380Y-99472380D01*
X131488380Y-99377142D01*
X131536000Y-99234285D01*
X131583619Y-99186666D01*
X131488380Y-98281904D02*
X131488380Y-98758095D01*
X131964571Y-98805714D01*
X131916952Y-98758095D01*
X131869333Y-98662857D01*
X131869333Y-98424761D01*
X131916952Y-98329523D01*
X131964571Y-98281904D01*
X132059809Y-98234285D01*
X132297904Y-98234285D01*
X132393142Y-98281904D01*
X132440761Y-98329523D01*
X132488380Y-98424761D01*
X132488380Y-98662857D01*
X132440761Y-98758095D01*
X132393142Y-98805714D01*
X186007142Y-106827142D02*
X185959523Y-106874761D01*
X185816666Y-106922380D01*
X185721428Y-106922380D01*
X185578571Y-106874761D01*
X185483333Y-106779523D01*
X185435714Y-106684285D01*
X185388095Y-106493809D01*
X185388095Y-106350952D01*
X185435714Y-106160476D01*
X185483333Y-106065238D01*
X185578571Y-105970000D01*
X185721428Y-105922380D01*
X185816666Y-105922380D01*
X185959523Y-105970000D01*
X186007142Y-106017619D01*
X186959523Y-106922380D02*
X186388095Y-106922380D01*
X186673809Y-106922380D02*
X186673809Y-105922380D01*
X186578571Y-106065238D01*
X186483333Y-106160476D01*
X186388095Y-106208095D01*
X187292857Y-105922380D02*
X187911904Y-105922380D01*
X187578571Y-106303333D01*
X187721428Y-106303333D01*
X187816666Y-106350952D01*
X187864285Y-106398571D01*
X187911904Y-106493809D01*
X187911904Y-106731904D01*
X187864285Y-106827142D01*
X187816666Y-106874761D01*
X187721428Y-106922380D01*
X187435714Y-106922380D01*
X187340476Y-106874761D01*
X187292857Y-106827142D01*
X246693142Y-115029857D02*
X246740761Y-115077476D01*
X246788380Y-115220333D01*
X246788380Y-115315571D01*
X246740761Y-115458428D01*
X246645523Y-115553666D01*
X246550285Y-115601285D01*
X246359809Y-115648904D01*
X246216952Y-115648904D01*
X246026476Y-115601285D01*
X245931238Y-115553666D01*
X245836000Y-115458428D01*
X245788380Y-115315571D01*
X245788380Y-115220333D01*
X245836000Y-115077476D01*
X245883619Y-115029857D01*
X246788380Y-114077476D02*
X246788380Y-114648904D01*
X246788380Y-114363190D02*
X245788380Y-114363190D01*
X245931238Y-114458428D01*
X246026476Y-114553666D01*
X246074095Y-114648904D01*
X245788380Y-113744142D02*
X245788380Y-113077476D01*
X246788380Y-113506047D01*
X254567142Y-115029857D02*
X254614761Y-115077476D01*
X254662380Y-115220333D01*
X254662380Y-115315571D01*
X254614761Y-115458428D01*
X254519523Y-115553666D01*
X254424285Y-115601285D01*
X254233809Y-115648904D01*
X254090952Y-115648904D01*
X253900476Y-115601285D01*
X253805238Y-115553666D01*
X253710000Y-115458428D01*
X253662380Y-115315571D01*
X253662380Y-115220333D01*
X253710000Y-115077476D01*
X253757619Y-115029857D01*
X254662380Y-114077476D02*
X254662380Y-114648904D01*
X254662380Y-114363190D02*
X253662380Y-114363190D01*
X253805238Y-114458428D01*
X253900476Y-114553666D01*
X253948095Y-114648904D01*
X254090952Y-113506047D02*
X254043333Y-113601285D01*
X253995714Y-113648904D01*
X253900476Y-113696523D01*
X253852857Y-113696523D01*
X253757619Y-113648904D01*
X253710000Y-113601285D01*
X253662380Y-113506047D01*
X253662380Y-113315571D01*
X253710000Y-113220333D01*
X253757619Y-113172714D01*
X253852857Y-113125095D01*
X253900476Y-113125095D01*
X253995714Y-113172714D01*
X254043333Y-113220333D01*
X254090952Y-113315571D01*
X254090952Y-113506047D01*
X254138571Y-113601285D01*
X254186190Y-113648904D01*
X254281428Y-113696523D01*
X254471904Y-113696523D01*
X254567142Y-113648904D01*
X254614761Y-113601285D01*
X254662380Y-113506047D01*
X254662380Y-113315571D01*
X254614761Y-113220333D01*
X254567142Y-113172714D01*
X254471904Y-113125095D01*
X254281428Y-113125095D01*
X254186190Y-113172714D01*
X254138571Y-113220333D01*
X254090952Y-113315571D01*
X261453380Y-117554190D02*
X261453380Y-117363714D01*
X261501000Y-117268476D01*
X261596238Y-117173238D01*
X261786714Y-117125619D01*
X262120047Y-117125619D01*
X262310523Y-117173238D01*
X262405761Y-117268476D01*
X262453380Y-117363714D01*
X262453380Y-117554190D01*
X262405761Y-117649428D01*
X262310523Y-117744666D01*
X262120047Y-117792285D01*
X261786714Y-117792285D01*
X261596238Y-117744666D01*
X261501000Y-117649428D01*
X261453380Y-117554190D01*
X261453380Y-116697047D02*
X262262904Y-116697047D01*
X262358142Y-116649428D01*
X262405761Y-116601809D01*
X262453380Y-116506571D01*
X262453380Y-116316095D01*
X262405761Y-116220857D01*
X262358142Y-116173238D01*
X262262904Y-116125619D01*
X261453380Y-116125619D01*
X261453380Y-115792285D02*
X261453380Y-115220857D01*
X262453380Y-115506571D02*
X261453380Y-115506571D01*
X262453380Y-114363714D02*
X262453380Y-114935142D01*
X262453380Y-114649428D02*
X261453380Y-114649428D01*
X261596238Y-114744666D01*
X261691476Y-114839904D01*
X261739095Y-114935142D01*
M02*
