M48
; DRILL file {KiCad (5.1.4)-1} date 19/01/2020 1:30:52
; FORMAT={-:-/ absolute / inch / decimal}
; #@! TF.CreationDate,2020-01-19T01:30:52+01:00
; #@! TF.GenerationSoftware,Kicad,Pcbnew,(5.1.4)-1
; #@! TF.FileFunction,Plated,1,2,PTH
FMAT,2
INCH
T1C0.0157
T2C0.0315
T3C0.0394
T4C0.0512
T5C0.0591
%
G90
G05
T1
X6.325Y-4.6898
T2
X2.9Y-4.05
X3.3Y-4.05
X8.955Y-3.98
X9.055Y-3.98
X9.155Y-3.98
X9.295Y-3.66
X9.695Y-3.66
X6.5Y-4.3531
X6.5Y-4.55
X7.95Y-4.2031
X7.95Y-4.4
X5.0Y-4.3
X5.0Y-4.7
X3.685Y-3.7981
X3.685Y-3.995
X7.2Y-4.6
X7.6Y-4.6
X4.7Y-3.7
X4.7Y-4.1
X2.9Y-3.75
X3.3Y-3.75
X8.95Y-4.25
X8.95Y-4.65
X4.4Y-3.75
X4.4Y-4.05
X8.25Y-4.25
X8.25Y-4.35
X8.25Y-4.45
X8.25Y-4.55
X8.55Y-4.25
X8.55Y-4.35
X8.55Y-4.45
X8.55Y-4.55
X7.15Y-3.65
X7.15Y-4.05
X5.4Y-3.75
X5.4Y-3.85
X5.4Y-3.95
X5.4Y-4.05
X5.7Y-3.75
X5.7Y-3.85
X5.7Y-3.95
X5.7Y-4.05
X5.35Y-4.3
X5.35Y-4.7
X6.75Y-3.885
X6.75Y-4.0228
X2.2Y-4.05
X2.6Y-4.05
X9.42Y-4.0
X9.5578Y-4.0
X6.0Y-3.8031
X6.0Y-4.0
X7.45Y-3.65
X7.45Y-4.05
X10.1Y-4.5
X10.2378Y-4.5
X9.85Y-3.66
X10.25Y-3.66
X4.1Y-3.75
X4.1Y-4.05
X6.15Y-4.25
X6.15Y-4.65
X8.695Y-3.66
X9.095Y-3.66
X9.3Y-4.25
X9.3Y-4.65
X4.2Y-4.3
X4.6Y-4.3
X5.75Y-4.4
X5.75Y-4.5378
T3
X4.09Y-4.6
X9.87Y-4.075
X10.0078Y-4.075
X6.85Y-4.3
X6.85Y-4.5953
X7.8Y-3.7
X7.8Y-3.9953
X9.67Y-4.35
X9.67Y-4.6453
X10.515Y-4.55
X5.05Y-3.75
X5.05Y-4.0453
X4.705Y-4.6
X8.64Y-3.91
X8.64Y-4.0675
X2.3047Y-3.75
X2.6Y-3.75
X4.25Y-4.6
X4.5453Y-4.6
X10.35Y-4.075
X10.4878Y-4.075
X7.25Y-4.3
X7.5453Y-4.3
T4
X9.9567Y-5.06
X10.1535Y-5.06
X10.3504Y-5.06
X4.4449Y-5.0591
X4.6417Y-5.0591
X4.8386Y-5.0591
X5.5472Y-5.0591
X5.7441Y-5.0591
X5.9409Y-5.0591
X8.19Y-3.66
X8.3869Y-3.66
X7.752Y-5.06
X7.9488Y-5.06
X8.1457Y-5.06
X6.65Y-5.0591
X6.8469Y-5.0591
X7.0437Y-5.0591
X8.8543Y-5.06
X9.0512Y-5.06
X9.248Y-5.06
T5
X1.9606Y-4.5157
X1.9606Y-4.7638
X1.9606Y-5.0118
X2.5984Y-4.5157
X2.5984Y-4.7638
X2.5984Y-5.0118
X3.1417Y-4.5157
X3.1417Y-4.7638
X3.1417Y-5.0118
X3.7795Y-4.5157
X3.7795Y-4.7638
X3.7795Y-5.0118
T0
M30
