G04 #@! TF.GenerationSoftware,KiCad,Pcbnew,(5.1.4)-1*
G04 #@! TF.CreationDate,2020-01-19T01:30:50+01:00*
G04 #@! TF.ProjectId,Lead-12-5010,4c656164-2d31-4322-9d35-3031302e6b69,rev?*
G04 #@! TF.SameCoordinates,Original*
G04 #@! TF.FileFunction,Copper,L1,Top*
G04 #@! TF.FilePolarity,Positive*
%FSLAX46Y46*%
G04 Gerber Fmt 4.6, Leading zero omitted, Abs format (unit mm)*
G04 Created by KiCad (PCBNEW (5.1.4)-1) date 2020-01-19 01:30:50*
%MOMM*%
%LPD*%
G04 APERTURE LIST*
%ADD10C,2.600000*%
%ADD11R,2.600000X2.600000*%
%ADD12O,1.600000X1.600000*%
%ADD13C,1.600000*%
%ADD14C,2.340000*%
%ADD15C,3.000000*%
%ADD16C,2.000000*%
%ADD17R,1.600000X1.600000*%
%ADD18R,1.700000X1.700000*%
%ADD19R,2.000000X2.000000*%
%ADD20C,1.440000*%
%ADD21C,1.000000*%
%ADD22C,0.500000*%
%ADD23C,1.000000*%
G04 APERTURE END LIST*
D10*
X213026000Y-92964000D03*
D11*
X208026000Y-92964000D03*
D12*
X66040000Y-102870000D03*
D13*
X55880000Y-102870000D03*
X83820000Y-95250000D03*
D12*
X73660000Y-95250000D03*
D13*
X83820000Y-102870000D03*
D12*
X73660000Y-102870000D03*
D13*
X189230000Y-102870000D03*
D12*
X189230000Y-92710000D03*
D14*
X206900000Y-128524000D03*
X201900000Y-128524000D03*
X196900000Y-128524000D03*
X122900000Y-128500000D03*
X117900000Y-128500000D03*
X112900000Y-128500000D03*
X252900000Y-128524000D03*
X257900000Y-128524000D03*
X262900000Y-128524000D03*
X178910000Y-128500000D03*
X173910000Y-128500000D03*
X168910000Y-128500000D03*
X140900000Y-128500000D03*
X145900000Y-128500000D03*
X150900000Y-128500000D03*
D15*
X49800000Y-127300000D03*
X49800000Y-121000000D03*
X49800000Y-114700000D03*
X66000000Y-127300000D03*
X66000000Y-121000000D03*
X66000000Y-114700000D03*
D16*
X198120000Y-101480000D03*
X198120000Y-93980000D03*
X173990000Y-116720000D03*
X173990000Y-109220000D03*
X58540000Y-95250000D03*
X66040000Y-95250000D03*
X128270000Y-95250000D03*
X128270000Y-102750000D03*
D17*
X171450000Y-98679000D03*
D13*
X171450000Y-102179000D03*
D16*
X107950000Y-116840000D03*
X115450000Y-116840000D03*
D17*
X146050000Y-111760000D03*
D13*
X146050000Y-115260000D03*
X152400000Y-96600000D03*
X152400000Y-101600000D03*
D16*
X184150000Y-109220000D03*
X191650000Y-109220000D03*
D13*
X165100000Y-115570000D03*
X165100000Y-110570000D03*
D12*
X104140000Y-95250000D03*
D17*
X104140000Y-102870000D03*
X111760000Y-102870000D03*
D12*
X111760000Y-95250000D03*
D15*
X79800000Y-127300000D03*
X79800000Y-121000000D03*
X79800000Y-114700000D03*
X96000000Y-127300000D03*
X96000000Y-121000000D03*
X96000000Y-114700000D03*
D18*
X267081000Y-115570000D03*
D14*
X234900000Y-128524000D03*
X229900000Y-128524000D03*
X224900000Y-128524000D03*
D13*
X119380000Y-93980000D03*
D12*
X119380000Y-104140000D03*
X106680000Y-109220000D03*
D13*
X116840000Y-109220000D03*
X135890000Y-109220000D03*
D12*
X135890000Y-119380000D03*
D13*
X127000000Y-119380000D03*
D12*
X127000000Y-109220000D03*
X156210000Y-118110000D03*
D13*
X156210000Y-107950000D03*
D12*
X181610000Y-92710000D03*
D13*
X181610000Y-102870000D03*
D12*
X182880000Y-116840000D03*
D13*
X193040000Y-116840000D03*
D12*
X236220000Y-118110000D03*
D13*
X236220000Y-107950000D03*
D17*
X137160000Y-95250000D03*
D12*
X144780000Y-102870000D03*
X137160000Y-97790000D03*
X144780000Y-100330000D03*
X137160000Y-100330000D03*
X144780000Y-97790000D03*
X137160000Y-102870000D03*
X144780000Y-95250000D03*
D17*
X239268000Y-101600000D03*
D13*
X242768000Y-101600000D03*
D19*
X262890000Y-103505000D03*
D16*
X266390000Y-103505000D03*
D20*
X232537000Y-101092000D03*
X229997000Y-101092000D03*
X227457000Y-101092000D03*
D17*
X256540000Y-114300000D03*
D13*
X260040000Y-114300000D03*
X227330000Y-107950000D03*
D12*
X227330000Y-118110000D03*
D13*
X201930000Y-111760000D03*
X201930000Y-106760000D03*
D16*
X245618000Y-110490000D03*
X245618000Y-117990000D03*
D17*
X209550000Y-107950000D03*
D12*
X217170000Y-115570000D03*
X209550000Y-110490000D03*
X217170000Y-113030000D03*
X209550000Y-113030000D03*
X217170000Y-110490000D03*
X209550000Y-115570000D03*
X217170000Y-107950000D03*
D13*
X93599000Y-101473000D03*
X93599000Y-96473000D03*
D12*
X236093000Y-92964000D03*
D13*
X246253000Y-92964000D03*
X260350000Y-92964000D03*
D12*
X250190000Y-92964000D03*
D18*
X103886000Y-116840000D03*
X119507000Y-116840000D03*
D19*
X250698000Y-103505000D03*
D16*
X254198000Y-103505000D03*
X219456000Y-99314000D03*
X219456000Y-103314000D03*
D13*
X220853000Y-92964000D03*
D12*
X231013000Y-92964000D03*
D21*
X160655000Y-119121869D03*
D22*
X193040000Y-124664000D02*
X196900000Y-128524000D01*
X193040000Y-116840000D02*
X193040000Y-124664000D01*
X184150000Y-109220000D02*
X184150000Y-106172000D01*
X187705970Y-112775970D02*
X184150000Y-109220000D01*
X194257086Y-112775970D02*
X187705970Y-112775970D01*
X196977000Y-115495884D02*
X194257086Y-112775970D01*
X196977000Y-118364000D02*
X196977000Y-115495884D01*
X201900000Y-128524000D02*
X201900000Y-123287000D01*
X201900000Y-123287000D02*
X196977000Y-118364000D01*
X195580000Y-93980000D02*
X198120000Y-93980000D01*
X191770000Y-97790000D02*
X195580000Y-93980000D01*
X189230000Y-97790000D02*
X191770000Y-97790000D01*
X184150000Y-106172000D02*
X184150000Y-102870000D01*
X184150000Y-102870000D02*
X189230000Y-97790000D01*
X173355000Y-106172000D02*
X184150000Y-106172000D01*
X166407111Y-113119889D02*
X173355000Y-106172000D01*
X163564477Y-113119889D02*
X166407111Y-113119889D01*
X160401000Y-121920000D02*
X162560000Y-119761000D01*
X140900000Y-128500000D02*
X144940000Y-124460000D01*
X144940000Y-124460000D02*
X154432000Y-124460000D01*
X154432000Y-124460000D02*
X156972000Y-121920000D01*
X156972000Y-121920000D02*
X160401000Y-121920000D01*
X162560000Y-114124366D02*
X163564477Y-113119889D01*
X162560000Y-119761000D02*
X162560000Y-114124366D01*
X76200000Y-102870000D02*
X83820000Y-95250000D01*
X73660000Y-102870000D02*
X76200000Y-102870000D01*
X92376000Y-95250000D02*
X93599000Y-96473000D01*
X83820000Y-95250000D02*
X92376000Y-95250000D01*
X102917000Y-96473000D02*
X104140000Y-95250000D01*
X93599000Y-96473000D02*
X102917000Y-96473000D01*
X104939999Y-96049999D02*
X111760000Y-102870000D01*
X104140000Y-95250000D02*
X104939999Y-96049999D01*
X135860000Y-95250000D02*
X137160000Y-95250000D01*
X133350000Y-100740002D02*
X133350000Y-97760000D01*
X133350000Y-97760000D02*
X135860000Y-95250000D01*
X116840000Y-106680000D02*
X119380000Y-104140000D01*
X116840000Y-109220000D02*
X116840000Y-106680000D01*
X119380000Y-104140000D02*
X121920000Y-104140000D01*
X123310000Y-102750000D02*
X128270000Y-102750000D01*
X121920000Y-104140000D02*
X123310000Y-102750000D01*
X131340002Y-102750000D02*
X133350000Y-100740002D01*
X128270000Y-102750000D02*
X131340002Y-102750000D01*
X66000000Y-102910000D02*
X66040000Y-102870000D01*
X66000000Y-114700000D02*
X66000000Y-102910000D01*
X260000990Y-130624990D02*
X264853010Y-130624990D01*
X257900000Y-128524000D02*
X260000990Y-130624990D01*
X267081000Y-128397000D02*
X267081000Y-115570000D01*
X264853010Y-130624990D02*
X267081000Y-128397000D01*
X55880000Y-97910000D02*
X58540000Y-95250000D01*
X55880000Y-102870000D02*
X55880000Y-97910000D01*
D23*
X90170000Y-103830000D02*
X89860000Y-103830000D01*
X89860000Y-103830000D02*
X88900000Y-102870000D01*
X88900000Y-102870000D02*
X83820000Y-102870000D01*
X117900000Y-125608410D02*
X117900000Y-128500000D01*
X90170000Y-121920000D02*
X90170000Y-103830000D01*
X92549999Y-124299999D02*
X90170000Y-121920000D01*
X117900000Y-125608410D02*
X116591589Y-124299999D01*
X116591589Y-124299999D02*
X92549999Y-124299999D01*
X262890000Y-102140000D02*
X262890000Y-103505000D01*
X250190000Y-92964000D02*
X253714000Y-92964000D01*
X253714000Y-92964000D02*
X262890000Y-102140000D01*
X240030000Y-92964000D02*
X250190000Y-92964000D01*
X234950000Y-98044000D02*
X240030000Y-92964000D01*
X227457000Y-98044000D02*
X234950000Y-98044000D01*
X220091000Y-115570000D02*
X222885000Y-112776000D01*
X217170000Y-115570000D02*
X220091000Y-115570000D01*
X222885000Y-112776000D02*
X222885000Y-105283000D01*
X222885000Y-105283000D02*
X224155000Y-104013000D01*
X224155000Y-104013000D02*
X224155000Y-101346000D01*
X224155000Y-101346000D02*
X227457000Y-98044000D01*
X142240000Y-118618000D02*
X150876000Y-118618000D01*
X150876000Y-118618000D02*
X152527000Y-120269000D01*
X139573000Y-115951000D02*
X142240000Y-118618000D01*
X121186980Y-122321430D02*
X130408570Y-122321430D01*
X152527000Y-120269000D02*
X159507869Y-120269000D01*
X117900000Y-125608410D02*
X121186980Y-122321430D01*
X130408570Y-122321430D02*
X131572000Y-121158000D01*
X131572000Y-121158000D02*
X131572000Y-116840000D01*
X159507869Y-120269000D02*
X160655000Y-119121869D01*
X131572000Y-116840000D02*
X132461000Y-115951000D01*
X132461000Y-115951000D02*
X139573000Y-115951000D01*
X220853000Y-90678000D02*
X220853000Y-92964000D01*
X220100010Y-89925010D02*
X220853000Y-90678000D01*
X208764990Y-89925010D02*
X220100010Y-89925010D01*
X208026000Y-92964000D02*
X208026000Y-90664000D01*
X208026000Y-90664000D02*
X208764990Y-89925010D01*
D22*
X135890000Y-123906494D02*
X135890000Y-119380000D01*
X131297430Y-128499064D02*
X135890000Y-123906494D01*
X126770936Y-128499064D02*
X131297430Y-128499064D01*
X122900000Y-128500000D02*
X126770000Y-128500000D01*
X126770000Y-128500000D02*
X126770936Y-128499064D01*
X101480000Y-109220000D02*
X96000000Y-114700000D01*
X106680000Y-109220000D02*
X101480000Y-109220000D01*
X119380000Y-119380000D02*
X127000000Y-119380000D01*
X117990000Y-119380000D02*
X119380000Y-119380000D01*
X115450000Y-116840000D02*
X117990000Y-119380000D01*
X100680000Y-119380000D02*
X96000000Y-114700000D01*
X115450000Y-116840000D02*
X112910000Y-119380000D01*
X112910000Y-119380000D02*
X100680000Y-119380000D01*
X173990000Y-116720000D02*
X173990000Y-128420000D01*
X203200000Y-110490000D02*
X209550000Y-110490000D01*
X201930000Y-111760000D02*
X203200000Y-110490000D01*
X203120000Y-107950000D02*
X201930000Y-106760000D01*
X209550000Y-107950000D02*
X203120000Y-107950000D01*
X239268000Y-102900000D02*
X239268000Y-101600000D01*
X238536000Y-103632000D02*
X239268000Y-102900000D01*
X231394000Y-103632000D02*
X238536000Y-103632000D01*
X229997000Y-102235000D02*
X231394000Y-103632000D01*
X229997000Y-101092000D02*
X229997000Y-102235000D01*
X151210000Y-97790000D02*
X152400000Y-96600000D01*
X144780000Y-97790000D02*
X151210000Y-97790000D01*
X165100000Y-109300000D02*
X152400000Y-96600000D01*
X165100000Y-110570000D02*
X165100000Y-109300000D01*
X181610000Y-96520000D02*
X181610000Y-92710000D01*
X173228000Y-104902000D02*
X181610000Y-96520000D01*
X170942000Y-104902000D02*
X173228000Y-104902000D01*
X165100000Y-109300000D02*
X166544000Y-109300000D01*
X166544000Y-109300000D02*
X170942000Y-104902000D01*
X181610000Y-92710000D02*
X189230000Y-92710000D01*
X211455000Y-113030000D02*
X209550000Y-113030000D01*
X212725000Y-114300000D02*
X211455000Y-113030000D01*
X212725000Y-126619000D02*
X212725000Y-114300000D01*
X208899999Y-130444001D02*
X212725000Y-126619000D01*
X145900000Y-128500000D02*
X147844001Y-130444001D01*
X147844001Y-130444001D02*
X208899999Y-130444001D01*
X217170000Y-110490000D02*
X217170000Y-113030000D01*
X141478000Y-106172000D02*
X144780000Y-102870000D01*
X132969000Y-106172000D02*
X141478000Y-106172000D01*
X127000000Y-109220000D02*
X129921000Y-109220000D01*
X129921000Y-109220000D02*
X132969000Y-106172000D01*
X123190000Y-113030000D02*
X127000000Y-109220000D01*
X107950000Y-116840000D02*
X111760000Y-113030000D01*
X111760000Y-113030000D02*
X123190000Y-113030000D01*
X190620000Y-101480000D02*
X189230000Y-102870000D01*
X198120000Y-101480000D02*
X190620000Y-101480000D01*
X234900000Y-119430000D02*
X236220000Y-118110000D01*
X234900000Y-128524000D02*
X234900000Y-119430000D01*
X66040000Y-95250000D02*
X73660000Y-95250000D01*
X139700000Y-100330000D02*
X137160000Y-100330000D01*
X140970000Y-99060000D02*
X139700000Y-100330000D01*
X140970000Y-92710000D02*
X140970000Y-99060000D01*
X138430000Y-90170000D02*
X140970000Y-92710000D01*
X73660000Y-95250000D02*
X78740000Y-90170000D01*
X78740000Y-90170000D02*
X138430000Y-90170000D01*
X120650000Y-95250000D02*
X119380000Y-93980000D01*
X128270000Y-95250000D02*
X120650000Y-95250000D01*
X152400000Y-101600000D02*
X149860000Y-101600000D01*
X149860000Y-101600000D02*
X148590000Y-100330000D01*
X148590000Y-100330000D02*
X144780000Y-100330000D01*
X165100000Y-117094000D02*
X165100000Y-115570000D01*
X165100000Y-120650000D02*
X165100000Y-117094000D01*
X162052000Y-123698000D02*
X165100000Y-120650000D01*
X158496000Y-123698000D02*
X162052000Y-123698000D01*
X150900000Y-128500000D02*
X153694000Y-128500000D01*
X153694000Y-128500000D02*
X158496000Y-123698000D01*
X231620001Y-112240001D02*
X227330000Y-107950000D01*
X260040000Y-114300000D02*
X257500000Y-116840000D01*
X257500000Y-116840000D02*
X252730000Y-116840000D01*
X231620001Y-112240001D02*
X244320001Y-112240001D01*
X244320001Y-112240001D02*
X246380000Y-114300000D01*
X250190000Y-114300000D02*
X252730000Y-116840000D01*
X246380000Y-114300000D02*
X250190000Y-114300000D01*
X245618000Y-110490000D02*
X243078000Y-107950000D01*
X261620000Y-110490000D02*
X245618000Y-110490000D01*
X262900000Y-128524000D02*
X262900000Y-111770000D01*
X262900000Y-111770000D02*
X261620000Y-110490000D01*
X243078000Y-107950000D02*
X236220000Y-107950000D01*
X241928000Y-114293000D02*
X245618000Y-117983000D01*
X234950000Y-114300000D02*
X241935000Y-114300000D01*
X229900000Y-128524000D02*
X229900000Y-119350000D01*
X229900000Y-119350000D02*
X234950000Y-114300000D01*
D23*
X225806000Y-92964000D02*
X231013000Y-92964000D01*
X219456000Y-99314000D02*
X225806000Y-92964000D01*
X219456000Y-105664000D02*
X219456000Y-103314000D01*
X217170000Y-107950000D02*
X219456000Y-105664000D01*
X219456000Y-103314000D02*
X210121000Y-103314000D01*
X210121000Y-103314000D02*
X202946000Y-96139000D01*
X202946000Y-92075000D02*
X200796010Y-89925010D01*
X202946000Y-96139000D02*
X202946000Y-92075000D01*
X150104990Y-89925010D02*
X144780000Y-95250000D01*
X200796010Y-89925010D02*
X150104990Y-89925010D01*
X220455999Y-102314001D02*
X220455999Y-101870001D01*
X219456000Y-103314000D02*
X220455999Y-102314001D01*
X220455999Y-101870001D02*
X226822000Y-95504000D01*
X226822000Y-95504000D02*
X233553000Y-95504000D01*
X233553000Y-95504000D02*
X236093000Y-92964000D01*
M02*
