G04 #@! TF.GenerationSoftware,KiCad,Pcbnew,(5.1.4)-1*
G04 #@! TF.CreationDate,2020-01-19T01:30:50+01:00*
G04 #@! TF.ProjectId,Lead-12-5010,4c656164-2d31-4322-9d35-3031302e6b69,rev?*
G04 #@! TF.SameCoordinates,Original*
G04 #@! TF.FileFunction,Soldermask,Bot*
G04 #@! TF.FilePolarity,Negative*
%FSLAX46Y46*%
G04 Gerber Fmt 4.6, Leading zero omitted, Abs format (unit mm)*
G04 Created by KiCad (PCBNEW (5.1.4)-1) date 2020-01-19 01:30:50*
%MOMM*%
%LPD*%
G04 APERTURE LIST*
%ADD10C,0.100000*%
G04 APERTURE END LIST*
D10*
G36*
X225135496Y-127325922D02*
G01*
X225256153Y-127349922D01*
X225348194Y-127388047D01*
X225478359Y-127441963D01*
X225678342Y-127575587D01*
X225848413Y-127745658D01*
X225982037Y-127945641D01*
X226026278Y-128052449D01*
X226064137Y-128143847D01*
X226074078Y-128167848D01*
X226121000Y-128403741D01*
X226121000Y-128644259D01*
X226074078Y-128880152D01*
X225982037Y-129102359D01*
X225848413Y-129302342D01*
X225678342Y-129472413D01*
X225478359Y-129606037D01*
X225348194Y-129659953D01*
X225256153Y-129698078D01*
X225140915Y-129721000D01*
X225020259Y-129745000D01*
X224779741Y-129745000D01*
X224659085Y-129721000D01*
X224543847Y-129698078D01*
X224451806Y-129659953D01*
X224321641Y-129606037D01*
X224121658Y-129472413D01*
X223951587Y-129302342D01*
X223817963Y-129102359D01*
X223725922Y-128880152D01*
X223679000Y-128644259D01*
X223679000Y-128403741D01*
X223725922Y-128167848D01*
X223735864Y-128143847D01*
X223773722Y-128052449D01*
X223817963Y-127945641D01*
X223951587Y-127745658D01*
X224121658Y-127575587D01*
X224321641Y-127441963D01*
X224451806Y-127388047D01*
X224543847Y-127349922D01*
X224664504Y-127325922D01*
X224779741Y-127303000D01*
X225020259Y-127303000D01*
X225135496Y-127325922D01*
X225135496Y-127325922D01*
G37*
G36*
X258135496Y-127325922D02*
G01*
X258256153Y-127349922D01*
X258348194Y-127388047D01*
X258478359Y-127441963D01*
X258678342Y-127575587D01*
X258848413Y-127745658D01*
X258982037Y-127945641D01*
X259026278Y-128052449D01*
X259064137Y-128143847D01*
X259074078Y-128167848D01*
X259121000Y-128403741D01*
X259121000Y-128644259D01*
X259074078Y-128880152D01*
X258982037Y-129102359D01*
X258848413Y-129302342D01*
X258678342Y-129472413D01*
X258478359Y-129606037D01*
X258348194Y-129659953D01*
X258256153Y-129698078D01*
X258140915Y-129721000D01*
X258020259Y-129745000D01*
X257779741Y-129745000D01*
X257659085Y-129721000D01*
X257543847Y-129698078D01*
X257451806Y-129659953D01*
X257321641Y-129606037D01*
X257121658Y-129472413D01*
X256951587Y-129302342D01*
X256817963Y-129102359D01*
X256725922Y-128880152D01*
X256679000Y-128644259D01*
X256679000Y-128403741D01*
X256725922Y-128167848D01*
X256735864Y-128143847D01*
X256773722Y-128052449D01*
X256817963Y-127945641D01*
X256951587Y-127745658D01*
X257121658Y-127575587D01*
X257321641Y-127441963D01*
X257451806Y-127388047D01*
X257543847Y-127349922D01*
X257664504Y-127325922D01*
X257779741Y-127303000D01*
X258020259Y-127303000D01*
X258135496Y-127325922D01*
X258135496Y-127325922D01*
G37*
G36*
X207135496Y-127325922D02*
G01*
X207256153Y-127349922D01*
X207348194Y-127388047D01*
X207478359Y-127441963D01*
X207678342Y-127575587D01*
X207848413Y-127745658D01*
X207982037Y-127945641D01*
X208026278Y-128052449D01*
X208064137Y-128143847D01*
X208074078Y-128167848D01*
X208121000Y-128403741D01*
X208121000Y-128644259D01*
X208074078Y-128880152D01*
X207982037Y-129102359D01*
X207848413Y-129302342D01*
X207678342Y-129472413D01*
X207478359Y-129606037D01*
X207348194Y-129659953D01*
X207256153Y-129698078D01*
X207140915Y-129721000D01*
X207020259Y-129745000D01*
X206779741Y-129745000D01*
X206659085Y-129721000D01*
X206543847Y-129698078D01*
X206451806Y-129659953D01*
X206321641Y-129606037D01*
X206121658Y-129472413D01*
X205951587Y-129302342D01*
X205817963Y-129102359D01*
X205725922Y-128880152D01*
X205679000Y-128644259D01*
X205679000Y-128403741D01*
X205725922Y-128167848D01*
X205735864Y-128143847D01*
X205773722Y-128052449D01*
X205817963Y-127945641D01*
X205951587Y-127745658D01*
X206121658Y-127575587D01*
X206321641Y-127441963D01*
X206451806Y-127388047D01*
X206543847Y-127349922D01*
X206664504Y-127325922D01*
X206779741Y-127303000D01*
X207020259Y-127303000D01*
X207135496Y-127325922D01*
X207135496Y-127325922D01*
G37*
G36*
X202135496Y-127325922D02*
G01*
X202256153Y-127349922D01*
X202348194Y-127388047D01*
X202478359Y-127441963D01*
X202678342Y-127575587D01*
X202848413Y-127745658D01*
X202982037Y-127945641D01*
X203026278Y-128052449D01*
X203064137Y-128143847D01*
X203074078Y-128167848D01*
X203121000Y-128403741D01*
X203121000Y-128644259D01*
X203074078Y-128880152D01*
X202982037Y-129102359D01*
X202848413Y-129302342D01*
X202678342Y-129472413D01*
X202478359Y-129606037D01*
X202348194Y-129659953D01*
X202256153Y-129698078D01*
X202140915Y-129721000D01*
X202020259Y-129745000D01*
X201779741Y-129745000D01*
X201659085Y-129721000D01*
X201543847Y-129698078D01*
X201451806Y-129659953D01*
X201321641Y-129606037D01*
X201121658Y-129472413D01*
X200951587Y-129302342D01*
X200817963Y-129102359D01*
X200725922Y-128880152D01*
X200679000Y-128644259D01*
X200679000Y-128403741D01*
X200725922Y-128167848D01*
X200735864Y-128143847D01*
X200773722Y-128052449D01*
X200817963Y-127945641D01*
X200951587Y-127745658D01*
X201121658Y-127575587D01*
X201321641Y-127441963D01*
X201451806Y-127388047D01*
X201543847Y-127349922D01*
X201664504Y-127325922D01*
X201779741Y-127303000D01*
X202020259Y-127303000D01*
X202135496Y-127325922D01*
X202135496Y-127325922D01*
G37*
G36*
X197135496Y-127325922D02*
G01*
X197256153Y-127349922D01*
X197348194Y-127388047D01*
X197478359Y-127441963D01*
X197678342Y-127575587D01*
X197848413Y-127745658D01*
X197982037Y-127945641D01*
X198026278Y-128052449D01*
X198064137Y-128143847D01*
X198074078Y-128167848D01*
X198121000Y-128403741D01*
X198121000Y-128644259D01*
X198074078Y-128880152D01*
X197982037Y-129102359D01*
X197848413Y-129302342D01*
X197678342Y-129472413D01*
X197478359Y-129606037D01*
X197348194Y-129659953D01*
X197256153Y-129698078D01*
X197140915Y-129721000D01*
X197020259Y-129745000D01*
X196779741Y-129745000D01*
X196659085Y-129721000D01*
X196543847Y-129698078D01*
X196451806Y-129659953D01*
X196321641Y-129606037D01*
X196121658Y-129472413D01*
X195951587Y-129302342D01*
X195817963Y-129102359D01*
X195725922Y-128880152D01*
X195679000Y-128644259D01*
X195679000Y-128403741D01*
X195725922Y-128167848D01*
X195735864Y-128143847D01*
X195773722Y-128052449D01*
X195817963Y-127945641D01*
X195951587Y-127745658D01*
X196121658Y-127575587D01*
X196321641Y-127441963D01*
X196451806Y-127388047D01*
X196543847Y-127349922D01*
X196664504Y-127325922D01*
X196779741Y-127303000D01*
X197020259Y-127303000D01*
X197135496Y-127325922D01*
X197135496Y-127325922D01*
G37*
G36*
X263135496Y-127325922D02*
G01*
X263256153Y-127349922D01*
X263348194Y-127388047D01*
X263478359Y-127441963D01*
X263678342Y-127575587D01*
X263848413Y-127745658D01*
X263982037Y-127945641D01*
X264026278Y-128052449D01*
X264064137Y-128143847D01*
X264074078Y-128167848D01*
X264121000Y-128403741D01*
X264121000Y-128644259D01*
X264074078Y-128880152D01*
X263982037Y-129102359D01*
X263848413Y-129302342D01*
X263678342Y-129472413D01*
X263478359Y-129606037D01*
X263348194Y-129659953D01*
X263256153Y-129698078D01*
X263140915Y-129721000D01*
X263020259Y-129745000D01*
X262779741Y-129745000D01*
X262659085Y-129721000D01*
X262543847Y-129698078D01*
X262451806Y-129659953D01*
X262321641Y-129606037D01*
X262121658Y-129472413D01*
X261951587Y-129302342D01*
X261817963Y-129102359D01*
X261725922Y-128880152D01*
X261679000Y-128644259D01*
X261679000Y-128403741D01*
X261725922Y-128167848D01*
X261735864Y-128143847D01*
X261773722Y-128052449D01*
X261817963Y-127945641D01*
X261951587Y-127745658D01*
X262121658Y-127575587D01*
X262321641Y-127441963D01*
X262451806Y-127388047D01*
X262543847Y-127349922D01*
X262664504Y-127325922D01*
X262779741Y-127303000D01*
X263020259Y-127303000D01*
X263135496Y-127325922D01*
X263135496Y-127325922D01*
G37*
G36*
X253135496Y-127325922D02*
G01*
X253256153Y-127349922D01*
X253348194Y-127388047D01*
X253478359Y-127441963D01*
X253678342Y-127575587D01*
X253848413Y-127745658D01*
X253982037Y-127945641D01*
X254026278Y-128052449D01*
X254064137Y-128143847D01*
X254074078Y-128167848D01*
X254121000Y-128403741D01*
X254121000Y-128644259D01*
X254074078Y-128880152D01*
X253982037Y-129102359D01*
X253848413Y-129302342D01*
X253678342Y-129472413D01*
X253478359Y-129606037D01*
X253348194Y-129659953D01*
X253256153Y-129698078D01*
X253140915Y-129721000D01*
X253020259Y-129745000D01*
X252779741Y-129745000D01*
X252659085Y-129721000D01*
X252543847Y-129698078D01*
X252451806Y-129659953D01*
X252321641Y-129606037D01*
X252121658Y-129472413D01*
X251951587Y-129302342D01*
X251817963Y-129102359D01*
X251725922Y-128880152D01*
X251679000Y-128644259D01*
X251679000Y-128403741D01*
X251725922Y-128167848D01*
X251735864Y-128143847D01*
X251773722Y-128052449D01*
X251817963Y-127945641D01*
X251951587Y-127745658D01*
X252121658Y-127575587D01*
X252321641Y-127441963D01*
X252451806Y-127388047D01*
X252543847Y-127349922D01*
X252664504Y-127325922D01*
X252779741Y-127303000D01*
X253020259Y-127303000D01*
X253135496Y-127325922D01*
X253135496Y-127325922D01*
G37*
G36*
X230135496Y-127325922D02*
G01*
X230256153Y-127349922D01*
X230348194Y-127388047D01*
X230478359Y-127441963D01*
X230678342Y-127575587D01*
X230848413Y-127745658D01*
X230982037Y-127945641D01*
X231026278Y-128052449D01*
X231064137Y-128143847D01*
X231074078Y-128167848D01*
X231121000Y-128403741D01*
X231121000Y-128644259D01*
X231074078Y-128880152D01*
X230982037Y-129102359D01*
X230848413Y-129302342D01*
X230678342Y-129472413D01*
X230478359Y-129606037D01*
X230348194Y-129659953D01*
X230256153Y-129698078D01*
X230140915Y-129721000D01*
X230020259Y-129745000D01*
X229779741Y-129745000D01*
X229659085Y-129721000D01*
X229543847Y-129698078D01*
X229451806Y-129659953D01*
X229321641Y-129606037D01*
X229121658Y-129472413D01*
X228951587Y-129302342D01*
X228817963Y-129102359D01*
X228725922Y-128880152D01*
X228679000Y-128644259D01*
X228679000Y-128403741D01*
X228725922Y-128167848D01*
X228735864Y-128143847D01*
X228773722Y-128052449D01*
X228817963Y-127945641D01*
X228951587Y-127745658D01*
X229121658Y-127575587D01*
X229321641Y-127441963D01*
X229451806Y-127388047D01*
X229543847Y-127349922D01*
X229664504Y-127325922D01*
X229779741Y-127303000D01*
X230020259Y-127303000D01*
X230135496Y-127325922D01*
X230135496Y-127325922D01*
G37*
G36*
X235135496Y-127325922D02*
G01*
X235256153Y-127349922D01*
X235348194Y-127388047D01*
X235478359Y-127441963D01*
X235678342Y-127575587D01*
X235848413Y-127745658D01*
X235982037Y-127945641D01*
X236026278Y-128052449D01*
X236064137Y-128143847D01*
X236074078Y-128167848D01*
X236121000Y-128403741D01*
X236121000Y-128644259D01*
X236074078Y-128880152D01*
X235982037Y-129102359D01*
X235848413Y-129302342D01*
X235678342Y-129472413D01*
X235478359Y-129606037D01*
X235348194Y-129659953D01*
X235256153Y-129698078D01*
X235140915Y-129721000D01*
X235020259Y-129745000D01*
X234779741Y-129745000D01*
X234659085Y-129721000D01*
X234543847Y-129698078D01*
X234451806Y-129659953D01*
X234321641Y-129606037D01*
X234121658Y-129472413D01*
X233951587Y-129302342D01*
X233817963Y-129102359D01*
X233725922Y-128880152D01*
X233679000Y-128644259D01*
X233679000Y-128403741D01*
X233725922Y-128167848D01*
X233735864Y-128143847D01*
X233773722Y-128052449D01*
X233817963Y-127945641D01*
X233951587Y-127745658D01*
X234121658Y-127575587D01*
X234321641Y-127441963D01*
X234451806Y-127388047D01*
X234543847Y-127349922D01*
X234664504Y-127325922D01*
X234779741Y-127303000D01*
X235020259Y-127303000D01*
X235135496Y-127325922D01*
X235135496Y-127325922D01*
G37*
G36*
X169266153Y-127325922D02*
G01*
X169358194Y-127364047D01*
X169488359Y-127417963D01*
X169688342Y-127551587D01*
X169858413Y-127721658D01*
X169992037Y-127921641D01*
X170001978Y-127945641D01*
X170084078Y-128143847D01*
X170131000Y-128379742D01*
X170131000Y-128620258D01*
X170084078Y-128856153D01*
X170045953Y-128948194D01*
X169992037Y-129078359D01*
X169858413Y-129278342D01*
X169688342Y-129448413D01*
X169488359Y-129582037D01*
X169358194Y-129635953D01*
X169266153Y-129674078D01*
X169148205Y-129697539D01*
X169030259Y-129721000D01*
X168789741Y-129721000D01*
X168671795Y-129697539D01*
X168553847Y-129674078D01*
X168461806Y-129635953D01*
X168331641Y-129582037D01*
X168131658Y-129448413D01*
X167961587Y-129278342D01*
X167827963Y-129078359D01*
X167774047Y-128948194D01*
X167735922Y-128856153D01*
X167689000Y-128620258D01*
X167689000Y-128379742D01*
X167735922Y-128143847D01*
X167818022Y-127945641D01*
X167827963Y-127921641D01*
X167961587Y-127721658D01*
X168131658Y-127551587D01*
X168331641Y-127417963D01*
X168461806Y-127364047D01*
X168553847Y-127325922D01*
X168789741Y-127279000D01*
X169030259Y-127279000D01*
X169266153Y-127325922D01*
X169266153Y-127325922D01*
G37*
G36*
X174266153Y-127325922D02*
G01*
X174358194Y-127364047D01*
X174488359Y-127417963D01*
X174688342Y-127551587D01*
X174858413Y-127721658D01*
X174992037Y-127921641D01*
X175001978Y-127945641D01*
X175084078Y-128143847D01*
X175131000Y-128379742D01*
X175131000Y-128620258D01*
X175084078Y-128856153D01*
X175045953Y-128948194D01*
X174992037Y-129078359D01*
X174858413Y-129278342D01*
X174688342Y-129448413D01*
X174488359Y-129582037D01*
X174358194Y-129635953D01*
X174266153Y-129674078D01*
X174148205Y-129697539D01*
X174030259Y-129721000D01*
X173789741Y-129721000D01*
X173671795Y-129697539D01*
X173553847Y-129674078D01*
X173461806Y-129635953D01*
X173331641Y-129582037D01*
X173131658Y-129448413D01*
X172961587Y-129278342D01*
X172827963Y-129078359D01*
X172774047Y-128948194D01*
X172735922Y-128856153D01*
X172689000Y-128620258D01*
X172689000Y-128379742D01*
X172735922Y-128143847D01*
X172818022Y-127945641D01*
X172827963Y-127921641D01*
X172961587Y-127721658D01*
X173131658Y-127551587D01*
X173331641Y-127417963D01*
X173461806Y-127364047D01*
X173553847Y-127325922D01*
X173789741Y-127279000D01*
X174030259Y-127279000D01*
X174266153Y-127325922D01*
X174266153Y-127325922D01*
G37*
G36*
X179266153Y-127325922D02*
G01*
X179358194Y-127364047D01*
X179488359Y-127417963D01*
X179688342Y-127551587D01*
X179858413Y-127721658D01*
X179992037Y-127921641D01*
X180001978Y-127945641D01*
X180084078Y-128143847D01*
X180131000Y-128379742D01*
X180131000Y-128620258D01*
X180084078Y-128856153D01*
X180045953Y-128948194D01*
X179992037Y-129078359D01*
X179858413Y-129278342D01*
X179688342Y-129448413D01*
X179488359Y-129582037D01*
X179358194Y-129635953D01*
X179266153Y-129674078D01*
X179148205Y-129697539D01*
X179030259Y-129721000D01*
X178789741Y-129721000D01*
X178671795Y-129697539D01*
X178553847Y-129674078D01*
X178461806Y-129635953D01*
X178331641Y-129582037D01*
X178131658Y-129448413D01*
X177961587Y-129278342D01*
X177827963Y-129078359D01*
X177774047Y-128948194D01*
X177735922Y-128856153D01*
X177689000Y-128620258D01*
X177689000Y-128379742D01*
X177735922Y-128143847D01*
X177818022Y-127945641D01*
X177827963Y-127921641D01*
X177961587Y-127721658D01*
X178131658Y-127551587D01*
X178331641Y-127417963D01*
X178461806Y-127364047D01*
X178553847Y-127325922D01*
X178789741Y-127279000D01*
X179030259Y-127279000D01*
X179266153Y-127325922D01*
X179266153Y-127325922D01*
G37*
G36*
X141256153Y-127325922D02*
G01*
X141348194Y-127364047D01*
X141478359Y-127417963D01*
X141678342Y-127551587D01*
X141848413Y-127721658D01*
X141982037Y-127921641D01*
X141991978Y-127945641D01*
X142074078Y-128143847D01*
X142121000Y-128379742D01*
X142121000Y-128620258D01*
X142074078Y-128856153D01*
X142035953Y-128948194D01*
X141982037Y-129078359D01*
X141848413Y-129278342D01*
X141678342Y-129448413D01*
X141478359Y-129582037D01*
X141348194Y-129635953D01*
X141256153Y-129674078D01*
X141138205Y-129697539D01*
X141020259Y-129721000D01*
X140779741Y-129721000D01*
X140661795Y-129697539D01*
X140543847Y-129674078D01*
X140451806Y-129635953D01*
X140321641Y-129582037D01*
X140121658Y-129448413D01*
X139951587Y-129278342D01*
X139817963Y-129078359D01*
X139764047Y-128948194D01*
X139725922Y-128856153D01*
X139679000Y-128620258D01*
X139679000Y-128379742D01*
X139725922Y-128143847D01*
X139808022Y-127945641D01*
X139817963Y-127921641D01*
X139951587Y-127721658D01*
X140121658Y-127551587D01*
X140321641Y-127417963D01*
X140451806Y-127364047D01*
X140543847Y-127325922D01*
X140779741Y-127279000D01*
X141020259Y-127279000D01*
X141256153Y-127325922D01*
X141256153Y-127325922D01*
G37*
G36*
X146256153Y-127325922D02*
G01*
X146348194Y-127364047D01*
X146478359Y-127417963D01*
X146678342Y-127551587D01*
X146848413Y-127721658D01*
X146982037Y-127921641D01*
X146991978Y-127945641D01*
X147074078Y-128143847D01*
X147121000Y-128379742D01*
X147121000Y-128620258D01*
X147074078Y-128856153D01*
X147035953Y-128948194D01*
X146982037Y-129078359D01*
X146848413Y-129278342D01*
X146678342Y-129448413D01*
X146478359Y-129582037D01*
X146348194Y-129635953D01*
X146256153Y-129674078D01*
X146138205Y-129697539D01*
X146020259Y-129721000D01*
X145779741Y-129721000D01*
X145661795Y-129697539D01*
X145543847Y-129674078D01*
X145451806Y-129635953D01*
X145321641Y-129582037D01*
X145121658Y-129448413D01*
X144951587Y-129278342D01*
X144817963Y-129078359D01*
X144764047Y-128948194D01*
X144725922Y-128856153D01*
X144679000Y-128620258D01*
X144679000Y-128379742D01*
X144725922Y-128143847D01*
X144808022Y-127945641D01*
X144817963Y-127921641D01*
X144951587Y-127721658D01*
X145121658Y-127551587D01*
X145321641Y-127417963D01*
X145451806Y-127364047D01*
X145543847Y-127325922D01*
X145779741Y-127279000D01*
X146020259Y-127279000D01*
X146256153Y-127325922D01*
X146256153Y-127325922D01*
G37*
G36*
X151256153Y-127325922D02*
G01*
X151348194Y-127364047D01*
X151478359Y-127417963D01*
X151678342Y-127551587D01*
X151848413Y-127721658D01*
X151982037Y-127921641D01*
X151991978Y-127945641D01*
X152074078Y-128143847D01*
X152121000Y-128379742D01*
X152121000Y-128620258D01*
X152074078Y-128856153D01*
X152035953Y-128948194D01*
X151982037Y-129078359D01*
X151848413Y-129278342D01*
X151678342Y-129448413D01*
X151478359Y-129582037D01*
X151348194Y-129635953D01*
X151256153Y-129674078D01*
X151138205Y-129697539D01*
X151020259Y-129721000D01*
X150779741Y-129721000D01*
X150661795Y-129697539D01*
X150543847Y-129674078D01*
X150451806Y-129635953D01*
X150321641Y-129582037D01*
X150121658Y-129448413D01*
X149951587Y-129278342D01*
X149817963Y-129078359D01*
X149764047Y-128948194D01*
X149725922Y-128856153D01*
X149679000Y-128620258D01*
X149679000Y-128379742D01*
X149725922Y-128143847D01*
X149808022Y-127945641D01*
X149817963Y-127921641D01*
X149951587Y-127721658D01*
X150121658Y-127551587D01*
X150321641Y-127417963D01*
X150451806Y-127364047D01*
X150543847Y-127325922D01*
X150779741Y-127279000D01*
X151020259Y-127279000D01*
X151256153Y-127325922D01*
X151256153Y-127325922D01*
G37*
G36*
X113256153Y-127325922D02*
G01*
X113348194Y-127364047D01*
X113478359Y-127417963D01*
X113678342Y-127551587D01*
X113848413Y-127721658D01*
X113982037Y-127921641D01*
X113991978Y-127945641D01*
X114074078Y-128143847D01*
X114121000Y-128379742D01*
X114121000Y-128620258D01*
X114074078Y-128856153D01*
X114035953Y-128948194D01*
X113982037Y-129078359D01*
X113848413Y-129278342D01*
X113678342Y-129448413D01*
X113478359Y-129582037D01*
X113348194Y-129635953D01*
X113256153Y-129674078D01*
X113138205Y-129697539D01*
X113020259Y-129721000D01*
X112779741Y-129721000D01*
X112661795Y-129697539D01*
X112543847Y-129674078D01*
X112451806Y-129635953D01*
X112321641Y-129582037D01*
X112121658Y-129448413D01*
X111951587Y-129278342D01*
X111817963Y-129078359D01*
X111764047Y-128948194D01*
X111725922Y-128856153D01*
X111679000Y-128620258D01*
X111679000Y-128379742D01*
X111725922Y-128143847D01*
X111808022Y-127945641D01*
X111817963Y-127921641D01*
X111951587Y-127721658D01*
X112121658Y-127551587D01*
X112321641Y-127417963D01*
X112451806Y-127364047D01*
X112543847Y-127325922D01*
X112779741Y-127279000D01*
X113020259Y-127279000D01*
X113256153Y-127325922D01*
X113256153Y-127325922D01*
G37*
G36*
X118256153Y-127325922D02*
G01*
X118348194Y-127364047D01*
X118478359Y-127417963D01*
X118678342Y-127551587D01*
X118848413Y-127721658D01*
X118982037Y-127921641D01*
X118991978Y-127945641D01*
X119074078Y-128143847D01*
X119121000Y-128379742D01*
X119121000Y-128620258D01*
X119074078Y-128856153D01*
X119035953Y-128948194D01*
X118982037Y-129078359D01*
X118848413Y-129278342D01*
X118678342Y-129448413D01*
X118478359Y-129582037D01*
X118348194Y-129635953D01*
X118256153Y-129674078D01*
X118138205Y-129697539D01*
X118020259Y-129721000D01*
X117779741Y-129721000D01*
X117661795Y-129697539D01*
X117543847Y-129674078D01*
X117451806Y-129635953D01*
X117321641Y-129582037D01*
X117121658Y-129448413D01*
X116951587Y-129278342D01*
X116817963Y-129078359D01*
X116764047Y-128948194D01*
X116725922Y-128856153D01*
X116679000Y-128620258D01*
X116679000Y-128379742D01*
X116725922Y-128143847D01*
X116808022Y-127945641D01*
X116817963Y-127921641D01*
X116951587Y-127721658D01*
X117121658Y-127551587D01*
X117321641Y-127417963D01*
X117451806Y-127364047D01*
X117543847Y-127325922D01*
X117779741Y-127279000D01*
X118020259Y-127279000D01*
X118256153Y-127325922D01*
X118256153Y-127325922D01*
G37*
G36*
X123256153Y-127325922D02*
G01*
X123348194Y-127364047D01*
X123478359Y-127417963D01*
X123678342Y-127551587D01*
X123848413Y-127721658D01*
X123982037Y-127921641D01*
X123991978Y-127945641D01*
X124074078Y-128143847D01*
X124121000Y-128379742D01*
X124121000Y-128620258D01*
X124074078Y-128856153D01*
X124035953Y-128948194D01*
X123982037Y-129078359D01*
X123848413Y-129278342D01*
X123678342Y-129448413D01*
X123478359Y-129582037D01*
X123348194Y-129635953D01*
X123256153Y-129674078D01*
X123138205Y-129697539D01*
X123020259Y-129721000D01*
X122779741Y-129721000D01*
X122661795Y-129697539D01*
X122543847Y-129674078D01*
X122451806Y-129635953D01*
X122321641Y-129582037D01*
X122121658Y-129448413D01*
X121951587Y-129278342D01*
X121817963Y-129078359D01*
X121764047Y-128948194D01*
X121725922Y-128856153D01*
X121679000Y-128620258D01*
X121679000Y-128379742D01*
X121725922Y-128143847D01*
X121808022Y-127945641D01*
X121817963Y-127921641D01*
X121951587Y-127721658D01*
X122121658Y-127551587D01*
X122321641Y-127417963D01*
X122451806Y-127364047D01*
X122543847Y-127325922D01*
X122779741Y-127279000D01*
X123020259Y-127279000D01*
X123256153Y-127325922D01*
X123256153Y-127325922D01*
G37*
G36*
X96302585Y-125778802D02*
G01*
X96452410Y-125808604D01*
X96734674Y-125925521D01*
X96988705Y-126095259D01*
X97204741Y-126311295D01*
X97374479Y-126565326D01*
X97491396Y-126847590D01*
X97551000Y-127147240D01*
X97551000Y-127452760D01*
X97491396Y-127752410D01*
X97374479Y-128034674D01*
X97204741Y-128288705D01*
X96988705Y-128504741D01*
X96734674Y-128674479D01*
X96452410Y-128791396D01*
X96302585Y-128821198D01*
X96152761Y-128851000D01*
X95847239Y-128851000D01*
X95697415Y-128821198D01*
X95547590Y-128791396D01*
X95265326Y-128674479D01*
X95011295Y-128504741D01*
X94795259Y-128288705D01*
X94625521Y-128034674D01*
X94508604Y-127752410D01*
X94449000Y-127452760D01*
X94449000Y-127147240D01*
X94508604Y-126847590D01*
X94625521Y-126565326D01*
X94795259Y-126311295D01*
X95011295Y-126095259D01*
X95265326Y-125925521D01*
X95547590Y-125808604D01*
X95697415Y-125778802D01*
X95847239Y-125749000D01*
X96152761Y-125749000D01*
X96302585Y-125778802D01*
X96302585Y-125778802D01*
G37*
G36*
X80102585Y-125778802D02*
G01*
X80252410Y-125808604D01*
X80534674Y-125925521D01*
X80788705Y-126095259D01*
X81004741Y-126311295D01*
X81174479Y-126565326D01*
X81291396Y-126847590D01*
X81351000Y-127147240D01*
X81351000Y-127452760D01*
X81291396Y-127752410D01*
X81174479Y-128034674D01*
X81004741Y-128288705D01*
X80788705Y-128504741D01*
X80534674Y-128674479D01*
X80252410Y-128791396D01*
X80102585Y-128821198D01*
X79952761Y-128851000D01*
X79647239Y-128851000D01*
X79497415Y-128821198D01*
X79347590Y-128791396D01*
X79065326Y-128674479D01*
X78811295Y-128504741D01*
X78595259Y-128288705D01*
X78425521Y-128034674D01*
X78308604Y-127752410D01*
X78249000Y-127452760D01*
X78249000Y-127147240D01*
X78308604Y-126847590D01*
X78425521Y-126565326D01*
X78595259Y-126311295D01*
X78811295Y-126095259D01*
X79065326Y-125925521D01*
X79347590Y-125808604D01*
X79497415Y-125778802D01*
X79647239Y-125749000D01*
X79952761Y-125749000D01*
X80102585Y-125778802D01*
X80102585Y-125778802D01*
G37*
G36*
X66302585Y-125778802D02*
G01*
X66452410Y-125808604D01*
X66734674Y-125925521D01*
X66988705Y-126095259D01*
X67204741Y-126311295D01*
X67374479Y-126565326D01*
X67491396Y-126847590D01*
X67551000Y-127147240D01*
X67551000Y-127452760D01*
X67491396Y-127752410D01*
X67374479Y-128034674D01*
X67204741Y-128288705D01*
X66988705Y-128504741D01*
X66734674Y-128674479D01*
X66452410Y-128791396D01*
X66302585Y-128821198D01*
X66152761Y-128851000D01*
X65847239Y-128851000D01*
X65697415Y-128821198D01*
X65547590Y-128791396D01*
X65265326Y-128674479D01*
X65011295Y-128504741D01*
X64795259Y-128288705D01*
X64625521Y-128034674D01*
X64508604Y-127752410D01*
X64449000Y-127452760D01*
X64449000Y-127147240D01*
X64508604Y-126847590D01*
X64625521Y-126565326D01*
X64795259Y-126311295D01*
X65011295Y-126095259D01*
X65265326Y-125925521D01*
X65547590Y-125808604D01*
X65697415Y-125778802D01*
X65847239Y-125749000D01*
X66152761Y-125749000D01*
X66302585Y-125778802D01*
X66302585Y-125778802D01*
G37*
G36*
X50102585Y-125778802D02*
G01*
X50252410Y-125808604D01*
X50534674Y-125925521D01*
X50788705Y-126095259D01*
X51004741Y-126311295D01*
X51174479Y-126565326D01*
X51291396Y-126847590D01*
X51351000Y-127147240D01*
X51351000Y-127452760D01*
X51291396Y-127752410D01*
X51174479Y-128034674D01*
X51004741Y-128288705D01*
X50788705Y-128504741D01*
X50534674Y-128674479D01*
X50252410Y-128791396D01*
X50102585Y-128821198D01*
X49952761Y-128851000D01*
X49647239Y-128851000D01*
X49497415Y-128821198D01*
X49347590Y-128791396D01*
X49065326Y-128674479D01*
X48811295Y-128504741D01*
X48595259Y-128288705D01*
X48425521Y-128034674D01*
X48308604Y-127752410D01*
X48249000Y-127452760D01*
X48249000Y-127147240D01*
X48308604Y-126847590D01*
X48425521Y-126565326D01*
X48595259Y-126311295D01*
X48811295Y-126095259D01*
X49065326Y-125925521D01*
X49347590Y-125808604D01*
X49497415Y-125778802D01*
X49647239Y-125749000D01*
X49952761Y-125749000D01*
X50102585Y-125778802D01*
X50102585Y-125778802D01*
G37*
G36*
X244215256Y-125391298D02*
G01*
X244321579Y-125412447D01*
X244622042Y-125536903D01*
X244892451Y-125717585D01*
X245122415Y-125947549D01*
X245303097Y-126217958D01*
X245303098Y-126217960D01*
X245427553Y-126518422D01*
X245491000Y-126837389D01*
X245491000Y-127162611D01*
X245463075Y-127303000D01*
X245427553Y-127481579D01*
X245339550Y-127694037D01*
X245315372Y-127752409D01*
X245303097Y-127782042D01*
X245122415Y-128052451D01*
X244892451Y-128282415D01*
X244622042Y-128463097D01*
X244321579Y-128587553D01*
X244215256Y-128608702D01*
X244002611Y-128651000D01*
X243677389Y-128651000D01*
X243464744Y-128608702D01*
X243358421Y-128587553D01*
X243057958Y-128463097D01*
X242787549Y-128282415D01*
X242557585Y-128052451D01*
X242376903Y-127782042D01*
X242364629Y-127752409D01*
X242340450Y-127694037D01*
X242252447Y-127481579D01*
X242216925Y-127303000D01*
X242189000Y-127162611D01*
X242189000Y-126837389D01*
X242252447Y-126518422D01*
X242376902Y-126217960D01*
X242376903Y-126217958D01*
X242557585Y-125947549D01*
X242787549Y-125717585D01*
X243057958Y-125536903D01*
X243358421Y-125412447D01*
X243464744Y-125391298D01*
X243677389Y-125349000D01*
X244002611Y-125349000D01*
X244215256Y-125391298D01*
X244215256Y-125391298D01*
G37*
G36*
X73273256Y-125391298D02*
G01*
X73379579Y-125412447D01*
X73680042Y-125536903D01*
X73950451Y-125717585D01*
X74180415Y-125947549D01*
X74361097Y-126217958D01*
X74361098Y-126217960D01*
X74485553Y-126518422D01*
X74549000Y-126837389D01*
X74549000Y-127162611D01*
X74521075Y-127303000D01*
X74485553Y-127481579D01*
X74397550Y-127694037D01*
X74373372Y-127752409D01*
X74361097Y-127782042D01*
X74180415Y-128052451D01*
X73950451Y-128282415D01*
X73680042Y-128463097D01*
X73379579Y-128587553D01*
X73273256Y-128608702D01*
X73060611Y-128651000D01*
X72735389Y-128651000D01*
X72522744Y-128608702D01*
X72416421Y-128587553D01*
X72115958Y-128463097D01*
X71845549Y-128282415D01*
X71615585Y-128052451D01*
X71434903Y-127782042D01*
X71422629Y-127752409D01*
X71398450Y-127694037D01*
X71310447Y-127481579D01*
X71274925Y-127303000D01*
X71247000Y-127162611D01*
X71247000Y-126837389D01*
X71310447Y-126518422D01*
X71434902Y-126217960D01*
X71434903Y-126217958D01*
X71615585Y-125947549D01*
X71845549Y-125717585D01*
X72115958Y-125536903D01*
X72416421Y-125412447D01*
X72522744Y-125391298D01*
X72735389Y-125349000D01*
X73060611Y-125349000D01*
X73273256Y-125391298D01*
X73273256Y-125391298D01*
G37*
G36*
X160395256Y-125391298D02*
G01*
X160501579Y-125412447D01*
X160802042Y-125536903D01*
X161072451Y-125717585D01*
X161302415Y-125947549D01*
X161483097Y-126217958D01*
X161483098Y-126217960D01*
X161607553Y-126518422D01*
X161671000Y-126837389D01*
X161671000Y-127162611D01*
X161643075Y-127303000D01*
X161607553Y-127481579D01*
X161519550Y-127694037D01*
X161495372Y-127752409D01*
X161483097Y-127782042D01*
X161302415Y-128052451D01*
X161072451Y-128282415D01*
X160802042Y-128463097D01*
X160501579Y-128587553D01*
X160395256Y-128608702D01*
X160182611Y-128651000D01*
X159857389Y-128651000D01*
X159644744Y-128608702D01*
X159538421Y-128587553D01*
X159237958Y-128463097D01*
X158967549Y-128282415D01*
X158737585Y-128052451D01*
X158556903Y-127782042D01*
X158544629Y-127752409D01*
X158520450Y-127694037D01*
X158432447Y-127481579D01*
X158396925Y-127303000D01*
X158369000Y-127162611D01*
X158369000Y-126837389D01*
X158432447Y-126518422D01*
X158556902Y-126217960D01*
X158556903Y-126217958D01*
X158737585Y-125947549D01*
X158967549Y-125717585D01*
X159237958Y-125536903D01*
X159538421Y-125412447D01*
X159644744Y-125391298D01*
X159857389Y-125349000D01*
X160182611Y-125349000D01*
X160395256Y-125391298D01*
X160395256Y-125391298D01*
G37*
G36*
X50102585Y-119478802D02*
G01*
X50252410Y-119508604D01*
X50534674Y-119625521D01*
X50788705Y-119795259D01*
X51004741Y-120011295D01*
X51174479Y-120265326D01*
X51291396Y-120547590D01*
X51351000Y-120847240D01*
X51351000Y-121152760D01*
X51291396Y-121452410D01*
X51174479Y-121734674D01*
X51004741Y-121988705D01*
X50788705Y-122204741D01*
X50534674Y-122374479D01*
X50252410Y-122491396D01*
X50102585Y-122521198D01*
X49952761Y-122551000D01*
X49647239Y-122551000D01*
X49497415Y-122521198D01*
X49347590Y-122491396D01*
X49065326Y-122374479D01*
X48811295Y-122204741D01*
X48595259Y-121988705D01*
X48425521Y-121734674D01*
X48308604Y-121452410D01*
X48249000Y-121152760D01*
X48249000Y-120847240D01*
X48308604Y-120547590D01*
X48425521Y-120265326D01*
X48595259Y-120011295D01*
X48811295Y-119795259D01*
X49065326Y-119625521D01*
X49347590Y-119508604D01*
X49497415Y-119478802D01*
X49647239Y-119449000D01*
X49952761Y-119449000D01*
X50102585Y-119478802D01*
X50102585Y-119478802D01*
G37*
G36*
X96302585Y-119478802D02*
G01*
X96452410Y-119508604D01*
X96734674Y-119625521D01*
X96988705Y-119795259D01*
X97204741Y-120011295D01*
X97374479Y-120265326D01*
X97491396Y-120547590D01*
X97551000Y-120847240D01*
X97551000Y-121152760D01*
X97491396Y-121452410D01*
X97374479Y-121734674D01*
X97204741Y-121988705D01*
X96988705Y-122204741D01*
X96734674Y-122374479D01*
X96452410Y-122491396D01*
X96302585Y-122521198D01*
X96152761Y-122551000D01*
X95847239Y-122551000D01*
X95697415Y-122521198D01*
X95547590Y-122491396D01*
X95265326Y-122374479D01*
X95011295Y-122204741D01*
X94795259Y-121988705D01*
X94625521Y-121734674D01*
X94508604Y-121452410D01*
X94449000Y-121152760D01*
X94449000Y-120847240D01*
X94508604Y-120547590D01*
X94625521Y-120265326D01*
X94795259Y-120011295D01*
X95011295Y-119795259D01*
X95265326Y-119625521D01*
X95547590Y-119508604D01*
X95697415Y-119478802D01*
X95847239Y-119449000D01*
X96152761Y-119449000D01*
X96302585Y-119478802D01*
X96302585Y-119478802D01*
G37*
G36*
X80102585Y-119478802D02*
G01*
X80252410Y-119508604D01*
X80534674Y-119625521D01*
X80788705Y-119795259D01*
X81004741Y-120011295D01*
X81174479Y-120265326D01*
X81291396Y-120547590D01*
X81351000Y-120847240D01*
X81351000Y-121152760D01*
X81291396Y-121452410D01*
X81174479Y-121734674D01*
X81004741Y-121988705D01*
X80788705Y-122204741D01*
X80534674Y-122374479D01*
X80252410Y-122491396D01*
X80102585Y-122521198D01*
X79952761Y-122551000D01*
X79647239Y-122551000D01*
X79497415Y-122521198D01*
X79347590Y-122491396D01*
X79065326Y-122374479D01*
X78811295Y-122204741D01*
X78595259Y-121988705D01*
X78425521Y-121734674D01*
X78308604Y-121452410D01*
X78249000Y-121152760D01*
X78249000Y-120847240D01*
X78308604Y-120547590D01*
X78425521Y-120265326D01*
X78595259Y-120011295D01*
X78811295Y-119795259D01*
X79065326Y-119625521D01*
X79347590Y-119508604D01*
X79497415Y-119478802D01*
X79647239Y-119449000D01*
X79952761Y-119449000D01*
X80102585Y-119478802D01*
X80102585Y-119478802D01*
G37*
G36*
X66302585Y-119478802D02*
G01*
X66452410Y-119508604D01*
X66734674Y-119625521D01*
X66988705Y-119795259D01*
X67204741Y-120011295D01*
X67374479Y-120265326D01*
X67491396Y-120547590D01*
X67551000Y-120847240D01*
X67551000Y-121152760D01*
X67491396Y-121452410D01*
X67374479Y-121734674D01*
X67204741Y-121988705D01*
X66988705Y-122204741D01*
X66734674Y-122374479D01*
X66452410Y-122491396D01*
X66302585Y-122521198D01*
X66152761Y-122551000D01*
X65847239Y-122551000D01*
X65697415Y-122521198D01*
X65547590Y-122491396D01*
X65265326Y-122374479D01*
X65011295Y-122204741D01*
X64795259Y-121988705D01*
X64625521Y-121734674D01*
X64508604Y-121452410D01*
X64449000Y-121152760D01*
X64449000Y-120847240D01*
X64508604Y-120547590D01*
X64625521Y-120265326D01*
X64795259Y-120011295D01*
X65011295Y-119795259D01*
X65265326Y-119625521D01*
X65547590Y-119508604D01*
X65697415Y-119478802D01*
X65847239Y-119449000D01*
X66152761Y-119449000D01*
X66302585Y-119478802D01*
X66302585Y-119478802D01*
G37*
G36*
X136056823Y-118541313D02*
G01*
X136217242Y-118589976D01*
X136284361Y-118625852D01*
X136365078Y-118668996D01*
X136494659Y-118775341D01*
X136601004Y-118904922D01*
X136601005Y-118904924D01*
X136680024Y-119052758D01*
X136728687Y-119213177D01*
X136745117Y-119380000D01*
X136728687Y-119546823D01*
X136680024Y-119707242D01*
X136639477Y-119783100D01*
X136601004Y-119855078D01*
X136494659Y-119984659D01*
X136365078Y-120091004D01*
X136365076Y-120091005D01*
X136217242Y-120170024D01*
X136056823Y-120218687D01*
X135931804Y-120231000D01*
X135848196Y-120231000D01*
X135723177Y-120218687D01*
X135562758Y-120170024D01*
X135414924Y-120091005D01*
X135414922Y-120091004D01*
X135285341Y-119984659D01*
X135178996Y-119855078D01*
X135140523Y-119783100D01*
X135099976Y-119707242D01*
X135051313Y-119546823D01*
X135034883Y-119380000D01*
X135051313Y-119213177D01*
X135099976Y-119052758D01*
X135178995Y-118904924D01*
X135178996Y-118904922D01*
X135285341Y-118775341D01*
X135414922Y-118668996D01*
X135495639Y-118625852D01*
X135562758Y-118589976D01*
X135723177Y-118541313D01*
X135848196Y-118529000D01*
X135931804Y-118529000D01*
X136056823Y-118541313D01*
X136056823Y-118541313D01*
G37*
G36*
X127248228Y-118561703D02*
G01*
X127403100Y-118625853D01*
X127542481Y-118718985D01*
X127661015Y-118837519D01*
X127754147Y-118976900D01*
X127818297Y-119131772D01*
X127851000Y-119296184D01*
X127851000Y-119463816D01*
X127818297Y-119628228D01*
X127754147Y-119783100D01*
X127661015Y-119922481D01*
X127542481Y-120041015D01*
X127403100Y-120134147D01*
X127248228Y-120198297D01*
X127083816Y-120231000D01*
X126916184Y-120231000D01*
X126751772Y-120198297D01*
X126596900Y-120134147D01*
X126457519Y-120041015D01*
X126338985Y-119922481D01*
X126245853Y-119783100D01*
X126181703Y-119628228D01*
X126149000Y-119463816D01*
X126149000Y-119296184D01*
X126181703Y-119131772D01*
X126245853Y-118976900D01*
X126338985Y-118837519D01*
X126457519Y-118718985D01*
X126596900Y-118625853D01*
X126751772Y-118561703D01*
X126916184Y-118529000D01*
X127083816Y-118529000D01*
X127248228Y-118561703D01*
X127248228Y-118561703D01*
G37*
G36*
X245924564Y-116979389D02*
G01*
X246115833Y-117058615D01*
X246115835Y-117058616D01*
X246160152Y-117088228D01*
X246287973Y-117173635D01*
X246434365Y-117320027D01*
X246549385Y-117492167D01*
X246628611Y-117683436D01*
X246669000Y-117886484D01*
X246669000Y-118093516D01*
X246628611Y-118296564D01*
X246570340Y-118437242D01*
X246549384Y-118487835D01*
X246434365Y-118659973D01*
X246287973Y-118806365D01*
X246115835Y-118921384D01*
X246115834Y-118921385D01*
X246115833Y-118921385D01*
X245924564Y-119000611D01*
X245721516Y-119041000D01*
X245514484Y-119041000D01*
X245311436Y-119000611D01*
X245120167Y-118921385D01*
X245120166Y-118921385D01*
X245120165Y-118921384D01*
X244948027Y-118806365D01*
X244801635Y-118659973D01*
X244686616Y-118487835D01*
X244665660Y-118437242D01*
X244607389Y-118296564D01*
X244567000Y-118093516D01*
X244567000Y-117886484D01*
X244607389Y-117683436D01*
X244686615Y-117492167D01*
X244801635Y-117320027D01*
X244948027Y-117173635D01*
X245075848Y-117088228D01*
X245120165Y-117058616D01*
X245120167Y-117058615D01*
X245311436Y-116979389D01*
X245514484Y-116939000D01*
X245721516Y-116939000D01*
X245924564Y-116979389D01*
X245924564Y-116979389D01*
G37*
G36*
X227496823Y-117271313D02*
G01*
X227657242Y-117319976D01*
X227788197Y-117389973D01*
X227805078Y-117398996D01*
X227934659Y-117505341D01*
X228041004Y-117634922D01*
X228041005Y-117634924D01*
X228120024Y-117782758D01*
X228168687Y-117943177D01*
X228185117Y-118110000D01*
X228168687Y-118276823D01*
X228120024Y-118437242D01*
X228092981Y-118487835D01*
X228041004Y-118585078D01*
X227934659Y-118714659D01*
X227805078Y-118821004D01*
X227805076Y-118821005D01*
X227657242Y-118900024D01*
X227496823Y-118948687D01*
X227371804Y-118961000D01*
X227288196Y-118961000D01*
X227163177Y-118948687D01*
X227002758Y-118900024D01*
X226854924Y-118821005D01*
X226854922Y-118821004D01*
X226725341Y-118714659D01*
X226618996Y-118585078D01*
X226567019Y-118487835D01*
X226539976Y-118437242D01*
X226491313Y-118276823D01*
X226474883Y-118110000D01*
X226491313Y-117943177D01*
X226539976Y-117782758D01*
X226618995Y-117634924D01*
X226618996Y-117634922D01*
X226725341Y-117505341D01*
X226854922Y-117398996D01*
X226871803Y-117389973D01*
X227002758Y-117319976D01*
X227163177Y-117271313D01*
X227288196Y-117259000D01*
X227371804Y-117259000D01*
X227496823Y-117271313D01*
X227496823Y-117271313D01*
G37*
G36*
X236386823Y-117271313D02*
G01*
X236547242Y-117319976D01*
X236678197Y-117389973D01*
X236695078Y-117398996D01*
X236824659Y-117505341D01*
X236931004Y-117634922D01*
X236931005Y-117634924D01*
X237010024Y-117782758D01*
X237058687Y-117943177D01*
X237075117Y-118110000D01*
X237058687Y-118276823D01*
X237010024Y-118437242D01*
X236982981Y-118487835D01*
X236931004Y-118585078D01*
X236824659Y-118714659D01*
X236695078Y-118821004D01*
X236695076Y-118821005D01*
X236547242Y-118900024D01*
X236386823Y-118948687D01*
X236261804Y-118961000D01*
X236178196Y-118961000D01*
X236053177Y-118948687D01*
X235892758Y-118900024D01*
X235744924Y-118821005D01*
X235744922Y-118821004D01*
X235615341Y-118714659D01*
X235508996Y-118585078D01*
X235457019Y-118487835D01*
X235429976Y-118437242D01*
X235381313Y-118276823D01*
X235364883Y-118110000D01*
X235381313Y-117943177D01*
X235429976Y-117782758D01*
X235508995Y-117634924D01*
X235508996Y-117634922D01*
X235615341Y-117505341D01*
X235744922Y-117398996D01*
X235761803Y-117389973D01*
X235892758Y-117319976D01*
X236053177Y-117271313D01*
X236178196Y-117259000D01*
X236261804Y-117259000D01*
X236386823Y-117271313D01*
X236386823Y-117271313D01*
G37*
G36*
X156376823Y-117271313D02*
G01*
X156537242Y-117319976D01*
X156668197Y-117389973D01*
X156685078Y-117398996D01*
X156814659Y-117505341D01*
X156921004Y-117634922D01*
X156921005Y-117634924D01*
X157000024Y-117782758D01*
X157048687Y-117943177D01*
X157065117Y-118110000D01*
X157048687Y-118276823D01*
X157000024Y-118437242D01*
X156972981Y-118487835D01*
X156921004Y-118585078D01*
X156814659Y-118714659D01*
X156685078Y-118821004D01*
X156685076Y-118821005D01*
X156537242Y-118900024D01*
X156376823Y-118948687D01*
X156251804Y-118961000D01*
X156168196Y-118961000D01*
X156043177Y-118948687D01*
X155882758Y-118900024D01*
X155734924Y-118821005D01*
X155734922Y-118821004D01*
X155605341Y-118714659D01*
X155498996Y-118585078D01*
X155447019Y-118487835D01*
X155419976Y-118437242D01*
X155371313Y-118276823D01*
X155354883Y-118110000D01*
X155371313Y-117943177D01*
X155419976Y-117782758D01*
X155498995Y-117634924D01*
X155498996Y-117634922D01*
X155605341Y-117505341D01*
X155734922Y-117398996D01*
X155751803Y-117389973D01*
X155882758Y-117319976D01*
X156043177Y-117271313D01*
X156168196Y-117259000D01*
X156251804Y-117259000D01*
X156376823Y-117271313D01*
X156376823Y-117271313D01*
G37*
G36*
X108256564Y-115829389D02*
G01*
X108438480Y-115904741D01*
X108447835Y-115908616D01*
X108619973Y-116023635D01*
X108766365Y-116170027D01*
X108869345Y-116324147D01*
X108881385Y-116342167D01*
X108960611Y-116533436D01*
X109001000Y-116736484D01*
X109001000Y-116943516D01*
X108960611Y-117146564D01*
X108888760Y-117320027D01*
X108881384Y-117337835D01*
X108766365Y-117509973D01*
X108619973Y-117656365D01*
X108447835Y-117771384D01*
X108447834Y-117771385D01*
X108447833Y-117771385D01*
X108256564Y-117850611D01*
X108053516Y-117891000D01*
X107846484Y-117891000D01*
X107643436Y-117850611D01*
X107452167Y-117771385D01*
X107452166Y-117771385D01*
X107452165Y-117771384D01*
X107280027Y-117656365D01*
X107133635Y-117509973D01*
X107018616Y-117337835D01*
X107011240Y-117320027D01*
X106939389Y-117146564D01*
X106899000Y-116943516D01*
X106899000Y-116736484D01*
X106939389Y-116533436D01*
X107018615Y-116342167D01*
X107030656Y-116324147D01*
X107133635Y-116170027D01*
X107280027Y-116023635D01*
X107452165Y-115908616D01*
X107461520Y-115904741D01*
X107643436Y-115829389D01*
X107846484Y-115789000D01*
X108053516Y-115789000D01*
X108256564Y-115829389D01*
X108256564Y-115829389D01*
G37*
G36*
X115756564Y-115829389D02*
G01*
X115938480Y-115904741D01*
X115947835Y-115908616D01*
X116119973Y-116023635D01*
X116266365Y-116170027D01*
X116369345Y-116324147D01*
X116381385Y-116342167D01*
X116460611Y-116533436D01*
X116501000Y-116736484D01*
X116501000Y-116943516D01*
X116460611Y-117146564D01*
X116388760Y-117320027D01*
X116381384Y-117337835D01*
X116266365Y-117509973D01*
X116119973Y-117656365D01*
X115947835Y-117771384D01*
X115947834Y-117771385D01*
X115947833Y-117771385D01*
X115756564Y-117850611D01*
X115553516Y-117891000D01*
X115346484Y-117891000D01*
X115143436Y-117850611D01*
X114952167Y-117771385D01*
X114952166Y-117771385D01*
X114952165Y-117771384D01*
X114780027Y-117656365D01*
X114633635Y-117509973D01*
X114518616Y-117337835D01*
X114511240Y-117320027D01*
X114439389Y-117146564D01*
X114399000Y-116943516D01*
X114399000Y-116736484D01*
X114439389Y-116533436D01*
X114518615Y-116342167D01*
X114530656Y-116324147D01*
X114633635Y-116170027D01*
X114780027Y-116023635D01*
X114952165Y-115908616D01*
X114961520Y-115904741D01*
X115143436Y-115829389D01*
X115346484Y-115789000D01*
X115553516Y-115789000D01*
X115756564Y-115829389D01*
X115756564Y-115829389D01*
G37*
G36*
X174296564Y-115709389D02*
G01*
X174487833Y-115788615D01*
X174487835Y-115788616D01*
X174659973Y-115903635D01*
X174806365Y-116050027D01*
X174830303Y-116085852D01*
X174921385Y-116222167D01*
X175000611Y-116413436D01*
X175041000Y-116616484D01*
X175041000Y-116823516D01*
X175000611Y-117026564D01*
X174942340Y-117167242D01*
X174921384Y-117217835D01*
X174806365Y-117389973D01*
X174659973Y-117536365D01*
X174487835Y-117651384D01*
X174487834Y-117651385D01*
X174487833Y-117651385D01*
X174296564Y-117730611D01*
X174093516Y-117771000D01*
X173886484Y-117771000D01*
X173683436Y-117730611D01*
X173492167Y-117651385D01*
X173492166Y-117651385D01*
X173492165Y-117651384D01*
X173320027Y-117536365D01*
X173173635Y-117389973D01*
X173058616Y-117217835D01*
X173037660Y-117167242D01*
X172979389Y-117026564D01*
X172939000Y-116823516D01*
X172939000Y-116616484D01*
X172979389Y-116413436D01*
X173058615Y-116222167D01*
X173149698Y-116085852D01*
X173173635Y-116050027D01*
X173320027Y-115903635D01*
X173492165Y-115788616D01*
X173492167Y-115788615D01*
X173683436Y-115709389D01*
X173886484Y-115669000D01*
X174093516Y-115669000D01*
X174296564Y-115709389D01*
X174296564Y-115709389D01*
G37*
G36*
X120408000Y-117741000D02*
G01*
X118606000Y-117741000D01*
X118606000Y-115939000D01*
X120408000Y-115939000D01*
X120408000Y-117741000D01*
X120408000Y-117741000D01*
G37*
G36*
X104787000Y-117741000D02*
G01*
X102985000Y-117741000D01*
X102985000Y-115939000D01*
X104787000Y-115939000D01*
X104787000Y-117741000D01*
X104787000Y-117741000D01*
G37*
G36*
X183046823Y-116001313D02*
G01*
X183207242Y-116049976D01*
X183339906Y-116120886D01*
X183355078Y-116128996D01*
X183484659Y-116235341D01*
X183591004Y-116364922D01*
X183591005Y-116364924D01*
X183670024Y-116512758D01*
X183718687Y-116673177D01*
X183735117Y-116840000D01*
X183718687Y-117006823D01*
X183670024Y-117167242D01*
X183629477Y-117243100D01*
X183591004Y-117315078D01*
X183484659Y-117444659D01*
X183355078Y-117551004D01*
X183355076Y-117551005D01*
X183207242Y-117630024D01*
X183046823Y-117678687D01*
X182921804Y-117691000D01*
X182838196Y-117691000D01*
X182713177Y-117678687D01*
X182552758Y-117630024D01*
X182404924Y-117551005D01*
X182404922Y-117551004D01*
X182275341Y-117444659D01*
X182168996Y-117315078D01*
X182130523Y-117243100D01*
X182089976Y-117167242D01*
X182041313Y-117006823D01*
X182024883Y-116840000D01*
X182041313Y-116673177D01*
X182089976Y-116512758D01*
X182168995Y-116364924D01*
X182168996Y-116364922D01*
X182275341Y-116235341D01*
X182404922Y-116128996D01*
X182420094Y-116120886D01*
X182552758Y-116049976D01*
X182713177Y-116001313D01*
X182838196Y-115989000D01*
X182921804Y-115989000D01*
X183046823Y-116001313D01*
X183046823Y-116001313D01*
G37*
G36*
X193288228Y-116021703D02*
G01*
X193443100Y-116085853D01*
X193582481Y-116178985D01*
X193701015Y-116297519D01*
X193794147Y-116436900D01*
X193858297Y-116591772D01*
X193891000Y-116756184D01*
X193891000Y-116923816D01*
X193858297Y-117088228D01*
X193794147Y-117243100D01*
X193701015Y-117382481D01*
X193582481Y-117501015D01*
X193443100Y-117594147D01*
X193288228Y-117658297D01*
X193123816Y-117691000D01*
X192956184Y-117691000D01*
X192791772Y-117658297D01*
X192636900Y-117594147D01*
X192497519Y-117501015D01*
X192378985Y-117382481D01*
X192285853Y-117243100D01*
X192221703Y-117088228D01*
X192189000Y-116923816D01*
X192189000Y-116756184D01*
X192221703Y-116591772D01*
X192285853Y-116436900D01*
X192378985Y-116297519D01*
X192497519Y-116178985D01*
X192636900Y-116085853D01*
X192791772Y-116021703D01*
X192956184Y-115989000D01*
X193123816Y-115989000D01*
X193288228Y-116021703D01*
X193288228Y-116021703D01*
G37*
G36*
X267982000Y-116471000D02*
G01*
X266180000Y-116471000D01*
X266180000Y-114669000D01*
X267982000Y-114669000D01*
X267982000Y-116471000D01*
X267982000Y-116471000D01*
G37*
G36*
X217336823Y-114731313D02*
G01*
X217497242Y-114779976D01*
X217629906Y-114850886D01*
X217645078Y-114858996D01*
X217774659Y-114965341D01*
X217881004Y-115094922D01*
X217881005Y-115094924D01*
X217960024Y-115242758D01*
X218008687Y-115403177D01*
X218025117Y-115570000D01*
X218008687Y-115736823D01*
X217960024Y-115897242D01*
X217919477Y-115973100D01*
X217881004Y-116045078D01*
X217774659Y-116174659D01*
X217645078Y-116281004D01*
X217645076Y-116281005D01*
X217497242Y-116360024D01*
X217336823Y-116408687D01*
X217211804Y-116421000D01*
X217128196Y-116421000D01*
X217003177Y-116408687D01*
X216842758Y-116360024D01*
X216694924Y-116281005D01*
X216694922Y-116281004D01*
X216565341Y-116174659D01*
X216458996Y-116045078D01*
X216420523Y-115973100D01*
X216379976Y-115897242D01*
X216331313Y-115736823D01*
X216314883Y-115570000D01*
X216331313Y-115403177D01*
X216379976Y-115242758D01*
X216458995Y-115094924D01*
X216458996Y-115094922D01*
X216565341Y-114965341D01*
X216694922Y-114858996D01*
X216710094Y-114850886D01*
X216842758Y-114779976D01*
X217003177Y-114731313D01*
X217128196Y-114719000D01*
X217211804Y-114719000D01*
X217336823Y-114731313D01*
X217336823Y-114731313D01*
G37*
G36*
X209716823Y-114731313D02*
G01*
X209877242Y-114779976D01*
X210009906Y-114850886D01*
X210025078Y-114858996D01*
X210154659Y-114965341D01*
X210261004Y-115094922D01*
X210261005Y-115094924D01*
X210340024Y-115242758D01*
X210388687Y-115403177D01*
X210405117Y-115570000D01*
X210388687Y-115736823D01*
X210340024Y-115897242D01*
X210299477Y-115973100D01*
X210261004Y-116045078D01*
X210154659Y-116174659D01*
X210025078Y-116281004D01*
X210025076Y-116281005D01*
X209877242Y-116360024D01*
X209716823Y-116408687D01*
X209591804Y-116421000D01*
X209508196Y-116421000D01*
X209383177Y-116408687D01*
X209222758Y-116360024D01*
X209074924Y-116281005D01*
X209074922Y-116281004D01*
X208945341Y-116174659D01*
X208838996Y-116045078D01*
X208800523Y-115973100D01*
X208759976Y-115897242D01*
X208711313Y-115736823D01*
X208694883Y-115570000D01*
X208711313Y-115403177D01*
X208759976Y-115242758D01*
X208838995Y-115094924D01*
X208838996Y-115094922D01*
X208945341Y-114965341D01*
X209074922Y-114858996D01*
X209090094Y-114850886D01*
X209222758Y-114779976D01*
X209383177Y-114731313D01*
X209508196Y-114719000D01*
X209591804Y-114719000D01*
X209716823Y-114731313D01*
X209716823Y-114731313D01*
G37*
G36*
X165348228Y-114751703D02*
G01*
X165503100Y-114815853D01*
X165642481Y-114908985D01*
X165761015Y-115027519D01*
X165854147Y-115166900D01*
X165918297Y-115321772D01*
X165951000Y-115486184D01*
X165951000Y-115653816D01*
X165918297Y-115818228D01*
X165854147Y-115973100D01*
X165761015Y-116112481D01*
X165642481Y-116231015D01*
X165503100Y-116324147D01*
X165348228Y-116388297D01*
X165183816Y-116421000D01*
X165016184Y-116421000D01*
X164851772Y-116388297D01*
X164696900Y-116324147D01*
X164557519Y-116231015D01*
X164438985Y-116112481D01*
X164345853Y-115973100D01*
X164281703Y-115818228D01*
X164249000Y-115653816D01*
X164249000Y-115486184D01*
X164281703Y-115321772D01*
X164345853Y-115166900D01*
X164438985Y-115027519D01*
X164557519Y-114908985D01*
X164696900Y-114815853D01*
X164851772Y-114751703D01*
X165016184Y-114719000D01*
X165183816Y-114719000D01*
X165348228Y-114751703D01*
X165348228Y-114751703D01*
G37*
G36*
X66302585Y-113178802D02*
G01*
X66452410Y-113208604D01*
X66734674Y-113325521D01*
X66988705Y-113495259D01*
X67204741Y-113711295D01*
X67374479Y-113965326D01*
X67491396Y-114247590D01*
X67491396Y-114247591D01*
X67542768Y-114505852D01*
X67551000Y-114547240D01*
X67551000Y-114852760D01*
X67491396Y-115152410D01*
X67374479Y-115434674D01*
X67204741Y-115688705D01*
X66988705Y-115904741D01*
X66734674Y-116074479D01*
X66452410Y-116191396D01*
X66302585Y-116221198D01*
X66152761Y-116251000D01*
X65847239Y-116251000D01*
X65697415Y-116221198D01*
X65547590Y-116191396D01*
X65265326Y-116074479D01*
X65011295Y-115904741D01*
X64795259Y-115688705D01*
X64625521Y-115434674D01*
X64508604Y-115152410D01*
X64449000Y-114852760D01*
X64449000Y-114547240D01*
X64457233Y-114505852D01*
X64508604Y-114247591D01*
X64508604Y-114247590D01*
X64625521Y-113965326D01*
X64795259Y-113711295D01*
X65011295Y-113495259D01*
X65265326Y-113325521D01*
X65547590Y-113208604D01*
X65697415Y-113178802D01*
X65847239Y-113149000D01*
X66152761Y-113149000D01*
X66302585Y-113178802D01*
X66302585Y-113178802D01*
G37*
G36*
X50102585Y-113178802D02*
G01*
X50252410Y-113208604D01*
X50534674Y-113325521D01*
X50788705Y-113495259D01*
X51004741Y-113711295D01*
X51174479Y-113965326D01*
X51291396Y-114247590D01*
X51291396Y-114247591D01*
X51342768Y-114505852D01*
X51351000Y-114547240D01*
X51351000Y-114852760D01*
X51291396Y-115152410D01*
X51174479Y-115434674D01*
X51004741Y-115688705D01*
X50788705Y-115904741D01*
X50534674Y-116074479D01*
X50252410Y-116191396D01*
X50102585Y-116221198D01*
X49952761Y-116251000D01*
X49647239Y-116251000D01*
X49497415Y-116221198D01*
X49347590Y-116191396D01*
X49065326Y-116074479D01*
X48811295Y-115904741D01*
X48595259Y-115688705D01*
X48425521Y-115434674D01*
X48308604Y-115152410D01*
X48249000Y-114852760D01*
X48249000Y-114547240D01*
X48257233Y-114505852D01*
X48308604Y-114247591D01*
X48308604Y-114247590D01*
X48425521Y-113965326D01*
X48595259Y-113711295D01*
X48811295Y-113495259D01*
X49065326Y-113325521D01*
X49347590Y-113208604D01*
X49497415Y-113178802D01*
X49647239Y-113149000D01*
X49952761Y-113149000D01*
X50102585Y-113178802D01*
X50102585Y-113178802D01*
G37*
G36*
X80102585Y-113178802D02*
G01*
X80252410Y-113208604D01*
X80534674Y-113325521D01*
X80788705Y-113495259D01*
X81004741Y-113711295D01*
X81174479Y-113965326D01*
X81291396Y-114247590D01*
X81291396Y-114247591D01*
X81342768Y-114505852D01*
X81351000Y-114547240D01*
X81351000Y-114852760D01*
X81291396Y-115152410D01*
X81174479Y-115434674D01*
X81004741Y-115688705D01*
X80788705Y-115904741D01*
X80534674Y-116074479D01*
X80252410Y-116191396D01*
X80102585Y-116221198D01*
X79952761Y-116251000D01*
X79647239Y-116251000D01*
X79497415Y-116221198D01*
X79347590Y-116191396D01*
X79065326Y-116074479D01*
X78811295Y-115904741D01*
X78595259Y-115688705D01*
X78425521Y-115434674D01*
X78308604Y-115152410D01*
X78249000Y-114852760D01*
X78249000Y-114547240D01*
X78257233Y-114505852D01*
X78308604Y-114247591D01*
X78308604Y-114247590D01*
X78425521Y-113965326D01*
X78595259Y-113711295D01*
X78811295Y-113495259D01*
X79065326Y-113325521D01*
X79347590Y-113208604D01*
X79497415Y-113178802D01*
X79647239Y-113149000D01*
X79952761Y-113149000D01*
X80102585Y-113178802D01*
X80102585Y-113178802D01*
G37*
G36*
X96302585Y-113178802D02*
G01*
X96452410Y-113208604D01*
X96734674Y-113325521D01*
X96988705Y-113495259D01*
X97204741Y-113711295D01*
X97374479Y-113965326D01*
X97491396Y-114247590D01*
X97491396Y-114247591D01*
X97542768Y-114505852D01*
X97551000Y-114547240D01*
X97551000Y-114852760D01*
X97491396Y-115152410D01*
X97374479Y-115434674D01*
X97204741Y-115688705D01*
X96988705Y-115904741D01*
X96734674Y-116074479D01*
X96452410Y-116191396D01*
X96302585Y-116221198D01*
X96152761Y-116251000D01*
X95847239Y-116251000D01*
X95697415Y-116221198D01*
X95547590Y-116191396D01*
X95265326Y-116074479D01*
X95011295Y-115904741D01*
X94795259Y-115688705D01*
X94625521Y-115434674D01*
X94508604Y-115152410D01*
X94449000Y-114852760D01*
X94449000Y-114547240D01*
X94457233Y-114505852D01*
X94508604Y-114247591D01*
X94508604Y-114247590D01*
X94625521Y-113965326D01*
X94795259Y-113711295D01*
X95011295Y-113495259D01*
X95265326Y-113325521D01*
X95547590Y-113208604D01*
X95697415Y-113178802D01*
X95847239Y-113149000D01*
X96152761Y-113149000D01*
X96302585Y-113178802D01*
X96302585Y-113178802D01*
G37*
G36*
X146298228Y-114441703D02*
G01*
X146453100Y-114505853D01*
X146592481Y-114598985D01*
X146711015Y-114717519D01*
X146804147Y-114856900D01*
X146868297Y-115011772D01*
X146901000Y-115176184D01*
X146901000Y-115343816D01*
X146868297Y-115508228D01*
X146804147Y-115663100D01*
X146711015Y-115802481D01*
X146592481Y-115921015D01*
X146453100Y-116014147D01*
X146298228Y-116078297D01*
X146133816Y-116111000D01*
X145966184Y-116111000D01*
X145801772Y-116078297D01*
X145646900Y-116014147D01*
X145507519Y-115921015D01*
X145388985Y-115802481D01*
X145295853Y-115663100D01*
X145231703Y-115508228D01*
X145199000Y-115343816D01*
X145199000Y-115176184D01*
X145231703Y-115011772D01*
X145295853Y-114856900D01*
X145388985Y-114717519D01*
X145507519Y-114598985D01*
X145646900Y-114505853D01*
X145801772Y-114441703D01*
X145966184Y-114409000D01*
X146133816Y-114409000D01*
X146298228Y-114441703D01*
X146298228Y-114441703D01*
G37*
G36*
X260288228Y-113481703D02*
G01*
X260443100Y-113545853D01*
X260582481Y-113638985D01*
X260701015Y-113757519D01*
X260794147Y-113896900D01*
X260858297Y-114051772D01*
X260891000Y-114216184D01*
X260891000Y-114383816D01*
X260858297Y-114548228D01*
X260794147Y-114703100D01*
X260701015Y-114842481D01*
X260582481Y-114961015D01*
X260443100Y-115054147D01*
X260288228Y-115118297D01*
X260123816Y-115151000D01*
X259956184Y-115151000D01*
X259791772Y-115118297D01*
X259636900Y-115054147D01*
X259497519Y-114961015D01*
X259378985Y-114842481D01*
X259285853Y-114703100D01*
X259221703Y-114548228D01*
X259189000Y-114383816D01*
X259189000Y-114216184D01*
X259221703Y-114051772D01*
X259285853Y-113896900D01*
X259378985Y-113757519D01*
X259497519Y-113638985D01*
X259636900Y-113545853D01*
X259791772Y-113481703D01*
X259956184Y-113449000D01*
X260123816Y-113449000D01*
X260288228Y-113481703D01*
X260288228Y-113481703D01*
G37*
G36*
X257391000Y-115151000D02*
G01*
X255689000Y-115151000D01*
X255689000Y-113449000D01*
X257391000Y-113449000D01*
X257391000Y-115151000D01*
X257391000Y-115151000D01*
G37*
G36*
X217336823Y-112191313D02*
G01*
X217497242Y-112239976D01*
X217629906Y-112310886D01*
X217645078Y-112318996D01*
X217774659Y-112425341D01*
X217881004Y-112554922D01*
X217881005Y-112554924D01*
X217960024Y-112702758D01*
X218008687Y-112863177D01*
X218025117Y-113030000D01*
X218008687Y-113196823D01*
X217960024Y-113357242D01*
X217910978Y-113449000D01*
X217881004Y-113505078D01*
X217774659Y-113634659D01*
X217645078Y-113741004D01*
X217645076Y-113741005D01*
X217497242Y-113820024D01*
X217336823Y-113868687D01*
X217211804Y-113881000D01*
X217128196Y-113881000D01*
X217003177Y-113868687D01*
X216842758Y-113820024D01*
X216694924Y-113741005D01*
X216694922Y-113741004D01*
X216565341Y-113634659D01*
X216458996Y-113505078D01*
X216429022Y-113449000D01*
X216379976Y-113357242D01*
X216331313Y-113196823D01*
X216314883Y-113030000D01*
X216331313Y-112863177D01*
X216379976Y-112702758D01*
X216458995Y-112554924D01*
X216458996Y-112554922D01*
X216565341Y-112425341D01*
X216694922Y-112318996D01*
X216710094Y-112310886D01*
X216842758Y-112239976D01*
X217003177Y-112191313D01*
X217128196Y-112179000D01*
X217211804Y-112179000D01*
X217336823Y-112191313D01*
X217336823Y-112191313D01*
G37*
G36*
X209716823Y-112191313D02*
G01*
X209877242Y-112239976D01*
X210009906Y-112310886D01*
X210025078Y-112318996D01*
X210154659Y-112425341D01*
X210261004Y-112554922D01*
X210261005Y-112554924D01*
X210340024Y-112702758D01*
X210388687Y-112863177D01*
X210405117Y-113030000D01*
X210388687Y-113196823D01*
X210340024Y-113357242D01*
X210290978Y-113449000D01*
X210261004Y-113505078D01*
X210154659Y-113634659D01*
X210025078Y-113741004D01*
X210025076Y-113741005D01*
X209877242Y-113820024D01*
X209716823Y-113868687D01*
X209591804Y-113881000D01*
X209508196Y-113881000D01*
X209383177Y-113868687D01*
X209222758Y-113820024D01*
X209074924Y-113741005D01*
X209074922Y-113741004D01*
X208945341Y-113634659D01*
X208838996Y-113505078D01*
X208809022Y-113449000D01*
X208759976Y-113357242D01*
X208711313Y-113196823D01*
X208694883Y-113030000D01*
X208711313Y-112863177D01*
X208759976Y-112702758D01*
X208838995Y-112554924D01*
X208838996Y-112554922D01*
X208945341Y-112425341D01*
X209074922Y-112318996D01*
X209090094Y-112310886D01*
X209222758Y-112239976D01*
X209383177Y-112191313D01*
X209508196Y-112179000D01*
X209591804Y-112179000D01*
X209716823Y-112191313D01*
X209716823Y-112191313D01*
G37*
G36*
X146901000Y-112611000D02*
G01*
X145199000Y-112611000D01*
X145199000Y-110909000D01*
X146901000Y-110909000D01*
X146901000Y-112611000D01*
X146901000Y-112611000D01*
G37*
G36*
X202178228Y-110941703D02*
G01*
X202333100Y-111005853D01*
X202472481Y-111098985D01*
X202591015Y-111217519D01*
X202684147Y-111356900D01*
X202748297Y-111511772D01*
X202781000Y-111676184D01*
X202781000Y-111843816D01*
X202748297Y-112008228D01*
X202684147Y-112163100D01*
X202591015Y-112302481D01*
X202472481Y-112421015D01*
X202333100Y-112514147D01*
X202178228Y-112578297D01*
X202013816Y-112611000D01*
X201846184Y-112611000D01*
X201681772Y-112578297D01*
X201526900Y-112514147D01*
X201387519Y-112421015D01*
X201268985Y-112302481D01*
X201175853Y-112163100D01*
X201111703Y-112008228D01*
X201079000Y-111843816D01*
X201079000Y-111676184D01*
X201111703Y-111511772D01*
X201175853Y-111356900D01*
X201268985Y-111217519D01*
X201387519Y-111098985D01*
X201526900Y-111005853D01*
X201681772Y-110941703D01*
X201846184Y-110909000D01*
X202013816Y-110909000D01*
X202178228Y-110941703D01*
X202178228Y-110941703D01*
G37*
G36*
X245924564Y-109479389D02*
G01*
X246088376Y-109547242D01*
X246115835Y-109558616D01*
X246287973Y-109673635D01*
X246434365Y-109820027D01*
X246537345Y-109974147D01*
X246549385Y-109992167D01*
X246628611Y-110183436D01*
X246669000Y-110386484D01*
X246669000Y-110593516D01*
X246628611Y-110796564D01*
X246549385Y-110987833D01*
X246549384Y-110987835D01*
X246434365Y-111159973D01*
X246287973Y-111306365D01*
X246115835Y-111421384D01*
X246115834Y-111421385D01*
X246115833Y-111421385D01*
X245924564Y-111500611D01*
X245721516Y-111541000D01*
X245514484Y-111541000D01*
X245311436Y-111500611D01*
X245120167Y-111421385D01*
X245120166Y-111421385D01*
X245120165Y-111421384D01*
X244948027Y-111306365D01*
X244801635Y-111159973D01*
X244686616Y-110987835D01*
X244686615Y-110987833D01*
X244607389Y-110796564D01*
X244567000Y-110593516D01*
X244567000Y-110386484D01*
X244607389Y-110183436D01*
X244686615Y-109992167D01*
X244698656Y-109974147D01*
X244801635Y-109820027D01*
X244948027Y-109673635D01*
X245120165Y-109558616D01*
X245147624Y-109547242D01*
X245311436Y-109479389D01*
X245514484Y-109439000D01*
X245721516Y-109439000D01*
X245924564Y-109479389D01*
X245924564Y-109479389D01*
G37*
G36*
X165348228Y-109751703D02*
G01*
X165503100Y-109815853D01*
X165642481Y-109908985D01*
X165761015Y-110027519D01*
X165854147Y-110166900D01*
X165918297Y-110321772D01*
X165951000Y-110486184D01*
X165951000Y-110653816D01*
X165918297Y-110818228D01*
X165854147Y-110973100D01*
X165761015Y-111112481D01*
X165642481Y-111231015D01*
X165503100Y-111324147D01*
X165348228Y-111388297D01*
X165183816Y-111421000D01*
X165016184Y-111421000D01*
X164851772Y-111388297D01*
X164696900Y-111324147D01*
X164557519Y-111231015D01*
X164438985Y-111112481D01*
X164345853Y-110973100D01*
X164281703Y-110818228D01*
X164249000Y-110653816D01*
X164249000Y-110486184D01*
X164281703Y-110321772D01*
X164345853Y-110166900D01*
X164438985Y-110027519D01*
X164557519Y-109908985D01*
X164696900Y-109815853D01*
X164851772Y-109751703D01*
X165016184Y-109719000D01*
X165183816Y-109719000D01*
X165348228Y-109751703D01*
X165348228Y-109751703D01*
G37*
G36*
X209716823Y-109651313D02*
G01*
X209877242Y-109699976D01*
X210009906Y-109770886D01*
X210025078Y-109778996D01*
X210154659Y-109885341D01*
X210261004Y-110014922D01*
X210261005Y-110014924D01*
X210340024Y-110162758D01*
X210340025Y-110162761D01*
X210341281Y-110166903D01*
X210388687Y-110323177D01*
X210405117Y-110490000D01*
X210388687Y-110656823D01*
X210340024Y-110817242D01*
X210339496Y-110818229D01*
X210261004Y-110965078D01*
X210154659Y-111094659D01*
X210025078Y-111201004D01*
X210025076Y-111201005D01*
X209877242Y-111280024D01*
X209716823Y-111328687D01*
X209591804Y-111341000D01*
X209508196Y-111341000D01*
X209383177Y-111328687D01*
X209222758Y-111280024D01*
X209074924Y-111201005D01*
X209074922Y-111201004D01*
X208945341Y-111094659D01*
X208838996Y-110965078D01*
X208760504Y-110818229D01*
X208759976Y-110817242D01*
X208711313Y-110656823D01*
X208694883Y-110490000D01*
X208711313Y-110323177D01*
X208758719Y-110166903D01*
X208759975Y-110162761D01*
X208759976Y-110162758D01*
X208838995Y-110014924D01*
X208838996Y-110014922D01*
X208945341Y-109885341D01*
X209074922Y-109778996D01*
X209090094Y-109770886D01*
X209222758Y-109699976D01*
X209383177Y-109651313D01*
X209508196Y-109639000D01*
X209591804Y-109639000D01*
X209716823Y-109651313D01*
X209716823Y-109651313D01*
G37*
G36*
X217336823Y-109651313D02*
G01*
X217497242Y-109699976D01*
X217629906Y-109770886D01*
X217645078Y-109778996D01*
X217774659Y-109885341D01*
X217881004Y-110014922D01*
X217881005Y-110014924D01*
X217960024Y-110162758D01*
X217960025Y-110162761D01*
X217961281Y-110166903D01*
X218008687Y-110323177D01*
X218025117Y-110490000D01*
X218008687Y-110656823D01*
X217960024Y-110817242D01*
X217959496Y-110818229D01*
X217881004Y-110965078D01*
X217774659Y-111094659D01*
X217645078Y-111201004D01*
X217645076Y-111201005D01*
X217497242Y-111280024D01*
X217336823Y-111328687D01*
X217211804Y-111341000D01*
X217128196Y-111341000D01*
X217003177Y-111328687D01*
X216842758Y-111280024D01*
X216694924Y-111201005D01*
X216694922Y-111201004D01*
X216565341Y-111094659D01*
X216458996Y-110965078D01*
X216380504Y-110818229D01*
X216379976Y-110817242D01*
X216331313Y-110656823D01*
X216314883Y-110490000D01*
X216331313Y-110323177D01*
X216378719Y-110166903D01*
X216379975Y-110162761D01*
X216379976Y-110162758D01*
X216458995Y-110014924D01*
X216458996Y-110014922D01*
X216565341Y-109885341D01*
X216694922Y-109778996D01*
X216710094Y-109770886D01*
X216842758Y-109699976D01*
X217003177Y-109651313D01*
X217128196Y-109639000D01*
X217211804Y-109639000D01*
X217336823Y-109651313D01*
X217336823Y-109651313D01*
G37*
G36*
X184456564Y-108209389D02*
G01*
X184620376Y-108277242D01*
X184647835Y-108288616D01*
X184819973Y-108403635D01*
X184966365Y-108550027D01*
X185069345Y-108704147D01*
X185081385Y-108722167D01*
X185160611Y-108913436D01*
X185201000Y-109116484D01*
X185201000Y-109323516D01*
X185160611Y-109526564D01*
X185081385Y-109717833D01*
X185081384Y-109717835D01*
X184966365Y-109889973D01*
X184819973Y-110036365D01*
X184647835Y-110151384D01*
X184647834Y-110151385D01*
X184647833Y-110151385D01*
X184456564Y-110230611D01*
X184253516Y-110271000D01*
X184046484Y-110271000D01*
X183843436Y-110230611D01*
X183652167Y-110151385D01*
X183652166Y-110151385D01*
X183652165Y-110151384D01*
X183480027Y-110036365D01*
X183333635Y-109889973D01*
X183218616Y-109717835D01*
X183218615Y-109717833D01*
X183139389Y-109526564D01*
X183099000Y-109323516D01*
X183099000Y-109116484D01*
X183139389Y-108913436D01*
X183218615Y-108722167D01*
X183230656Y-108704147D01*
X183333635Y-108550027D01*
X183480027Y-108403635D01*
X183652165Y-108288616D01*
X183679624Y-108277242D01*
X183843436Y-108209389D01*
X184046484Y-108169000D01*
X184253516Y-108169000D01*
X184456564Y-108209389D01*
X184456564Y-108209389D01*
G37*
G36*
X174296564Y-108209389D02*
G01*
X174460376Y-108277242D01*
X174487835Y-108288616D01*
X174659973Y-108403635D01*
X174806365Y-108550027D01*
X174909345Y-108704147D01*
X174921385Y-108722167D01*
X175000611Y-108913436D01*
X175041000Y-109116484D01*
X175041000Y-109323516D01*
X175000611Y-109526564D01*
X174921385Y-109717833D01*
X174921384Y-109717835D01*
X174806365Y-109889973D01*
X174659973Y-110036365D01*
X174487835Y-110151384D01*
X174487834Y-110151385D01*
X174487833Y-110151385D01*
X174296564Y-110230611D01*
X174093516Y-110271000D01*
X173886484Y-110271000D01*
X173683436Y-110230611D01*
X173492167Y-110151385D01*
X173492166Y-110151385D01*
X173492165Y-110151384D01*
X173320027Y-110036365D01*
X173173635Y-109889973D01*
X173058616Y-109717835D01*
X173058615Y-109717833D01*
X172979389Y-109526564D01*
X172939000Y-109323516D01*
X172939000Y-109116484D01*
X172979389Y-108913436D01*
X173058615Y-108722167D01*
X173070656Y-108704147D01*
X173173635Y-108550027D01*
X173320027Y-108403635D01*
X173492165Y-108288616D01*
X173519624Y-108277242D01*
X173683436Y-108209389D01*
X173886484Y-108169000D01*
X174093516Y-108169000D01*
X174296564Y-108209389D01*
X174296564Y-108209389D01*
G37*
G36*
X191956564Y-108209389D02*
G01*
X192120376Y-108277242D01*
X192147835Y-108288616D01*
X192319973Y-108403635D01*
X192466365Y-108550027D01*
X192569345Y-108704147D01*
X192581385Y-108722167D01*
X192660611Y-108913436D01*
X192701000Y-109116484D01*
X192701000Y-109323516D01*
X192660611Y-109526564D01*
X192581385Y-109717833D01*
X192581384Y-109717835D01*
X192466365Y-109889973D01*
X192319973Y-110036365D01*
X192147835Y-110151384D01*
X192147834Y-110151385D01*
X192147833Y-110151385D01*
X191956564Y-110230611D01*
X191753516Y-110271000D01*
X191546484Y-110271000D01*
X191343436Y-110230611D01*
X191152167Y-110151385D01*
X191152166Y-110151385D01*
X191152165Y-110151384D01*
X190980027Y-110036365D01*
X190833635Y-109889973D01*
X190718616Y-109717835D01*
X190718615Y-109717833D01*
X190639389Y-109526564D01*
X190599000Y-109323516D01*
X190599000Y-109116484D01*
X190639389Y-108913436D01*
X190718615Y-108722167D01*
X190730656Y-108704147D01*
X190833635Y-108550027D01*
X190980027Y-108403635D01*
X191152165Y-108288616D01*
X191179624Y-108277242D01*
X191343436Y-108209389D01*
X191546484Y-108169000D01*
X191753516Y-108169000D01*
X191956564Y-108209389D01*
X191956564Y-108209389D01*
G37*
G36*
X127166823Y-108381313D02*
G01*
X127327242Y-108429976D01*
X127459906Y-108500886D01*
X127475078Y-108508996D01*
X127604659Y-108615341D01*
X127711004Y-108744922D01*
X127711005Y-108744924D01*
X127790024Y-108892758D01*
X127838687Y-109053177D01*
X127855117Y-109220000D01*
X127838687Y-109386823D01*
X127790024Y-109547242D01*
X127749477Y-109623100D01*
X127711004Y-109695078D01*
X127604659Y-109824659D01*
X127475078Y-109931004D01*
X127475076Y-109931005D01*
X127327242Y-110010024D01*
X127166823Y-110058687D01*
X127041804Y-110071000D01*
X126958196Y-110071000D01*
X126833177Y-110058687D01*
X126672758Y-110010024D01*
X126524924Y-109931005D01*
X126524922Y-109931004D01*
X126395341Y-109824659D01*
X126288996Y-109695078D01*
X126250523Y-109623100D01*
X126209976Y-109547242D01*
X126161313Y-109386823D01*
X126144883Y-109220000D01*
X126161313Y-109053177D01*
X126209976Y-108892758D01*
X126288995Y-108744924D01*
X126288996Y-108744922D01*
X126395341Y-108615341D01*
X126524922Y-108508996D01*
X126540094Y-108500886D01*
X126672758Y-108429976D01*
X126833177Y-108381313D01*
X126958196Y-108369000D01*
X127041804Y-108369000D01*
X127166823Y-108381313D01*
X127166823Y-108381313D01*
G37*
G36*
X136138228Y-108401703D02*
G01*
X136293100Y-108465853D01*
X136432481Y-108558985D01*
X136551015Y-108677519D01*
X136644147Y-108816900D01*
X136708297Y-108971772D01*
X136741000Y-109136184D01*
X136741000Y-109303816D01*
X136708297Y-109468228D01*
X136644147Y-109623100D01*
X136551015Y-109762481D01*
X136432481Y-109881015D01*
X136293100Y-109974147D01*
X136138228Y-110038297D01*
X135973816Y-110071000D01*
X135806184Y-110071000D01*
X135641772Y-110038297D01*
X135486900Y-109974147D01*
X135347519Y-109881015D01*
X135228985Y-109762481D01*
X135135853Y-109623100D01*
X135071703Y-109468228D01*
X135039000Y-109303816D01*
X135039000Y-109136184D01*
X135071703Y-108971772D01*
X135135853Y-108816900D01*
X135228985Y-108677519D01*
X135347519Y-108558985D01*
X135486900Y-108465853D01*
X135641772Y-108401703D01*
X135806184Y-108369000D01*
X135973816Y-108369000D01*
X136138228Y-108401703D01*
X136138228Y-108401703D01*
G37*
G36*
X106846823Y-108381313D02*
G01*
X107007242Y-108429976D01*
X107139906Y-108500886D01*
X107155078Y-108508996D01*
X107284659Y-108615341D01*
X107391004Y-108744922D01*
X107391005Y-108744924D01*
X107470024Y-108892758D01*
X107518687Y-109053177D01*
X107535117Y-109220000D01*
X107518687Y-109386823D01*
X107470024Y-109547242D01*
X107429477Y-109623100D01*
X107391004Y-109695078D01*
X107284659Y-109824659D01*
X107155078Y-109931004D01*
X107155076Y-109931005D01*
X107007242Y-110010024D01*
X106846823Y-110058687D01*
X106721804Y-110071000D01*
X106638196Y-110071000D01*
X106513177Y-110058687D01*
X106352758Y-110010024D01*
X106204924Y-109931005D01*
X106204922Y-109931004D01*
X106075341Y-109824659D01*
X105968996Y-109695078D01*
X105930523Y-109623100D01*
X105889976Y-109547242D01*
X105841313Y-109386823D01*
X105824883Y-109220000D01*
X105841313Y-109053177D01*
X105889976Y-108892758D01*
X105968995Y-108744924D01*
X105968996Y-108744922D01*
X106075341Y-108615341D01*
X106204922Y-108508996D01*
X106220094Y-108500886D01*
X106352758Y-108429976D01*
X106513177Y-108381313D01*
X106638196Y-108369000D01*
X106721804Y-108369000D01*
X106846823Y-108381313D01*
X106846823Y-108381313D01*
G37*
G36*
X117088228Y-108401703D02*
G01*
X117243100Y-108465853D01*
X117382481Y-108558985D01*
X117501015Y-108677519D01*
X117594147Y-108816900D01*
X117658297Y-108971772D01*
X117691000Y-109136184D01*
X117691000Y-109303816D01*
X117658297Y-109468228D01*
X117594147Y-109623100D01*
X117501015Y-109762481D01*
X117382481Y-109881015D01*
X117243100Y-109974147D01*
X117088228Y-110038297D01*
X116923816Y-110071000D01*
X116756184Y-110071000D01*
X116591772Y-110038297D01*
X116436900Y-109974147D01*
X116297519Y-109881015D01*
X116178985Y-109762481D01*
X116085853Y-109623100D01*
X116021703Y-109468228D01*
X115989000Y-109303816D01*
X115989000Y-109136184D01*
X116021703Y-108971772D01*
X116085853Y-108816900D01*
X116178985Y-108677519D01*
X116297519Y-108558985D01*
X116436900Y-108465853D01*
X116591772Y-108401703D01*
X116756184Y-108369000D01*
X116923816Y-108369000D01*
X117088228Y-108401703D01*
X117088228Y-108401703D01*
G37*
G36*
X156458228Y-107131703D02*
G01*
X156613100Y-107195853D01*
X156752481Y-107288985D01*
X156871015Y-107407519D01*
X156964147Y-107546900D01*
X157028297Y-107701772D01*
X157061000Y-107866184D01*
X157061000Y-108033816D01*
X157028297Y-108198228D01*
X156964147Y-108353100D01*
X156871015Y-108492481D01*
X156752481Y-108611015D01*
X156613100Y-108704147D01*
X156458228Y-108768297D01*
X156293816Y-108801000D01*
X156126184Y-108801000D01*
X155961772Y-108768297D01*
X155806900Y-108704147D01*
X155667519Y-108611015D01*
X155548985Y-108492481D01*
X155455853Y-108353100D01*
X155391703Y-108198228D01*
X155359000Y-108033816D01*
X155359000Y-107866184D01*
X155391703Y-107701772D01*
X155455853Y-107546900D01*
X155548985Y-107407519D01*
X155667519Y-107288985D01*
X155806900Y-107195853D01*
X155961772Y-107131703D01*
X156126184Y-107099000D01*
X156293816Y-107099000D01*
X156458228Y-107131703D01*
X156458228Y-107131703D01*
G37*
G36*
X217336823Y-107111313D02*
G01*
X217497242Y-107159976D01*
X217564361Y-107195852D01*
X217645078Y-107238996D01*
X217774659Y-107345341D01*
X217881004Y-107474922D01*
X217881005Y-107474924D01*
X217960024Y-107622758D01*
X218008687Y-107783177D01*
X218025117Y-107950000D01*
X218008687Y-108116823D01*
X217960024Y-108277242D01*
X217919477Y-108353100D01*
X217881004Y-108425078D01*
X217774659Y-108554659D01*
X217645078Y-108661004D01*
X217645076Y-108661005D01*
X217497242Y-108740024D01*
X217336823Y-108788687D01*
X217211804Y-108801000D01*
X217128196Y-108801000D01*
X217003177Y-108788687D01*
X216842758Y-108740024D01*
X216694924Y-108661005D01*
X216694922Y-108661004D01*
X216565341Y-108554659D01*
X216458996Y-108425078D01*
X216420523Y-108353100D01*
X216379976Y-108277242D01*
X216331313Y-108116823D01*
X216314883Y-107950000D01*
X216331313Y-107783177D01*
X216379976Y-107622758D01*
X216458995Y-107474924D01*
X216458996Y-107474922D01*
X216565341Y-107345341D01*
X216694922Y-107238996D01*
X216775639Y-107195852D01*
X216842758Y-107159976D01*
X217003177Y-107111313D01*
X217128196Y-107099000D01*
X217211804Y-107099000D01*
X217336823Y-107111313D01*
X217336823Y-107111313D01*
G37*
G36*
X227578228Y-107131703D02*
G01*
X227733100Y-107195853D01*
X227872481Y-107288985D01*
X227991015Y-107407519D01*
X228084147Y-107546900D01*
X228148297Y-107701772D01*
X228181000Y-107866184D01*
X228181000Y-108033816D01*
X228148297Y-108198228D01*
X228084147Y-108353100D01*
X227991015Y-108492481D01*
X227872481Y-108611015D01*
X227733100Y-108704147D01*
X227578228Y-108768297D01*
X227413816Y-108801000D01*
X227246184Y-108801000D01*
X227081772Y-108768297D01*
X226926900Y-108704147D01*
X226787519Y-108611015D01*
X226668985Y-108492481D01*
X226575853Y-108353100D01*
X226511703Y-108198228D01*
X226479000Y-108033816D01*
X226479000Y-107866184D01*
X226511703Y-107701772D01*
X226575853Y-107546900D01*
X226668985Y-107407519D01*
X226787519Y-107288985D01*
X226926900Y-107195853D01*
X227081772Y-107131703D01*
X227246184Y-107099000D01*
X227413816Y-107099000D01*
X227578228Y-107131703D01*
X227578228Y-107131703D01*
G37*
G36*
X236468228Y-107131703D02*
G01*
X236623100Y-107195853D01*
X236762481Y-107288985D01*
X236881015Y-107407519D01*
X236974147Y-107546900D01*
X237038297Y-107701772D01*
X237071000Y-107866184D01*
X237071000Y-108033816D01*
X237038297Y-108198228D01*
X236974147Y-108353100D01*
X236881015Y-108492481D01*
X236762481Y-108611015D01*
X236623100Y-108704147D01*
X236468228Y-108768297D01*
X236303816Y-108801000D01*
X236136184Y-108801000D01*
X235971772Y-108768297D01*
X235816900Y-108704147D01*
X235677519Y-108611015D01*
X235558985Y-108492481D01*
X235465853Y-108353100D01*
X235401703Y-108198228D01*
X235369000Y-108033816D01*
X235369000Y-107866184D01*
X235401703Y-107701772D01*
X235465853Y-107546900D01*
X235558985Y-107407519D01*
X235677519Y-107288985D01*
X235816900Y-107195853D01*
X235971772Y-107131703D01*
X236136184Y-107099000D01*
X236303816Y-107099000D01*
X236468228Y-107131703D01*
X236468228Y-107131703D01*
G37*
G36*
X210401000Y-108801000D02*
G01*
X208699000Y-108801000D01*
X208699000Y-107099000D01*
X210401000Y-107099000D01*
X210401000Y-108801000D01*
X210401000Y-108801000D01*
G37*
G36*
X202178228Y-105941703D02*
G01*
X202333100Y-106005853D01*
X202472481Y-106098985D01*
X202591015Y-106217519D01*
X202684147Y-106356900D01*
X202748297Y-106511772D01*
X202781000Y-106676184D01*
X202781000Y-106843816D01*
X202748297Y-107008228D01*
X202684147Y-107163100D01*
X202591015Y-107302481D01*
X202472481Y-107421015D01*
X202333100Y-107514147D01*
X202178228Y-107578297D01*
X202013816Y-107611000D01*
X201846184Y-107611000D01*
X201681772Y-107578297D01*
X201526900Y-107514147D01*
X201387519Y-107421015D01*
X201268985Y-107302481D01*
X201175853Y-107163100D01*
X201111703Y-107008228D01*
X201079000Y-106843816D01*
X201079000Y-106676184D01*
X201111703Y-106511772D01*
X201175853Y-106356900D01*
X201268985Y-106217519D01*
X201387519Y-106098985D01*
X201526900Y-106005853D01*
X201681772Y-105941703D01*
X201846184Y-105909000D01*
X202013816Y-105909000D01*
X202178228Y-105941703D01*
X202178228Y-105941703D01*
G37*
G36*
X119546823Y-103301313D02*
G01*
X119707242Y-103349976D01*
X119833597Y-103417514D01*
X119855078Y-103428996D01*
X119984659Y-103535341D01*
X120091004Y-103664922D01*
X120091005Y-103664924D01*
X120170024Y-103812758D01*
X120218687Y-103973177D01*
X120235117Y-104140000D01*
X120218687Y-104306823D01*
X120170024Y-104467242D01*
X120144170Y-104515611D01*
X120091004Y-104615078D01*
X119984659Y-104744659D01*
X119855078Y-104851004D01*
X119855076Y-104851005D01*
X119707242Y-104930024D01*
X119546823Y-104978687D01*
X119421804Y-104991000D01*
X119338196Y-104991000D01*
X119213177Y-104978687D01*
X119052758Y-104930024D01*
X118904924Y-104851005D01*
X118904922Y-104851004D01*
X118775341Y-104744659D01*
X118668996Y-104615078D01*
X118615830Y-104515611D01*
X118589976Y-104467242D01*
X118541313Y-104306823D01*
X118524883Y-104140000D01*
X118541313Y-103973177D01*
X118589976Y-103812758D01*
X118668995Y-103664924D01*
X118668996Y-103664922D01*
X118775341Y-103535341D01*
X118904922Y-103428996D01*
X118926403Y-103417514D01*
X119052758Y-103349976D01*
X119213177Y-103301313D01*
X119338196Y-103289000D01*
X119421804Y-103289000D01*
X119546823Y-103301313D01*
X119546823Y-103301313D01*
G37*
G36*
X254504564Y-102494389D02*
G01*
X254695833Y-102573615D01*
X254695835Y-102573616D01*
X254867973Y-102688635D01*
X255014365Y-102835027D01*
X255093737Y-102953815D01*
X255129385Y-103007167D01*
X255208611Y-103198436D01*
X255249000Y-103401484D01*
X255249000Y-103608516D01*
X255208611Y-103811564D01*
X255141669Y-103973177D01*
X255129384Y-104002835D01*
X255014365Y-104174973D01*
X254867973Y-104321365D01*
X254695835Y-104436384D01*
X254695834Y-104436385D01*
X254695833Y-104436385D01*
X254504564Y-104515611D01*
X254301516Y-104556000D01*
X254094484Y-104556000D01*
X253891436Y-104515611D01*
X253700167Y-104436385D01*
X253700166Y-104436385D01*
X253700165Y-104436384D01*
X253528027Y-104321365D01*
X253381635Y-104174973D01*
X253266616Y-104002835D01*
X253254331Y-103973177D01*
X253187389Y-103811564D01*
X253147000Y-103608516D01*
X253147000Y-103401484D01*
X253187389Y-103198436D01*
X253266615Y-103007167D01*
X253302264Y-102953815D01*
X253381635Y-102835027D01*
X253528027Y-102688635D01*
X253700165Y-102573616D01*
X253700167Y-102573615D01*
X253891436Y-102494389D01*
X254094484Y-102454000D01*
X254301516Y-102454000D01*
X254504564Y-102494389D01*
X254504564Y-102494389D01*
G37*
G36*
X251749000Y-104556000D02*
G01*
X249647000Y-104556000D01*
X249647000Y-102454000D01*
X251749000Y-102454000D01*
X251749000Y-104556000D01*
X251749000Y-104556000D01*
G37*
G36*
X263941000Y-104556000D02*
G01*
X261839000Y-104556000D01*
X261839000Y-102454000D01*
X263941000Y-102454000D01*
X263941000Y-104556000D01*
X263941000Y-104556000D01*
G37*
G36*
X266696564Y-102494389D02*
G01*
X266887833Y-102573615D01*
X266887835Y-102573616D01*
X267059973Y-102688635D01*
X267206365Y-102835027D01*
X267285737Y-102953815D01*
X267321385Y-103007167D01*
X267400611Y-103198436D01*
X267441000Y-103401484D01*
X267441000Y-103608516D01*
X267400611Y-103811564D01*
X267333669Y-103973177D01*
X267321384Y-104002835D01*
X267206365Y-104174973D01*
X267059973Y-104321365D01*
X266887835Y-104436384D01*
X266887834Y-104436385D01*
X266887833Y-104436385D01*
X266696564Y-104515611D01*
X266493516Y-104556000D01*
X266286484Y-104556000D01*
X266083436Y-104515611D01*
X265892167Y-104436385D01*
X265892166Y-104436385D01*
X265892165Y-104436384D01*
X265720027Y-104321365D01*
X265573635Y-104174973D01*
X265458616Y-104002835D01*
X265446331Y-103973177D01*
X265379389Y-103811564D01*
X265339000Y-103608516D01*
X265339000Y-103401484D01*
X265379389Y-103198436D01*
X265458615Y-103007167D01*
X265494264Y-102953815D01*
X265573635Y-102835027D01*
X265720027Y-102688635D01*
X265892165Y-102573616D01*
X265892167Y-102573615D01*
X266083436Y-102494389D01*
X266286484Y-102454000D01*
X266493516Y-102454000D01*
X266696564Y-102494389D01*
X266696564Y-102494389D01*
G37*
G36*
X219762564Y-102303389D02*
G01*
X219885107Y-102354148D01*
X219953835Y-102382616D01*
X220079975Y-102466900D01*
X220125973Y-102497635D01*
X220272365Y-102644027D01*
X220387385Y-102816167D01*
X220466611Y-103007436D01*
X220507000Y-103210484D01*
X220507000Y-103417516D01*
X220466611Y-103620564D01*
X220430109Y-103708687D01*
X220387384Y-103811835D01*
X220272365Y-103983973D01*
X220125973Y-104130365D01*
X219953835Y-104245384D01*
X219953834Y-104245385D01*
X219953833Y-104245385D01*
X219762564Y-104324611D01*
X219559516Y-104365000D01*
X219352484Y-104365000D01*
X219149436Y-104324611D01*
X218958167Y-104245385D01*
X218958166Y-104245385D01*
X218958165Y-104245384D01*
X218786027Y-104130365D01*
X218639635Y-103983973D01*
X218524616Y-103811835D01*
X218481891Y-103708687D01*
X218445389Y-103620564D01*
X218405000Y-103417516D01*
X218405000Y-103210484D01*
X218445389Y-103007436D01*
X218524615Y-102816167D01*
X218639635Y-102644027D01*
X218786027Y-102497635D01*
X218832025Y-102466900D01*
X218958165Y-102382616D01*
X219026893Y-102354148D01*
X219149436Y-102303389D01*
X219352484Y-102263000D01*
X219559516Y-102263000D01*
X219762564Y-102303389D01*
X219762564Y-102303389D01*
G37*
G36*
X128576564Y-101739389D02*
G01*
X128767833Y-101818615D01*
X128767835Y-101818616D01*
X128939973Y-101933635D01*
X129086365Y-102080027D01*
X129110303Y-102115852D01*
X129201385Y-102252167D01*
X129280611Y-102443436D01*
X129321000Y-102646484D01*
X129321000Y-102853516D01*
X129280611Y-103056564D01*
X129201385Y-103247833D01*
X129201384Y-103247835D01*
X129086365Y-103419973D01*
X128939973Y-103566365D01*
X128767835Y-103681384D01*
X128767834Y-103681385D01*
X128767833Y-103681385D01*
X128576564Y-103760611D01*
X128373516Y-103801000D01*
X128166484Y-103801000D01*
X127963436Y-103760611D01*
X127772167Y-103681385D01*
X127772166Y-103681385D01*
X127772165Y-103681384D01*
X127600027Y-103566365D01*
X127453635Y-103419973D01*
X127338616Y-103247835D01*
X127338615Y-103247833D01*
X127259389Y-103056564D01*
X127219000Y-102853516D01*
X127219000Y-102646484D01*
X127259389Y-102443436D01*
X127338615Y-102252167D01*
X127429698Y-102115852D01*
X127453635Y-102080027D01*
X127600027Y-101933635D01*
X127772165Y-101818616D01*
X127772167Y-101818615D01*
X127963436Y-101739389D01*
X128166484Y-101699000D01*
X128373516Y-101699000D01*
X128576564Y-101739389D01*
X128576564Y-101739389D01*
G37*
G36*
X66206823Y-102031313D02*
G01*
X66367242Y-102079976D01*
X66498197Y-102149973D01*
X66515078Y-102158996D01*
X66644659Y-102265341D01*
X66751004Y-102394922D01*
X66751005Y-102394924D01*
X66830024Y-102542758D01*
X66878687Y-102703177D01*
X66895117Y-102870000D01*
X66878687Y-103036823D01*
X66830024Y-103197242D01*
X66789477Y-103273100D01*
X66751004Y-103345078D01*
X66644659Y-103474659D01*
X66515078Y-103581004D01*
X66515076Y-103581005D01*
X66367242Y-103660024D01*
X66206823Y-103708687D01*
X66081804Y-103721000D01*
X65998196Y-103721000D01*
X65873177Y-103708687D01*
X65712758Y-103660024D01*
X65564924Y-103581005D01*
X65564922Y-103581004D01*
X65435341Y-103474659D01*
X65328996Y-103345078D01*
X65290523Y-103273100D01*
X65249976Y-103197242D01*
X65201313Y-103036823D01*
X65184883Y-102870000D01*
X65201313Y-102703177D01*
X65249976Y-102542758D01*
X65328995Y-102394924D01*
X65328996Y-102394922D01*
X65435341Y-102265341D01*
X65564922Y-102158996D01*
X65581803Y-102149973D01*
X65712758Y-102079976D01*
X65873177Y-102031313D01*
X65998196Y-102019000D01*
X66081804Y-102019000D01*
X66206823Y-102031313D01*
X66206823Y-102031313D01*
G37*
G36*
X144946823Y-102031313D02*
G01*
X145107242Y-102079976D01*
X145238197Y-102149973D01*
X145255078Y-102158996D01*
X145384659Y-102265341D01*
X145491004Y-102394922D01*
X145491005Y-102394924D01*
X145570024Y-102542758D01*
X145618687Y-102703177D01*
X145635117Y-102870000D01*
X145618687Y-103036823D01*
X145570024Y-103197242D01*
X145529477Y-103273100D01*
X145491004Y-103345078D01*
X145384659Y-103474659D01*
X145255078Y-103581004D01*
X145255076Y-103581005D01*
X145107242Y-103660024D01*
X144946823Y-103708687D01*
X144821804Y-103721000D01*
X144738196Y-103721000D01*
X144613177Y-103708687D01*
X144452758Y-103660024D01*
X144304924Y-103581005D01*
X144304922Y-103581004D01*
X144175341Y-103474659D01*
X144068996Y-103345078D01*
X144030523Y-103273100D01*
X143989976Y-103197242D01*
X143941313Y-103036823D01*
X143924883Y-102870000D01*
X143941313Y-102703177D01*
X143989976Y-102542758D01*
X144068995Y-102394924D01*
X144068996Y-102394922D01*
X144175341Y-102265341D01*
X144304922Y-102158996D01*
X144321803Y-102149973D01*
X144452758Y-102079976D01*
X144613177Y-102031313D01*
X144738196Y-102019000D01*
X144821804Y-102019000D01*
X144946823Y-102031313D01*
X144946823Y-102031313D01*
G37*
G36*
X189478228Y-102051703D02*
G01*
X189633100Y-102115853D01*
X189772481Y-102208985D01*
X189891015Y-102327519D01*
X189984147Y-102466900D01*
X190048297Y-102621772D01*
X190081000Y-102786184D01*
X190081000Y-102953816D01*
X190048297Y-103118228D01*
X189984147Y-103273100D01*
X189891015Y-103412481D01*
X189772481Y-103531015D01*
X189633100Y-103624147D01*
X189478228Y-103688297D01*
X189313816Y-103721000D01*
X189146184Y-103721000D01*
X188981772Y-103688297D01*
X188826900Y-103624147D01*
X188687519Y-103531015D01*
X188568985Y-103412481D01*
X188475853Y-103273100D01*
X188411703Y-103118228D01*
X188379000Y-102953816D01*
X188379000Y-102786184D01*
X188411703Y-102621772D01*
X188475853Y-102466900D01*
X188568985Y-102327519D01*
X188687519Y-102208985D01*
X188826900Y-102115853D01*
X188981772Y-102051703D01*
X189146184Y-102019000D01*
X189313816Y-102019000D01*
X189478228Y-102051703D01*
X189478228Y-102051703D01*
G37*
G36*
X56128228Y-102051703D02*
G01*
X56283100Y-102115853D01*
X56422481Y-102208985D01*
X56541015Y-102327519D01*
X56634147Y-102466900D01*
X56698297Y-102621772D01*
X56731000Y-102786184D01*
X56731000Y-102953816D01*
X56698297Y-103118228D01*
X56634147Y-103273100D01*
X56541015Y-103412481D01*
X56422481Y-103531015D01*
X56283100Y-103624147D01*
X56128228Y-103688297D01*
X55963816Y-103721000D01*
X55796184Y-103721000D01*
X55631772Y-103688297D01*
X55476900Y-103624147D01*
X55337519Y-103531015D01*
X55218985Y-103412481D01*
X55125853Y-103273100D01*
X55061703Y-103118228D01*
X55029000Y-102953816D01*
X55029000Y-102786184D01*
X55061703Y-102621772D01*
X55125853Y-102466900D01*
X55218985Y-102327519D01*
X55337519Y-102208985D01*
X55476900Y-102115853D01*
X55631772Y-102051703D01*
X55796184Y-102019000D01*
X55963816Y-102019000D01*
X56128228Y-102051703D01*
X56128228Y-102051703D01*
G37*
G36*
X181858228Y-102051703D02*
G01*
X182013100Y-102115853D01*
X182152481Y-102208985D01*
X182271015Y-102327519D01*
X182364147Y-102466900D01*
X182428297Y-102621772D01*
X182461000Y-102786184D01*
X182461000Y-102953816D01*
X182428297Y-103118228D01*
X182364147Y-103273100D01*
X182271015Y-103412481D01*
X182152481Y-103531015D01*
X182013100Y-103624147D01*
X181858228Y-103688297D01*
X181693816Y-103721000D01*
X181526184Y-103721000D01*
X181361772Y-103688297D01*
X181206900Y-103624147D01*
X181067519Y-103531015D01*
X180948985Y-103412481D01*
X180855853Y-103273100D01*
X180791703Y-103118228D01*
X180759000Y-102953816D01*
X180759000Y-102786184D01*
X180791703Y-102621772D01*
X180855853Y-102466900D01*
X180948985Y-102327519D01*
X181067519Y-102208985D01*
X181206900Y-102115853D01*
X181361772Y-102051703D01*
X181526184Y-102019000D01*
X181693816Y-102019000D01*
X181858228Y-102051703D01*
X181858228Y-102051703D01*
G37*
G36*
X84068228Y-102051703D02*
G01*
X84223100Y-102115853D01*
X84362481Y-102208985D01*
X84481015Y-102327519D01*
X84574147Y-102466900D01*
X84638297Y-102621772D01*
X84671000Y-102786184D01*
X84671000Y-102953816D01*
X84638297Y-103118228D01*
X84574147Y-103273100D01*
X84481015Y-103412481D01*
X84362481Y-103531015D01*
X84223100Y-103624147D01*
X84068228Y-103688297D01*
X83903816Y-103721000D01*
X83736184Y-103721000D01*
X83571772Y-103688297D01*
X83416900Y-103624147D01*
X83277519Y-103531015D01*
X83158985Y-103412481D01*
X83065853Y-103273100D01*
X83001703Y-103118228D01*
X82969000Y-102953816D01*
X82969000Y-102786184D01*
X83001703Y-102621772D01*
X83065853Y-102466900D01*
X83158985Y-102327519D01*
X83277519Y-102208985D01*
X83416900Y-102115853D01*
X83571772Y-102051703D01*
X83736184Y-102019000D01*
X83903816Y-102019000D01*
X84068228Y-102051703D01*
X84068228Y-102051703D01*
G37*
G36*
X104991000Y-103721000D02*
G01*
X103289000Y-103721000D01*
X103289000Y-102019000D01*
X104991000Y-102019000D01*
X104991000Y-103721000D01*
X104991000Y-103721000D01*
G37*
G36*
X112611000Y-103721000D02*
G01*
X110909000Y-103721000D01*
X110909000Y-102019000D01*
X112611000Y-102019000D01*
X112611000Y-103721000D01*
X112611000Y-103721000D01*
G37*
G36*
X137326823Y-102031313D02*
G01*
X137487242Y-102079976D01*
X137618197Y-102149973D01*
X137635078Y-102158996D01*
X137764659Y-102265341D01*
X137871004Y-102394922D01*
X137871005Y-102394924D01*
X137950024Y-102542758D01*
X137998687Y-102703177D01*
X138015117Y-102870000D01*
X137998687Y-103036823D01*
X137950024Y-103197242D01*
X137909477Y-103273100D01*
X137871004Y-103345078D01*
X137764659Y-103474659D01*
X137635078Y-103581004D01*
X137635076Y-103581005D01*
X137487242Y-103660024D01*
X137326823Y-103708687D01*
X137201804Y-103721000D01*
X137118196Y-103721000D01*
X136993177Y-103708687D01*
X136832758Y-103660024D01*
X136684924Y-103581005D01*
X136684922Y-103581004D01*
X136555341Y-103474659D01*
X136448996Y-103345078D01*
X136410523Y-103273100D01*
X136369976Y-103197242D01*
X136321313Y-103036823D01*
X136304883Y-102870000D01*
X136321313Y-102703177D01*
X136369976Y-102542758D01*
X136448995Y-102394924D01*
X136448996Y-102394922D01*
X136555341Y-102265341D01*
X136684922Y-102158996D01*
X136701803Y-102149973D01*
X136832758Y-102079976D01*
X136993177Y-102031313D01*
X137118196Y-102019000D01*
X137201804Y-102019000D01*
X137326823Y-102031313D01*
X137326823Y-102031313D01*
G37*
G36*
X73826823Y-102031313D02*
G01*
X73987242Y-102079976D01*
X74118197Y-102149973D01*
X74135078Y-102158996D01*
X74264659Y-102265341D01*
X74371004Y-102394922D01*
X74371005Y-102394924D01*
X74450024Y-102542758D01*
X74498687Y-102703177D01*
X74515117Y-102870000D01*
X74498687Y-103036823D01*
X74450024Y-103197242D01*
X74409477Y-103273100D01*
X74371004Y-103345078D01*
X74264659Y-103474659D01*
X74135078Y-103581004D01*
X74135076Y-103581005D01*
X73987242Y-103660024D01*
X73826823Y-103708687D01*
X73701804Y-103721000D01*
X73618196Y-103721000D01*
X73493177Y-103708687D01*
X73332758Y-103660024D01*
X73184924Y-103581005D01*
X73184922Y-103581004D01*
X73055341Y-103474659D01*
X72948996Y-103345078D01*
X72910523Y-103273100D01*
X72869976Y-103197242D01*
X72821313Y-103036823D01*
X72804883Y-102870000D01*
X72821313Y-102703177D01*
X72869976Y-102542758D01*
X72948995Y-102394924D01*
X72948996Y-102394922D01*
X73055341Y-102265341D01*
X73184922Y-102158996D01*
X73201803Y-102149973D01*
X73332758Y-102079976D01*
X73493177Y-102031313D01*
X73618196Y-102019000D01*
X73701804Y-102019000D01*
X73826823Y-102031313D01*
X73826823Y-102031313D01*
G37*
G36*
X171698228Y-101360703D02*
G01*
X171853100Y-101424853D01*
X171992481Y-101517985D01*
X172111015Y-101636519D01*
X172204147Y-101775900D01*
X172268297Y-101930772D01*
X172301000Y-102095184D01*
X172301000Y-102262816D01*
X172268297Y-102427228D01*
X172204147Y-102582100D01*
X172111015Y-102721481D01*
X171992481Y-102840015D01*
X171853100Y-102933147D01*
X171698228Y-102997297D01*
X171533816Y-103030000D01*
X171366184Y-103030000D01*
X171201772Y-102997297D01*
X171046900Y-102933147D01*
X170907519Y-102840015D01*
X170788985Y-102721481D01*
X170695853Y-102582100D01*
X170631703Y-102427228D01*
X170599000Y-102262816D01*
X170599000Y-102095184D01*
X170631703Y-101930772D01*
X170695853Y-101775900D01*
X170788985Y-101636519D01*
X170907519Y-101517985D01*
X171046900Y-101424853D01*
X171201772Y-101360703D01*
X171366184Y-101328000D01*
X171533816Y-101328000D01*
X171698228Y-101360703D01*
X171698228Y-101360703D01*
G37*
G36*
X198426564Y-100469389D02*
G01*
X198617833Y-100548615D01*
X198617835Y-100548616D01*
X198789973Y-100663635D01*
X198936365Y-100810027D01*
X198960303Y-100845852D01*
X199051385Y-100982167D01*
X199130611Y-101173436D01*
X199171000Y-101376484D01*
X199171000Y-101583516D01*
X199130611Y-101786564D01*
X199070878Y-101930772D01*
X199051384Y-101977835D01*
X198936365Y-102149973D01*
X198789973Y-102296365D01*
X198617835Y-102411384D01*
X198617834Y-102411385D01*
X198617833Y-102411385D01*
X198426564Y-102490611D01*
X198223516Y-102531000D01*
X198016484Y-102531000D01*
X197813436Y-102490611D01*
X197622167Y-102411385D01*
X197622166Y-102411385D01*
X197622165Y-102411384D01*
X197450027Y-102296365D01*
X197303635Y-102149973D01*
X197188616Y-101977835D01*
X197169122Y-101930772D01*
X197109389Y-101786564D01*
X197069000Y-101583516D01*
X197069000Y-101376484D01*
X197109389Y-101173436D01*
X197188615Y-100982167D01*
X197279698Y-100845852D01*
X197303635Y-100810027D01*
X197450027Y-100663635D01*
X197622165Y-100548616D01*
X197622167Y-100548615D01*
X197813436Y-100469389D01*
X198016484Y-100429000D01*
X198223516Y-100429000D01*
X198426564Y-100469389D01*
X198426564Y-100469389D01*
G37*
G36*
X240119000Y-102451000D02*
G01*
X238417000Y-102451000D01*
X238417000Y-100749000D01*
X240119000Y-100749000D01*
X240119000Y-102451000D01*
X240119000Y-102451000D01*
G37*
G36*
X243016228Y-100781703D02*
G01*
X243171100Y-100845853D01*
X243310481Y-100938985D01*
X243429015Y-101057519D01*
X243522147Y-101196900D01*
X243586297Y-101351772D01*
X243619000Y-101516184D01*
X243619000Y-101683816D01*
X243586297Y-101848228D01*
X243522147Y-102003100D01*
X243429015Y-102142481D01*
X243310481Y-102261015D01*
X243171100Y-102354147D01*
X243016228Y-102418297D01*
X242851816Y-102451000D01*
X242684184Y-102451000D01*
X242519772Y-102418297D01*
X242364900Y-102354147D01*
X242225519Y-102261015D01*
X242106985Y-102142481D01*
X242013853Y-102003100D01*
X241949703Y-101848228D01*
X241917000Y-101683816D01*
X241917000Y-101516184D01*
X241949703Y-101351772D01*
X242013853Y-101196900D01*
X242106985Y-101057519D01*
X242225519Y-100938985D01*
X242364900Y-100845853D01*
X242519772Y-100781703D01*
X242684184Y-100749000D01*
X242851816Y-100749000D01*
X243016228Y-100781703D01*
X243016228Y-100781703D01*
G37*
G36*
X152648228Y-100781703D02*
G01*
X152803100Y-100845853D01*
X152942481Y-100938985D01*
X153061015Y-101057519D01*
X153154147Y-101196900D01*
X153218297Y-101351772D01*
X153251000Y-101516184D01*
X153251000Y-101683816D01*
X153218297Y-101848228D01*
X153154147Y-102003100D01*
X153061015Y-102142481D01*
X152942481Y-102261015D01*
X152803100Y-102354147D01*
X152648228Y-102418297D01*
X152483816Y-102451000D01*
X152316184Y-102451000D01*
X152151772Y-102418297D01*
X151996900Y-102354147D01*
X151857519Y-102261015D01*
X151738985Y-102142481D01*
X151645853Y-102003100D01*
X151581703Y-101848228D01*
X151549000Y-101683816D01*
X151549000Y-101516184D01*
X151581703Y-101351772D01*
X151645853Y-101196900D01*
X151738985Y-101057519D01*
X151857519Y-100938985D01*
X151996900Y-100845853D01*
X152151772Y-100781703D01*
X152316184Y-100749000D01*
X152483816Y-100749000D01*
X152648228Y-100781703D01*
X152648228Y-100781703D01*
G37*
G36*
X93847228Y-100654703D02*
G01*
X94002100Y-100718853D01*
X94141481Y-100811985D01*
X94260015Y-100930519D01*
X94353147Y-101069900D01*
X94417297Y-101224772D01*
X94450000Y-101389184D01*
X94450000Y-101556816D01*
X94417297Y-101721228D01*
X94353147Y-101876100D01*
X94260015Y-102015481D01*
X94141481Y-102134015D01*
X94002100Y-102227147D01*
X93847228Y-102291297D01*
X93682816Y-102324000D01*
X93515184Y-102324000D01*
X93350772Y-102291297D01*
X93195900Y-102227147D01*
X93056519Y-102134015D01*
X92937985Y-102015481D01*
X92844853Y-101876100D01*
X92780703Y-101721228D01*
X92748000Y-101556816D01*
X92748000Y-101389184D01*
X92780703Y-101224772D01*
X92844853Y-101069900D01*
X92937985Y-100930519D01*
X93056519Y-100811985D01*
X93195900Y-100718853D01*
X93350772Y-100654703D01*
X93515184Y-100622000D01*
X93682816Y-100622000D01*
X93847228Y-100654703D01*
X93847228Y-100654703D01*
G37*
G36*
X232631086Y-100324610D02*
G01*
X232761893Y-100350629D01*
X232902206Y-100408748D01*
X233028484Y-100493125D01*
X233135875Y-100600516D01*
X233220252Y-100726794D01*
X233278371Y-100867107D01*
X233291808Y-100934659D01*
X233308000Y-101016062D01*
X233308000Y-101167938D01*
X233306906Y-101173436D01*
X233278371Y-101316893D01*
X233220252Y-101457206D01*
X233135875Y-101583484D01*
X233028484Y-101690875D01*
X232902206Y-101775252D01*
X232761893Y-101833371D01*
X232687201Y-101848228D01*
X232612938Y-101863000D01*
X232461062Y-101863000D01*
X232386799Y-101848228D01*
X232312107Y-101833371D01*
X232171794Y-101775252D01*
X232045516Y-101690875D01*
X231938125Y-101583484D01*
X231853748Y-101457206D01*
X231795629Y-101316893D01*
X231767094Y-101173436D01*
X231766000Y-101167938D01*
X231766000Y-101016062D01*
X231782192Y-100934659D01*
X231795629Y-100867107D01*
X231853748Y-100726794D01*
X231938125Y-100600516D01*
X232045516Y-100493125D01*
X232171794Y-100408748D01*
X232312107Y-100350629D01*
X232442914Y-100324610D01*
X232461062Y-100321000D01*
X232612938Y-100321000D01*
X232631086Y-100324610D01*
X232631086Y-100324610D01*
G37*
G36*
X230091086Y-100324610D02*
G01*
X230221893Y-100350629D01*
X230362206Y-100408748D01*
X230488484Y-100493125D01*
X230595875Y-100600516D01*
X230680252Y-100726794D01*
X230738371Y-100867107D01*
X230751808Y-100934659D01*
X230768000Y-101016062D01*
X230768000Y-101167938D01*
X230766906Y-101173436D01*
X230738371Y-101316893D01*
X230680252Y-101457206D01*
X230595875Y-101583484D01*
X230488484Y-101690875D01*
X230362206Y-101775252D01*
X230221893Y-101833371D01*
X230147201Y-101848228D01*
X230072938Y-101863000D01*
X229921062Y-101863000D01*
X229846799Y-101848228D01*
X229772107Y-101833371D01*
X229631794Y-101775252D01*
X229505516Y-101690875D01*
X229398125Y-101583484D01*
X229313748Y-101457206D01*
X229255629Y-101316893D01*
X229227094Y-101173436D01*
X229226000Y-101167938D01*
X229226000Y-101016062D01*
X229242192Y-100934659D01*
X229255629Y-100867107D01*
X229313748Y-100726794D01*
X229398125Y-100600516D01*
X229505516Y-100493125D01*
X229631794Y-100408748D01*
X229772107Y-100350629D01*
X229902914Y-100324610D01*
X229921062Y-100321000D01*
X230072938Y-100321000D01*
X230091086Y-100324610D01*
X230091086Y-100324610D01*
G37*
G36*
X227551086Y-100324610D02*
G01*
X227681893Y-100350629D01*
X227822206Y-100408748D01*
X227948484Y-100493125D01*
X228055875Y-100600516D01*
X228140252Y-100726794D01*
X228198371Y-100867107D01*
X228211808Y-100934659D01*
X228228000Y-101016062D01*
X228228000Y-101167938D01*
X228226906Y-101173436D01*
X228198371Y-101316893D01*
X228140252Y-101457206D01*
X228055875Y-101583484D01*
X227948484Y-101690875D01*
X227822206Y-101775252D01*
X227681893Y-101833371D01*
X227607201Y-101848228D01*
X227532938Y-101863000D01*
X227381062Y-101863000D01*
X227306799Y-101848228D01*
X227232107Y-101833371D01*
X227091794Y-101775252D01*
X226965516Y-101690875D01*
X226858125Y-101583484D01*
X226773748Y-101457206D01*
X226715629Y-101316893D01*
X226687094Y-101173436D01*
X226686000Y-101167938D01*
X226686000Y-101016062D01*
X226702192Y-100934659D01*
X226715629Y-100867107D01*
X226773748Y-100726794D01*
X226858125Y-100600516D01*
X226965516Y-100493125D01*
X227091794Y-100408748D01*
X227232107Y-100350629D01*
X227362914Y-100324610D01*
X227381062Y-100321000D01*
X227532938Y-100321000D01*
X227551086Y-100324610D01*
X227551086Y-100324610D01*
G37*
G36*
X137326823Y-99491313D02*
G01*
X137487242Y-99539976D01*
X137619906Y-99610886D01*
X137635078Y-99618996D01*
X137764659Y-99725341D01*
X137871004Y-99854922D01*
X137871005Y-99854924D01*
X137950024Y-100002758D01*
X137998687Y-100163177D01*
X138015117Y-100330000D01*
X137998687Y-100496823D01*
X137950024Y-100657242D01*
X137900978Y-100749000D01*
X137871004Y-100805078D01*
X137764659Y-100934659D01*
X137635078Y-101041004D01*
X137635076Y-101041005D01*
X137487242Y-101120024D01*
X137326823Y-101168687D01*
X137201804Y-101181000D01*
X137118196Y-101181000D01*
X136993177Y-101168687D01*
X136832758Y-101120024D01*
X136684924Y-101041005D01*
X136684922Y-101041004D01*
X136555341Y-100934659D01*
X136448996Y-100805078D01*
X136419022Y-100749000D01*
X136369976Y-100657242D01*
X136321313Y-100496823D01*
X136304883Y-100330000D01*
X136321313Y-100163177D01*
X136369976Y-100002758D01*
X136448995Y-99854924D01*
X136448996Y-99854922D01*
X136555341Y-99725341D01*
X136684922Y-99618996D01*
X136700094Y-99610886D01*
X136832758Y-99539976D01*
X136993177Y-99491313D01*
X137118196Y-99479000D01*
X137201804Y-99479000D01*
X137326823Y-99491313D01*
X137326823Y-99491313D01*
G37*
G36*
X144946823Y-99491313D02*
G01*
X145107242Y-99539976D01*
X145239906Y-99610886D01*
X145255078Y-99618996D01*
X145384659Y-99725341D01*
X145491004Y-99854922D01*
X145491005Y-99854924D01*
X145570024Y-100002758D01*
X145618687Y-100163177D01*
X145635117Y-100330000D01*
X145618687Y-100496823D01*
X145570024Y-100657242D01*
X145520978Y-100749000D01*
X145491004Y-100805078D01*
X145384659Y-100934659D01*
X145255078Y-101041004D01*
X145255076Y-101041005D01*
X145107242Y-101120024D01*
X144946823Y-101168687D01*
X144821804Y-101181000D01*
X144738196Y-101181000D01*
X144613177Y-101168687D01*
X144452758Y-101120024D01*
X144304924Y-101041005D01*
X144304922Y-101041004D01*
X144175341Y-100934659D01*
X144068996Y-100805078D01*
X144039022Y-100749000D01*
X143989976Y-100657242D01*
X143941313Y-100496823D01*
X143924883Y-100330000D01*
X143941313Y-100163177D01*
X143989976Y-100002758D01*
X144068995Y-99854924D01*
X144068996Y-99854922D01*
X144175341Y-99725341D01*
X144304922Y-99618996D01*
X144320094Y-99610886D01*
X144452758Y-99539976D01*
X144613177Y-99491313D01*
X144738196Y-99479000D01*
X144821804Y-99479000D01*
X144946823Y-99491313D01*
X144946823Y-99491313D01*
G37*
G36*
X219762564Y-98303389D02*
G01*
X219953833Y-98382615D01*
X219953835Y-98382616D01*
X220125973Y-98497635D01*
X220272365Y-98644027D01*
X220387385Y-98816167D01*
X220466611Y-99007436D01*
X220507000Y-99210484D01*
X220507000Y-99417516D01*
X220466611Y-99620564D01*
X220423211Y-99725341D01*
X220387384Y-99811835D01*
X220272365Y-99983973D01*
X220125973Y-100130365D01*
X219953835Y-100245384D01*
X219953834Y-100245385D01*
X219953833Y-100245385D01*
X219762564Y-100324611D01*
X219559516Y-100365000D01*
X219352484Y-100365000D01*
X219149436Y-100324611D01*
X218958167Y-100245385D01*
X218958166Y-100245385D01*
X218958165Y-100245384D01*
X218786027Y-100130365D01*
X218639635Y-99983973D01*
X218524616Y-99811835D01*
X218488789Y-99725341D01*
X218445389Y-99620564D01*
X218405000Y-99417516D01*
X218405000Y-99210484D01*
X218445389Y-99007436D01*
X218524615Y-98816167D01*
X218639635Y-98644027D01*
X218786027Y-98497635D01*
X218958165Y-98382616D01*
X218958167Y-98382615D01*
X219149436Y-98303389D01*
X219352484Y-98263000D01*
X219559516Y-98263000D01*
X219762564Y-98303389D01*
X219762564Y-98303389D01*
G37*
G36*
X172301000Y-99530000D02*
G01*
X170599000Y-99530000D01*
X170599000Y-97828000D01*
X172301000Y-97828000D01*
X172301000Y-99530000D01*
X172301000Y-99530000D01*
G37*
G36*
X137326823Y-96951313D02*
G01*
X137487242Y-96999976D01*
X137619906Y-97070886D01*
X137635078Y-97078996D01*
X137764659Y-97185341D01*
X137871004Y-97314922D01*
X137871005Y-97314924D01*
X137950024Y-97462758D01*
X137998687Y-97623177D01*
X138015117Y-97790000D01*
X137998687Y-97956823D01*
X137950024Y-98117242D01*
X137879114Y-98249906D01*
X137871004Y-98265078D01*
X137764659Y-98394659D01*
X137635078Y-98501004D01*
X137635076Y-98501005D01*
X137487242Y-98580024D01*
X137326823Y-98628687D01*
X137201804Y-98641000D01*
X137118196Y-98641000D01*
X136993177Y-98628687D01*
X136832758Y-98580024D01*
X136684924Y-98501005D01*
X136684922Y-98501004D01*
X136555341Y-98394659D01*
X136448996Y-98265078D01*
X136440886Y-98249906D01*
X136369976Y-98117242D01*
X136321313Y-97956823D01*
X136304883Y-97790000D01*
X136321313Y-97623177D01*
X136369976Y-97462758D01*
X136448995Y-97314924D01*
X136448996Y-97314922D01*
X136555341Y-97185341D01*
X136684922Y-97078996D01*
X136700094Y-97070886D01*
X136832758Y-96999976D01*
X136993177Y-96951313D01*
X137118196Y-96939000D01*
X137201804Y-96939000D01*
X137326823Y-96951313D01*
X137326823Y-96951313D01*
G37*
G36*
X144946823Y-96951313D02*
G01*
X145107242Y-96999976D01*
X145239906Y-97070886D01*
X145255078Y-97078996D01*
X145384659Y-97185341D01*
X145491004Y-97314922D01*
X145491005Y-97314924D01*
X145570024Y-97462758D01*
X145618687Y-97623177D01*
X145635117Y-97790000D01*
X145618687Y-97956823D01*
X145570024Y-98117242D01*
X145499114Y-98249906D01*
X145491004Y-98265078D01*
X145384659Y-98394659D01*
X145255078Y-98501004D01*
X145255076Y-98501005D01*
X145107242Y-98580024D01*
X144946823Y-98628687D01*
X144821804Y-98641000D01*
X144738196Y-98641000D01*
X144613177Y-98628687D01*
X144452758Y-98580024D01*
X144304924Y-98501005D01*
X144304922Y-98501004D01*
X144175341Y-98394659D01*
X144068996Y-98265078D01*
X144060886Y-98249906D01*
X143989976Y-98117242D01*
X143941313Y-97956823D01*
X143924883Y-97790000D01*
X143941313Y-97623177D01*
X143989976Y-97462758D01*
X144068995Y-97314924D01*
X144068996Y-97314922D01*
X144175341Y-97185341D01*
X144304922Y-97078996D01*
X144320094Y-97070886D01*
X144452758Y-96999976D01*
X144613177Y-96951313D01*
X144738196Y-96939000D01*
X144821804Y-96939000D01*
X144946823Y-96951313D01*
X144946823Y-96951313D01*
G37*
G36*
X152648228Y-95781703D02*
G01*
X152803100Y-95845853D01*
X152942481Y-95938985D01*
X153061015Y-96057519D01*
X153154147Y-96196900D01*
X153218297Y-96351772D01*
X153251000Y-96516184D01*
X153251000Y-96683816D01*
X153218297Y-96848228D01*
X153154147Y-97003100D01*
X153061015Y-97142481D01*
X152942481Y-97261015D01*
X152803100Y-97354147D01*
X152648228Y-97418297D01*
X152483816Y-97451000D01*
X152316184Y-97451000D01*
X152151772Y-97418297D01*
X151996900Y-97354147D01*
X151857519Y-97261015D01*
X151738985Y-97142481D01*
X151645853Y-97003100D01*
X151581703Y-96848228D01*
X151549000Y-96683816D01*
X151549000Y-96516184D01*
X151581703Y-96351772D01*
X151645853Y-96196900D01*
X151738985Y-96057519D01*
X151857519Y-95938985D01*
X151996900Y-95845853D01*
X152151772Y-95781703D01*
X152316184Y-95749000D01*
X152483816Y-95749000D01*
X152648228Y-95781703D01*
X152648228Y-95781703D01*
G37*
G36*
X93847228Y-95654703D02*
G01*
X94002100Y-95718853D01*
X94141481Y-95811985D01*
X94260015Y-95930519D01*
X94353147Y-96069900D01*
X94417297Y-96224772D01*
X94450000Y-96389184D01*
X94450000Y-96556816D01*
X94417297Y-96721228D01*
X94353147Y-96876100D01*
X94260015Y-97015481D01*
X94141481Y-97134015D01*
X94002100Y-97227147D01*
X93847228Y-97291297D01*
X93682816Y-97324000D01*
X93515184Y-97324000D01*
X93350772Y-97291297D01*
X93195900Y-97227147D01*
X93056519Y-97134015D01*
X92937985Y-97015481D01*
X92844853Y-96876100D01*
X92780703Y-96721228D01*
X92748000Y-96556816D01*
X92748000Y-96389184D01*
X92780703Y-96224772D01*
X92844853Y-96069900D01*
X92937985Y-95930519D01*
X93056519Y-95811985D01*
X93195900Y-95718853D01*
X93350772Y-95654703D01*
X93515184Y-95622000D01*
X93682816Y-95622000D01*
X93847228Y-95654703D01*
X93847228Y-95654703D01*
G37*
G36*
X66346564Y-94239389D02*
G01*
X66537833Y-94318615D01*
X66537835Y-94318616D01*
X66709973Y-94433635D01*
X66856365Y-94580027D01*
X66959345Y-94734147D01*
X66971385Y-94752167D01*
X67050611Y-94943436D01*
X67091000Y-95146484D01*
X67091000Y-95353516D01*
X67050611Y-95556564D01*
X66983389Y-95718852D01*
X66971384Y-95747835D01*
X66856365Y-95919973D01*
X66709973Y-96066365D01*
X66537835Y-96181384D01*
X66537834Y-96181385D01*
X66537833Y-96181385D01*
X66346564Y-96260611D01*
X66143516Y-96301000D01*
X65936484Y-96301000D01*
X65733436Y-96260611D01*
X65542167Y-96181385D01*
X65542166Y-96181385D01*
X65542165Y-96181384D01*
X65370027Y-96066365D01*
X65223635Y-95919973D01*
X65108616Y-95747835D01*
X65096611Y-95718852D01*
X65029389Y-95556564D01*
X64989000Y-95353516D01*
X64989000Y-95146484D01*
X65029389Y-94943436D01*
X65108615Y-94752167D01*
X65120656Y-94734147D01*
X65223635Y-94580027D01*
X65370027Y-94433635D01*
X65542165Y-94318616D01*
X65542167Y-94318615D01*
X65733436Y-94239389D01*
X65936484Y-94199000D01*
X66143516Y-94199000D01*
X66346564Y-94239389D01*
X66346564Y-94239389D01*
G37*
G36*
X58846564Y-94239389D02*
G01*
X59037833Y-94318615D01*
X59037835Y-94318616D01*
X59209973Y-94433635D01*
X59356365Y-94580027D01*
X59459345Y-94734147D01*
X59471385Y-94752167D01*
X59550611Y-94943436D01*
X59591000Y-95146484D01*
X59591000Y-95353516D01*
X59550611Y-95556564D01*
X59483389Y-95718852D01*
X59471384Y-95747835D01*
X59356365Y-95919973D01*
X59209973Y-96066365D01*
X59037835Y-96181384D01*
X59037834Y-96181385D01*
X59037833Y-96181385D01*
X58846564Y-96260611D01*
X58643516Y-96301000D01*
X58436484Y-96301000D01*
X58233436Y-96260611D01*
X58042167Y-96181385D01*
X58042166Y-96181385D01*
X58042165Y-96181384D01*
X57870027Y-96066365D01*
X57723635Y-95919973D01*
X57608616Y-95747835D01*
X57596611Y-95718852D01*
X57529389Y-95556564D01*
X57489000Y-95353516D01*
X57489000Y-95146484D01*
X57529389Y-94943436D01*
X57608615Y-94752167D01*
X57620656Y-94734147D01*
X57723635Y-94580027D01*
X57870027Y-94433635D01*
X58042165Y-94318616D01*
X58042167Y-94318615D01*
X58233436Y-94239389D01*
X58436484Y-94199000D01*
X58643516Y-94199000D01*
X58846564Y-94239389D01*
X58846564Y-94239389D01*
G37*
G36*
X128576564Y-94239389D02*
G01*
X128767833Y-94318615D01*
X128767835Y-94318616D01*
X128939973Y-94433635D01*
X129086365Y-94580027D01*
X129189345Y-94734147D01*
X129201385Y-94752167D01*
X129280611Y-94943436D01*
X129321000Y-95146484D01*
X129321000Y-95353516D01*
X129280611Y-95556564D01*
X129213389Y-95718852D01*
X129201384Y-95747835D01*
X129086365Y-95919973D01*
X128939973Y-96066365D01*
X128767835Y-96181384D01*
X128767834Y-96181385D01*
X128767833Y-96181385D01*
X128576564Y-96260611D01*
X128373516Y-96301000D01*
X128166484Y-96301000D01*
X127963436Y-96260611D01*
X127772167Y-96181385D01*
X127772166Y-96181385D01*
X127772165Y-96181384D01*
X127600027Y-96066365D01*
X127453635Y-95919973D01*
X127338616Y-95747835D01*
X127326611Y-95718852D01*
X127259389Y-95556564D01*
X127219000Y-95353516D01*
X127219000Y-95146484D01*
X127259389Y-94943436D01*
X127338615Y-94752167D01*
X127350656Y-94734147D01*
X127453635Y-94580027D01*
X127600027Y-94433635D01*
X127772165Y-94318616D01*
X127772167Y-94318615D01*
X127963436Y-94239389D01*
X128166484Y-94199000D01*
X128373516Y-94199000D01*
X128576564Y-94239389D01*
X128576564Y-94239389D01*
G37*
G36*
X138011000Y-96101000D02*
G01*
X136309000Y-96101000D01*
X136309000Y-94399000D01*
X138011000Y-94399000D01*
X138011000Y-96101000D01*
X138011000Y-96101000D01*
G37*
G36*
X144946823Y-94411313D02*
G01*
X145107242Y-94459976D01*
X145239906Y-94530886D01*
X145255078Y-94538996D01*
X145384659Y-94645341D01*
X145491004Y-94774922D01*
X145491005Y-94774924D01*
X145570024Y-94922758D01*
X145618687Y-95083177D01*
X145635117Y-95250000D01*
X145618687Y-95416823D01*
X145570024Y-95577242D01*
X145529477Y-95653100D01*
X145491004Y-95725078D01*
X145384659Y-95854659D01*
X145255078Y-95961004D01*
X145255076Y-95961005D01*
X145107242Y-96040024D01*
X144946823Y-96088687D01*
X144821804Y-96101000D01*
X144738196Y-96101000D01*
X144613177Y-96088687D01*
X144452758Y-96040024D01*
X144304924Y-95961005D01*
X144304922Y-95961004D01*
X144175341Y-95854659D01*
X144068996Y-95725078D01*
X144030523Y-95653100D01*
X143989976Y-95577242D01*
X143941313Y-95416823D01*
X143924883Y-95250000D01*
X143941313Y-95083177D01*
X143989976Y-94922758D01*
X144068995Y-94774924D01*
X144068996Y-94774922D01*
X144175341Y-94645341D01*
X144304922Y-94538996D01*
X144320094Y-94530886D01*
X144452758Y-94459976D01*
X144613177Y-94411313D01*
X144738196Y-94399000D01*
X144821804Y-94399000D01*
X144946823Y-94411313D01*
X144946823Y-94411313D01*
G37*
G36*
X111926823Y-94411313D02*
G01*
X112087242Y-94459976D01*
X112219906Y-94530886D01*
X112235078Y-94538996D01*
X112364659Y-94645341D01*
X112471004Y-94774922D01*
X112471005Y-94774924D01*
X112550024Y-94922758D01*
X112598687Y-95083177D01*
X112615117Y-95250000D01*
X112598687Y-95416823D01*
X112550024Y-95577242D01*
X112509477Y-95653100D01*
X112471004Y-95725078D01*
X112364659Y-95854659D01*
X112235078Y-95961004D01*
X112235076Y-95961005D01*
X112087242Y-96040024D01*
X111926823Y-96088687D01*
X111801804Y-96101000D01*
X111718196Y-96101000D01*
X111593177Y-96088687D01*
X111432758Y-96040024D01*
X111284924Y-95961005D01*
X111284922Y-95961004D01*
X111155341Y-95854659D01*
X111048996Y-95725078D01*
X111010523Y-95653100D01*
X110969976Y-95577242D01*
X110921313Y-95416823D01*
X110904883Y-95250000D01*
X110921313Y-95083177D01*
X110969976Y-94922758D01*
X111048995Y-94774924D01*
X111048996Y-94774922D01*
X111155341Y-94645341D01*
X111284922Y-94538996D01*
X111300094Y-94530886D01*
X111432758Y-94459976D01*
X111593177Y-94411313D01*
X111718196Y-94399000D01*
X111801804Y-94399000D01*
X111926823Y-94411313D01*
X111926823Y-94411313D01*
G37*
G36*
X73826823Y-94411313D02*
G01*
X73987242Y-94459976D01*
X74119906Y-94530886D01*
X74135078Y-94538996D01*
X74264659Y-94645341D01*
X74371004Y-94774922D01*
X74371005Y-94774924D01*
X74450024Y-94922758D01*
X74498687Y-95083177D01*
X74515117Y-95250000D01*
X74498687Y-95416823D01*
X74450024Y-95577242D01*
X74409477Y-95653100D01*
X74371004Y-95725078D01*
X74264659Y-95854659D01*
X74135078Y-95961004D01*
X74135076Y-95961005D01*
X73987242Y-96040024D01*
X73826823Y-96088687D01*
X73701804Y-96101000D01*
X73618196Y-96101000D01*
X73493177Y-96088687D01*
X73332758Y-96040024D01*
X73184924Y-95961005D01*
X73184922Y-95961004D01*
X73055341Y-95854659D01*
X72948996Y-95725078D01*
X72910523Y-95653100D01*
X72869976Y-95577242D01*
X72821313Y-95416823D01*
X72804883Y-95250000D01*
X72821313Y-95083177D01*
X72869976Y-94922758D01*
X72948995Y-94774924D01*
X72948996Y-94774922D01*
X73055341Y-94645341D01*
X73184922Y-94538996D01*
X73200094Y-94530886D01*
X73332758Y-94459976D01*
X73493177Y-94411313D01*
X73618196Y-94399000D01*
X73701804Y-94399000D01*
X73826823Y-94411313D01*
X73826823Y-94411313D01*
G37*
G36*
X84068228Y-94431703D02*
G01*
X84223100Y-94495853D01*
X84362481Y-94588985D01*
X84481015Y-94707519D01*
X84574147Y-94846900D01*
X84638297Y-95001772D01*
X84671000Y-95166184D01*
X84671000Y-95333816D01*
X84638297Y-95498228D01*
X84574147Y-95653100D01*
X84481015Y-95792481D01*
X84362481Y-95911015D01*
X84223100Y-96004147D01*
X84068228Y-96068297D01*
X83903816Y-96101000D01*
X83736184Y-96101000D01*
X83571772Y-96068297D01*
X83416900Y-96004147D01*
X83277519Y-95911015D01*
X83158985Y-95792481D01*
X83065853Y-95653100D01*
X83001703Y-95498228D01*
X82969000Y-95333816D01*
X82969000Y-95166184D01*
X83001703Y-95001772D01*
X83065853Y-94846900D01*
X83158985Y-94707519D01*
X83277519Y-94588985D01*
X83416900Y-94495853D01*
X83571772Y-94431703D01*
X83736184Y-94399000D01*
X83903816Y-94399000D01*
X84068228Y-94431703D01*
X84068228Y-94431703D01*
G37*
G36*
X104306823Y-94411313D02*
G01*
X104467242Y-94459976D01*
X104599906Y-94530886D01*
X104615078Y-94538996D01*
X104744659Y-94645341D01*
X104851004Y-94774922D01*
X104851005Y-94774924D01*
X104930024Y-94922758D01*
X104978687Y-95083177D01*
X104995117Y-95250000D01*
X104978687Y-95416823D01*
X104930024Y-95577242D01*
X104889477Y-95653100D01*
X104851004Y-95725078D01*
X104744659Y-95854659D01*
X104615078Y-95961004D01*
X104615076Y-95961005D01*
X104467242Y-96040024D01*
X104306823Y-96088687D01*
X104181804Y-96101000D01*
X104098196Y-96101000D01*
X103973177Y-96088687D01*
X103812758Y-96040024D01*
X103664924Y-95961005D01*
X103664922Y-95961004D01*
X103535341Y-95854659D01*
X103428996Y-95725078D01*
X103390523Y-95653100D01*
X103349976Y-95577242D01*
X103301313Y-95416823D01*
X103284883Y-95250000D01*
X103301313Y-95083177D01*
X103349976Y-94922758D01*
X103428995Y-94774924D01*
X103428996Y-94774922D01*
X103535341Y-94645341D01*
X103664922Y-94538996D01*
X103680094Y-94530886D01*
X103812758Y-94459976D01*
X103973177Y-94411313D01*
X104098196Y-94399000D01*
X104181804Y-94399000D01*
X104306823Y-94411313D01*
X104306823Y-94411313D01*
G37*
G36*
X198426564Y-92969389D02*
G01*
X198615904Y-93047816D01*
X198617835Y-93048616D01*
X198789973Y-93163635D01*
X198936365Y-93310027D01*
X199010518Y-93421004D01*
X199051385Y-93482167D01*
X199130611Y-93673436D01*
X199171000Y-93876484D01*
X199171000Y-94083516D01*
X199130611Y-94286564D01*
X199051385Y-94477833D01*
X199051384Y-94477835D01*
X198936365Y-94649973D01*
X198789973Y-94796365D01*
X198617835Y-94911384D01*
X198617834Y-94911385D01*
X198617833Y-94911385D01*
X198426564Y-94990611D01*
X198223516Y-95031000D01*
X198016484Y-95031000D01*
X197813436Y-94990611D01*
X197622167Y-94911385D01*
X197622166Y-94911385D01*
X197622165Y-94911384D01*
X197450027Y-94796365D01*
X197303635Y-94649973D01*
X197188616Y-94477835D01*
X197188615Y-94477833D01*
X197109389Y-94286564D01*
X197069000Y-94083516D01*
X197069000Y-93876484D01*
X197109389Y-93673436D01*
X197188615Y-93482167D01*
X197229483Y-93421004D01*
X197303635Y-93310027D01*
X197450027Y-93163635D01*
X197622165Y-93048616D01*
X197624096Y-93047816D01*
X197813436Y-92969389D01*
X198016484Y-92929000D01*
X198223516Y-92929000D01*
X198426564Y-92969389D01*
X198426564Y-92969389D01*
G37*
G36*
X119628228Y-93161703D02*
G01*
X119783100Y-93225853D01*
X119922481Y-93318985D01*
X120041015Y-93437519D01*
X120134147Y-93576900D01*
X120198297Y-93731772D01*
X120231000Y-93896184D01*
X120231000Y-94063816D01*
X120198297Y-94228228D01*
X120134147Y-94383100D01*
X120041015Y-94522481D01*
X119922481Y-94641015D01*
X119783100Y-94734147D01*
X119628228Y-94798297D01*
X119463816Y-94831000D01*
X119296184Y-94831000D01*
X119131772Y-94798297D01*
X118976900Y-94734147D01*
X118837519Y-94641015D01*
X118718985Y-94522481D01*
X118625853Y-94383100D01*
X118561703Y-94228228D01*
X118529000Y-94063816D01*
X118529000Y-93896184D01*
X118561703Y-93731772D01*
X118625853Y-93576900D01*
X118718985Y-93437519D01*
X118837519Y-93318985D01*
X118976900Y-93225853D01*
X119131772Y-93161703D01*
X119296184Y-93129000D01*
X119463816Y-93129000D01*
X119628228Y-93161703D01*
X119628228Y-93161703D01*
G37*
G36*
X49651256Y-91482298D02*
G01*
X49757579Y-91503447D01*
X50058042Y-91627903D01*
X50328451Y-91808585D01*
X50558415Y-92038549D01*
X50739097Y-92308958D01*
X50813641Y-92488922D01*
X50863553Y-92609422D01*
X50927000Y-92928389D01*
X50927000Y-93253611D01*
X50913996Y-93318985D01*
X50863553Y-93572579D01*
X50739097Y-93873042D01*
X50558415Y-94143451D01*
X50328451Y-94373415D01*
X50058042Y-94554097D01*
X49757579Y-94678553D01*
X49651256Y-94699702D01*
X49438611Y-94742000D01*
X49113389Y-94742000D01*
X48900744Y-94699702D01*
X48794421Y-94678553D01*
X48493958Y-94554097D01*
X48223549Y-94373415D01*
X47993585Y-94143451D01*
X47812903Y-93873042D01*
X47688447Y-93572579D01*
X47638004Y-93318985D01*
X47625000Y-93253611D01*
X47625000Y-92928389D01*
X47688447Y-92609422D01*
X47738360Y-92488922D01*
X47812903Y-92308958D01*
X47993585Y-92038549D01*
X48223549Y-91808585D01*
X48493958Y-91627903D01*
X48794421Y-91503447D01*
X48900744Y-91482298D01*
X49113389Y-91440000D01*
X49438611Y-91440000D01*
X49651256Y-91482298D01*
X49651256Y-91482298D01*
G37*
G36*
X266567256Y-91482298D02*
G01*
X266673579Y-91503447D01*
X266974042Y-91627903D01*
X267244451Y-91808585D01*
X267474415Y-92038549D01*
X267655097Y-92308958D01*
X267729641Y-92488922D01*
X267779553Y-92609422D01*
X267843000Y-92928389D01*
X267843000Y-93253611D01*
X267829996Y-93318985D01*
X267779553Y-93572579D01*
X267655097Y-93873042D01*
X267474415Y-94143451D01*
X267244451Y-94373415D01*
X266974042Y-94554097D01*
X266673579Y-94678553D01*
X266567256Y-94699702D01*
X266354611Y-94742000D01*
X266029389Y-94742000D01*
X265816744Y-94699702D01*
X265710421Y-94678553D01*
X265409958Y-94554097D01*
X265139549Y-94373415D01*
X264909585Y-94143451D01*
X264728903Y-93873042D01*
X264604447Y-93572579D01*
X264554004Y-93318985D01*
X264541000Y-93253611D01*
X264541000Y-92928389D01*
X264604447Y-92609422D01*
X264654360Y-92488922D01*
X264728903Y-92308958D01*
X264909585Y-92038549D01*
X265139549Y-91808585D01*
X265409958Y-91627903D01*
X265710421Y-91503447D01*
X265816744Y-91482298D01*
X266029389Y-91440000D01*
X266354611Y-91440000D01*
X266567256Y-91482298D01*
X266567256Y-91482298D01*
G37*
G36*
X161665256Y-91482298D02*
G01*
X161771579Y-91503447D01*
X162072042Y-91627903D01*
X162342451Y-91808585D01*
X162572415Y-92038549D01*
X162753097Y-92308958D01*
X162827641Y-92488922D01*
X162877553Y-92609422D01*
X162941000Y-92928389D01*
X162941000Y-93253611D01*
X162927996Y-93318985D01*
X162877553Y-93572579D01*
X162753097Y-93873042D01*
X162572415Y-94143451D01*
X162342451Y-94373415D01*
X162072042Y-94554097D01*
X161771579Y-94678553D01*
X161665256Y-94699702D01*
X161452611Y-94742000D01*
X161127389Y-94742000D01*
X160914744Y-94699702D01*
X160808421Y-94678553D01*
X160507958Y-94554097D01*
X160237549Y-94373415D01*
X160007585Y-94143451D01*
X159826903Y-93873042D01*
X159702447Y-93572579D01*
X159652004Y-93318985D01*
X159639000Y-93253611D01*
X159639000Y-92928389D01*
X159702447Y-92609422D01*
X159752360Y-92488922D01*
X159826903Y-92308958D01*
X160007585Y-92038549D01*
X160237549Y-91808585D01*
X160507958Y-91627903D01*
X160808421Y-91503447D01*
X160914744Y-91482298D01*
X161127389Y-91440000D01*
X161452611Y-91440000D01*
X161665256Y-91482298D01*
X161665256Y-91482298D01*
G37*
G36*
X209377000Y-94315000D02*
G01*
X206675000Y-94315000D01*
X206675000Y-91613000D01*
X209377000Y-91613000D01*
X209377000Y-94315000D01*
X209377000Y-94315000D01*
G37*
G36*
X213233980Y-91627902D02*
G01*
X213420072Y-91664918D01*
X213665939Y-91766759D01*
X213777328Y-91841187D01*
X213887211Y-91914609D01*
X214075391Y-92102789D01*
X214122956Y-92173975D01*
X214213151Y-92308960D01*
X214223242Y-92324063D01*
X214325082Y-92569928D01*
X214377000Y-92830937D01*
X214377000Y-93097063D01*
X214325082Y-93358072D01*
X214237855Y-93568659D01*
X214223241Y-93603939D01*
X214175756Y-93675005D01*
X214082214Y-93815000D01*
X214075390Y-93825212D01*
X213887212Y-94013390D01*
X213665939Y-94161241D01*
X213665938Y-94161242D01*
X213665937Y-94161242D01*
X213420072Y-94263082D01*
X213159063Y-94315000D01*
X212892937Y-94315000D01*
X212631928Y-94263082D01*
X212386063Y-94161242D01*
X212386062Y-94161242D01*
X212386061Y-94161241D01*
X212164788Y-94013390D01*
X211976610Y-93825212D01*
X211969787Y-93815000D01*
X211876244Y-93675005D01*
X211828759Y-93603939D01*
X211814146Y-93568659D01*
X211726918Y-93358072D01*
X211675000Y-93097063D01*
X211675000Y-92830937D01*
X211726918Y-92569928D01*
X211828758Y-92324063D01*
X211838850Y-92308960D01*
X211929044Y-92173975D01*
X211976609Y-92102789D01*
X212164789Y-91914609D01*
X212274672Y-91841187D01*
X212386061Y-91766759D01*
X212631928Y-91664918D01*
X212818020Y-91627902D01*
X212892937Y-91613000D01*
X213159063Y-91613000D01*
X213233980Y-91627902D01*
X213233980Y-91627902D01*
G37*
G36*
X260598228Y-92145703D02*
G01*
X260753100Y-92209853D01*
X260892481Y-92302985D01*
X261011015Y-92421519D01*
X261104147Y-92560900D01*
X261168297Y-92715772D01*
X261201000Y-92880184D01*
X261201000Y-93047816D01*
X261168297Y-93212228D01*
X261104147Y-93367100D01*
X261011015Y-93506481D01*
X260892481Y-93625015D01*
X260753100Y-93718147D01*
X260598228Y-93782297D01*
X260433816Y-93815000D01*
X260266184Y-93815000D01*
X260101772Y-93782297D01*
X259946900Y-93718147D01*
X259807519Y-93625015D01*
X259688985Y-93506481D01*
X259595853Y-93367100D01*
X259531703Y-93212228D01*
X259499000Y-93047816D01*
X259499000Y-92880184D01*
X259531703Y-92715772D01*
X259595853Y-92560900D01*
X259688985Y-92421519D01*
X259807519Y-92302985D01*
X259946900Y-92209853D01*
X260101772Y-92145703D01*
X260266184Y-92113000D01*
X260433816Y-92113000D01*
X260598228Y-92145703D01*
X260598228Y-92145703D01*
G37*
G36*
X231179823Y-92125313D02*
G01*
X231340242Y-92173976D01*
X231472906Y-92244886D01*
X231488078Y-92252996D01*
X231617659Y-92359341D01*
X231724004Y-92488922D01*
X231724005Y-92488924D01*
X231803024Y-92636758D01*
X231851687Y-92797177D01*
X231868117Y-92964000D01*
X231851687Y-93130823D01*
X231803024Y-93291242D01*
X231762477Y-93367100D01*
X231724004Y-93439078D01*
X231617659Y-93568659D01*
X231488078Y-93675004D01*
X231488076Y-93675005D01*
X231340242Y-93754024D01*
X231179823Y-93802687D01*
X231054804Y-93815000D01*
X230971196Y-93815000D01*
X230846177Y-93802687D01*
X230685758Y-93754024D01*
X230537924Y-93675005D01*
X230537922Y-93675004D01*
X230408341Y-93568659D01*
X230301996Y-93439078D01*
X230263523Y-93367100D01*
X230222976Y-93291242D01*
X230174313Y-93130823D01*
X230157883Y-92964000D01*
X230174313Y-92797177D01*
X230222976Y-92636758D01*
X230301995Y-92488924D01*
X230301996Y-92488922D01*
X230408341Y-92359341D01*
X230537922Y-92252996D01*
X230553094Y-92244886D01*
X230685758Y-92173976D01*
X230846177Y-92125313D01*
X230971196Y-92113000D01*
X231054804Y-92113000D01*
X231179823Y-92125313D01*
X231179823Y-92125313D01*
G37*
G36*
X221101228Y-92145703D02*
G01*
X221256100Y-92209853D01*
X221395481Y-92302985D01*
X221514015Y-92421519D01*
X221607147Y-92560900D01*
X221671297Y-92715772D01*
X221704000Y-92880184D01*
X221704000Y-93047816D01*
X221671297Y-93212228D01*
X221607147Y-93367100D01*
X221514015Y-93506481D01*
X221395481Y-93625015D01*
X221256100Y-93718147D01*
X221101228Y-93782297D01*
X220936816Y-93815000D01*
X220769184Y-93815000D01*
X220604772Y-93782297D01*
X220449900Y-93718147D01*
X220310519Y-93625015D01*
X220191985Y-93506481D01*
X220098853Y-93367100D01*
X220034703Y-93212228D01*
X220002000Y-93047816D01*
X220002000Y-92880184D01*
X220034703Y-92715772D01*
X220098853Y-92560900D01*
X220191985Y-92421519D01*
X220310519Y-92302985D01*
X220449900Y-92209853D01*
X220604772Y-92145703D01*
X220769184Y-92113000D01*
X220936816Y-92113000D01*
X221101228Y-92145703D01*
X221101228Y-92145703D01*
G37*
G36*
X250356823Y-92125313D02*
G01*
X250517242Y-92173976D01*
X250649906Y-92244886D01*
X250665078Y-92252996D01*
X250794659Y-92359341D01*
X250901004Y-92488922D01*
X250901005Y-92488924D01*
X250980024Y-92636758D01*
X251028687Y-92797177D01*
X251045117Y-92964000D01*
X251028687Y-93130823D01*
X250980024Y-93291242D01*
X250939477Y-93367100D01*
X250901004Y-93439078D01*
X250794659Y-93568659D01*
X250665078Y-93675004D01*
X250665076Y-93675005D01*
X250517242Y-93754024D01*
X250356823Y-93802687D01*
X250231804Y-93815000D01*
X250148196Y-93815000D01*
X250023177Y-93802687D01*
X249862758Y-93754024D01*
X249714924Y-93675005D01*
X249714922Y-93675004D01*
X249585341Y-93568659D01*
X249478996Y-93439078D01*
X249440523Y-93367100D01*
X249399976Y-93291242D01*
X249351313Y-93130823D01*
X249334883Y-92964000D01*
X249351313Y-92797177D01*
X249399976Y-92636758D01*
X249478995Y-92488924D01*
X249478996Y-92488922D01*
X249585341Y-92359341D01*
X249714922Y-92252996D01*
X249730094Y-92244886D01*
X249862758Y-92173976D01*
X250023177Y-92125313D01*
X250148196Y-92113000D01*
X250231804Y-92113000D01*
X250356823Y-92125313D01*
X250356823Y-92125313D01*
G37*
G36*
X246501228Y-92145703D02*
G01*
X246656100Y-92209853D01*
X246795481Y-92302985D01*
X246914015Y-92421519D01*
X247007147Y-92560900D01*
X247071297Y-92715772D01*
X247104000Y-92880184D01*
X247104000Y-93047816D01*
X247071297Y-93212228D01*
X247007147Y-93367100D01*
X246914015Y-93506481D01*
X246795481Y-93625015D01*
X246656100Y-93718147D01*
X246501228Y-93782297D01*
X246336816Y-93815000D01*
X246169184Y-93815000D01*
X246004772Y-93782297D01*
X245849900Y-93718147D01*
X245710519Y-93625015D01*
X245591985Y-93506481D01*
X245498853Y-93367100D01*
X245434703Y-93212228D01*
X245402000Y-93047816D01*
X245402000Y-92880184D01*
X245434703Y-92715772D01*
X245498853Y-92560900D01*
X245591985Y-92421519D01*
X245710519Y-92302985D01*
X245849900Y-92209853D01*
X246004772Y-92145703D01*
X246169184Y-92113000D01*
X246336816Y-92113000D01*
X246501228Y-92145703D01*
X246501228Y-92145703D01*
G37*
G36*
X236259823Y-92125313D02*
G01*
X236420242Y-92173976D01*
X236552906Y-92244886D01*
X236568078Y-92252996D01*
X236697659Y-92359341D01*
X236804004Y-92488922D01*
X236804005Y-92488924D01*
X236883024Y-92636758D01*
X236931687Y-92797177D01*
X236948117Y-92964000D01*
X236931687Y-93130823D01*
X236883024Y-93291242D01*
X236842477Y-93367100D01*
X236804004Y-93439078D01*
X236697659Y-93568659D01*
X236568078Y-93675004D01*
X236568076Y-93675005D01*
X236420242Y-93754024D01*
X236259823Y-93802687D01*
X236134804Y-93815000D01*
X236051196Y-93815000D01*
X235926177Y-93802687D01*
X235765758Y-93754024D01*
X235617924Y-93675005D01*
X235617922Y-93675004D01*
X235488341Y-93568659D01*
X235381996Y-93439078D01*
X235343523Y-93367100D01*
X235302976Y-93291242D01*
X235254313Y-93130823D01*
X235237883Y-92964000D01*
X235254313Y-92797177D01*
X235302976Y-92636758D01*
X235381995Y-92488924D01*
X235381996Y-92488922D01*
X235488341Y-92359341D01*
X235617922Y-92252996D01*
X235633094Y-92244886D01*
X235765758Y-92173976D01*
X235926177Y-92125313D01*
X236051196Y-92113000D01*
X236134804Y-92113000D01*
X236259823Y-92125313D01*
X236259823Y-92125313D01*
G37*
G36*
X181776823Y-91871313D02*
G01*
X181937242Y-91919976D01*
X182069906Y-91990886D01*
X182085078Y-91998996D01*
X182214659Y-92105341D01*
X182321004Y-92234922D01*
X182321005Y-92234924D01*
X182400024Y-92382758D01*
X182448687Y-92543177D01*
X182465117Y-92710000D01*
X182448687Y-92876823D01*
X182400024Y-93037242D01*
X182368049Y-93097063D01*
X182321004Y-93185078D01*
X182214659Y-93314659D01*
X182085078Y-93421004D01*
X182085076Y-93421005D01*
X181937242Y-93500024D01*
X181776823Y-93548687D01*
X181651804Y-93561000D01*
X181568196Y-93561000D01*
X181443177Y-93548687D01*
X181282758Y-93500024D01*
X181134924Y-93421005D01*
X181134922Y-93421004D01*
X181005341Y-93314659D01*
X180898996Y-93185078D01*
X180851951Y-93097063D01*
X180819976Y-93037242D01*
X180771313Y-92876823D01*
X180754883Y-92710000D01*
X180771313Y-92543177D01*
X180819976Y-92382758D01*
X180898995Y-92234924D01*
X180898996Y-92234922D01*
X181005341Y-92105341D01*
X181134922Y-91998996D01*
X181150094Y-91990886D01*
X181282758Y-91919976D01*
X181443177Y-91871313D01*
X181568196Y-91859000D01*
X181651804Y-91859000D01*
X181776823Y-91871313D01*
X181776823Y-91871313D01*
G37*
G36*
X189396823Y-91871313D02*
G01*
X189557242Y-91919976D01*
X189689906Y-91990886D01*
X189705078Y-91998996D01*
X189834659Y-92105341D01*
X189941004Y-92234922D01*
X189941005Y-92234924D01*
X190020024Y-92382758D01*
X190068687Y-92543177D01*
X190085117Y-92710000D01*
X190068687Y-92876823D01*
X190020024Y-93037242D01*
X189988049Y-93097063D01*
X189941004Y-93185078D01*
X189834659Y-93314659D01*
X189705078Y-93421004D01*
X189705076Y-93421005D01*
X189557242Y-93500024D01*
X189396823Y-93548687D01*
X189271804Y-93561000D01*
X189188196Y-93561000D01*
X189063177Y-93548687D01*
X188902758Y-93500024D01*
X188754924Y-93421005D01*
X188754922Y-93421004D01*
X188625341Y-93314659D01*
X188518996Y-93185078D01*
X188471951Y-93097063D01*
X188439976Y-93037242D01*
X188391313Y-92876823D01*
X188374883Y-92710000D01*
X188391313Y-92543177D01*
X188439976Y-92382758D01*
X188518995Y-92234924D01*
X188518996Y-92234922D01*
X188625341Y-92105341D01*
X188754922Y-91998996D01*
X188770094Y-91990886D01*
X188902758Y-91919976D01*
X189063177Y-91871313D01*
X189188196Y-91859000D01*
X189271804Y-91859000D01*
X189396823Y-91871313D01*
X189396823Y-91871313D01*
G37*
M02*
