G04 #@! TF.GenerationSoftware,KiCad,Pcbnew,(5.1.4)-1*
G04 #@! TF.CreationDate,2020-01-19T01:30:50+01:00*
G04 #@! TF.ProjectId,Lead-12-5010,4c656164-2d31-4322-9d35-3031302e6b69,rev?*
G04 #@! TF.SameCoordinates,Original*
G04 #@! TF.FileFunction,Legend,Top*
G04 #@! TF.FilePolarity,Positive*
%FSLAX46Y46*%
G04 Gerber Fmt 4.6, Leading zero omitted, Abs format (unit mm)*
G04 Created by KiCad (PCBNEW (5.1.4)-1) date 2020-01-19 01:30:50*
%MOMM*%
%LPD*%
G04 APERTURE LIST*
%ADD10C,0.400000*%
%ADD11C,0.300000*%
%ADD12C,0.200000*%
%ADD13C,0.120000*%
%ADD14C,0.010000*%
%ADD15C,0.150000*%
G04 APERTURE END LIST*
D10*
X205010285Y-100957142D02*
X205724571Y-102957142D01*
X206438857Y-100957142D01*
X208153142Y-99957142D02*
X208438857Y-99957142D01*
X208724571Y-100100000D01*
X208867428Y-100242857D01*
X209010285Y-100528571D01*
X209153142Y-101100000D01*
X209153142Y-101814285D01*
X209010285Y-102385714D01*
X208867428Y-102671428D01*
X208724571Y-102814285D01*
X208438857Y-102957142D01*
X208153142Y-102957142D01*
X207867428Y-102814285D01*
X207724571Y-102671428D01*
X207581714Y-102385714D01*
X207438857Y-101814285D01*
X207438857Y-101100000D01*
X207581714Y-100528571D01*
X207724571Y-100242857D01*
X207867428Y-100100000D01*
X208153142Y-99957142D01*
X210438857Y-102671428D02*
X210581714Y-102814285D01*
X210438857Y-102957142D01*
X210296000Y-102814285D01*
X210438857Y-102671428D01*
X210438857Y-102957142D01*
X213438857Y-102957142D02*
X211724571Y-102957142D01*
X212581714Y-102957142D02*
X212581714Y-99957142D01*
X212296000Y-100385714D01*
X212010285Y-100671428D01*
X211724571Y-100814285D01*
D11*
X75630952Y-92217761D02*
X75630952Y-90217761D01*
X76297619Y-91646333D01*
X76964285Y-90217761D01*
X76964285Y-92217761D01*
X78773809Y-92217761D02*
X78773809Y-91170142D01*
X78678571Y-90979666D01*
X78488095Y-90884428D01*
X78107142Y-90884428D01*
X77916666Y-90979666D01*
X78773809Y-92122523D02*
X78583333Y-92217761D01*
X78107142Y-92217761D01*
X77916666Y-92122523D01*
X77821428Y-91932047D01*
X77821428Y-91741571D01*
X77916666Y-91551095D01*
X78107142Y-91455857D01*
X78583333Y-91455857D01*
X78773809Y-91360619D01*
X79630952Y-92122523D02*
X79821428Y-92217761D01*
X80202380Y-92217761D01*
X80392857Y-92122523D01*
X80488095Y-91932047D01*
X80488095Y-91836809D01*
X80392857Y-91646333D01*
X80202380Y-91551095D01*
X79916666Y-91551095D01*
X79726190Y-91455857D01*
X79630952Y-91265380D01*
X79630952Y-91170142D01*
X79726190Y-90979666D01*
X79916666Y-90884428D01*
X80202380Y-90884428D01*
X80392857Y-90979666D01*
X81059523Y-90884428D02*
X81821428Y-90884428D01*
X81345238Y-90217761D02*
X81345238Y-91932047D01*
X81440476Y-92122523D01*
X81630952Y-92217761D01*
X81821428Y-92217761D01*
X83250000Y-92122523D02*
X83059523Y-92217761D01*
X82678571Y-92217761D01*
X82488095Y-92122523D01*
X82392857Y-91932047D01*
X82392857Y-91170142D01*
X82488095Y-90979666D01*
X82678571Y-90884428D01*
X83059523Y-90884428D01*
X83250000Y-90979666D01*
X83345238Y-91170142D01*
X83345238Y-91360619D01*
X82392857Y-91551095D01*
X84202380Y-92217761D02*
X84202380Y-90884428D01*
X84202380Y-91265380D02*
X84297619Y-91074904D01*
X84392857Y-90979666D01*
X84583333Y-90884428D01*
X84773809Y-90884428D01*
X87916666Y-92217761D02*
X86964285Y-92217761D01*
X86964285Y-90217761D01*
X89345238Y-92122523D02*
X89154761Y-92217761D01*
X88773809Y-92217761D01*
X88583333Y-92122523D01*
X88488095Y-91932047D01*
X88488095Y-91170142D01*
X88583333Y-90979666D01*
X88773809Y-90884428D01*
X89154761Y-90884428D01*
X89345238Y-90979666D01*
X89440476Y-91170142D01*
X89440476Y-91360619D01*
X88488095Y-91551095D01*
X91154761Y-92217761D02*
X91154761Y-91170142D01*
X91059523Y-90979666D01*
X90869047Y-90884428D01*
X90488095Y-90884428D01*
X90297619Y-90979666D01*
X91154761Y-92122523D02*
X90964285Y-92217761D01*
X90488095Y-92217761D01*
X90297619Y-92122523D01*
X90202380Y-91932047D01*
X90202380Y-91741571D01*
X90297619Y-91551095D01*
X90488095Y-91455857D01*
X90964285Y-91455857D01*
X91154761Y-91360619D01*
X92964285Y-92217761D02*
X92964285Y-90217761D01*
X92964285Y-92122523D02*
X92773809Y-92217761D01*
X92392857Y-92217761D01*
X92202380Y-92122523D01*
X92107142Y-92027285D01*
X92011904Y-91836809D01*
X92011904Y-91265380D01*
X92107142Y-91074904D01*
X92202380Y-90979666D01*
X92392857Y-90884428D01*
X92773809Y-90884428D01*
X92964285Y-90979666D01*
X96392857Y-90217761D02*
X95440476Y-90217761D01*
X95345238Y-91170142D01*
X95440476Y-91074904D01*
X95630952Y-90979666D01*
X96107142Y-90979666D01*
X96297619Y-91074904D01*
X96392857Y-91170142D01*
X96488095Y-91360619D01*
X96488095Y-91836809D01*
X96392857Y-92027285D01*
X96297619Y-92122523D01*
X96107142Y-92217761D01*
X95630952Y-92217761D01*
X95440476Y-92122523D01*
X95345238Y-92027285D01*
X97726190Y-90217761D02*
X97916666Y-90217761D01*
X98107142Y-90313000D01*
X98202380Y-90408238D01*
X98297619Y-90598714D01*
X98392857Y-90979666D01*
X98392857Y-91455857D01*
X98297619Y-91836809D01*
X98202380Y-92027285D01*
X98107142Y-92122523D01*
X97916666Y-92217761D01*
X97726190Y-92217761D01*
X97535714Y-92122523D01*
X97440476Y-92027285D01*
X97345238Y-91836809D01*
X97250000Y-91455857D01*
X97250000Y-90979666D01*
X97345238Y-90598714D01*
X97440476Y-90408238D01*
X97535714Y-90313000D01*
X97726190Y-90217761D01*
X100297619Y-92217761D02*
X99154761Y-92217761D01*
X99726190Y-92217761D02*
X99726190Y-90217761D01*
X99535714Y-90503476D01*
X99345238Y-90693952D01*
X99154761Y-90789190D01*
X101535714Y-90217761D02*
X101726190Y-90217761D01*
X101916666Y-90313000D01*
X102011904Y-90408238D01*
X102107142Y-90598714D01*
X102202380Y-90979666D01*
X102202380Y-91455857D01*
X102107142Y-91836809D01*
X102011904Y-92027285D01*
X101916666Y-92122523D01*
X101726190Y-92217761D01*
X101535714Y-92217761D01*
X101345238Y-92122523D01*
X101250000Y-92027285D01*
X101154761Y-91836809D01*
X101059523Y-91455857D01*
X101059523Y-90979666D01*
X101154761Y-90598714D01*
X101250000Y-90408238D01*
X101345238Y-90313000D01*
X101535714Y-90217761D01*
X104583333Y-92217761D02*
X104583333Y-90217761D01*
X105345238Y-90217761D01*
X105535714Y-90313000D01*
X105630952Y-90408238D01*
X105726190Y-90598714D01*
X105726190Y-90884428D01*
X105630952Y-91074904D01*
X105535714Y-91170142D01*
X105345238Y-91265380D01*
X104583333Y-91265380D01*
X106583333Y-92217761D02*
X106583333Y-90884428D01*
X106583333Y-91265380D02*
X106678571Y-91074904D01*
X106773809Y-90979666D01*
X106964285Y-90884428D01*
X107154761Y-90884428D01*
X108583333Y-92122523D02*
X108392857Y-92217761D01*
X108011904Y-92217761D01*
X107821428Y-92122523D01*
X107726190Y-91932047D01*
X107726190Y-91170142D01*
X107821428Y-90979666D01*
X108011904Y-90884428D01*
X108392857Y-90884428D01*
X108583333Y-90979666D01*
X108678571Y-91170142D01*
X108678571Y-91360619D01*
X107726190Y-91551095D01*
X110392857Y-92217761D02*
X110392857Y-91170142D01*
X110297619Y-90979666D01*
X110107142Y-90884428D01*
X109726190Y-90884428D01*
X109535714Y-90979666D01*
X110392857Y-92122523D02*
X110202380Y-92217761D01*
X109726190Y-92217761D01*
X109535714Y-92122523D01*
X109440476Y-91932047D01*
X109440476Y-91741571D01*
X109535714Y-91551095D01*
X109726190Y-91455857D01*
X110202380Y-91455857D01*
X110392857Y-91360619D01*
X111345238Y-92217761D02*
X111345238Y-90884428D01*
X111345238Y-91074904D02*
X111440476Y-90979666D01*
X111630952Y-90884428D01*
X111916666Y-90884428D01*
X112107142Y-90979666D01*
X112202380Y-91170142D01*
X112202380Y-92217761D01*
X112202380Y-91170142D02*
X112297619Y-90979666D01*
X112488095Y-90884428D01*
X112773809Y-90884428D01*
X112964285Y-90979666D01*
X113059523Y-91170142D01*
X113059523Y-92217761D01*
X114011904Y-90884428D02*
X114011904Y-92884428D01*
X114011904Y-90979666D02*
X114202380Y-90884428D01*
X114583333Y-90884428D01*
X114773809Y-90979666D01*
X114869047Y-91074904D01*
X114964285Y-91265380D01*
X114964285Y-91836809D01*
X114869047Y-92027285D01*
X114773809Y-92122523D01*
X114583333Y-92217761D01*
X114202380Y-92217761D01*
X114011904Y-92122523D01*
X216547000Y-94106857D02*
X216475571Y-94249714D01*
X216475571Y-94464000D01*
X216547000Y-94678285D01*
X216689857Y-94821142D01*
X216832714Y-94892571D01*
X217118428Y-94964000D01*
X217332714Y-94964000D01*
X217618428Y-94892571D01*
X217761285Y-94821142D01*
X217904142Y-94678285D01*
X217975571Y-94464000D01*
X217975571Y-94321142D01*
X217904142Y-94106857D01*
X217832714Y-94035428D01*
X217332714Y-94035428D01*
X217332714Y-94321142D01*
X217975571Y-93392571D02*
X216475571Y-93392571D01*
X217975571Y-92535428D01*
X216475571Y-92535428D01*
X217975571Y-91821142D02*
X216475571Y-91821142D01*
X216475571Y-91464000D01*
X216547000Y-91249714D01*
X216689857Y-91106857D01*
X216832714Y-91035428D01*
X217118428Y-90964000D01*
X217332714Y-90964000D01*
X217618428Y-91035428D01*
X217761285Y-91106857D01*
X217904142Y-91249714D01*
X217975571Y-91464000D01*
X217975571Y-91821142D01*
X197312428Y-121554761D02*
X197312428Y-119554761D01*
X197312428Y-121459523D02*
X197121952Y-121554761D01*
X196741000Y-121554761D01*
X196550523Y-121459523D01*
X196455285Y-121364285D01*
X196360047Y-121173809D01*
X196360047Y-120602380D01*
X196455285Y-120411904D01*
X196550523Y-120316666D01*
X196741000Y-120221428D01*
X197121952Y-120221428D01*
X197312428Y-120316666D01*
X199121952Y-121554761D02*
X199121952Y-120507142D01*
X199026714Y-120316666D01*
X198836238Y-120221428D01*
X198455285Y-120221428D01*
X198264809Y-120316666D01*
X199121952Y-121459523D02*
X198931476Y-121554761D01*
X198455285Y-121554761D01*
X198264809Y-121459523D01*
X198169571Y-121269047D01*
X198169571Y-121078571D01*
X198264809Y-120888095D01*
X198455285Y-120792857D01*
X198931476Y-120792857D01*
X199121952Y-120697619D01*
X199883857Y-120221428D02*
X200931476Y-120221428D01*
X199883857Y-121554761D01*
X200931476Y-121554761D01*
X201502904Y-120221428D02*
X202550523Y-120221428D01*
X201502904Y-121554761D01*
X202550523Y-121554761D01*
X203312428Y-121554761D02*
X203312428Y-120221428D01*
X203312428Y-120411904D02*
X203407666Y-120316666D01*
X203598142Y-120221428D01*
X203883857Y-120221428D01*
X204074333Y-120316666D01*
X204169571Y-120507142D01*
X204169571Y-121554761D01*
X204169571Y-120507142D02*
X204264809Y-120316666D01*
X204455285Y-120221428D01*
X204741000Y-120221428D01*
X204931476Y-120316666D01*
X205026714Y-120507142D01*
X205026714Y-121554761D01*
X206836238Y-121554761D02*
X206836238Y-120507142D01*
X206741000Y-120316666D01*
X206550523Y-120221428D01*
X206169571Y-120221428D01*
X205979095Y-120316666D01*
X206836238Y-121459523D02*
X206645761Y-121554761D01*
X206169571Y-121554761D01*
X205979095Y-121459523D01*
X205883857Y-121269047D01*
X205883857Y-121078571D01*
X205979095Y-120888095D01*
X206169571Y-120792857D01*
X206645761Y-120792857D01*
X206836238Y-120697619D01*
X207502904Y-120221428D02*
X208264809Y-120221428D01*
X207788619Y-119554761D02*
X207788619Y-121269047D01*
X207883857Y-121459523D01*
X208074333Y-121554761D01*
X208264809Y-121554761D01*
X209788619Y-121554761D02*
X209788619Y-120507142D01*
X209693380Y-120316666D01*
X209502904Y-120221428D01*
X209121952Y-120221428D01*
X208931476Y-120316666D01*
X209788619Y-121459523D02*
X209598142Y-121554761D01*
X209121952Y-121554761D01*
X208931476Y-121459523D01*
X208836238Y-121269047D01*
X208836238Y-121078571D01*
X208931476Y-120888095D01*
X209121952Y-120792857D01*
X209598142Y-120792857D01*
X209788619Y-120697619D01*
X210550523Y-120221428D02*
X211598142Y-120221428D01*
X210550523Y-121554761D01*
X211598142Y-121554761D01*
X212169571Y-120221428D02*
X213217190Y-120221428D01*
X212169571Y-121554761D01*
X213217190Y-121554761D01*
X215217190Y-120602380D02*
X215121952Y-120507142D01*
X214931476Y-120411904D01*
X214741000Y-120411904D01*
X214550523Y-120507142D01*
X214455285Y-120602380D01*
X214360047Y-120792857D01*
X214360047Y-120983333D01*
X214455285Y-121173809D01*
X214550523Y-121269047D01*
X214741000Y-121364285D01*
X214931476Y-121364285D01*
X215121952Y-121269047D01*
X215217190Y-121173809D01*
X215217190Y-120411904D02*
X215217190Y-121173809D01*
X215312428Y-121269047D01*
X215407666Y-121269047D01*
X215598142Y-121173809D01*
X215693380Y-120983333D01*
X215693380Y-120507142D01*
X215502904Y-120221428D01*
X215217190Y-120030952D01*
X214836238Y-119935714D01*
X214455285Y-120030952D01*
X214169571Y-120221428D01*
X213979095Y-120507142D01*
X213883857Y-120888095D01*
X213979095Y-121269047D01*
X214169571Y-121554761D01*
X214455285Y-121745238D01*
X214836238Y-121840476D01*
X215217190Y-121745238D01*
X215502904Y-121554761D01*
X217407666Y-120221428D02*
X217407666Y-121840476D01*
X217312428Y-122030952D01*
X217217190Y-122126190D01*
X217026714Y-122221428D01*
X216741000Y-122221428D01*
X216550523Y-122126190D01*
X217407666Y-121459523D02*
X217217190Y-121554761D01*
X216836238Y-121554761D01*
X216645761Y-121459523D01*
X216550523Y-121364285D01*
X216455285Y-121173809D01*
X216455285Y-120602380D01*
X216550523Y-120411904D01*
X216645761Y-120316666D01*
X216836238Y-120221428D01*
X217217190Y-120221428D01*
X217407666Y-120316666D01*
X218360047Y-121554761D02*
X218360047Y-120221428D01*
X218360047Y-120411904D02*
X218455285Y-120316666D01*
X218645761Y-120221428D01*
X218931476Y-120221428D01*
X219121952Y-120316666D01*
X219217190Y-120507142D01*
X219217190Y-121554761D01*
X219217190Y-120507142D02*
X219312428Y-120316666D01*
X219502904Y-120221428D01*
X219788619Y-120221428D01*
X219979095Y-120316666D01*
X220074333Y-120507142D01*
X220074333Y-121554761D01*
X221883857Y-121554761D02*
X221883857Y-120507142D01*
X221788619Y-120316666D01*
X221598142Y-120221428D01*
X221217190Y-120221428D01*
X221026714Y-120316666D01*
X221883857Y-121459523D02*
X221693380Y-121554761D01*
X221217190Y-121554761D01*
X221026714Y-121459523D01*
X220931476Y-121269047D01*
X220931476Y-121078571D01*
X221026714Y-120888095D01*
X221217190Y-120792857D01*
X221693380Y-120792857D01*
X221883857Y-120697619D01*
X222836238Y-121554761D02*
X222836238Y-120221428D01*
X222836238Y-119554761D02*
X222741000Y-119650000D01*
X222836238Y-119745238D01*
X222931476Y-119650000D01*
X222836238Y-119554761D01*
X222836238Y-119745238D01*
X224074333Y-121554761D02*
X223883857Y-121459523D01*
X223788619Y-121269047D01*
X223788619Y-119554761D01*
X224836238Y-121364285D02*
X224931476Y-121459523D01*
X224836238Y-121554761D01*
X224741000Y-121459523D01*
X224836238Y-121364285D01*
X224836238Y-121554761D01*
X226645761Y-121459523D02*
X226455285Y-121554761D01*
X226074333Y-121554761D01*
X225883857Y-121459523D01*
X225788619Y-121364285D01*
X225693380Y-121173809D01*
X225693380Y-120602380D01*
X225788619Y-120411904D01*
X225883857Y-120316666D01*
X226074333Y-120221428D01*
X226455285Y-120221428D01*
X226645761Y-120316666D01*
X227788619Y-121554761D02*
X227598142Y-121459523D01*
X227502904Y-121364285D01*
X227407666Y-121173809D01*
X227407666Y-120602380D01*
X227502904Y-120411904D01*
X227598142Y-120316666D01*
X227788619Y-120221428D01*
X228074333Y-120221428D01*
X228264809Y-120316666D01*
X228360047Y-120411904D01*
X228455285Y-120602380D01*
X228455285Y-121173809D01*
X228360047Y-121364285D01*
X228264809Y-121459523D01*
X228074333Y-121554761D01*
X227788619Y-121554761D01*
X229312428Y-121554761D02*
X229312428Y-120221428D01*
X229312428Y-120411904D02*
X229407666Y-120316666D01*
X229598142Y-120221428D01*
X229883857Y-120221428D01*
X230074333Y-120316666D01*
X230169571Y-120507142D01*
X230169571Y-121554761D01*
X230169571Y-120507142D02*
X230264809Y-120316666D01*
X230455285Y-120221428D01*
X230741000Y-120221428D01*
X230931476Y-120316666D01*
X231026714Y-120507142D01*
X231026714Y-121554761D01*
D12*
X163207857Y-108238857D02*
X163207857Y-107038857D01*
X163207857Y-108181714D02*
X163093571Y-108238857D01*
X162865000Y-108238857D01*
X162750714Y-108181714D01*
X162693571Y-108124571D01*
X162636428Y-108010285D01*
X162636428Y-107667428D01*
X162693571Y-107553142D01*
X162750714Y-107496000D01*
X162865000Y-107438857D01*
X163093571Y-107438857D01*
X163207857Y-107496000D01*
X164293571Y-108238857D02*
X164293571Y-107610285D01*
X164236428Y-107496000D01*
X164122142Y-107438857D01*
X163893571Y-107438857D01*
X163779285Y-107496000D01*
X164293571Y-108181714D02*
X164179285Y-108238857D01*
X163893571Y-108238857D01*
X163779285Y-108181714D01*
X163722142Y-108067428D01*
X163722142Y-107953142D01*
X163779285Y-107838857D01*
X163893571Y-107781714D01*
X164179285Y-107781714D01*
X164293571Y-107724571D01*
X164750714Y-107438857D02*
X165379285Y-107438857D01*
X164750714Y-108238857D01*
X165379285Y-108238857D01*
X165722142Y-107438857D02*
X166350714Y-107438857D01*
X165722142Y-108238857D01*
X166350714Y-108238857D01*
D13*
X205226000Y-97264000D02*
X205726000Y-97264000D01*
X205226000Y-96524000D02*
X205226000Y-97264000D01*
X214026000Y-88664000D02*
X214026000Y-89664000D01*
X212026000Y-88664000D02*
X212026000Y-89664000D01*
X212026000Y-89664000D02*
X214026000Y-89664000D01*
X212026000Y-88664000D02*
X214026000Y-88664000D01*
X211799000Y-93987000D02*
X211752000Y-94033000D01*
X214096000Y-91689000D02*
X214061000Y-91725000D01*
X211992000Y-94203000D02*
X211957000Y-94238000D01*
X214301000Y-91895000D02*
X214254000Y-91941000D01*
X209026000Y-88664000D02*
X209026000Y-89664000D01*
X207026000Y-88664000D02*
X207026000Y-89664000D01*
X207026000Y-89664000D02*
X209026000Y-89664000D01*
X207026000Y-88664000D02*
X209026000Y-88664000D01*
X215586000Y-88604000D02*
X215586000Y-97024000D01*
X205466000Y-88604000D02*
X205466000Y-97024000D01*
X205466000Y-97024000D02*
X215586000Y-97024000D01*
X205466000Y-88604000D02*
X215586000Y-88604000D01*
X205466000Y-90663000D02*
X215586000Y-90663000D01*
X205466000Y-94964000D02*
X215586000Y-94964000D01*
X205466000Y-96464000D02*
X215586000Y-96464000D01*
X214706000Y-92964000D02*
G75*
G03X214706000Y-92964000I-1680000J0D01*
G01*
X208054805Y-94644253D02*
G75*
G02X207342000Y-94499000I-28805J1680253D01*
G01*
X206490574Y-93647042D02*
G75*
G02X206491000Y-92280000I1535426J683042D01*
G01*
X207342958Y-91428574D02*
G75*
G02X208710000Y-91429000I683042J-1535426D01*
G01*
X209561426Y-92280958D02*
G75*
G02X209561000Y-93648000I-1535426J-683042D01*
G01*
X208709318Y-94498756D02*
G75*
G02X208026000Y-94644000I-683318J1534756D01*
G01*
X65000000Y-102870000D02*
X64230000Y-102870000D01*
X56920000Y-102870000D02*
X57690000Y-102870000D01*
X64230000Y-101500000D02*
X57690000Y-101500000D01*
X64230000Y-104240000D02*
X64230000Y-101500000D01*
X57690000Y-104240000D02*
X64230000Y-104240000D01*
X57690000Y-101500000D02*
X57690000Y-104240000D01*
X82010000Y-96620000D02*
X82010000Y-93880000D01*
X82010000Y-93880000D02*
X75470000Y-93880000D01*
X75470000Y-93880000D02*
X75470000Y-96620000D01*
X75470000Y-96620000D02*
X82010000Y-96620000D01*
X82780000Y-95250000D02*
X82010000Y-95250000D01*
X74700000Y-95250000D02*
X75470000Y-95250000D01*
X82010000Y-104240000D02*
X82010000Y-101500000D01*
X82010000Y-101500000D02*
X75470000Y-101500000D01*
X75470000Y-101500000D02*
X75470000Y-104240000D01*
X75470000Y-104240000D02*
X82010000Y-104240000D01*
X82780000Y-102870000D02*
X82010000Y-102870000D01*
X74700000Y-102870000D02*
X75470000Y-102870000D01*
X187860000Y-101060000D02*
X190600000Y-101060000D01*
X190600000Y-101060000D02*
X190600000Y-94520000D01*
X190600000Y-94520000D02*
X187860000Y-94520000D01*
X187860000Y-94520000D02*
X187860000Y-101060000D01*
X189230000Y-101830000D02*
X189230000Y-101060000D01*
X189230000Y-93750000D02*
X189230000Y-94520000D01*
X210020000Y-122404000D02*
X210020000Y-130144000D01*
X193780000Y-122404000D02*
X193780000Y-130144000D01*
X210020000Y-122404000D02*
X193780000Y-122404000D01*
X210020000Y-130144000D02*
X193780000Y-130144000D01*
X205520000Y-130144000D02*
X205520000Y-135144000D01*
X198280000Y-130144000D02*
X198280000Y-135144000D01*
X205520000Y-130144000D02*
X198280000Y-130144000D01*
X205520000Y-135144000D02*
X198280000Y-135144000D01*
X204020000Y-135144000D02*
X204020000Y-145144000D01*
X199780000Y-135144000D02*
X199780000Y-145144000D01*
X204020000Y-135144000D02*
X199780000Y-135144000D01*
X204020000Y-145144000D02*
X199780000Y-145144000D01*
X126020000Y-122380000D02*
X126020000Y-130120000D01*
X109780000Y-122380000D02*
X109780000Y-130120000D01*
X126020000Y-122380000D02*
X109780000Y-122380000D01*
X126020000Y-130120000D02*
X109780000Y-130120000D01*
X121520000Y-130120000D02*
X121520000Y-135120000D01*
X114280000Y-130120000D02*
X114280000Y-135120000D01*
X121520000Y-130120000D02*
X114280000Y-130120000D01*
X121520000Y-135120000D02*
X114280000Y-135120000D01*
X120020000Y-135120000D02*
X120020000Y-145120000D01*
X115780000Y-135120000D02*
X115780000Y-145120000D01*
X120020000Y-135120000D02*
X115780000Y-135120000D01*
X120020000Y-145120000D02*
X115780000Y-145120000D01*
X260020000Y-145144000D02*
X255780000Y-145144000D01*
X260020000Y-135144000D02*
X255780000Y-135144000D01*
X255780000Y-135144000D02*
X255780000Y-145144000D01*
X260020000Y-135144000D02*
X260020000Y-145144000D01*
X261520000Y-135144000D02*
X254280000Y-135144000D01*
X261520000Y-130144000D02*
X254280000Y-130144000D01*
X254280000Y-130144000D02*
X254280000Y-135144000D01*
X261520000Y-130144000D02*
X261520000Y-135144000D01*
X266020000Y-130144000D02*
X249780000Y-130144000D01*
X266020000Y-122404000D02*
X249780000Y-122404000D01*
X249780000Y-122404000D02*
X249780000Y-130144000D01*
X266020000Y-122404000D02*
X266020000Y-130144000D01*
X182030000Y-122380000D02*
X182030000Y-130120000D01*
X165790000Y-122380000D02*
X165790000Y-130120000D01*
X182030000Y-122380000D02*
X165790000Y-122380000D01*
X182030000Y-130120000D02*
X165790000Y-130120000D01*
X177530000Y-130120000D02*
X177530000Y-135120000D01*
X170290000Y-130120000D02*
X170290000Y-135120000D01*
X177530000Y-130120000D02*
X170290000Y-130120000D01*
X177530000Y-135120000D02*
X170290000Y-135120000D01*
X176030000Y-135120000D02*
X176030000Y-145120000D01*
X171790000Y-135120000D02*
X171790000Y-145120000D01*
X176030000Y-135120000D02*
X171790000Y-135120000D01*
X176030000Y-145120000D02*
X171790000Y-145120000D01*
X148020000Y-145120000D02*
X143780000Y-145120000D01*
X148020000Y-135120000D02*
X143780000Y-135120000D01*
X143780000Y-135120000D02*
X143780000Y-145120000D01*
X148020000Y-135120000D02*
X148020000Y-145120000D01*
X149520000Y-135120000D02*
X142280000Y-135120000D01*
X149520000Y-130120000D02*
X142280000Y-130120000D01*
X142280000Y-130120000D02*
X142280000Y-135120000D01*
X149520000Y-130120000D02*
X149520000Y-135120000D01*
X154020000Y-130120000D02*
X137780000Y-130120000D01*
X154020000Y-122380000D02*
X137780000Y-122380000D01*
X137780000Y-122380000D02*
X137780000Y-130120000D01*
X154020000Y-122380000D02*
X154020000Y-130120000D01*
X47900000Y-110500000D02*
X67900000Y-110500000D01*
X67900000Y-110500000D02*
X67900000Y-131500000D01*
X67900000Y-131500000D02*
X47900000Y-131500000D01*
X47900000Y-131500000D02*
X47900000Y-110500000D01*
X47900000Y-131500000D02*
X47900000Y-132800000D01*
X47900000Y-132800000D02*
X67900000Y-132800000D01*
X67900000Y-132800000D02*
X67900000Y-131500000D01*
X52900000Y-131500000D02*
X52900000Y-132800000D01*
X62900000Y-132800000D02*
X62900000Y-131500000D01*
X57900000Y-130400000D02*
X57900000Y-132800000D01*
X57900000Y-130400000D02*
X57900000Y-106800000D01*
X62400000Y-110500000D02*
X62400000Y-107500000D01*
X53400000Y-110500000D02*
X53400000Y-107500000D01*
X53400000Y-107500002D02*
G75*
G02X62399999Y-107500001I4500000J-13399998D01*
G01*
X200740000Y-103000000D02*
X195500000Y-103000000D01*
X200740000Y-92460000D02*
X195500000Y-92460000D01*
X195500000Y-92460000D02*
X195500000Y-103000000D01*
X200740000Y-92460000D02*
X200740000Y-103000000D01*
X176610000Y-118240000D02*
X171370000Y-118240000D01*
X176610000Y-107700000D02*
X171370000Y-107700000D01*
X171370000Y-107700000D02*
X171370000Y-118240000D01*
X176610000Y-107700000D02*
X176610000Y-118240000D01*
X57020000Y-97870000D02*
X57020000Y-92630000D01*
X67560000Y-97870000D02*
X67560000Y-92630000D01*
X67560000Y-92630000D02*
X57020000Y-92630000D01*
X67560000Y-97870000D02*
X57020000Y-97870000D01*
X130890000Y-93730000D02*
X130890000Y-104270000D01*
X125650000Y-93730000D02*
X125650000Y-104270000D01*
X130890000Y-93730000D02*
X125650000Y-93730000D01*
X130890000Y-104270000D02*
X125650000Y-104270000D01*
X175570000Y-100429000D02*
G75*
G03X175570000Y-100429000I-4120000J0D01*
G01*
X175530000Y-100429000D02*
X167370000Y-100429000D01*
X175530000Y-100469000D02*
X167370000Y-100469000D01*
X175530000Y-100509000D02*
X167370000Y-100509000D01*
X175529000Y-100549000D02*
X167371000Y-100549000D01*
X175527000Y-100589000D02*
X167373000Y-100589000D01*
X175526000Y-100629000D02*
X167374000Y-100629000D01*
X175524000Y-100669000D02*
X167376000Y-100669000D01*
X175521000Y-100709000D02*
X167379000Y-100709000D01*
X175518000Y-100749000D02*
X167382000Y-100749000D01*
X175515000Y-100789000D02*
X167385000Y-100789000D01*
X175511000Y-100829000D02*
X167389000Y-100829000D01*
X175507000Y-100869000D02*
X167393000Y-100869000D01*
X175502000Y-100909000D02*
X167398000Y-100909000D01*
X175498000Y-100949000D02*
X167402000Y-100949000D01*
X175492000Y-100989000D02*
X167408000Y-100989000D01*
X175487000Y-101029000D02*
X167413000Y-101029000D01*
X175480000Y-101069000D02*
X167420000Y-101069000D01*
X175474000Y-101109000D02*
X167426000Y-101109000D01*
X175467000Y-101150000D02*
X172490000Y-101150000D01*
X170410000Y-101150000D02*
X167433000Y-101150000D01*
X175460000Y-101190000D02*
X172490000Y-101190000D01*
X170410000Y-101190000D02*
X167440000Y-101190000D01*
X175452000Y-101230000D02*
X172490000Y-101230000D01*
X170410000Y-101230000D02*
X167448000Y-101230000D01*
X175444000Y-101270000D02*
X172490000Y-101270000D01*
X170410000Y-101270000D02*
X167456000Y-101270000D01*
X175435000Y-101310000D02*
X172490000Y-101310000D01*
X170410000Y-101310000D02*
X167465000Y-101310000D01*
X175426000Y-101350000D02*
X172490000Y-101350000D01*
X170410000Y-101350000D02*
X167474000Y-101350000D01*
X175417000Y-101390000D02*
X172490000Y-101390000D01*
X170410000Y-101390000D02*
X167483000Y-101390000D01*
X175407000Y-101430000D02*
X172490000Y-101430000D01*
X170410000Y-101430000D02*
X167493000Y-101430000D01*
X175397000Y-101470000D02*
X172490000Y-101470000D01*
X170410000Y-101470000D02*
X167503000Y-101470000D01*
X175386000Y-101510000D02*
X172490000Y-101510000D01*
X170410000Y-101510000D02*
X167514000Y-101510000D01*
X175375000Y-101550000D02*
X172490000Y-101550000D01*
X170410000Y-101550000D02*
X167525000Y-101550000D01*
X175364000Y-101590000D02*
X172490000Y-101590000D01*
X170410000Y-101590000D02*
X167536000Y-101590000D01*
X175352000Y-101630000D02*
X172490000Y-101630000D01*
X170410000Y-101630000D02*
X167548000Y-101630000D01*
X175339000Y-101670000D02*
X172490000Y-101670000D01*
X170410000Y-101670000D02*
X167561000Y-101670000D01*
X175327000Y-101710000D02*
X172490000Y-101710000D01*
X170410000Y-101710000D02*
X167573000Y-101710000D01*
X175313000Y-101750000D02*
X172490000Y-101750000D01*
X170410000Y-101750000D02*
X167587000Y-101750000D01*
X175300000Y-101790000D02*
X172490000Y-101790000D01*
X170410000Y-101790000D02*
X167600000Y-101790000D01*
X175285000Y-101830000D02*
X172490000Y-101830000D01*
X170410000Y-101830000D02*
X167615000Y-101830000D01*
X175271000Y-101870000D02*
X172490000Y-101870000D01*
X170410000Y-101870000D02*
X167629000Y-101870000D01*
X175255000Y-101910000D02*
X172490000Y-101910000D01*
X170410000Y-101910000D02*
X167645000Y-101910000D01*
X175240000Y-101950000D02*
X172490000Y-101950000D01*
X170410000Y-101950000D02*
X167660000Y-101950000D01*
X175224000Y-101990000D02*
X172490000Y-101990000D01*
X170410000Y-101990000D02*
X167676000Y-101990000D01*
X175207000Y-102030000D02*
X172490000Y-102030000D01*
X170410000Y-102030000D02*
X167693000Y-102030000D01*
X175190000Y-102070000D02*
X172490000Y-102070000D01*
X170410000Y-102070000D02*
X167710000Y-102070000D01*
X175172000Y-102110000D02*
X172490000Y-102110000D01*
X170410000Y-102110000D02*
X167728000Y-102110000D01*
X175154000Y-102150000D02*
X172490000Y-102150000D01*
X170410000Y-102150000D02*
X167746000Y-102150000D01*
X175136000Y-102190000D02*
X172490000Y-102190000D01*
X170410000Y-102190000D02*
X167764000Y-102190000D01*
X175116000Y-102230000D02*
X172490000Y-102230000D01*
X170410000Y-102230000D02*
X167784000Y-102230000D01*
X175097000Y-102270000D02*
X172490000Y-102270000D01*
X170410000Y-102270000D02*
X167803000Y-102270000D01*
X175077000Y-102310000D02*
X172490000Y-102310000D01*
X170410000Y-102310000D02*
X167823000Y-102310000D01*
X175056000Y-102350000D02*
X172490000Y-102350000D01*
X170410000Y-102350000D02*
X167844000Y-102350000D01*
X175034000Y-102390000D02*
X172490000Y-102390000D01*
X170410000Y-102390000D02*
X167866000Y-102390000D01*
X175012000Y-102430000D02*
X172490000Y-102430000D01*
X170410000Y-102430000D02*
X167888000Y-102430000D01*
X174990000Y-102470000D02*
X172490000Y-102470000D01*
X170410000Y-102470000D02*
X167910000Y-102470000D01*
X174967000Y-102510000D02*
X172490000Y-102510000D01*
X170410000Y-102510000D02*
X167933000Y-102510000D01*
X174943000Y-102550000D02*
X172490000Y-102550000D01*
X170410000Y-102550000D02*
X167957000Y-102550000D01*
X174919000Y-102590000D02*
X172490000Y-102590000D01*
X170410000Y-102590000D02*
X167981000Y-102590000D01*
X174894000Y-102630000D02*
X172490000Y-102630000D01*
X170410000Y-102630000D02*
X168006000Y-102630000D01*
X174868000Y-102670000D02*
X172490000Y-102670000D01*
X170410000Y-102670000D02*
X168032000Y-102670000D01*
X174842000Y-102710000D02*
X172490000Y-102710000D01*
X170410000Y-102710000D02*
X168058000Y-102710000D01*
X174815000Y-102750000D02*
X172490000Y-102750000D01*
X170410000Y-102750000D02*
X168085000Y-102750000D01*
X174788000Y-102790000D02*
X172490000Y-102790000D01*
X170410000Y-102790000D02*
X168112000Y-102790000D01*
X174759000Y-102830000D02*
X172490000Y-102830000D01*
X170410000Y-102830000D02*
X168141000Y-102830000D01*
X174730000Y-102870000D02*
X172490000Y-102870000D01*
X170410000Y-102870000D02*
X168170000Y-102870000D01*
X174700000Y-102910000D02*
X172490000Y-102910000D01*
X170410000Y-102910000D02*
X168200000Y-102910000D01*
X174670000Y-102950000D02*
X172490000Y-102950000D01*
X170410000Y-102950000D02*
X168230000Y-102950000D01*
X174639000Y-102990000D02*
X172490000Y-102990000D01*
X170410000Y-102990000D02*
X168261000Y-102990000D01*
X174606000Y-103030000D02*
X172490000Y-103030000D01*
X170410000Y-103030000D02*
X168294000Y-103030000D01*
X174574000Y-103070000D02*
X172490000Y-103070000D01*
X170410000Y-103070000D02*
X168326000Y-103070000D01*
X174540000Y-103110000D02*
X172490000Y-103110000D01*
X170410000Y-103110000D02*
X168360000Y-103110000D01*
X174505000Y-103150000D02*
X172490000Y-103150000D01*
X170410000Y-103150000D02*
X168395000Y-103150000D01*
X174469000Y-103190000D02*
X172490000Y-103190000D01*
X170410000Y-103190000D02*
X168431000Y-103190000D01*
X174433000Y-103230000D02*
X168467000Y-103230000D01*
X174395000Y-103270000D02*
X168505000Y-103270000D01*
X174357000Y-103310000D02*
X168543000Y-103310000D01*
X174317000Y-103350000D02*
X168583000Y-103350000D01*
X174276000Y-103390000D02*
X168624000Y-103390000D01*
X174234000Y-103430000D02*
X168666000Y-103430000D01*
X174191000Y-103470000D02*
X168709000Y-103470000D01*
X174147000Y-103510000D02*
X168753000Y-103510000D01*
X174101000Y-103550000D02*
X168799000Y-103550000D01*
X174054000Y-103590000D02*
X168846000Y-103590000D01*
X174006000Y-103630000D02*
X168894000Y-103630000D01*
X173955000Y-103670000D02*
X168945000Y-103670000D01*
X173904000Y-103710000D02*
X168996000Y-103710000D01*
X173850000Y-103750000D02*
X169050000Y-103750000D01*
X173795000Y-103790000D02*
X169105000Y-103790000D01*
X173737000Y-103830000D02*
X169163000Y-103830000D01*
X173678000Y-103870000D02*
X169222000Y-103870000D01*
X173616000Y-103910000D02*
X169284000Y-103910000D01*
X173552000Y-103950000D02*
X169348000Y-103950000D01*
X173484000Y-103990000D02*
X169416000Y-103990000D01*
X173414000Y-104030000D02*
X169486000Y-104030000D01*
X173340000Y-104070000D02*
X169560000Y-104070000D01*
X173263000Y-104110000D02*
X169637000Y-104110000D01*
X173181000Y-104150000D02*
X169719000Y-104150000D01*
X173095000Y-104190000D02*
X169805000Y-104190000D01*
X173002000Y-104230000D02*
X169898000Y-104230000D01*
X172903000Y-104270000D02*
X169997000Y-104270000D01*
X172796000Y-104310000D02*
X170104000Y-104310000D01*
X172679000Y-104350000D02*
X170221000Y-104350000D01*
X172548000Y-104390000D02*
X170352000Y-104390000D01*
X172398000Y-104430000D02*
X170502000Y-104430000D01*
X172218000Y-104470000D02*
X170682000Y-104470000D01*
X171983000Y-104510000D02*
X170917000Y-104510000D01*
X173765000Y-96019302D02*
X173765000Y-96819302D01*
X174165000Y-96419302D02*
X173365000Y-96419302D01*
X106430000Y-114220000D02*
X116970000Y-114220000D01*
X106430000Y-119460000D02*
X116970000Y-119460000D01*
X106430000Y-114220000D02*
X106430000Y-119460000D01*
X116970000Y-114220000D02*
X116970000Y-119460000D01*
X150170000Y-113510000D02*
G75*
G03X150170000Y-113510000I-4120000J0D01*
G01*
X150130000Y-113510000D02*
X141970000Y-113510000D01*
X150130000Y-113550000D02*
X141970000Y-113550000D01*
X150130000Y-113590000D02*
X141970000Y-113590000D01*
X150129000Y-113630000D02*
X141971000Y-113630000D01*
X150127000Y-113670000D02*
X141973000Y-113670000D01*
X150126000Y-113710000D02*
X141974000Y-113710000D01*
X150124000Y-113750000D02*
X141976000Y-113750000D01*
X150121000Y-113790000D02*
X141979000Y-113790000D01*
X150118000Y-113830000D02*
X141982000Y-113830000D01*
X150115000Y-113870000D02*
X141985000Y-113870000D01*
X150111000Y-113910000D02*
X141989000Y-113910000D01*
X150107000Y-113950000D02*
X141993000Y-113950000D01*
X150102000Y-113990000D02*
X141998000Y-113990000D01*
X150098000Y-114030000D02*
X142002000Y-114030000D01*
X150092000Y-114070000D02*
X142008000Y-114070000D01*
X150087000Y-114110000D02*
X142013000Y-114110000D01*
X150080000Y-114150000D02*
X142020000Y-114150000D01*
X150074000Y-114190000D02*
X142026000Y-114190000D01*
X150067000Y-114231000D02*
X147090000Y-114231000D01*
X145010000Y-114231000D02*
X142033000Y-114231000D01*
X150060000Y-114271000D02*
X147090000Y-114271000D01*
X145010000Y-114271000D02*
X142040000Y-114271000D01*
X150052000Y-114311000D02*
X147090000Y-114311000D01*
X145010000Y-114311000D02*
X142048000Y-114311000D01*
X150044000Y-114351000D02*
X147090000Y-114351000D01*
X145010000Y-114351000D02*
X142056000Y-114351000D01*
X150035000Y-114391000D02*
X147090000Y-114391000D01*
X145010000Y-114391000D02*
X142065000Y-114391000D01*
X150026000Y-114431000D02*
X147090000Y-114431000D01*
X145010000Y-114431000D02*
X142074000Y-114431000D01*
X150017000Y-114471000D02*
X147090000Y-114471000D01*
X145010000Y-114471000D02*
X142083000Y-114471000D01*
X150007000Y-114511000D02*
X147090000Y-114511000D01*
X145010000Y-114511000D02*
X142093000Y-114511000D01*
X149997000Y-114551000D02*
X147090000Y-114551000D01*
X145010000Y-114551000D02*
X142103000Y-114551000D01*
X149986000Y-114591000D02*
X147090000Y-114591000D01*
X145010000Y-114591000D02*
X142114000Y-114591000D01*
X149975000Y-114631000D02*
X147090000Y-114631000D01*
X145010000Y-114631000D02*
X142125000Y-114631000D01*
X149964000Y-114671000D02*
X147090000Y-114671000D01*
X145010000Y-114671000D02*
X142136000Y-114671000D01*
X149952000Y-114711000D02*
X147090000Y-114711000D01*
X145010000Y-114711000D02*
X142148000Y-114711000D01*
X149939000Y-114751000D02*
X147090000Y-114751000D01*
X145010000Y-114751000D02*
X142161000Y-114751000D01*
X149927000Y-114791000D02*
X147090000Y-114791000D01*
X145010000Y-114791000D02*
X142173000Y-114791000D01*
X149913000Y-114831000D02*
X147090000Y-114831000D01*
X145010000Y-114831000D02*
X142187000Y-114831000D01*
X149900000Y-114871000D02*
X147090000Y-114871000D01*
X145010000Y-114871000D02*
X142200000Y-114871000D01*
X149885000Y-114911000D02*
X147090000Y-114911000D01*
X145010000Y-114911000D02*
X142215000Y-114911000D01*
X149871000Y-114951000D02*
X147090000Y-114951000D01*
X145010000Y-114951000D02*
X142229000Y-114951000D01*
X149855000Y-114991000D02*
X147090000Y-114991000D01*
X145010000Y-114991000D02*
X142245000Y-114991000D01*
X149840000Y-115031000D02*
X147090000Y-115031000D01*
X145010000Y-115031000D02*
X142260000Y-115031000D01*
X149824000Y-115071000D02*
X147090000Y-115071000D01*
X145010000Y-115071000D02*
X142276000Y-115071000D01*
X149807000Y-115111000D02*
X147090000Y-115111000D01*
X145010000Y-115111000D02*
X142293000Y-115111000D01*
X149790000Y-115151000D02*
X147090000Y-115151000D01*
X145010000Y-115151000D02*
X142310000Y-115151000D01*
X149772000Y-115191000D02*
X147090000Y-115191000D01*
X145010000Y-115191000D02*
X142328000Y-115191000D01*
X149754000Y-115231000D02*
X147090000Y-115231000D01*
X145010000Y-115231000D02*
X142346000Y-115231000D01*
X149736000Y-115271000D02*
X147090000Y-115271000D01*
X145010000Y-115271000D02*
X142364000Y-115271000D01*
X149716000Y-115311000D02*
X147090000Y-115311000D01*
X145010000Y-115311000D02*
X142384000Y-115311000D01*
X149697000Y-115351000D02*
X147090000Y-115351000D01*
X145010000Y-115351000D02*
X142403000Y-115351000D01*
X149677000Y-115391000D02*
X147090000Y-115391000D01*
X145010000Y-115391000D02*
X142423000Y-115391000D01*
X149656000Y-115431000D02*
X147090000Y-115431000D01*
X145010000Y-115431000D02*
X142444000Y-115431000D01*
X149634000Y-115471000D02*
X147090000Y-115471000D01*
X145010000Y-115471000D02*
X142466000Y-115471000D01*
X149612000Y-115511000D02*
X147090000Y-115511000D01*
X145010000Y-115511000D02*
X142488000Y-115511000D01*
X149590000Y-115551000D02*
X147090000Y-115551000D01*
X145010000Y-115551000D02*
X142510000Y-115551000D01*
X149567000Y-115591000D02*
X147090000Y-115591000D01*
X145010000Y-115591000D02*
X142533000Y-115591000D01*
X149543000Y-115631000D02*
X147090000Y-115631000D01*
X145010000Y-115631000D02*
X142557000Y-115631000D01*
X149519000Y-115671000D02*
X147090000Y-115671000D01*
X145010000Y-115671000D02*
X142581000Y-115671000D01*
X149494000Y-115711000D02*
X147090000Y-115711000D01*
X145010000Y-115711000D02*
X142606000Y-115711000D01*
X149468000Y-115751000D02*
X147090000Y-115751000D01*
X145010000Y-115751000D02*
X142632000Y-115751000D01*
X149442000Y-115791000D02*
X147090000Y-115791000D01*
X145010000Y-115791000D02*
X142658000Y-115791000D01*
X149415000Y-115831000D02*
X147090000Y-115831000D01*
X145010000Y-115831000D02*
X142685000Y-115831000D01*
X149388000Y-115871000D02*
X147090000Y-115871000D01*
X145010000Y-115871000D02*
X142712000Y-115871000D01*
X149359000Y-115911000D02*
X147090000Y-115911000D01*
X145010000Y-115911000D02*
X142741000Y-115911000D01*
X149330000Y-115951000D02*
X147090000Y-115951000D01*
X145010000Y-115951000D02*
X142770000Y-115951000D01*
X149300000Y-115991000D02*
X147090000Y-115991000D01*
X145010000Y-115991000D02*
X142800000Y-115991000D01*
X149270000Y-116031000D02*
X147090000Y-116031000D01*
X145010000Y-116031000D02*
X142830000Y-116031000D01*
X149239000Y-116071000D02*
X147090000Y-116071000D01*
X145010000Y-116071000D02*
X142861000Y-116071000D01*
X149206000Y-116111000D02*
X147090000Y-116111000D01*
X145010000Y-116111000D02*
X142894000Y-116111000D01*
X149174000Y-116151000D02*
X147090000Y-116151000D01*
X145010000Y-116151000D02*
X142926000Y-116151000D01*
X149140000Y-116191000D02*
X147090000Y-116191000D01*
X145010000Y-116191000D02*
X142960000Y-116191000D01*
X149105000Y-116231000D02*
X147090000Y-116231000D01*
X145010000Y-116231000D02*
X142995000Y-116231000D01*
X149069000Y-116271000D02*
X147090000Y-116271000D01*
X145010000Y-116271000D02*
X143031000Y-116271000D01*
X149033000Y-116311000D02*
X143067000Y-116311000D01*
X148995000Y-116351000D02*
X143105000Y-116351000D01*
X148957000Y-116391000D02*
X143143000Y-116391000D01*
X148917000Y-116431000D02*
X143183000Y-116431000D01*
X148876000Y-116471000D02*
X143224000Y-116471000D01*
X148834000Y-116511000D02*
X143266000Y-116511000D01*
X148791000Y-116551000D02*
X143309000Y-116551000D01*
X148747000Y-116591000D02*
X143353000Y-116591000D01*
X148701000Y-116631000D02*
X143399000Y-116631000D01*
X148654000Y-116671000D02*
X143446000Y-116671000D01*
X148606000Y-116711000D02*
X143494000Y-116711000D01*
X148555000Y-116751000D02*
X143545000Y-116751000D01*
X148504000Y-116791000D02*
X143596000Y-116791000D01*
X148450000Y-116831000D02*
X143650000Y-116831000D01*
X148395000Y-116871000D02*
X143705000Y-116871000D01*
X148337000Y-116911000D02*
X143763000Y-116911000D01*
X148278000Y-116951000D02*
X143822000Y-116951000D01*
X148216000Y-116991000D02*
X143884000Y-116991000D01*
X148152000Y-117031000D02*
X143948000Y-117031000D01*
X148084000Y-117071000D02*
X144016000Y-117071000D01*
X148014000Y-117111000D02*
X144086000Y-117111000D01*
X147940000Y-117151000D02*
X144160000Y-117151000D01*
X147863000Y-117191000D02*
X144237000Y-117191000D01*
X147781000Y-117231000D02*
X144319000Y-117231000D01*
X147695000Y-117271000D02*
X144405000Y-117271000D01*
X147602000Y-117311000D02*
X144498000Y-117311000D01*
X147503000Y-117351000D02*
X144597000Y-117351000D01*
X147396000Y-117391000D02*
X144704000Y-117391000D01*
X147279000Y-117431000D02*
X144821000Y-117431000D01*
X147148000Y-117471000D02*
X144952000Y-117471000D01*
X146998000Y-117511000D02*
X145102000Y-117511000D01*
X146818000Y-117551000D02*
X145282000Y-117551000D01*
X146583000Y-117591000D02*
X145517000Y-117591000D01*
X148365000Y-109100302D02*
X148365000Y-109900302D01*
X148765000Y-109500302D02*
X147965000Y-109500302D01*
X153455000Y-96480000D02*
X153770000Y-96480000D01*
X151030000Y-96480000D02*
X151345000Y-96480000D01*
X153455000Y-101720000D02*
X153770000Y-101720000D01*
X151030000Y-101720000D02*
X151345000Y-101720000D01*
X153770000Y-101720000D02*
X153770000Y-96480000D01*
X151030000Y-101720000D02*
X151030000Y-96480000D01*
X182630000Y-106600000D02*
X193170000Y-106600000D01*
X182630000Y-111840000D02*
X193170000Y-111840000D01*
X182630000Y-106600000D02*
X182630000Y-111840000D01*
X193170000Y-106600000D02*
X193170000Y-111840000D01*
X163730000Y-115690000D02*
X163730000Y-110450000D01*
X166470000Y-115690000D02*
X166470000Y-110450000D01*
X163730000Y-115690000D02*
X164045000Y-115690000D01*
X166155000Y-115690000D02*
X166470000Y-115690000D01*
X163730000Y-110450000D02*
X164045000Y-110450000D01*
X166155000Y-110450000D02*
X166470000Y-110450000D01*
X103020000Y-100580000D02*
X105260000Y-100580000D01*
X103020000Y-100340000D02*
X105260000Y-100340000D01*
X103020000Y-100460000D02*
X105260000Y-100460000D01*
X104140000Y-96290000D02*
X104140000Y-96940000D01*
X104140000Y-101830000D02*
X104140000Y-101180000D01*
X103020000Y-96940000D02*
X103020000Y-101180000D01*
X105260000Y-96940000D02*
X103020000Y-96940000D01*
X105260000Y-101180000D02*
X105260000Y-96940000D01*
X103020000Y-101180000D02*
X105260000Y-101180000D01*
X110640000Y-101180000D02*
X112880000Y-101180000D01*
X112880000Y-101180000D02*
X112880000Y-96940000D01*
X112880000Y-96940000D02*
X110640000Y-96940000D01*
X110640000Y-96940000D02*
X110640000Y-101180000D01*
X111760000Y-101830000D02*
X111760000Y-101180000D01*
X111760000Y-96290000D02*
X111760000Y-96940000D01*
X110640000Y-100460000D02*
X112880000Y-100460000D01*
X110640000Y-100340000D02*
X112880000Y-100340000D01*
X110640000Y-100580000D02*
X112880000Y-100580000D01*
X77900000Y-110500000D02*
X97900000Y-110500000D01*
X97900000Y-110500000D02*
X97900000Y-131500000D01*
X97900000Y-131500000D02*
X77900000Y-131500000D01*
X77900000Y-131500000D02*
X77900000Y-110500000D01*
X77900000Y-131500000D02*
X77900000Y-132800000D01*
X77900000Y-132800000D02*
X97900000Y-132800000D01*
X97900000Y-132800000D02*
X97900000Y-131500000D01*
X82900000Y-131500000D02*
X82900000Y-142800000D01*
X82900000Y-142800000D02*
X92900000Y-142800000D01*
X92900000Y-142800000D02*
X92900000Y-131500000D01*
X87900000Y-130400000D02*
X87900000Y-142800000D01*
X87900000Y-130400000D02*
X87900000Y-106800000D01*
X92400000Y-110500000D02*
X92400000Y-107500000D01*
X83400000Y-110500000D02*
X83400000Y-107500000D01*
X83400000Y-107500002D02*
G75*
G02X92399999Y-107500001I4500000J-13399998D01*
G01*
X265751000Y-116900000D02*
X268411000Y-116900000D01*
X265751000Y-116840000D02*
X265751000Y-116900000D01*
X268411000Y-116840000D02*
X268411000Y-116900000D01*
X265751000Y-116840000D02*
X268411000Y-116840000D01*
X265751000Y-115570000D02*
X265751000Y-114240000D01*
X265751000Y-114240000D02*
X267081000Y-114240000D01*
X238020000Y-122404000D02*
X238020000Y-130144000D01*
X221780000Y-122404000D02*
X221780000Y-130144000D01*
X238020000Y-122404000D02*
X221780000Y-122404000D01*
X238020000Y-130144000D02*
X221780000Y-130144000D01*
X233520000Y-130144000D02*
X233520000Y-135144000D01*
X226280000Y-130144000D02*
X226280000Y-135144000D01*
X233520000Y-130144000D02*
X226280000Y-130144000D01*
X233520000Y-135144000D02*
X226280000Y-135144000D01*
X232020000Y-135144000D02*
X232020000Y-145144000D01*
X227780000Y-135144000D02*
X227780000Y-145144000D01*
X232020000Y-135144000D02*
X227780000Y-135144000D01*
X232020000Y-145144000D02*
X227780000Y-145144000D01*
X120750000Y-95790000D02*
X118010000Y-95790000D01*
X118010000Y-95790000D02*
X118010000Y-102330000D01*
X118010000Y-102330000D02*
X120750000Y-102330000D01*
X120750000Y-102330000D02*
X120750000Y-95790000D01*
X119380000Y-95020000D02*
X119380000Y-95790000D01*
X119380000Y-103100000D02*
X119380000Y-102330000D01*
X107720000Y-109220000D02*
X108490000Y-109220000D01*
X115800000Y-109220000D02*
X115030000Y-109220000D01*
X108490000Y-110590000D02*
X115030000Y-110590000D01*
X108490000Y-107850000D02*
X108490000Y-110590000D01*
X115030000Y-107850000D02*
X108490000Y-107850000D01*
X115030000Y-110590000D02*
X115030000Y-107850000D01*
X137260000Y-111030000D02*
X134520000Y-111030000D01*
X134520000Y-111030000D02*
X134520000Y-117570000D01*
X134520000Y-117570000D02*
X137260000Y-117570000D01*
X137260000Y-117570000D02*
X137260000Y-111030000D01*
X135890000Y-110260000D02*
X135890000Y-111030000D01*
X135890000Y-118340000D02*
X135890000Y-117570000D01*
X125630000Y-117570000D02*
X128370000Y-117570000D01*
X128370000Y-117570000D02*
X128370000Y-111030000D01*
X128370000Y-111030000D02*
X125630000Y-111030000D01*
X125630000Y-111030000D02*
X125630000Y-117570000D01*
X127000000Y-118340000D02*
X127000000Y-117570000D01*
X127000000Y-110260000D02*
X127000000Y-111030000D01*
X156210000Y-117070000D02*
X156210000Y-116300000D01*
X156210000Y-108990000D02*
X156210000Y-109760000D01*
X157580000Y-116300000D02*
X157580000Y-109760000D01*
X154840000Y-116300000D02*
X157580000Y-116300000D01*
X154840000Y-109760000D02*
X154840000Y-116300000D01*
X157580000Y-109760000D02*
X154840000Y-109760000D01*
X181610000Y-93750000D02*
X181610000Y-94520000D01*
X181610000Y-101830000D02*
X181610000Y-101060000D01*
X180240000Y-94520000D02*
X180240000Y-101060000D01*
X182980000Y-94520000D02*
X180240000Y-94520000D01*
X182980000Y-101060000D02*
X182980000Y-94520000D01*
X180240000Y-101060000D02*
X182980000Y-101060000D01*
X183920000Y-116840000D02*
X184690000Y-116840000D01*
X192000000Y-116840000D02*
X191230000Y-116840000D01*
X184690000Y-118210000D02*
X191230000Y-118210000D01*
X184690000Y-115470000D02*
X184690000Y-118210000D01*
X191230000Y-115470000D02*
X184690000Y-115470000D01*
X191230000Y-118210000D02*
X191230000Y-115470000D01*
X236220000Y-117070000D02*
X236220000Y-116300000D01*
X236220000Y-108990000D02*
X236220000Y-109760000D01*
X237590000Y-116300000D02*
X237590000Y-109760000D01*
X234850000Y-116300000D02*
X237590000Y-116300000D01*
X234850000Y-109760000D02*
X234850000Y-116300000D01*
X237590000Y-109760000D02*
X234850000Y-109760000D01*
X141970000Y-93920000D02*
G75*
G02X139970000Y-93920000I-1000000J0D01*
G01*
X139970000Y-93920000D02*
X138320000Y-93920000D01*
X138320000Y-93920000D02*
X138320000Y-104200000D01*
X138320000Y-104200000D02*
X143620000Y-104200000D01*
X143620000Y-104200000D02*
X143620000Y-93920000D01*
X143620000Y-93920000D02*
X141970000Y-93920000D01*
X135830000Y-93860000D02*
X135830000Y-104260000D01*
X135830000Y-104260000D02*
X146110000Y-104260000D01*
X146110000Y-104260000D02*
X146110000Y-93860000D01*
X146110000Y-93860000D02*
X135830000Y-93860000D01*
X245138000Y-101600000D02*
G75*
G03X245138000Y-101600000I-4120000J0D01*
G01*
X241018000Y-97520000D02*
X241018000Y-105680000D01*
X241058000Y-97520000D02*
X241058000Y-105680000D01*
X241098000Y-97520000D02*
X241098000Y-105680000D01*
X241138000Y-97521000D02*
X241138000Y-105679000D01*
X241178000Y-97523000D02*
X241178000Y-105677000D01*
X241218000Y-97524000D02*
X241218000Y-105676000D01*
X241258000Y-97526000D02*
X241258000Y-105674000D01*
X241298000Y-97529000D02*
X241298000Y-105671000D01*
X241338000Y-97532000D02*
X241338000Y-105668000D01*
X241378000Y-97535000D02*
X241378000Y-105665000D01*
X241418000Y-97539000D02*
X241418000Y-105661000D01*
X241458000Y-97543000D02*
X241458000Y-105657000D01*
X241498000Y-97548000D02*
X241498000Y-105652000D01*
X241538000Y-97552000D02*
X241538000Y-105648000D01*
X241578000Y-97558000D02*
X241578000Y-105642000D01*
X241618000Y-97563000D02*
X241618000Y-105637000D01*
X241658000Y-97570000D02*
X241658000Y-105630000D01*
X241698000Y-97576000D02*
X241698000Y-105624000D01*
X241739000Y-97583000D02*
X241739000Y-100560000D01*
X241739000Y-102640000D02*
X241739000Y-105617000D01*
X241779000Y-97590000D02*
X241779000Y-100560000D01*
X241779000Y-102640000D02*
X241779000Y-105610000D01*
X241819000Y-97598000D02*
X241819000Y-100560000D01*
X241819000Y-102640000D02*
X241819000Y-105602000D01*
X241859000Y-97606000D02*
X241859000Y-100560000D01*
X241859000Y-102640000D02*
X241859000Y-105594000D01*
X241899000Y-97615000D02*
X241899000Y-100560000D01*
X241899000Y-102640000D02*
X241899000Y-105585000D01*
X241939000Y-97624000D02*
X241939000Y-100560000D01*
X241939000Y-102640000D02*
X241939000Y-105576000D01*
X241979000Y-97633000D02*
X241979000Y-100560000D01*
X241979000Y-102640000D02*
X241979000Y-105567000D01*
X242019000Y-97643000D02*
X242019000Y-100560000D01*
X242019000Y-102640000D02*
X242019000Y-105557000D01*
X242059000Y-97653000D02*
X242059000Y-100560000D01*
X242059000Y-102640000D02*
X242059000Y-105547000D01*
X242099000Y-97664000D02*
X242099000Y-100560000D01*
X242099000Y-102640000D02*
X242099000Y-105536000D01*
X242139000Y-97675000D02*
X242139000Y-100560000D01*
X242139000Y-102640000D02*
X242139000Y-105525000D01*
X242179000Y-97686000D02*
X242179000Y-100560000D01*
X242179000Y-102640000D02*
X242179000Y-105514000D01*
X242219000Y-97698000D02*
X242219000Y-100560000D01*
X242219000Y-102640000D02*
X242219000Y-105502000D01*
X242259000Y-97711000D02*
X242259000Y-100560000D01*
X242259000Y-102640000D02*
X242259000Y-105489000D01*
X242299000Y-97723000D02*
X242299000Y-100560000D01*
X242299000Y-102640000D02*
X242299000Y-105477000D01*
X242339000Y-97737000D02*
X242339000Y-100560000D01*
X242339000Y-102640000D02*
X242339000Y-105463000D01*
X242379000Y-97750000D02*
X242379000Y-100560000D01*
X242379000Y-102640000D02*
X242379000Y-105450000D01*
X242419000Y-97765000D02*
X242419000Y-100560000D01*
X242419000Y-102640000D02*
X242419000Y-105435000D01*
X242459000Y-97779000D02*
X242459000Y-100560000D01*
X242459000Y-102640000D02*
X242459000Y-105421000D01*
X242499000Y-97795000D02*
X242499000Y-100560000D01*
X242499000Y-102640000D02*
X242499000Y-105405000D01*
X242539000Y-97810000D02*
X242539000Y-100560000D01*
X242539000Y-102640000D02*
X242539000Y-105390000D01*
X242579000Y-97826000D02*
X242579000Y-100560000D01*
X242579000Y-102640000D02*
X242579000Y-105374000D01*
X242619000Y-97843000D02*
X242619000Y-100560000D01*
X242619000Y-102640000D02*
X242619000Y-105357000D01*
X242659000Y-97860000D02*
X242659000Y-100560000D01*
X242659000Y-102640000D02*
X242659000Y-105340000D01*
X242699000Y-97878000D02*
X242699000Y-100560000D01*
X242699000Y-102640000D02*
X242699000Y-105322000D01*
X242739000Y-97896000D02*
X242739000Y-100560000D01*
X242739000Y-102640000D02*
X242739000Y-105304000D01*
X242779000Y-97914000D02*
X242779000Y-100560000D01*
X242779000Y-102640000D02*
X242779000Y-105286000D01*
X242819000Y-97934000D02*
X242819000Y-100560000D01*
X242819000Y-102640000D02*
X242819000Y-105266000D01*
X242859000Y-97953000D02*
X242859000Y-100560000D01*
X242859000Y-102640000D02*
X242859000Y-105247000D01*
X242899000Y-97973000D02*
X242899000Y-100560000D01*
X242899000Y-102640000D02*
X242899000Y-105227000D01*
X242939000Y-97994000D02*
X242939000Y-100560000D01*
X242939000Y-102640000D02*
X242939000Y-105206000D01*
X242979000Y-98016000D02*
X242979000Y-100560000D01*
X242979000Y-102640000D02*
X242979000Y-105184000D01*
X243019000Y-98038000D02*
X243019000Y-100560000D01*
X243019000Y-102640000D02*
X243019000Y-105162000D01*
X243059000Y-98060000D02*
X243059000Y-100560000D01*
X243059000Y-102640000D02*
X243059000Y-105140000D01*
X243099000Y-98083000D02*
X243099000Y-100560000D01*
X243099000Y-102640000D02*
X243099000Y-105117000D01*
X243139000Y-98107000D02*
X243139000Y-100560000D01*
X243139000Y-102640000D02*
X243139000Y-105093000D01*
X243179000Y-98131000D02*
X243179000Y-100560000D01*
X243179000Y-102640000D02*
X243179000Y-105069000D01*
X243219000Y-98156000D02*
X243219000Y-100560000D01*
X243219000Y-102640000D02*
X243219000Y-105044000D01*
X243259000Y-98182000D02*
X243259000Y-100560000D01*
X243259000Y-102640000D02*
X243259000Y-105018000D01*
X243299000Y-98208000D02*
X243299000Y-100560000D01*
X243299000Y-102640000D02*
X243299000Y-104992000D01*
X243339000Y-98235000D02*
X243339000Y-100560000D01*
X243339000Y-102640000D02*
X243339000Y-104965000D01*
X243379000Y-98262000D02*
X243379000Y-100560000D01*
X243379000Y-102640000D02*
X243379000Y-104938000D01*
X243419000Y-98291000D02*
X243419000Y-100560000D01*
X243419000Y-102640000D02*
X243419000Y-104909000D01*
X243459000Y-98320000D02*
X243459000Y-100560000D01*
X243459000Y-102640000D02*
X243459000Y-104880000D01*
X243499000Y-98350000D02*
X243499000Y-100560000D01*
X243499000Y-102640000D02*
X243499000Y-104850000D01*
X243539000Y-98380000D02*
X243539000Y-100560000D01*
X243539000Y-102640000D02*
X243539000Y-104820000D01*
X243579000Y-98411000D02*
X243579000Y-100560000D01*
X243579000Y-102640000D02*
X243579000Y-104789000D01*
X243619000Y-98444000D02*
X243619000Y-100560000D01*
X243619000Y-102640000D02*
X243619000Y-104756000D01*
X243659000Y-98476000D02*
X243659000Y-100560000D01*
X243659000Y-102640000D02*
X243659000Y-104724000D01*
X243699000Y-98510000D02*
X243699000Y-100560000D01*
X243699000Y-102640000D02*
X243699000Y-104690000D01*
X243739000Y-98545000D02*
X243739000Y-100560000D01*
X243739000Y-102640000D02*
X243739000Y-104655000D01*
X243779000Y-98581000D02*
X243779000Y-100560000D01*
X243779000Y-102640000D02*
X243779000Y-104619000D01*
X243819000Y-98617000D02*
X243819000Y-104583000D01*
X243859000Y-98655000D02*
X243859000Y-104545000D01*
X243899000Y-98693000D02*
X243899000Y-104507000D01*
X243939000Y-98733000D02*
X243939000Y-104467000D01*
X243979000Y-98774000D02*
X243979000Y-104426000D01*
X244019000Y-98816000D02*
X244019000Y-104384000D01*
X244059000Y-98859000D02*
X244059000Y-104341000D01*
X244099000Y-98903000D02*
X244099000Y-104297000D01*
X244139000Y-98949000D02*
X244139000Y-104251000D01*
X244179000Y-98996000D02*
X244179000Y-104204000D01*
X244219000Y-99044000D02*
X244219000Y-104156000D01*
X244259000Y-99095000D02*
X244259000Y-104105000D01*
X244299000Y-99146000D02*
X244299000Y-104054000D01*
X244339000Y-99200000D02*
X244339000Y-104000000D01*
X244379000Y-99255000D02*
X244379000Y-103945000D01*
X244419000Y-99313000D02*
X244419000Y-103887000D01*
X244459000Y-99372000D02*
X244459000Y-103828000D01*
X244499000Y-99434000D02*
X244499000Y-103766000D01*
X244539000Y-99498000D02*
X244539000Y-103702000D01*
X244579000Y-99566000D02*
X244579000Y-103634000D01*
X244619000Y-99636000D02*
X244619000Y-103564000D01*
X244659000Y-99710000D02*
X244659000Y-103490000D01*
X244699000Y-99787000D02*
X244699000Y-103413000D01*
X244739000Y-99869000D02*
X244739000Y-103331000D01*
X244779000Y-99955000D02*
X244779000Y-103245000D01*
X244819000Y-100048000D02*
X244819000Y-103152000D01*
X244859000Y-100147000D02*
X244859000Y-103053000D01*
X244899000Y-100254000D02*
X244899000Y-102946000D01*
X244939000Y-100371000D02*
X244939000Y-102829000D01*
X244979000Y-100502000D02*
X244979000Y-102698000D01*
X245019000Y-100652000D02*
X245019000Y-102548000D01*
X245059000Y-100832000D02*
X245059000Y-102368000D01*
X245099000Y-101067000D02*
X245099000Y-102133000D01*
X236608302Y-99285000D02*
X237408302Y-99285000D01*
X237008302Y-98885000D02*
X237008302Y-99685000D01*
X269760000Y-103505000D02*
G75*
G03X269760000Y-103505000I-5120000J0D01*
G01*
X264640000Y-98425000D02*
X264640000Y-108585000D01*
X264680000Y-98425000D02*
X264680000Y-108585000D01*
X264720000Y-98425000D02*
X264720000Y-108585000D01*
X264760000Y-98426000D02*
X264760000Y-108584000D01*
X264800000Y-98427000D02*
X264800000Y-108583000D01*
X264840000Y-98428000D02*
X264840000Y-108582000D01*
X264880000Y-98430000D02*
X264880000Y-108580000D01*
X264920000Y-98432000D02*
X264920000Y-108578000D01*
X264960000Y-98435000D02*
X264960000Y-108575000D01*
X265000000Y-98437000D02*
X265000000Y-108573000D01*
X265040000Y-98440000D02*
X265040000Y-108570000D01*
X265080000Y-98443000D02*
X265080000Y-108567000D01*
X265120000Y-98447000D02*
X265120000Y-108563000D01*
X265160000Y-98451000D02*
X265160000Y-102264000D01*
X265160000Y-104746000D02*
X265160000Y-108559000D01*
X265200000Y-98455000D02*
X265200000Y-102264000D01*
X265200000Y-104746000D02*
X265200000Y-108555000D01*
X265240000Y-98460000D02*
X265240000Y-102264000D01*
X265240000Y-104746000D02*
X265240000Y-108550000D01*
X265280000Y-98465000D02*
X265280000Y-102264000D01*
X265280000Y-104746000D02*
X265280000Y-108545000D01*
X265320000Y-98470000D02*
X265320000Y-102264000D01*
X265320000Y-104746000D02*
X265320000Y-108540000D01*
X265361000Y-98475000D02*
X265361000Y-102264000D01*
X265361000Y-104746000D02*
X265361000Y-108535000D01*
X265401000Y-98481000D02*
X265401000Y-102264000D01*
X265401000Y-104746000D02*
X265401000Y-108529000D01*
X265441000Y-98487000D02*
X265441000Y-102264000D01*
X265441000Y-104746000D02*
X265441000Y-108523000D01*
X265481000Y-98494000D02*
X265481000Y-102264000D01*
X265481000Y-104746000D02*
X265481000Y-108516000D01*
X265521000Y-98501000D02*
X265521000Y-102264000D01*
X265521000Y-104746000D02*
X265521000Y-108509000D01*
X265561000Y-98508000D02*
X265561000Y-102264000D01*
X265561000Y-104746000D02*
X265561000Y-108502000D01*
X265601000Y-98515000D02*
X265601000Y-102264000D01*
X265601000Y-104746000D02*
X265601000Y-108495000D01*
X265641000Y-98523000D02*
X265641000Y-102264000D01*
X265641000Y-104746000D02*
X265641000Y-108487000D01*
X265681000Y-98531000D02*
X265681000Y-102264000D01*
X265681000Y-104746000D02*
X265681000Y-108479000D01*
X265721000Y-98540000D02*
X265721000Y-102264000D01*
X265721000Y-104746000D02*
X265721000Y-108470000D01*
X265761000Y-98549000D02*
X265761000Y-102264000D01*
X265761000Y-104746000D02*
X265761000Y-108461000D01*
X265801000Y-98558000D02*
X265801000Y-102264000D01*
X265801000Y-104746000D02*
X265801000Y-108452000D01*
X265841000Y-98567000D02*
X265841000Y-102264000D01*
X265841000Y-104746000D02*
X265841000Y-108443000D01*
X265881000Y-98577000D02*
X265881000Y-102264000D01*
X265881000Y-104746000D02*
X265881000Y-108433000D01*
X265921000Y-98587000D02*
X265921000Y-102264000D01*
X265921000Y-104746000D02*
X265921000Y-108423000D01*
X265961000Y-98598000D02*
X265961000Y-102264000D01*
X265961000Y-104746000D02*
X265961000Y-108412000D01*
X266001000Y-98608000D02*
X266001000Y-102264000D01*
X266001000Y-104746000D02*
X266001000Y-108402000D01*
X266041000Y-98620000D02*
X266041000Y-102264000D01*
X266041000Y-104746000D02*
X266041000Y-108390000D01*
X266081000Y-98631000D02*
X266081000Y-102264000D01*
X266081000Y-104746000D02*
X266081000Y-108379000D01*
X266121000Y-98643000D02*
X266121000Y-102264000D01*
X266121000Y-104746000D02*
X266121000Y-108367000D01*
X266161000Y-98655000D02*
X266161000Y-102264000D01*
X266161000Y-104746000D02*
X266161000Y-108355000D01*
X266201000Y-98668000D02*
X266201000Y-102264000D01*
X266201000Y-104746000D02*
X266201000Y-108342000D01*
X266241000Y-98681000D02*
X266241000Y-102264000D01*
X266241000Y-104746000D02*
X266241000Y-108329000D01*
X266281000Y-98694000D02*
X266281000Y-102264000D01*
X266281000Y-104746000D02*
X266281000Y-108316000D01*
X266321000Y-98708000D02*
X266321000Y-102264000D01*
X266321000Y-104746000D02*
X266321000Y-108302000D01*
X266361000Y-98722000D02*
X266361000Y-102264000D01*
X266361000Y-104746000D02*
X266361000Y-108288000D01*
X266401000Y-98737000D02*
X266401000Y-102264000D01*
X266401000Y-104746000D02*
X266401000Y-108273000D01*
X266441000Y-98751000D02*
X266441000Y-102264000D01*
X266441000Y-104746000D02*
X266441000Y-108259000D01*
X266481000Y-98767000D02*
X266481000Y-102264000D01*
X266481000Y-104746000D02*
X266481000Y-108243000D01*
X266521000Y-98782000D02*
X266521000Y-102264000D01*
X266521000Y-104746000D02*
X266521000Y-108228000D01*
X266561000Y-98798000D02*
X266561000Y-102264000D01*
X266561000Y-104746000D02*
X266561000Y-108212000D01*
X266601000Y-98815000D02*
X266601000Y-102264000D01*
X266601000Y-104746000D02*
X266601000Y-108195000D01*
X266641000Y-98831000D02*
X266641000Y-102264000D01*
X266641000Y-104746000D02*
X266641000Y-108179000D01*
X266681000Y-98848000D02*
X266681000Y-102264000D01*
X266681000Y-104746000D02*
X266681000Y-108162000D01*
X266721000Y-98866000D02*
X266721000Y-102264000D01*
X266721000Y-104746000D02*
X266721000Y-108144000D01*
X266761000Y-98884000D02*
X266761000Y-102264000D01*
X266761000Y-104746000D02*
X266761000Y-108126000D01*
X266801000Y-98902000D02*
X266801000Y-102264000D01*
X266801000Y-104746000D02*
X266801000Y-108108000D01*
X266841000Y-98921000D02*
X266841000Y-102264000D01*
X266841000Y-104746000D02*
X266841000Y-108089000D01*
X266881000Y-98941000D02*
X266881000Y-102264000D01*
X266881000Y-104746000D02*
X266881000Y-108069000D01*
X266921000Y-98960000D02*
X266921000Y-102264000D01*
X266921000Y-104746000D02*
X266921000Y-108050000D01*
X266961000Y-98980000D02*
X266961000Y-102264000D01*
X266961000Y-104746000D02*
X266961000Y-108030000D01*
X267001000Y-99001000D02*
X267001000Y-102264000D01*
X267001000Y-104746000D02*
X267001000Y-108009000D01*
X267041000Y-99022000D02*
X267041000Y-102264000D01*
X267041000Y-104746000D02*
X267041000Y-107988000D01*
X267081000Y-99043000D02*
X267081000Y-102264000D01*
X267081000Y-104746000D02*
X267081000Y-107967000D01*
X267121000Y-99065000D02*
X267121000Y-102264000D01*
X267121000Y-104746000D02*
X267121000Y-107945000D01*
X267161000Y-99088000D02*
X267161000Y-102264000D01*
X267161000Y-104746000D02*
X267161000Y-107922000D01*
X267201000Y-99110000D02*
X267201000Y-102264000D01*
X267201000Y-104746000D02*
X267201000Y-107900000D01*
X267241000Y-99134000D02*
X267241000Y-102264000D01*
X267241000Y-104746000D02*
X267241000Y-107876000D01*
X267281000Y-99158000D02*
X267281000Y-102264000D01*
X267281000Y-104746000D02*
X267281000Y-107852000D01*
X267321000Y-99182000D02*
X267321000Y-102264000D01*
X267321000Y-104746000D02*
X267321000Y-107828000D01*
X267361000Y-99207000D02*
X267361000Y-102264000D01*
X267361000Y-104746000D02*
X267361000Y-107803000D01*
X267401000Y-99232000D02*
X267401000Y-102264000D01*
X267401000Y-104746000D02*
X267401000Y-107778000D01*
X267441000Y-99258000D02*
X267441000Y-102264000D01*
X267441000Y-104746000D02*
X267441000Y-107752000D01*
X267481000Y-99284000D02*
X267481000Y-102264000D01*
X267481000Y-104746000D02*
X267481000Y-107726000D01*
X267521000Y-99311000D02*
X267521000Y-102264000D01*
X267521000Y-104746000D02*
X267521000Y-107699000D01*
X267561000Y-99339000D02*
X267561000Y-102264000D01*
X267561000Y-104746000D02*
X267561000Y-107671000D01*
X267601000Y-99367000D02*
X267601000Y-102264000D01*
X267601000Y-104746000D02*
X267601000Y-107643000D01*
X267641000Y-99395000D02*
X267641000Y-107615000D01*
X267681000Y-99425000D02*
X267681000Y-107585000D01*
X267721000Y-99455000D02*
X267721000Y-107555000D01*
X267761000Y-99485000D02*
X267761000Y-107525000D01*
X267801000Y-99516000D02*
X267801000Y-107494000D01*
X267841000Y-99548000D02*
X267841000Y-107462000D01*
X267881000Y-99580000D02*
X267881000Y-107430000D01*
X267921000Y-99613000D02*
X267921000Y-107397000D01*
X267961000Y-99647000D02*
X267961000Y-107363000D01*
X268001000Y-99681000D02*
X268001000Y-107329000D01*
X268041000Y-99716000D02*
X268041000Y-107294000D01*
X268081000Y-99752000D02*
X268081000Y-107258000D01*
X268121000Y-99789000D02*
X268121000Y-107221000D01*
X268161000Y-99826000D02*
X268161000Y-107184000D01*
X268201000Y-99865000D02*
X268201000Y-107145000D01*
X268241000Y-99904000D02*
X268241000Y-107106000D01*
X268281000Y-99944000D02*
X268281000Y-107066000D01*
X268321000Y-99985000D02*
X268321000Y-107025000D01*
X268361000Y-100027000D02*
X268361000Y-106983000D01*
X268401000Y-100069000D02*
X268401000Y-106941000D01*
X268441000Y-100113000D02*
X268441000Y-106897000D01*
X268481000Y-100158000D02*
X268481000Y-106852000D01*
X268521000Y-100204000D02*
X268521000Y-106806000D01*
X268561000Y-100251000D02*
X268561000Y-106759000D01*
X268601000Y-100299000D02*
X268601000Y-106711000D01*
X268641000Y-100349000D02*
X268641000Y-106661000D01*
X268681000Y-100399000D02*
X268681000Y-106611000D01*
X268721000Y-100451000D02*
X268721000Y-106559000D01*
X268761000Y-100505000D02*
X268761000Y-106505000D01*
X268801000Y-100560000D02*
X268801000Y-106450000D01*
X268841000Y-100616000D02*
X268841000Y-106394000D01*
X268881000Y-100675000D02*
X268881000Y-106335000D01*
X268921000Y-100735000D02*
X268921000Y-106275000D01*
X268961000Y-100796000D02*
X268961000Y-106214000D01*
X269001000Y-100860000D02*
X269001000Y-106150000D01*
X269041000Y-100926000D02*
X269041000Y-106084000D01*
X269081000Y-100995000D02*
X269081000Y-106015000D01*
X269121000Y-101066000D02*
X269121000Y-105944000D01*
X269161000Y-101140000D02*
X269161000Y-105870000D01*
X269201000Y-101216000D02*
X269201000Y-105794000D01*
X269241000Y-101296000D02*
X269241000Y-105714000D01*
X269281000Y-101380000D02*
X269281000Y-105630000D01*
X269321000Y-101468000D02*
X269321000Y-105542000D01*
X269361000Y-101561000D02*
X269361000Y-105449000D01*
X269401000Y-101659000D02*
X269401000Y-105351000D01*
X269441000Y-101763000D02*
X269441000Y-105247000D01*
X269481000Y-101875000D02*
X269481000Y-105135000D01*
X269521000Y-101995000D02*
X269521000Y-105015000D01*
X269561000Y-102127000D02*
X269561000Y-104883000D01*
X269601000Y-102275000D02*
X269601000Y-104735000D01*
X269641000Y-102443000D02*
X269641000Y-104567000D01*
X269681000Y-102643000D02*
X269681000Y-104367000D01*
X269721000Y-102906000D02*
X269721000Y-104104000D01*
X259160354Y-100630000D02*
X260160354Y-100630000D01*
X259660354Y-100130000D02*
X259660354Y-101130000D01*
X225112000Y-98562000D02*
X234882000Y-98562000D01*
X225112000Y-103632000D02*
X234882000Y-103632000D01*
X225112000Y-98562000D02*
X225112000Y-103632000D01*
X234882000Y-98562000D02*
X234882000Y-103632000D01*
X262410000Y-114300000D02*
G75*
G03X262410000Y-114300000I-4120000J0D01*
G01*
X258290000Y-110220000D02*
X258290000Y-118380000D01*
X258330000Y-110220000D02*
X258330000Y-118380000D01*
X258370000Y-110220000D02*
X258370000Y-118380000D01*
X258410000Y-110221000D02*
X258410000Y-118379000D01*
X258450000Y-110223000D02*
X258450000Y-118377000D01*
X258490000Y-110224000D02*
X258490000Y-118376000D01*
X258530000Y-110226000D02*
X258530000Y-118374000D01*
X258570000Y-110229000D02*
X258570000Y-118371000D01*
X258610000Y-110232000D02*
X258610000Y-118368000D01*
X258650000Y-110235000D02*
X258650000Y-118365000D01*
X258690000Y-110239000D02*
X258690000Y-118361000D01*
X258730000Y-110243000D02*
X258730000Y-118357000D01*
X258770000Y-110248000D02*
X258770000Y-118352000D01*
X258810000Y-110252000D02*
X258810000Y-118348000D01*
X258850000Y-110258000D02*
X258850000Y-118342000D01*
X258890000Y-110263000D02*
X258890000Y-118337000D01*
X258930000Y-110270000D02*
X258930000Y-118330000D01*
X258970000Y-110276000D02*
X258970000Y-118324000D01*
X259011000Y-110283000D02*
X259011000Y-113260000D01*
X259011000Y-115340000D02*
X259011000Y-118317000D01*
X259051000Y-110290000D02*
X259051000Y-113260000D01*
X259051000Y-115340000D02*
X259051000Y-118310000D01*
X259091000Y-110298000D02*
X259091000Y-113260000D01*
X259091000Y-115340000D02*
X259091000Y-118302000D01*
X259131000Y-110306000D02*
X259131000Y-113260000D01*
X259131000Y-115340000D02*
X259131000Y-118294000D01*
X259171000Y-110315000D02*
X259171000Y-113260000D01*
X259171000Y-115340000D02*
X259171000Y-118285000D01*
X259211000Y-110324000D02*
X259211000Y-113260000D01*
X259211000Y-115340000D02*
X259211000Y-118276000D01*
X259251000Y-110333000D02*
X259251000Y-113260000D01*
X259251000Y-115340000D02*
X259251000Y-118267000D01*
X259291000Y-110343000D02*
X259291000Y-113260000D01*
X259291000Y-115340000D02*
X259291000Y-118257000D01*
X259331000Y-110353000D02*
X259331000Y-113260000D01*
X259331000Y-115340000D02*
X259331000Y-118247000D01*
X259371000Y-110364000D02*
X259371000Y-113260000D01*
X259371000Y-115340000D02*
X259371000Y-118236000D01*
X259411000Y-110375000D02*
X259411000Y-113260000D01*
X259411000Y-115340000D02*
X259411000Y-118225000D01*
X259451000Y-110386000D02*
X259451000Y-113260000D01*
X259451000Y-115340000D02*
X259451000Y-118214000D01*
X259491000Y-110398000D02*
X259491000Y-113260000D01*
X259491000Y-115340000D02*
X259491000Y-118202000D01*
X259531000Y-110411000D02*
X259531000Y-113260000D01*
X259531000Y-115340000D02*
X259531000Y-118189000D01*
X259571000Y-110423000D02*
X259571000Y-113260000D01*
X259571000Y-115340000D02*
X259571000Y-118177000D01*
X259611000Y-110437000D02*
X259611000Y-113260000D01*
X259611000Y-115340000D02*
X259611000Y-118163000D01*
X259651000Y-110450000D02*
X259651000Y-113260000D01*
X259651000Y-115340000D02*
X259651000Y-118150000D01*
X259691000Y-110465000D02*
X259691000Y-113260000D01*
X259691000Y-115340000D02*
X259691000Y-118135000D01*
X259731000Y-110479000D02*
X259731000Y-113260000D01*
X259731000Y-115340000D02*
X259731000Y-118121000D01*
X259771000Y-110495000D02*
X259771000Y-113260000D01*
X259771000Y-115340000D02*
X259771000Y-118105000D01*
X259811000Y-110510000D02*
X259811000Y-113260000D01*
X259811000Y-115340000D02*
X259811000Y-118090000D01*
X259851000Y-110526000D02*
X259851000Y-113260000D01*
X259851000Y-115340000D02*
X259851000Y-118074000D01*
X259891000Y-110543000D02*
X259891000Y-113260000D01*
X259891000Y-115340000D02*
X259891000Y-118057000D01*
X259931000Y-110560000D02*
X259931000Y-113260000D01*
X259931000Y-115340000D02*
X259931000Y-118040000D01*
X259971000Y-110578000D02*
X259971000Y-113260000D01*
X259971000Y-115340000D02*
X259971000Y-118022000D01*
X260011000Y-110596000D02*
X260011000Y-113260000D01*
X260011000Y-115340000D02*
X260011000Y-118004000D01*
X260051000Y-110614000D02*
X260051000Y-113260000D01*
X260051000Y-115340000D02*
X260051000Y-117986000D01*
X260091000Y-110634000D02*
X260091000Y-113260000D01*
X260091000Y-115340000D02*
X260091000Y-117966000D01*
X260131000Y-110653000D02*
X260131000Y-113260000D01*
X260131000Y-115340000D02*
X260131000Y-117947000D01*
X260171000Y-110673000D02*
X260171000Y-113260000D01*
X260171000Y-115340000D02*
X260171000Y-117927000D01*
X260211000Y-110694000D02*
X260211000Y-113260000D01*
X260211000Y-115340000D02*
X260211000Y-117906000D01*
X260251000Y-110716000D02*
X260251000Y-113260000D01*
X260251000Y-115340000D02*
X260251000Y-117884000D01*
X260291000Y-110738000D02*
X260291000Y-113260000D01*
X260291000Y-115340000D02*
X260291000Y-117862000D01*
X260331000Y-110760000D02*
X260331000Y-113260000D01*
X260331000Y-115340000D02*
X260331000Y-117840000D01*
X260371000Y-110783000D02*
X260371000Y-113260000D01*
X260371000Y-115340000D02*
X260371000Y-117817000D01*
X260411000Y-110807000D02*
X260411000Y-113260000D01*
X260411000Y-115340000D02*
X260411000Y-117793000D01*
X260451000Y-110831000D02*
X260451000Y-113260000D01*
X260451000Y-115340000D02*
X260451000Y-117769000D01*
X260491000Y-110856000D02*
X260491000Y-113260000D01*
X260491000Y-115340000D02*
X260491000Y-117744000D01*
X260531000Y-110882000D02*
X260531000Y-113260000D01*
X260531000Y-115340000D02*
X260531000Y-117718000D01*
X260571000Y-110908000D02*
X260571000Y-113260000D01*
X260571000Y-115340000D02*
X260571000Y-117692000D01*
X260611000Y-110935000D02*
X260611000Y-113260000D01*
X260611000Y-115340000D02*
X260611000Y-117665000D01*
X260651000Y-110962000D02*
X260651000Y-113260000D01*
X260651000Y-115340000D02*
X260651000Y-117638000D01*
X260691000Y-110991000D02*
X260691000Y-113260000D01*
X260691000Y-115340000D02*
X260691000Y-117609000D01*
X260731000Y-111020000D02*
X260731000Y-113260000D01*
X260731000Y-115340000D02*
X260731000Y-117580000D01*
X260771000Y-111050000D02*
X260771000Y-113260000D01*
X260771000Y-115340000D02*
X260771000Y-117550000D01*
X260811000Y-111080000D02*
X260811000Y-113260000D01*
X260811000Y-115340000D02*
X260811000Y-117520000D01*
X260851000Y-111111000D02*
X260851000Y-113260000D01*
X260851000Y-115340000D02*
X260851000Y-117489000D01*
X260891000Y-111144000D02*
X260891000Y-113260000D01*
X260891000Y-115340000D02*
X260891000Y-117456000D01*
X260931000Y-111176000D02*
X260931000Y-113260000D01*
X260931000Y-115340000D02*
X260931000Y-117424000D01*
X260971000Y-111210000D02*
X260971000Y-113260000D01*
X260971000Y-115340000D02*
X260971000Y-117390000D01*
X261011000Y-111245000D02*
X261011000Y-113260000D01*
X261011000Y-115340000D02*
X261011000Y-117355000D01*
X261051000Y-111281000D02*
X261051000Y-113260000D01*
X261051000Y-115340000D02*
X261051000Y-117319000D01*
X261091000Y-111317000D02*
X261091000Y-117283000D01*
X261131000Y-111355000D02*
X261131000Y-117245000D01*
X261171000Y-111393000D02*
X261171000Y-117207000D01*
X261211000Y-111433000D02*
X261211000Y-117167000D01*
X261251000Y-111474000D02*
X261251000Y-117126000D01*
X261291000Y-111516000D02*
X261291000Y-117084000D01*
X261331000Y-111559000D02*
X261331000Y-117041000D01*
X261371000Y-111603000D02*
X261371000Y-116997000D01*
X261411000Y-111649000D02*
X261411000Y-116951000D01*
X261451000Y-111696000D02*
X261451000Y-116904000D01*
X261491000Y-111744000D02*
X261491000Y-116856000D01*
X261531000Y-111795000D02*
X261531000Y-116805000D01*
X261571000Y-111846000D02*
X261571000Y-116754000D01*
X261611000Y-111900000D02*
X261611000Y-116700000D01*
X261651000Y-111955000D02*
X261651000Y-116645000D01*
X261691000Y-112013000D02*
X261691000Y-116587000D01*
X261731000Y-112072000D02*
X261731000Y-116528000D01*
X261771000Y-112134000D02*
X261771000Y-116466000D01*
X261811000Y-112198000D02*
X261811000Y-116402000D01*
X261851000Y-112266000D02*
X261851000Y-116334000D01*
X261891000Y-112336000D02*
X261891000Y-116264000D01*
X261931000Y-112410000D02*
X261931000Y-116190000D01*
X261971000Y-112487000D02*
X261971000Y-116113000D01*
X262011000Y-112569000D02*
X262011000Y-116031000D01*
X262051000Y-112655000D02*
X262051000Y-115945000D01*
X262091000Y-112748000D02*
X262091000Y-115852000D01*
X262131000Y-112847000D02*
X262131000Y-115753000D01*
X262171000Y-112954000D02*
X262171000Y-115646000D01*
X262211000Y-113071000D02*
X262211000Y-115529000D01*
X262251000Y-113202000D02*
X262251000Y-115398000D01*
X262291000Y-113352000D02*
X262291000Y-115248000D01*
X262331000Y-113532000D02*
X262331000Y-115068000D01*
X262371000Y-113767000D02*
X262371000Y-114833000D01*
X253880302Y-111985000D02*
X254680302Y-111985000D01*
X254280302Y-111585000D02*
X254280302Y-112385000D01*
X228700000Y-109760000D02*
X225960000Y-109760000D01*
X225960000Y-109760000D02*
X225960000Y-116300000D01*
X225960000Y-116300000D02*
X228700000Y-116300000D01*
X228700000Y-116300000D02*
X228700000Y-109760000D01*
X227330000Y-108990000D02*
X227330000Y-109760000D01*
X227330000Y-117070000D02*
X227330000Y-116300000D01*
X200560000Y-111880000D02*
X200560000Y-106640000D01*
X203300000Y-111880000D02*
X203300000Y-106640000D01*
X200560000Y-111880000D02*
X200875000Y-111880000D01*
X202985000Y-111880000D02*
X203300000Y-111880000D01*
X200560000Y-106640000D02*
X200875000Y-106640000D01*
X202985000Y-106640000D02*
X203300000Y-106640000D01*
X248238000Y-108970000D02*
X248238000Y-119510000D01*
X242998000Y-108970000D02*
X242998000Y-119510000D01*
X248238000Y-108970000D02*
X242998000Y-108970000D01*
X248238000Y-119510000D02*
X242998000Y-119510000D01*
X214360000Y-106620000D02*
G75*
G02X212360000Y-106620000I-1000000J0D01*
G01*
X212360000Y-106620000D02*
X210710000Y-106620000D01*
X210710000Y-106620000D02*
X210710000Y-116900000D01*
X210710000Y-116900000D02*
X216010000Y-116900000D01*
X216010000Y-116900000D02*
X216010000Y-106620000D01*
X216010000Y-106620000D02*
X214360000Y-106620000D01*
X208220000Y-106560000D02*
X208220000Y-116960000D01*
X208220000Y-116960000D02*
X218500000Y-116960000D01*
X218500000Y-116960000D02*
X218500000Y-106560000D01*
X218500000Y-106560000D02*
X208220000Y-106560000D01*
X92229000Y-101593000D02*
X92229000Y-96353000D01*
X94969000Y-101593000D02*
X94969000Y-96353000D01*
X92229000Y-101593000D02*
X92544000Y-101593000D01*
X94654000Y-101593000D02*
X94969000Y-101593000D01*
X92229000Y-96353000D02*
X92544000Y-96353000D01*
X94654000Y-96353000D02*
X94969000Y-96353000D01*
X237133000Y-92964000D02*
X237903000Y-92964000D01*
X245213000Y-92964000D02*
X244443000Y-92964000D01*
X237903000Y-94334000D02*
X244443000Y-94334000D01*
X237903000Y-91594000D02*
X237903000Y-94334000D01*
X244443000Y-91594000D02*
X237903000Y-91594000D01*
X244443000Y-94334000D02*
X244443000Y-91594000D01*
X258540000Y-94334000D02*
X258540000Y-91594000D01*
X258540000Y-91594000D02*
X252000000Y-91594000D01*
X252000000Y-91594000D02*
X252000000Y-94334000D01*
X252000000Y-94334000D02*
X258540000Y-94334000D01*
X259310000Y-92964000D02*
X258540000Y-92964000D01*
X251230000Y-92964000D02*
X252000000Y-92964000D01*
X102556000Y-115510000D02*
X103886000Y-115510000D01*
X102556000Y-116840000D02*
X102556000Y-115510000D01*
X102556000Y-118110000D02*
X105216000Y-118110000D01*
X105216000Y-118110000D02*
X105216000Y-118170000D01*
X102556000Y-118110000D02*
X102556000Y-118170000D01*
X102556000Y-118170000D02*
X105216000Y-118170000D01*
X118177000Y-118170000D02*
X120837000Y-118170000D01*
X118177000Y-118110000D02*
X118177000Y-118170000D01*
X120837000Y-118110000D02*
X120837000Y-118170000D01*
X118177000Y-118110000D02*
X120837000Y-118110000D01*
X118177000Y-116840000D02*
X118177000Y-115510000D01*
X118177000Y-115510000D02*
X119507000Y-115510000D01*
D14*
G36*
X167615633Y-106233597D02*
G01*
X167740850Y-106410185D01*
X167738572Y-106680000D01*
X167676698Y-106881530D01*
X167566383Y-106968390D01*
X167382995Y-106992825D01*
X167153056Y-106991904D01*
X166990996Y-106967358D01*
X166983833Y-106964603D01*
X166884070Y-106860215D01*
X166903970Y-106764666D01*
X167343666Y-106764666D01*
X167350379Y-106842685D01*
X167381003Y-106849333D01*
X167467221Y-106787872D01*
X167470666Y-106764666D01*
X167441779Y-106682201D01*
X167433330Y-106680000D01*
X167361044Y-106739328D01*
X167343666Y-106764666D01*
X166903970Y-106764666D01*
X166909133Y-106739878D01*
X167041961Y-106680060D01*
X167047333Y-106680000D01*
X167171280Y-106640084D01*
X167214919Y-106491567D01*
X167216666Y-106426000D01*
X167246022Y-106236470D01*
X167348299Y-106172867D01*
X167369817Y-106172000D01*
X167615633Y-106233597D01*
X167615633Y-106233597D01*
G37*
X167615633Y-106233597D02*
X167740850Y-106410185D01*
X167738572Y-106680000D01*
X167676698Y-106881530D01*
X167566383Y-106968390D01*
X167382995Y-106992825D01*
X167153056Y-106991904D01*
X166990996Y-106967358D01*
X166983833Y-106964603D01*
X166884070Y-106860215D01*
X166903970Y-106764666D01*
X167343666Y-106764666D01*
X167350379Y-106842685D01*
X167381003Y-106849333D01*
X167467221Y-106787872D01*
X167470666Y-106764666D01*
X167441779Y-106682201D01*
X167433330Y-106680000D01*
X167361044Y-106739328D01*
X167343666Y-106764666D01*
X166903970Y-106764666D01*
X166909133Y-106739878D01*
X167041961Y-106680060D01*
X167047333Y-106680000D01*
X167171280Y-106640084D01*
X167214919Y-106491567D01*
X167216666Y-106426000D01*
X167246022Y-106236470D01*
X167348299Y-106172867D01*
X167369817Y-106172000D01*
X167615633Y-106233597D01*
G36*
X158344087Y-96372801D02*
G01*
X158625032Y-96429374D01*
X158741500Y-96473271D01*
X159007981Y-96696336D01*
X159157965Y-97002722D01*
X159189348Y-97350896D01*
X159100027Y-97699328D01*
X158887898Y-98006486D01*
X158822189Y-98066365D01*
X158674476Y-98210012D01*
X158590603Y-98362477D01*
X158570279Y-98556185D01*
X158613213Y-98823563D01*
X158719114Y-99197037D01*
X158809519Y-99475786D01*
X158993405Y-99984361D01*
X159158684Y-100338203D01*
X159313282Y-100549818D01*
X159465125Y-100631714D01*
X159540007Y-100628481D01*
X160350923Y-100481272D01*
X161033208Y-100422578D01*
X161602282Y-100451898D01*
X162016211Y-100548250D01*
X162409674Y-100681834D01*
X162655667Y-100400084D01*
X162837991Y-100158469D01*
X163029168Y-99853374D01*
X163203965Y-99532055D01*
X163337147Y-99241767D01*
X163403482Y-99029767D01*
X163406666Y-98993670D01*
X163342783Y-98844713D01*
X163185098Y-98675880D01*
X163144882Y-98644299D01*
X162858110Y-98330527D01*
X162687666Y-97913401D01*
X162651195Y-97590077D01*
X162856206Y-97590077D01*
X162866772Y-97808287D01*
X162896268Y-97909733D01*
X163066462Y-98227368D01*
X163322655Y-98479713D01*
X163614626Y-98619971D01*
X163669199Y-98629982D01*
X163777232Y-98609396D01*
X163967355Y-98550455D01*
X163972628Y-98548622D01*
X164198759Y-98392539D01*
X164384648Y-98127886D01*
X164493381Y-97815394D01*
X164507333Y-97668898D01*
X164432361Y-97445140D01*
X164239446Y-97225742D01*
X163976587Y-97048778D01*
X163691786Y-96952320D01*
X163594220Y-96944629D01*
X163322219Y-96965068D01*
X163147739Y-97050241D01*
X163007092Y-97240165D01*
X162947958Y-97350684D01*
X162856206Y-97590077D01*
X162651195Y-97590077D01*
X162644666Y-97532206D01*
X162716001Y-97174621D01*
X162912650Y-96905839D01*
X163208579Y-96738719D01*
X163577755Y-96686118D01*
X163994144Y-96760897D01*
X164114837Y-96806073D01*
X164461248Y-97031461D01*
X164680244Y-97349066D01*
X164765077Y-97732305D01*
X164708997Y-98154594D01*
X164549389Y-98517777D01*
X164395270Y-98739973D01*
X164244562Y-98893606D01*
X164185196Y-98927753D01*
X164092586Y-99002318D01*
X164018674Y-99178811D01*
X163952182Y-99487090D01*
X163935191Y-99589537D01*
X163863736Y-100010062D01*
X163777044Y-100481649D01*
X163708017Y-100832244D01*
X163651258Y-101138085D01*
X163618979Y-101374056D01*
X163616898Y-101496460D01*
X163620231Y-101503119D01*
X163712707Y-101492323D01*
X163904141Y-101419339D01*
X164050068Y-101350871D01*
X164536361Y-101198150D01*
X165039184Y-101203874D01*
X165523266Y-101365271D01*
X165716801Y-101481792D01*
X166080192Y-101820417D01*
X166300664Y-102237722D01*
X166385507Y-102748861D01*
X166386714Y-102874147D01*
X166374660Y-103113409D01*
X166337767Y-103337737D01*
X166263914Y-103584518D01*
X166140981Y-103891138D01*
X165956847Y-104294984D01*
X165859660Y-104499833D01*
X165708033Y-104817333D01*
X165920387Y-104817333D01*
X166200533Y-104867995D01*
X166490459Y-104995538D01*
X166714697Y-105163292D01*
X166765841Y-105228107D01*
X166820819Y-105404112D01*
X166763256Y-105586559D01*
X166571234Y-105805456D01*
X166302580Y-105889005D01*
X165995011Y-105826748D01*
X165958592Y-105809639D01*
X165781175Y-105728712D01*
X165707502Y-105731125D01*
X165692671Y-105819116D01*
X165692666Y-105822889D01*
X165626303Y-106025621D01*
X165422956Y-106140482D01*
X165126117Y-106172000D01*
X164851967Y-106144862D01*
X164693422Y-106052579D01*
X164660963Y-106008984D01*
X164576906Y-105904608D01*
X164474993Y-105899183D01*
X164310713Y-105974443D01*
X164072886Y-106054339D01*
X163859446Y-106064147D01*
X163687359Y-106060852D01*
X163611315Y-106098687D01*
X163512903Y-106128989D01*
X163282650Y-106153192D01*
X162958021Y-106168346D01*
X162680188Y-106172000D01*
X162283569Y-106170051D01*
X162022766Y-106159571D01*
X161864267Y-106133605D01*
X161774560Y-106085200D01*
X161720135Y-106007402D01*
X161701876Y-105969000D01*
X161647408Y-105869440D01*
X161570569Y-105812473D01*
X161563045Y-105811264D01*
X161889722Y-105811264D01*
X161930305Y-105828813D01*
X162028014Y-105833333D01*
X162193623Y-105759371D01*
X162243802Y-105664000D01*
X162560000Y-105664000D01*
X162592168Y-105801630D01*
X162636740Y-105833333D01*
X162680291Y-105765906D01*
X162674173Y-105709695D01*
X163006737Y-105709695D01*
X163078905Y-105843610D01*
X163191398Y-105917125D01*
X163204058Y-105918000D01*
X163310870Y-105875115D01*
X163322000Y-105843700D01*
X163268334Y-105738117D01*
X163153259Y-105634217D01*
X163045657Y-105588465D01*
X163021627Y-105597483D01*
X163006737Y-105709695D01*
X162674173Y-105709695D01*
X162669198Y-105664000D01*
X162620047Y-105527218D01*
X162592458Y-105494666D01*
X162566040Y-105565916D01*
X162560000Y-105664000D01*
X162243802Y-105664000D01*
X162247903Y-105656206D01*
X162272237Y-105537292D01*
X162229099Y-105538290D01*
X162109611Y-105634137D01*
X161964133Y-105753938D01*
X161889722Y-105811264D01*
X161563045Y-105811264D01*
X161432449Y-105790281D01*
X161194134Y-105795042D01*
X160920525Y-105811979D01*
X160598529Y-105841687D01*
X160349279Y-105880173D01*
X160214694Y-105920433D01*
X160202940Y-105931823D01*
X160043844Y-106137761D01*
X159805627Y-106224847D01*
X159688697Y-106215950D01*
X159486164Y-106188583D01*
X159184527Y-106166894D01*
X158894838Y-106156699D01*
X158519760Y-106131850D01*
X158289414Y-106062845D01*
X158181736Y-105934748D01*
X158177466Y-105812662D01*
X158545037Y-105812662D01*
X158596484Y-105813949D01*
X158716611Y-105710352D01*
X158730597Y-105679875D01*
X158722728Y-105589306D01*
X158645466Y-105594549D01*
X158560573Y-105684303D01*
X158547334Y-105713408D01*
X158545037Y-105812662D01*
X158177466Y-105812662D01*
X158174665Y-105732620D01*
X158184599Y-105675835D01*
X158199641Y-105514362D01*
X158133397Y-105421632D01*
X157946187Y-105348287D01*
X157913258Y-105338310D01*
X157586580Y-105166383D01*
X157219945Y-104836713D01*
X156836869Y-104378051D01*
X156659405Y-104142440D01*
X156555887Y-104487953D01*
X156452368Y-104833467D01*
X156803043Y-105133631D01*
X157007892Y-105324176D01*
X157100294Y-105465267D01*
X157106781Y-105604196D01*
X157095358Y-105654731D01*
X157045560Y-105890833D01*
X157025666Y-106045000D01*
X156983878Y-106158175D01*
X156849501Y-106217274D01*
X156657734Y-106240210D01*
X156390904Y-106235923D01*
X156172097Y-106193062D01*
X156133706Y-106176481D01*
X155967466Y-106133266D01*
X155913808Y-106171771D01*
X155795391Y-106231701D01*
X155575889Y-106258689D01*
X155315827Y-106255073D01*
X155075727Y-106223191D01*
X154916113Y-106165383D01*
X154886881Y-106132092D01*
X154834258Y-106064044D01*
X154727630Y-106074891D01*
X154521913Y-106169323D01*
X154520048Y-106170274D01*
X154315238Y-106268387D01*
X154193346Y-106287173D01*
X154086697Y-106224736D01*
X154011017Y-106156018D01*
X153880018Y-105986201D01*
X153856609Y-105779739D01*
X153863673Y-105724905D01*
X154177949Y-105724905D01*
X154238754Y-105860323D01*
X154248523Y-105866925D01*
X154364309Y-105853070D01*
X154544233Y-105755770D01*
X154735375Y-105613942D01*
X154884820Y-105466502D01*
X154940000Y-105358406D01*
X155003288Y-105260607D01*
X155088166Y-105258267D01*
X155205443Y-105355126D01*
X155219517Y-105497308D01*
X155226124Y-105836822D01*
X155312100Y-106028391D01*
X155472159Y-106071663D01*
X155580158Y-106036439D01*
X155641226Y-105941742D01*
X155672818Y-105745469D01*
X155685058Y-105558166D01*
X155709574Y-105296571D01*
X155746944Y-105119854D01*
X155779389Y-105071333D01*
X155847956Y-105143066D01*
X155941893Y-105324495D01*
X155985812Y-105431331D01*
X156154634Y-105753938D01*
X156352276Y-105928377D01*
X156566510Y-105945502D01*
X156635283Y-105916956D01*
X156780327Y-105770060D01*
X156766825Y-105574632D01*
X156596211Y-105337636D01*
X156496657Y-105243528D01*
X156190647Y-104974848D01*
X156327323Y-104227788D01*
X156390880Y-103835945D01*
X156438702Y-103456456D01*
X156462669Y-103156582D01*
X156464000Y-103095694D01*
X156483772Y-102836293D01*
X156534231Y-102680527D01*
X156602091Y-102651018D01*
X156666794Y-102750410D01*
X156697404Y-102911806D01*
X156715705Y-103165905D01*
X156718000Y-103292655D01*
X156735639Y-103553608D01*
X156807073Y-103767820D01*
X156960075Y-104004986D01*
X157046503Y-104117049D01*
X157321628Y-104415063D01*
X157643373Y-104687707D01*
X157970290Y-104906150D01*
X158260928Y-105041561D01*
X158418745Y-105071510D01*
X158527267Y-105062643D01*
X158585717Y-105010573D01*
X158605961Y-104877462D01*
X158599861Y-104625468D01*
X158594197Y-104511880D01*
X158591793Y-104198855D01*
X158616154Y-103964316D01*
X158654551Y-103862915D01*
X158744763Y-103850828D01*
X158825599Y-103982204D01*
X158889674Y-104231185D01*
X158929602Y-104571913D01*
X158939251Y-104859666D01*
X158948564Y-105167406D01*
X158971982Y-105409900D01*
X159004490Y-105535777D01*
X159005387Y-105537000D01*
X159080217Y-105686205D01*
X159114116Y-105791000D01*
X159141936Y-105836804D01*
X159146671Y-105800536D01*
X159625770Y-105800536D01*
X159639000Y-105833333D01*
X159715082Y-105914103D01*
X159728663Y-105918000D01*
X159765029Y-105852494D01*
X159766000Y-105833333D01*
X159700912Y-105751920D01*
X159676336Y-105748666D01*
X159625770Y-105800536D01*
X159146671Y-105800536D01*
X159156057Y-105728658D01*
X159156849Y-105664000D01*
X159162190Y-105522888D01*
X159455555Y-105522888D01*
X159467177Y-105573223D01*
X159512000Y-105579333D01*
X159581690Y-105548355D01*
X159568444Y-105522888D01*
X159467964Y-105512755D01*
X159455555Y-105522888D01*
X159162190Y-105522888D01*
X159165935Y-105423959D01*
X159191081Y-105102420D01*
X159227363Y-104741047D01*
X159269853Y-104381502D01*
X159313625Y-104065449D01*
X159353752Y-103834552D01*
X159385308Y-103730473D01*
X159385498Y-103730278D01*
X159467307Y-103722286D01*
X159532193Y-103855196D01*
X159572835Y-104100851D01*
X159581912Y-104431092D01*
X159580353Y-104479771D01*
X159582350Y-104840639D01*
X159627673Y-105085863D01*
X159707203Y-105241771D01*
X159777755Y-105331836D01*
X159860360Y-105391134D01*
X159988231Y-105425441D01*
X160194583Y-105440534D01*
X160512629Y-105442189D01*
X160836623Y-105438199D01*
X161230951Y-105426335D01*
X161563576Y-105404743D01*
X161797649Y-105376582D01*
X161894311Y-105347555D01*
X161922038Y-105225069D01*
X161914978Y-104971367D01*
X161874102Y-104620748D01*
X161873624Y-104617530D01*
X161834124Y-104302057D01*
X161817009Y-104054777D01*
X161824994Y-103920143D01*
X161830421Y-103910022D01*
X161916286Y-103915665D01*
X162018611Y-104044981D01*
X162113964Y-104257075D01*
X162178916Y-104511053D01*
X162180474Y-104521000D01*
X162221768Y-104784194D01*
X162257479Y-104999944D01*
X162262600Y-105029000D01*
X162290595Y-105188662D01*
X162299522Y-105243366D01*
X162377542Y-105283397D01*
X162517666Y-105305918D01*
X162626796Y-105307292D01*
X162690093Y-105265363D01*
X162697027Y-105237580D01*
X163195375Y-105237580D01*
X163215292Y-105306064D01*
X163290613Y-105365201D01*
X163416567Y-105427168D01*
X163502865Y-105353793D01*
X163535011Y-105294981D01*
X163583009Y-105147518D01*
X163564099Y-105087009D01*
X163448336Y-105102080D01*
X163319702Y-105157229D01*
X163195375Y-105237580D01*
X162697027Y-105237580D01*
X162720167Y-105144878D01*
X162729625Y-104910590D01*
X162730629Y-104710551D01*
X162748137Y-104283628D01*
X162799619Y-104017727D01*
X162886747Y-103907647D01*
X162982199Y-103927632D01*
X163040598Y-104040054D01*
X163048543Y-104285797D01*
X163032119Y-104483656D01*
X162979573Y-104976352D01*
X163037180Y-104944333D01*
X163745333Y-104944333D01*
X163787666Y-104986666D01*
X163830000Y-104944333D01*
X163787666Y-104902000D01*
X163745333Y-104944333D01*
X163037180Y-104944333D01*
X163156496Y-104878015D01*
X163923251Y-104878015D01*
X164008088Y-104860250D01*
X164024151Y-104854223D01*
X164127829Y-104787150D01*
X164128573Y-104749018D01*
X164039008Y-104758515D01*
X163976755Y-104806827D01*
X163923251Y-104878015D01*
X163156496Y-104878015D01*
X163531786Y-104669423D01*
X164084000Y-104362495D01*
X164084000Y-103917577D01*
X164096221Y-103659198D01*
X164127553Y-103478482D01*
X164153743Y-103429556D01*
X164213858Y-103474448D01*
X164280993Y-103650546D01*
X164346364Y-103920463D01*
X164401185Y-104246811D01*
X164436672Y-104592203D01*
X164440037Y-104648000D01*
X164449524Y-104915697D01*
X164426315Y-105063288D01*
X164348233Y-105139671D01*
X164193104Y-105193746D01*
X164192456Y-105193937D01*
X163960200Y-105305614D01*
X163864778Y-105448773D01*
X163919209Y-105597437D01*
X163968574Y-105640599D01*
X164101328Y-105723073D01*
X164207313Y-105723865D01*
X164329115Y-105624746D01*
X164507333Y-105410000D01*
X164675302Y-105216302D01*
X164809580Y-105093735D01*
X164856030Y-105071333D01*
X164894527Y-105148141D01*
X164894880Y-105354964D01*
X164879444Y-105501429D01*
X164822390Y-105931525D01*
X165067028Y-105903596D01*
X165214727Y-105874511D01*
X165285693Y-105799801D01*
X165306612Y-105631511D01*
X165306346Y-105473500D01*
X165317562Y-105239088D01*
X165325449Y-105205960D01*
X165575265Y-105205960D01*
X165585388Y-105248009D01*
X165697393Y-105419267D01*
X165810222Y-105492001D01*
X166040538Y-105542586D01*
X166277922Y-105541661D01*
X166458425Y-105494216D01*
X166516397Y-105436898D01*
X166475633Y-105317343D01*
X166278363Y-105213916D01*
X165937125Y-105132861D01*
X165891165Y-105125553D01*
X165672227Y-105099172D01*
X165580083Y-105120706D01*
X165575265Y-105205960D01*
X165325449Y-105205960D01*
X165352072Y-105094140D01*
X165376901Y-105071333D01*
X165425092Y-105009797D01*
X165417217Y-104965500D01*
X165432301Y-104845867D01*
X165499409Y-104620109D01*
X165600332Y-104336181D01*
X165716859Y-104042041D01*
X165830781Y-103785644D01*
X165923891Y-103614946D01*
X165936651Y-103597505D01*
X165998827Y-103433331D01*
X166040246Y-103162082D01*
X166057516Y-102845124D01*
X166047241Y-102543823D01*
X166007147Y-102322789D01*
X165879572Y-102036623D01*
X165704916Y-101843683D01*
X165448950Y-101724148D01*
X165077443Y-101658199D01*
X164825070Y-101638376D01*
X164453501Y-101622929D01*
X164214345Y-101631933D01*
X164071955Y-101669140D01*
X164000897Y-101725115D01*
X163856670Y-101833750D01*
X163777299Y-101854000D01*
X163695204Y-101922429D01*
X163661317Y-102137154D01*
X163659839Y-102213833D01*
X163617879Y-102516337D01*
X163510028Y-102866563D01*
X163361551Y-103202086D01*
X163197711Y-103460478D01*
X163124885Y-103535638D01*
X162956749Y-103608899D01*
X162857310Y-103601757D01*
X162800670Y-103548213D01*
X162827656Y-103438814D01*
X162949074Y-103241214D01*
X163004399Y-103161505D01*
X163142749Y-102951750D01*
X163224937Y-102771152D01*
X163265434Y-102562820D01*
X163278711Y-102269861D01*
X163279666Y-102079387D01*
X163286139Y-101747444D01*
X163303332Y-101479157D01*
X163327904Y-101320988D01*
X163335480Y-101303021D01*
X163383892Y-101169690D01*
X163434534Y-100944957D01*
X163445817Y-100879688D01*
X163503070Y-100585921D01*
X163582975Y-100244528D01*
X163616079Y-100118333D01*
X163713407Y-99718809D01*
X163774336Y-99377034D01*
X163795296Y-99123585D01*
X163772713Y-98989034D01*
X163749613Y-98975333D01*
X163681387Y-99049362D01*
X163595082Y-99239324D01*
X163540550Y-99401896D01*
X163452225Y-99660759D01*
X163340984Y-99885849D01*
X163178796Y-100120837D01*
X162937627Y-100409390D01*
X162781729Y-100584011D01*
X162602091Y-100772501D01*
X162467812Y-100857481D01*
X162312932Y-100863044D01*
X162122442Y-100824825D01*
X161600582Y-100755464D01*
X160961974Y-100750710D01*
X160246153Y-100809989D01*
X159913048Y-100856822D01*
X159558411Y-100911078D01*
X159333151Y-100935268D01*
X159199509Y-100926505D01*
X159119724Y-100881903D01*
X159056036Y-100798577D01*
X159051023Y-100790941D01*
X158962937Y-100610041D01*
X158860793Y-100334161D01*
X158791503Y-100109009D01*
X158695784Y-99791010D01*
X158596999Y-99500335D01*
X158540456Y-99356333D01*
X158453610Y-99103299D01*
X158380623Y-98800316D01*
X158369587Y-98738169D01*
X158311156Y-98509676D01*
X158237490Y-98407243D01*
X158212659Y-98406584D01*
X158164971Y-98503616D01*
X158140932Y-98727521D01*
X158138258Y-99037837D01*
X158154665Y-99394102D01*
X158187872Y-99755854D01*
X158235595Y-100082628D01*
X158295550Y-100333965D01*
X158325785Y-100411410D01*
X158393984Y-100578246D01*
X158476628Y-100811732D01*
X158485163Y-100837675D01*
X158537034Y-101059449D01*
X158498679Y-101227834D01*
X158395774Y-101385152D01*
X158240011Y-101734106D01*
X158209058Y-102178188D01*
X158304120Y-102695628D01*
X158364352Y-102991417D01*
X158333343Y-103150591D01*
X158327471Y-103157062D01*
X158242974Y-103199988D01*
X158161994Y-103135136D01*
X158071974Y-102943389D01*
X157960355Y-102605625D01*
X157956150Y-102591741D01*
X157764242Y-102144099D01*
X157492506Y-101761754D01*
X157168116Y-101466924D01*
X156818246Y-101281826D01*
X156470072Y-101228677D01*
X156320007Y-101254065D01*
X155958661Y-101388268D01*
X155741499Y-101548778D01*
X155655386Y-101705743D01*
X155550207Y-101926714D01*
X155459152Y-102053699D01*
X155405675Y-102137470D01*
X155369273Y-102264111D01*
X155347866Y-102460901D01*
X155339376Y-102755117D01*
X155341723Y-103174036D01*
X155347831Y-103514326D01*
X155354183Y-103977017D01*
X155353885Y-104387435D01*
X155347414Y-104712172D01*
X155335246Y-104917816D01*
X155327146Y-104965627D01*
X155228885Y-105074055D01*
X155005023Y-105122760D01*
X154933310Y-105126811D01*
X154564762Y-105209032D01*
X154382495Y-105332070D01*
X154230107Y-105531878D01*
X154177949Y-105724905D01*
X153863673Y-105724905D01*
X153869155Y-105682362D01*
X154007139Y-105320908D01*
X154287186Y-105049396D01*
X154678629Y-104878825D01*
X155067000Y-104768934D01*
X155038385Y-103586633D01*
X155031156Y-103035243D01*
X155041278Y-102621659D01*
X155070687Y-102315058D01*
X155121316Y-102084619D01*
X155135338Y-102041533D01*
X155360540Y-101540942D01*
X155639345Y-101197350D01*
X155979946Y-101004623D01*
X156390536Y-100956628D01*
X156561243Y-100974233D01*
X156878190Y-101037885D01*
X157125753Y-101136804D01*
X157364960Y-101303515D01*
X157628166Y-101542849D01*
X157835627Y-101729299D01*
X157950109Y-101795269D01*
X157987814Y-101749709D01*
X157988000Y-101741649D01*
X158032860Y-101562593D01*
X158120149Y-101392357D01*
X158199576Y-101224477D01*
X158201732Y-101035050D01*
X158157786Y-100839684D01*
X158078043Y-100518378D01*
X158020799Y-100213057D01*
X157978802Y-99870908D01*
X157944800Y-99439118D01*
X157928251Y-99168260D01*
X157904452Y-98799232D01*
X157875472Y-98558062D01*
X157827863Y-98403475D01*
X157748176Y-98294196D01*
X157622963Y-98188953D01*
X157604566Y-98174883D01*
X157385252Y-97940889D01*
X157206993Y-97631649D01*
X157096676Y-97307977D01*
X157092530Y-97233733D01*
X157327104Y-97233733D01*
X157432604Y-97513620D01*
X157579204Y-97723688D01*
X157748686Y-97923505D01*
X157885350Y-98017226D01*
X158056481Y-98035334D01*
X158232029Y-98019430D01*
X158583138Y-97929301D01*
X158767825Y-97789011D01*
X158872752Y-97572238D01*
X158917091Y-97302964D01*
X158892075Y-97062605D01*
X158854536Y-96983711D01*
X158743362Y-96879986D01*
X158561850Y-96750401D01*
X158558081Y-96747996D01*
X158377256Y-96657621D01*
X158194792Y-96645531D01*
X157965414Y-96694328D01*
X157590286Y-96832676D01*
X157378591Y-97009615D01*
X157327104Y-97233733D01*
X157092530Y-97233733D01*
X157081188Y-97030688D01*
X157086856Y-97003906D01*
X157179216Y-96803623D01*
X157335029Y-96589955D01*
X157346914Y-96576901D01*
X157498608Y-96441774D01*
X157670765Y-96373762D01*
X157927722Y-96351571D01*
X158030495Y-96350666D01*
X158344087Y-96372801D01*
X158344087Y-96372801D01*
G37*
X158344087Y-96372801D02*
X158625032Y-96429374D01*
X158741500Y-96473271D01*
X159007981Y-96696336D01*
X159157965Y-97002722D01*
X159189348Y-97350896D01*
X159100027Y-97699328D01*
X158887898Y-98006486D01*
X158822189Y-98066365D01*
X158674476Y-98210012D01*
X158590603Y-98362477D01*
X158570279Y-98556185D01*
X158613213Y-98823563D01*
X158719114Y-99197037D01*
X158809519Y-99475786D01*
X158993405Y-99984361D01*
X159158684Y-100338203D01*
X159313282Y-100549818D01*
X159465125Y-100631714D01*
X159540007Y-100628481D01*
X160350923Y-100481272D01*
X161033208Y-100422578D01*
X161602282Y-100451898D01*
X162016211Y-100548250D01*
X162409674Y-100681834D01*
X162655667Y-100400084D01*
X162837991Y-100158469D01*
X163029168Y-99853374D01*
X163203965Y-99532055D01*
X163337147Y-99241767D01*
X163403482Y-99029767D01*
X163406666Y-98993670D01*
X163342783Y-98844713D01*
X163185098Y-98675880D01*
X163144882Y-98644299D01*
X162858110Y-98330527D01*
X162687666Y-97913401D01*
X162651195Y-97590077D01*
X162856206Y-97590077D01*
X162866772Y-97808287D01*
X162896268Y-97909733D01*
X163066462Y-98227368D01*
X163322655Y-98479713D01*
X163614626Y-98619971D01*
X163669199Y-98629982D01*
X163777232Y-98609396D01*
X163967355Y-98550455D01*
X163972628Y-98548622D01*
X164198759Y-98392539D01*
X164384648Y-98127886D01*
X164493381Y-97815394D01*
X164507333Y-97668898D01*
X164432361Y-97445140D01*
X164239446Y-97225742D01*
X163976587Y-97048778D01*
X163691786Y-96952320D01*
X163594220Y-96944629D01*
X163322219Y-96965068D01*
X163147739Y-97050241D01*
X163007092Y-97240165D01*
X162947958Y-97350684D01*
X162856206Y-97590077D01*
X162651195Y-97590077D01*
X162644666Y-97532206D01*
X162716001Y-97174621D01*
X162912650Y-96905839D01*
X163208579Y-96738719D01*
X163577755Y-96686118D01*
X163994144Y-96760897D01*
X164114837Y-96806073D01*
X164461248Y-97031461D01*
X164680244Y-97349066D01*
X164765077Y-97732305D01*
X164708997Y-98154594D01*
X164549389Y-98517777D01*
X164395270Y-98739973D01*
X164244562Y-98893606D01*
X164185196Y-98927753D01*
X164092586Y-99002318D01*
X164018674Y-99178811D01*
X163952182Y-99487090D01*
X163935191Y-99589537D01*
X163863736Y-100010062D01*
X163777044Y-100481649D01*
X163708017Y-100832244D01*
X163651258Y-101138085D01*
X163618979Y-101374056D01*
X163616898Y-101496460D01*
X163620231Y-101503119D01*
X163712707Y-101492323D01*
X163904141Y-101419339D01*
X164050068Y-101350871D01*
X164536361Y-101198150D01*
X165039184Y-101203874D01*
X165523266Y-101365271D01*
X165716801Y-101481792D01*
X166080192Y-101820417D01*
X166300664Y-102237722D01*
X166385507Y-102748861D01*
X166386714Y-102874147D01*
X166374660Y-103113409D01*
X166337767Y-103337737D01*
X166263914Y-103584518D01*
X166140981Y-103891138D01*
X165956847Y-104294984D01*
X165859660Y-104499833D01*
X165708033Y-104817333D01*
X165920387Y-104817333D01*
X166200533Y-104867995D01*
X166490459Y-104995538D01*
X166714697Y-105163292D01*
X166765841Y-105228107D01*
X166820819Y-105404112D01*
X166763256Y-105586559D01*
X166571234Y-105805456D01*
X166302580Y-105889005D01*
X165995011Y-105826748D01*
X165958592Y-105809639D01*
X165781175Y-105728712D01*
X165707502Y-105731125D01*
X165692671Y-105819116D01*
X165692666Y-105822889D01*
X165626303Y-106025621D01*
X165422956Y-106140482D01*
X165126117Y-106172000D01*
X164851967Y-106144862D01*
X164693422Y-106052579D01*
X164660963Y-106008984D01*
X164576906Y-105904608D01*
X164474993Y-105899183D01*
X164310713Y-105974443D01*
X164072886Y-106054339D01*
X163859446Y-106064147D01*
X163687359Y-106060852D01*
X163611315Y-106098687D01*
X163512903Y-106128989D01*
X163282650Y-106153192D01*
X162958021Y-106168346D01*
X162680188Y-106172000D01*
X162283569Y-106170051D01*
X162022766Y-106159571D01*
X161864267Y-106133605D01*
X161774560Y-106085200D01*
X161720135Y-106007402D01*
X161701876Y-105969000D01*
X161647408Y-105869440D01*
X161570569Y-105812473D01*
X161563045Y-105811264D01*
X161889722Y-105811264D01*
X161930305Y-105828813D01*
X162028014Y-105833333D01*
X162193623Y-105759371D01*
X162243802Y-105664000D01*
X162560000Y-105664000D01*
X162592168Y-105801630D01*
X162636740Y-105833333D01*
X162680291Y-105765906D01*
X162674173Y-105709695D01*
X163006737Y-105709695D01*
X163078905Y-105843610D01*
X163191398Y-105917125D01*
X163204058Y-105918000D01*
X163310870Y-105875115D01*
X163322000Y-105843700D01*
X163268334Y-105738117D01*
X163153259Y-105634217D01*
X163045657Y-105588465D01*
X163021627Y-105597483D01*
X163006737Y-105709695D01*
X162674173Y-105709695D01*
X162669198Y-105664000D01*
X162620047Y-105527218D01*
X162592458Y-105494666D01*
X162566040Y-105565916D01*
X162560000Y-105664000D01*
X162243802Y-105664000D01*
X162247903Y-105656206D01*
X162272237Y-105537292D01*
X162229099Y-105538290D01*
X162109611Y-105634137D01*
X161964133Y-105753938D01*
X161889722Y-105811264D01*
X161563045Y-105811264D01*
X161432449Y-105790281D01*
X161194134Y-105795042D01*
X160920525Y-105811979D01*
X160598529Y-105841687D01*
X160349279Y-105880173D01*
X160214694Y-105920433D01*
X160202940Y-105931823D01*
X160043844Y-106137761D01*
X159805627Y-106224847D01*
X159688697Y-106215950D01*
X159486164Y-106188583D01*
X159184527Y-106166894D01*
X158894838Y-106156699D01*
X158519760Y-106131850D01*
X158289414Y-106062845D01*
X158181736Y-105934748D01*
X158177466Y-105812662D01*
X158545037Y-105812662D01*
X158596484Y-105813949D01*
X158716611Y-105710352D01*
X158730597Y-105679875D01*
X158722728Y-105589306D01*
X158645466Y-105594549D01*
X158560573Y-105684303D01*
X158547334Y-105713408D01*
X158545037Y-105812662D01*
X158177466Y-105812662D01*
X158174665Y-105732620D01*
X158184599Y-105675835D01*
X158199641Y-105514362D01*
X158133397Y-105421632D01*
X157946187Y-105348287D01*
X157913258Y-105338310D01*
X157586580Y-105166383D01*
X157219945Y-104836713D01*
X156836869Y-104378051D01*
X156659405Y-104142440D01*
X156555887Y-104487953D01*
X156452368Y-104833467D01*
X156803043Y-105133631D01*
X157007892Y-105324176D01*
X157100294Y-105465267D01*
X157106781Y-105604196D01*
X157095358Y-105654731D01*
X157045560Y-105890833D01*
X157025666Y-106045000D01*
X156983878Y-106158175D01*
X156849501Y-106217274D01*
X156657734Y-106240210D01*
X156390904Y-106235923D01*
X156172097Y-106193062D01*
X156133706Y-106176481D01*
X155967466Y-106133266D01*
X155913808Y-106171771D01*
X155795391Y-106231701D01*
X155575889Y-106258689D01*
X155315827Y-106255073D01*
X155075727Y-106223191D01*
X154916113Y-106165383D01*
X154886881Y-106132092D01*
X154834258Y-106064044D01*
X154727630Y-106074891D01*
X154521913Y-106169323D01*
X154520048Y-106170274D01*
X154315238Y-106268387D01*
X154193346Y-106287173D01*
X154086697Y-106224736D01*
X154011017Y-106156018D01*
X153880018Y-105986201D01*
X153856609Y-105779739D01*
X153863673Y-105724905D01*
X154177949Y-105724905D01*
X154238754Y-105860323D01*
X154248523Y-105866925D01*
X154364309Y-105853070D01*
X154544233Y-105755770D01*
X154735375Y-105613942D01*
X154884820Y-105466502D01*
X154940000Y-105358406D01*
X155003288Y-105260607D01*
X155088166Y-105258267D01*
X155205443Y-105355126D01*
X155219517Y-105497308D01*
X155226124Y-105836822D01*
X155312100Y-106028391D01*
X155472159Y-106071663D01*
X155580158Y-106036439D01*
X155641226Y-105941742D01*
X155672818Y-105745469D01*
X155685058Y-105558166D01*
X155709574Y-105296571D01*
X155746944Y-105119854D01*
X155779389Y-105071333D01*
X155847956Y-105143066D01*
X155941893Y-105324495D01*
X155985812Y-105431331D01*
X156154634Y-105753938D01*
X156352276Y-105928377D01*
X156566510Y-105945502D01*
X156635283Y-105916956D01*
X156780327Y-105770060D01*
X156766825Y-105574632D01*
X156596211Y-105337636D01*
X156496657Y-105243528D01*
X156190647Y-104974848D01*
X156327323Y-104227788D01*
X156390880Y-103835945D01*
X156438702Y-103456456D01*
X156462669Y-103156582D01*
X156464000Y-103095694D01*
X156483772Y-102836293D01*
X156534231Y-102680527D01*
X156602091Y-102651018D01*
X156666794Y-102750410D01*
X156697404Y-102911806D01*
X156715705Y-103165905D01*
X156718000Y-103292655D01*
X156735639Y-103553608D01*
X156807073Y-103767820D01*
X156960075Y-104004986D01*
X157046503Y-104117049D01*
X157321628Y-104415063D01*
X157643373Y-104687707D01*
X157970290Y-104906150D01*
X158260928Y-105041561D01*
X158418745Y-105071510D01*
X158527267Y-105062643D01*
X158585717Y-105010573D01*
X158605961Y-104877462D01*
X158599861Y-104625468D01*
X158594197Y-104511880D01*
X158591793Y-104198855D01*
X158616154Y-103964316D01*
X158654551Y-103862915D01*
X158744763Y-103850828D01*
X158825599Y-103982204D01*
X158889674Y-104231185D01*
X158929602Y-104571913D01*
X158939251Y-104859666D01*
X158948564Y-105167406D01*
X158971982Y-105409900D01*
X159004490Y-105535777D01*
X159005387Y-105537000D01*
X159080217Y-105686205D01*
X159114116Y-105791000D01*
X159141936Y-105836804D01*
X159146671Y-105800536D01*
X159625770Y-105800536D01*
X159639000Y-105833333D01*
X159715082Y-105914103D01*
X159728663Y-105918000D01*
X159765029Y-105852494D01*
X159766000Y-105833333D01*
X159700912Y-105751920D01*
X159676336Y-105748666D01*
X159625770Y-105800536D01*
X159146671Y-105800536D01*
X159156057Y-105728658D01*
X159156849Y-105664000D01*
X159162190Y-105522888D01*
X159455555Y-105522888D01*
X159467177Y-105573223D01*
X159512000Y-105579333D01*
X159581690Y-105548355D01*
X159568444Y-105522888D01*
X159467964Y-105512755D01*
X159455555Y-105522888D01*
X159162190Y-105522888D01*
X159165935Y-105423959D01*
X159191081Y-105102420D01*
X159227363Y-104741047D01*
X159269853Y-104381502D01*
X159313625Y-104065449D01*
X159353752Y-103834552D01*
X159385308Y-103730473D01*
X159385498Y-103730278D01*
X159467307Y-103722286D01*
X159532193Y-103855196D01*
X159572835Y-104100851D01*
X159581912Y-104431092D01*
X159580353Y-104479771D01*
X159582350Y-104840639D01*
X159627673Y-105085863D01*
X159707203Y-105241771D01*
X159777755Y-105331836D01*
X159860360Y-105391134D01*
X159988231Y-105425441D01*
X160194583Y-105440534D01*
X160512629Y-105442189D01*
X160836623Y-105438199D01*
X161230951Y-105426335D01*
X161563576Y-105404743D01*
X161797649Y-105376582D01*
X161894311Y-105347555D01*
X161922038Y-105225069D01*
X161914978Y-104971367D01*
X161874102Y-104620748D01*
X161873624Y-104617530D01*
X161834124Y-104302057D01*
X161817009Y-104054777D01*
X161824994Y-103920143D01*
X161830421Y-103910022D01*
X161916286Y-103915665D01*
X162018611Y-104044981D01*
X162113964Y-104257075D01*
X162178916Y-104511053D01*
X162180474Y-104521000D01*
X162221768Y-104784194D01*
X162257479Y-104999944D01*
X162262600Y-105029000D01*
X162290595Y-105188662D01*
X162299522Y-105243366D01*
X162377542Y-105283397D01*
X162517666Y-105305918D01*
X162626796Y-105307292D01*
X162690093Y-105265363D01*
X162697027Y-105237580D01*
X163195375Y-105237580D01*
X163215292Y-105306064D01*
X163290613Y-105365201D01*
X163416567Y-105427168D01*
X163502865Y-105353793D01*
X163535011Y-105294981D01*
X163583009Y-105147518D01*
X163564099Y-105087009D01*
X163448336Y-105102080D01*
X163319702Y-105157229D01*
X163195375Y-105237580D01*
X162697027Y-105237580D01*
X162720167Y-105144878D01*
X162729625Y-104910590D01*
X162730629Y-104710551D01*
X162748137Y-104283628D01*
X162799619Y-104017727D01*
X162886747Y-103907647D01*
X162982199Y-103927632D01*
X163040598Y-104040054D01*
X163048543Y-104285797D01*
X163032119Y-104483656D01*
X162979573Y-104976352D01*
X163037180Y-104944333D01*
X163745333Y-104944333D01*
X163787666Y-104986666D01*
X163830000Y-104944333D01*
X163787666Y-104902000D01*
X163745333Y-104944333D01*
X163037180Y-104944333D01*
X163156496Y-104878015D01*
X163923251Y-104878015D01*
X164008088Y-104860250D01*
X164024151Y-104854223D01*
X164127829Y-104787150D01*
X164128573Y-104749018D01*
X164039008Y-104758515D01*
X163976755Y-104806827D01*
X163923251Y-104878015D01*
X163156496Y-104878015D01*
X163531786Y-104669423D01*
X164084000Y-104362495D01*
X164084000Y-103917577D01*
X164096221Y-103659198D01*
X164127553Y-103478482D01*
X164153743Y-103429556D01*
X164213858Y-103474448D01*
X164280993Y-103650546D01*
X164346364Y-103920463D01*
X164401185Y-104246811D01*
X164436672Y-104592203D01*
X164440037Y-104648000D01*
X164449524Y-104915697D01*
X164426315Y-105063288D01*
X164348233Y-105139671D01*
X164193104Y-105193746D01*
X164192456Y-105193937D01*
X163960200Y-105305614D01*
X163864778Y-105448773D01*
X163919209Y-105597437D01*
X163968574Y-105640599D01*
X164101328Y-105723073D01*
X164207313Y-105723865D01*
X164329115Y-105624746D01*
X164507333Y-105410000D01*
X164675302Y-105216302D01*
X164809580Y-105093735D01*
X164856030Y-105071333D01*
X164894527Y-105148141D01*
X164894880Y-105354964D01*
X164879444Y-105501429D01*
X164822390Y-105931525D01*
X165067028Y-105903596D01*
X165214727Y-105874511D01*
X165285693Y-105799801D01*
X165306612Y-105631511D01*
X165306346Y-105473500D01*
X165317562Y-105239088D01*
X165325449Y-105205960D01*
X165575265Y-105205960D01*
X165585388Y-105248009D01*
X165697393Y-105419267D01*
X165810222Y-105492001D01*
X166040538Y-105542586D01*
X166277922Y-105541661D01*
X166458425Y-105494216D01*
X166516397Y-105436898D01*
X166475633Y-105317343D01*
X166278363Y-105213916D01*
X165937125Y-105132861D01*
X165891165Y-105125553D01*
X165672227Y-105099172D01*
X165580083Y-105120706D01*
X165575265Y-105205960D01*
X165325449Y-105205960D01*
X165352072Y-105094140D01*
X165376901Y-105071333D01*
X165425092Y-105009797D01*
X165417217Y-104965500D01*
X165432301Y-104845867D01*
X165499409Y-104620109D01*
X165600332Y-104336181D01*
X165716859Y-104042041D01*
X165830781Y-103785644D01*
X165923891Y-103614946D01*
X165936651Y-103597505D01*
X165998827Y-103433331D01*
X166040246Y-103162082D01*
X166057516Y-102845124D01*
X166047241Y-102543823D01*
X166007147Y-102322789D01*
X165879572Y-102036623D01*
X165704916Y-101843683D01*
X165448950Y-101724148D01*
X165077443Y-101658199D01*
X164825070Y-101638376D01*
X164453501Y-101622929D01*
X164214345Y-101631933D01*
X164071955Y-101669140D01*
X164000897Y-101725115D01*
X163856670Y-101833750D01*
X163777299Y-101854000D01*
X163695204Y-101922429D01*
X163661317Y-102137154D01*
X163659839Y-102213833D01*
X163617879Y-102516337D01*
X163510028Y-102866563D01*
X163361551Y-103202086D01*
X163197711Y-103460478D01*
X163124885Y-103535638D01*
X162956749Y-103608899D01*
X162857310Y-103601757D01*
X162800670Y-103548213D01*
X162827656Y-103438814D01*
X162949074Y-103241214D01*
X163004399Y-103161505D01*
X163142749Y-102951750D01*
X163224937Y-102771152D01*
X163265434Y-102562820D01*
X163278711Y-102269861D01*
X163279666Y-102079387D01*
X163286139Y-101747444D01*
X163303332Y-101479157D01*
X163327904Y-101320988D01*
X163335480Y-101303021D01*
X163383892Y-101169690D01*
X163434534Y-100944957D01*
X163445817Y-100879688D01*
X163503070Y-100585921D01*
X163582975Y-100244528D01*
X163616079Y-100118333D01*
X163713407Y-99718809D01*
X163774336Y-99377034D01*
X163795296Y-99123585D01*
X163772713Y-98989034D01*
X163749613Y-98975333D01*
X163681387Y-99049362D01*
X163595082Y-99239324D01*
X163540550Y-99401896D01*
X163452225Y-99660759D01*
X163340984Y-99885849D01*
X163178796Y-100120837D01*
X162937627Y-100409390D01*
X162781729Y-100584011D01*
X162602091Y-100772501D01*
X162467812Y-100857481D01*
X162312932Y-100863044D01*
X162122442Y-100824825D01*
X161600582Y-100755464D01*
X160961974Y-100750710D01*
X160246153Y-100809989D01*
X159913048Y-100856822D01*
X159558411Y-100911078D01*
X159333151Y-100935268D01*
X159199509Y-100926505D01*
X159119724Y-100881903D01*
X159056036Y-100798577D01*
X159051023Y-100790941D01*
X158962937Y-100610041D01*
X158860793Y-100334161D01*
X158791503Y-100109009D01*
X158695784Y-99791010D01*
X158596999Y-99500335D01*
X158540456Y-99356333D01*
X158453610Y-99103299D01*
X158380623Y-98800316D01*
X158369587Y-98738169D01*
X158311156Y-98509676D01*
X158237490Y-98407243D01*
X158212659Y-98406584D01*
X158164971Y-98503616D01*
X158140932Y-98727521D01*
X158138258Y-99037837D01*
X158154665Y-99394102D01*
X158187872Y-99755854D01*
X158235595Y-100082628D01*
X158295550Y-100333965D01*
X158325785Y-100411410D01*
X158393984Y-100578246D01*
X158476628Y-100811732D01*
X158485163Y-100837675D01*
X158537034Y-101059449D01*
X158498679Y-101227834D01*
X158395774Y-101385152D01*
X158240011Y-101734106D01*
X158209058Y-102178188D01*
X158304120Y-102695628D01*
X158364352Y-102991417D01*
X158333343Y-103150591D01*
X158327471Y-103157062D01*
X158242974Y-103199988D01*
X158161994Y-103135136D01*
X158071974Y-102943389D01*
X157960355Y-102605625D01*
X157956150Y-102591741D01*
X157764242Y-102144099D01*
X157492506Y-101761754D01*
X157168116Y-101466924D01*
X156818246Y-101281826D01*
X156470072Y-101228677D01*
X156320007Y-101254065D01*
X155958661Y-101388268D01*
X155741499Y-101548778D01*
X155655386Y-101705743D01*
X155550207Y-101926714D01*
X155459152Y-102053699D01*
X155405675Y-102137470D01*
X155369273Y-102264111D01*
X155347866Y-102460901D01*
X155339376Y-102755117D01*
X155341723Y-103174036D01*
X155347831Y-103514326D01*
X155354183Y-103977017D01*
X155353885Y-104387435D01*
X155347414Y-104712172D01*
X155335246Y-104917816D01*
X155327146Y-104965627D01*
X155228885Y-105074055D01*
X155005023Y-105122760D01*
X154933310Y-105126811D01*
X154564762Y-105209032D01*
X154382495Y-105332070D01*
X154230107Y-105531878D01*
X154177949Y-105724905D01*
X153863673Y-105724905D01*
X153869155Y-105682362D01*
X154007139Y-105320908D01*
X154287186Y-105049396D01*
X154678629Y-104878825D01*
X155067000Y-104768934D01*
X155038385Y-103586633D01*
X155031156Y-103035243D01*
X155041278Y-102621659D01*
X155070687Y-102315058D01*
X155121316Y-102084619D01*
X155135338Y-102041533D01*
X155360540Y-101540942D01*
X155639345Y-101197350D01*
X155979946Y-101004623D01*
X156390536Y-100956628D01*
X156561243Y-100974233D01*
X156878190Y-101037885D01*
X157125753Y-101136804D01*
X157364960Y-101303515D01*
X157628166Y-101542849D01*
X157835627Y-101729299D01*
X157950109Y-101795269D01*
X157987814Y-101749709D01*
X157988000Y-101741649D01*
X158032860Y-101562593D01*
X158120149Y-101392357D01*
X158199576Y-101224477D01*
X158201732Y-101035050D01*
X158157786Y-100839684D01*
X158078043Y-100518378D01*
X158020799Y-100213057D01*
X157978802Y-99870908D01*
X157944800Y-99439118D01*
X157928251Y-99168260D01*
X157904452Y-98799232D01*
X157875472Y-98558062D01*
X157827863Y-98403475D01*
X157748176Y-98294196D01*
X157622963Y-98188953D01*
X157604566Y-98174883D01*
X157385252Y-97940889D01*
X157206993Y-97631649D01*
X157096676Y-97307977D01*
X157092530Y-97233733D01*
X157327104Y-97233733D01*
X157432604Y-97513620D01*
X157579204Y-97723688D01*
X157748686Y-97923505D01*
X157885350Y-98017226D01*
X158056481Y-98035334D01*
X158232029Y-98019430D01*
X158583138Y-97929301D01*
X158767825Y-97789011D01*
X158872752Y-97572238D01*
X158917091Y-97302964D01*
X158892075Y-97062605D01*
X158854536Y-96983711D01*
X158743362Y-96879986D01*
X158561850Y-96750401D01*
X158558081Y-96747996D01*
X158377256Y-96657621D01*
X158194792Y-96645531D01*
X157965414Y-96694328D01*
X157590286Y-96832676D01*
X157378591Y-97009615D01*
X157327104Y-97233733D01*
X157092530Y-97233733D01*
X157081188Y-97030688D01*
X157086856Y-97003906D01*
X157179216Y-96803623D01*
X157335029Y-96589955D01*
X157346914Y-96576901D01*
X157498608Y-96441774D01*
X157670765Y-96373762D01*
X157927722Y-96351571D01*
X158030495Y-96350666D01*
X158344087Y-96372801D01*
G36*
X160443333Y-101404323D02*
G01*
X160876959Y-101428275D01*
X161345677Y-101488698D01*
X161808366Y-101576551D01*
X162223905Y-101682791D01*
X162551174Y-101798375D01*
X162744921Y-101910440D01*
X162878182Y-102135024D01*
X162864104Y-102412897D01*
X162789833Y-102581117D01*
X162606647Y-102851092D01*
X162391219Y-103104176D01*
X162182612Y-103299577D01*
X162019888Y-103396505D01*
X162006188Y-103399447D01*
X161811012Y-103454385D01*
X161733594Y-103491839D01*
X161554057Y-103547470D01*
X161257556Y-103584290D01*
X160895475Y-103601749D01*
X160519196Y-103599295D01*
X160180101Y-103576380D01*
X159929572Y-103532451D01*
X159871833Y-103511787D01*
X159689605Y-103408298D01*
X159598916Y-103317006D01*
X159596666Y-103305703D01*
X159525425Y-103225044D01*
X159353031Y-103140356D01*
X159343519Y-103136984D01*
X159048265Y-102979232D01*
X158813045Y-102753543D01*
X158680321Y-102505895D01*
X158665333Y-102402615D01*
X158666241Y-102396663D01*
X158924572Y-102396663D01*
X158954524Y-102508073D01*
X159035966Y-102531333D01*
X159188070Y-102590938D01*
X159246561Y-102644550D01*
X159372199Y-102713824D01*
X159615248Y-102790410D01*
X159925345Y-102858715D01*
X159955428Y-102864028D01*
X160282857Y-102925415D01*
X160561873Y-102986262D01*
X160734595Y-103033892D01*
X160739666Y-103035800D01*
X160952054Y-103058884D01*
X161105011Y-103027989D01*
X161347023Y-102970508D01*
X161532935Y-102954666D01*
X161760163Y-102907192D01*
X162024132Y-102785766D01*
X162277085Y-102621881D01*
X162471263Y-102447031D01*
X162558908Y-102292709D01*
X162560000Y-102277382D01*
X162476572Y-102125739D01*
X162229997Y-101990352D01*
X161825839Y-101872961D01*
X161269660Y-101775306D01*
X160769068Y-101717307D01*
X160171056Y-101692359D01*
X159703443Y-101749263D01*
X159346372Y-101891790D01*
X159177384Y-102019549D01*
X159001905Y-102222798D01*
X158924572Y-102396663D01*
X158666241Y-102396663D01*
X158706372Y-102133679D01*
X158847577Y-101916748D01*
X159116079Y-101717691D01*
X159282206Y-101626631D01*
X159534489Y-101509673D01*
X159767746Y-101441499D01*
X160043741Y-101410285D01*
X160424239Y-101404205D01*
X160443333Y-101404323D01*
X160443333Y-101404323D01*
G37*
X160443333Y-101404323D02*
X160876959Y-101428275D01*
X161345677Y-101488698D01*
X161808366Y-101576551D01*
X162223905Y-101682791D01*
X162551174Y-101798375D01*
X162744921Y-101910440D01*
X162878182Y-102135024D01*
X162864104Y-102412897D01*
X162789833Y-102581117D01*
X162606647Y-102851092D01*
X162391219Y-103104176D01*
X162182612Y-103299577D01*
X162019888Y-103396505D01*
X162006188Y-103399447D01*
X161811012Y-103454385D01*
X161733594Y-103491839D01*
X161554057Y-103547470D01*
X161257556Y-103584290D01*
X160895475Y-103601749D01*
X160519196Y-103599295D01*
X160180101Y-103576380D01*
X159929572Y-103532451D01*
X159871833Y-103511787D01*
X159689605Y-103408298D01*
X159598916Y-103317006D01*
X159596666Y-103305703D01*
X159525425Y-103225044D01*
X159353031Y-103140356D01*
X159343519Y-103136984D01*
X159048265Y-102979232D01*
X158813045Y-102753543D01*
X158680321Y-102505895D01*
X158665333Y-102402615D01*
X158666241Y-102396663D01*
X158924572Y-102396663D01*
X158954524Y-102508073D01*
X159035966Y-102531333D01*
X159188070Y-102590938D01*
X159246561Y-102644550D01*
X159372199Y-102713824D01*
X159615248Y-102790410D01*
X159925345Y-102858715D01*
X159955428Y-102864028D01*
X160282857Y-102925415D01*
X160561873Y-102986262D01*
X160734595Y-103033892D01*
X160739666Y-103035800D01*
X160952054Y-103058884D01*
X161105011Y-103027989D01*
X161347023Y-102970508D01*
X161532935Y-102954666D01*
X161760163Y-102907192D01*
X162024132Y-102785766D01*
X162277085Y-102621881D01*
X162471263Y-102447031D01*
X162558908Y-102292709D01*
X162560000Y-102277382D01*
X162476572Y-102125739D01*
X162229997Y-101990352D01*
X161825839Y-101872961D01*
X161269660Y-101775306D01*
X160769068Y-101717307D01*
X160171056Y-101692359D01*
X159703443Y-101749263D01*
X159346372Y-101891790D01*
X159177384Y-102019549D01*
X159001905Y-102222798D01*
X158924572Y-102396663D01*
X158666241Y-102396663D01*
X158706372Y-102133679D01*
X158847577Y-101916748D01*
X159116079Y-101717691D01*
X159282206Y-101626631D01*
X159534489Y-101509673D01*
X159767746Y-101441499D01*
X160043741Y-101410285D01*
X160424239Y-101404205D01*
X160443333Y-101404323D01*
G36*
X163712963Y-97432649D02*
G01*
X163831196Y-97580271D01*
X163864434Y-97734044D01*
X163859677Y-97750116D01*
X163746085Y-97854673D01*
X163580737Y-97862727D01*
X163450671Y-97774783D01*
X163437284Y-97747666D01*
X163421008Y-97571514D01*
X163479099Y-97419311D01*
X163567295Y-97366666D01*
X163712963Y-97432649D01*
X163712963Y-97432649D01*
G37*
X163712963Y-97432649D02*
X163831196Y-97580271D01*
X163864434Y-97734044D01*
X163859677Y-97750116D01*
X163746085Y-97854673D01*
X163580737Y-97862727D01*
X163450671Y-97774783D01*
X163437284Y-97747666D01*
X163421008Y-97571514D01*
X163479099Y-97419311D01*
X163567295Y-97366666D01*
X163712963Y-97432649D01*
G36*
X158267678Y-97105078D02*
G01*
X158362524Y-97266818D01*
X158369000Y-97333560D01*
X158303963Y-97469624D01*
X158152534Y-97520294D01*
X157980236Y-97474982D01*
X157903197Y-97408836D01*
X157837428Y-97283541D01*
X157902587Y-97162949D01*
X157933361Y-97131019D01*
X158105072Y-97050722D01*
X158267678Y-97105078D01*
X158267678Y-97105078D01*
G37*
X158267678Y-97105078D02*
X158362524Y-97266818D01*
X158369000Y-97333560D01*
X158303963Y-97469624D01*
X158152534Y-97520294D01*
X157980236Y-97474982D01*
X157903197Y-97408836D01*
X157837428Y-97283541D01*
X157902587Y-97162949D01*
X157933361Y-97131019D01*
X158105072Y-97050722D01*
X158267678Y-97105078D01*
G36*
X159496105Y-102053472D02*
G01*
X159749489Y-102110655D01*
X160132498Y-102215236D01*
X160249441Y-102248534D01*
X160561848Y-102328979D01*
X160788698Y-102354868D01*
X161003776Y-102328944D01*
X161180774Y-102283173D01*
X161454997Y-102212733D01*
X161684715Y-102167000D01*
X161755666Y-102158872D01*
X161920360Y-102183705D01*
X161942562Y-102266594D01*
X161828229Y-102384129D01*
X161676068Y-102471642D01*
X161302493Y-102593132D01*
X160847013Y-102657571D01*
X160386307Y-102659701D01*
X159997052Y-102594265D01*
X159977666Y-102588083D01*
X159588426Y-102440403D01*
X159353991Y-102302948D01*
X159260866Y-102167274D01*
X159258000Y-102137744D01*
X159275932Y-102069874D01*
X159346777Y-102040831D01*
X159496105Y-102053472D01*
X159496105Y-102053472D01*
G37*
X159496105Y-102053472D02*
X159749489Y-102110655D01*
X160132498Y-102215236D01*
X160249441Y-102248534D01*
X160561848Y-102328979D01*
X160788698Y-102354868D01*
X161003776Y-102328944D01*
X161180774Y-102283173D01*
X161454997Y-102212733D01*
X161684715Y-102167000D01*
X161755666Y-102158872D01*
X161920360Y-102183705D01*
X161942562Y-102266594D01*
X161828229Y-102384129D01*
X161676068Y-102471642D01*
X161302493Y-102593132D01*
X160847013Y-102657571D01*
X160386307Y-102659701D01*
X159997052Y-102594265D01*
X159977666Y-102588083D01*
X159588426Y-102440403D01*
X159353991Y-102302948D01*
X159260866Y-102167274D01*
X159258000Y-102137744D01*
X159275932Y-102069874D01*
X159346777Y-102040831D01*
X159496105Y-102053472D01*
D13*
X257568000Y-103505000D02*
G75*
G03X257568000Y-103505000I-5120000J0D01*
G01*
X252448000Y-98425000D02*
X252448000Y-108585000D01*
X252488000Y-98425000D02*
X252488000Y-108585000D01*
X252528000Y-98425000D02*
X252528000Y-108585000D01*
X252568000Y-98426000D02*
X252568000Y-108584000D01*
X252608000Y-98427000D02*
X252608000Y-108583000D01*
X252648000Y-98428000D02*
X252648000Y-108582000D01*
X252688000Y-98430000D02*
X252688000Y-108580000D01*
X252728000Y-98432000D02*
X252728000Y-108578000D01*
X252768000Y-98435000D02*
X252768000Y-108575000D01*
X252808000Y-98437000D02*
X252808000Y-108573000D01*
X252848000Y-98440000D02*
X252848000Y-108570000D01*
X252888000Y-98443000D02*
X252888000Y-108567000D01*
X252928000Y-98447000D02*
X252928000Y-108563000D01*
X252968000Y-98451000D02*
X252968000Y-102264000D01*
X252968000Y-104746000D02*
X252968000Y-108559000D01*
X253008000Y-98455000D02*
X253008000Y-102264000D01*
X253008000Y-104746000D02*
X253008000Y-108555000D01*
X253048000Y-98460000D02*
X253048000Y-102264000D01*
X253048000Y-104746000D02*
X253048000Y-108550000D01*
X253088000Y-98465000D02*
X253088000Y-102264000D01*
X253088000Y-104746000D02*
X253088000Y-108545000D01*
X253128000Y-98470000D02*
X253128000Y-102264000D01*
X253128000Y-104746000D02*
X253128000Y-108540000D01*
X253169000Y-98475000D02*
X253169000Y-102264000D01*
X253169000Y-104746000D02*
X253169000Y-108535000D01*
X253209000Y-98481000D02*
X253209000Y-102264000D01*
X253209000Y-104746000D02*
X253209000Y-108529000D01*
X253249000Y-98487000D02*
X253249000Y-102264000D01*
X253249000Y-104746000D02*
X253249000Y-108523000D01*
X253289000Y-98494000D02*
X253289000Y-102264000D01*
X253289000Y-104746000D02*
X253289000Y-108516000D01*
X253329000Y-98501000D02*
X253329000Y-102264000D01*
X253329000Y-104746000D02*
X253329000Y-108509000D01*
X253369000Y-98508000D02*
X253369000Y-102264000D01*
X253369000Y-104746000D02*
X253369000Y-108502000D01*
X253409000Y-98515000D02*
X253409000Y-102264000D01*
X253409000Y-104746000D02*
X253409000Y-108495000D01*
X253449000Y-98523000D02*
X253449000Y-102264000D01*
X253449000Y-104746000D02*
X253449000Y-108487000D01*
X253489000Y-98531000D02*
X253489000Y-102264000D01*
X253489000Y-104746000D02*
X253489000Y-108479000D01*
X253529000Y-98540000D02*
X253529000Y-102264000D01*
X253529000Y-104746000D02*
X253529000Y-108470000D01*
X253569000Y-98549000D02*
X253569000Y-102264000D01*
X253569000Y-104746000D02*
X253569000Y-108461000D01*
X253609000Y-98558000D02*
X253609000Y-102264000D01*
X253609000Y-104746000D02*
X253609000Y-108452000D01*
X253649000Y-98567000D02*
X253649000Y-102264000D01*
X253649000Y-104746000D02*
X253649000Y-108443000D01*
X253689000Y-98577000D02*
X253689000Y-102264000D01*
X253689000Y-104746000D02*
X253689000Y-108433000D01*
X253729000Y-98587000D02*
X253729000Y-102264000D01*
X253729000Y-104746000D02*
X253729000Y-108423000D01*
X253769000Y-98598000D02*
X253769000Y-102264000D01*
X253769000Y-104746000D02*
X253769000Y-108412000D01*
X253809000Y-98608000D02*
X253809000Y-102264000D01*
X253809000Y-104746000D02*
X253809000Y-108402000D01*
X253849000Y-98620000D02*
X253849000Y-102264000D01*
X253849000Y-104746000D02*
X253849000Y-108390000D01*
X253889000Y-98631000D02*
X253889000Y-102264000D01*
X253889000Y-104746000D02*
X253889000Y-108379000D01*
X253929000Y-98643000D02*
X253929000Y-102264000D01*
X253929000Y-104746000D02*
X253929000Y-108367000D01*
X253969000Y-98655000D02*
X253969000Y-102264000D01*
X253969000Y-104746000D02*
X253969000Y-108355000D01*
X254009000Y-98668000D02*
X254009000Y-102264000D01*
X254009000Y-104746000D02*
X254009000Y-108342000D01*
X254049000Y-98681000D02*
X254049000Y-102264000D01*
X254049000Y-104746000D02*
X254049000Y-108329000D01*
X254089000Y-98694000D02*
X254089000Y-102264000D01*
X254089000Y-104746000D02*
X254089000Y-108316000D01*
X254129000Y-98708000D02*
X254129000Y-102264000D01*
X254129000Y-104746000D02*
X254129000Y-108302000D01*
X254169000Y-98722000D02*
X254169000Y-102264000D01*
X254169000Y-104746000D02*
X254169000Y-108288000D01*
X254209000Y-98737000D02*
X254209000Y-102264000D01*
X254209000Y-104746000D02*
X254209000Y-108273000D01*
X254249000Y-98751000D02*
X254249000Y-102264000D01*
X254249000Y-104746000D02*
X254249000Y-108259000D01*
X254289000Y-98767000D02*
X254289000Y-102264000D01*
X254289000Y-104746000D02*
X254289000Y-108243000D01*
X254329000Y-98782000D02*
X254329000Y-102264000D01*
X254329000Y-104746000D02*
X254329000Y-108228000D01*
X254369000Y-98798000D02*
X254369000Y-102264000D01*
X254369000Y-104746000D02*
X254369000Y-108212000D01*
X254409000Y-98815000D02*
X254409000Y-102264000D01*
X254409000Y-104746000D02*
X254409000Y-108195000D01*
X254449000Y-98831000D02*
X254449000Y-102264000D01*
X254449000Y-104746000D02*
X254449000Y-108179000D01*
X254489000Y-98848000D02*
X254489000Y-102264000D01*
X254489000Y-104746000D02*
X254489000Y-108162000D01*
X254529000Y-98866000D02*
X254529000Y-102264000D01*
X254529000Y-104746000D02*
X254529000Y-108144000D01*
X254569000Y-98884000D02*
X254569000Y-102264000D01*
X254569000Y-104746000D02*
X254569000Y-108126000D01*
X254609000Y-98902000D02*
X254609000Y-102264000D01*
X254609000Y-104746000D02*
X254609000Y-108108000D01*
X254649000Y-98921000D02*
X254649000Y-102264000D01*
X254649000Y-104746000D02*
X254649000Y-108089000D01*
X254689000Y-98941000D02*
X254689000Y-102264000D01*
X254689000Y-104746000D02*
X254689000Y-108069000D01*
X254729000Y-98960000D02*
X254729000Y-102264000D01*
X254729000Y-104746000D02*
X254729000Y-108050000D01*
X254769000Y-98980000D02*
X254769000Y-102264000D01*
X254769000Y-104746000D02*
X254769000Y-108030000D01*
X254809000Y-99001000D02*
X254809000Y-102264000D01*
X254809000Y-104746000D02*
X254809000Y-108009000D01*
X254849000Y-99022000D02*
X254849000Y-102264000D01*
X254849000Y-104746000D02*
X254849000Y-107988000D01*
X254889000Y-99043000D02*
X254889000Y-102264000D01*
X254889000Y-104746000D02*
X254889000Y-107967000D01*
X254929000Y-99065000D02*
X254929000Y-102264000D01*
X254929000Y-104746000D02*
X254929000Y-107945000D01*
X254969000Y-99088000D02*
X254969000Y-102264000D01*
X254969000Y-104746000D02*
X254969000Y-107922000D01*
X255009000Y-99110000D02*
X255009000Y-102264000D01*
X255009000Y-104746000D02*
X255009000Y-107900000D01*
X255049000Y-99134000D02*
X255049000Y-102264000D01*
X255049000Y-104746000D02*
X255049000Y-107876000D01*
X255089000Y-99158000D02*
X255089000Y-102264000D01*
X255089000Y-104746000D02*
X255089000Y-107852000D01*
X255129000Y-99182000D02*
X255129000Y-102264000D01*
X255129000Y-104746000D02*
X255129000Y-107828000D01*
X255169000Y-99207000D02*
X255169000Y-102264000D01*
X255169000Y-104746000D02*
X255169000Y-107803000D01*
X255209000Y-99232000D02*
X255209000Y-102264000D01*
X255209000Y-104746000D02*
X255209000Y-107778000D01*
X255249000Y-99258000D02*
X255249000Y-102264000D01*
X255249000Y-104746000D02*
X255249000Y-107752000D01*
X255289000Y-99284000D02*
X255289000Y-102264000D01*
X255289000Y-104746000D02*
X255289000Y-107726000D01*
X255329000Y-99311000D02*
X255329000Y-102264000D01*
X255329000Y-104746000D02*
X255329000Y-107699000D01*
X255369000Y-99339000D02*
X255369000Y-102264000D01*
X255369000Y-104746000D02*
X255369000Y-107671000D01*
X255409000Y-99367000D02*
X255409000Y-102264000D01*
X255409000Y-104746000D02*
X255409000Y-107643000D01*
X255449000Y-99395000D02*
X255449000Y-107615000D01*
X255489000Y-99425000D02*
X255489000Y-107585000D01*
X255529000Y-99455000D02*
X255529000Y-107555000D01*
X255569000Y-99485000D02*
X255569000Y-107525000D01*
X255609000Y-99516000D02*
X255609000Y-107494000D01*
X255649000Y-99548000D02*
X255649000Y-107462000D01*
X255689000Y-99580000D02*
X255689000Y-107430000D01*
X255729000Y-99613000D02*
X255729000Y-107397000D01*
X255769000Y-99647000D02*
X255769000Y-107363000D01*
X255809000Y-99681000D02*
X255809000Y-107329000D01*
X255849000Y-99716000D02*
X255849000Y-107294000D01*
X255889000Y-99752000D02*
X255889000Y-107258000D01*
X255929000Y-99789000D02*
X255929000Y-107221000D01*
X255969000Y-99826000D02*
X255969000Y-107184000D01*
X256009000Y-99865000D02*
X256009000Y-107145000D01*
X256049000Y-99904000D02*
X256049000Y-107106000D01*
X256089000Y-99944000D02*
X256089000Y-107066000D01*
X256129000Y-99985000D02*
X256129000Y-107025000D01*
X256169000Y-100027000D02*
X256169000Y-106983000D01*
X256209000Y-100069000D02*
X256209000Y-106941000D01*
X256249000Y-100113000D02*
X256249000Y-106897000D01*
X256289000Y-100158000D02*
X256289000Y-106852000D01*
X256329000Y-100204000D02*
X256329000Y-106806000D01*
X256369000Y-100251000D02*
X256369000Y-106759000D01*
X256409000Y-100299000D02*
X256409000Y-106711000D01*
X256449000Y-100349000D02*
X256449000Y-106661000D01*
X256489000Y-100399000D02*
X256489000Y-106611000D01*
X256529000Y-100451000D02*
X256529000Y-106559000D01*
X256569000Y-100505000D02*
X256569000Y-106505000D01*
X256609000Y-100560000D02*
X256609000Y-106450000D01*
X256649000Y-100616000D02*
X256649000Y-106394000D01*
X256689000Y-100675000D02*
X256689000Y-106335000D01*
X256729000Y-100735000D02*
X256729000Y-106275000D01*
X256769000Y-100796000D02*
X256769000Y-106214000D01*
X256809000Y-100860000D02*
X256809000Y-106150000D01*
X256849000Y-100926000D02*
X256849000Y-106084000D01*
X256889000Y-100995000D02*
X256889000Y-106015000D01*
X256929000Y-101066000D02*
X256929000Y-105944000D01*
X256969000Y-101140000D02*
X256969000Y-105870000D01*
X257009000Y-101216000D02*
X257009000Y-105794000D01*
X257049000Y-101296000D02*
X257049000Y-105714000D01*
X257089000Y-101380000D02*
X257089000Y-105630000D01*
X257129000Y-101468000D02*
X257129000Y-105542000D01*
X257169000Y-101561000D02*
X257169000Y-105449000D01*
X257209000Y-101659000D02*
X257209000Y-105351000D01*
X257249000Y-101763000D02*
X257249000Y-105247000D01*
X257289000Y-101875000D02*
X257289000Y-105135000D01*
X257329000Y-101995000D02*
X257329000Y-105015000D01*
X257369000Y-102127000D02*
X257369000Y-104883000D01*
X257409000Y-102275000D02*
X257409000Y-104735000D01*
X257449000Y-102443000D02*
X257449000Y-104567000D01*
X257489000Y-102643000D02*
X257489000Y-104367000D01*
X257529000Y-102906000D02*
X257529000Y-104104000D01*
X246968354Y-100630000D02*
X247968354Y-100630000D01*
X247468354Y-100130000D02*
X247468354Y-101130000D01*
X220716000Y-104168260D02*
G75*
G03X220716000Y-98459740I-1260000J2854260D01*
G01*
X218196000Y-104168260D02*
G75*
G02X218196000Y-98459740I1260000J2854260D01*
G01*
X222663000Y-91594000D02*
X222663000Y-94334000D01*
X222663000Y-94334000D02*
X229203000Y-94334000D01*
X229203000Y-94334000D02*
X229203000Y-91594000D01*
X229203000Y-91594000D02*
X222663000Y-91594000D01*
X221893000Y-92964000D02*
X222663000Y-92964000D01*
X229973000Y-92964000D02*
X229203000Y-92964000D01*
D11*
X203140571Y-94622714D02*
X204640571Y-94122714D01*
X203140571Y-93622714D01*
X204569142Y-92479857D02*
X204640571Y-92622714D01*
X204640571Y-92908428D01*
X204569142Y-93051285D01*
X204497714Y-93122714D01*
X204354857Y-93194142D01*
X203926285Y-93194142D01*
X203783428Y-93122714D01*
X203712000Y-93051285D01*
X203640571Y-92908428D01*
X203640571Y-92622714D01*
X203712000Y-92479857D01*
X204569142Y-91194142D02*
X204640571Y-91337000D01*
X204640571Y-91622714D01*
X204569142Y-91765571D01*
X204497714Y-91837000D01*
X204354857Y-91908428D01*
X203926285Y-91908428D01*
X203783428Y-91837000D01*
X203712000Y-91765571D01*
X203640571Y-91622714D01*
X203640571Y-91337000D01*
X203712000Y-91194142D01*
D15*
X159258095Y-127533379D02*
X159258095Y-126533379D01*
X159258095Y-127009570D02*
X159829523Y-127009570D01*
X159829523Y-127533379D02*
X159829523Y-126533379D01*
X160734285Y-126866713D02*
X160734285Y-127533379D01*
X160496190Y-126485760D02*
X160258095Y-127200046D01*
X160877142Y-127200046D01*
X72136095Y-127452380D02*
X72136095Y-126452380D01*
X72136095Y-126928571D02*
X72707523Y-126928571D01*
X72707523Y-127452380D02*
X72707523Y-126452380D01*
X73136095Y-126547619D02*
X73183714Y-126500000D01*
X73278952Y-126452380D01*
X73517047Y-126452380D01*
X73612285Y-126500000D01*
X73659904Y-126547619D01*
X73707523Y-126642857D01*
X73707523Y-126738095D01*
X73659904Y-126880952D01*
X73088476Y-127452380D01*
X73707523Y-127452380D01*
X243332095Y-127452380D02*
X243332095Y-126452380D01*
X243332095Y-126928571D02*
X243903523Y-126928571D01*
X243903523Y-127452380D02*
X243903523Y-126452380D01*
X244284476Y-126452380D02*
X244903523Y-126452380D01*
X244570190Y-126833333D01*
X244713047Y-126833333D01*
X244808285Y-126880952D01*
X244855904Y-126928571D01*
X244903523Y-127023809D01*
X244903523Y-127261904D01*
X244855904Y-127357142D01*
X244808285Y-127404761D01*
X244713047Y-127452380D01*
X244427333Y-127452380D01*
X244332095Y-127404761D01*
X244284476Y-127357142D01*
X160528095Y-93543380D02*
X160528095Y-92543380D01*
X160528095Y-93019571D02*
X161099523Y-93019571D01*
X161099523Y-93543380D02*
X161099523Y-92543380D01*
X162099523Y-93543380D02*
X161528095Y-93543380D01*
X161813809Y-93543380D02*
X161813809Y-92543380D01*
X161718571Y-92686238D01*
X161623333Y-92781476D01*
X161528095Y-92829095D01*
X60793333Y-100952380D02*
X60460000Y-100476190D01*
X60221904Y-100952380D02*
X60221904Y-99952380D01*
X60602857Y-99952380D01*
X60698095Y-100000000D01*
X60745714Y-100047619D01*
X60793333Y-100142857D01*
X60793333Y-100285714D01*
X60745714Y-100380952D01*
X60698095Y-100428571D01*
X60602857Y-100476190D01*
X60221904Y-100476190D01*
X61650476Y-100285714D02*
X61650476Y-100952380D01*
X61412380Y-99904761D02*
X61174285Y-100619047D01*
X61793333Y-100619047D01*
X78573333Y-98072380D02*
X78240000Y-97596190D01*
X78001904Y-98072380D02*
X78001904Y-97072380D01*
X78382857Y-97072380D01*
X78478095Y-97120000D01*
X78525714Y-97167619D01*
X78573333Y-97262857D01*
X78573333Y-97405714D01*
X78525714Y-97500952D01*
X78478095Y-97548571D01*
X78382857Y-97596190D01*
X78001904Y-97596190D01*
X79478095Y-97072380D02*
X79001904Y-97072380D01*
X78954285Y-97548571D01*
X79001904Y-97500952D01*
X79097142Y-97453333D01*
X79335238Y-97453333D01*
X79430476Y-97500952D01*
X79478095Y-97548571D01*
X79525714Y-97643809D01*
X79525714Y-97881904D01*
X79478095Y-97977142D01*
X79430476Y-98024761D01*
X79335238Y-98072380D01*
X79097142Y-98072380D01*
X79001904Y-98024761D01*
X78954285Y-97977142D01*
X78446333Y-101036380D02*
X78113000Y-100560190D01*
X77874904Y-101036380D02*
X77874904Y-100036380D01*
X78255857Y-100036380D01*
X78351095Y-100084000D01*
X78398714Y-100131619D01*
X78446333Y-100226857D01*
X78446333Y-100369714D01*
X78398714Y-100464952D01*
X78351095Y-100512571D01*
X78255857Y-100560190D01*
X77874904Y-100560190D01*
X79303476Y-100036380D02*
X79113000Y-100036380D01*
X79017761Y-100084000D01*
X78970142Y-100131619D01*
X78874904Y-100274476D01*
X78827285Y-100464952D01*
X78827285Y-100845904D01*
X78874904Y-100941142D01*
X78922523Y-100988761D01*
X79017761Y-101036380D01*
X79208238Y-101036380D01*
X79303476Y-100988761D01*
X79351095Y-100941142D01*
X79398714Y-100845904D01*
X79398714Y-100607809D01*
X79351095Y-100512571D01*
X79303476Y-100464952D01*
X79208238Y-100417333D01*
X79017761Y-100417333D01*
X78922523Y-100464952D01*
X78874904Y-100512571D01*
X78827285Y-100607809D01*
X187312380Y-98432857D02*
X186836190Y-98766190D01*
X187312380Y-99004285D02*
X186312380Y-99004285D01*
X186312380Y-98623333D01*
X186360000Y-98528095D01*
X186407619Y-98480476D01*
X186502857Y-98432857D01*
X186645714Y-98432857D01*
X186740952Y-98480476D01*
X186788571Y-98528095D01*
X186836190Y-98623333D01*
X186836190Y-99004285D01*
X187312380Y-97480476D02*
X187312380Y-98051904D01*
X187312380Y-97766190D02*
X186312380Y-97766190D01*
X186455238Y-97861428D01*
X186550476Y-97956666D01*
X186598095Y-98051904D01*
X186312380Y-97147142D02*
X186312380Y-96528095D01*
X186693333Y-96861428D01*
X186693333Y-96718571D01*
X186740952Y-96623333D01*
X186788571Y-96575714D01*
X186883809Y-96528095D01*
X187121904Y-96528095D01*
X187217142Y-96575714D01*
X187264761Y-96623333D01*
X187312380Y-96718571D01*
X187312380Y-97004285D01*
X187264761Y-97099523D01*
X187217142Y-97147142D01*
X211078571Y-129547714D02*
X211126190Y-129404857D01*
X211173809Y-129357238D01*
X211269047Y-129309619D01*
X211411904Y-129309619D01*
X211507142Y-129357238D01*
X211554761Y-129404857D01*
X211602380Y-129500095D01*
X211602380Y-129881047D01*
X210602380Y-129881047D01*
X210602380Y-129547714D01*
X210650000Y-129452476D01*
X210697619Y-129404857D01*
X210792857Y-129357238D01*
X210888095Y-129357238D01*
X210983333Y-129404857D01*
X211030952Y-129452476D01*
X211078571Y-129547714D01*
X211078571Y-129881047D01*
X211316666Y-128928666D02*
X211316666Y-128452476D01*
X211602380Y-129023904D02*
X210602380Y-128690571D01*
X211602380Y-128357238D01*
X211554761Y-128071523D02*
X211602380Y-127928666D01*
X211602380Y-127690571D01*
X211554761Y-127595333D01*
X211507142Y-127547714D01*
X211411904Y-127500095D01*
X211316666Y-127500095D01*
X211221428Y-127547714D01*
X211173809Y-127595333D01*
X211126190Y-127690571D01*
X211078571Y-127881047D01*
X211030952Y-127976285D01*
X210983333Y-128023904D01*
X210888095Y-128071523D01*
X210792857Y-128071523D01*
X210697619Y-128023904D01*
X210650000Y-127976285D01*
X210602380Y-127881047D01*
X210602380Y-127642952D01*
X210650000Y-127500095D01*
X211554761Y-127119142D02*
X211602380Y-126976285D01*
X211602380Y-126738190D01*
X211554761Y-126642952D01*
X211507142Y-126595333D01*
X211411904Y-126547714D01*
X211316666Y-126547714D01*
X211221428Y-126595333D01*
X211173809Y-126642952D01*
X211126190Y-126738190D01*
X211078571Y-126928666D01*
X211030952Y-127023904D01*
X210983333Y-127071523D01*
X210888095Y-127119142D01*
X210792857Y-127119142D01*
X210697619Y-127071523D01*
X210650000Y-127023904D01*
X210602380Y-126928666D01*
X210602380Y-126690571D01*
X210650000Y-126547714D01*
X211602380Y-125595333D02*
X211602380Y-126166761D01*
X211602380Y-125881047D02*
X210602380Y-125881047D01*
X210745238Y-125976285D01*
X210840476Y-126071523D01*
X210888095Y-126166761D01*
X126650000Y-129420761D02*
X126602380Y-129516000D01*
X126602380Y-129658857D01*
X126650000Y-129801714D01*
X126745238Y-129896952D01*
X126840476Y-129944571D01*
X127030952Y-129992190D01*
X127173809Y-129992190D01*
X127364285Y-129944571D01*
X127459523Y-129896952D01*
X127554761Y-129801714D01*
X127602380Y-129658857D01*
X127602380Y-129563619D01*
X127554761Y-129420761D01*
X127507142Y-129373142D01*
X127173809Y-129373142D01*
X127173809Y-129563619D01*
X127316666Y-128992190D02*
X127316666Y-128516000D01*
X127602380Y-129087428D02*
X126602380Y-128754095D01*
X127602380Y-128420761D01*
X127602380Y-128087428D02*
X126602380Y-128087428D01*
X127602380Y-127611238D02*
X126602380Y-127611238D01*
X127602380Y-127039809D01*
X126602380Y-127039809D01*
X127602380Y-126039809D02*
X127602380Y-126611238D01*
X127602380Y-126325523D02*
X126602380Y-126325523D01*
X126745238Y-126420761D01*
X126840476Y-126516000D01*
X126888095Y-126611238D01*
X267602380Y-129436761D02*
X267602380Y-129912952D01*
X266602380Y-129912952D01*
X267078571Y-129103428D02*
X267078571Y-128770095D01*
X267602380Y-128627238D02*
X267602380Y-129103428D01*
X266602380Y-129103428D01*
X266602380Y-128627238D01*
X266602380Y-128341523D02*
X267602380Y-128008190D01*
X266602380Y-127674857D01*
X267078571Y-127341523D02*
X267078571Y-127008190D01*
X267602380Y-126865333D02*
X267602380Y-127341523D01*
X266602380Y-127341523D01*
X266602380Y-126865333D01*
X267602380Y-125960571D02*
X267602380Y-126436761D01*
X266602380Y-126436761D01*
X267602380Y-125103428D02*
X267602380Y-125674857D01*
X267602380Y-125389142D02*
X266602380Y-125389142D01*
X266745238Y-125484380D01*
X266840476Y-125579619D01*
X266888095Y-125674857D01*
X183612380Y-129817619D02*
X182612380Y-129817619D01*
X183326666Y-129484285D01*
X182612380Y-129150952D01*
X183612380Y-129150952D01*
X183612380Y-128674761D02*
X182612380Y-128674761D01*
X183612380Y-128198571D02*
X182612380Y-128198571D01*
X182612380Y-127960476D01*
X182660000Y-127817619D01*
X182755238Y-127722380D01*
X182850476Y-127674761D01*
X183040952Y-127627142D01*
X183183809Y-127627142D01*
X183374285Y-127674761D01*
X183469523Y-127722380D01*
X183564761Y-127817619D01*
X183612380Y-127960476D01*
X183612380Y-128198571D01*
X183612380Y-126674761D02*
X183612380Y-127246190D01*
X183612380Y-126960476D02*
X182612380Y-126960476D01*
X182755238Y-127055714D01*
X182850476Y-127150952D01*
X182898095Y-127246190D01*
X154646380Y-130071428D02*
X154646380Y-129500000D01*
X155646380Y-129785714D02*
X154646380Y-129785714D01*
X155646380Y-128595238D02*
X155170190Y-128928571D01*
X155646380Y-129166666D02*
X154646380Y-129166666D01*
X154646380Y-128785714D01*
X154694000Y-128690476D01*
X154741619Y-128642857D01*
X154836857Y-128595238D01*
X154979714Y-128595238D01*
X155074952Y-128642857D01*
X155122571Y-128690476D01*
X155170190Y-128785714D01*
X155170190Y-129166666D01*
X155122571Y-128166666D02*
X155122571Y-127833333D01*
X155646380Y-127690476D02*
X155646380Y-128166666D01*
X154646380Y-128166666D01*
X154646380Y-127690476D01*
X155122571Y-126928571D02*
X155170190Y-126785714D01*
X155217809Y-126738095D01*
X155313047Y-126690476D01*
X155455904Y-126690476D01*
X155551142Y-126738095D01*
X155598761Y-126785714D01*
X155646380Y-126880952D01*
X155646380Y-127261904D01*
X154646380Y-127261904D01*
X154646380Y-126928571D01*
X154694000Y-126833333D01*
X154741619Y-126785714D01*
X154836857Y-126738095D01*
X154932095Y-126738095D01*
X155027333Y-126785714D01*
X155074952Y-126833333D01*
X155122571Y-126928571D01*
X155122571Y-127261904D01*
X155646380Y-125785714D02*
X155646380Y-126261904D01*
X154646380Y-126261904D01*
X155122571Y-125452380D02*
X155122571Y-125119047D01*
X155646380Y-124976190D02*
X155646380Y-125452380D01*
X154646380Y-125452380D01*
X154646380Y-124976190D01*
X155646380Y-124023809D02*
X155646380Y-124595238D01*
X155646380Y-124309523D02*
X154646380Y-124309523D01*
X154789238Y-124404761D01*
X154884476Y-124500000D01*
X154932095Y-124595238D01*
X69794380Y-121657619D02*
X68794380Y-121657619D01*
X69794380Y-121181428D02*
X68794380Y-121181428D01*
X69794380Y-120610000D01*
X68794380Y-120610000D01*
X69889619Y-120371904D02*
X69889619Y-119610000D01*
X69794380Y-119371904D02*
X68794380Y-119371904D01*
X69270571Y-119371904D02*
X69270571Y-118800476D01*
X69794380Y-118800476D02*
X68794380Y-118800476D01*
X69794380Y-118324285D02*
X68794380Y-118324285D01*
X68842000Y-117324285D02*
X68794380Y-117419523D01*
X68794380Y-117562380D01*
X68842000Y-117705238D01*
X68937238Y-117800476D01*
X69032476Y-117848095D01*
X69222952Y-117895714D01*
X69365809Y-117895714D01*
X69556285Y-117848095D01*
X69651523Y-117800476D01*
X69746761Y-117705238D01*
X69794380Y-117562380D01*
X69794380Y-117467142D01*
X69746761Y-117324285D01*
X69699142Y-117276666D01*
X69365809Y-117276666D01*
X69365809Y-117467142D01*
X69794380Y-116848095D02*
X68794380Y-116848095D01*
X69270571Y-116848095D02*
X69270571Y-116276666D01*
X69794380Y-116276666D02*
X68794380Y-116276666D01*
X69889619Y-116038571D02*
X69889619Y-115276666D01*
X69794380Y-114514761D02*
X69794380Y-115086190D01*
X69794380Y-114800476D02*
X68794380Y-114800476D01*
X68937238Y-114895714D01*
X69032476Y-114990952D01*
X69080095Y-115086190D01*
X194794142Y-98372857D02*
X194841761Y-98420476D01*
X194889380Y-98563333D01*
X194889380Y-98658571D01*
X194841761Y-98801428D01*
X194746523Y-98896666D01*
X194651285Y-98944285D01*
X194460809Y-98991904D01*
X194317952Y-98991904D01*
X194127476Y-98944285D01*
X194032238Y-98896666D01*
X193937000Y-98801428D01*
X193889380Y-98658571D01*
X193889380Y-98563333D01*
X193937000Y-98420476D01*
X193984619Y-98372857D01*
X194889380Y-97420476D02*
X194889380Y-97991904D01*
X194889380Y-97706190D02*
X193889380Y-97706190D01*
X194032238Y-97801428D01*
X194127476Y-97896666D01*
X194175095Y-97991904D01*
X193984619Y-97039523D02*
X193937000Y-96991904D01*
X193889380Y-96896666D01*
X193889380Y-96658571D01*
X193937000Y-96563333D01*
X193984619Y-96515714D01*
X194079857Y-96468095D01*
X194175095Y-96468095D01*
X194317952Y-96515714D01*
X194889380Y-97087142D01*
X194889380Y-96468095D01*
X170537142Y-113612857D02*
X170584761Y-113660476D01*
X170632380Y-113803333D01*
X170632380Y-113898571D01*
X170584761Y-114041428D01*
X170489523Y-114136666D01*
X170394285Y-114184285D01*
X170203809Y-114231904D01*
X170060952Y-114231904D01*
X169870476Y-114184285D01*
X169775238Y-114136666D01*
X169680000Y-114041428D01*
X169632380Y-113898571D01*
X169632380Y-113803333D01*
X169680000Y-113660476D01*
X169727619Y-113612857D01*
X170632380Y-112660476D02*
X170632380Y-113231904D01*
X170632380Y-112946190D02*
X169632380Y-112946190D01*
X169775238Y-113041428D01*
X169870476Y-113136666D01*
X169918095Y-113231904D01*
X169632380Y-112041428D02*
X169632380Y-111946190D01*
X169680000Y-111850952D01*
X169727619Y-111803333D01*
X169822857Y-111755714D01*
X170013333Y-111708095D01*
X170251428Y-111708095D01*
X170441904Y-111755714D01*
X170537142Y-111803333D01*
X170584761Y-111850952D01*
X170632380Y-111946190D01*
X170632380Y-112041428D01*
X170584761Y-112136666D01*
X170537142Y-112184285D01*
X170441904Y-112231904D01*
X170251428Y-112279523D01*
X170013333Y-112279523D01*
X169822857Y-112231904D01*
X169727619Y-112184285D01*
X169680000Y-112136666D01*
X169632380Y-112041428D01*
X61936333Y-91924142D02*
X61888714Y-91971761D01*
X61745857Y-92019380D01*
X61650619Y-92019380D01*
X61507761Y-91971761D01*
X61412523Y-91876523D01*
X61364904Y-91781285D01*
X61317285Y-91590809D01*
X61317285Y-91447952D01*
X61364904Y-91257476D01*
X61412523Y-91162238D01*
X61507761Y-91067000D01*
X61650619Y-91019380D01*
X61745857Y-91019380D01*
X61888714Y-91067000D01*
X61936333Y-91114619D01*
X62269666Y-91019380D02*
X62888714Y-91019380D01*
X62555380Y-91400333D01*
X62698238Y-91400333D01*
X62793476Y-91447952D01*
X62841095Y-91495571D01*
X62888714Y-91590809D01*
X62888714Y-91828904D01*
X62841095Y-91924142D01*
X62793476Y-91971761D01*
X62698238Y-92019380D01*
X62412523Y-92019380D01*
X62317285Y-91971761D01*
X62269666Y-91924142D01*
X132377142Y-99166666D02*
X132424761Y-99214285D01*
X132472380Y-99357142D01*
X132472380Y-99452380D01*
X132424761Y-99595238D01*
X132329523Y-99690476D01*
X132234285Y-99738095D01*
X132043809Y-99785714D01*
X131900952Y-99785714D01*
X131710476Y-99738095D01*
X131615238Y-99690476D01*
X131520000Y-99595238D01*
X131472380Y-99452380D01*
X131472380Y-99357142D01*
X131520000Y-99214285D01*
X131567619Y-99166666D01*
X131472380Y-98261904D02*
X131472380Y-98738095D01*
X131948571Y-98785714D01*
X131900952Y-98738095D01*
X131853333Y-98642857D01*
X131853333Y-98404761D01*
X131900952Y-98309523D01*
X131948571Y-98261904D01*
X132043809Y-98214285D01*
X132281904Y-98214285D01*
X132377142Y-98261904D01*
X132424761Y-98309523D01*
X132472380Y-98404761D01*
X132472380Y-98642857D01*
X132424761Y-98738095D01*
X132377142Y-98785714D01*
X171283333Y-95607142D02*
X171235714Y-95654761D01*
X171092857Y-95702380D01*
X170997619Y-95702380D01*
X170854761Y-95654761D01*
X170759523Y-95559523D01*
X170711904Y-95464285D01*
X170664285Y-95273809D01*
X170664285Y-95130952D01*
X170711904Y-94940476D01*
X170759523Y-94845238D01*
X170854761Y-94750000D01*
X170997619Y-94702380D01*
X171092857Y-94702380D01*
X171235714Y-94750000D01*
X171283333Y-94797619D01*
X172140476Y-94702380D02*
X171950000Y-94702380D01*
X171854761Y-94750000D01*
X171807142Y-94797619D01*
X171711904Y-94940476D01*
X171664285Y-95130952D01*
X171664285Y-95511904D01*
X171711904Y-95607142D01*
X171759523Y-95654761D01*
X171854761Y-95702380D01*
X172045238Y-95702380D01*
X172140476Y-95654761D01*
X172188095Y-95607142D01*
X172235714Y-95511904D01*
X172235714Y-95273809D01*
X172188095Y-95178571D01*
X172140476Y-95130952D01*
X172045238Y-95083333D01*
X171854761Y-95083333D01*
X171759523Y-95130952D01*
X171711904Y-95178571D01*
X171664285Y-95273809D01*
X111466333Y-113641142D02*
X111418714Y-113688761D01*
X111275857Y-113736380D01*
X111180619Y-113736380D01*
X111037761Y-113688761D01*
X110942523Y-113593523D01*
X110894904Y-113498285D01*
X110847285Y-113307809D01*
X110847285Y-113164952D01*
X110894904Y-112974476D01*
X110942523Y-112879238D01*
X111037761Y-112784000D01*
X111180619Y-112736380D01*
X111275857Y-112736380D01*
X111418714Y-112784000D01*
X111466333Y-112831619D01*
X111799666Y-112736380D02*
X112466333Y-112736380D01*
X112037761Y-113736380D01*
X145883333Y-108688142D02*
X145835714Y-108735761D01*
X145692857Y-108783380D01*
X145597619Y-108783380D01*
X145454761Y-108735761D01*
X145359523Y-108640523D01*
X145311904Y-108545285D01*
X145264285Y-108354809D01*
X145264285Y-108211952D01*
X145311904Y-108021476D01*
X145359523Y-107926238D01*
X145454761Y-107831000D01*
X145597619Y-107783380D01*
X145692857Y-107783380D01*
X145835714Y-107831000D01*
X145883333Y-107878619D01*
X146454761Y-108211952D02*
X146359523Y-108164333D01*
X146311904Y-108116714D01*
X146264285Y-108021476D01*
X146264285Y-107973857D01*
X146311904Y-107878619D01*
X146359523Y-107831000D01*
X146454761Y-107783380D01*
X146645238Y-107783380D01*
X146740476Y-107831000D01*
X146788095Y-107878619D01*
X146835714Y-107973857D01*
X146835714Y-108021476D01*
X146788095Y-108116714D01*
X146740476Y-108164333D01*
X146645238Y-108211952D01*
X146454761Y-108211952D01*
X146359523Y-108259571D01*
X146311904Y-108307190D01*
X146264285Y-108402428D01*
X146264285Y-108592904D01*
X146311904Y-108688142D01*
X146359523Y-108735761D01*
X146454761Y-108783380D01*
X146645238Y-108783380D01*
X146740476Y-108735761D01*
X146788095Y-108688142D01*
X146835714Y-108592904D01*
X146835714Y-108402428D01*
X146788095Y-108307190D01*
X146740476Y-108259571D01*
X146645238Y-108211952D01*
X150257142Y-99266666D02*
X150304761Y-99314285D01*
X150352380Y-99457142D01*
X150352380Y-99552380D01*
X150304761Y-99695238D01*
X150209523Y-99790476D01*
X150114285Y-99838095D01*
X149923809Y-99885714D01*
X149780952Y-99885714D01*
X149590476Y-99838095D01*
X149495238Y-99790476D01*
X149400000Y-99695238D01*
X149352380Y-99552380D01*
X149352380Y-99457142D01*
X149400000Y-99314285D01*
X149447619Y-99266666D01*
X150352380Y-98790476D02*
X150352380Y-98600000D01*
X150304761Y-98504761D01*
X150257142Y-98457142D01*
X150114285Y-98361904D01*
X149923809Y-98314285D01*
X149542857Y-98314285D01*
X149447619Y-98361904D01*
X149400000Y-98409523D01*
X149352380Y-98504761D01*
X149352380Y-98695238D01*
X149400000Y-98790476D01*
X149447619Y-98838095D01*
X149542857Y-98885714D01*
X149780952Y-98885714D01*
X149876190Y-98838095D01*
X149923809Y-98790476D01*
X149971428Y-98695238D01*
X149971428Y-98504761D01*
X149923809Y-98409523D01*
X149876190Y-98361904D01*
X149780952Y-98314285D01*
X187257142Y-106021142D02*
X187209523Y-106068761D01*
X187066666Y-106116380D01*
X186971428Y-106116380D01*
X186828571Y-106068761D01*
X186733333Y-105973523D01*
X186685714Y-105878285D01*
X186638095Y-105687809D01*
X186638095Y-105544952D01*
X186685714Y-105354476D01*
X186733333Y-105259238D01*
X186828571Y-105164000D01*
X186971428Y-105116380D01*
X187066666Y-105116380D01*
X187209523Y-105164000D01*
X187257142Y-105211619D01*
X188209523Y-106116380D02*
X187638095Y-106116380D01*
X187923809Y-106116380D02*
X187923809Y-105116380D01*
X187828571Y-105259238D01*
X187733333Y-105354476D01*
X187638095Y-105402095D01*
X188542857Y-105116380D02*
X189161904Y-105116380D01*
X188828571Y-105497333D01*
X188971428Y-105497333D01*
X189066666Y-105544952D01*
X189114285Y-105592571D01*
X189161904Y-105687809D01*
X189161904Y-105925904D01*
X189114285Y-106021142D01*
X189066666Y-106068761D01*
X188971428Y-106116380D01*
X188685714Y-106116380D01*
X188590476Y-106068761D01*
X188542857Y-106021142D01*
X162957142Y-113712857D02*
X163004761Y-113760476D01*
X163052380Y-113903333D01*
X163052380Y-113998571D01*
X163004761Y-114141428D01*
X162909523Y-114236666D01*
X162814285Y-114284285D01*
X162623809Y-114331904D01*
X162480952Y-114331904D01*
X162290476Y-114284285D01*
X162195238Y-114236666D01*
X162100000Y-114141428D01*
X162052380Y-113998571D01*
X162052380Y-113903333D01*
X162100000Y-113760476D01*
X162147619Y-113712857D01*
X163052380Y-112760476D02*
X163052380Y-113331904D01*
X163052380Y-113046190D02*
X162052380Y-113046190D01*
X162195238Y-113141428D01*
X162290476Y-113236666D01*
X162338095Y-113331904D01*
X163052380Y-111808095D02*
X163052380Y-112379523D01*
X163052380Y-112093809D02*
X162052380Y-112093809D01*
X162195238Y-112189047D01*
X162290476Y-112284285D01*
X162338095Y-112379523D01*
X102472380Y-99798095D02*
X101472380Y-99798095D01*
X101472380Y-99560000D01*
X101520000Y-99417142D01*
X101615238Y-99321904D01*
X101710476Y-99274285D01*
X101900952Y-99226666D01*
X102043809Y-99226666D01*
X102234285Y-99274285D01*
X102329523Y-99321904D01*
X102424761Y-99417142D01*
X102472380Y-99560000D01*
X102472380Y-99798095D01*
X102472380Y-98274285D02*
X102472380Y-98845714D01*
X102472380Y-98560000D02*
X101472380Y-98560000D01*
X101615238Y-98655238D01*
X101710476Y-98750476D01*
X101758095Y-98845714D01*
X102792380Y-103131904D02*
X101792380Y-103131904D01*
X102792380Y-102560476D02*
X102220952Y-102989047D01*
X101792380Y-102560476D02*
X102363809Y-103131904D01*
X110092380Y-99798095D02*
X109092380Y-99798095D01*
X109092380Y-99560000D01*
X109140000Y-99417142D01*
X109235238Y-99321904D01*
X109330476Y-99274285D01*
X109520952Y-99226666D01*
X109663809Y-99226666D01*
X109854285Y-99274285D01*
X109949523Y-99321904D01*
X110044761Y-99417142D01*
X110092380Y-99560000D01*
X110092380Y-99798095D01*
X109187619Y-98845714D02*
X109140000Y-98798095D01*
X109092380Y-98702857D01*
X109092380Y-98464761D01*
X109140000Y-98369523D01*
X109187619Y-98321904D01*
X109282857Y-98274285D01*
X109378095Y-98274285D01*
X109520952Y-98321904D01*
X110092380Y-98893333D01*
X110092380Y-98274285D01*
X110412380Y-103131904D02*
X109412380Y-103131904D01*
X110412380Y-102560476D02*
X109840952Y-102989047D01*
X109412380Y-102560476D02*
X109983809Y-103131904D01*
X99766380Y-121879904D02*
X98766380Y-121879904D01*
X99766380Y-121403714D02*
X98766380Y-121403714D01*
X99766380Y-120832285D01*
X98766380Y-120832285D01*
X99861619Y-120594190D02*
X99861619Y-119832285D01*
X99766380Y-119118000D02*
X99766380Y-119594190D01*
X98766380Y-119594190D01*
X98766380Y-118594190D02*
X98766380Y-118403714D01*
X98814000Y-118308476D01*
X98909238Y-118213238D01*
X99099714Y-118165619D01*
X99433047Y-118165619D01*
X99623523Y-118213238D01*
X99718761Y-118308476D01*
X99766380Y-118403714D01*
X99766380Y-118594190D01*
X99718761Y-118689428D01*
X99623523Y-118784666D01*
X99433047Y-118832285D01*
X99099714Y-118832285D01*
X98909238Y-118784666D01*
X98814000Y-118689428D01*
X98766380Y-118594190D01*
X98766380Y-117832285D02*
X99766380Y-117594190D01*
X99052095Y-117403714D01*
X99766380Y-117213238D01*
X98766380Y-116975142D01*
X99861619Y-116832285D02*
X99861619Y-116070380D01*
X99766380Y-115308476D02*
X99766380Y-115879904D01*
X99766380Y-115594190D02*
X98766380Y-115594190D01*
X98909238Y-115689428D01*
X99004476Y-115784666D01*
X99052095Y-115879904D01*
X265604809Y-112692380D02*
X265795285Y-112692380D01*
X265890523Y-112740000D01*
X265985761Y-112835238D01*
X266033380Y-113025714D01*
X266033380Y-113359047D01*
X265985761Y-113549523D01*
X265890523Y-113644761D01*
X265795285Y-113692380D01*
X265604809Y-113692380D01*
X265509571Y-113644761D01*
X265414333Y-113549523D01*
X265366714Y-113359047D01*
X265366714Y-113025714D01*
X265414333Y-112835238D01*
X265509571Y-112740000D01*
X265604809Y-112692380D01*
X266461952Y-112692380D02*
X266461952Y-113501904D01*
X266509571Y-113597142D01*
X266557190Y-113644761D01*
X266652428Y-113692380D01*
X266842904Y-113692380D01*
X266938142Y-113644761D01*
X266985761Y-113597142D01*
X267033380Y-113501904D01*
X267033380Y-112692380D01*
X267366714Y-112692380D02*
X267938142Y-112692380D01*
X267652428Y-113692380D02*
X267652428Y-112692380D01*
X268795285Y-113692380D02*
X268223857Y-113692380D01*
X268509571Y-113692380D02*
X268509571Y-112692380D01*
X268414333Y-112835238D01*
X268319095Y-112930476D01*
X268223857Y-112978095D01*
X239602380Y-129825238D02*
X238602380Y-129825238D01*
X238602380Y-129444285D01*
X238650000Y-129349047D01*
X238697619Y-129301428D01*
X238792857Y-129253809D01*
X238935714Y-129253809D01*
X239030952Y-129301428D01*
X239078571Y-129349047D01*
X239126190Y-129444285D01*
X239126190Y-129825238D01*
X239602380Y-128253809D02*
X239126190Y-128587142D01*
X239602380Y-128825238D02*
X238602380Y-128825238D01*
X238602380Y-128444285D01*
X238650000Y-128349047D01*
X238697619Y-128301428D01*
X238792857Y-128253809D01*
X238935714Y-128253809D01*
X239030952Y-128301428D01*
X239078571Y-128349047D01*
X239126190Y-128444285D01*
X239126190Y-128825238D01*
X239078571Y-127825238D02*
X239078571Y-127491904D01*
X239602380Y-127349047D02*
X239602380Y-127825238D01*
X238602380Y-127825238D01*
X238602380Y-127349047D01*
X239554761Y-126968095D02*
X239602380Y-126825238D01*
X239602380Y-126587142D01*
X239554761Y-126491904D01*
X239507142Y-126444285D01*
X239411904Y-126396666D01*
X239316666Y-126396666D01*
X239221428Y-126444285D01*
X239173809Y-126491904D01*
X239126190Y-126587142D01*
X239078571Y-126777619D01*
X239030952Y-126872857D01*
X238983333Y-126920476D01*
X238888095Y-126968095D01*
X238792857Y-126968095D01*
X238697619Y-126920476D01*
X238650000Y-126872857D01*
X238602380Y-126777619D01*
X238602380Y-126539523D01*
X238650000Y-126396666D01*
X239078571Y-125968095D02*
X239078571Y-125634761D01*
X239602380Y-125491904D02*
X239602380Y-125968095D01*
X238602380Y-125968095D01*
X238602380Y-125491904D01*
X239602380Y-125063333D02*
X238602380Y-125063333D01*
X239602380Y-124491904D01*
X238602380Y-124491904D01*
X239507142Y-123444285D02*
X239554761Y-123491904D01*
X239602380Y-123634761D01*
X239602380Y-123730000D01*
X239554761Y-123872857D01*
X239459523Y-123968095D01*
X239364285Y-124015714D01*
X239173809Y-124063333D01*
X239030952Y-124063333D01*
X238840476Y-124015714D01*
X238745238Y-123968095D01*
X238650000Y-123872857D01*
X238602380Y-123730000D01*
X238602380Y-123634761D01*
X238650000Y-123491904D01*
X238697619Y-123444285D01*
X239078571Y-123015714D02*
X239078571Y-122682380D01*
X239602380Y-122539523D02*
X239602380Y-123015714D01*
X238602380Y-123015714D01*
X238602380Y-122539523D01*
X239602380Y-121587142D02*
X239602380Y-122158571D01*
X239602380Y-121872857D02*
X238602380Y-121872857D01*
X238745238Y-121968095D01*
X238840476Y-122063333D01*
X238888095Y-122158571D01*
X122202380Y-99226666D02*
X121726190Y-99560000D01*
X122202380Y-99798095D02*
X121202380Y-99798095D01*
X121202380Y-99417142D01*
X121250000Y-99321904D01*
X121297619Y-99274285D01*
X121392857Y-99226666D01*
X121535714Y-99226666D01*
X121630952Y-99274285D01*
X121678571Y-99321904D01*
X121726190Y-99417142D01*
X121726190Y-99798095D01*
X121202380Y-98893333D02*
X121202380Y-98226666D01*
X122202380Y-98655238D01*
X111466333Y-107386380D02*
X111133000Y-106910190D01*
X110894904Y-107386380D02*
X110894904Y-106386380D01*
X111275857Y-106386380D01*
X111371095Y-106434000D01*
X111418714Y-106481619D01*
X111466333Y-106576857D01*
X111466333Y-106719714D01*
X111418714Y-106814952D01*
X111371095Y-106862571D01*
X111275857Y-106910190D01*
X110894904Y-106910190D01*
X112037761Y-106814952D02*
X111942523Y-106767333D01*
X111894904Y-106719714D01*
X111847285Y-106624476D01*
X111847285Y-106576857D01*
X111894904Y-106481619D01*
X111942523Y-106434000D01*
X112037761Y-106386380D01*
X112228238Y-106386380D01*
X112323476Y-106434000D01*
X112371095Y-106481619D01*
X112418714Y-106576857D01*
X112418714Y-106624476D01*
X112371095Y-106719714D01*
X112323476Y-106767333D01*
X112228238Y-106814952D01*
X112037761Y-106814952D01*
X111942523Y-106862571D01*
X111894904Y-106910190D01*
X111847285Y-107005428D01*
X111847285Y-107195904D01*
X111894904Y-107291142D01*
X111942523Y-107338761D01*
X112037761Y-107386380D01*
X112228238Y-107386380D01*
X112323476Y-107338761D01*
X112371095Y-107291142D01*
X112418714Y-107195904D01*
X112418714Y-107005428D01*
X112371095Y-106910190D01*
X112323476Y-106862571D01*
X112228238Y-106814952D01*
X138712380Y-114466666D02*
X138236190Y-114800000D01*
X138712380Y-115038095D02*
X137712380Y-115038095D01*
X137712380Y-114657142D01*
X137760000Y-114561904D01*
X137807619Y-114514285D01*
X137902857Y-114466666D01*
X138045714Y-114466666D01*
X138140952Y-114514285D01*
X138188571Y-114561904D01*
X138236190Y-114657142D01*
X138236190Y-115038095D01*
X138712380Y-113990476D02*
X138712380Y-113800000D01*
X138664761Y-113704761D01*
X138617142Y-113657142D01*
X138474285Y-113561904D01*
X138283809Y-113514285D01*
X137902857Y-113514285D01*
X137807619Y-113561904D01*
X137760000Y-113609523D01*
X137712380Y-113704761D01*
X137712380Y-113895238D01*
X137760000Y-113990476D01*
X137807619Y-114038095D01*
X137902857Y-114085714D01*
X138140952Y-114085714D01*
X138236190Y-114038095D01*
X138283809Y-113990476D01*
X138331428Y-113895238D01*
X138331428Y-113704761D01*
X138283809Y-113609523D01*
X138236190Y-113561904D01*
X138140952Y-113514285D01*
X125082380Y-114942857D02*
X124606190Y-115276190D01*
X125082380Y-115514285D02*
X124082380Y-115514285D01*
X124082380Y-115133333D01*
X124130000Y-115038095D01*
X124177619Y-114990476D01*
X124272857Y-114942857D01*
X124415714Y-114942857D01*
X124510952Y-114990476D01*
X124558571Y-115038095D01*
X124606190Y-115133333D01*
X124606190Y-115514285D01*
X125082380Y-113990476D02*
X125082380Y-114561904D01*
X125082380Y-114276190D02*
X124082380Y-114276190D01*
X124225238Y-114371428D01*
X124320476Y-114466666D01*
X124368095Y-114561904D01*
X124082380Y-113371428D02*
X124082380Y-113276190D01*
X124130000Y-113180952D01*
X124177619Y-113133333D01*
X124272857Y-113085714D01*
X124463333Y-113038095D01*
X124701428Y-113038095D01*
X124891904Y-113085714D01*
X124987142Y-113133333D01*
X125034761Y-113180952D01*
X125082380Y-113276190D01*
X125082380Y-113371428D01*
X125034761Y-113466666D01*
X124987142Y-113514285D01*
X124891904Y-113561904D01*
X124701428Y-113609523D01*
X124463333Y-113609523D01*
X124272857Y-113561904D01*
X124177619Y-113514285D01*
X124130000Y-113466666D01*
X124082380Y-113371428D01*
X159032380Y-113672857D02*
X158556190Y-114006190D01*
X159032380Y-114244285D02*
X158032380Y-114244285D01*
X158032380Y-113863333D01*
X158080000Y-113768095D01*
X158127619Y-113720476D01*
X158222857Y-113672857D01*
X158365714Y-113672857D01*
X158460952Y-113720476D01*
X158508571Y-113768095D01*
X158556190Y-113863333D01*
X158556190Y-114244285D01*
X159032380Y-112720476D02*
X159032380Y-113291904D01*
X159032380Y-113006190D02*
X158032380Y-113006190D01*
X158175238Y-113101428D01*
X158270476Y-113196666D01*
X158318095Y-113291904D01*
X159032380Y-111768095D02*
X159032380Y-112339523D01*
X159032380Y-112053809D02*
X158032380Y-112053809D01*
X158175238Y-112149047D01*
X158270476Y-112244285D01*
X158318095Y-112339523D01*
X179692380Y-98432857D02*
X179216190Y-98766190D01*
X179692380Y-99004285D02*
X178692380Y-99004285D01*
X178692380Y-98623333D01*
X178740000Y-98528095D01*
X178787619Y-98480476D01*
X178882857Y-98432857D01*
X179025714Y-98432857D01*
X179120952Y-98480476D01*
X179168571Y-98528095D01*
X179216190Y-98623333D01*
X179216190Y-99004285D01*
X179692380Y-97480476D02*
X179692380Y-98051904D01*
X179692380Y-97766190D02*
X178692380Y-97766190D01*
X178835238Y-97861428D01*
X178930476Y-97956666D01*
X178978095Y-98051904D01*
X178787619Y-97099523D02*
X178740000Y-97051904D01*
X178692380Y-96956666D01*
X178692380Y-96718571D01*
X178740000Y-96623333D01*
X178787619Y-96575714D01*
X178882857Y-96528095D01*
X178978095Y-96528095D01*
X179120952Y-96575714D01*
X179692380Y-97147142D01*
X179692380Y-96528095D01*
X187317142Y-119662380D02*
X186983809Y-119186190D01*
X186745714Y-119662380D02*
X186745714Y-118662380D01*
X187126666Y-118662380D01*
X187221904Y-118710000D01*
X187269523Y-118757619D01*
X187317142Y-118852857D01*
X187317142Y-118995714D01*
X187269523Y-119090952D01*
X187221904Y-119138571D01*
X187126666Y-119186190D01*
X186745714Y-119186190D01*
X188269523Y-119662380D02*
X187698095Y-119662380D01*
X187983809Y-119662380D02*
X187983809Y-118662380D01*
X187888571Y-118805238D01*
X187793333Y-118900476D01*
X187698095Y-118948095D01*
X189126666Y-118995714D02*
X189126666Y-119662380D01*
X188888571Y-118614761D02*
X188650476Y-119329047D01*
X189269523Y-119329047D01*
X239042380Y-113672857D02*
X238566190Y-114006190D01*
X239042380Y-114244285D02*
X238042380Y-114244285D01*
X238042380Y-113863333D01*
X238090000Y-113768095D01*
X238137619Y-113720476D01*
X238232857Y-113672857D01*
X238375714Y-113672857D01*
X238470952Y-113720476D01*
X238518571Y-113768095D01*
X238566190Y-113863333D01*
X238566190Y-114244285D01*
X239042380Y-112720476D02*
X239042380Y-113291904D01*
X239042380Y-113006190D02*
X238042380Y-113006190D01*
X238185238Y-113101428D01*
X238280476Y-113196666D01*
X238328095Y-113291904D01*
X238042380Y-111863333D02*
X238042380Y-112053809D01*
X238090000Y-112149047D01*
X238137619Y-112196666D01*
X238280476Y-112291904D01*
X238470952Y-112339523D01*
X238851904Y-112339523D01*
X238947142Y-112291904D01*
X238994761Y-112244285D01*
X239042380Y-112149047D01*
X239042380Y-111958571D01*
X238994761Y-111863333D01*
X238947142Y-111815714D01*
X238851904Y-111768095D01*
X238613809Y-111768095D01*
X238518571Y-111815714D01*
X238470952Y-111863333D01*
X238423333Y-111958571D01*
X238423333Y-112149047D01*
X238470952Y-112244285D01*
X238518571Y-112291904D01*
X238613809Y-112339523D01*
X140208095Y-92372380D02*
X140208095Y-93181904D01*
X140255714Y-93277142D01*
X140303333Y-93324761D01*
X140398571Y-93372380D01*
X140589047Y-93372380D01*
X140684285Y-93324761D01*
X140731904Y-93277142D01*
X140779523Y-93181904D01*
X140779523Y-92372380D01*
X141779523Y-93372380D02*
X141208095Y-93372380D01*
X141493809Y-93372380D02*
X141493809Y-92372380D01*
X141398571Y-92515238D01*
X141303333Y-92610476D01*
X141208095Y-92658095D01*
X48341094Y-93421379D02*
X48341094Y-92421379D01*
X48341094Y-92897570D02*
X48912522Y-92897570D01*
X48912522Y-93421379D02*
X48912522Y-92421379D01*
X49864903Y-92421379D02*
X49388713Y-92421379D01*
X49341094Y-92897570D01*
X49388713Y-92849951D01*
X49483951Y-92802332D01*
X49722046Y-92802332D01*
X49817284Y-92849951D01*
X49864903Y-92897570D01*
X49912522Y-92992808D01*
X49912522Y-93230903D01*
X49864903Y-93326141D01*
X49817284Y-93373760D01*
X49722046Y-93421379D01*
X49483951Y-93421379D01*
X49388713Y-93373760D01*
X49341094Y-93326141D01*
X265435094Y-93624379D02*
X265435094Y-92624379D01*
X265435094Y-93100570D02*
X266006522Y-93100570D01*
X266006522Y-93624379D02*
X266006522Y-92624379D01*
X266911284Y-92624379D02*
X266720808Y-92624379D01*
X266625570Y-92671999D01*
X266577951Y-92719618D01*
X266482713Y-92862475D01*
X266435094Y-93052951D01*
X266435094Y-93433903D01*
X266482713Y-93529141D01*
X266530332Y-93576760D01*
X266625570Y-93624379D01*
X266816046Y-93624379D01*
X266911284Y-93576760D01*
X266958903Y-93529141D01*
X267006522Y-93433903D01*
X267006522Y-93195808D01*
X266958903Y-93100570D01*
X266911284Y-93052951D01*
X266816046Y-93005332D01*
X266625570Y-93005332D01*
X266530332Y-93052951D01*
X266482713Y-93100570D01*
X266435094Y-93195808D01*
X240403142Y-96877142D02*
X240355523Y-96924761D01*
X240212666Y-96972380D01*
X240117428Y-96972380D01*
X239974571Y-96924761D01*
X239879333Y-96829523D01*
X239831714Y-96734285D01*
X239784095Y-96543809D01*
X239784095Y-96400952D01*
X239831714Y-96210476D01*
X239879333Y-96115238D01*
X239974571Y-96020000D01*
X240117428Y-95972380D01*
X240212666Y-95972380D01*
X240355523Y-96020000D01*
X240403142Y-96067619D01*
X241355523Y-96972380D02*
X240784095Y-96972380D01*
X241069809Y-96972380D02*
X241069809Y-95972380D01*
X240974571Y-96115238D01*
X240879333Y-96210476D01*
X240784095Y-96258095D01*
X242212666Y-95972380D02*
X242022190Y-95972380D01*
X241926952Y-96020000D01*
X241879333Y-96067619D01*
X241784095Y-96210476D01*
X241736476Y-96400952D01*
X241736476Y-96781904D01*
X241784095Y-96877142D01*
X241831714Y-96924761D01*
X241926952Y-96972380D01*
X242117428Y-96972380D01*
X242212666Y-96924761D01*
X242260285Y-96877142D01*
X242307904Y-96781904D01*
X242307904Y-96543809D01*
X242260285Y-96448571D01*
X242212666Y-96400952D01*
X242117428Y-96353333D01*
X241926952Y-96353333D01*
X241831714Y-96400952D01*
X241784095Y-96448571D01*
X241736476Y-96543809D01*
X264501333Y-97766142D02*
X264453714Y-97813761D01*
X264310857Y-97861380D01*
X264215619Y-97861380D01*
X264072761Y-97813761D01*
X263977523Y-97718523D01*
X263929904Y-97623285D01*
X263882285Y-97432809D01*
X263882285Y-97289952D01*
X263929904Y-97099476D01*
X263977523Y-97004238D01*
X264072761Y-96909000D01*
X264215619Y-96861380D01*
X264310857Y-96861380D01*
X264453714Y-96909000D01*
X264501333Y-96956619D01*
X264882285Y-96956619D02*
X264929904Y-96909000D01*
X265025142Y-96861380D01*
X265263238Y-96861380D01*
X265358476Y-96909000D01*
X265406095Y-96956619D01*
X265453714Y-97051857D01*
X265453714Y-97147095D01*
X265406095Y-97289952D01*
X264834666Y-97861380D01*
X265453714Y-97861380D01*
X227687476Y-104703571D02*
X227830333Y-104751190D01*
X227877952Y-104798809D01*
X227925571Y-104894047D01*
X227925571Y-105036904D01*
X227877952Y-105132142D01*
X227830333Y-105179761D01*
X227735095Y-105227380D01*
X227354142Y-105227380D01*
X227354142Y-104227380D01*
X227687476Y-104227380D01*
X227782714Y-104275000D01*
X227830333Y-104322619D01*
X227877952Y-104417857D01*
X227877952Y-104513095D01*
X227830333Y-104608333D01*
X227782714Y-104655952D01*
X227687476Y-104703571D01*
X227354142Y-104703571D01*
X228544619Y-104227380D02*
X228735095Y-104227380D01*
X228830333Y-104275000D01*
X228925571Y-104370238D01*
X228973190Y-104560714D01*
X228973190Y-104894047D01*
X228925571Y-105084523D01*
X228830333Y-105179761D01*
X228735095Y-105227380D01*
X228544619Y-105227380D01*
X228449380Y-105179761D01*
X228354142Y-105084523D01*
X228306523Y-104894047D01*
X228306523Y-104560714D01*
X228354142Y-104370238D01*
X228449380Y-104275000D01*
X228544619Y-104227380D01*
X229592238Y-104227380D02*
X229782714Y-104227380D01*
X229877952Y-104275000D01*
X229973190Y-104370238D01*
X230020809Y-104560714D01*
X230020809Y-104894047D01*
X229973190Y-105084523D01*
X229877952Y-105179761D01*
X229782714Y-105227380D01*
X229592238Y-105227380D01*
X229497000Y-105179761D01*
X229401761Y-105084523D01*
X229354142Y-104894047D01*
X229354142Y-104560714D01*
X229401761Y-104370238D01*
X229497000Y-104275000D01*
X229592238Y-104227380D01*
X230401761Y-105179761D02*
X230544619Y-105227380D01*
X230782714Y-105227380D01*
X230877952Y-105179761D01*
X230925571Y-105132142D01*
X230973190Y-105036904D01*
X230973190Y-104941666D01*
X230925571Y-104846428D01*
X230877952Y-104798809D01*
X230782714Y-104751190D01*
X230592238Y-104703571D01*
X230497000Y-104655952D01*
X230449380Y-104608333D01*
X230401761Y-104513095D01*
X230401761Y-104417857D01*
X230449380Y-104322619D01*
X230497000Y-104275000D01*
X230592238Y-104227380D01*
X230830333Y-104227380D01*
X230973190Y-104275000D01*
X231258904Y-104227380D02*
X231830333Y-104227380D01*
X231544619Y-105227380D02*
X231544619Y-104227380D01*
X232687476Y-105227380D02*
X232116047Y-105227380D01*
X232401761Y-105227380D02*
X232401761Y-104227380D01*
X232306523Y-104370238D01*
X232211285Y-104465476D01*
X232116047Y-104513095D01*
X257548142Y-119864142D02*
X257500523Y-119911761D01*
X257357666Y-119959380D01*
X257262428Y-119959380D01*
X257119571Y-119911761D01*
X257024333Y-119816523D01*
X256976714Y-119721285D01*
X256929095Y-119530809D01*
X256929095Y-119387952D01*
X256976714Y-119197476D01*
X257024333Y-119102238D01*
X257119571Y-119007000D01*
X257262428Y-118959380D01*
X257357666Y-118959380D01*
X257500523Y-119007000D01*
X257548142Y-119054619D01*
X258500523Y-119959380D02*
X257929095Y-119959380D01*
X258214809Y-119959380D02*
X258214809Y-118959380D01*
X258119571Y-119102238D01*
X258024333Y-119197476D01*
X257929095Y-119245095D01*
X259357666Y-119292714D02*
X259357666Y-119959380D01*
X259119571Y-118911761D02*
X258881476Y-119626047D01*
X259500523Y-119626047D01*
X230152380Y-113672857D02*
X229676190Y-114006190D01*
X230152380Y-114244285D02*
X229152380Y-114244285D01*
X229152380Y-113863333D01*
X229200000Y-113768095D01*
X229247619Y-113720476D01*
X229342857Y-113672857D01*
X229485714Y-113672857D01*
X229580952Y-113720476D01*
X229628571Y-113768095D01*
X229676190Y-113863333D01*
X229676190Y-114244285D01*
X230152380Y-112720476D02*
X230152380Y-113291904D01*
X230152380Y-113006190D02*
X229152380Y-113006190D01*
X229295238Y-113101428D01*
X229390476Y-113196666D01*
X229438095Y-113291904D01*
X229152380Y-111815714D02*
X229152380Y-112291904D01*
X229628571Y-112339523D01*
X229580952Y-112291904D01*
X229533333Y-112196666D01*
X229533333Y-111958571D01*
X229580952Y-111863333D01*
X229628571Y-111815714D01*
X229723809Y-111768095D01*
X229961904Y-111768095D01*
X230057142Y-111815714D01*
X230104761Y-111863333D01*
X230152380Y-111958571D01*
X230152380Y-112196666D01*
X230104761Y-112291904D01*
X230057142Y-112339523D01*
X199787142Y-109902857D02*
X199834761Y-109950476D01*
X199882380Y-110093333D01*
X199882380Y-110188571D01*
X199834761Y-110331428D01*
X199739523Y-110426666D01*
X199644285Y-110474285D01*
X199453809Y-110521904D01*
X199310952Y-110521904D01*
X199120476Y-110474285D01*
X199025238Y-110426666D01*
X198930000Y-110331428D01*
X198882380Y-110188571D01*
X198882380Y-110093333D01*
X198930000Y-109950476D01*
X198977619Y-109902857D01*
X199882380Y-108950476D02*
X199882380Y-109521904D01*
X199882380Y-109236190D02*
X198882380Y-109236190D01*
X199025238Y-109331428D01*
X199120476Y-109426666D01*
X199168095Y-109521904D01*
X198882380Y-108045714D02*
X198882380Y-108521904D01*
X199358571Y-108569523D01*
X199310952Y-108521904D01*
X199263333Y-108426666D01*
X199263333Y-108188571D01*
X199310952Y-108093333D01*
X199358571Y-108045714D01*
X199453809Y-107998095D01*
X199691904Y-107998095D01*
X199787142Y-108045714D01*
X199834761Y-108093333D01*
X199882380Y-108188571D01*
X199882380Y-108426666D01*
X199834761Y-108521904D01*
X199787142Y-108569523D01*
X249725142Y-114882857D02*
X249772761Y-114930476D01*
X249820380Y-115073333D01*
X249820380Y-115168571D01*
X249772761Y-115311428D01*
X249677523Y-115406666D01*
X249582285Y-115454285D01*
X249391809Y-115501904D01*
X249248952Y-115501904D01*
X249058476Y-115454285D01*
X248963238Y-115406666D01*
X248868000Y-115311428D01*
X248820380Y-115168571D01*
X248820380Y-115073333D01*
X248868000Y-114930476D01*
X248915619Y-114882857D01*
X249820380Y-113930476D02*
X249820380Y-114501904D01*
X249820380Y-114216190D02*
X248820380Y-114216190D01*
X248963238Y-114311428D01*
X249058476Y-114406666D01*
X249106095Y-114501904D01*
X248820380Y-113597142D02*
X248820380Y-112930476D01*
X249820380Y-113359047D01*
X212598095Y-105072380D02*
X212598095Y-105881904D01*
X212645714Y-105977142D01*
X212693333Y-106024761D01*
X212788571Y-106072380D01*
X212979047Y-106072380D01*
X213074285Y-106024761D01*
X213121904Y-105977142D01*
X213169523Y-105881904D01*
X213169523Y-105072380D01*
X213598095Y-105167619D02*
X213645714Y-105120000D01*
X213740952Y-105072380D01*
X213979047Y-105072380D01*
X214074285Y-105120000D01*
X214121904Y-105167619D01*
X214169523Y-105262857D01*
X214169523Y-105358095D01*
X214121904Y-105500952D01*
X213550476Y-106072380D01*
X214169523Y-106072380D01*
X91456142Y-99139666D02*
X91503761Y-99187285D01*
X91551380Y-99330142D01*
X91551380Y-99425380D01*
X91503761Y-99568238D01*
X91408523Y-99663476D01*
X91313285Y-99711095D01*
X91122809Y-99758714D01*
X90979952Y-99758714D01*
X90789476Y-99711095D01*
X90694238Y-99663476D01*
X90599000Y-99568238D01*
X90551380Y-99425380D01*
X90551380Y-99330142D01*
X90599000Y-99187285D01*
X90646619Y-99139666D01*
X90884714Y-98282523D02*
X91551380Y-98282523D01*
X90503761Y-98520619D02*
X91218047Y-98758714D01*
X91218047Y-98139666D01*
X241006333Y-91087380D02*
X240673000Y-90611190D01*
X240434904Y-91087380D02*
X240434904Y-90087380D01*
X240815857Y-90087380D01*
X240911095Y-90135000D01*
X240958714Y-90182619D01*
X241006333Y-90277857D01*
X241006333Y-90420714D01*
X240958714Y-90515952D01*
X240911095Y-90563571D01*
X240815857Y-90611190D01*
X240434904Y-90611190D01*
X241387285Y-90182619D02*
X241434904Y-90135000D01*
X241530142Y-90087380D01*
X241768238Y-90087380D01*
X241863476Y-90135000D01*
X241911095Y-90182619D01*
X241958714Y-90277857D01*
X241958714Y-90373095D01*
X241911095Y-90515952D01*
X241339666Y-91087380D01*
X241958714Y-91087380D01*
X255103333Y-91087380D02*
X254770000Y-90611190D01*
X254531904Y-91087380D02*
X254531904Y-90087380D01*
X254912857Y-90087380D01*
X255008095Y-90135000D01*
X255055714Y-90182619D01*
X255103333Y-90277857D01*
X255103333Y-90420714D01*
X255055714Y-90515952D01*
X255008095Y-90563571D01*
X254912857Y-90611190D01*
X254531904Y-90611190D01*
X255436666Y-90087380D02*
X256055714Y-90087380D01*
X255722380Y-90468333D01*
X255865238Y-90468333D01*
X255960476Y-90515952D01*
X256008095Y-90563571D01*
X256055714Y-90658809D01*
X256055714Y-90896904D01*
X256008095Y-90992142D01*
X255960476Y-91039761D01*
X255865238Y-91087380D01*
X255579523Y-91087380D01*
X255484285Y-91039761D01*
X255436666Y-90992142D01*
X102647904Y-114010000D02*
X102552666Y-113962380D01*
X102409809Y-113962380D01*
X102266952Y-114010000D01*
X102171714Y-114105238D01*
X102124095Y-114200476D01*
X102076476Y-114390952D01*
X102076476Y-114533809D01*
X102124095Y-114724285D01*
X102171714Y-114819523D01*
X102266952Y-114914761D01*
X102409809Y-114962380D01*
X102505047Y-114962380D01*
X102647904Y-114914761D01*
X102695523Y-114867142D01*
X102695523Y-114533809D01*
X102505047Y-114533809D01*
X103124095Y-114962380D02*
X103124095Y-113962380D01*
X103695523Y-114962380D01*
X103695523Y-113962380D01*
X104171714Y-114962380D02*
X104171714Y-113962380D01*
X104409809Y-113962380D01*
X104552666Y-114010000D01*
X104647904Y-114105238D01*
X104695523Y-114200476D01*
X104743142Y-114390952D01*
X104743142Y-114533809D01*
X104695523Y-114724285D01*
X104647904Y-114819523D01*
X104552666Y-114914761D01*
X104409809Y-114962380D01*
X104171714Y-114962380D01*
X105695523Y-114962380D02*
X105124095Y-114962380D01*
X105409809Y-114962380D02*
X105409809Y-113962380D01*
X105314571Y-114105238D01*
X105219333Y-114200476D01*
X105124095Y-114248095D01*
X118268904Y-114010000D02*
X118173666Y-113962380D01*
X118030809Y-113962380D01*
X117887952Y-114010000D01*
X117792714Y-114105238D01*
X117745095Y-114200476D01*
X117697476Y-114390952D01*
X117697476Y-114533809D01*
X117745095Y-114724285D01*
X117792714Y-114819523D01*
X117887952Y-114914761D01*
X118030809Y-114962380D01*
X118126047Y-114962380D01*
X118268904Y-114914761D01*
X118316523Y-114867142D01*
X118316523Y-114533809D01*
X118126047Y-114533809D01*
X118745095Y-114962380D02*
X118745095Y-113962380D01*
X119316523Y-114962380D01*
X119316523Y-113962380D01*
X119792714Y-114962380D02*
X119792714Y-113962380D01*
X120030809Y-113962380D01*
X120173666Y-114010000D01*
X120268904Y-114105238D01*
X120316523Y-114200476D01*
X120364142Y-114390952D01*
X120364142Y-114533809D01*
X120316523Y-114724285D01*
X120268904Y-114819523D01*
X120173666Y-114914761D01*
X120030809Y-114962380D01*
X119792714Y-114962380D01*
X120745095Y-114057619D02*
X120792714Y-114010000D01*
X120887952Y-113962380D01*
X121126047Y-113962380D01*
X121221285Y-114010000D01*
X121268904Y-114057619D01*
X121316523Y-114152857D01*
X121316523Y-114248095D01*
X121268904Y-114390952D01*
X120697476Y-114962380D01*
X121316523Y-114962380D01*
X252281333Y-97612142D02*
X252233714Y-97659761D01*
X252090857Y-97707380D01*
X251995619Y-97707380D01*
X251852761Y-97659761D01*
X251757523Y-97564523D01*
X251709904Y-97469285D01*
X251662285Y-97278809D01*
X251662285Y-97135952D01*
X251709904Y-96945476D01*
X251757523Y-96850238D01*
X251852761Y-96755000D01*
X251995619Y-96707380D01*
X252090857Y-96707380D01*
X252233714Y-96755000D01*
X252281333Y-96802619D01*
X253233714Y-97707380D02*
X252662285Y-97707380D01*
X252948000Y-97707380D02*
X252948000Y-96707380D01*
X252852761Y-96850238D01*
X252757523Y-96945476D01*
X252662285Y-96993095D01*
X219289333Y-97480380D02*
X218813142Y-97480380D01*
X218813142Y-96480380D01*
X220146476Y-97480380D02*
X219575047Y-97480380D01*
X219860761Y-97480380D02*
X219860761Y-96480380D01*
X219765523Y-96623238D01*
X219670285Y-96718476D01*
X219575047Y-96766095D01*
X225766333Y-91046380D02*
X225433000Y-90570190D01*
X225194904Y-91046380D02*
X225194904Y-90046380D01*
X225575857Y-90046380D01*
X225671095Y-90094000D01*
X225718714Y-90141619D01*
X225766333Y-90236857D01*
X225766333Y-90379714D01*
X225718714Y-90474952D01*
X225671095Y-90522571D01*
X225575857Y-90570190D01*
X225194904Y-90570190D01*
X226718714Y-91046380D02*
X226147285Y-91046380D01*
X226433000Y-91046380D02*
X226433000Y-90046380D01*
X226337761Y-90189238D01*
X226242523Y-90284476D01*
X226147285Y-90332095D01*
M02*
